<?xml version="1.0" standalone="no"?>
<!DOCTYPE svg PUBLIC "-//W3C//DTD SVG 1.1//EN" "http://www.w3.org/Graphics/SVG/1.1/DTD/svg11.dtd" >
<svg xmlns="http://www.w3.org/2000/svg" xmlns:xlink="http://www.w3.org/1999/xlink" version="1.1" viewBox="-10 0 1034 1000">
   <path fill="currentColor"
d="M532 -295q25.333 0 44 17.333q17.333 18.667 17.333 44q0 25.334 -41.333 142.667q-5.33301 13.333 -20 13.333q-13.333 0 -18.667 -13.333q-41.333 -117.333 -41.333 -142.667q0 -25.333 17.333 -44q18.667 -17.333 42.667 -17.333zM558.667 202.333q20 0 29.333 16
l26.667 45.334q5.33301 8 5.33301 17.333q0 8 -5.33301 16l-26.667 45.333q-9.33301 17.334 -29.333 17.334h-52q-20 0 -29.334 -17.334l-26.666 -45.333q-4 -8 -4 -16q0 -9.33301 4 -17.333l26.666 -45.334q9.33398 -16 29.334 -16h52zM658.667 -149.667
q14.666 4 14.666 16q0 5.33398 -2.66602 12l-96 232q-5.33398 12 -18.667 12h-2.66699q-10.666 -1.33301 -21.333 -1.33301q-9.33301 0 -20 1.33301h-2.66699q-13.333 0 -18.666 -12l-96 -232q-2.66699 -6.66602 -2.66699 -12q0 -12 14.667 -16q8 -1.33301 14.666 -4
q4 -1.33301 6.66699 -1.33301q13.333 0 17.333 14.667q17.334 50.666 42.667 118.666l25.333 69.334q5.33398 12 18.667 12q14.667 0 20 -12l25.333 -69.334q25.334 -68 42.667 -118.666q4 -14.667 17.333 -14.667q2.66699 0 6.66699 1.33301q6.66699 2.66699 14.667 4z
M490.667 451.667q4 -12 16 -12h5.33301q10.667 1.33301 21.333 1.33301q10.667 0 20 -1.33301h5.33398q12 0 16 12l96 232q2.66602 6.66602 2.66602 12q0 10.666 -14.666 14.666q-62.667 18.667 -125.334 18.667q-62.666 0 -126.666 -18.667q-14.667 -4 -14.667 -14.666
q0 -5.33398 2.66699 -12zM936 142.333q5.33301 -2.66602 10.667 -2.66602q12 0 16 16q18.666 62.666 18.666 125.333t-18.666 125.333q-4 14.667 -14.667 14.667q-5.33301 0 -12 -2.66699l-232 -96q-12 -4 -12 -16v-5.33301q1.33301 -10.667 1.33301 -20
q0 -10.667 -1.33301 -20v-5.33301q0 -12 12 -17.334zM382.667 371.667q4 -1.33398 8 -1.33398q8 0 14.666 8q13.334 16 29.334 29.334q8 6.66602 8 16q0 4 -1.33398 8l-96 232q-6.66602 13.333 -16 13.333q-5.33301 0 -12 -4q-114.666 -62.667 -177.333 -177.333
q-4 -6.66699 -4 -12q0 -9.33398 13.333 -16zM624 431.667q-1.33301 -4 -1.33301 -8q0 -9.33398 8 -16q16 -13.334 29.333 -29.334q6.66699 -8 14.667 -8q4 0 8 1.33398l233.333 96q13.333 6.66602 13.333 16q0 5.33301 -4 12q-62.666 114.666 -177.333 177.333
q-6.66699 4 -12 4q-9.33301 0 -16 -13.333zM682.667 190.333q-4 1.33398 -8 1.33398q-8 0 -14.667 -8q-13.333 -17.334 -29.333 -29.334q-8 -6.66602 -8 -16q0 -4 1.33301 -8l96 -232q6.66699 -14.666 16 -14.666q5.33301 0 12 4q114.667 64 177.333 177.333q4 6.66699 4 12
q0 10.667 -13.333 16zM361.333 238.333q12 5.33398 12 17.334v5.33301q-1.33301 9.33301 -1.33301 20q0 9.33301 1.33301 20v5.33301q0 12 -12 16l-232 96q-6.66602 2.66699 -12 2.66699q-10.666 0 -14.666 -14.667q-18.667 -62.666 -18.667 -125.333t18.667 -125.333
q4 -16 16 -16q5.33301 0 10.666 2.66602zM149.333 93q-13.333 -5.33301 -13.333 -16q0 -5.33301 4 -12q62.667 -114.667 177.333 -177.333q6.66699 -4 12 -4q9.33398 0 16 14.666l96 232q1.33398 4 1.33398 8q0 9.33398 -8 16q-16 12 -29.334 29.334q-6.66602 8 -14.666 8
q-4 0 -8 -1.33398z" />
</svg>
