<?xml version="1.0" standalone="no"?>
<!DOCTYPE svg PUBLIC "-//W3C//DTD SVG 1.1//EN" "http://www.w3.org/Graphics/SVG/1.1/DTD/svg11.dtd" >
<svg xmlns="http://www.w3.org/2000/svg" xmlns:xlink="http://www.w3.org/1999/xlink" version="1.1" viewBox="-10 0 918 1000">
   <path fill="currentColor"
d="M433.125 5q24.4922 0 42.5391 16.7578q16.7578 18.0469 16.7578 42.5391t-39.9609 137.93q-5.15625 12.8906 -19.3359 12.8906q-12.8906 0 -18.0469 -12.8906q-39.9609 -113.438 -39.9609 -137.93t16.7578 -42.5391q18.0469 -16.7578 41.25 -16.7578zM458.906 485.82
q19.3359 0 28.3594 15.4688l25.7812 43.8281q5.15625 7.73438 5.15625 16.7578q0 7.73438 -5.15625 15.4688l-25.7812 43.8281q-9.02344 16.7578 -28.3594 16.7578h-50.2734q-19.3359 0 -28.3594 -16.7578l-25.7812 -43.8281q-3.86719 -7.73438 -3.86719 -15.4688
q0 -9.02344 3.86719 -16.7578l25.7812 -43.8281q9.02344 -15.4688 28.3594 -15.4688h50.2734zM555.586 145.508q14.1797 3.86719 14.1797 15.4688q0 5.15625 -2.57812 11.6016l-92.8125 224.297q-5.15625 11.6016 -18.0469 11.6016h-2.57812
q-10.3125 -1.28906 -20.625 -1.28906q-9.02344 0 -19.3359 1.28906h-2.57812q-12.8906 0 -18.0469 -11.6016l-92.8125 -224.297q-2.57812 -6.44531 -2.57812 -11.6016q0 -11.6016 14.1797 -15.4688q7.73438 -1.28906 14.1797 -3.86719q3.86719 -1.28906 6.44531 -1.28906
q12.8906 0 16.7578 14.1797q16.7578 48.9844 41.25 114.727l24.4922 67.0312q5.15625 11.6016 18.0469 11.6016q14.1797 0 19.3359 -11.6016l24.4922 -67.0312q24.4922 -65.7422 41.25 -114.727q3.86719 -14.1797 16.7578 -14.1797q2.57812 0 6.44531 1.28906
q6.44531 2.57812 14.1797 3.86719zM393.164 726.875q3.86719 -11.6016 15.4688 -11.6016h5.15625q10.3125 1.28906 20.625 1.28906t19.3359 -1.28906h5.15625q11.6016 0 15.4688 11.6016l92.8125 224.297q2.57812 6.44531 2.57812 11.6016q0 10.3125 -14.1797 14.1797
q-60.5859 18.0469 -121.172 18.0469t-122.461 -18.0469q-14.1797 -3.86719 -14.1797 -14.1797q0 -5.15625 2.57812 -11.6016zM823.711 427.812q5.15625 -2.57812 10.3125 -2.57812q11.6016 0 15.4688 15.4688q18.0469 60.5859 18.0469 121.172t-18.0469 121.172
q-3.86719 14.1797 -14.1797 14.1797q-5.15625 0 -11.6016 -2.57812l-224.297 -92.8125q-11.6016 -3.86719 -11.6016 -15.4688v-5.15625q1.28906 -10.3125 1.28906 -19.3359q0 -10.3125 -1.28906 -19.3359v-5.15625q0 -11.6016 11.6016 -16.7578zM288.75 649.531
q3.86719 -1.28906 7.73438 -1.28906q7.73438 0 14.1797 7.73438q12.8906 15.4688 28.3594 28.3594q7.73438 6.44531 7.73438 15.4688q0 3.86719 -1.28906 7.73438l-92.8125 224.297q-6.44531 12.8906 -15.4688 12.8906q-5.15625 0 -11.6016 -3.86719
q-110.859 -60.5859 -171.445 -171.445q-3.86719 -6.44531 -3.86719 -11.6016q0 -9.02344 12.8906 -15.4688zM522.07 707.539q-1.28906 -3.86719 -1.28906 -7.73438q0 -9.02344 7.73438 -15.4688q15.4688 -12.8906 28.3594 -28.3594q6.44531 -7.73438 14.1797 -7.73438
q3.86719 0 7.73438 1.28906l225.586 92.8125q12.8906 6.44531 12.8906 15.4688q0 5.15625 -3.86719 11.6016q-60.5859 110.859 -171.445 171.445q-6.44531 3.86719 -11.6016 3.86719q-9.02344 0 -15.4688 -12.8906zM578.789 474.219q-3.86719 1.28906 -7.73438 1.28906
q-7.73438 0 -14.1797 -7.73438q-12.8906 -16.7578 -28.3594 -28.3594q-7.73438 -6.44531 -7.73438 -15.4688q0 -3.86719 1.28906 -7.73438l92.8125 -224.297q6.44531 -14.1797 15.4688 -14.1797q5.15625 0 11.6016 3.86719q110.859 61.875 171.445 171.445
q3.86719 6.44531 3.86719 11.6016q0 10.3125 -12.8906 15.4688zM268.125 520.625q11.6016 5.15625 11.6016 16.7578v5.15625q-1.28906 9.02344 -1.28906 19.3359q0 9.02344 1.28906 19.3359v5.15625q0 11.6016 -11.6016 15.4688l-224.297 92.8125
q-6.44531 2.57812 -11.6016 2.57812q-10.3125 0 -14.1797 -14.1797q-18.0469 -60.5859 -18.0469 -121.172t18.0469 -121.172q3.86719 -15.4688 15.4688 -15.4688q5.15625 0 10.3125 2.57812zM63.1641 380.117q-12.8906 -5.15625 -12.8906 -15.4688
q0 -5.15625 3.86719 -11.6016q60.5859 -110.859 171.445 -171.445q6.44531 -3.86719 11.6016 -3.86719q9.02344 0 15.4688 14.1797l92.8125 224.297q1.28906 3.86719 1.28906 7.73438q0 9.02344 -7.73438 15.4688q-15.4688 11.6016 -28.3594 28.3594
q-6.44531 7.73438 -14.1797 7.73438q-3.86719 0 -7.73438 -1.28906z" />
</svg>
