<?xml version="1.0" standalone="no"?>
<!DOCTYPE svg PUBLIC "-//W3C//DTD SVG 1.1//EN" "http://www.w3.org/Graphics/SVG/1.1/DTD/svg11.dtd" >
<svg xmlns="http://www.w3.org/2000/svg" xmlns:xlink="http://www.w3.org/1999/xlink" version="1.1" viewBox="-10 0 1066 1000">
   <path fill="currentColor"
d="M722.667 297.833q33.333 0 56 -22.666q24 -24 24 -57.334q0 -33.333 -24 -57.333q-22.667 -24 -56 -24q-34.667 0 -57.334 24q-24 24 -24 57.333q0 33.334 24 57.334q22.667 22.666 57.334 22.666zM506.667 1.83301h538.666v430.667h-538.666v-430.667zM992 540.5v54.667
q0 44 -32 76q-32 30.666 -76 30.666h-754.667q-45.333 0 -76 -30.666q-32 -32 -32 -76v-754.667q0 -44 32 -76q30.667 -32 76 -32h754.667q44 0 76 32t32 76v54.667h-485.333q-45.334 0 -76 30.666q-32 32 -32 76v430.667q0 45.333 32 76q30.666 32 76 32h485.333z" />
</svg>
