<?xml version="1.0" standalone="no"?>
<!DOCTYPE svg PUBLIC "-//W3C//DTD SVG 1.1//EN" "http://www.w3.org/Graphics/SVG/1.1/DTD/svg11.dtd" >
<svg xmlns="http://www.w3.org/2000/svg" xmlns:xlink="http://www.w3.org/1999/xlink" version="1.1" viewBox="-10 0 1010 1000">
   <path fill="currentColor"
d="M678.047 577.988q32.2266 0 54.1406 -21.9141q23.2031 -23.2031 23.2031 -55.4297t-23.2031 -55.4297q-21.9141 -23.2031 -54.1406 -23.2031q-33.5156 0 -55.4297 23.2031q-23.2031 23.2031 -23.2031 55.4297t23.2031 55.4297q21.9141 21.9141 55.4297 21.9141z
M469.219 291.816h520.781v416.367h-520.781v-416.367zM938.438 812.598v52.8516q0 42.5391 -30.9375 73.4766q-30.9375 29.6484 -73.4766 29.6484h-729.609q-43.8281 0 -73.4766 -29.6484q-30.9375 -30.9375 -30.9375 -73.4766v-729.609q0 -42.5391 30.9375 -73.4766
q29.6484 -30.9375 73.4766 -30.9375h729.609q42.5391 0 73.4766 30.9375t30.9375 73.4766v52.8516h-469.219q-43.8281 0 -73.4766 29.6484q-30.9375 30.9375 -30.9375 73.4766v416.367q0 43.8281 30.9375 73.4766q29.6484 30.9375 73.4766 30.9375h469.219z" />
</svg>
