<?xml version="1.0" standalone="no"?>
<!DOCTYPE svg PUBLIC "-//W3C//DTD SVG 1.1//EN" "http://www.w3.org/Graphics/SVG/1.1/DTD/svg11.dtd" >
<svg xmlns="http://www.w3.org/2000/svg" xmlns:xlink="http://www.w3.org/1999/xlink" version="1.1" viewBox="-10 0 1004 1000">
   <path fill="currentColor"
d="M235.898 995h-179.18l136.641 -809.531h-193.359l30.9375 -180.469h581.367l-30.9375 180.469h-207.539zM962.93 439.414h-274.57q-101.836 0 -116.016 29.6484q-10.3125 20.625 -60.5859 302.93q-6.44531 33.5156 -6.44531 54.1406q0 25.7812 9.02344 33.5156
q11.6016 10.3125 88.9453 10.3125h150.82l25.7812 -154.688h-197.227l20.625 -121.172h333.867l-68.3203 400.898q-413.789 0 -452.461 -7.73438q-64.4531 -12.8906 -64.4531 -92.8125q0 -27.0703 7.73438 -63.1641l64.4531 -385.43q25.7812 -104.414 116.016 -119.883
q32.2266 -5.15625 104.414 -5.15625h339.023z" />
</svg>
