<?xml version="1.0" standalone="no"?>
<!DOCTYPE svg PUBLIC "-//W3C//DTD SVG 1.1//EN" "http://www.w3.org/Graphics/SVG/1.1/DTD/svg11.dtd" >
<svg xmlns="http://www.w3.org/2000/svg" xmlns:xlink="http://www.w3.org/1999/xlink" version="1.1" viewBox="-10 0 1062 1000">
   <path fill="currentColor"
d="M268 729h-185.333l141.333 -837.333h-200l32 -186.667h601.333l-32 186.667h-214.666zM1020 154.333h-284q-105.333 0 -120 30.667q-10.667 21.333 -62.667 313.333q-6.66602 34.667 -6.66602 56q0 26.667 9.33301 34.667q12 10.667 92 10.667h156l26.667 -160h-204
l21.333 -125.334h345.333l-70.666 414.667q-428 0 -468 -8q-66.667 -13.333 -66.667 -96q0 -28 8 -65.333l66.667 -398.667q26.666 -108 120 -124q33.333 -5.33301 108 -5.33301h350.666z" />
</svg>
