<?xml version="1.0" standalone="no"?>
<!DOCTYPE svg PUBLIC "-//W3C//DTD SVG 1.1//EN" "http://www.w3.org/Graphics/SVG/1.1/DTD/svg11.dtd" >
<svg xmlns="http://www.w3.org/2000/svg" xmlns:xlink="http://www.w3.org/1999/xlink" version="1.1" viewBox="-10 0 1066 1000">
   <path fill="currentColor"
d="M376 421h-77.333v-296l-92 28v-62.667l161.333 -57.333h8v388zM942.667 523.667v-613.334h-62.667q9.33301 21.334 9.33301 57.334q-4 34.666 -36 82.666l-120 130.667l170.667 -1.33301v62.666l-266.667 -1.33301l-1.33301 -50.667q156 -165.333 164 -180
q12 -26.666 12 -56q-2.66699 -44 -48 -44q-40 1.33398 -52 33.334q-4 13.333 -4 26.666v6.66699h-78.667q0 -33.333 18.667 -66.667h-64v613.334h132v-44h49.333q46.667 -8 48 -53.334v-2.66602q0 -49.334 -49.333 -49.334q-16 0 -30.667 6.66699q-24 12 -24 38.667h-78.666
q1.33301 -26.667 17.333 -53.334q34.667 -52 116 -52q82.667 0 112 50.667q13.333 22.667 13.333 44v13.333q0 60 -56 82.667l26.667 18.667h82.667zM124 523.667h358.667v-613.334h-358.667v613.334zM942.667 -192.333q42.666 0 73.333 29.333q29.333 30.667 29.333 73.333
v613.334q0 42.666 -29.333 73.333q-30.667 29.333 -73.333 29.333h-818.667q-42.667 0 -73.333 -29.333q-29.334 -30.667 -29.334 -73.333v-613.334q0 -42.666 29.334 -73.333q30.666 -29.333 73.333 -29.333h818.667z" />
</svg>
