<?xml version="1.0" standalone="no"?>
<!DOCTYPE svg PUBLIC "-//W3C//DTD SVG 1.1//EN" "http://www.w3.org/Graphics/SVG/1.1/DTD/svg11.dtd" >
<svg xmlns="http://www.w3.org/2000/svg" xmlns:xlink="http://www.w3.org/1999/xlink" version="1.1" viewBox="-10 0 1010 1000">
   <path fill="currentColor"
d="M342.891 697.227h-74.7656v-286.172l-88.9453 27.0703v-60.5859l155.977 -55.4297h7.73438v375.117zM890.742 796.484v-592.969h-60.5859q9.02344 20.625 9.02344 55.4297q-3.86719 33.5156 -34.8047 79.9219l-116.016 126.328l165 -1.28906v60.5859l-257.812 -1.28906
l-1.28906 -48.9844q150.82 -159.844 158.555 -174.023q11.6016 -25.7812 11.6016 -54.1406q-2.57812 -42.5391 -46.4062 -42.5391q-38.6719 1.28906 -50.2734 32.2266q-3.86719 12.8906 -3.86719 25.7812v6.44531h-76.0547q0 -32.2266 18.0469 -64.4531h-61.875v592.969
h127.617v-42.5391h47.6953q45.1172 -7.73438 46.4062 -51.5625v-2.57812q0 -47.6953 -47.6953 -47.6953q-15.4688 0 -29.6484 6.44531q-23.2031 11.6016 -23.2031 37.3828h-76.0547q1.28906 -25.7812 16.7578 -51.5625q33.5156 -50.2734 112.148 -50.2734
q79.9219 0 108.281 48.9844q12.8906 21.9141 12.8906 42.5391v12.8906q0 58.0078 -54.1406 79.9219l25.7812 18.0469h79.9219zM99.2578 796.484h346.758v-592.969h-346.758v592.969zM890.742 104.258q41.25 0 70.8984 28.3594q28.3594 29.6484 28.3594 70.8984v592.969
q0 41.25 -28.3594 70.8984q-29.6484 28.3594 -70.8984 28.3594h-791.484q-41.25 0 -70.8984 -28.3594q-28.3594 -29.6484 -28.3594 -70.8984v-592.969q0 -41.25 28.3594 -70.8984q29.6484 -28.3594 70.8984 -28.3594h791.484z" />
</svg>
