<?xml version="1.0" standalone="no"?>
<!DOCTYPE svg PUBLIC "-//W3C//DTD SVG 1.1//EN" "http://www.w3.org/Graphics/SVG/1.1/DTD/svg11.dtd" >
<svg xmlns="http://www.w3.org/2000/svg" xmlns:xlink="http://www.w3.org/1999/xlink" version="1.1" viewBox="-10 0 1010 1000">
   <path fill="currentColor"
d="M652.266 626.328q0 -10.3125 -10.3125 -19.3359q-7.73438 -7.73438 -19.3359 -7.73438h-5.15625l-76.0547 -77.3438q5.15625 -10.3125 5.15625 -21.9141t-5.15625 -21.9141l76.0547 -77.3438h5.15625q11.6016 0 19.3359 -7.73438q10.3125 -10.3125 10.3125 -19.3359
q0 -10.3125 -10.3125 -20.625t-20.625 -10.3125q-9.02344 0 -19.3359 10.3125q-7.73438 7.73438 -7.73438 19.3359v5.15625l-77.3438 76.0547q-10.3125 -5.15625 -21.9141 -5.15625t-21.9141 5.15625l-77.3438 -76.0547v-5.15625q0 -11.6016 -7.73438 -19.3359
q-9.02344 -10.3125 -19.3359 -10.3125t-20.625 10.3125q-9.02344 10.3125 -9.02344 20.625q0 9.02344 9.02344 19.3359q7.73438 7.73438 19.3359 7.73438h5.15625l76.0547 77.3438q-5.15625 10.3125 -5.15625 21.9141t5.15625 21.9141l-76.0547 77.3438h-5.15625
q-11.6016 0 -19.3359 7.73438q-9.02344 9.02344 -9.02344 19.3359t9.02344 20.625q10.3125 9.02344 20.625 9.02344t19.3359 -9.02344q7.73438 -7.73438 7.73438 -19.3359v-5.15625l77.3438 -76.0547q10.3125 5.15625 21.9141 5.15625t21.9141 -5.15625l77.3438 76.0547
v5.15625q0 11.6016 7.73438 19.3359q10.3125 9.02344 19.3359 9.02344q10.3125 0 20.625 -9.02344q10.3125 -10.3125 10.3125 -20.625zM495 234.453q109.57 0 188.203 77.3438q77.3438 78.6328 77.3438 188.203t-77.3438 188.203q-78.6328 77.3438 -188.203 77.3438
t-188.203 -77.3438q-77.3438 -78.6328 -77.3438 -188.203t77.3438 -188.203q78.6328 -77.3438 188.203 -77.3438zM928.125 556.719q14.1797 0 15.4688 -12.8906q2.57812 -23.2031 2.57812 -43.8281q0 -16.7578 -1.28906 -32.2266q-1.28906 -14.1797 -12.8906 -14.1797
h-2.57812l-59.2969 5.15625q-14.1797 1.28906 -14.1797 12.8906v2.57812q1.28906 12.8906 1.28906 25.7812q0 18.0469 -1.28906 36.0938v3.86719q0 10.3125 12.8906 11.6016zM901.055 695.938q2.57812 -3.86719 2.57812 -7.73438q0 -7.73438 -9.02344 -11.6016
l-54.1406 -25.7812q-3.86719 -2.57812 -7.73438 -2.57812q-7.73438 0 -11.6016 9.02344q-12.8906 28.3594 -30.9375 52.8516q-3.86719 5.15625 -3.86719 10.3125t7.73438 10.3125l48.9844 33.5156q5.15625 3.86719 9.02344 3.86719q6.44531 0 10.3125 -6.44531
q21.9141 -30.9375 38.6719 -65.7422zM495 790.039q119.883 0 204.961 -85.0781t85.0781 -204.961t-85.0781 -204.961t-204.961 -85.0781t-204.961 85.0781t-85.0781 204.961t85.0781 204.961t204.961 85.0781zM750.234 872.539q6.44531 -5.15625 6.44531 -11.6016
q0 -3.86719 -2.57812 -9.02344l-33.5156 -48.9844q-5.15625 -7.73438 -11.6016 -7.73438q-3.86719 0 -9.02344 3.86719q-24.4922 16.7578 -52.8516 29.6484q-9.02344 3.86719 -9.02344 11.6016q0 3.86719 2.57812 7.73438l25.7812 54.1406q3.86719 9.02344 11.6016 9.02344
q2.57812 0 6.44531 -1.28906q34.8047 -16.7578 65.7422 -37.3828zM532.383 949.883q14.1797 -1.28906 14.1797 -15.4688l-5.15625 -60.5859q-1.28906 -12.8906 -12.8906 -12.8906h-2.57812q-15.4688 1.28906 -30.9375 1.28906q-14.1797 0 -29.6484 -1.28906h-2.57812
q-12.8906 0 -12.8906 12.8906l-5.15625 60.5859v2.57812q0 11.6016 12.8906 12.8906q19.3359 1.28906 37.3828 1.28906t37.3828 -1.28906zM349.336 848.047q2.57812 -3.86719 2.57812 -7.73438q0 -7.73438 -9.02344 -11.6016q-28.3594 -12.8906 -52.8516 -29.6484
q-5.15625 -3.86719 -9.02344 -3.86719q-6.44531 0 -11.6016 7.73438l-33.5156 48.9844q-2.57812 5.15625 -2.57812 9.02344q0 6.44531 6.44531 11.6016q30.9375 20.625 65.7422 37.3828q3.86719 1.28906 6.44531 1.28906q7.73438 0 11.6016 -9.02344zM195.938 730.742
q7.73438 -5.15625 7.73438 -11.6016q0 -3.86719 -3.86719 -9.02344q-18.0469 -24.4922 -30.9375 -52.8516q-3.86719 -9.02344 -11.6016 -9.02344q-3.86719 0 -7.73438 2.57812l-54.1406 25.7812q-9.02344 3.86719 -9.02344 11.6016q0 3.86719 2.57812 7.73438
q16.7578 34.8047 38.6719 65.7422q3.86719 6.44531 10.3125 6.44531q3.86719 0 9.02344 -3.86719zM46.4062 543.828q1.28906 12.8906 15.4688 12.8906l59.2969 -5.15625q12.8906 -1.28906 12.8906 -11.6016v-3.86719q-1.28906 -18.0469 -1.28906 -36.0938
q0 -12.8906 1.28906 -25.7812v-2.57812q0 -11.6016 -14.1797 -12.8906l-59.2969 -5.15625q-14.1797 0 -15.4688 14.1797q-1.28906 15.4688 -1.28906 32.2266q0 20.625 2.57812 43.8281zM85.0781 311.797q-2.57812 3.86719 -2.57812 7.73438q0 7.73438 9.02344 11.6016
l54.1406 25.7812q3.86719 2.57812 7.73438 2.57812q7.73438 0 11.6016 -9.02344q12.8906 -28.3594 30.9375 -54.1406q2.57812 -5.15625 2.57812 -9.02344q0 -6.44531 -6.44531 -11.6016l-50.2734 -33.5156q-5.15625 -2.57812 -9.02344 -2.57812q-5.15625 0 -10.3125 6.44531
q-21.9141 32.2266 -37.3828 65.7422zM234.609 131.328q-6.44531 3.86719 -6.44531 10.3125q0 3.86719 3.86719 9.02344l33.5156 50.2734q5.15625 6.44531 11.6016 6.44531q3.86719 0 9.02344 -2.57812q25.7812 -18.0469 52.8516 -32.2266q10.3125 -3.86719 10.3125 -11.6016
q0 -3.86719 -2.57812 -7.73438l-27.0703 -54.1406q-3.86719 -9.02344 -10.3125 -9.02344q-3.86719 0 -7.73438 2.57812q-34.8047 16.7578 -67.0312 38.6719zM457.617 50.1172q-14.1797 1.28906 -14.1797 12.8906v2.57812l5.15625 60.5859q1.28906 12.8906 12.8906 12.8906
h2.57812q15.4688 -1.28906 30.9375 -1.28906t32.2266 1.28906h2.57812q11.6016 0 12.8906 -12.8906l3.86719 -60.5859v-2.57812q0 -11.6016 -12.8906 -12.8906q-20.625 -1.28906 -38.6719 -1.28906t-37.3828 1.28906zM643.242 153.242q-2.57812 3.86719 -2.57812 7.73438
q0 7.73438 9.02344 11.6016q28.3594 14.1797 54.1406 32.2266q5.15625 2.57812 9.02344 2.57812q6.44531 0 11.6016 -6.44531l33.5156 -50.2734q3.86719 -5.15625 3.86719 -9.02344q0 -6.44531 -6.44531 -10.3125q-32.2266 -21.9141 -67.0312 -38.6719
q-3.86719 -2.57812 -7.73438 -2.57812q-7.73438 0 -11.6016 9.02344zM797.93 275.703q-6.44531 5.15625 -6.44531 11.6016q0 3.86719 2.57812 9.02344q18.0469 25.7812 30.9375 54.1406q3.86719 9.02344 11.6016 9.02344q3.86719 0 7.73438 -2.57812l54.1406 -25.7812
q9.02344 -3.86719 9.02344 -11.6016q0 -3.86719 -2.57812 -7.73438q-15.4688 -33.5156 -37.3828 -65.7422q-5.15625 -6.44531 -10.3125 -6.44531q-3.86719 0 -9.02344 2.57812zM495 5q204.961 0 350.625 144.375q144.375 145.664 144.375 350.625t-144.375 350.625
q-145.664 144.375 -350.625 144.375t-350.625 -144.375q-144.375 -145.664 -144.375 -350.625t144.375 -350.625q145.664 -144.375 350.625 -144.375z" />
</svg>
