<?xml version="1.0" standalone="no"?>
<!DOCTYPE svg PUBLIC "-//W3C//DTD SVG 1.1//EN" "http://www.w3.org/Graphics/SVG/1.1/DTD/svg11.dtd" >
<svg xmlns="http://www.w3.org/2000/svg" xmlns:xlink="http://www.w3.org/1999/xlink" version="1.1" viewBox="-10 0 1066 1000">
   <path fill="currentColor"
d="M696 347.667q0 -10.667 -10.667 -20q-8 -8 -20 -8h-5.33301l-78.667 -80q5.33398 -10.667 5.33398 -22.667t-5.33398 -22.667l78.667 -80h5.33301q12 0 20 -8q10.667 -10.666 10.667 -20q0 -10.666 -10.667 -21.333q-10.666 -10.667 -21.333 -10.667
q-9.33301 0 -20 10.667q-8 8 -8 20v5.33301l-80 78.667q-10.667 -5.33301 -22.667 -5.33301t-22.666 5.33301l-80 -78.667v-5.33301q0 -12 -8 -20q-9.33398 -10.667 -20 -10.667q-10.667 0 -21.334 10.667q-9.33301 10.667 -9.33301 21.333q0 9.33398 9.33301 20q8 8 20 8
h5.33398l78.666 80q-5.33301 10.667 -5.33301 22.667t5.33301 22.667l-78.666 80h-5.33398q-12 0 -20 8q-9.33301 9.33301 -9.33301 20q0 10.666 9.33301 21.333q10.667 9.33301 21.334 9.33301q10.666 0 20 -9.33301q8 -8 8 -20v-5.33301l80 -78.667
q10.666 5.33301 22.666 5.33301t22.667 -5.33301l80 78.667v5.33301q0 12 8 20q10.667 9.33301 20 9.33301q10.667 0 21.333 -9.33301q10.667 -10.667 10.667 -21.333zM533.333 -57.667q113.334 0 194.667 80q80 81.334 80 194.667t-80 194.667q-81.333 80 -194.667 80
q-113.333 0 -194.666 -80q-80 -81.334 -80 -194.667t80 -194.667q81.333 -80 194.666 -80zM981.333 275.667q14.667 0 16 -13.334q2.66699 -24 2.66699 -45.333q0 -17.333 -1.33301 -33.333q-1.33398 -14.667 -13.334 -14.667h-2.66602l-61.334 5.33301
q-14.666 1.33398 -14.666 13.334v2.66602q1.33301 13.334 1.33301 26.667q0 18.667 -1.33301 37.333v4q0 10.667 13.333 12zM953.333 419.667q2.66699 -4 2.66699 -8q0 -8 -9.33301 -12l-56 -26.667q-4 -2.66699 -8 -2.66699q-8 0 -12 9.33398q-13.334 29.333 -32 54.666
q-4 5.33398 -4 10.667t8 10.667l50.666 34.666q5.33398 4 9.33398 4q6.66602 0 10.666 -6.66602q22.667 -32 40 -68zM533.333 517q124 0 212 -88t88 -212t-88 -212t-212 -88t-212 88t-88 212t88 212t212 88zM797.333 602.333q6.66699 -5.33301 6.66699 -12
q0 -4 -2.66699 -9.33301l-34.666 -50.667q-5.33398 -8 -12 -8q-4 0 -9.33398 4q-25.333 17.334 -54.666 30.667q-9.33398 4 -9.33398 12q0 4 2.66699 8l26.667 56q4 9.33301 12 9.33301q2.66602 0 6.66602 -1.33301q36 -17.333 68 -38.667zM572 682.333
q14.667 -1.33301 14.667 -16l-5.33398 -62.666q-1.33301 -13.334 -13.333 -13.334h-2.66699q-16 1.33398 -32 1.33398q-14.666 0 -30.666 -1.33398h-2.66699q-13.333 0 -13.333 13.334l-5.33398 62.666v2.66699q0 12 13.334 13.333q20 1.33398 38.666 1.33398
q18.667 0 38.667 -1.33398zM382.667 577q2.66602 -4 2.66602 -8q0 -8 -9.33301 -12q-29.333 -13.333 -54.667 -30.667q-5.33301 -4 -9.33301 -4q-6.66699 0 -12 8l-34.667 50.667q-2.66602 5.33301 -2.66602 9.33301q0 6.66699 6.66602 12q32 21.334 68 38.667
q4 1.33301 6.66699 1.33301q8 0 12 -9.33301zM224 455.667q8 -5.33398 8 -12q0 -4 -4 -9.33398q-18.667 -25.333 -32 -54.666q-4 -9.33398 -12 -9.33398q-4 0 -8 2.66699l-56 26.667q-9.33301 4 -9.33301 12q0 4 2.66602 8q17.334 36 40 68q4 6.66602 10.667 6.66602
q4 0 9.33301 -4zM69.333 262.333q1.33398 13.334 16 13.334l61.334 -5.33398q13.333 -1.33301 13.333 -12v-4q-1.33301 -18.666 -1.33301 -37.333q0 -13.333 1.33301 -26.667v-2.66602q0 -12 -14.667 -13.334l-61.333 -5.33301q-14.667 0 -16 14.667
q-1.33301 16 -1.33301 33.333q0 21.333 2.66602 45.333zM109.333 22.333q-2.66602 4 -2.66602 8q0 8 9.33301 12l56 26.667q4 2.66699 8 2.66699q8 0 12 -9.33398q13.333 -29.333 32 -56q2.66699 -5.33301 2.66699 -9.33301q0 -6.66699 -6.66699 -12l-52 -34.667
q-5.33301 -2.66602 -9.33301 -2.66602q-5.33398 0 -10.667 6.66602q-22.667 33.334 -38.667 68zM264 -164.333q-6.66699 4 -6.66699 10.666q0 4 4 9.33398l34.667 52q5.33301 6.66602 12 6.66602q4 0 9.33301 -2.66602q26.667 -18.667 54.667 -33.334q10.667 -4 10.667 -12
q0 -4 -2.66699 -8l-28 -56q-4 -9.33301 -10.667 -9.33301q-4 0 -8 2.66699q-36 17.333 -69.333 40zM494.667 -248.333q-14.667 1.33301 -14.667 13.333v2.66699l5.33301 62.666q1.33398 13.334 13.334 13.334h2.66602q16 -1.33398 32 -1.33398t33.334 1.33398h2.66602
q12 0 13.334 -13.334l4 -62.666v-2.66699q0 -12 -13.334 -13.333q-21.333 -1.33398 -40 -1.33398q-18.666 0 -38.666 1.33398zM686.667 -141.667q-2.66699 4 -2.66699 8q0 8 9.33301 12q29.334 14.667 56 33.334q5.33398 2.66602 9.33398 2.66602q6.66602 0 12 -6.66602
l34.666 -52q4 -5.33398 4 -9.33398q0 -6.66602 -6.66602 -10.666q-33.334 -22.667 -69.334 -40q-4 -2.66699 -8 -2.66699q-8 0 -12 9.33301zM846.667 -15q-6.66699 5.33301 -6.66699 12q0 4 2.66699 9.33301q18.666 26.667 32 56q4 9.33398 12 9.33398q4 0 8 -2.66699
l56 -26.667q9.33301 -4 9.33301 -12q0 -4 -2.66699 -8q-16 -34.666 -38.666 -68q-5.33398 -6.66602 -10.667 -6.66602q-4 0 -9.33301 2.66602zM533.333 -295q212 0 362.667 149.333q149.333 150.667 149.333 362.667t-149.333 362.667q-150.667 149.333 -362.667 149.333
t-362.666 -149.333q-149.334 -150.667 -149.334 -362.667t149.334 -362.667q150.666 -149.333 362.666 -149.333z" />
</svg>
