<?xml version="1.0" standalone="no"?>
<!DOCTYPE svg PUBLIC "-//W3C//DTD SVG 1.1//EN" "http://www.w3.org/Graphics/SVG/1.1/DTD/svg11.dtd" >
<svg xmlns="http://www.w3.org/2000/svg" xmlns:xlink="http://www.w3.org/1999/xlink" version="1.1" viewBox="-10 0 1010 1000">
   <path fill="currentColor"
d="M839.18 311.797h-7.73438l-155.977 55.4297v60.5859l88.9453 -28.3594v288.75h74.7656v-376.406zM964.219 150.664q10.3125 0 18.0469 7.73438q7.73438 9.02344 7.73438 19.3359v644.531q0 10.3125 -7.73438 19.3359q-7.73438 7.73438 -18.0469 7.73438h-413.789
q-10.3125 0 -18.0469 -7.73438q-7.73438 -9.02344 -7.73438 -19.3359v-118.594h47.6953q10.3125 0 10.3125 -6.44531v-149.531q0 -6.44531 -10.3125 -6.44531h-47.6953v-82.5h47.6953q10.3125 0 10.3125 -6.44531v-149.531q0 -6.44531 -10.3125 -6.44531h-47.6953v-118.594
q0 -10.3125 7.73438 -19.3359q7.73438 -7.73438 18.0469 -7.73438h413.789zM366.094 630.195h-162.422l86.3672 -90.2344q34.8047 -38.6719 48.9844 -67.0312q14.1797 -29.6484 14.1797 -56.7188q0 -51.5625 -32.2266 -79.9219q-32.2266 -27.0703 -90.2344 -27.0703
q-37.3828 0 -68.3203 15.4688q-29.6484 16.7578 -46.4062 45.1172q-15.4688 28.3594 -15.4688 63.1641h74.7656q0 -28.3594 14.1797 -46.4062q15.4688 -16.7578 39.9609 -16.7578q23.2031 0 36.0938 14.1797t12.8906 38.6719q0 19.3359 -11.6016 38.6719
q-12.8906 20.625 -37.3828 48.9844l-122.461 128.906v51.5625h259.102v-60.5859zM465.352 703.672v118.594q0 10.3125 -7.73438 19.3359q-7.73438 7.73438 -18.0469 7.73438h-413.789q-10.3125 0 -18.0469 -7.73438q-7.73438 -9.02344 -7.73438 -19.3359v-644.531
q0 -10.3125 7.73438 -19.3359q7.73438 -7.73438 18.0469 -7.73438h413.789q10.3125 0 18.0469 7.73438q7.73438 9.02344 7.73438 19.3359v118.594h-47.6953q-10.3125 0 -10.3125 6.44531v149.531q0 6.44531 10.3125 6.44531h47.6953v82.5h-47.6953
q-10.3125 0 -10.3125 6.44531v149.531q0 6.44531 10.3125 6.44531h47.6953z" />
</svg>
