<?xml version="1.0" standalone="no"?>
<!DOCTYPE svg PUBLIC "-//W3C//DTD SVG 1.1//EN" "http://www.w3.org/Graphics/SVG/1.1/DTD/svg11.dtd" >
<svg xmlns="http://www.w3.org/2000/svg" xmlns:xlink="http://www.w3.org/1999/xlink" version="1.1" viewBox="-10 0 1066 1000">
   <path fill="currentColor"
d="M889.333 22.333h-8l-161.333 57.334v62.666l92 -29.333v298.667h77.333v-389.334zM1018.67 -144.333q10.666 0 18.666 8q8 9.33301 8 20v666.666q0 10.667 -8 20q-8 8 -18.666 8h-428q-10.667 0 -18.667 -8q-8 -9.33301 -8 -20v-122.666h49.333q10.667 0 10.667 -6.66699
v-154.667q0 -6.66602 -10.667 -6.66602h-49.333v-85.334h49.333q10.667 0 10.667 -6.66602v-154.667q0 -6.66699 -10.667 -6.66699h-49.333v-122.666q0 -10.667 8 -20q8 -8 18.667 -8h428zM400 351.667h-168l89.333 -93.334q36 -40 50.667 -69.333
q14.667 -30.667 14.667 -58.667q0 -53.333 -33.334 -82.666q-33.333 -28 -93.333 -28q-38.667 0 -70.667 16q-30.666 17.333 -48 46.666q-16 29.334 -16 65.334h77.334q0 -29.334 14.666 -48q16 -17.334 41.334 -17.334q24 0 37.333 14.667t13.333 40q0 20 -12 40
q-13.333 21.333 -38.666 50.667l-126.667 133.333v53.333h268v-62.666zM502.667 427.667v122.666q0 10.667 -8 20q-8 8 -18.667 8h-428q-10.667 0 -18.667 -8q-8 -9.33301 -8 -20v-666.666q0 -10.667 8 -20q8 -8 18.667 -8h428q10.667 0 18.667 8q8 9.33301 8 20v122.666
h-49.334q-10.666 0 -10.666 6.66699v154.667q0 6.66602 10.666 6.66602h49.334v85.334h-49.334q-10.666 0 -10.666 6.66602v154.667q0 6.66699 10.666 6.66699h49.334z" />
</svg>
