<?xml version="1.0" standalone="no"?>
<!DOCTYPE svg PUBLIC "-//W3C//DTD SVG 1.1//EN" "http://www.w3.org/Graphics/SVG/1.1/DTD/svg11.dtd" >
<svg xmlns="http://www.w3.org/2000/svg" xmlns:xlink="http://www.w3.org/1999/xlink" version="1.1" viewBox="-10 0 1066 1000">
   <path fill="currentColor"
d="M418.667 322.333q6.66602 -10.666 6.66602 -21.333q0 -5.33301 -1.33301 -10.667q-4 -17.333 -20 -25.333q-10.667 -6.66699 -21.333 -6.66699q-5.33398 0 -10.667 1.33398q-16 4 -25.333 20q-5.33398 9.33301 -5.33398 20q0 6.66602 1.33398 12q4 16 18.666 25.333
q10.667 5.33301 20 5.33301q6.66699 0 12 -1.33301q17.334 -4 25.334 -18.667zM477.333 546.333q5.33398 -9.33301 5.33398 -20q0 -5.33301 -1.33398 -12q-4 -17.333 -18.666 -25.333q-10.667 -6.66699 -21.334 -6.66699q-5.33301 0 -10.666 1.33398
q-17.334 5.33301 -25.334 20q-6.66602 10.666 -6.66602 21.333q0 5.33301 1.33301 10.667q4 16 20 25.333q9.33301 5.33301 20 5.33301q5.33301 0 12 -1.33301q16 -4 25.333 -18.667zM338.667 470.333q5.33301 -10.666 5.33301 -21.333q0 -5.33301 -1.33301 -10.667
q-4 -17.333 -20 -26.666q-9.33398 -5.33398 -20 -5.33398q-6.66699 0 -12 1.33398q-16 4 -25.334 20q-5.33301 9.33301 -5.33301 20q0 6.66602 1.33301 12q4 16 18.667 25.333q10.667 5.33301 21.333 5.33301q5.33398 0 10.667 -1.33301q17.333 -4 26.667 -18.667z
M196 379.667q5.33301 -9.33398 5.33301 -20q0 -6.66699 -1.33301 -12q-4 -16 -20 -25.334q-9.33301 -5.33301 -18.667 -5.33301q-6.66602 0 -12 1.33301q-17.333 4 -26.666 18.667q-5.33398 10.667 -5.33398 21.333q0 5.33398 1.33398 10.667q4 17.333 18.666 25.333
q10.667 6.66699 22.667 6.66699q4 0 9.33301 -1.33301q17.334 -4 26.667 -20zM253.333 603.667q5.33398 -9.33398 5.33398 -20q0 -5.33398 -1.33398 -12q-4 -16 -18.666 -25.334q-9.33398 -5.33301 -20 -5.33301q-5.33398 0 -12 1.33301q-17.334 4 -25.334 18.667
q-6.66602 10.667 -6.66602 22.667q0 4 1.33301 9.33301q5.33301 17.333 20 25.333q10.667 6.66699 21.333 6.66699q5.33398 0 10.667 -1.33301q16 -4 25.333 -20zM404 165q9.33301 -2.66699 18.667 -2.66699q18.666 0 36 10.667q25.333 14.667 33.333 42.667l85.333 330.666
q2.66699 9.33398 2.66699 17.334q0 18.666 -10.667 36q-14.666 26.666 -44 33.333l-329.333 85.333q-9.33301 2.66699 -18.667 2.66699q-18.666 0 -36 -10.667q-25.333 -14.666 -32 -42.666l-85.333 -330.667q-2.66699 -9.33301 -2.66699 -20q0 -17.333 9.33398 -33.333
q16 -26.667 44 -33.334zM938.667 62.333q1.33301 -5.33301 1.33301 -9.33301q0 -12 -8 -22.667q-9.33301 -14.666 -26.667 -17.333q-5.33301 -1.33301 -9.33301 -1.33301q-10.667 0 -21.333 6.66602q-14.667 9.33398 -18.667 26.667v8q0 12 6.66699 24
q9.33301 14.667 26.666 17.333q5.33398 1.33398 10.667 1.33398q10.667 0 21.333 -6.66699q14.667 -10.667 17.334 -26.667zM810.667 -131v-8q0 -12 -6.66699 -22.667q-9.33301 -14.666 -26.667 -18.666h-8q-12 0 -24 6.66602q-13.333 9.33398 -17.333 26.667
q-1.33301 5.33301 -1.33301 9.33301q0 12 8 22.667q9.33301 13.333 26.666 17.333q5.33398 1.33398 9.33398 1.33398q12 0 21.333 -8q14.667 -9.33398 18.667 -26.667zM746.667 190.333v-8q0 -12 -6.66699 -24q-9.33301 -14.666 -26.667 -17.333
q-5.33301 -1.33301 -10.666 -1.33301q-10.667 0 -21.334 6.66602q-14.666 10.667 -17.333 28q-1.33301 4 -1.33301 8q0 12 8 22.667q9.33301 14.667 26.666 18.667h8q12 0 22.667 -6.66699q14.667 -9.33301 18.667 -26.667zM618.667 -3v-6.66699q0 -12 -6.66699 -24
q-9.33301 -14.666 -26.667 -18.666h-8q-12 0 -24 6.66602q-14.666 9.33398 -17.333 26.667q-1.33301 5.33301 -1.33301 10.667q0 10.666 6.66602 21.333q10.667 14.667 26.667 17.333q5.33301 1.33398 10.667 1.33398q10.666 0 21.333 -6.66699q14.667 -10.667 18.667 -28z
M1033.33 29q12 17.333 12 38.667q0 6.66602 -1.33301 14.666q-6.66699 29.334 -30.667 45.334q-297.333 197.333 -305.333 200q-10.667 2.66602 -20 2.66602q-36 0 -57.333 -33.333l-189.334 -282.667q-12 -18.666 -12 -40q0 -8 1.33398 -14.666q6.66602 -28 30.666 -45.334
l284 -188q9.33398 -8 21.334 -10.666q10.666 -2.66699 21.333 -2.66699q34.667 0 56 32z" />
</svg>
