<?xml version="1.0" standalone="no"?>
<!DOCTYPE svg PUBLIC "-//W3C//DTD SVG 1.1//EN" "http://www.w3.org/Graphics/SVG/1.1/DTD/svg11.dtd" >
<svg xmlns="http://www.w3.org/2000/svg" xmlns:xlink="http://www.w3.org/1999/xlink" version="1.1" viewBox="-10 0 1010 1000">
   <path fill="currentColor"
d="M384.141 601.836q6.44531 -10.3125 6.44531 -20.625q0 -5.15625 -1.28906 -10.3125q-3.86719 -16.7578 -19.3359 -24.4922q-10.3125 -6.44531 -20.625 -6.44531q-5.15625 0 -10.3125 1.28906q-15.4688 3.86719 -24.4922 19.3359q-5.15625 9.02344 -5.15625 19.3359
q0 6.44531 1.28906 11.6016q3.86719 15.4688 18.0469 24.4922q10.3125 5.15625 19.3359 5.15625q6.44531 0 11.6016 -1.28906q16.7578 -3.86719 24.4922 -18.0469zM440.859 818.398q5.15625 -9.02344 5.15625 -19.3359q0 -5.15625 -1.28906 -11.6016
q-3.86719 -16.7578 -18.0469 -24.4922q-10.3125 -6.44531 -20.625 -6.44531q-5.15625 0 -10.3125 1.28906q-16.7578 5.15625 -24.4922 19.3359q-6.44531 10.3125 -6.44531 20.625q0 5.15625 1.28906 10.3125q3.86719 15.4688 19.3359 24.4922
q9.02344 5.15625 19.3359 5.15625q5.15625 0 11.6016 -1.28906q15.4688 -3.86719 24.4922 -18.0469zM306.797 744.922q5.15625 -10.3125 5.15625 -20.625q0 -5.15625 -1.28906 -10.3125q-3.86719 -16.7578 -19.3359 -25.7812q-9.02344 -5.15625 -19.3359 -5.15625
q-6.44531 0 -11.6016 1.28906q-15.4688 3.86719 -24.4922 19.3359q-5.15625 9.02344 -5.15625 19.3359q0 6.44531 1.28906 11.6016q3.86719 15.4688 18.0469 24.4922q10.3125 5.15625 20.625 5.15625q5.15625 0 10.3125 -1.28906q16.7578 -3.86719 25.7812 -18.0469z
M168.867 657.266q5.15625 -9.02344 5.15625 -19.3359q0 -6.44531 -1.28906 -11.6016q-3.86719 -15.4688 -19.3359 -24.4922q-9.02344 -5.15625 -18.0469 -5.15625q-6.44531 0 -11.6016 1.28906q-16.7578 3.86719 -25.7812 18.0469q-5.15625 10.3125 -5.15625 20.625
q0 5.15625 1.28906 10.3125q3.86719 16.7578 18.0469 24.4922q10.3125 6.44531 21.9141 6.44531q3.86719 0 9.02344 -1.28906q16.7578 -3.86719 25.7812 -19.3359zM224.297 873.828q5.15625 -9.02344 5.15625 -19.3359q0 -5.15625 -1.28906 -11.6016
q-3.86719 -15.4688 -18.0469 -24.4922q-9.02344 -5.15625 -19.3359 -5.15625q-5.15625 0 -11.6016 1.28906q-16.7578 3.86719 -24.4922 18.0469q-6.44531 10.3125 -6.44531 21.9141q0 3.86719 1.28906 9.02344q5.15625 16.7578 19.3359 24.4922
q10.3125 6.44531 20.625 6.44531q5.15625 0 10.3125 -1.28906q15.4688 -3.86719 24.4922 -19.3359zM369.961 449.727q9.02344 -2.57812 18.0469 -2.57812q18.0469 0 34.8047 10.3125q24.4922 14.1797 32.2266 41.25l82.5 319.688q2.57812 9.02344 2.57812 16.7578
q0 18.0469 -10.3125 34.8047q-14.1797 25.7812 -42.5391 32.2266l-318.398 82.5q-9.02344 2.57812 -18.0469 2.57812q-18.0469 0 -34.8047 -10.3125q-24.4922 -14.1797 -30.9375 -41.25l-82.5 -319.688q-2.57812 -9.02344 -2.57812 -19.3359q0 -16.7578 9.02344 -32.2266
q15.4688 -25.7812 42.5391 -32.2266zM886.875 350.469q1.28906 -5.15625 1.28906 -9.02344q0 -11.6016 -7.73438 -21.9141q-9.02344 -14.1797 -25.7812 -16.7578q-5.15625 -1.28906 -9.02344 -1.28906q-10.3125 0 -20.625 6.44531q-14.1797 9.02344 -18.0469 25.7812
v7.73438q0 11.6016 6.44531 23.2031q9.02344 14.1797 25.7812 16.7578q5.15625 1.28906 10.3125 1.28906q10.3125 0 20.625 -6.44531q14.1797 -10.3125 16.7578 -25.7812zM763.125 163.555v-7.73438q0 -11.6016 -6.44531 -21.9141q-9.02344 -14.1797 -25.7812 -18.0469
h-7.73438q-11.6016 0 -23.2031 6.44531q-12.8906 9.02344 -16.7578 25.7812q-1.28906 5.15625 -1.28906 9.02344q0 11.6016 7.73438 21.9141q9.02344 12.8906 25.7812 16.7578q5.15625 1.28906 9.02344 1.28906q11.6016 0 20.625 -7.73438
q14.1797 -9.02344 18.0469 -25.7812zM701.25 474.219v-7.73438q0 -11.6016 -6.44531 -23.2031q-9.02344 -14.1797 -25.7812 -16.7578q-5.15625 -1.28906 -10.3125 -1.28906q-10.3125 0 -20.625 6.44531q-14.1797 10.3125 -16.7578 27.0703
q-1.28906 3.86719 -1.28906 7.73438q0 11.6016 7.73438 21.9141q9.02344 14.1797 25.7812 18.0469h7.73438q11.6016 0 21.9141 -6.44531q14.1797 -9.02344 18.0469 -25.7812zM577.5 287.305v-6.44531q0 -11.6016 -6.44531 -23.2031q-9.02344 -14.1797 -25.7812 -18.0469
h-7.73438q-11.6016 0 -23.2031 6.44531q-14.1797 9.02344 -16.7578 25.7812q-1.28906 5.15625 -1.28906 10.3125q0 10.3125 6.44531 20.625q10.3125 14.1797 25.7812 16.7578q5.15625 1.28906 10.3125 1.28906q10.3125 0 20.625 -6.44531q14.1797 -10.3125 18.0469 -27.0703
zM978.398 318.242q11.6016 16.7578 11.6016 37.3828q0 6.44531 -1.28906 14.1797q-6.44531 28.3594 -29.6484 43.8281q-287.461 190.781 -295.195 193.359q-10.3125 2.57812 -19.3359 2.57812q-34.8047 0 -55.4297 -32.2266l-183.047 -273.281
q-11.6016 -18.0469 -11.6016 -38.6719q0 -7.73438 1.28906 -14.1797q6.44531 -27.0703 29.6484 -43.8281l274.57 -181.758q9.02344 -7.73438 20.625 -10.3125q10.3125 -2.57812 20.625 -2.57812q33.5156 0 54.1406 30.9375z" />
</svg>
