<?xml version="1.0" standalone="no"?>
<!DOCTYPE svg PUBLIC "-//W3C//DTD SVG 1.1//EN" "http://www.w3.org/Graphics/SVG/1.1/DTD/svg11.dtd" >
<svg xmlns="http://www.w3.org/2000/svg" xmlns:xlink="http://www.w3.org/1999/xlink" version="1.1" viewBox="-10 0 1066 1000">
   <path fill="currentColor"
d="M489.972 190.466q-17.3564 -1.33496 -33.377 -1.33496q-26.7012 0 -52.0684 4.00586l25.3672 -285.706q1.33496 -22.6963 18.6904 -37.3818q14.6855 -12.0156 34.7119 -12.0156h4.00488l122.827 10.6807q-8.01074 10.6807 -12.0156 21.3613zM360.47 199.812
q-65.4189 17.3564 -100.131 52.0684l-52.0674 -295.052q-1.33496 -5.33984 -1.33496 -10.6797q0 -16.0215 10.6797 -29.3721q12.0166 -18.6914 33.377 -22.6963l145.523 -25.3662q-8.01074 16.0205 -9.3457 34.7119zM878.478 223.843q29.3711 -16.0205 29.3711 -53.4023
v-2.6709q-2.66992 -38.7168 -36.0469 -56.0723q-10.6807 -6.67578 -26.7012 -6.67578q-5.34082 0 -12.0156 1.33496q-25.3662 2.66992 -40.0527 16.0215q-10.6807 -48.0635 -50.7324 -60.0791q-10.6807 -4.00488 -21.3613 -4.00488q-24.0312 0 -44.0566 21.3613
q-17.3564 20.0264 -17.3564 41.3867q0 10.6807 4.00488 22.6963q10.6807 30.707 65.4189 150.863q120.156 -54.7383 149.528 -70.7588zM1009.31 -17.8047q21.3613 8.00977 30.7061 28.0361q5.34082 12.0156 5.34082 24.0312q0 8.01074 -2.66992 17.3555l-165.549 452.59
q-6.67578 21.3613 -26.7021 30.707q-12.0156 5.33984 -24.0312 5.33984q-8.00977 0 -17.3555 -2.66992l-137.513 -50.7334v-18.6904q0 -10.6807 -4.00488 -20.0264q4.00488 -9.3457 4.00488 -18.6904v-50.7334q0 -10.6807 -4.00488 -20.0254
q4.00488 -9.3457 4.00488 -20.0264v-49.3975q0 -14.6865 -8.01074 -25.3662q-36.0469 -50.7334 -129.502 -68.0889l105.471 -291.046q6.67578 -20.0264 26.7021 -29.3711q12.0156 -6.67578 22.6963 -6.67578q9.34473 0 18.6904 4.00488zM248.323 450.805
q-5.33984 9.3457 -5.33984 18.6914v50.7324q0 5.34082 2.66992 12.0156l-217.617 -421.883q-6.6748 -12.0156 -6.6748 -25.3662q0 -8.00977 2.66992 -16.0205q6.67578 -21.3613 26.7012 -32.042l117.486 -60.0781l74.7646 423.218v30.707q0 10.6807 5.33984 20.0254z
M456.595 434.784q132.172 0 172.224 -56.0732v50.7334q-40.0518 56.0723 -172.224 56.0723q-128.167 0 -170.89 -54.7373v-50.7334q42.7227 54.7383 170.89 54.7383zM456.595 231.854q132.172 0 172.224 57.4082v49.3975q-40.0518 57.4082 -172.224 57.4082
q-128.167 0 -170.89 -54.7383v-54.7383q42.7227 -54.7373 170.89 -54.7373zM456.595 524.234q132.172 0 172.224 -56.0732v50.7324q-40.0518 56.0732 -172.224 56.0732q-128.167 0 -170.89 -54.7383v-50.7324q42.7227 54.7383 170.89 54.7383z" />
</svg>
