<?xml version="1.0" standalone="no"?>
<!DOCTYPE svg PUBLIC "-//W3C//DTD SVG 1.1//EN" "http://www.w3.org/Graphics/SVG/1.1/DTD/svg11.dtd" >
<svg xmlns="http://www.w3.org/2000/svg" xmlns:xlink="http://www.w3.org/1999/xlink" version="1.1" viewBox="-10 0 1010 1000">
   <path fill="currentColor"
d="M453.051 474.83q-16.7803 -1.29004 -32.2686 -1.29004q-25.8154 0 -50.3398 3.87207l24.5244 -276.219q1.29102 -21.9434 18.0703 -36.1416q14.1982 -11.6162 33.5596 -11.6162h3.87207l118.748 10.3262q-7.74414 10.3252 -11.6162 20.6514zM327.849 483.865
q-63.2471 16.7803 -96.8057 50.3398l-50.3398 -285.255q-1.29004 -5.16309 -1.29004 -10.3262q0 -15.4883 10.3262 -28.3955q11.6162 -18.0703 32.2686 -21.9434l140.69 -24.5234q-7.74414 15.4883 -9.03516 33.5586zM828.656 507.099q28.3965 -15.4883 28.3965 -51.6289
v-2.58203q-2.58105 -37.4316 -34.8496 -54.2109q-10.3262 -6.4541 -25.8154 -6.4541q-5.16211 0 -11.6162 1.29102q-24.5244 2.58105 -38.7227 15.4893q-10.3252 -46.4668 -49.0479 -58.084q-10.3262 -3.87207 -20.6523 -3.87207q-23.2334 0 -42.5938 20.6523
q-16.7803 19.3604 -16.7803 40.0127q0 10.3262 3.87207 21.9424q10.3262 29.6875 63.2471 145.854q116.167 -52.9209 144.562 -68.4102zM955.149 273.475q20.6523 7.74414 29.6875 27.1055q5.16309 11.6172 5.16309 23.2334q0 7.74414 -2.58203 16.7793l-160.052 437.562
q-6.4541 20.6514 -25.8154 29.6865q-11.6162 5.16309 -23.2334 5.16309q-7.74414 0 -16.7793 -2.58105l-132.946 -49.0479v-18.0713q0 -10.3252 -3.87305 -19.3604q3.87305 -9.03516 3.87305 -18.0713v-49.0479q0 -10.3262 -3.87305 -19.3613
q3.87305 -9.03516 3.87305 -19.3613v-47.7568q0 -14.1982 -7.74512 -24.5244q-34.8496 -49.0479 -125.202 -65.8281l101.969 -281.382q6.4541 -19.3613 25.8154 -28.3965q11.6162 -6.45312 21.9424 -6.45312q9.03516 0 18.0703 3.87207zM219.426 726.525
q-5.16309 9.03516 -5.16309 18.0703v49.0488q0 5.16211 2.58203 11.6162l-210.392 -407.875q-6.45312 -11.6162 -6.45312 -24.5244q0 -7.74414 2.58105 -15.4883q6.4541 -20.6523 25.8145 -30.9775l113.586 -58.084l72.2812 409.166v29.6865q0 10.3262 5.16309 19.3613z
M420.782 711.036q127.783 0 166.506 -54.2109v49.0479q-38.7227 54.2119 -166.506 54.2119q-123.912 0 -165.216 -52.9209v-49.0479q41.3037 52.9199 165.216 52.9199zM420.782 514.844q127.783 0 166.506 55.502v47.7568q-38.7227 55.502 -166.506 55.502
q-123.912 0 -165.216 -52.9199v-52.9209q41.3037 -52.9199 165.216 -52.9199zM420.782 797.517q127.783 0 166.506 -54.2119v49.0488q-38.7227 54.2109 -166.506 54.2109q-123.912 0 -165.216 -52.9199v-49.0488q41.3037 52.9209 165.216 52.9209z" />
</svg>
