<?xml version="1.0" standalone="no"?>
<!DOCTYPE svg PUBLIC "-//W3C//DTD SVG 1.1//EN" "http://www.w3.org/Graphics/SVG/1.1/DTD/svg11.dtd" >
<svg xmlns="http://www.w3.org/2000/svg" xmlns:xlink="http://www.w3.org/1999/xlink" version="1.1" viewBox="-10 0 1066 1000">
   <path fill="currentColor"
d="M116 627.167q-8 -10.667 -8 -20q0 -13.334 14.667 -24l18.666 -13.334l160 -114.666l36 -28l2.66699 -1.33398l122.667 -89.333l13.333 -9.33301l22.667 -17.334l38.666 -28l36 -26.666q10.667 -6.66699 20 -6.66699q12 0 22.667 10.667l8 6.66602l36 36l13.333 13.334
l32 30.666l30.667 -22.666l49.333 -37.334l36 -28l65.334 -56l34.666 -26.666h-57.333q-5.33301 0 -12 -1.33398q-20 -8 -20 -29.333q0 -20 18.667 -28h-1.33398l2.66699 -1.33301q6.66699 -2.66699 12 -2.66699h149.333q13.334 0 22.667 9.33301
q9.33301 9.33398 9.33301 21.334v137.333q0 32 -32 32t-32 -32v-70.667l-4 2.66699l-105.333 86.667l-50.667 38.666l-36 28l-49.333 36l-13.333 10.667q-10.667 8 -21.334 8q-12 0 -22.666 -10.667l-5.33398 -5.33301l-13.333 -13.333l-36 -36l-34.667 -33.334l-52 38.667
l-38.666 28l-22.667 16l-13.333 10.667l-122.667 89.333l-2.66699 1.33301l-36 26.667l-140 101.333q-6.66602 4 -13.333 5.33398q-4 1.33301 -8 1.33301q-14.667 0 -24 -13.333zM244 460.5q-29.333 -120 -52 -208q5.33301 -2.66699 12 -5.33301q161.333 -78.667 272 -108
q106.667 -29.334 289.333 -46.667l12 -1.33301q17.334 69.333 34.667 138.666l-4 4l-29.333 21.334q-17.334 -70.667 -22.667 -89.334l-10.667 1.33398h-8q-32 0 -38.666 -26.667l-2.66699 -10.667q-94.667 12 -182.667 32q30.667 4 56 26.667q13.334 13.333 22.667 32
q-17.333 0 -32 10.667l-24 17.333q-6.66699 -1.33301 -12 -1.33301q-24 -5.33398 -28 -8q-5.33301 -1.33398 -6.66699 -10.667v-5.33301q0 -5.33398 5.33398 -6.66699h4q2.66602 0 4 1.33301q2.66602 2.66699 4 12l1.33301 5.33398l46.667 -10.667q0 -5.33301 -1.33398 -8
q-5.33301 -26.667 -36 -26.667q-6.66602 0 -14.666 1.33398l-1.33398 -12l-22.666 5.33301l2.66602 12q-22.666 8 -33.333 20q-9.33301 12 -9.33301 24q0 14.667 18.666 29.333q9.33398 6.66699 33.334 10.667l-26.667 20l-9.33301 2.66699l1.33301 4l-28 20
q-16 -28 -16 -58.667q0 -18.667 6.66699 -38.667q10.666 -32 36 -52q-90.667 28 -173.334 65.334q0 1.33301 1.33398 10.666q1.33301 5.33398 1.33301 12q0 22.667 -28 36q-5.33301 2.66699 -10.667 4l28 114.667q2.66699 -1.33301 10.667 -5.33301q9.33301 -4 17.333 -4
q4 0 8 1.33301zM864 339.167l73.333 -56v353.333q0 12 -10.666 12h-101.334q-9.33301 0 -9.33301 -12v-261.333zM732 439.167l48 -36v233.333q0 12 -10.667 12h-101.333q-9.33301 0 -9.33301 -12v-208l12 13.333l5.33301 5.33398q10.667 10.666 22.667 10.666
q9.33301 0 20 -8zM589.333 360.5l33.334 33.333v242.667q0 12 -10.667 12h-101.333q-10.667 0 -10.667 -12v-210.667l38.667 -28zM345.333 539.167l118.667 -86.667v184q0 12 -9.33301 12h-101.334q-10.666 0 -10.666 -12v-96zM196 648.5q-1.33301 0 110.667 -81.333v69.333
q0 12 -10.667 12h-100zM358.667 100.5q13.333 22.667 45.333 37.333q-21.333 6.66699 -44 16zM358.667 15.167q33.333 56 145.333 56q110.667 0 144 -56v49.333q-5.33301 10.667 -17.333 20q-86.667 13.333 -160 32l-6.66699 2.66699q-80 -12 -105.333 -54.667v-49.333z
M21.333 328.5v-49.333q36 54.666 144 54.666q12 0 22.667 -1.33301l13.333 49.333q-17.333 1.33398 -36 1.33398q-108 0 -144 -54.667zM165.333 -28.833q-118.666 0 -118.666 49.333t118.666 49.333q118.667 0 118.667 -49.333t-118.667 -49.333zM165.333 121.833
q-108 0 -144 -54.666v-53.334q36 -54.666 144 -54.666q110.667 0 145.334 56v50.666q-34.667 56 -145.334 56zM21.333 107.167q36 54.666 144 54.666q110.667 0 145.334 -57.333v50.667q-34.667 56 -145.334 56q-108 0 -144 -54.667v-49.333zM21.333 192.5
q34.667 54.667 140 54.667h5.33398l13.333 50.666h-14.667q-108 0 -144 -54.666v-50.667zM358.667 -71.5q33.333 57.333 145.333 57.333q110.667 0 144 -57.333v50.667q-33.333 56 -144 56q-112 0 -145.333 -56v-50.667zM504 -200.833q-120 0 -120 49.333t120 49.333
q118.667 0 118.667 -49.333t-118.667 -49.333zM504 -50.167q-112 0 -145.333 -57.333v-49.333q33.333 -57.334 145.333 -57.334q110.667 0 144 57.334v49.333q-33.333 57.333 -144 57.333z" />
</svg>
