<?xml version="1.0" standalone="no"?>
<!DOCTYPE svg PUBLIC "-//W3C//DTD SVG 1.1//EN" "http://www.w3.org/Graphics/SVG/1.1/DTD/svg11.dtd" >
<svg xmlns="http://www.w3.org/2000/svg" xmlns:xlink="http://www.w3.org/1999/xlink" version="1.1" viewBox="-10 0 1010 1000">
   <path fill="currentColor"
d="M91.5234 896.387q-7.73438 -10.3125 -7.73438 -19.3359q0 -12.8906 14.1797 -23.2031l18.0469 -12.8906l154.688 -110.859l34.8047 -27.0703l2.57812 -1.28906l118.594 -86.3672l12.8906 -9.02344l21.9141 -16.7578l37.3828 -27.0703l34.8047 -25.7812
q10.3125 -6.44531 19.3359 -6.44531q11.6016 0 21.9141 10.3125l7.73438 6.44531l34.8047 34.8047l12.8906 12.8906l30.9375 29.6484l29.6484 -21.9141l47.6953 -36.0938l34.8047 -27.0703l63.1641 -54.1406l33.5156 -25.7812h-55.4297q-5.15625 0 -11.6016 -1.28906
q-19.3359 -7.73438 -19.3359 -28.3594q0 -19.3359 18.0469 -27.0703h-1.28906l2.57812 -1.28906q6.44531 -2.57812 11.6016 -2.57812h144.375q12.8906 0 21.9141 9.02344t9.02344 20.625v132.773q0 30.9375 -30.9375 30.9375t-30.9375 -30.9375v-68.3203l-3.86719 2.57812
l-101.836 83.7891l-48.9844 37.3828l-34.8047 27.0703l-47.6953 34.8047l-12.8906 10.3125q-10.3125 7.73438 -20.625 7.73438q-11.6016 0 -21.9141 -10.3125l-5.15625 -5.15625l-12.8906 -12.8906l-34.8047 -34.8047l-33.5156 -32.2266l-50.2734 37.3828l-37.3828 27.0703
l-21.9141 15.4688l-12.8906 10.3125l-118.594 86.3672l-2.57812 1.28906l-34.8047 25.7812l-135.352 97.9688q-6.44531 3.86719 -12.8906 5.15625q-3.86719 1.28906 -7.73438 1.28906q-14.1797 0 -23.2031 -12.8906zM215.273 735.254q-28.3594 -116.016 -50.2734 -201.094
q5.15625 -2.57812 11.6016 -5.15625q155.977 -76.0547 262.969 -104.414q103.125 -28.3594 279.727 -45.1172l11.6016 -1.28906l33.5156 134.062l-3.86719 3.86719l-28.3594 20.625q-16.7578 -68.3203 -21.9141 -86.3672l-10.3125 1.28906h-7.73438
q-30.9375 0 -37.3828 -25.7812l-2.57812 -10.3125q-91.5234 11.6016 -176.602 30.9375q29.6484 3.86719 54.1406 25.7812q12.8906 12.8906 21.9141 30.9375q-16.7578 0 -30.9375 10.3125l-23.2031 16.7578q-6.44531 -1.28906 -11.6016 -1.28906
q-23.2031 -5.15625 -27.0703 -7.73438q-5.15625 -1.28906 -6.44531 -10.3125v-5.15625q0 -5.15625 5.15625 -6.44531h3.86719q2.57812 0 3.86719 1.28906q2.57812 2.57812 3.86719 11.6016l1.28906 5.15625l45.1172 -10.3125q0 -5.15625 -1.28906 -7.73438
q-5.15625 -25.7812 -34.8047 -25.7812q-6.44531 0 -14.1797 1.28906l-1.28906 -11.6016l-21.9141 5.15625l2.57812 11.6016q-21.9141 7.73438 -32.2266 19.3359q-9.02344 11.6016 -9.02344 23.2031q0 14.1797 18.0469 28.3594q9.02344 6.44531 32.2266 10.3125
l-25.7812 19.3359l-9.02344 2.57812l1.28906 3.86719l-27.0703 19.3359q-15.4688 -27.0703 -15.4688 -56.7188q0 -18.0469 6.44531 -37.3828q10.3125 -30.9375 34.8047 -50.2734q-87.6562 27.0703 -167.578 63.1641q0 1.28906 1.28906 10.3125
q1.28906 5.15625 1.28906 11.6016q0 21.9141 -27.0703 34.8047q-5.15625 2.57812 -10.3125 3.86719l27.0703 110.859l10.3125 -5.15625q9.02344 -3.86719 16.7578 -3.86719q3.86719 0 7.73438 1.28906zM814.688 617.949l70.8984 -54.1406v341.602
q0 11.6016 -10.3125 11.6016h-97.9688q-9.02344 0 -9.02344 -11.6016v-252.656zM687.07 714.629l46.4062 -34.8047v225.586q0 11.6016 -10.3125 11.6016h-97.9688q-9.02344 0 -9.02344 -11.6016v-201.094l11.6016 12.8906l5.15625 5.15625q10.3125 10.3125 21.9141 10.3125
q9.02344 0 19.3359 -7.73438zM549.141 638.574l32.2266 32.2266v234.609q0 11.6016 -10.3125 11.6016h-97.9688q-10.3125 0 -10.3125 -11.6016v-203.672l37.3828 -27.0703zM313.242 811.309l114.727 -83.7891v177.891q0 11.6016 -9.02344 11.6016h-97.9688
q-10.3125 0 -10.3125 -11.6016v-92.8125zM168.867 917.012q-1.28906 0 106.992 -78.6328v67.0312q0 11.6016 -10.3125 11.6016h-96.6797zM326.133 387.207q12.8906 21.9141 43.8281 36.0938q-20.625 6.44531 -42.5391 15.4688zM326.133 304.707
q32.2266 54.1406 140.508 54.1406q106.992 0 139.219 -54.1406v47.6953q-5.15625 10.3125 -16.7578 19.3359q-83.7891 12.8906 -154.688 30.9375l-6.44531 2.57812q-77.3438 -11.6016 -101.836 -52.8516v-47.6953zM0 607.637v-47.6953q34.8047 52.8516 139.219 52.8516
q11.6016 0 21.9141 -1.28906l12.8906 47.6953q-16.7578 1.28906 -34.8047 1.28906q-104.414 0 -139.219 -52.8516zM139.219 262.168q-114.727 0 -114.727 47.6953t114.727 47.6953t114.727 -47.6953t-114.727 -47.6953zM139.219 407.832q-104.414 0 -139.219 -52.8516
v-51.5625q34.8047 -52.8516 139.219 -52.8516q106.992 0 140.508 54.1406v48.9844q-33.5156 54.1406 -140.508 54.1406zM0 393.652q34.8047 52.8516 139.219 52.8516q106.992 0 140.508 -55.4297v48.9844q-33.5156 54.1406 -140.508 54.1406q-104.414 0 -139.219 -52.8516
v-47.6953zM0 476.152q33.5156 52.8516 135.352 52.8516h5.15625l12.8906 48.9844h-14.1797q-104.414 0 -139.219 -52.8516v-48.9844zM326.133 220.918q32.2266 55.4297 140.508 55.4297q106.992 0 139.219 -55.4297v48.9844q-32.2266 54.1406 -139.219 54.1406
q-108.281 0 -140.508 -54.1406v-48.9844zM466.641 95.8789q-116.016 0 -116.016 47.6953t116.016 47.6953q114.727 0 114.727 -47.6953t-114.727 -47.6953zM466.641 241.543q-108.281 0 -140.508 -55.4297v-47.6953q32.2266 -55.4297 140.508 -55.4297
q106.992 0 139.219 55.4297v47.6953q-32.2266 55.4297 -139.219 55.4297z" />
</svg>
