<?xml version="1.0" standalone="no"?>
<!DOCTYPE svg PUBLIC "-//W3C//DTD SVG 1.1//EN" "http://www.w3.org/Graphics/SVG/1.1/DTD/svg11.dtd" >
<svg xmlns="http://www.w3.org/2000/svg" xmlns:xlink="http://www.w3.org/1999/xlink" version="1.1" viewBox="-10 0 1066 1000">
   <path fill="currentColor"
d="M401.333 349q109.334 0 186.667 -77.333q77.333 -77.334 77.333 -186.667q0 -108 -77.333 -185.333q-77.333 -77.334 -186.667 -77.334q-109.333 0 -186.666 77.334q-76 77.333 -76 185.333q0 109.333 76 186.667q77.333 77.333 186.666 77.333zM1045.33 641l-88 88
l-292 -292v-46.667l-16 -16q-108 92 -248 92q-157.333 0 -269.333 -112q-110.667 -110.666 -110.667 -269.333q0 -157.333 110.667 -268q112 -112 269.333 -112q157.334 0 269.334 112q112 110.667 112 268q0 141.333 -92 248l16 16h46.666z" />
</svg>
