<?xml version="1.0" standalone="no"?>
<!DOCTYPE svg PUBLIC "-//W3C//DTD SVG 1.1//EN" "http://www.w3.org/Graphics/SVG/1.1/DTD/svg11.dtd" >
<svg xmlns="http://www.w3.org/2000/svg" xmlns:xlink="http://www.w3.org/1999/xlink" version="1.1" viewBox="-10 0 1010 1000">
   <path fill="currentColor"
d="M367.383 627.617q105.703 0 180.469 -74.7656t74.7656 -180.469q0 -104.414 -74.7656 -179.18t-180.469 -74.7656t-180.469 74.7656q-73.4766 74.7656 -73.4766 179.18q0 105.703 73.4766 180.469q74.7656 74.7656 180.469 74.7656zM990 909.922l-85.0781 85.0781
l-282.305 -282.305v-45.1172l-15.4688 -15.4688q-104.414 88.9453 -239.766 88.9453q-152.109 0 -260.391 -108.281q-106.992 -106.992 -106.992 -260.391q0 -152.109 106.992 -259.102q108.281 -108.281 260.391 -108.281t260.391 108.281q108.281 106.992 108.281 259.102
q0 136.641 -88.9453 239.766l15.4688 15.4688h45.1172z" />
</svg>
