<?xml version="1.0" standalone="no"?>
<!DOCTYPE svg PUBLIC "-//W3C//DTD SVG 1.1//EN" "http://www.w3.org/Graphics/SVG/1.1/DTD/svg11.dtd" >
<svg xmlns="http://www.w3.org/2000/svg" xmlns:xlink="http://www.w3.org/1999/xlink" version="1.1" viewBox="-10 0 930 1000">
   <path fill="currentColor"
d="M791.484 351.758h-692.227v543.984h692.227v-543.984zM791.484 104.258q41.25 0 69.6094 28.3594q29.6484 29.6484 29.6484 70.8984v692.227q0 41.25 -29.6484 69.6094q-28.3594 29.6484 -69.6094 29.6484h-692.227q-41.25 0 -70.8984 -29.6484
q-28.3594 -28.3594 -28.3594 -69.6094v-692.227q0 -41.25 29.6484 -70.8984q28.3594 -28.3594 69.6094 -28.3594h48.9844v-99.2578h99.2578v99.2578h395.742v-99.2578h99.2578v99.2578h48.9844zM692.227 796.484h-97.9688v-97.9688h97.9688v97.9688zM495 796.484h-99.2578
v-97.9688h99.2578v97.9688zM296.484 796.484h-97.9688v-97.9688h97.9688v97.9688zM692.227 548.984h-97.9688v-97.9688h97.9688v97.9688zM495 548.984h-99.2578v-97.9688h99.2578v97.9688zM296.484 548.984h-97.9688v-97.9688h97.9688v97.9688z" />
</svg>
