<?xml version="1.0" standalone="no"?>
<!DOCTYPE svg PUBLIC "-//W3C//DTD SVG 1.1//EN" "http://www.w3.org/Graphics/SVG/1.1/DTD/svg11.dtd" >
<svg xmlns="http://www.w3.org/2000/svg" xmlns:xlink="http://www.w3.org/1999/xlink" version="1.1" viewBox="-10 0 1034 1000">
   <path fill="currentColor"
d="M890.667 63.667h-716v562.666h716v-562.666zM890.667 -192.333q42.666 0 72 29.333q30.666 30.667 30.666 73.333v716q0 42.667 -30.666 72q-29.334 30.667 -72 30.667h-716q-42.667 0 -73.334 -30.667q-29.333 -29.333 -29.333 -72v-716q0 -42.666 30.667 -73.333
q29.333 -29.333 72 -29.333h50.666v-102.667h102.667v102.667h409.333v-102.667h102.667v102.667h50.667zM788 523.667h-101.333v-101.334h101.333v101.334zM584 523.667h-102.667v-101.334h102.667v101.334zM378.667 523.667h-101.334v-101.334h101.334v101.334z
M788 267.667h-101.333v-101.334h101.333v101.334zM584 267.667h-102.667v-101.334h102.667v101.334zM378.667 267.667h-101.334v-101.334h101.334v101.334z" />
</svg>
