<?xml version="1.0" standalone="no"?>
<!DOCTYPE svg PUBLIC "-//W3C//DTD SVG 1.1//EN" "http://www.w3.org/Graphics/SVG/1.1/DTD/svg11.dtd" >
<svg xmlns="http://www.w3.org/2000/svg" xmlns:xlink="http://www.w3.org/1999/xlink" version="1.1" viewBox="-10 0 1010 1000">
   <path fill="currentColor"
d="M100.547 175.801q-18.0469 27.0703 -18.0469 59.2969v529.805q0 32.2266 18.0469 59.2969h-41.25q-24.4922 0 -42.5391 -16.7578q-16.7578 -18.0469 -16.7578 -42.5391v-529.805q0 -24.4922 16.7578 -42.5391q18.0469 -16.7578 42.5391 -16.7578h41.25zM229.453 175.801
q-16.7578 27.0703 -16.7578 59.2969v529.805q0 32.2266 16.7578 59.2969h-41.25q-24.4922 0 -41.25 -16.7578q-16.7578 -18.0469 -16.7578 -42.5391v-529.805q0 -24.4922 16.7578 -42.5391q16.7578 -16.7578 41.25 -16.7578h41.25zM359.648 175.801
q-18.0469 27.0703 -18.0469 59.2969v529.805q0 32.2266 18.0469 59.2969h-41.25q-24.4922 0 -41.25 -16.7578q-18.0469 -18.0469 -18.0469 -42.5391v-529.805q0 -24.4922 18.0469 -42.5391q16.7578 -16.7578 41.25 -16.7578h41.25zM489.844 175.801
q-18.0469 27.0703 -18.0469 59.2969v529.805q0 32.2266 18.0469 59.2969h-42.5391q-24.4922 0 -41.25 -16.7578q-16.7578 -18.0469 -16.7578 -42.5391v-529.805q0 -24.4922 16.7578 -42.5391q16.7578 -16.7578 41.25 -16.7578h42.5391zM930.703 175.801
q24.4922 0 42.5391 16.7578q16.7578 18.0469 16.7578 42.5391v529.805q0 24.4922 -16.7578 42.5391q-18.0469 16.7578 -42.5391 16.7578h-353.203q-24.4922 0 -41.25 -16.7578q-18.0469 -18.0469 -18.0469 -42.5391v-529.805q0 -24.4922 18.0469 -42.5391
q16.7578 -16.7578 41.25 -16.7578h353.203z" />
</svg>
