<?xml version="1.0" standalone="no"?>
<!DOCTYPE svg PUBLIC "-//W3C//DTD SVG 1.1//EN" "http://www.w3.org/Graphics/SVG/1.1/DTD/svg11.dtd" >
<svg xmlns="http://www.w3.org/2000/svg" xmlns:xlink="http://www.w3.org/1999/xlink" version="1.1" viewBox="-10 0 1066 1000">
   <path fill="currentColor"
d="M125.333 -118.167q-18.666 28 -18.666 61.334v548q0 33.333 18.666 61.333h-42.666q-25.334 0 -44 -17.333q-17.334 -18.667 -17.334 -44v-548q0 -25.334 17.334 -44q18.666 -17.334 44 -17.334h42.666zM258.667 -118.167q-17.334 28 -17.334 61.334v548
q0 33.333 17.334 61.333h-42.667q-25.333 0 -42.667 -17.333q-17.333 -18.667 -17.333 -44v-548q0 -25.334 17.333 -44q17.334 -17.334 42.667 -17.334h42.667zM393.333 -118.167q-18.666 28 -18.666 61.334v548q0 33.333 18.666 61.333h-42.666q-25.334 0 -42.667 -17.333
q-18.667 -18.667 -18.667 -44v-548q0 -25.334 18.667 -44q17.333 -17.334 42.667 -17.334h42.666zM528 -118.167q-18.667 28 -18.667 61.334v548q0 33.333 18.667 61.333h-44q-25.333 0 -42.667 -17.333q-17.333 -18.667 -17.333 -44v-548q0 -25.334 17.333 -44
q17.334 -17.334 42.667 -17.334h44zM984 -118.167q25.333 0 44 17.334q17.333 18.666 17.333 44v548q0 25.333 -17.333 44q-18.667 17.333 -44 17.333h-365.333q-25.334 0 -42.667 -17.333q-18.667 -18.667 -18.667 -44v-548q0 -25.334 18.667 -44
q17.333 -17.334 42.667 -17.334h365.333z" />
</svg>
