<?xml version="1.0" standalone="no"?>
<!DOCTYPE svg PUBLIC "-//W3C//DTD SVG 1.1//EN" "http://www.w3.org/Graphics/SVG/1.1/DTD/svg11.dtd" >
<svg xmlns="http://www.w3.org/2000/svg" xmlns:xlink="http://www.w3.org/1999/xlink" version="1.1" viewBox="-10 0 1010 1000">
   <path fill="currentColor"
d="M600.703 868.672h-583.945q-12.8906 0 -15.4688 -69.6094q-1.28906 -34.8047 -1.28906 -52.8516q0 -16.7578 1.28906 -16.7578v-19.3359q0 -79.9219 58.0078 -95.3906q78.6328 -20.625 141.797 -64.4531l50.2734 155.977l7.73438 28.3594l9.02344 25.7812
l25.7812 -74.7656q-25.7812 -34.8047 -25.7812 -56.7188q0 -12.8906 9.02344 -20.625q11.6016 -10.3125 32.2266 -10.3125h3.86719q20.625 0 32.2266 10.3125q9.02344 7.73438 9.02344 20.625q0 21.9141 -25.7812 56.7188l25.7812 74.7656l9.02344 -25.7812
l9.02344 -28.3594l48.9844 -155.977q64.4531 43.8281 141.797 64.4531q59.2969 15.4688 59.2969 97.9688q0 7.73438 -1.28906 16.7578q0 139.219 -20.625 139.219zM153.398 395.586q-6.44531 -20.625 -6.44531 -34.8047q0 -20.625 16.7578 -20.625h2.57812
q-3.86719 -11.6016 -5.15625 -20.625q-3.86719 -20.625 -3.86719 -38.6719q0 -15.4688 3.86719 -28.3594q9.02344 -37.3828 38.6719 -67.0312q15.4688 -16.7578 36.0938 -29.6484q16.7578 -11.6016 33.5156 -18.0469q15.4688 -5.15625 32.2266 -5.15625
q6.44531 -1.28906 12.8906 -1.28906q36.0938 0 65.7422 18.0469q28.3594 14.1797 38.6719 34.8047q16.7578 1.28906 29.6484 18.0469q18.0469 23.2031 18.0469 68.3203q0 21.9141 -5.15625 48.9844q-1.28906 9.02344 -5.15625 20.625h2.57812q16.7578 0 16.7578 21.9141
q0 12.8906 -5.15625 33.5156q-14.1797 46.4062 -28.3594 48.9844q-5.15625 34.8047 -29.6484 67.0312q-27.0703 37.3828 -67.0312 50.2734q-16.7578 6.44531 -36.0938 6.44531q-16.7578 0 -33.5156 -5.15625q-38.6719 -14.1797 -65.7422 -51.5625
q-24.4922 -32.2266 -29.6484 -67.0312q-14.1797 -2.57812 -27.0703 -48.9844zM873.984 350.469q11.6016 0 20.625 -9.02344t9.02344 -21.9141q0 -11.6016 -9.02344 -21.9141q-9.02344 -9.02344 -20.625 -9.02344q-14.1797 0 -23.2031 9.02344
q-7.73438 10.3125 -7.73438 21.9141q0 12.8906 7.73438 21.9141q9.02344 9.02344 23.2031 9.02344zM757.969 350.469q12.8906 0 21.9141 -9.02344t9.02344 -21.9141t-9.02344 -21.9141t-21.9141 -9.02344t-21.9141 9.02344q-9.02344 10.3125 -9.02344 21.9141
q0 12.8906 9.02344 21.9141t21.9141 9.02344zM643.242 350.469q12.8906 0 21.9141 -9.02344q7.73438 -9.02344 7.73438 -21.9141q0 -11.6016 -7.73438 -21.9141q-9.02344 -9.02344 -21.9141 -9.02344t-21.9141 9.02344t-9.02344 21.9141t9.02344 21.9141t21.9141 9.02344z
M931.992 176.445q21.9141 0 39.9609 15.4688q18.0469 18.0469 18.0469 37.3828v206.25q0 19.3359 -18.0469 30.9375q-16.7578 12.8906 -39.9609 12.8906h-250.078l-116.016 68.3203l18.0469 -69.6094q-21.9141 -1.28906 -39.9609 -12.8906
q-16.7578 -12.8906 -16.7578 -29.6484v-206.25q0 -19.3359 20.625 -37.3828q20.625 -15.4688 42.5391 -15.4688h341.602z" />
</svg>
