<?xml version="1.0" standalone="no"?>
<!DOCTYPE svg PUBLIC "-//W3C//DTD SVG 1.1//EN" "http://www.w3.org/Graphics/SVG/1.1/DTD/svg11.dtd" >
<svg xmlns="http://www.w3.org/2000/svg" xmlns:xlink="http://www.w3.org/1999/xlink" version="1.1" viewBox="-10 0 1066 1000">
   <path fill="currentColor"
d="M642.667 598.333h-604q-13.334 0 -16 -72q-1.33398 -36 -1.33398 -54.666q0 -17.334 1.33398 -17.334v-20q0 -82.666 60 -98.666q81.333 -21.334 146.666 -66.667l52 161.333l8 29.334l9.33398 26.666l26.666 -77.333q-26.666 -36 -26.666 -58.667
q0 -13.333 9.33301 -21.333q12 -10.667 33.333 -10.667h4q21.334 0 33.334 10.667q9.33301 8 9.33301 21.333q0 22.667 -26.667 58.667l26.667 77.333l9.33301 -26.666l9.33398 -29.334l50.666 -161.333q66.667 45.333 146.667 66.667q61.333 16 61.333 101.333
q0 8 -1.33301 17.333q0 144 -21.333 144zM180 109q-6.66699 -21.333 -6.66699 -36q0 -21.333 17.334 -21.333h2.66602q-4 -12 -5.33301 -21.334q-4 -21.333 -4 -40q0 -16 4 -29.333q9.33301 -38.667 40 -69.333q16 -17.334 37.333 -30.667q17.334 -12 34.667 -18.667
q16 -5.33301 33.333 -5.33301q6.66699 -1.33301 13.334 -1.33301q37.333 0 68 18.666q29.333 14.667 40 36q17.333 1.33398 30.666 18.667q18.667 24 18.667 70.667q0 22.666 -5.33301 50.666q-1.33398 9.33398 -5.33398 21.334h2.66699q17.333 0 17.333 22.666
q0 13.334 -5.33301 34.667q-14.667 48 -29.333 50.667q-5.33398 36 -30.667 69.333q-28 38.667 -69.333 52q-17.334 6.66699 -37.334 6.66699q-17.333 0 -34.666 -5.33398q-40 -14.666 -68 -53.333q-25.334 -33.333 -30.667 -69.333q-14.667 -2.66699 -28 -50.667z
M925.333 62.333q12 0 21.334 -9.33301q9.33301 -9.33301 9.33301 -22.667q0 -12 -9.33301 -22.666q-9.33398 -9.33398 -21.334 -9.33398q-14.666 0 -24 9.33398q-8 10.666 -8 22.666q0 13.334 8 22.667q9.33398 9.33301 24 9.33301zM805.333 62.333
q13.334 0 22.667 -9.33301t9.33301 -22.667q0 -13.333 -9.33301 -22.666q-9.33301 -9.33398 -22.667 -9.33398q-13.333 0 -22.666 9.33398q-9.33398 10.666 -9.33398 22.666q0 13.334 9.33398 22.667q9.33301 9.33301 22.666 9.33301zM686.667 62.333
q13.333 0 22.666 -9.33301q8 -9.33301 8 -22.667q0 -12 -8 -22.666q-9.33301 -9.33398 -22.666 -9.33398q-13.334 0 -22.667 9.33398q-9.33301 9.33301 -9.33301 22.666q0 13.334 9.33301 22.667t22.667 9.33301zM985.333 -117.667q22.667 0 41.334 16
q18.666 18.667 18.666 38.667v213.333q0 20 -18.666 32q-17.334 13.334 -41.334 13.334h-258.666l-120 70.666l18.666 -72q-22.666 -1.33301 -41.333 -13.333q-17.333 -13.333 -17.333 -30.667v-213.333q0 -20 21.333 -38.667q21.333 -16 44 -16h353.333z" />
</svg>
