<?xml version="1.0" standalone="no"?>
<!DOCTYPE svg PUBLIC "-//W3C//DTD SVG 1.1//EN" "http://www.w3.org/Graphics/SVG/1.1/DTD/svg11.dtd" >
<svg xmlns="http://www.w3.org/2000/svg" xmlns:xlink="http://www.w3.org/1999/xlink" version="1.1" viewBox="-10 0 886 1000">
   <path fill="currentColor"
d="M322.266 5h23.2031q322.266 0 322.266 424.102h127.617q7.73438 1.28906 7.73438 6.44531v77.3438q0 7.73438 -7.73438 7.73438h-127.617v73.4766h127.617q7.73438 1.28906 7.73438 7.73438v76.0547q0 7.73438 -7.73438 7.73438h-127.617v301.641
q0 7.73438 -7.73438 7.73438h-119.883q-7.73438 0 -7.73438 -7.73438v-301.641h-137.93q-7.73438 0 -7.73438 -7.73438v-76.0547q1.28906 -7.73438 7.73438 -7.73438h137.93v-73.4766h-137.93q-7.73438 0 -7.73438 -7.73438v-77.3438q1.28906 -6.44531 7.73438 -6.44531
h137.93v-3.86719q0 -224.297 -95.3906 -282.305q-47.6953 -27.0703 -106.992 -27.0703q-112.148 0 -158.555 87.6562q-36.0938 58.0078 -36.0938 217.852q0 7.73438 -7.73438 7.73438h-119.883q-7.73438 0 -7.73438 -7.73438v-23.2031q0 -305.508 206.25 -377.695
q67.0312 -15.4688 116.016 -15.4688z" />
</svg>
