<?xml version="1.0" standalone="no"?>
<!DOCTYPE svg PUBLIC "-//W3C//DTD SVG 1.1//EN" "http://www.w3.org/Graphics/SVG/1.1/DTD/svg11.dtd" >
<svg xmlns="http://www.w3.org/2000/svg" xmlns:xlink="http://www.w3.org/1999/xlink" version="1.1" viewBox="-10 0 1034 1000">
   <path fill="currentColor"
d="M450.667 -295h24q333.333 0 333.333 438.667h132q8 1.33301 8 6.66602v80q0 8 -8 8h-132v76h132q8 1.33398 8 8v78.667q0 8 -8 8h-132v312q0 8 -8 8h-124q-8 0 -8 -8v-312h-142.667q-8 0 -8 -8v-78.667q1.33398 -8 8 -8h142.667v-76h-142.667q-8 0 -8 -8v-80
q1.33398 -6.66602 8 -6.66602h142.667v-4q0 -232 -98.667 -292q-49.333 -28 -110.666 -28q-116 0 -164 90.666q-37.334 60 -37.334 225.334q0 8 -8 8h-124q-8 0 -8 -8v-24q0 -316 213.334 -390.667q69.333 -16 120 -16z" />
</svg>
