<?xml version="1.0" standalone="no"?>
<!DOCTYPE svg PUBLIC "-//W3C//DTD SVG 1.1//EN" "http://www.w3.org/Graphics/SVG/1.1/DTD/svg11.dtd" >
<svg xmlns="http://www.w3.org/2000/svg" xmlns:xlink="http://www.w3.org/1999/xlink" version="1.1" viewBox="-10 0 1059 1000">
   <path fill="currentColor"
d="M364 239.667h-9.33301q-20 0 -33.334 -8q-17.333 -10.667 -24 -33.334q9.33398 -1.33301 34.667 -8q2.66699 10.667 10.667 17.334q6.66602 4 13.333 4h4q10.667 -1.33398 17.333 -12q5.33398 -6.66699 5.33398 -17.334q0 -4 -1.33398 -9.33301q-2.66602 -16 -12 -24
q-6.66602 -5.33301 -16 -5.33301h-4q-14.666 2.66602 -24 17.333h-29.333q1.33301 -20 2.66699 -48q1.33301 -29.333 1.33301 -48q42.667 -8 86.667 -21.333q1.33301 12 5.33301 33.333q-30.667 9.33301 -61.333 16v32q9.33301 -8 21.333 -10.667
q5.33301 -1.33301 9.33301 -1.33301q17.334 0 32 12q16 12 21.334 34.667q-30.667 36 -50.667 80zM329.333 398.333q0 36 6.66699 72q-16 -2.66602 -30.667 -6.66602q-154.666 -45.334 -230.666 -186.667q-48 -88 -48 -180q0 -56 17.333 -113.333
q45.333 -154.667 185.333 -230.667q88 -48 181.334 -48q56 0 113.333 17.333q108 32 182.667 116q70.666 84 89.333 192q-44 -10.666 -88 -10.666q-141.333 0 -248 92q-21.333 -80 -84 -124q-45.333 -30.667 -92 -30.667q-21.333 0 -41.333 5.33301
q-70.667 17.334 -105.334 86.667q-21.333 44 -21.333 92q0 28 6.66699 57.333q20 78.667 80 122.667q48 34.667 100 34.667q14.666 0 29.333 -2.66699q-2.66699 22.667 -2.66699 45.333zM193.333 213q4 12 13.334 17.333q6.66602 4 13.333 4h4q9.33301 -2.66602 16 -12
q2.66699 -6.66602 2.66699 -14.666q0 -6.66699 -1.33398 -14.667q-2.66602 -16 -12 -24q-6.66602 -5.33301 -17.333 -5.33301h-4q-14.667 2.66602 -24 18.666h-28v-17.333q0 -37.333 9.33301 -81.333q2.66699 0 88 -12q1.33398 16 4 32q-10.666 1.33301 -33.333 5.33301
q-17.333 2.66699 -32 4q-2.66699 16 -4 32q12 -8 24 -9.33301h8q18.667 0 34.667 10.666q18.666 14.667 22.666 41.334v9.33301q0 16 -6.66602 32q-13.334 26.667 -42.667 33.333q-8 1.33398 -14.667 1.33398q-14.666 0 -25.333 -6.66699q-17.333 -10.667 -26.667 -34.667
q10.667 -2.66602 32 -9.33301zM708 174.333q-52 30.667 -62.667 93.334q-2.66602 16 -2.66602 32q0 46.666 25.333 90.666q36 58.667 97.333 80q24 8 46.667 8q33.333 0 65.333 -18.666q50.667 -29.334 62.667 -93.334q2.66699 -14.666 2.66699 -29.333
q0 -48 -26.667 -93.333q-34.667 -58.667 -96 -80q-24 -6.66699 -46.667 -6.66699q-36 0 -65.333 17.333zM473.333 631.667q-96 -96 -96 -233.334q0 -137.333 96 -233.333q97.334 -97.333 234.667 -97.333q136 0 233.333 97.333q97.334 96 97.334 233.333
q0 137.334 -97.334 233.334q-97.333 97.333 -233.333 97.333q-137.333 0 -234.667 -97.333zM850.667 369q12 -10.667 12 -21.333q0 -12 -12 -24q-12 -14.667 -25.334 -14.667q-9.33301 0 -20 9.33301q-10.666 10.667 -10.666 22.667q0 10.667 10.666 24
q12 13.333 25.334 13.333q9.33301 0 20 -9.33301zM785.333 297q12 -9.33301 12 -20q0 -9.33301 -9.33301 -18.667q-9.33301 -12 -20 -12q-9.33301 0 -18.667 9.33398q-12 9.33301 -12 20q0 9.33301 9.33398 18.666q9.33301 12 20 12q9.33301 0 18.666 -9.33301zM765.333 333
q-5.33301 1.33301 -10.666 1.33301q-18.667 0 -36 -18.666q-17.334 -20 -17.334 -38.667q0 -24 25.334 -46.667q22.666 -20 44 -20q21.333 0 41.333 21.334q14.667 17.333 14.667 34.666q0 6.66699 -2.66699 14.667q8 -2.66699 16 -2.66699q20 0 38.667 20
q21.333 24 21.333 46.667q0 25.333 -26.667 49.333q-24 21.334 -46.666 21.334q-25.334 0 -49.334 -26.667q-16 -18.667 -16 -37.333q0 -9.33398 4 -18.667z" />
</svg>
