<?xml version="1.0" standalone="no"?>
<!DOCTYPE svg PUBLIC "-//W3C//DTD SVG 1.1//EN" "http://www.w3.org/Graphics/SVG/1.1/DTD/svg11.dtd" >
<svg xmlns="http://www.w3.org/2000/svg" xmlns:xlink="http://www.w3.org/1999/xlink" version="1.1" viewBox="-10 0 999 1000">
   <path fill="currentColor"
d="M326.133 521.914h-9.02344q-19.3359 0 -32.2266 -7.73438q-16.7578 -10.3125 -23.2031 -32.2266q9.02344 -1.28906 33.5156 -7.73438q2.57812 10.3125 10.3125 16.7578q6.44531 3.86719 12.8906 3.86719h3.86719q10.3125 -1.28906 16.7578 -11.6016
q5.15625 -6.44531 5.15625 -16.7578q0 -3.86719 -1.28906 -9.02344q-2.57812 -15.4688 -11.6016 -23.2031q-6.44531 -5.15625 -15.4688 -5.15625h-3.86719q-14.1797 2.57812 -23.2031 16.7578h-28.3594q1.28906 -19.3359 2.57812 -46.4062
q1.28906 -28.3594 1.28906 -46.4062q41.25 -7.73438 83.7891 -20.625q1.28906 11.6016 5.15625 32.2266q-29.6484 9.02344 -59.2969 15.4688v30.9375q9.02344 -7.73438 20.625 -10.3125q5.15625 -1.28906 9.02344 -1.28906q16.7578 0 30.9375 11.6016
q15.4688 11.6016 20.625 33.5156q-29.6484 34.8047 -48.9844 77.3438zM292.617 675.312q0 34.8047 6.44531 69.6094q-15.4688 -2.57812 -29.6484 -6.44531q-149.531 -43.8281 -223.008 -180.469q-46.4062 -85.0781 -46.4062 -174.023q0 -54.1406 16.7578 -109.57
q43.8281 -149.531 179.18 -223.008q85.0781 -46.4062 175.312 -46.4062q54.1406 0 109.57 16.7578q104.414 30.9375 176.602 112.148q68.3203 81.2109 86.3672 185.625q-42.5391 -10.3125 -85.0781 -10.3125q-136.641 0 -239.766 88.9453
q-20.625 -77.3438 -81.2109 -119.883q-43.8281 -29.6484 -88.9453 -29.6484q-20.625 0 -39.9609 5.15625q-68.3203 16.7578 -101.836 83.7891q-20.625 42.5391 -20.625 88.9453q0 27.0703 6.44531 55.4297q19.3359 76.0547 77.3438 118.594q46.4062 33.5156 96.6797 33.5156
q14.1797 0 28.3594 -2.57812q-2.57812 21.9141 -2.57812 43.8281zM161.133 496.133q3.86719 11.6016 12.8906 16.7578q6.44531 3.86719 12.8906 3.86719h3.86719q9.02344 -2.57812 15.4688 -11.6016q2.57812 -6.44531 2.57812 -14.1797q0 -6.44531 -1.28906 -14.1797
q-2.57812 -15.4688 -11.6016 -23.2031q-6.44531 -5.15625 -16.7578 -5.15625h-3.86719q-14.1797 2.57812 -23.2031 18.0469h-27.0703v-16.7578q0 -36.0938 9.02344 -78.6328q2.57812 0 85.0781 -11.6016q1.28906 15.4688 3.86719 30.9375q-10.3125 1.28906 -32.2266 5.15625
q-16.7578 2.57812 -30.9375 3.86719q-2.57812 15.4688 -3.86719 30.9375q11.6016 -7.73438 23.2031 -9.02344h7.73438q18.0469 0 33.5156 10.3125q18.0469 14.1797 21.9141 39.9609v9.02344q0 15.4688 -6.44531 30.9375q-12.8906 25.7812 -41.25 32.2266
q-7.73438 1.28906 -14.1797 1.28906q-14.1797 0 -24.4922 -6.44531q-16.7578 -10.3125 -25.7812 -33.5156q10.3125 -2.57812 30.9375 -9.02344zM658.711 458.75q-50.2734 29.6484 -60.5859 90.2344q-2.57812 15.4688 -2.57812 30.9375q0 45.1172 24.4922 87.6562
q34.8047 56.7188 94.1016 77.3438q23.2031 7.73438 45.1172 7.73438q32.2266 0 63.1641 -18.0469q48.9844 -28.3594 60.5859 -90.2344q2.57812 -14.1797 2.57812 -28.3594q0 -46.4062 -25.7812 -90.2344q-33.5156 -56.7188 -92.8125 -77.3438
q-23.2031 -6.44531 -45.1172 -6.44531q-34.8047 0 -63.1641 16.7578zM431.836 900.898q-92.8125 -92.8125 -92.8125 -225.586t92.8125 -225.586q94.1016 -94.1016 226.875 -94.1016q131.484 0 225.586 94.1016q94.1016 92.8125 94.1016 225.586t-94.1016 225.586
q-94.1016 94.1016 -225.586 94.1016q-132.773 0 -226.875 -94.1016zM796.641 646.953q11.6016 -10.3125 11.6016 -20.625q0 -11.6016 -11.6016 -23.2031q-11.6016 -14.1797 -24.4922 -14.1797q-9.02344 0 -19.3359 9.02344q-10.3125 10.3125 -10.3125 21.9141
q0 10.3125 10.3125 23.2031q11.6016 12.8906 24.4922 12.8906q9.02344 0 19.3359 -9.02344zM733.477 577.344q11.6016 -9.02344 11.6016 -19.3359q0 -9.02344 -9.02344 -18.0469q-9.02344 -11.6016 -19.3359 -11.6016q-9.02344 0 -18.0469 9.02344
q-11.6016 9.02344 -11.6016 19.3359q0 9.02344 9.02344 18.0469q9.02344 11.6016 19.3359 11.6016q9.02344 0 18.0469 -9.02344zM714.141 612.148q-5.15625 1.28906 -10.3125 1.28906q-18.0469 0 -34.8047 -18.0469q-16.7578 -19.3359 -16.7578 -37.3828
q0 -23.2031 24.4922 -45.1172q21.9141 -19.3359 42.5391 -19.3359t39.9609 20.625q14.1797 16.7578 14.1797 33.5156q0 6.44531 -2.57812 14.1797q7.73438 -2.57812 15.4688 -2.57812q19.3359 0 37.3828 19.3359q20.625 23.2031 20.625 45.1172q0 24.4922 -25.7812 47.6953
q-23.2031 20.625 -45.1172 20.625q-24.4922 0 -47.6953 -25.7812q-15.4688 -18.0469 -15.4688 -36.0938q0 -9.02344 3.86719 -18.0469z" />
</svg>
