<?xml version="1.0" standalone="no"?>
<!DOCTYPE svg PUBLIC "-//W3C//DTD SVG 1.1//EN" "http://www.w3.org/Graphics/SVG/1.1/DTD/svg11.dtd" >
<svg xmlns="http://www.w3.org/2000/svg" xmlns:xlink="http://www.w3.org/1999/xlink" version="1.1" viewBox="-10 0 1010 1000">
   <path fill="currentColor"
d="M45.1172 77.1875h899.766q45.1172 9.02344 45.1172 45.1172v621.328q0 38.6719 -52.8516 46.4062h-286.172v52.8516q0 45.1172 87.6562 45.1172h11.6016q7.73438 1.28906 7.73438 7.73438v19.3359q0 7.73438 -7.73438 7.73438h-518.203q-7.73438 0 -7.73438 -7.73438
v-19.3359q1.28906 -7.73438 7.73438 -7.73438h11.6016q87.6562 0 87.6562 -52.8516v-45.1172h-278.438q-52.8516 -7.73438 -52.8516 -46.4062v-621.328q9.02344 -45.1172 45.1172 -45.1172zM45.1172 119.727v627.773h899.766v-627.773h-899.766zM139.219 208.672h707.695
q7.73438 1.28906 7.73438 7.73438v434.414q0 6.44531 -7.73438 6.44531h-707.695q-6.44531 0 -6.44531 -6.44531v-434.414q0 -7.73438 6.44531 -7.73438z" />
</svg>
