<?xml version="1.0" standalone="no"?>
<!DOCTYPE svg PUBLIC "-//W3C//DTD SVG 1.1//EN" "http://www.w3.org/Graphics/SVG/1.1/DTD/svg11.dtd" >
<svg xmlns="http://www.w3.org/2000/svg" xmlns:xlink="http://www.w3.org/1999/xlink" version="1.1" viewBox="-10 0 1066 1000">
   <path fill="currentColor"
d="M68 -220.333h930.667q46.666 9.33301 46.666 46.666v642.667q0 40 -54.666 48h-296v54.667q0 46.666 90.666 46.666h12q8 1.33398 8 8v20q0 8 -8 8h-536q-8 0 -8 -8v-20q1.33398 -8 8 -8h12q90.667 0 90.667 -54.666v-46.667h-288q-54.667 -8 -54.667 -48v-642.667
q9.33398 -46.666 46.667 -46.666zM68 -176.333v649.333h930.667v-649.333h-930.667zM165.333 -84.333h732q8 1.33301 8 8v449.333q0 6.66699 -8 6.66699h-732q-6.66602 0 -6.66602 -6.66699v-449.333q0 -8 6.66602 -8z" />
</svg>
