<?xml version="1.0" standalone="no"?>
<!DOCTYPE svg PUBLIC "-//W3C//DTD SVG 1.1//EN" "http://www.w3.org/Graphics/SVG/1.1/DTD/svg11.dtd" >
<svg xmlns="http://www.w3.org/2000/svg" xmlns:xlink="http://www.w3.org/1999/xlink" version="1.1" viewBox="-10 0 1066 1000">
   <path fill="currentColor"
d="M1028 -210.056q17.3564 0 17.3564 17.3564v818.398q0 17.3564 -17.3564 17.3564h-989.288q-17.3555 0 -17.3555 -17.3564v-477.955q0 -16.0215 17.3555 -16.0215h136.178q17.3555 0 17.3555 16.0215v421.883q0 16.0205 17.3564 16.0205h78.7695
q17.3555 0 17.3555 -16.0205v-250.994q0 -17.3555 17.3555 -17.3555h136.178q17.3555 0 17.3555 17.3555v250.994q0 16.0205 17.3564 16.0205h78.7695q17.3555 0 17.3555 -16.0205v-535.364q0 -17.3555 17.3564 -17.3555h136.177q17.3564 0 17.3564 17.3555v535.364
q0 16.0205 17.3555 16.0205h78.7695q17.3555 0 17.3555 -16.0205v-762.326q0 -17.3564 17.3564 -17.3564h136.177z" />
</svg>
