<?xml version="1.0" standalone="no"?>
<!DOCTYPE svg PUBLIC "-//W3C//DTD SVG 1.1//EN" "http://www.w3.org/Graphics/SVG/1.1/DTD/svg11.dtd" >
<svg xmlns="http://www.w3.org/2000/svg" xmlns:xlink="http://www.w3.org/1999/xlink" version="1.1" viewBox="-10 0 1010 1000">
   <path fill="currentColor"
d="M973.22 87.6074q16.7803 0 16.7803 16.7803v791.225q0 16.7803 -16.7803 16.7803h-956.44q-16.7793 0 -16.7793 -16.7803v-462.086q0 -15.4883 16.7793 -15.4883h131.655q16.7803 0 16.7803 15.4883v407.875q0 15.4893 16.7793 15.4893h76.1543
q16.7793 0 16.7793 -15.4893v-242.659q0 -16.7803 16.7793 -16.7803h131.656q16.7793 0 16.7793 16.7803v242.659q0 15.4893 16.7803 15.4893h76.1533q16.7803 0 16.7803 -15.4893v-517.588q0 -16.7793 16.7793 -16.7793h131.656q16.7793 0 16.7793 16.7793v517.588
q0 15.4893 16.7793 15.4893h76.1543q16.7793 0 16.7793 -15.4893v-737.014q0 -16.7803 16.7803 -16.7803h131.655z" />
</svg>
