<?xml version="1.0" standalone="no"?>
<!DOCTYPE svg PUBLIC "-//W3C//DTD SVG 1.1//EN" "http://www.w3.org/Graphics/SVG/1.1/DTD/svg11.dtd" >
<svg xmlns="http://www.w3.org/2000/svg" xmlns:xlink="http://www.w3.org/1999/xlink" version="1.1" viewBox="-10 0 1010 1000">
   <path fill="currentColor"
d="M583.945 750.078l2.57812 1.28906v41.25h-317.109v-42.5391h106.992v-55.4297h-344.18q-14.1797 0 -23.2031 -9.02344q-9.02344 -10.3125 -9.02344 -23.2031v-439.57q0 -14.1797 9.02344 -23.2031t23.2031 -9.02344h791.484q12.8906 0 23.2031 9.02344
q9.02344 9.02344 9.02344 23.2031v134.062q-19.3359 -7.73438 -39.9609 -11.6016v-114.727h-776.016v424.102h489.844q6.44531 20.625 16.7578 39.9609h-67.0312v55.4297h104.414zM636.797 422.656l34.8047 -6.44531l68.3203 -36.0938q-58.0078 6.44531 -103.125 42.5391z
M834.023 493.555v-73.4766l-67.0312 -28.3594l-86.3672 46.4062l-3.86719 45.1172l86.3672 42.5391zM962.93 556.719l-5.15625 -45.1172q-19.3359 -51.5625 -60.5859 -86.3672h-38.6719v67.0312l63.1641 72.1875zM558.164 585.078q0 58.0078 30.9375 106.992
l10.3125 -23.2031l-15.4688 -113.438l-18.0469 -25.7812q-7.73438 27.0703 -7.73438 55.4297zM761.836 640.508l-10.3125 -94.1016l-85.0781 -41.25l-59.2969 51.5625l15.4688 104.414l69.6094 36.0938zM922.969 717.852q46.4062 -55.4297 48.9844 -126.328
l-3.86719 -11.6016l-48.9844 9.02344l-37.3828 76.0547l1.28906 64.4531zM859.805 746.211l-2.57812 -76.0547l-76.0547 -14.1797l-76.0547 61.875l14.1797 39.9609l94.1016 21.9141zM757.969 791.328l-47.6953 -10.3125l-1.28906 -1.28906h-12.8906
q29.6484 10.3125 61.875 11.6016zM605.859 743.633q-65.7422 -65.7422 -65.7422 -158.555q0 -94.1016 65.7422 -158.555q65.7422 -65.7422 159.844 -65.7422q92.8125 0 158.555 65.7422q65.7422 64.4531 65.7422 158.555q0 79.9219 -50.2734 140.508
q-47.6953 59.2969 -122.461 77.3438v2.57812l-3.86719 -1.28906q-24.4922 5.15625 -47.6953 5.15625q-94.1016 0 -159.844 -65.7422zM358.359 356.914q0 -7.73438 5.15625 -10.3125q2.57812 -1.28906 5.15625 -1.28906t6.44531 2.57812l148.242 85.0781
q6.44531 3.86719 6.44531 9.02344q0 6.44531 -6.44531 10.3125l-148.242 85.0781q-3.86719 2.57812 -6.44531 2.57812t-5.15625 -1.28906q-5.15625 -2.57812 -5.15625 -11.6016v-170.156z" />
</svg>
