<?xml version="1.0" standalone="no"?>
<!DOCTYPE svg PUBLIC "-//W3C//DTD SVG 1.1//EN" "http://www.w3.org/Graphics/SVG/1.1/DTD/svg11.dtd" >
<svg xmlns="http://www.w3.org/2000/svg" xmlns:xlink="http://www.w3.org/1999/xlink" version="1.1" viewBox="-10 0 1066 1000">
   <path fill="currentColor"
d="M625.333 475.667l2.66699 1.33301v42.667h-328v-44h110.667v-57.334h-356q-14.667 0 -24 -9.33301q-9.33398 -10.667 -9.33398 -24v-454.667q0 -14.666 9.33398 -24q9.33301 -9.33301 24 -9.33301h818.666q13.334 0 24 9.33301q9.33398 9.33398 9.33398 24v138.667
q-20 -8 -41.334 -12v-118.667h-802.666v438.667h506.666q6.66699 21.333 17.334 41.333h-69.334v57.334h108zM680 137l36 -6.66699l70.667 -37.333q-60 6.66699 -106.667 44zM884 210.333v-76l-69.333 -29.333l-89.334 48l-4 46.667l89.334 44zM1017.33 275.667
l-5.33301 -46.667q-20 -53.333 -62.667 -89.333h-40v69.333l65.334 74.667zM598.667 305q0 60 32 110.667l10.666 -24l-16 -117.334l-18.666 -26.666q-8 28 -8 57.333zM809.333 362.333l-10.666 -97.333l-88 -42.667l-61.334 53.334l16 108l72 37.333zM976 442.333
q48 -57.333 50.667 -130.666l-4 -12l-50.667 9.33301l-38.667 78.667l1.33398 66.666zM910.667 471.667l-2.66699 -78.667l-78.667 -14.667l-78.666 64l14.666 41.334l97.334 22.666zM805.333 518.333l-49.333 -10.666l-1.33301 -1.33398h-13.334q30.667 10.667 64 12z
M648 469q-68 -68 -68 -164q0 -97.333 68 -164q68 -68 165.333 -68q96 0 164 68q68 66.667 68 164q0 82.667 -52 145.333q-49.333 61.334 -126.666 80v2.66699l-4 -1.33301q-25.334 5.33301 -49.334 5.33301q-97.333 0 -165.333 -68zM392 69q0 -8 5.33301 -10.667
q2.66699 -1.33301 5.33398 -1.33301q2.66602 0 6.66602 2.66699l153.334 88q6.66602 4 6.66602 9.33301q0 6.66699 -6.66602 10.667l-153.334 88q-4 2.66602 -6.66602 2.66602q-2.66699 0 -5.33398 -1.33301q-5.33301 -2.66699 -5.33301 -12v-176z" />
</svg>
