<?xml version="1.0" standalone="no"?>
<!DOCTYPE svg PUBLIC "-//W3C//DTD SVG 1.1//EN" "http://www.w3.org/Graphics/SVG/1.1/DTD/svg11.dtd" >
<svg xmlns="http://www.w3.org/2000/svg" xmlns:xlink="http://www.w3.org/1999/xlink" version="1.1" viewBox="-10 0 1066 1000">
   <path fill="currentColor"
d="M592 532.5q101.333 32 150.667 153.333h-413.334q49.334 -121.333 150.667 -153.333v-298.667q-88 -25.333 -144 -117.333q-58.667 -93.333 -58.667 -213.333q0 -32 5.33398 -64h508q4 32 4 64q0 120 -57.334 213.333q-57.333 92 -145.333 117.333v298.667z
M425.333 404.5q-253.333 -49.333 -353.333 -321.333q-50.667 -140 -50.667 -276v-20l1.33398 -38.667h244v80h-165.334q6.66699 124 45.334 228q81.333 220 278.666 265.333v82.667zM1045.33 -212.833v13.333q0 140 -52 282.667q-100 272 -352 321.333v-82.667
q197.334 -45.333 278.667 -265.333q38.667 -104 45.333 -228h-165.333v-80h244z" />
</svg>
