<?xml version="1.0" standalone="no"?>
<!DOCTYPE svg PUBLIC "-//W3C//DTD SVG 1.1//EN" "http://www.w3.org/Graphics/SVG/1.1/DTD/svg11.dtd" >
<svg xmlns="http://www.w3.org/2000/svg" xmlns:xlink="http://www.w3.org/1999/xlink" version="1.1" viewBox="-10 0 1010 1000">
   <path fill="currentColor"
d="M551.719 804.863q97.9688 30.9375 145.664 148.242h-399.609q47.6953 -117.305 145.664 -148.242v-288.75q-85.0781 -24.4922 -139.219 -113.438q-56.7188 -90.2344 -56.7188 -206.25q0 -30.9375 5.15625 -61.875h491.133q3.86719 30.9375 3.86719 61.875
q0 116.016 -55.4297 206.25q-55.4297 88.9453 -140.508 113.438v288.75zM390.586 681.113q-244.922 -47.6953 -341.602 -310.664q-48.9844 -135.352 -48.9844 -266.836v-19.3359l1.28906 -37.3828h235.898v77.3438h-159.844q6.44531 119.883 43.8281 220.43
q78.6328 212.695 269.414 256.523v79.9219zM990 84.2773v12.8906q0 135.352 -50.2734 273.281q-96.6797 262.969 -340.312 310.664v-79.9219q190.781 -43.8281 269.414 -256.523q37.3828 -100.547 43.8281 -220.43h-159.844v-77.3438h235.898z" />
</svg>
