<?xml version="1.0" standalone="no"?>
<!DOCTYPE svg PUBLIC "-//W3C//DTD SVG 1.1//EN" "http://www.w3.org/Graphics/SVG/1.1/DTD/svg11.dtd" >
<svg xmlns="http://www.w3.org/2000/svg" xmlns:xlink="http://www.w3.org/1999/xlink" version="1.1" viewBox="-10 0 1010 1000">
   <path fill="currentColor"
d="M591.68 342.734q3.86719 0 5.15625 1.28906q5.15625 2.57812 69.6094 174.023l5.15625 16.7578q1.28906 2.57812 1.28906 5.15625q0 6.44531 -9.02344 14.1797l-148.242 116.016q-3.86719 2.57812 -9.02344 2.57812t-10.3125 -2.57812q-165 -110.859 -165 -121.172
v-1.28906l51.5625 -180.469q3.86719 -16.7578 14.1797 -16.7578q189.492 -7.73438 194.648 -7.73438zM168.867 337.578h-1.28906q-10.3125 -1.28906 -12.2461 -26.4258t-3.22266 -31.582q0 -6.44531 -6.44531 -7.73438h-2.57812q-3.86719 0 -6.44531 3.86719
q-61.875 97.9688 -64.4531 213.984q0 6.44531 6.44531 9.02344q1.28906 1.28906 3.86719 1.28906q3.86719 0 6.44531 -5.15625l14.1797 -20.625q11.6016 -18.0469 19.3359 -18.0469q5.15625 0 65.7422 64.4531t61.875 69.6094l9.02344 159.844v3.86719
q0 15.4688 -10.3125 18.0469h-1.28906q-5.15625 0 -24.4922 -3.86719q-7.73438 -1.28906 -25.7812 -3.86719q-18.0469 -3.86719 -27.0703 -5.15625q-6.44531 -1.28906 -10.3125 -1.28906q82.5 108.281 212.695 146.953q2.57812 1.28906 3.86719 1.28906
q3.86719 0 6.44531 -3.86719q2.57812 -2.57812 2.57812 -5.15625t-2.57812 -5.15625q-3.86719 -5.15625 -14.1797 -19.3359q-20.625 -27.0703 -20.625 -28.3594q-5.15625 -6.44531 -5.15625 -11.6016q0 -7.73438 9.02344 -11.6016l94.1016 -39.9609
q59.2969 -24.4922 58.0078 -24.4922q2.57812 -1.28906 6.44531 -1.28906q5.15625 0 12.8906 2.57812q6.44531 1.28906 33.5156 10.3125l106.992 32.2266q18.0469 5.15625 20.625 11.6016v1.28906q0 6.44531 -10.3125 24.4922l-21.9141 37.3828
q5.15625 6.44531 6.44531 6.44531q0 1.28906 5.15625 6.44531q112.148 -48.9844 181.758 -149.531q1.28906 -2.57812 1.28906 -3.86719q0 -3.86719 -2.57812 -6.44531q-2.57812 -3.86719 -7.73438 -3.86719h-1.28906q-19.3359 6.44531 -24.4922 9.02344
q-20.625 6.44531 -23.2031 6.44531q-11.6016 -1.28906 -12.8906 -18.0469q-1.28906 -15.4688 -14.1797 -158.555v-1.28906q0 -7.73438 92.8125 -143.086q7.73438 -11.6016 15.4688 -11.6016q3.86719 0 7.73438 2.57812t9.02344 10.3125l9.02344 9.02344l1.28906 1.28906
q2.57812 3.86719 6.44531 3.86719q1.28906 0 3.86719 -1.28906q5.15625 -2.57812 5.15625 -7.73438v-2.57812q-15.4688 -86.3672 -65.7422 -159.844q-1.28906 -3.86719 -5.15625 -3.86719q-1.28906 0 -3.86719 1.28906q-6.44531 1.28906 -6.44531 7.73438v25.7812
q0 20.625 -9.02344 24.4922q-3.86719 0 -170.156 -37.3828q-5.15625 -1.28906 -15.4688 -15.4688q-3.86719 -3.86719 -48.9844 -63.1641t-46.4062 -59.2969q-2.57812 -3.86719 -2.57812 -7.73438q0 -9.02344 14.1797 -15.4688l47.6953 -20.625
q7.73438 -3.86719 11.6016 -6.44531q-56.7188 -16.7578 -114.727 -16.7578q-50.2734 0 -101.836 12.8906q-6.44531 1.28906 -6.44531 7.73438t5.15625 9.02344l23.2031 7.73438q12.8906 3.86719 12.8906 12.8906q0 3.86719 -2.57812 7.73438q0 1.28906 -44.4727 74.1211
t-49.6289 75.4102q-158.555 54.1406 -163.711 54.1406zM478.242 5h18.0469q141.797 0 261.68 76.0547q135.352 85.0781 195.938 233.32q36.0938 91.5234 36.0938 185.625q0 55.4297 -12.8906 113.438q-34.8047 146.953 -146.953 250.078q-119.883 110.859 -281.016 128.906
q-27.0703 2.57812 -54.1406 2.57812q-122.461 0 -232.031 -58.0078q-139.219 -74.7656 -210.117 -216.562q-52.8516 -104.414 -52.8516 -217.852q0 -39.9609 6.44531 -79.9219q24.4922 -149.531 126.328 -260.391q25.7812 -27.0703 55.4297 -50.2734
q127.617 -101.836 290.039 -106.992z" />
</svg>
