<?xml version="1.0" standalone="no"?>
<!DOCTYPE svg PUBLIC "-//W3C//DTD SVG 1.1//EN" "http://www.w3.org/Graphics/SVG/1.1/DTD/svg11.dtd" >
<svg xmlns="http://www.w3.org/2000/svg" xmlns:xlink="http://www.w3.org/1999/xlink" version="1.1" viewBox="-10 0 1066 1000">
   <path fill="currentColor"
d="M633.333 54.333q4 0 5.33398 1.33398q5.33301 2.66602 72 180l5.33301 17.333q1.33301 2.66699 1.33301 5.33301q0 6.66699 -9.33301 14.667l-153.333 120q-4 2.66699 -9.33398 2.66699q-5.33301 0 -10.666 -2.66699q-170.667 -114.667 -170.667 -125.333v-1.33398
l53.333 -186.666q4 -17.334 14.667 -17.334q196 -8 201.333 -8zM196 49h-1.33301q-10.667 -1.33301 -12.667 -27.333t-3.33301 -32.667q0 -6.66699 -6.66699 -8h-2.66699q-4 0 -6.66602 4q-64 101.333 -66.667 221.333q0 6.66699 6.66699 9.33398q1.33301 1.33301 4 1.33301
q4 0 6.66602 -5.33301l14.667 -21.334q12 -18.666 20 -18.666q5.33301 0 68 66.666q62.667 66.667 64 72l9.33301 165.334v4q0 16 -10.666 18.666h-1.33398q-5.33301 0 -25.333 -4q-8 -1.33301 -26.667 -4q-18.666 -4 -28 -5.33301q-6.66602 -1.33301 -10.666 -1.33301
q85.333 112 220 152q2.66602 1.33301 4 1.33301q4 0 6.66602 -4q2.66699 -2.66699 2.66699 -5.33301q0 -2.66699 -2.66699 -5.33398q-4 -5.33301 -14.666 -20q-21.334 -28 -21.334 -29.333q-5.33301 -6.66699 -5.33301 -12q0 -8 9.33301 -12l97.334 -41.333
q61.333 -25.334 60 -25.334q2.66602 -1.33301 6.66602 -1.33301q5.33398 0 13.334 2.66699q6.66602 1.33301 34.666 10.666l110.667 33.334q18.667 5.33301 21.333 12v1.33301q0 6.66699 -10.666 25.333l-22.667 38.667q5.33301 6.66699 6.66699 6.66699
q0 1.33301 5.33301 6.66602q116 -50.666 188 -154.666q1.33301 -2.66699 1.33301 -4q0 -4 -2.66602 -6.66699q-2.66699 -4 -8 -4h-1.33398q-20 6.66699 -25.333 9.33301q-21.333 6.66699 -24 6.66699q-12 -1.33301 -13.333 -18.667q-1.33398 -16 -14.667 -164v-1.33301
q0 -8 96 -148q8 -12 16 -12q4 0 8 2.66699q4 2.66602 9.33301 10.666l9.33398 9.33398l1.33301 1.33301q2.66699 4 6.66699 4q1.33301 0 4 -1.33301q5.33301 -2.66699 5.33301 -8v-2.66699q-16 -89.333 -68 -165.333q-1.33301 -4 -5.33301 -4q-1.33398 0 -4 1.33301
q-6.66699 1.33301 -6.66699 8v26.667q0 21.333 -9.33301 25.333q-4 0 -176 -38.667q-5.33398 -1.33301 -16 -16q-4 -4 -50.667 -65.333t-48 -61.333q-2.66699 -4 -2.66699 -8q0 -9.33398 14.667 -16l49.333 -21.334q8 -4 12 -6.66602q-58.666 -17.334 -118.666 -17.334
q-52 0 -105.334 13.334q-6.66602 1.33301 -6.66602 8q0 6.66602 5.33301 9.33301l24 8q13.333 4 13.333 13.333q0 4 -2.66602 8q0 1.33398 -46 76.667t-51.334 78q-164 56 -169.333 56zM516 -295h18.667q146.666 0 270.666 78.667q140 88 202.667 241.333
q37.333 94.667 37.333 192q0 57.333 -13.333 117.333q-36 152 -152 258.667q-124 114.667 -290.667 133.333q-28 2.66699 -56 2.66699q-126.666 0 -240 -60q-144 -77.333 -217.333 -224q-54.667 -108 -54.667 -225.333q0 -41.334 6.66699 -82.667
q25.333 -154.667 130.667 -269.333q26.666 -28 57.333 -52q132 -105.334 300 -110.667z" />
</svg>
