<?xml version="1.0" standalone="no"?>
<!DOCTYPE svg PUBLIC "-//W3C//DTD SVG 1.1//EN" "http://www.w3.org/Graphics/SVG/1.1/DTD/svg11.dtd" >
<svg xmlns="http://www.w3.org/2000/svg" xmlns:xlink="http://www.w3.org/1999/xlink" version="1.1" viewBox="-10 0 921 1000">
   <path fill="currentColor"
d="M220.43 805.508l-213.984 -455.039q-6.44531 -11.6016 -6.44531 -24.4922q0 -9.02344 3.86719 -18.0469q7.73438 -21.9141 29.6484 -32.2266l61.875 -29.6484zM559.453 899.609l-189.492 90.2344q-11.6016 5.15625 -23.2031 5.15625q-10.3125 0 -20.625 -3.86719
q-21.9141 -7.73438 -30.9375 -28.3594l-12.8906 -25.7812q23.2031 12.8906 46.4062 12.8906q11.6016 0 21.9141 -2.57812zM251.367 681.758l-110.859 -491.133q-1.28906 -6.44531 -1.28906 -12.8906q0 -15.4688 9.02344 -29.6484q12.8906 -19.3359 36.0938 -24.4922
l67.0312 -15.4688v573.633zM560.742 848.047l-204.961 46.4062q-6.44531 1.28906 -12.8906 1.28906q-15.4688 0 -29.6484 -9.02344q-19.3359 -12.8906 -24.4922 -36.0938l-6.44531 -27.0703q28.3594 24.4922 64.4531 24.4922h213.984zM800.508 221.562v-2.57812
q0 -3.86719 -3.86719 -3.86719h-2.57812l-132.773 56.7188q-6.44531 1.28906 -11.6016 6.44531l-54.1406 74.7656l27.0703 36.0938l63.1641 -59.2969l-60.5859 63.1641l25.7812 33.5156l83.7891 -63.1641q5.15625 -3.86719 6.44531 -10.3125zM727.031 585.078
q20.625 0 20.625 -20.625t-20.625 -20.625h-1.28906l-36.0938 -36.0938l20.625 -19.3359q2.57812 -2.57812 2.57812 -5.15625t-2.57812 -3.86719l-7.73438 -7.73438q-1.28906 -2.57812 -3.86719 -2.57812q-1.28906 0 -3.86719 2.57812l-60.5859 60.5859
q-1.28906 1.28906 -1.28906 3.86719q0 1.28906 1.28906 3.86719l7.73438 9.02344q2.57812 1.28906 3.86719 1.28906q2.57812 0 3.86719 -1.28906l20.625 -20.625l29.6484 28.3594v-1.28906l3.86719 -3.86719l7.73438 -5.15625q1.28906 -1.28906 5.15625 -2.57812h1.28906
l-1.28906 1.28906q-1.28906 0 -1.28906 1.28906q-9.02344 7.73438 -9.02344 18.0469q0 14.1797 11.6016 19.3359q3.86719 1.28906 9.02344 1.28906zM578.789 481.953l-20.625 -16.7578l-28.3594 30.9375l12.8906 12.8906zM542.695 539.961
q2.57812 -2.57812 2.57812 -3.86719q0 -2.57812 -2.57812 -3.86719l-60.5859 -60.5859q-1.28906 -2.57812 -3.86719 -2.57812q-1.28906 0 -3.86719 2.57812l-9.02344 7.73438q-1.28906 1.28906 -1.28906 3.86719t1.28906 5.15625l20.625 19.3359l-34.8047 36.0938h-1.28906
q-21.9141 0 -21.9141 20.625t21.9141 20.625q3.86719 0 7.73438 -1.28906q12.8906 -5.15625 12.8906 -19.3359q0 -10.3125 -9.02344 -18.0469l-1.28906 -1.28906v-1.28906l5.15625 2.57812l7.73438 5.15625q1.28906 1.28906 2.57812 3.86719l1.28906 1.28906
l28.3594 -28.3594l20.625 20.625q2.57812 1.28906 3.86719 1.28906q2.57812 0 5.15625 -1.28906zM527.227 443.281l-21.9141 29.6484l12.8906 12.8906l29.6484 -27.0703zM384.141 216.406h-3.86719q-2.57812 0 -2.57812 2.57812v3.86719l56.7188 130.195
q1.28906 6.44531 6.44531 10.3125l193.359 145.664l12.8906 -12.8906l-155.977 -166.289l166.289 155.977l14.1797 -12.8906l-145.664 -194.648q-3.86719 -5.15625 -10.3125 -6.44531zM801.797 5q29.6484 0 50.2734 16.7578t20.625 39.9609v676.758
q0 23.2031 -20.625 38.6719q-20.625 16.7578 -50.2734 16.7578h-425.391q-29.6484 0 -50.2734 -16.7578q-21.9141 -15.4688 -21.9141 -38.6719v-676.758q0 -23.2031 21.9141 -39.9609q20.625 -16.7578 50.2734 -16.7578h425.391z" />
</svg>
