<?xml version="1.0" standalone="no"?>
<!DOCTYPE svg PUBLIC "-//W3C//DTD SVG 1.1//EN" "http://www.w3.org/Graphics/SVG/1.1/DTD/svg11.dtd" >
<svg xmlns="http://www.w3.org/2000/svg" xmlns:xlink="http://www.w3.org/1999/xlink" version="1.1" viewBox="-10 0 1034 1000">
   <path fill="currentColor"
d="M309.333 533l-221.333 -470.667q-6.66699 -12 -6.66699 -25.333q0 -9.33301 4 -18.667q8 -22.666 30.667 -33.333l64 -30.667zM660 630.333l-196 93.334q-12 5.33301 -24 5.33301q-10.667 0 -21.333 -4q-22.667 -8 -32 -29.333l-13.334 -26.667q24 13.333 48 13.333
q12 0 22.667 -2.66602zM341.333 405l-114.666 -508q-1.33398 -6.66699 -1.33398 -13.333q0 -16 9.33398 -30.667q13.333 -20 37.333 -25.333l69.333 -16v593.333zM661.333 577l-212 48q-6.66602 1.33301 -13.333 1.33301q-16 0 -30.667 -9.33301
q-20 -13.333 -25.333 -37.333l-6.66699 -28q29.334 25.333 66.667 25.333h221.333zM909.333 -71v-2.66699q0 -4 -4 -4h-2.66602l-137.334 58.667q-6.66602 1.33301 -12 6.66699l-56 77.333l28 37.333l65.334 -61.333l-62.667 65.333l26.667 34.667l86.666 -65.333
q5.33398 -4 6.66699 -10.667zM833.333 305q21.334 0 21.334 -21.333q0 -21.334 -21.334 -21.334h-1.33301l-37.333 -37.333l21.333 -20q2.66699 -2.66699 2.66699 -5.33301q0 -2.66699 -2.66699 -4l-8 -8q-1.33301 -2.66699 -4 -2.66699q-1.33301 0 -4 2.66699
l-62.667 62.666q-1.33301 1.33398 -1.33301 4q0 1.33398 1.33301 4l8 9.33398q2.66699 1.33301 4 1.33301q2.66699 0 4 -1.33301l21.334 -21.334l30.666 29.334v-1.33398q2.66699 -2.66602 4 -4q4 -2.66602 8 -5.33301q1.33398 -1.33301 5.33398 -2.66699h1.33301
l-1.33301 1.33398q-1.33398 0 -1.33398 1.33301q-9.33301 8 -9.33301 18.667q0 14.666 12 20q4 1.33301 9.33301 1.33301zM680 198.333l-21.333 -17.333l-29.334 32l13.334 13.333zM642.667 258.333q2.66602 -2.66602 2.66602 -4q0 -2.66602 -2.66602 -4l-62.667 -62.666
q-1.33301 -2.66699 -4 -2.66699q-1.33301 0 -4 2.66699l-9.33301 8q-1.33398 1.33301 -1.33398 4q0 2.66602 1.33398 5.33301l21.333 20l-36 37.333h-1.33301q-22.667 0 -22.667 21.334q0 21.333 22.667 21.333q4 0 8 -1.33301q13.333 -5.33398 13.333 -20
q0 -10.667 -9.33301 -18.667l-1.33398 -1.33301v-1.33398q2.66699 1.33398 5.33398 2.66699q4 2.66699 8 5.33301q1.33301 1.33398 2.66602 4l1.33398 1.33398l29.333 -29.334l21.333 21.334q2.66699 1.33301 4 1.33301q2.66699 0 5.33398 -1.33301zM626.667 158.333
l-22.667 30.667l13.333 13.333l30.667 -28zM478.667 -76.333h-4q-2.66699 0 -2.66699 2.66602v4l58.667 134.667q1.33301 6.66699 6.66602 10.667l200 150.666l13.334 -13.333l-161.334 -172l172 161.333l14.667 -13.333l-150.667 -201.333q-4 -5.33398 -10.666 -6.66699z
M910.667 -295q30.666 0 52 17.333q21.333 17.334 21.333 41.334v700q0 24 -21.333 40q-21.334 17.333 -52 17.333h-440q-30.667 0 -52 -17.333q-22.667 -16 -22.667 -40v-700q0 -24 22.667 -41.334q21.333 -17.333 52 -17.333h440z" />
</svg>
