<?xml version="1.0" standalone="no"?>
<!DOCTYPE svg PUBLIC "-//W3C//DTD SVG 1.1//EN" "http://www.w3.org/Graphics/SVG/1.1/DTD/svg11.dtd" >
<svg xmlns="http://www.w3.org/2000/svg" xmlns:xlink="http://www.w3.org/1999/xlink" version="1.1" viewBox="-10 0 1010 1000">
   <path fill="currentColor"
d="M181.758 321.465l199.805 70.8984l-54.1406 60.5859l-248.789 -87.6562zM697.383 461.973h-335.156l51.5625 -58.0078l3.86719 -3.86719h224.297zM676.758 392.363l206.25 -70.8984l106.992 43.8281l-259.102 88.9453zM404.766 364.004l-194.648 -63.1641
l194.648 -64.4531h251.367l201.094 64.4531l-201.094 63.1641h-251.367zM697.383 499.355l-167.578 362.227l-1.28906 -2.57812l-167.578 -359.648h336.445zM738.633 489.043l251.367 -86.3672l-406.055 418.945zM320.977 487.754l154.688 333.867l-397.031 -418.945z
M917.812 614.082q15.4688 51.5625 68.3203 67.0312q-52.8516 14.1797 -68.3203 65.7422q-14.1797 -51.5625 -68.3203 -65.7422q54.1406 -15.4688 68.3203 -67.0312zM185.625 228.652q-72.1875 20.625 -92.8125 90.2344q-20.625 -69.6094 -92.8125 -90.2344
q72.1875 -19.3359 92.8125 -90.2344q20.625 70.8984 92.8125 90.2344z" />
</svg>
