<?xml version="1.0" standalone="no"?>
<!DOCTYPE svg PUBLIC "-//W3C//DTD SVG 1.1//EN" "http://www.w3.org/Graphics/SVG/1.1/DTD/svg11.dtd" >
<svg xmlns="http://www.w3.org/2000/svg" xmlns:xlink="http://www.w3.org/1999/xlink" version="1.1" viewBox="-10 0 1066 1000">
   <path fill="currentColor"
d="M209.333 32.5l206.667 73.333l-56 62.667l-257.333 -90.667zM742.667 177.833h-346.667l53.333 -60l4 -4h232zM721.333 105.833l213.334 -73.333l110.666 45.333l-268 92zM440 76.5l-201.333 -65.333l201.333 -66.667h260l208 66.667l-208 65.333h-260zM742.667 216.5
l-173.334 374.667l-1.33301 -2.66699l-173.333 -372h348zM785.333 205.833l260 -89.333l-420 433.333zM353.333 204.5l160 345.333l-410.666 -433.333zM970.667 335.167q16 53.333 70.666 69.333q-54.666 14.667 -70.666 68q-14.667 -53.333 -70.667 -68
q56 -16 70.667 -69.333zM213.333 -63.5q-74.666 21.333 -96 93.333q-21.333 -72 -96 -93.333q74.667 -20 96 -93.333q21.334 73.333 96 93.333z" />
</svg>
