<?xml version="1.0" standalone="no"?>
<!DOCTYPE svg PUBLIC "-//W3C//DTD SVG 1.1//EN" "http://www.w3.org/Graphics/SVG/1.1/DTD/svg11.dtd" >
<svg xmlns="http://www.w3.org/2000/svg" xmlns:xlink="http://www.w3.org/1999/xlink" version="1.1" viewBox="-10 0 896 1000">
   <path fill="currentColor"
d="M406.055 498.711q-3.86719 -2.57812 -5.15625 -2.57812t-3.86719 1.28906t-5.15625 1.28906q-1.28906 0 -3.86719 -1.28906t-5.15625 -1.28906q-1.28906 0 -3.86719 2.57812q-2.57812 1.28906 -3.86719 1.28906q7.73438 3.86719 16.7578 3.86719
q10.3125 0 18.0469 -3.86719q-1.28906 0 -3.86719 -1.28906zM391.875 525.781q-30.9375 0 -52.8516 -28.3594q-1.28906 0 -1.28906 -1.28906l1.28906 -1.28906q2.57812 -1.28906 10.3125 -6.44531q19.3359 -11.6016 27.0703 -11.6016q3.86719 0 10.3125 2.57812
q3.86719 1.28906 5.15625 1.28906q2.57812 0 6.44531 -1.28906q6.44531 -2.57812 10.3125 -2.57812q6.44531 0 27.0703 11.6016q7.73438 5.15625 9.02344 6.44531q1.28906 0 1.28906 1.28906v1.28906q-23.2031 28.3594 -54.1406 28.3594zM399.609 658.555
q-63.1641 0 -114.727 -33.5156q-6.44531 -3.86719 -6.44531 -10.3125q0 -3.86719 3.86719 -9.02344q1.28906 -2.57812 16.7578 -23.2031l1.28906 -1.28906q5.15625 -5.15625 10.3125 -5.15625q3.86719 0 7.73438 2.57812q1.28906 0 1.28906 1.28906
q38.6719 21.9141 78.6328 21.9141q30.9375 0 61.875 -12.8906q9.02344 -3.86719 18.0469 -10.3125q2.57812 0 3.86719 -1.28906q2.57812 -1.28906 3.86719 -1.28906q2.57812 0 5.15625 1.28906q5.15625 1.28906 9.02344 5.15625l6.44531 9.02344
q7.73438 10.3125 10.3125 14.1797q3.86719 5.15625 3.86719 9.02344q0 5.15625 -7.73438 10.3125q-51.5625 33.5156 -113.438 33.5156zM456.328 10.1562q109.57 27.0703 175.312 100.547q60.5859 69.6094 67.0312 157.266q1.28906 9.02344 1.28906 19.3359
q0 77.3438 -47.6953 145.664q-56.7188 82.5 -167.578 125.039q56.7188 -64.4531 81.2109 -117.305q10.3125 -23.2031 10.3125 -48.9844q0 -27.0703 -11.6016 -55.4297q-24.4922 -59.2969 -83.7891 -73.4766q-119.883 -30.9375 -132.773 -105.703
q-21.9141 30.9375 -30.9375 48.9844q-7.73438 16.7578 -12.8906 34.8047q-6.44531 19.3359 -9.02344 36.0938q-5.15625 25.7812 -5.15625 48.9844q0 11.6016 1.28906 23.2031q3.86719 23.2031 23.2031 73.4766q-34.8047 -29.6484 -47.6953 -68.3203
q-7.73438 -23.2031 -7.73438 -47.6953q0 -16.7578 3.86719 -34.8047q3.86719 -19.3359 10.3125 -37.3828q-43.8281 67.0312 -43.8281 134.062q0 86.3672 73.4766 172.734q-145.664 -68.3203 -170.156 -170.156q-6.44531 -30.9375 -6.44531 -61.875
q0 -48.9844 16.7578 -96.6797q25.7812 -72.1875 68.3203 -96.6797q12.8906 -7.73438 29.6484 -12.8906q28.3594 -6.44531 32.2266 -6.44531h1.28906q52.8516 -91.5234 144.375 -91.5234q18.0469 0 37.3828 5.15625zM21.9141 995q-21.9141 0 -21.9141 -34.8047
q0 -10.3125 1.28906 -21.9141q6.44531 -52.8516 38.6719 -125.039q81.2109 -180.469 159.844 -180.469h55.4297q-19.3359 119.883 -19.3359 166.289q0 12.8906 1.28906 20.625q14.1797 94.1016 135.352 97.9688q27.0703 0 30.9375 -108.281q1.28906 108.281 25.7812 108.281
q123.75 -1.28906 143.086 -90.2344q2.57812 -10.3125 2.57812 -27.0703q0 -52.8516 -18.0469 -167.578h60.5859q94.1016 2.57812 172.734 181.758q30.9375 72.1875 33.5156 123.75v11.6016q0 45.1172 -27.0703 45.1172h-774.727z" />
</svg>
