<?xml version="1.0" standalone="no"?>
<!DOCTYPE svg PUBLIC "-//W3C//DTD SVG 1.1//EN" "http://www.w3.org/Graphics/SVG/1.1/DTD/svg11.dtd" >
<svg xmlns="http://www.w3.org/2000/svg" xmlns:xlink="http://www.w3.org/1999/xlink" version="1.1" viewBox="-10 0 1034 1000">
   <path fill="currentColor"
d="M526.667 215.667q-4 -2.66699 -5.33398 -2.66699q-1.33301 0 -4 1.33301q-2.66602 1.33398 -5.33301 1.33398q-1.33301 0 -4 -1.33398q-2.66699 -1.33301 -5.33301 -1.33301q-1.33398 0 -4 2.66699q-2.66699 1.33301 -4 1.33301q8 4 17.333 4q10.667 0 18.667 -4
q-1.33398 0 -4 -1.33301zM512 243.667q-32 0 -54.667 -29.334q-1.33301 0 -1.33301 -1.33301l1.33301 -1.33301q2.66699 -1.33398 10.667 -6.66699q20 -12 28 -12q4 0 10.667 2.66699q4 1.33301 5.33301 1.33301q2.66699 0 6.66699 -1.33301
q6.66602 -2.66699 10.666 -2.66699q6.66699 0 28 12q8 5.33301 9.33398 6.66699q1.33301 0 1.33301 1.33301v1.33301q-24 29.334 -56 29.334zM520 381q-65.333 0 -118.667 -34.667q-6.66602 -4 -6.66602 -10.666q0 -4 4 -9.33398q1.33301 -2.66602 17.333 -24
l1.33301 -1.33301q5.33398 -5.33301 10.667 -5.33301q4 0 8 2.66602q1.33301 0 1.33301 1.33398q40 22.666 81.334 22.666q32 0 64 -13.333q9.33301 -4 18.666 -10.667q2.66699 0 4 -1.33301q2.66699 -1.33301 4 -1.33301q2.66699 0 5.33398 1.33301
q5.33301 1.33301 9.33301 5.33301l6.66699 9.33398q8 10.666 10.666 14.666q4 5.33398 4 9.33398q0 5.33301 -8 10.666q-53.333 34.667 -117.333 34.667zM578.667 -289.667q113.333 28 181.333 104q62.667 72 69.333 162.667q1.33398 9.33301 1.33398 20
q0 80 -49.334 150.667q-58.666 85.333 -173.333 129.333q58.667 -66.667 84 -121.333q10.667 -24 10.667 -50.667q0 -28 -12 -57.333q-25.334 -61.334 -86.667 -76q-124 -32 -137.333 -109.334q-22.667 32 -32 50.667q-8 17.333 -13.334 36q-6.66602 20 -9.33301 37.333
q-5.33301 26.667 -5.33301 50.667q0 12 1.33301 24q4 24 24 76q-36 -30.667 -49.333 -70.667q-8 -24 -8 -49.333q0 -17.333 4 -36q4 -20 10.666 -38.667q-45.333 69.334 -45.333 138.667q0 89.333 76 178.667q-150.667 -70.667 -176 -176q-6.66699 -32 -6.66699 -64
q0 -50.667 17.334 -100q26.666 -74.667 70.666 -100q13.334 -8 30.667 -13.334q29.333 -6.66602 33.333 -6.66602h1.33398q54.666 -94.667 149.333 -94.667q18.667 0 38.667 5.33301zM129.333 729q-22.666 0 -22.666 -36q0 -10.667 1.33301 -22.667
q6.66699 -54.666 40 -129.333q84 -186.667 165.333 -186.667h57.334q-20 124 -20 172q0 13.334 1.33301 21.334q14.667 97.333 140 101.333q28 0 32 -112q1.33301 112 26.667 112q128 -1.33301 148 -93.333q2.66602 -10.667 2.66602 -28q0 -54.667 -18.666 -173.334h62.666
q97.334 2.66699 178.667 188q32 74.667 34.667 128v12q0 46.667 -28 46.667h-801.334z" />
</svg>
