<?xml version="1.0" standalone="no"?>
<!DOCTYPE svg PUBLIC "-//W3C//DTD SVG 1.1//EN" "http://www.w3.org/Graphics/SVG/1.1/DTD/svg11.dtd" >
<svg xmlns="http://www.w3.org/2000/svg" xmlns:xlink="http://www.w3.org/1999/xlink" version="1.1" viewBox="-10 0 1034 1000">
   <path fill="currentColor"
d="M949.431 -58.8066q1.33105 5.32617 1.33105 10.6523q0 15.9795 -21.3057 18.6426l-103.864 6.6582q-86.5537 31.958 -123.839 109.191q-29.2949 61.2529 -29.2949 146.476q0 27.9639 2.66309 59.9219q-17.3105 6.6582 -31.959 15.9795
q-21.3047 -5.32715 -43.9424 -6.6582q-3.99512 -33.29 -3.99512 -65.248q0 -105.196 38.6172 -182.43q2.66309 -7.98926 7.98926 -17.3105q-115.85 82.5586 -203.734 256.999q-3.99512 7.98926 -7.99023 14.6475q-3.99414 7.98926 -6.6582 14.6475
q18.6426 3.99512 34.6221 10.6523q-14.6475 10.6533 -25.3008 23.9688q-41.2793 47.9375 -41.2793 127.834q0 27.9639 5.32617 59.9219q7.99023 49.2695 31.959 93.2119q-51.9326 33.29 -111.854 33.29q-19.9746 0 -38.6162 -3.99512q-83.8916 -14.6475 -130.497 -83.8906
q-34.6221 -50.6006 -34.6221 -107.859q0 -21.3057 5.32715 -43.9424q29.2949 -138.486 131.828 -138.486q43.9424 0 91.8799 23.9688q3.99512 -7.99023 6.6582 -14.6484q2.66309 -6.65723 6.6582 -14.6475q134.491 -286.294 339.558 -366.189
q-46.6055 -11.9844 -87.8857 -34.6221q-73.2373 -37.2842 -125.17 -102.533q-38.6162 -46.6055 -38.6162 -63.916q0 -2.66309 1.33105 -5.32715q5.32715 -10.6523 41.2803 -10.6523q17.3105 0 39.9473 2.66309q85.2227 7.98926 158.461 46.6064
q99.8701 51.9316 149.139 133.159l62.585 -27.9629q7.99023 -3.99512 14.6484 -3.99512q14.6475 0 19.9736 19.9736zM777.654 319.367q101.201 0 123.839 145.145q3.99414 21.3057 3.99414 41.2793q0 69.2432 -43.9424 129.165q-55.9268 75.9014 -149.14 91.8809
q-18.6416 2.66309 -37.2842 2.66309q-118.513 0 -187.756 -97.207q-2.66309 -5.32617 -7.98926 -13.3154q-3.99512 -6.6582 -7.99023 -14.6475q-17.3105 -31.959 -22.6367 -66.5801q-5.32617 -29.2959 -5.32617 -53.2646q0 -86.5537 59.9219 -117.181
q6.6582 -2.66309 15.9795 -5.32617l15.9785 -5.32617q17.3115 -2.66309 38.6162 -2.66309q15.9795 0 33.29 1.33105q26.6328 3.99512 45.2744 9.32129q11.9844 -7.98926 30.627 -17.3105q51.9326 -27.9639 94.5439 -27.9639z" />
</svg>
