<?xml version="1.0" standalone="no"?>
<!DOCTYPE svg PUBLIC "-//W3C//DTD SVG 1.1//EN" "http://www.w3.org/Graphics/SVG/1.1/DTD/svg11.dtd" >
<svg xmlns="http://www.w3.org/2000/svg" xmlns:xlink="http://www.w3.org/1999/xlink" version="1.1" viewBox="-10 0 890 1000">
   <path fill="currentColor"
d="M808.479 232.867q1.28711 5.14941 1.28711 10.2988q0 15.4492 -20.5977 18.0234l-100.416 6.4375q-83.6807 30.8975 -119.728 105.565q-28.3223 59.2197 -28.3223 141.612q0 27.0352 2.5752 57.9326q-16.7363 6.43652 -30.8975 15.4482
q-20.5986 -5.14941 -42.4834 -6.43652q-3.8623 -32.1846 -3.8623 -63.082q0 -101.703 37.334 -176.372q2.5752 -7.72363 7.72461 -16.7354q-112.003 79.8174 -196.971 248.465q-3.8623 7.72461 -7.72363 14.1611q-3.8623 7.72461 -6.4375 14.1621
q18.0234 3.86133 33.4727 10.2988q-14.1621 10.2988 -24.4609 23.1729q-39.9092 46.3457 -39.9092 123.589q0 27.0352 5.14941 57.9326q7.72461 47.6328 30.8975 90.1172q-50.208 32.1846 -108.141 32.1846q-19.3105 0 -37.334 -3.8623q-81.1055 -14.1611 -126.164 -81.1055
q-33.4717 -48.9209 -33.4717 -104.278q0 -20.5977 5.14941 -42.4834q28.3223 -133.889 127.451 -133.889q42.4844 0 88.8301 23.1729q3.8623 -7.72363 6.43652 -14.1611q2.5752 -6.43652 6.4375 -14.1611q130.025 -276.788 328.283 -354.031
q-45.0586 -11.5859 -84.9678 -33.4717q-70.8057 -36.0469 -121.014 -99.1289q-37.335 -45.0586 -37.335 -61.7949q0 -2.57422 1.28809 -5.14941q5.14941 -10.2988 39.9082 -10.2988q16.7363 0 38.6221 2.5752q82.3926 7.72363 153.199 45.0576
q96.5537 50.209 144.187 128.739l60.5078 -27.0352q7.72363 -3.8623 14.1611 -3.8623q14.1611 0 19.3105 19.3105zM642.406 598.485q97.8408 0 119.727 140.325q3.8623 20.5977 3.8623 39.9082q0 66.9443 -42.4844 124.877q-54.0693 73.3809 -144.187 88.8291
q-18.0234 2.5752 -36.0469 2.5752q-114.578 0 -181.521 -93.9795q-2.5752 -5.14941 -7.72461 -12.874q-3.8623 -6.43652 -7.72461 -14.1611q-16.7354 -30.8965 -21.8848 -64.3691q-5.15039 -28.3223 -5.15039 -51.4951q0 -83.6807 57.9326 -113.29
q6.4375 -2.5752 15.4492 -5.14941q7.72363 -2.5752 15.4482 -5.14941q16.7363 -2.5752 37.334 -2.5752q15.4492 0 32.1846 1.28711q25.748 3.8623 43.7715 9.01172q11.5859 -7.72363 29.6094 -16.7354q50.208 -27.0352 91.4053 -27.0352z" />
</svg>
