<?xml version="1.0" standalone="no"?>
<!DOCTYPE svg PUBLIC "-//W3C//DTD SVG 1.1//EN" "http://www.w3.org/Graphics/SVG/1.1/DTD/svg11.dtd" >
<svg xmlns="http://www.w3.org/2000/svg" xmlns:xlink="http://www.w3.org/1999/xlink" version="1.1" viewBox="-10 0 971 1000">
   <path fill="currentColor"
d="M950.039 276.992l-52.8516 281.016q0 30.9375 -30.9375 30.9375h-546.562l15.4688 74.7656l496.289 1.28906q38.6719 0 38.6719 38.6719q0 37.3828 -38.6719 37.3828l-527.227 -1.28906q-30.9375 0 -37.3828 -29.6484l-127.617 -596.836l-110.859 -32.2266
q-28.3594 -7.73438 -28.3594 -32.2266q0 -7.73438 2.57812 -15.4688q7.73438 -28.3594 32.2266 -28.3594q6.44531 0 14.1797 2.57812l132.773 38.6719q21.9141 6.44531 27.0703 28.3594l27.0703 128.906h3.86719zM750.234 796.484q41.25 0 69.6094 29.6484
q29.6484 28.3594 29.6484 69.6094t-29.6484 70.8984q-28.3594 28.3594 -69.6094 28.3594t-69.6094 -28.3594q-29.6484 -29.6484 -29.6484 -70.8984t29.6484 -69.6094q28.3594 -29.6484 69.6094 -29.6484zM378.984 796.484q41.25 0 69.6094 29.6484
q28.3594 28.3594 28.3594 69.6094t-28.3594 70.8984q-28.3594 28.3594 -69.6094 28.3594t-69.6094 -28.3594q-29.6484 -29.6484 -29.6484 -70.8984t29.6484 -69.6094q28.3594 -29.6484 69.6094 -29.6484z" />
</svg>
