<?xml version="1.0" standalone="no"?>
<!DOCTYPE svg PUBLIC "-//W3C//DTD SVG 1.1//EN" "http://www.w3.org/Graphics/SVG/1.1/DTD/svg11.dtd" >
<svg xmlns="http://www.w3.org/2000/svg" xmlns:xlink="http://www.w3.org/1999/xlink" version="1.1" viewBox="-10 0 1067 1000">
   <path fill="currentColor"
d="M592.771 532.244q102.801 33.377 152.198 153.533h-415.207q50.7324 -120.156 152.198 -153.533v-297.721q-88.1152 -26.7012 -145.522 -117.486q-57.4082 -93.4551 -57.4082 -214.946q0 -32.042 4.00488 -64.084h508.662q5.34082 32.042 5.34082 64.084
q0 121.491 -58.7432 214.946q-57.4082 90.7852 -145.523 117.486v297.721zM425.888 404.077q-252.328 -49.3975 -352.459 -321.752q-50.7324 -137.513 -50.7324 -271.02v-64.083h245.653v80.1035h-166.884q6.6748 124.162 45.3916 228.298q82.7754 220.287 279.03 267.015
v81.4385zM1046.7 -214.061v20.0264q0 137.512 -50.7324 276.359q-100.131 272.354 -353.794 321.752v-81.4385q197.59 -46.7275 279.029 -267.015q38.7178 -104.136 46.7275 -228.298h-166.884v-80.1035h244.318z" />
</svg>
