<?xml version="1.0" standalone="no"?>
<!DOCTYPE svg PUBLIC "-//W3C//DTD SVG 1.1//EN" "http://www.w3.org/Graphics/SVG/1.1/DTD/svg11.dtd" >
<svg xmlns="http://www.w3.org/2000/svg" xmlns:xlink="http://www.w3.org/1999/xlink" version="1.1" viewBox="-10 0 1010 1000">
   <path fill="currentColor"
d="M551.147 805.261q99.3877 32.2686 147.145 148.436h-401.421q49.0479 -116.167 147.145 -148.436v-287.836q-85.1885 -25.8145 -140.69 -113.585q-55.502 -90.3525 -55.502 -207.81q0 -30.9785 3.87207 -61.9561h491.773q5.16211 30.9775 5.16211 61.9561
q0 117.457 -56.792 207.81q-55.502 87.7705 -140.691 113.585v287.836zM389.805 681.35q-243.95 -47.7578 -340.756 -311.069q-49.0488 -132.946 -49.0488 -262.021v-61.9561h237.497v77.4443h-161.343q6.45312 120.039 43.8848 220.718q80.0264 212.973 269.766 258.148
v78.7354zM990 83.7354v19.3613q0 132.946 -49.0479 267.184q-96.8057 263.312 -342.047 311.069v-78.7354q191.03 -45.1758 269.765 -258.148q37.4316 -100.679 45.1768 -220.718h-161.343v-77.4443h236.206z" />
</svg>
