<?xml version="1.0" standalone="no"?>
<!DOCTYPE svg PUBLIC "-//W3C//DTD SVG 1.1//EN" "http://www.w3.org/Graphics/SVG/1.1/DTD/svg11.dtd" >
<svg xmlns="http://www.w3.org/2000/svg" xmlns:xlink="http://www.w3.org/1999/xlink" version="1.1" viewBox="-10 0 1010 1000">
   <path fill="currentColor"
d="M782.461 426.523q16.7578 -12.8906 23.2031 -30.9375q5.15625 -12.8906 5.15625 -27.0703t-6.44531 -29.6484q-11.6016 -28.3594 -41.25 -39.9609q-12.8906 -5.15625 -27.0703 -5.15625t-29.6484 6.44531q-28.3594 11.6016 -39.9609 41.25
q-5.15625 12.8906 -5.15625 25.7812q0 6.44531 1.28906 11.6016h-1.28906q0 -1.28906 -1.28906 -1.28906q-12.8906 -5.15625 -27.0703 -5.15625t-29.6484 6.44531q-28.3594 12.8906 -39.9609 41.25q-5.15625 12.8906 -5.15625 27.0703t6.44531 29.6484
q12.8906 28.3594 41.25 39.9609q14.1797 5.15625 28.3594 5.15625q19.3359 0 38.6719 -11.6016l-23.2031 56.7188l19.3359 7.73438l23.2031 -56.7188q9.02344 36.0938 43.8281 50.2734q14.1797 5.15625 27.0703 5.15625q15.4688 0 30.9375 -6.44531
q28.3594 -12.8906 38.6719 -41.25q6.44531 -14.1797 6.44531 -28.3594t-6.44531 -28.3594q-12.8906 -28.3594 -41.25 -39.9609q-1.28906 0 -9.02344 -2.57812zM843.047 742.344q-6.44531 21.9141 -27.0703 33.5156q-12.8906 6.44531 -25.7812 6.44531
q-7.73438 0 -16.7578 -2.57812l-324.844 -95.3906q-23.2031 -6.44531 -34.8047 -27.0703q-6.44531 -12.8906 -6.44531 -27.0703q0 -7.73438 2.57812 -16.7578l144.375 -485.977q6.44531 -23.2031 27.0703 -34.8047q12.8906 -6.44531 25.7812 -6.44531
q7.73438 0 16.7578 2.57812l324.844 95.3906q21.9141 6.44531 33.5156 27.0703q7.73438 12.8906 7.73438 27.0703q0 9.02344 -2.57812 16.7578zM703.828 806.797q-16.7578 12.8906 -36.0938 12.8906q-3.86719 0 -9.02344 -1.28906l-333.867 -55.4297
q-23.2031 -3.86719 -36.0938 -23.2031q-11.6016 -15.4688 -11.6016 -32.2266q0 -5.15625 1.28906 -10.3125l83.7891 -500.156q3.86719 -23.2031 21.9141 -37.3828q15.4688 -10.3125 32.2266 -10.3125q5.15625 0 10.3125 1.28906l69.6094 11.6016l-130.195 439.57
q-3.86719 14.1797 -3.86719 28.3594q0 24.4922 12.8906 47.6953q19.3359 37.3828 60.5859 48.9844zM581.367 850.625q-15.4688 7.73438 -30.9375 7.73438l-337.734 -21.9141q-24.4922 -1.28906 -39.9609 -19.3359q-12.8906 -14.1797 -12.8906 -33.5156v-6.44531
l30.9375 -507.891q1.28906 -23.2031 19.3359 -38.6719q16.7578 -14.1797 37.3828 -14.1797h3.86719l60.5859 3.86719l-78.6328 470.508q-1.28906 9.02344 -1.28906 16.7578q0 30.9375 19.3359 58.0078q24.4922 34.8047 65.7422 41.25zM350.625 890.586l-242.344 23.2031
h-3.86719q-20.625 0 -37.3828 -12.8906q-18.0469 -15.4688 -19.3359 -38.6719l-47.6953 -505.312v-6.44531q0 -19.3359 12.8906 -34.8047q14.1797 -18.0469 37.3828 -20.625l94.1016 -9.02344l-29.6484 488.555v6.44531q0 37.3828 24.4922 67.0312
q28.3594 30.9375 69.6094 33.5156z" />
</svg>
