<?xml version="1.0" standalone="no"?>
<!DOCTYPE svg PUBLIC "-//W3C//DTD SVG 1.1//EN" "http://www.w3.org/Graphics/SVG/1.1/DTD/svg11.dtd" >
<svg xmlns="http://www.w3.org/2000/svg" xmlns:xlink="http://www.w3.org/1999/xlink" version="1.1" viewBox="-10 0 1067 1000">
   <path fill="currentColor"
d="M832 141q17.333 -13.333 24 -32q5.33301 -13.333 5.33301 -28t-6.66602 -30.667q-12 -29.333 -42.667 -41.333q-13.333 -5.33301 -28 -5.33301t-30.667 6.66602q-29.333 12 -41.333 42.667q-5.33301 13.333 -5.33301 26.667q0 6.66602 1.33301 12h-1.33301
q0 -1.33398 -1.33398 -1.33398q-13.333 -5.33301 -28 -5.33301q-14.666 0 -30.666 6.66699q-29.334 13.333 -41.334 42.666q-5.33301 13.334 -5.33301 28q0 14.667 6.66699 30.667q13.333 29.333 42.666 41.333q14.667 5.33398 29.334 5.33398q20 0 40 -12l-24 58.666l20 8
l24 -58.666q9.33301 37.333 45.333 52q14.667 5.33301 28 5.33301q16 0 32 -6.66699q29.333 -13.333 40 -42.666q6.66699 -14.667 6.66699 -29.334q0 -14.666 -6.66699 -29.333q-13.333 -29.333 -42.667 -41.333q-1.33301 0 -9.33301 -2.66699zM894.667 467.667
q-6.66699 22.666 -28 34.666q-13.334 6.66699 -26.667 6.66699q-8 0 -17.333 -2.66699l-336 -98.666q-24 -6.66699 -36 -28q-6.66699 -13.334 -6.66699 -28q0 -8 2.66699 -17.334l149.333 -502.666q6.66699 -24 28 -36q13.333 -6.66699 26.667 -6.66699q8 0 17.333 2.66699
l336 98.666q22.667 6.66699 34.667 28q8 13.334 8 28q0 9.33398 -2.66699 17.334zM750.667 534.333q-17.334 13.334 -37.334 13.334q-4 0 -9.33301 -1.33398l-345.333 -57.333q-24 -4 -37.334 -24q-12 -16 -12 -33.333q0 -5.33398 1.33398 -10.667l86.666 -517.333
q4 -24 22.667 -38.667q16 -10.667 33.333 -10.667q5.33398 0 10.667 1.33398l72 12l-134.667 454.666q-4 14.667 -4 29.334q0 25.333 13.334 49.333q20 38.667 62.666 50.667zM624 579.667q-16 8 -32 8l-349.333 -22.667q-25.334 -1.33301 -41.334 -20
q-13.333 -14.667 -13.333 -34.667v-6.66602l32 -525.334q1.33301 -24 20 -40q17.333 -14.666 38.667 -14.666h4l62.666 4l-81.333 486.666q-1.33301 9.33398 -1.33301 17.334q0 32 20 60q25.333 36 68 42.666zM385.333 621l-250.666 24h-4q-21.334 0 -38.667 -13.333
q-18.667 -16 -20 -40l-49.333 -522.667v-6.66699q0 -20 13.333 -36q14.667 -18.666 38.667 -21.333l97.333 -9.33301l-30.667 505.333v6.66699q0 38.666 25.334 69.333q29.333 32 72 34.667z" />
</svg>
