<?xml version="1.0" standalone="no"?>
<!DOCTYPE svg PUBLIC "-//W3C//DTD SVG 1.1//EN" "http://www.w3.org/Graphics/SVG/1.1/DTD/svg11.dtd" >
<svg xmlns="http://www.w3.org/2000/svg" xmlns:xlink="http://www.w3.org/1999/xlink" version="1.1" viewBox="-10 0 1034 1000">
   <path fill="currentColor"
d="M742.667 -155h-418.667v650.667h418.667v-650.667zM533.333 682.333q29.334 0 49.334 -20q20 -21.333 20 -49.333q0 -29.333 -20 -49.333q-20 -21.334 -49.334 -21.334q-29.333 0 -49.333 21.334q-20 20 -20 49.333q0 28 20 49.333q20 20 49.333 20zM720 -295
q48 0 81.333 34.667q34.667 33.333 34.667 81.333v792q0 48 -34.667 81.333q-33.333 34.667 -81.333 34.667h-373.333q-48 0 -81.334 -34.667q-34.666 -33.333 -34.666 -81.333v-792q0 -48 34.666 -81.333q33.334 -34.667 81.334 -34.667h373.333z" />
</svg>
