<?xml version="1.0" standalone="no"?>
<!DOCTYPE svg PUBLIC "-//W3C//DTD SVG 1.1//EN" "http://www.w3.org/Graphics/SVG/1.1/DTD/svg11.dtd" >
<svg xmlns="http://www.w3.org/2000/svg" xmlns:xlink="http://www.w3.org/1999/xlink" version="1.1" viewBox="-10 0 776 1000">
   <path fill="currentColor"
d="M495 140.352h-404.766v629.062h404.766v-629.062zM292.617 949.883q28.3594 0 47.6953 -19.3359q19.3359 -20.625 19.3359 -47.6953q0 -28.3594 -19.3359 -47.6953q-19.3359 -20.625 -47.6953 -20.625t-47.6953 20.625q-19.3359 19.3359 -19.3359 47.6953
q0 27.0703 19.3359 47.6953q19.3359 19.3359 47.6953 19.3359zM473.086 5q46.4062 0 78.6328 33.5156q33.5156 32.2266 33.5156 78.6328v765.703q0 46.4062 -33.5156 78.6328q-32.2266 33.5156 -78.6328 33.5156h-360.938q-46.4062 0 -78.6328 -33.5156
q-33.5156 -32.2266 -33.5156 -78.6328v-765.703q0 -46.4062 33.5156 -78.6328q32.2266 -33.5156 78.6328 -33.5156h360.938z" />
</svg>
