<?xml version="1.0" standalone="no"?>
<!DOCTYPE svg PUBLIC "-//W3C//DTD SVG 1.1//EN" "http://www.w3.org/Graphics/SVG/1.1/DTD/svg11.dtd" >
<svg xmlns="http://www.w3.org/2000/svg" xmlns:xlink="http://www.w3.org/1999/xlink" version="1.1" viewBox="-10 0 1066 1000">
   <path fill="currentColor"
d="M533.333 -295q212 0 361.334 149.333q150.666 150.667 150.666 362.667t-150.666 361.333q-149.334 150.667 -361.334 150.667t-361.333 -150.667q-150.667 -149.333 -150.667 -361.333t150.667 -362.667q149.333 -149.333 361.333 -149.333zM680 69
q0 -73.333 -37.333 -113.333q-38.667 -40 -112 -40q-73.334 0 -112 40q-37.334 40 -37.334 113.333v317.333q0 73.334 37.334 113.334q38.666 40 112 40q73.333 0 112 -40q37.333 -40 37.333 -113.334v-81.333h-94.667v88q0 58.667 -52 58.667t-52 -58.667v-330.667
q0 -60 52 -60t52 60v65.334h94.667v-58.667z" />
</svg>
