<?xml version="1.0" standalone="no"?>
<!DOCTYPE svg PUBLIC "-//W3C//DTD SVG 1.1//EN" "http://www.w3.org/Graphics/SVG/1.1/DTD/svg11.dtd" >
<svg xmlns="http://www.w3.org/2000/svg" xmlns:xlink="http://www.w3.org/1999/xlink" version="1.1" viewBox="-10 0 1010 1000">
   <path fill="currentColor"
d="M495 5q204.961 0 349.336 144.375q145.664 145.664 145.664 350.625t-145.664 349.336q-144.375 145.664 -349.336 145.664t-349.336 -145.664q-145.664 -144.375 -145.664 -349.336t145.664 -350.625q144.375 -144.375 349.336 -144.375zM636.797 356.914
q0 -70.8984 -36.0938 -109.57q-37.3828 -38.6719 -108.281 -38.6719t-108.281 38.6719q-36.0938 38.6719 -36.0938 109.57v306.797q0 70.8984 36.0938 109.57q37.3828 38.6719 108.281 38.6719t108.281 -38.6719q36.0938 -38.6719 36.0938 -109.57v-78.6328h-91.5234
v85.0781q0 56.7188 -50.2734 56.7188t-50.2734 -56.7188v-319.688q0 -58.0078 50.2734 -58.0078t50.2734 58.0078v63.1641h91.5234v-56.7188z" />
</svg>
