<?xml version="1.0" standalone="no"?>
<!DOCTYPE svg PUBLIC "-//W3C//DTD SVG 1.1//EN" "http://www.w3.org/Graphics/SVG/1.1/DTD/svg11.dtd" >
<svg xmlns="http://www.w3.org/2000/svg" xmlns:xlink="http://www.w3.org/1999/xlink" version="1.1" viewBox="-10 0 1044 1000">
   <path fill="currentColor"
d="M1024 -13.667l-54.667 289.334q0 33.333 -32 33.333h-565.333l16 77.333l513.333 1.33398q40 0 40 38.666q0 40 -40 40l-545.333 -1.33301q-30.667 -1.33301 -37.333 -32l-133.334 -617.333l-114.666 -32q-29.334 -8 -29.334 -33.334q0 -8 2.66699 -16
q8 -29.333 33.333 -29.333q6.66699 0 14.667 2.66699l137.333 38.666q22.667 6.66699 28 30.667l28 133.333l4 -1.33301zM817.333 523.667q42.667 0 72 30.666q30.667 29.334 30.667 72q0 42.667 -30.667 72q-29.333 30.667 -72 30.667q-42.666 0 -72 -30.667
q-30.666 -29.333 -30.666 -72q0 -42.666 30.666 -72q29.334 -30.666 72 -30.666zM433.333 523.667q42.667 0 72 30.666q29.334 29.334 29.334 72q0 42.667 -29.334 72q-29.333 30.667 -72 30.667q-42.666 0 -72 -30.667q-30.666 -29.333 -30.666 -72q0 -42.666 30.666 -72
q29.334 -30.666 72 -30.666z" />
</svg>
