<?xml version="1.0" standalone="no"?>
<!DOCTYPE svg PUBLIC "-//W3C//DTD SVG 1.1//EN" "http://www.w3.org/Graphics/SVG/1.1/DTD/svg11.dtd" >
<svg xmlns="http://www.w3.org/2000/svg" xmlns:xlink="http://www.w3.org/1999/xlink" version="1.1" viewBox="-10 0 1010 1000">
   <path fill="currentColor"
d="M808.242 443.281q23.2031 -47.6953 23.2031 -86.3672q0 -59.2969 -61.875 -88.9453q-20.625 -11.6016 -42.5391 -11.6016q-16.7578 0 -33.5156 7.73438q-38.6719 14.1797 -59.2969 56.7188q-14.1797 28.3594 -14.1797 52.8516q0 15.4688 5.15625 28.3594
q12.8906 37.3828 54.1406 56.7188q19.3359 10.3125 36.0938 11.6016q-50.2734 41.25 -126.328 46.4062l12.8906 41.25q11.6016 2.57812 24.4922 2.57812q41.25 0 91.5234 -27.0703q65.7422 -36.0938 90.2344 -90.2344zM986.133 255.078q3.86719 5.15625 3.86719 9.02344
t-1.28906 6.44531l-255.234 495q-3.86719 7.73438 -10.3125 7.73438q-2.57812 0 -6.44531 -1.28906l-184.336 -96.6797l-18.0469 -9.02344l-11.6016 -5.15625l41.25 -50.2734q1.28906 -2.57812 3.86719 -3.86719q6.44531 -7.73438 10.3125 -15.4688
q3.86719 -6.44531 6.44531 -12.8906q5.15625 -15.4688 5.15625 -32.2266q0 -30.9375 -24.4922 -52.8516q-9.02344 -11.6016 -21.9141 -16.7578q-18.0469 -9.02344 -38.6719 -9.02344h-3.86719q-5.15625 0 -9.02344 1.28906l12.8906 -25.7812l176.602 -342.891
q3.86719 -7.73438 10.3125 -7.73438q3.86719 0 7.73438 2.57812l50.2734 27.0703l14.1797 6.44531l12.8906 7.73438l226.875 117.305q1.28906 1.28906 2.57812 1.28906zM779.883 353.047q0 15.4688 -10.3125 36.0938q-16.7578 34.8047 -42.5391 34.8047
q-11.6016 0 -24.4922 -7.73438q-18.0469 -7.73438 -23.2031 -27.0703v-10.3125q0 -16.7578 7.73438 -34.8047q11.6016 -23.2031 28.3594 -32.2266q9.02344 -5.15625 18.0469 -5.15625t18.0469 5.15625q28.3594 14.1797 28.3594 41.25zM491.133 695.938
q15.4688 14.1797 16.7578 36.0938v5.15625q0 20.625 -12.8906 33.5156q-15.4688 15.4688 -37.3828 16.7578h-5.15625q-20.625 0 -37.3828 -15.4688l68.3203 -85.0781zM502.734 603.125l-25.7812 32.2266q-15.4688 19.3359 -161.133 201.094l-172.734 148.242
l-143.086 -60.5859q5.15625 -7.73438 10.3125 -87.6562q3.86719 -78.6328 36.0938 -131.484q58.0078 -97.9688 100.547 -159.844q48.9844 -72.1875 65.7422 -82.5q27.0703 -12.8906 58.0078 -12.8906q24.4922 0 54.1406 9.02344l41.25 -417.656
q1.28906 -25.7812 24.4922 -25.7812h2.57812l342.891 24.4922q10.3125 0 16.7578 7.73438q7.73438 7.73438 7.73438 18.0469v2.57812l-1.28906 37.3828l-27.0703 -14.1797l1.28906 -23.2031l-340.312 -23.2031l-29.6484 444.727l-1.28906 24.4922l-1.28906 25.7812
l-1.28906 19.3359l-52.8516 52.8516l-29.6484 2.57812h-1.28906q-30.9375 3.86719 -42.5391 25.7812q-7.73438 14.1797 -7.73438 30.9375t6.44531 33.5156q1.28906 3.86719 5.15625 6.44531q3.86719 5.15625 9.02344 5.15625h3.86719q7.73438 0 14.1797 -5.15625
q28.3594 -29.6484 86.3672 -85.0781q56.7188 -58.0078 85.0781 -86.3672l18.0469 -18.0469q14.1797 -14.1797 32.2266 -14.1797t32.2266 14.1797t14.1797 30.9375q0 10.3125 -6.44531 23.2031q-3.86719 5.15625 -7.73438 9.02344l-1.28906 1.28906z" />
</svg>
