<?xml version="1.0" standalone="no"?>
<!DOCTYPE svg PUBLIC "-//W3C//DTD SVG 1.1//EN" "http://www.w3.org/Graphics/SVG/1.1/DTD/svg11.dtd" >
<svg xmlns="http://www.w3.org/2000/svg" xmlns:xlink="http://www.w3.org/1999/xlink" version="1.1" viewBox="-10 0 1066 1000">
   <path fill="currentColor"
d="M857.333 158.333q24 -49.333 24 -89.333q0 -61.333 -64 -92q-21.333 -12 -44 -12q-17.333 0 -34.666 8q-40 14.667 -61.334 58.667q-14.666 29.333 -14.666 54.666q0 16 5.33301 29.334q13.333 38.666 56 58.666q20 10.667 37.333 12q-52 42.667 -130.666 48
l13.333 42.667q12 2.66699 25.333 2.66699q42.667 0 94.667 -28q68 -37.334 93.333 -93.334zM1041.33 -36.333q4 5.33301 4 9.33301t-1.33301 6.66699l-264 512q-4 8 -10.667 8q-2.66602 0 -6.66602 -1.33398l-190.667 -100l-18.667 -9.33301l-12 -5.33301l42.667 -52
q1.33301 -2.66699 4 -4q6.66699 -8 10.667 -16q4 -6.66699 6.66602 -13.334q5.33398 -16 5.33398 -33.333q0 -32 -25.334 -54.667q-9.33301 -12 -22.666 -17.333q-18.667 -9.33301 -40 -9.33301h-4q-5.33398 0 -9.33398 1.33301l13.334 -26.667l182.666 -354.666
q4 -8 10.667 -8q4 0 8 2.66602l52 28l14.667 6.66699l13.333 8l234.667 121.333q1.33301 1.33398 2.66602 1.33398zM828 65q0 16 -10.667 37.333q-17.333 36 -44 36q-12 0 -25.333 -8q-18.667 -8 -24 -28v-10.666q0 -17.334 8 -36q12 -24 29.333 -33.334
q9.33398 -5.33301 18.667 -5.33301t18.667 5.33301q29.333 14.667 29.333 42.667zM529.333 419.667q16 14.666 17.334 37.333v5.33301q0 21.334 -13.334 34.667q-16 16 -38.666 17.333h-5.33398q-21.333 0 -38.666 -16l70.666 -88zM541.333 323.667l-26.666 33.333
q-16 20 -166.667 208l-178.667 153.333l-148 -62.666q5.33398 -8 10.667 -90.667q4 -81.333 37.333 -136q60 -101.333 104 -165.333q50.667 -74.667 68 -85.334q28 -13.333 60 -13.333q25.334 0 56 9.33301l42.667 -432q1.33301 -26.666 25.333 -26.666h2.66699
l354.667 25.333q10.666 0 17.333 8q8 8 8 18.667v2.66602l-1.33301 38.667l-28 -14.667l1.33301 -24l-352 -24l-30.667 460l-1.33301 25.334l-1.33301 26.666l-1.33398 20l-54.666 54.667l-30.667 2.66699h-1.33301q-32 4 -44 26.666q-8 14.667 -8 32
q0 17.334 6.66602 34.667q1.33398 4 5.33398 6.66699q4 5.33301 9.33301 5.33301h4q8 0 14.667 -5.33301q29.333 -30.667 89.333 -88q58.667 -60 88 -89.334l18.667 -18.666q14.666 -14.667 33.333 -14.667t33.333 14.667q14.667 14.666 14.667 32q0 10.666 -6.66699 24
q-4 5.33301 -8 9.33301l-1.33301 1.33301z" />
</svg>
