<?xml version="1.0" standalone="no"?>
<!DOCTYPE svg PUBLIC "-//W3C//DTD SVG 1.1//EN" "http://www.w3.org/Graphics/SVG/1.1/DTD/svg11.dtd" >
<svg xmlns="http://www.w3.org/2000/svg" xmlns:xlink="http://www.w3.org/1999/xlink" version="1.1" viewBox="-10 0 1066 1000">
   <path fill="currentColor"
d="M636 -31q30.667 38.667 30.667 96q0 9.33301 -1.33398 18.667q6.66699 2.66602 6.66699 24q0 6.66602 -1.33301 16q-4 38.666 -22.667 68q-9.33301 42.666 -44 77.333q-36 36 -70.667 36q-34.666 0 -70.666 -36q-34.667 -34.667 -44 -77.333q-18.667 -29.334 -22.667 -68
v-16q0 -21.334 5.33301 -24q-1.33301 -9.33398 -1.33301 -18.667q0 -57.333 30.667 -96q36 -46.667 102.666 -46.667q66.667 0 102.667 46.667zM226.667 379.667q38.666 -52 102.666 -70.667q74.667 -21.333 96 -38.667q48 65.334 108 65.334q61.334 -1.33398 108 -66.667
q22.667 18.667 66.667 30.667q52 14.666 72 26.666q57.333 30.667 94.667 113.334q-164 72 -341.334 72q-177.333 0 -341.333 -72q13.333 -32 34.667 -60zM880 10.333q21.333 26.667 21.333 69.334v9.33301q4 1.33301 4 13.333q0 6.66699 -1.33301 14.667
q-2.66699 26.667 -14.667 46.667q-8 29.333 -32 53.333q-24 25.333 -48 25.333t-49.333 -25.333q-24 -24 -30.667 -53.333q-12 -20 -14.666 -46.667q-1.33398 -8 -1.33398 -14.667q0 -12 4 -13.333v-10.667q0 -41.333 20 -68q25.334 -33.333 72 -33.333
q46.667 0 70.667 33.333zM652 250.333q81.333 -30.666 82.667 -32q30.666 44 72 44h2.66602q42.667 0 74.667 -45.333q16 13.333 45.333 21.333q36 10.667 49.334 18.667q40 21.333 66.666 78.667q-85.333 37.333 -177.333 46.666l-20 -30.666l-25.333 -26.667
l-33.334 -18.667l-16 -9.33301l-18.666 -5.33301l-18.667 -6.66699l-14.667 -4l-16 -4l-14.666 -5.33301l-13.334 -4l-10.666 -6.66699l-12 -8zM329.333 10.333q20 26.667 20 68v10.667q4 1.33301 4 13.333q0 6.66699 -1.33301 14.667q-2.66699 26.667 -14.667 46.667
q-6.66602 29.333 -30.666 53.333q-25.334 25.333 -49.334 25.333t-48 -25.333q-24 -24 -32 -53.333q-12 -20 -14.666 -46.667q-1.33398 -8 -1.33398 -14.667q0 -12 4 -13.333v-9.33301q0 -42.667 21.334 -69.334q24 -33.333 70.666 -33.333q46.667 0 72 33.333zM45.333 293
q26.667 -34.667 70.667 -48q52 -14.667 66.667 -26.667q32 44 73.333 44h2.66699q41.333 0 73.333 -45.333l84 33.333l-4 2.66699l-16 13.333l-16 6.66699l-20 5.33301l-24 6.66699l-24 5.33301l-24 10.667l-32 14.667l-25.333 22.666l-21.334 28
q-5.33301 6.66699 -10.666 16q-92 -9.33301 -177.334 -46.666q9.33398 -22.667 24 -42.667z" />
</svg>
