<?xml version="1.0" standalone="no"?>
<!DOCTYPE svg PUBLIC "-//W3C//DTD SVG 1.1//EN" "http://www.w3.org/Graphics/SVG/1.1/DTD/svg11.dtd" >
<svg xmlns="http://www.w3.org/2000/svg" xmlns:xlink="http://www.w3.org/1999/xlink" version="1.1" viewBox="-10 0 1010 1000">
   <path fill="currentColor"
d="M594.258 260.234q29.6484 37.3828 29.6484 92.8125q0 9.02344 -1.28906 18.0469q6.44531 2.57812 6.44531 23.2031q0 6.44531 -1.28906 15.4688q-3.86719 37.3828 -21.9141 65.7422q-9.02344 41.25 -42.5391 74.7656q-34.8047 34.8047 -68.3203 34.8047
t-68.3203 -34.8047q-33.5156 -33.5156 -42.5391 -74.7656q-18.0469 -28.3594 -21.9141 -65.7422v-15.4688q0 -20.625 5.15625 -23.2031q-1.28906 -9.02344 -1.28906 -18.0469q0 -55.4297 29.6484 -92.8125q34.8047 -45.1172 99.2578 -45.1172t99.2578 45.1172z
M198.516 657.266q37.3828 -50.2734 99.2578 -68.3203q72.1875 -20.625 92.8125 -37.3828q46.4062 63.1641 104.414 63.1641q59.2969 -1.28906 104.414 -64.4531q21.9141 18.0469 64.4531 29.6484q50.2734 14.1797 69.6094 25.7812q55.4297 29.6484 91.5234 109.57
q-158.555 69.6094 -330 69.6094t-330 -69.6094q12.8906 -30.9375 33.5156 -58.0078zM830.156 300.195q20.625 25.7812 20.625 67.0312v9.02344q3.86719 1.28906 3.86719 12.8906q0 6.44531 -1.28906 14.1797q-2.57812 25.7812 -14.1797 45.1172
q-7.73438 28.3594 -30.9375 51.5625q-23.2031 24.4922 -46.4062 24.4922t-47.6953 -24.4922q-23.2031 -23.2031 -29.6484 -51.5625q-11.6016 -19.3359 -14.1797 -45.1172q-1.28906 -7.73438 -1.28906 -14.1797q0 -11.6016 3.86719 -12.8906v-10.3125
q0 -39.9609 19.3359 -65.7422q24.4922 -32.2266 69.6094 -32.2266t68.3203 32.2266zM609.727 532.227q78.6328 -29.6484 79.9219 -30.9375q29.6484 42.5391 69.6094 42.5391h2.57812q41.25 0 72.1875 -43.8281q15.4688 12.8906 43.8281 20.625
q34.8047 10.3125 47.6953 18.0469q38.6719 20.625 64.4531 76.0547q-82.5 36.0938 -171.445 45.1172l-19.3359 -29.6484l-24.4922 -25.7812l-32.2266 -18.0469l-15.4688 -9.02344l-18.0469 -5.15625l-18.0469 -6.44531l-14.1797 -3.86719l-15.4688 -3.86719
l-14.1797 -5.15625l-12.8906 -3.86719l-10.3125 -6.44531l-11.6016 -7.73438zM297.773 300.195q19.3359 25.7812 19.3359 65.7422v10.3125q3.86719 1.28906 3.86719 12.8906q0 6.44531 -1.28906 14.1797q-2.57812 25.7812 -14.1797 45.1172
q-6.44531 28.3594 -29.6484 51.5625q-24.4922 24.4922 -47.6953 24.4922t-46.4062 -24.4922q-23.2031 -23.2031 -30.9375 -51.5625q-11.6016 -19.3359 -14.1797 -45.1172q-1.28906 -7.73438 -1.28906 -14.1797q0 -11.6016 3.86719 -12.8906v-9.02344
q0 -41.25 20.625 -67.0312q23.2031 -32.2266 68.3203 -32.2266t69.6094 32.2266zM23.2031 573.477q25.7812 -33.5156 68.3203 -46.4062q50.2734 -14.1797 64.4531 -25.7812q30.9375 42.5391 70.8984 42.5391h2.57812q39.9609 0 70.8984 -43.8281l81.2109 32.2266
l-3.86719 2.57812l-15.4688 12.8906l-15.4688 6.44531l-19.3359 5.15625l-23.2031 6.44531l-23.2031 5.15625l-23.2031 10.3125l-30.9375 14.1797l-24.4922 21.9141l-20.625 27.0703q-5.15625 6.44531 -10.3125 15.4688q-88.9453 -9.02344 -171.445 -45.1172
q9.02344 -21.9141 23.2031 -41.25z" />
</svg>
