<?xml version="1.0" standalone="no"?>
<!DOCTYPE svg PUBLIC "-//W3C//DTD SVG 1.1//EN" "http://www.w3.org/Graphics/SVG/1.1/DTD/svg11.dtd" >
<svg xmlns="http://www.w3.org/2000/svg" xmlns:xlink="http://www.w3.org/1999/xlink" version="1.1" viewBox="-10 0 1066 1000">
   <path fill="currentColor"
d="M690.667 178.333q48 -48 48 -114.666q0 -85.334 -60 -145.334t-145.334 -60q-85.333 0 -145.333 60t-60 145.334h102.667q0 -42.667 30.666 -72q29.334 -30.667 72 -30.667q42.667 0 72 30.667q30.667 29.333 30.667 72q0 42.666 -30.667 72l-62.666 64
q-60 61.333 -60 145.333v25.333h101.333q0 -84 60 -144zM584 473h-101.333v102.667h101.333v-102.667zM533.333 -295q212 0 361.334 150.667q150.666 149.333 150.666 361.333t-150.666 361.333q-149.334 150.667 -361.334 150.667t-361.333 -150.667
q-150.667 -149.333 -150.667 -361.333t150.667 -361.333q149.333 -150.667 361.333 -150.667z" />
</svg>
