<?xml version="1.0" standalone="no"?>
<!DOCTYPE svg PUBLIC "-//W3C//DTD SVG 1.1//EN" "http://www.w3.org/Graphics/SVG/1.1/DTD/svg11.dtd" >
<svg xmlns="http://www.w3.org/2000/svg" xmlns:xlink="http://www.w3.org/1999/xlink" version="1.1" viewBox="-10 0 1010 1000">
   <path fill="currentColor"
d="M647.109 462.617q46.4062 -46.4062 46.4062 -110.859q0 -82.5 -58.0078 -140.508t-140.508 -58.0078t-140.508 58.0078t-58.0078 140.508h99.2578q0 -41.25 29.6484 -69.6094q28.3594 -29.6484 69.6094 -29.6484t69.6094 29.6484q29.6484 28.3594 29.6484 69.6094
t-29.6484 69.6094l-60.5859 61.875q-58.0078 59.2969 -58.0078 140.508v24.4922h97.9688q0 -81.2109 58.0078 -139.219zM543.984 747.5h-97.9688v99.2578h97.9688v-99.2578zM495 5q204.961 0 349.336 145.664q145.664 144.375 145.664 349.336t-145.664 349.336
q-144.375 145.664 -349.336 145.664t-349.336 -145.664q-145.664 -144.375 -145.664 -349.336t145.664 -349.336q144.375 -145.664 349.336 -145.664z" />
</svg>
