<?xml version="1.0" standalone="no"?>
<!DOCTYPE svg PUBLIC "-//W3C//DTD SVG 1.1//EN" "http://www.w3.org/Graphics/SVG/1.1/DTD/svg11.dtd" >
<svg xmlns="http://www.w3.org/2000/svg" xmlns:xlink="http://www.w3.org/1999/xlink" version="1.1" viewBox="-10 0 1010 1000">
   <path fill="currentColor"
d="M324.844 5q61.875 0 61.875 61.875v264.258q0 61.875 -61.875 61.875h-262.969q-61.875 0 -61.875 -61.875v-264.258q0 -61.875 61.875 -61.875h262.969zM324.844 606.992q61.875 0 61.875 61.875v264.258q0 61.875 -61.875 61.875h-262.969q-61.875 0 -61.875 -61.875
v-264.258q0 -61.875 61.875 -61.875h262.969zM928.125 5q61.875 0 61.875 61.875v264.258q0 61.875 -61.875 61.875h-262.969q-61.875 0 -61.875 -61.875v-264.258q0 -61.875 61.875 -61.875h262.969zM928.125 606.992q61.875 0 61.875 61.875v264.258
q0 61.875 -61.875 61.875h-262.969q-61.875 0 -61.875 -61.875v-264.258q0 -61.875 61.875 -61.875h262.969z" />
</svg>
