<?xml version="1.0" standalone="no"?>
<!DOCTYPE svg PUBLIC "-//W3C//DTD SVG 1.1//EN" "http://www.w3.org/Graphics/SVG/1.1/DTD/svg11.dtd" >
<svg xmlns="http://www.w3.org/2000/svg" xmlns:xlink="http://www.w3.org/1999/xlink" version="1.1" viewBox="-10 0 1066 1000">
   <path fill="currentColor"
d="M362.667 387.667h341.333v-341.334h-341.333v341.334zM249.333 -67h568v568h-568v-568zM704 -295h113.333v113.333h-113.333v-113.333zM704 615.667h113.333v113.333h-113.333v-113.333zM932 387.667h113.333v113.333h-113.333v-113.333zM932 -67h113.333v113.333
h-113.333v-113.333zM932 615.667h113.333q0 48 -33.333 80q-32 33.333 -80 33.333v-113.333zM932 159.667h113.333v114.666h-113.333v-114.666zM476 615.667h114.667v113.333h-114.667v-113.333zM362.667 -181.667h-113.334v-113.333h113.334v113.333zM21.333 387.667
h113.334v113.333h-113.334v-113.333zM134.667 729q-48 0 -80 -33.333q-33.334 -32 -33.334 -80h113.334v113.333zM932 -295q48 0 80 33.333q33.333 32 33.333 80h-113.333v-113.333zM590.667 -181.667h-114.667v-113.333h114.667v113.333zM21.333 -67h113.334v113.333
h-113.334v-113.333zM249.333 615.667h113.334v113.333h-113.334v-113.333zM21.333 159.667h113.334v114.666h-113.334v-114.666zM21.333 -181.667q0 -48 33.334 -80q32 -33.333 80 -33.333v113.333h-113.334z" />
</svg>
