<?xml version="1.0" standalone="no"?>
<!DOCTYPE svg PUBLIC "-//W3C//DTD SVG 1.1//EN" "http://www.w3.org/Graphics/SVG/1.1/DTD/svg11.dtd" >
<svg xmlns="http://www.w3.org/2000/svg" xmlns:xlink="http://www.w3.org/1999/xlink" version="1.1" viewBox="-10 0 1010 1000">
   <path fill="currentColor"
d="M330 665h330v-330h-330v330zM220.43 225.43h549.141v549.141h-549.141v-549.141zM660 5h109.57v109.57h-109.57v-109.57zM660 885.43h109.57v109.57h-109.57v-109.57zM880.43 665h109.57v109.57h-109.57v-109.57zM880.43 225.43h109.57v109.57h-109.57v-109.57z
M880.43 885.43h109.57q0 46.4062 -32.2266 77.3438q-30.9375 32.2266 -77.3438 32.2266v-109.57zM880.43 444.57h109.57v110.859h-109.57v-110.859zM439.57 885.43h110.859v109.57h-110.859v-109.57zM330 114.57h-109.57v-109.57h109.57v109.57zM0 665h109.57v109.57
h-109.57v-109.57zM109.57 995q-46.4062 0 -77.3438 -32.2266q-32.2266 -30.9375 -32.2266 -77.3438h109.57v109.57zM880.43 5q46.4062 0 77.3438 32.2266q32.2266 30.9375 32.2266 77.3438h-109.57v-109.57zM550.43 114.57h-110.859v-109.57h110.859v109.57zM0 225.43
h109.57v109.57h-109.57v-109.57zM220.43 885.43h109.57v109.57h-109.57v-109.57zM0 444.57h109.57v110.859h-109.57v-110.859zM0 114.57q0 -46.4062 32.2266 -77.3438q30.9375 -32.2266 77.3438 -32.2266v109.57h-109.57z" />
</svg>
