<?xml version="1.0" standalone="no"?>
<!DOCTYPE svg PUBLIC "-//W3C//DTD SVG 1.1//EN" "http://www.w3.org/Graphics/SVG/1.1/DTD/svg11.dtd" >
<svg xmlns="http://www.w3.org/2000/svg" xmlns:xlink="http://www.w3.org/1999/xlink" version="1.1" viewBox="-10 0 1010 1000">
   <path fill="currentColor"
d="M496.289 343.379q55.4297 0 95.3906 39.9609q38.6719 38.6719 38.6719 95.3906v6.44531l-141.797 -141.797h7.73438zM293.906 379.473q-23.2031 47.6953 -23.2031 97.9688q0 94.1016 65.7422 159.844t158.555 65.7422q50.2734 0 99.2578 -24.4922l-69.6094 -69.6094
q-15.4688 3.86719 -29.6484 3.86719q-55.4297 0 -95.3906 -39.9609q-39.9609 -38.6719 -39.9609 -95.3906q0 -14.1797 3.86719 -28.3594zM101.836 72.6758l797.93 797.93l-56.7188 56.7188l-131.484 -131.484l-19.3359 -18.0469q-94.1016 37.3828 -197.227 37.3828
q-166.289 0 -302.93 -94.1016q-132.773 -92.8125 -192.07 -243.633q52.8516 -134.062 168.867 -224.297l-20.625 -20.625l-103.125 -101.836zM495 253.145q-42.5391 0 -82.5 15.4688l-96.6797 -96.6797q86.3672 -30.9375 179.18 -30.9375q166.289 0 302.93 94.1016
q132.773 92.8125 192.07 242.344q-48.9844 126.328 -154.688 213.984l-131.484 -131.484q16.7578 -39.9609 16.7578 -82.5q0 -92.8125 -65.7422 -158.555q-67.0312 -65.7422 -159.844 -65.7422z" />
</svg>
