<?xml version="1.0" standalone="no"?>
<!DOCTYPE svg PUBLIC "-//W3C//DTD SVG 1.1//EN" "http://www.w3.org/Graphics/SVG/1.1/DTD/svg11.dtd" >
<svg xmlns="http://www.w3.org/2000/svg" xmlns:xlink="http://www.w3.org/1999/xlink" version="1.1" viewBox="-10 0 1066 1000">
   <path fill="currentColor"
d="M534.667 55.167q57.333 0 98.666 41.333q40 40 40 98.667v6.66602l-146.666 -146.666h8zM325.333 92.5q-24 49.333 -24 101.333q0 97.334 68 165.334t164 68q52 0 102.667 -25.334l-72 -72q-16 4 -30.667 4q-57.333 0 -98.666 -41.333q-41.334 -40 -41.334 -98.667
q0 -14.666 4 -29.333zM126.667 -224.833l825.333 825.333l-58.667 58.667l-136 -136l-20 -18.667q-97.333 38.667 -204 38.667q-172 0 -313.333 -97.334q-137.333 -96 -198.667 -252q54.667 -138.666 174.667 -232l-21.333 -21.333l-106.667 -105.333zM533.333 -38.167
q-44 0 -85.333 16l-100 -100q89.333 -32 185.333 -32q172 0 313.334 97.334q137.333 96 198.666 250.666q-50.666 130.667 -160 221.334l-136 -136q17.334 -41.334 17.334 -85.334q0 -96 -68 -164q-69.334 -68 -165.334 -68z" />
</svg>
