<?xml version="1.0" standalone="no"?>
<!DOCTYPE svg PUBLIC "-//W3C//DTD SVG 1.1//EN" "http://www.w3.org/Graphics/SVG/1.1/DTD/svg11.dtd" >
<svg xmlns="http://www.w3.org/2000/svg" xmlns:xlink="http://www.w3.org/1999/xlink" version="1.1" viewBox="-10 0 1010 1000">
   <path fill="currentColor"
d="M293.906 205.449q-3.86719 11.6016 -3.86719 21.9141v507.891q0 10.3125 3.86719 21.9141h-99.2578q-21.9141 0 -21.9141 -21.9141v-507.891q0 -21.9141 21.9141 -21.9141h99.2578zM121.172 205.449q-3.86719 11.6016 -3.86719 21.9141v507.891
q0 10.3125 3.86719 21.9141h-99.2578q-21.9141 0 -21.9141 -21.9141v-507.891q0 -21.9141 21.9141 -21.9141h99.2578zM907.5 625.684l-389.297 -390.586v-7.73438q0 -21.9141 21.9141 -21.9141h345.469q21.9141 0 21.9141 21.9141v398.32zM990 802.285l-46.4062 46.4062
l-91.5234 -91.5234h-311.953q-21.9141 0 -21.9141 -21.9141v-313.242l-55.4297 -54.1406v367.383q0 10.3125 3.86719 21.9141h-99.2578q-21.9141 0 -21.9141 -21.9141v-485.977l-51.5625 -51.5625l46.4062 -46.4062l54.1406 54.1406l29.6484 29.6484l38.6719 38.6719
l55.4297 55.4297l389.297 390.586z" />
</svg>
