<?xml version="1.0" standalone="no"?>
<!DOCTYPE svg PUBLIC "-//W3C//DTD SVG 1.1//EN" "http://www.w3.org/Graphics/SVG/1.1/DTD/svg11.dtd" >
<svg xmlns="http://www.w3.org/2000/svg" xmlns:xlink="http://www.w3.org/1999/xlink" version="1.1" viewBox="-10 0 1066 1000">
   <path fill="currentColor"
d="M325.333 -87.5q-4 12 -4 22.667v525.333q0 10.667 4 22.667h-102.666q-22.667 0 -22.667 -22.667v-525.333q0 -22.667 22.667 -22.667h102.666zM146.667 -87.5q-4 12 -4 22.667v525.333q0 10.667 4 22.667h-102.667q-22.667 0 -22.667 -22.667v-525.333
q0 -22.667 22.667 -22.667h102.667zM960 347.167l-402.667 -404v-8q0 -22.667 22.667 -22.667h357.333q22.667 0 22.667 22.667v412zM1045.33 529.833l-48 48l-94.666 -94.666h-322.667q-22.667 0 -22.667 -22.667v-324l-57.333 -56v380q0 10.667 4 22.667h-102.667
q-22.666 0 -22.666 -22.667v-502.667l-53.334 -53.333l48 -48l56 56l30.667 30.667l40 40l57.333 57.333l402.667 404z" />
</svg>
