<?xml version="1.0" standalone="no"?>
<!DOCTYPE svg PUBLIC "-//W3C//DTD SVG 1.1//EN" "http://www.w3.org/Graphics/SVG/1.1/DTD/svg11.dtd" >
<svg xmlns="http://www.w3.org/2000/svg" xmlns:xlink="http://www.w3.org/1999/xlink" version="1.1" viewBox="-10 0 1010 1000">
   <path fill="currentColor"
d="M663.867 470.352l-388.008 -388.008h353.203q34.8047 0 34.8047 34.8047v353.203zM586.523 728.164l-45.1172 -114.727l-127.617 -128.906l18.0469 47.6953h-162.422l52.8516 -139.219l-55.4297 -54.1406l-152.109 389.297h81.2109l43.8281 -117.305h220.43
l45.1172 117.305h81.2109zM990 929.258l-65.7422 65.7422l-260.391 -260.391v95.3906q0 34.8047 -34.8047 34.8047h-556.875q-34.8047 0 -34.8047 -34.8047v-712.852l1.28906 -7.73438l-38.6719 -38.6719l65.7422 -65.7422l77.3438 77.3438h1.28906l41.25 41.25
l118.594 119.883l152.109 150.82h-1.28906l208.828 207.539v1.28906z" />
</svg>
