<?xml version="1.0" standalone="no"?>
<!DOCTYPE svg PUBLIC "-//W3C//DTD SVG 1.1//EN" "http://www.w3.org/Graphics/SVG/1.1/DTD/svg11.dtd" >
<svg xmlns="http://www.w3.org/2000/svg" xmlns:xlink="http://www.w3.org/1999/xlink" version="1.1" viewBox="-10 0 1066 1000">
   <path fill="currentColor"
d="M708 186.333l-401.333 -401.333h365.333q36 0 36 36v365.333zM628 453l-46.667 -118.667l-132 -133.333l18.667 49.333h-168l54.667 -144l-57.334 -56l-157.333 402.667h84l45.333 -121.333h228l46.667 121.333h84zM1045.33 661l-68 68l-269.333 -269.333v98.666
q0 36 -36 36h-576q-36 0 -36 -36v-737.333l1.33301 -8l-40 -40l68 -68l80 80h1.33398l42.666 42.667l122.667 124l157.333 156h-1.33301l216 214.666v1.33398z" />
</svg>
