<?xml version="1.0" standalone="no"?>
<!DOCTYPE svg PUBLIC "-//W3C//DTD SVG 1.1//EN" "http://www.w3.org/Graphics/SVG/1.1/DTD/svg11.dtd" >
<svg xmlns="http://www.w3.org/2000/svg" xmlns:xlink="http://www.w3.org/1999/xlink" version="1.1" viewBox="-10 0 1034 1000">
   <path fill="currentColor"
d="M480 461q-1.33301 -5.33301 -1.33301 -14.667q0 -42.666 106.666 -162.666q108 -120 108 -237.334q0 -169.333 -160 -169.333q-161.333 0 -161.333 169.333v65.334h102.667v-72q0 -66.667 54.666 -66.667q56 0 56 77.333q0 96 -106.666 210.667
q-106.667 113.333 -106.667 213.333v82.667h310.667v-96h-202.667zM860 -295q17.333 0 29.333 12t12 28v944q0 16 -12 28t-29.333 12h-654.667q-17.333 0 -29.333 -12t-12 -28v-944q0 -16 12 -28t29.333 -12h654.667z" />
</svg>
