<?xml version="1.0" standalone="no"?>
<!DOCTYPE svg PUBLIC "-//W3C//DTD SVG 1.1//EN" "http://www.w3.org/Graphics/SVG/1.1/DTD/svg11.dtd" >
<svg xmlns="http://www.w3.org/2000/svg" xmlns:xlink="http://www.w3.org/1999/xlink" version="1.1" viewBox="-10 0 841 1000">
   <path fill="currentColor"
d="M305.508 735.898q-1.28906 -5.15625 -1.28906 -14.1797q0 -41.25 103.125 -157.266q104.414 -116.016 104.414 -229.453q0 -163.711 -154.688 -163.711q-155.977 0 -155.977 163.711v63.1641h99.2578v-69.6094q0 -64.4531 52.8516 -64.4531q54.1406 0 54.1406 74.7656
q0 92.8125 -103.125 203.672q-103.125 109.57 -103.125 206.25v79.9219h300.352v-92.8125h-195.938zM672.891 5q16.7578 0 28.3594 11.6016t11.6016 27.0703v912.656q0 15.4688 -11.6016 27.0703t-28.3594 11.6016h-632.93q-16.7578 0 -28.3594 -11.6016t-11.6016 -27.0703
v-912.656q0 -15.4688 11.6016 -27.0703t28.3594 -11.6016h632.93z" />
</svg>
