<?xml version="1.0" standalone="no"?>
<!DOCTYPE svg PUBLIC "-//W3C//DTD SVG 1.1//EN" "http://www.w3.org/Graphics/SVG/1.1/DTD/svg11.dtd" >
<svg xmlns="http://www.w3.org/2000/svg" xmlns:xlink="http://www.w3.org/1999/xlink" version="1.1" viewBox="-10 0 1066 1000">
   <path fill="currentColor"
d="M551.282 187.039l115.849 115.849l-115.849 117.182v-97.207h-115.85v-38.6162h115.85v-97.207zM515.329 245.629l-115.85 -117.181l115.85 -115.849v97.207h115.849v38.6162h-115.849v97.2061zM332.899 -31.3438q7.99023 0 13.3164 5.32715
q6.6582 5.32617 6.6582 13.3154v460.733q0 7.99023 -6.6582 13.3164q-5.32617 5.32617 -13.3164 5.32617h-292.951q-7.99023 0 -13.3164 -5.32617t-5.32617 -13.3164v-460.733q0 -7.98926 5.32617 -13.3154q5.32617 -5.32715 13.3164 -5.32715h292.951zM1026.66 -31.3438
q7.98926 0 13.3164 5.32715q5.32617 5.32617 5.32617 13.3154v460.733q0 7.99023 -5.32617 13.3164q-5.32715 5.32617 -13.3164 5.32617h-292.952q-7.98926 0 -14.6475 -5.32617q-5.32617 -5.32617 -5.32617 -13.3164v-460.733q0 -7.98926 5.32617 -13.3154
q6.6582 -5.32715 14.6475 -5.32715h292.952z" />
</svg>
