<?xml version="1.0" standalone="no"?>
<!DOCTYPE svg PUBLIC "-//W3C//DTD SVG 1.1//EN" "http://www.w3.org/Graphics/SVG/1.1/DTD/svg11.dtd" >
<svg xmlns="http://www.w3.org/2000/svg" xmlns:xlink="http://www.w3.org/1999/xlink" version="1.1" viewBox="-10 0 1010 1000">
   <path fill="currentColor"
d="M512.379 470.391l112.003 112.002l-112.003 113.29v-93.9785h-112.002v-37.335h112.002v-93.9785zM477.62 527.035l-112.003 -113.29l112.003 -112.003v93.9795h112.002v37.334h-112.002v93.9795zM301.248 259.259q7.72461 0 12.874 5.14941
q6.43652 5.14941 6.43652 12.874v445.436q0 7.72461 -6.43652 12.874q-5.14941 5.14941 -12.874 5.14941h-283.225q-7.72461 0 -12.874 -5.14941t-5.14941 -12.874v-445.436q0 -7.72461 5.14941 -12.874t12.874 -5.14941h283.225zM971.977 259.259q7.72363 0 12.873 5.14941
q5.15039 5.14941 5.15039 12.874v445.436q0 7.72461 -5.15039 12.874q-5.14941 5.14941 -12.873 5.14941h-283.226q-7.72461 0 -14.1611 -5.14941q-5.14941 -5.14941 -5.14941 -12.874v-445.436q0 -7.72461 5.14941 -12.874q6.43652 -5.14941 14.1611 -5.14941h283.226z" />
</svg>
