<?xml version="1.0" standalone="no"?>
<!DOCTYPE svg PUBLIC "-//W3C//DTD SVG 1.1//EN" "http://www.w3.org/Graphics/SVG/1.1/DTD/svg11.dtd" >
<svg xmlns="http://www.w3.org/2000/svg" xmlns:xlink="http://www.w3.org/1999/xlink" version="1.1" viewBox="-10 0 1010 1000">
   <path fill="currentColor"
d="M785.039 717.852q0 10.3125 1.28906 14.1797h194.648v91.5234h-297.773v-78.6328q0 -94.1016 101.836 -203.672q51.5625 -54.1406 69.6094 -86.3672q32.2266 -52.8516 32.2266 -113.438q0 -73.4766 -52.8516 -73.4766q-54.1406 0 -54.1406 63.1641v68.3203h-96.6797
v-61.875q0 -77.3438 38.6719 -118.594q38.6719 -42.5391 114.727 -42.5391q74.7656 0 114.727 42.5391q38.6719 41.25 38.6719 118.594q0 112.148 -103.125 226.875q-67.0312 74.7656 -69.6094 78.6328q-32.2266 41.25 -32.2266 74.7656zM654.844 436.836l-91.5234 91.5234
l91.5234 91.5234l-60.5859 60.5859l-90.2344 -91.5234l-91.5234 91.5234l-59.2969 -60.5859l90.2344 -91.5234l-90.2344 -91.5234l59.2969 -60.5859l91.5234 91.5234l90.2344 -91.5234zM251.367 686.914q-86.3672 0 -155.977 -23.2031q-68.3203 -23.2031 -95.3906 -58.0078
v-74.7656q27.0703 36.0938 95.3906 58.0078q69.6094 23.2031 155.977 23.2031q9.02344 0 29.6484 -1.28906l-9.02344 9.02344l60.5859 60.5859q-39.9609 6.44531 -81.2109 6.44531zM412.5 761.68l91.5234 -91.5234v67.0312q-27.0703 36.0938 -95.3906 59.2969
q-70.8984 24.4922 -157.266 24.4922t-155.977 -23.2031q-68.3203 -21.9141 -95.3906 -58.0078v-74.7656q27.0703 36.0938 95.3906 58.0078q69.6094 23.2031 155.977 23.2031q68.3203 0 130.195 -15.4688zM251.367 554.141q-86.3672 0 -155.977 -21.9141
q-68.3203 -23.2031 -95.3906 -59.2969v-73.4766q27.0703 36.0938 95.3906 58.0078q69.6094 23.2031 155.977 23.2031q27.0703 0 60.5859 -3.86719l50.2734 51.5625l-18.0469 18.0469q-46.4062 7.73438 -92.8125 7.73438zM251.367 421.367q-86.3672 0 -155.977 -21.9141
q-68.3203 -23.2031 -95.3906 -59.2969v-78.6328q27.0703 -36.0938 95.3906 -59.2969q69.6094 -21.9141 155.977 -21.9141t157.266 23.2031q68.3203 23.2031 95.3906 60.5859v73.4766q-9.02344 11.6016 -24.4922 24.4922l-67.0312 -67.0312l-123.75 125.039
q-21.9141 1.28906 -37.3828 1.28906z" />
</svg>
