<?xml version="1.0" standalone="no"?>
<!DOCTYPE svg PUBLIC "-//W3C//DTD SVG 1.1//EN" "http://www.w3.org/Graphics/SVG/1.1/DTD/svg11.dtd" >
<svg xmlns="http://www.w3.org/2000/svg" xmlns:xlink="http://www.w3.org/1999/xlink" version="1.1" viewBox="-10 0 1066 1000">
   <path fill="currentColor"
d="M833.333 442.333q0 10.667 1.33398 14.667h201.333v94.667h-308v-81.334q0 -97.333 105.333 -210.666q53.334 -56 72 -89.334q33.334 -54.666 33.334 -117.333q0 -76 -54.667 -76q-56 0 -56 65.333v70.667h-100v-64q0 -80 40 -122.667q40 -44 118.667 -44
q77.333 0 118.666 44q40 42.667 40 122.667q0 116 -106.666 234.667q-69.334 77.333 -72 81.333q-33.334 42.667 -33.334 77.333zM698.667 151.667l-94.667 94.666l94.667 94.667l-62.667 62.667l-93.333 -94.667l-94.667 94.667l-61.333 -62.667l93.333 -94.667
l-93.333 -94.666l61.333 -62.667l94.667 94.667l93.333 -94.667zM281.333 410.333q-89.333 0 -161.333 -24q-70.667 -24 -98.667 -60v-77.333q28 37.333 98.667 60q72 24 161.333 24q9.33398 0 30.667 -1.33301l-9.33301 9.33301l62.666 62.667q-41.333 6.66602 -84 6.66602
zM448 487.667l94.667 -94.667v69.333q-28 37.334 -98.667 61.334q-73.333 25.333 -162.667 25.333q-89.333 0 -161.333 -24q-70.667 -22.667 -98.667 -60v-77.333q28 37.333 98.667 60q72 24 161.333 24q70.667 0 134.667 -16zM281.333 273q-89.333 0 -161.333 -22.667
q-70.667 -24 -98.667 -61.333v-76q28 37.333 98.667 60q72 24 161.333 24q28 0 62.667 -4l52 53.333l-18.667 18.667q-48 8 -96 8zM281.333 135.667q-89.333 0 -161.333 -22.667q-70.667 -24 -98.667 -61.333v-81.334q28 -37.333 98.667 -61.333q72 -22.667 161.333 -22.667
q89.334 0 162.667 24q70.667 24 98.667 62.667v76q-9.33398 12 -25.334 25.333l-69.333 -69.333l-128 129.333q-22.667 1.33398 -38.667 1.33398z" />
</svg>
