<?xml version="1.0" standalone="no"?>
<!DOCTYPE svg PUBLIC "-//W3C//DTD SVG 1.1//EN" "http://www.w3.org/Graphics/SVG/1.1/DTD/svg11.dtd" >
<svg xmlns="http://www.w3.org/2000/svg" xmlns:xlink="http://www.w3.org/1999/xlink" version="1.1" viewBox="-10 0 903 1000">
   <path fill="currentColor"
d="M485.977 546.406q43.8281 -3.86719 68.3203 -11.6016h2.57812q5.15625 0 5.15625 6.44531v5.15625q0 45.1172 -42.5391 59.2969q-14.1797 3.86719 -37.3828 5.15625q-38.6719 -2.57812 -54.1406 -30.9375q-9.02344 -18.0469 -29.6484 -18.0469h-2.57812
q-19.3359 0 -28.3594 16.7578q-18.0469 32.2266 -55.4297 32.2266h-10.3125q-20.625 -2.57812 -34.8047 -10.3125q-32.2266 -15.4688 -32.2266 -50.2734v-10.3125q0 -5.15625 3.86719 -5.15625h1.28906q42.5391 11.6016 144.375 11.6016h101.836zM391.875 831.289
q6.44531 3.86719 6.44531 11.6016q0 2.57812 -1.28906 6.44531q-1.28906 7.73438 -14.1797 55.4297q-114.727 -58.0078 -121.172 -61.875q-78.6328 -39.9609 -125.039 -52.8516q36.0938 -33.5156 78.6328 -70.8984q-162.422 -46.4062 -215.273 -48.9844
q0 -1.28906 3.86719 -3.86719q15.4688 -14.1797 58.0078 -51.5625q36.0938 -33.5156 58.0078 -51.5625q3.86719 -3.86719 9.02344 -3.86719h2.57812q23.2031 3.86719 58.0078 9.02344q7.73438 1.28906 10.3125 9.02344q64.4531 152.109 192.07 253.945zM837.891 667.578
q-172.734 30.9375 -238.477 63.1641q18.0469 7.73438 47.6953 23.2031q32.2266 15.4688 46.4062 21.9141q-208.828 46.4062 -300.352 219.141q-1.28906 -14.1797 -1.28906 -28.3594q0 -43.8281 16.7578 -91.5234q33.5156 -92.8125 125.039 -179.18
q24.4922 -23.2031 51.5625 -45.1172q6.44531 -5.15625 7.73438 -11.6016q10.3125 -38.6719 10.3125 -60.5859v-5.15625q0 -5.15625 3.86719 -5.15625q10.3125 -1.28906 73.4766 -10.3125q5.15625 0 9.02344 2.57812q51.5625 37.3828 148.242 106.992zM246.211 253.789
q-10.3125 -2.57812 -10.3125 -9.02344v-1.28906q19.3359 -114.727 36.0938 -175.312q7.73438 -29.6484 18.0469 -47.6953q7.73438 -14.1797 18.0469 -14.1797q7.73438 0 15.4688 5.15625q6.44531 3.86719 19.3359 18.0469q15.4688 19.3359 23.2031 24.4922
q10.3125 6.44531 20.625 6.44531t19.3359 -5.15625t33.5156 -28.3594q15.4688 -14.1797 21.9141 -18.0469t11.6016 -3.86719q10.3125 0 16.7578 11.6016q9.02344 15.4688 18.0469 50.2734q15.4688 56.7188 38.6719 179.18v1.28906q0 3.86719 -5.15625 6.44531
q-34.8047 10.3125 -76.0547 14.1797q-24.4922 2.57812 -42.5391 2.57812h-11.6016q-74.7656 0 -165 -16.7578zM28.3594 423.945q-19.3359 -10.3125 -19.3359 -19.3359q0 -10.3125 18.0469 -20.625q33.5156 -19.3359 103.125 -37.3828q-2.57812 0 91.5234 -23.2031
q3.86719 -1.28906 7.73438 -1.28906t6.44531 1.28906q37.3828 15.4688 103.125 21.9141q29.6484 2.57812 59.2969 2.57812t58.0078 -2.57812q67.0312 -6.44531 104.414 -21.9141q3.86719 -1.28906 6.44531 -1.28906h3.86719q119.883 28.3594 175.312 50.2734
q20.625 7.73438 32.2266 16.7578q9.02344 6.44531 9.02344 14.1797q0 6.44531 -9.02344 12.8906q-16.7578 12.8906 -54.1406 24.4922q-55.4297 18.0469 -136.641 29.6484q-95.3906 14.1797 -197.227 14.1797q-159.844 -2.57812 -291.328 -34.8047
q-46.4062 -11.6016 -70.8984 -25.7812z" />
</svg>
