<?xml version="1.0" standalone="no"?>
<!DOCTYPE svg PUBLIC "-//W3C//DTD SVG 1.1//EN" "http://www.w3.org/Graphics/SVG/1.1/DTD/svg11.dtd" >
<svg xmlns="http://www.w3.org/2000/svg" xmlns:xlink="http://www.w3.org/1999/xlink" version="1.1" viewBox="-10 0 1034 1000">
   <path fill="currentColor"
d="M602.667 265q45.333 -4 70.666 -12h2.66699q5.33301 0 5.33301 6.66699v5.33301q0 46.667 -44 61.333q-14.666 4 -38.666 5.33398q-40 -2.66699 -56 -32q-9.33398 -18.667 -30.667 -18.667h-2.66699q-20 0 -29.333 17.333q-18.667 33.334 -57.333 33.334h-10.667
q-21.333 -2.66699 -36 -10.667q-33.333 -16 -33.333 -52v-10.667q0 -5.33301 4 -5.33301h1.33301q44 12 149.333 12h105.334zM505.333 559.667q6.66699 4 6.66699 12q0 2.66602 -1.33301 6.66602q-1.33398 8 -14.667 57.334q-118.667 -60 -125.333 -64
q-81.334 -41.334 -129.334 -54.667q37.334 -34.667 81.334 -73.333q-168 -48 -222.667 -50.667q0 -1.33301 4 -4q16 -14.667 60 -53.333q37.333 -34.667 60 -53.334q4 -4 9.33301 -4h2.66699q24 4 60 9.33398q8 1.33301 10.667 9.33301q66.666 157.333 198.666 262.667z
M966.667 390.333q-178.667 32 -246.667 65.334q18.667 8 49.333 24q33.334 16 48 22.666q-216 48 -310.666 226.667q-1.33398 -14.667 -1.33398 -29.333q0 -45.334 17.334 -94.667q34.666 -96 129.333 -185.333q25.333 -24 53.333 -46.667q6.66699 -5.33301 8 -12
q10.667 -40 10.667 -62.667v-5.33301q0 -5.33301 4 -5.33301q10.667 -1.33398 76 -10.667q5.33301 0 9.33301 2.66699q53.334 38.666 153.334 110.666zM354.667 -37.667q-10.667 -2.66602 -10.667 -9.33301v-1.33301q20 -118.667 37.333 -181.334q8 -30.666 18.667 -49.333
q8 -14.667 18.667 -14.667q8 0 16 5.33398q6.66602 4 20 18.666q16 20 24 25.334q10.666 6.66602 21.333 6.66602t20 -5.33301t34.667 -29.333q16 -14.667 22.666 -18.667q6.66699 -4 12 -4q10.667 0 17.334 12q9.33301 16 18.666 52q16 58.667 40 185.333v1.33398
q0 4 -5.33301 6.66602q-36 10.667 -78.667 14.667q-25.333 2.66699 -44 2.66699h-12q-77.333 0 -170.666 -17.334zM129.333 138.333q-20 -10.666 -20 -20q0 -10.666 18.667 -21.333q34.667 -20 106.667 -38.667q-2.66699 0 94.666 -24q4 -1.33301 8 -1.33301
t6.66699 1.33301q38.667 16 106.667 22.667q30.666 2.66699 61.333 2.66699t60 -2.66699q69.333 -6.66699 108 -22.667q4 -1.33301 6.66699 -1.33301h4q124 29.333 181.333 52q21.333 8 33.333 17.333q9.33398 6.66699 9.33398 14.667q0 6.66699 -9.33398 13.333
q-17.333 13.334 -56 25.334q-57.333 18.666 -141.333 30.666q-98.667 14.667 -204 14.667q-165.333 -2.66699 -301.333 -36q-48 -12 -73.334 -26.667z" />
</svg>
