<?xml version="1.0" standalone="no"?>
<!DOCTYPE svg PUBLIC "-//W3C//DTD SVG 1.1//EN" "http://www.w3.org/Graphics/SVG/1.1/DTD/svg11.dtd" >
<svg xmlns="http://www.w3.org/2000/svg" xmlns:xlink="http://www.w3.org/1999/xlink" version="1.1" viewBox="-10 0 1010 1000">
   <path fill="currentColor"
d="M529.805 235.742l56.7188 -15.4688l-300.352 -128.906l-37.3828 11.6016q7.73438 7.73438 7.73438 12.8906v2.57812q-2.57812 9.02344 -32.2266 18.0469l33.5156 14.1797l43.8281 -12.8906zM369.961 83.6328q0 14.1797 37.3828 29.6484l153.398 65.7422
q42.5391 18.0469 88.9453 18.0469q34.8047 0 72.1875 -10.3125q45.1172 -12.8906 45.1172 -27.0703q0 -12.8906 -36.0938 -28.3594l-54.1406 -24.4922q-42.5391 -18.0469 -83.7891 -18.0469q-24.4922 0 -47.6953 6.44531q-28.3594 7.73438 -28.3594 19.3359
q0 2.57812 2.57812 6.44531l-54.1406 -23.2031q-20.625 -9.02344 -20.625 -15.4688q0 -5.15625 14.1797 -9.02344q11.6016 -2.57812 21.9141 -2.57812q19.3359 0 37.3828 7.73438l10.3125 3.86719l52.8516 -14.1797l-7.73438 -3.86719q-43.8281 -19.3359 -90.2344 -19.3359
q-33.5156 0 -68.3203 10.3125q-45.1172 12.8906 -45.1172 28.3594zM473.086 304.062q-7.73438 3.86719 -19.3359 5.15625h-20.625q-10.3125 0 -20.625 -1.28906q-9.02344 -2.57812 -15.4688 -5.15625l-355.781 -161.133q-5.15625 -2.57812 -6.44531 -5.15625v-6.44531
q2.57812 -2.57812 7.73438 -5.15625t14.1797 -5.15625l444.727 -112.148q6.44531 -1.28906 14.1797 -1.28906q9.02344 -1.28906 16.7578 -1.28906q9.02344 0 16.7578 1.28906t12.8906 2.57812l377.695 128.906q7.73438 2.57812 10.3125 5.15625
q3.86719 2.57812 3.86719 6.44531v1.28906q0 1.28906 -2.57812 3.86719q-3.86719 3.86719 -11.6016 6.44531zM565.898 140.352q-14.1797 -6.44531 -14.1797 -11.6016t14.1797 -9.02344q10.3125 -2.57812 21.9141 -2.57812q18.0469 0 36.0938 7.73438l54.1406 23.2031
q15.4688 5.15625 15.4688 10.3125t-15.4688 10.3125q-11.6016 2.57812 -21.9141 2.57812q-18.0469 0 -36.0938 -7.73438zM183.047 711.406v-10.3125q1.28906 -28.3594 56.7188 -73.4766q55.4297 -46.4062 58.0078 -126.328v-10.3125q0 -105.703 -74.7656 -157.266
q-25.7812 -16.7578 -42.5391 -16.7578q-37.3828 0 -39.9609 77.3438l-2.57812 43.8281l50.2734 34.8047l1.28906 -48.9844q1.28906 -30.9375 15.4688 -30.9375q6.44531 0 14.1797 5.15625q25.7812 16.7578 25.7812 64.4531v5.15625q-2.57812 65.7422 -58.0078 108.281
q-55.4297 41.25 -56.7188 108.281l-2.57812 55.4297l153.398 104.414l1.28906 -64.4531zM407.344 380.117q2.57812 11.6016 2.57812 20.625l15.4688 563.32q0 9.02344 -2.57812 15.4688q-1.28906 6.44531 -5.15625 9.02344t-7.73438 2.57812h-2.57812
q-5.15625 0 -11.6016 -3.86719l-330 -223.008q-5.15625 -3.86719 -9.02344 -10.3125q-5.15625 -5.15625 -9.02344 -12.8906t-6.44531 -16.7578q-2.57812 -7.73438 -2.57812 -16.7578l-38.6719 -504.023q0 -9.02344 1.28906 -16.7578t3.86719 -11.6016
q3.86719 -5.15625 7.73438 -6.44531h2.57812q3.86719 0 7.73438 1.28906l351.914 165q7.73438 2.57812 14.1797 10.3125q5.15625 6.44531 10.3125 15.4688t7.73438 19.3359zM590.391 661.133q1.28906 -41.25 30.9375 -52.8516q5.15625 -2.57812 10.3125 -2.57812
q19.3359 0 19.3359 34.8047l-1.28906 76.0547q0 42.5391 -29.6484 52.8516q-6.44531 2.57812 -11.6016 2.57812q-18.0469 0 -18.0469 -29.6484v-81.2109zM925.547 576.055l-27.0703 10.3125l2.57812 -290.039l-61.875 23.2031l-108.281 327.422l-1.28906 61.875
l110.859 -39.9609v77.3438l56.7188 -20.625v-77.3438l27.0703 -10.3125zM708.984 466.484q0 -81.2109 -50.2734 -81.2109q-15.4688 0 -34.8047 7.73438q-87.6562 32.2266 -88.9453 143.086l-2.57812 219.141v2.57812q0 81.2109 51.5625 81.2109q14.1797 0 34.8047 -7.73438
q87.6562 -32.2266 88.9453 -139.219l1.28906 -78.6328q0 -78.6328 -41.25 -78.6328q-10.3125 0 -21.9141 3.86719q-38.6719 14.1797 -54.1406 58.0078l1.28906 -78.6328q0 -52.8516 32.2266 -64.4531q6.44531 -2.57812 11.6016 -2.57812q18.0469 0 18.0469 33.5156v15.4688
l54.1406 -19.3359v-14.1797zM987.422 208.672q2.57812 7.73438 2.57812 16.7578l-23.2031 516.914q0 9.02344 -3.86719 16.7578q-2.57812 9.02344 -6.44531 16.7578q-5.15625 6.44531 -11.6016 12.8906q-5.15625 5.15625 -12.8906 9.02344l-430.547 193.359
q-7.73438 3.86719 -14.1797 3.86719q-7.73438 0 -12.8906 -3.86719q-6.44531 -2.57812 -9.02344 -10.3125q-3.86719 -6.44531 -3.86719 -15.4688l-11.6016 -563.32v-5.15625q0 -7.73438 2.57812 -15.4688q2.57812 -10.3125 9.02344 -19.3359
q5.15625 -9.02344 12.8906 -15.4688t16.7578 -9.02344l466.641 -146.953q3.86719 -1.28906 9.02344 -1.28906h3.86719q6.44531 1.28906 10.3125 6.44531q5.15625 5.15625 6.44531 12.8906zM783.75 627.617l59.2969 -181.758l-1.28906 161.133z" />
</svg>
