<?xml version="1.0" standalone="no"?>
<!DOCTYPE svg PUBLIC "-//W3C//DTD SVG 1.1//EN" "http://www.w3.org/Graphics/SVG/1.1/DTD/svg11.dtd" >
<svg xmlns="http://www.w3.org/2000/svg" xmlns:xlink="http://www.w3.org/1999/xlink" version="1.1" viewBox="-10 0 1066 1000">
   <path fill="currentColor"
d="M569.333 -56.333l58.667 -16l-310.667 -133.334l-38.666 12q8 8 8 13.334v2.66602q-2.66699 9.33398 -33.334 18.667l34.667 14.667l45.333 -13.334zM404 -213.667q0 14.667 38.667 30.667l158.666 68q44 18.667 92 18.667q36 0 74.667 -10.667
q46.667 -13.333 46.667 -28q0 -13.333 -37.334 -29.333l-56 -25.334q-44 -18.666 -86.666 -18.666q-25.334 0 -49.334 6.66602q-29.333 8 -29.333 20q0 2.66699 2.66699 6.66699l-56 -24q-21.334 -9.33301 -21.334 -16q0 -5.33301 14.667 -9.33301
q12 -2.66699 22.667 -2.66699q20 0 38.666 8l10.667 4l54.667 -14.667l-8 -4q-45.334 -20 -93.334 -20q-34.666 0 -70.666 10.667q-46.667 13.333 -46.667 29.333zM510.667 14.333q-8 4 -20 5.33398h-21.334q-10.666 0 -21.333 -1.33398q-9.33301 -2.66602 -16 -5.33301
l-368 -166.667q-5.33301 -2.66602 -6.66699 -5.33301v-6.66699q2.66699 -2.66602 8 -5.33301q5.33398 -2.66699 14.667 -5.33301l460 -116q6.66699 -1.33398 14.667 -1.33398q9.33301 -1.33301 17.333 -1.33301q9.33301 0 17.333 1.33301q8 1.33398 13.334 2.66699
l390.666 133.333q8 2.66699 10.667 5.33398q4 2.66602 4 6.66602v1.33398q0 1.33301 -2.66699 4q-4 4 -12 6.66602zM606.667 -155q-14.667 -6.66699 -14.667 -12t14.667 -9.33301q10.666 -2.66699 22.666 -2.66699q18.667 0 37.334 8l56 24q16 5.33301 16 10.667
q0 5.33301 -16 10.666q-12 2.66699 -22.667 2.66699q-18.667 0 -37.333 -8zM210.667 435.667v-10.667q1.33301 -29.333 58.666 -76q57.334 -48 60 -130.667v-10.666q0 -109.334 -77.333 -162.667q-26.667 -17.333 -44 -17.333q-38.667 0 -41.333 80l-2.66699 45.333l52 36
l1.33301 -50.667q1.33398 -32 16 -32q6.66699 0 14.667 5.33398q26.667 17.333 26.667 66.666v5.33398q-2.66699 68 -60 112q-57.334 42.666 -58.667 112l-2.66699 57.333l158.667 108l1.33301 -66.667zM442.667 93q2.66602 12 2.66602 21.333l16 582.667
q0 9.33301 -2.66602 16q-1.33398 6.66699 -5.33398 9.33301q-4 2.66699 -8 2.66699h-2.66602q-5.33398 0 -12 -4l-341.334 -230.667q-5.33301 -4 -9.33301 -10.666q-5.33301 -5.33398 -9.33301 -13.334t-6.66699 -17.333q-2.66699 -8 -2.66699 -17.333l-40 -521.334
q0 -9.33301 1.33398 -17.333q1.33301 -8 4 -12q4 -5.33301 8 -6.66699h2.66602q4 0 8 1.33398l364 170.666q8 2.66699 14.667 10.667q5.33301 6.66699 10.667 16q5.33301 9.33301 8 20zM632 383.667q1.33301 -42.667 32 -54.667q5.33301 -2.66699 10.667 -2.66699
q20 0 20 36l-1.33398 78.667q0 44 -30.666 54.667q-6.66699 2.66602 -12 2.66602q-18.667 0 -18.667 -30.666v-84zM978.667 295.667l-28 10.666l2.66602 -300l-64 24l-112 338.667l-1.33301 64l114.667 -41.333v80l58.666 -21.334v-80l28 -10.666zM754.667 182.333
q0 -84 -52 -84q-16 0 -36 8q-90.667 33.334 -92 148l-2.66699 226.667v2.66699q0 84 53.333 84q14.667 0 36 -8q90.667 -33.334 92 -144l1.33398 -81.334q0 -81.333 -42.667 -81.333q-10.667 0 -22.667 4q-40 14.667 -56 60l1.33398 -81.333q0 -54.667 33.333 -66.667
q6.66699 -2.66699 12 -2.66699q18.667 0 18.667 34.667v16l56 -20v-14.667zM1042.67 -84.333q2.66602 8 2.66602 17.333l-24 534.667q0 9.33301 -4 17.333q-2.66602 9.33301 -6.66602 17.333q-5.33398 6.66699 -12 13.334q-5.33398 5.33301 -13.334 9.33301l-445.333 200
q-8 4 -14.667 4q-8 0 -13.333 -4q-6.66699 -2.66699 -9.33301 -10.667q-4 -6.66602 -4 -16l-12 -582.666v-5.33398q0 -8 2.66602 -16q2.66699 -10.666 9.33398 -20q5.33301 -9.33301 13.333 -16q8 -6.66602 17.333 -9.33301l482.667 -152q4 -1.33301 9.33301 -1.33301h4
q6.66699 1.33301 10.667 6.66602q5.33301 5.33398 6.66699 13.334zM832 349l61.333 -188l-1.33301 166.667z" />
</svg>
