<?xml version="1.0" standalone="no"?>
<!DOCTYPE svg PUBLIC "-//W3C//DTD SVG 1.1//EN" "http://www.w3.org/Graphics/SVG/1.1/DTD/svg11.dtd" >
<svg xmlns="http://www.w3.org/2000/svg" xmlns:xlink="http://www.w3.org/1999/xlink" version="1.1" viewBox="-10 0 1066 1000">
   <path fill="currentColor"
d="M861.333 10.333l-44 -12q-17.333 24 -30.666 32q-12 5.33398 -28 5.33398q-13.334 0 -29.334 -4l-12 46.666l50.667 14.667l-85.333 321.333l65.333 18.667zM1002.67 -40.333q22.666 5.33301 34.666 26.666q8 13.334 8 26.667q0 8 -2.66602 16l-132 493.333
q-5.33398 22.667 -26.667 34.667q-13.333 8 -26.667 8q-8 0 -16 -2.66699l-237.333 -62.666q14.667 -12 24 -29.334q14.667 -24 14.667 -50.666q0 -13.334 -4 -26.667l-81.334 -304l46.667 -177.333q6.66699 -22.667 26.667 -34.667q13.333 -8 26.666 -8q8 0 16 2.66699z
M458.667 406.333l-16 -61.333l-125.334 34.667q-1.33301 -4 -2.66602 -9.33398q-1.33398 -4 -1.33398 -9.33301q0 -30.667 40 -110.667q32 -65.333 32 -120q0 -24 -6.66602 -46.666q-22.667 -85.334 -90.667 -85.334q-16 0 -36 5.33398q-77.333 21.333 -77.333 89.333
q0 20 6.66602 42.667l10.667 41.333l62.667 -17.333l-12 -44q-2.66699 -10.667 -2.66699 -18.667q0 -26.667 26.667 -33.333q5.33301 -1.33398 10.666 -1.33398q25.334 0 36 41.334q4 14.666 4 32q0 50.666 -34.666 117.333q-34.667 65.333 -34.667 116q0 18.667 5.33301 36
l13.334 52zM594.667 405q2.66602 8 2.66602 16q0 13.333 -8 26.667q-12 21.333 -34.666 26.666l-329.334 88q-8 2.66699 -16 2.66699q-13.333 0 -26.666 -8q-21.334 -12 -26.667 -34.667l-132 -493.333q-2.66699 -8 -2.66699 -16q0 -13.333 8 -26.667
q12 -21.333 34.667 -26.666l329.333 -88q8 -2.66699 16 -2.66699q13.334 0 26.667 8q20 12 26.667 34.667z" />
</svg>
