<?xml version="1.0" standalone="no"?>
<!DOCTYPE svg PUBLIC "-//W3C//DTD SVG 1.1//EN" "http://www.w3.org/Graphics/SVG/1.1/DTD/svg11.dtd" >
<svg xmlns="http://www.w3.org/2000/svg" xmlns:xlink="http://www.w3.org/1999/xlink" version="1.1" viewBox="-10 0 1010 1000">
   <path fill="currentColor"
d="M812.109 300.195l-42.5391 -11.6016q-16.7578 23.2031 -29.6484 30.9375q-11.6016 5.15625 -27.0703 5.15625q-12.8906 0 -28.3594 -3.86719l-11.6016 45.1172l48.9844 14.1797l-82.5 310.664l63.1641 18.0469zM948.75 251.211q21.9141 5.15625 33.5156 25.7812
q7.73438 12.8906 7.73438 25.7812q0 7.73438 -2.57812 15.4688l-127.617 476.953q-5.15625 21.9141 -25.7812 33.5156q-12.8906 7.73438 -25.7812 7.73438q-7.73438 0 -15.4688 -2.57812l-229.453 -60.5859q14.1797 -11.6016 23.2031 -28.3594
q14.1797 -23.2031 14.1797 -48.9844q0 -12.8906 -3.86719 -25.7812l-78.6328 -293.906l45.1172 -171.445q6.44531 -21.9141 25.7812 -33.5156q12.8906 -7.73438 25.7812 -7.73438q7.73438 0 15.4688 2.57812zM422.812 683.047l-15.4688 -59.2969l-121.172 33.5156
q-1.28906 -3.86719 -2.57812 -9.02344q-1.28906 -3.86719 -1.28906 -9.02344q0 -29.6484 38.6719 -106.992q30.9375 -63.1641 30.9375 -116.016q0 -23.2031 -6.44531 -45.1172q-21.9141 -82.5 -87.6562 -82.5q-15.4688 0 -34.8047 5.15625q-74.7656 20.625 -74.7656 86.3672
q0 19.3359 6.44531 41.25l10.3125 39.9609l60.5859 -16.7578l-11.6016 -42.5391q-2.57812 -10.3125 -2.57812 -18.0469q0 -25.7812 25.7812 -32.2266q5.15625 -1.28906 10.3125 -1.28906q24.4922 0 34.8047 39.9609q3.86719 14.1797 3.86719 30.9375
q0 48.9844 -33.5156 113.438q-33.5156 63.1641 -33.5156 112.148q0 18.0469 5.15625 34.8047l12.8906 50.2734zM554.297 681.758q2.57812 7.73438 2.57812 15.4688q0 12.8906 -7.73438 25.7812q-11.6016 20.625 -33.5156 25.7812l-318.398 85.0781
q-7.73438 2.57812 -15.4688 2.57812q-12.8906 0 -25.7812 -7.73438q-20.625 -11.6016 -25.7812 -33.5156l-127.617 -476.953q-2.57812 -7.73438 -2.57812 -15.4688q0 -12.8906 7.73438 -25.7812q11.6016 -20.625 33.5156 -25.7812l318.398 -85.0781
q7.73438 -2.57812 15.4688 -2.57812q12.8906 0 25.7812 7.73438q19.3359 11.6016 25.7812 33.5156z" />
</svg>
