<?xml version="1.0" standalone="no"?>
<!DOCTYPE svg PUBLIC "-//W3C//DTD SVG 1.1//EN" "http://www.w3.org/Graphics/SVG/1.1/DTD/svg11.dtd" >
<svg xmlns="http://www.w3.org/2000/svg" xmlns:xlink="http://www.w3.org/1999/xlink" version="1.1" viewBox="-10 0 1010 1000">
   <path fill="currentColor"
d="M733.477 639.219q0 -52.8516 -32.2266 -82.5q-32.2266 -30.9375 -85.0781 -30.9375q-51.5625 0 -83.7891 30.9375q-32.2266 29.6484 -32.2266 79.9219v27.0703q0 50.2734 32.2266 81.2109q32.2266 29.6484 85.0781 29.6484t83.7891 -29.6484
q32.2266 -30.9375 32.2266 -79.9219v-25.7812zM643.242 309.219l-51.5625 -27.0703l-261.68 417.656l51.5625 27.0703zM244.922 362.07q0 51.5625 32.2266 81.2109q32.2266 30.9375 83.7891 30.9375t83.7891 -30.9375q32.2266 -29.6484 32.2266 -79.9219v-25.7812
q0 -51.5625 -32.2266 -82.5q-32.2266 -29.6484 -83.7891 -29.6484q-52.8516 0 -83.7891 30.9375q-32.2266 29.6484 -32.2266 79.9219v25.7812zM495 5q204.961 0 349.336 145.664q145.664 144.375 145.664 349.336t-145.664 349.336q-144.375 145.664 -349.336 145.664
t-349.336 -145.664q-145.664 -144.375 -145.664 -349.336t145.664 -349.336q144.375 -145.664 349.336 -145.664zM394.453 399.453q-12.8906 14.1797 -33.5156 14.1797t-33.5156 -14.1797q-11.6016 -12.8906 -11.6016 -34.8047v-27.0703q0 -24.4922 11.6016 -37.3828
q12.8906 -14.1797 33.5156 -14.1797t33.5156 14.1797q11.6016 14.1797 11.6016 36.0938v27.0703q0 23.2031 -11.6016 36.0938zM616.172 587.656q20.625 0 33.5156 12.8906q12.8906 14.1797 12.8906 36.0938v28.3594q0 50.2734 -45.1172 50.2734q-20.625 0 -33.5156 -15.4688
q-12.8906 -14.1797 -12.8906 -34.8047v-27.0703q0 -23.2031 12.8906 -37.3828q11.6016 -12.8906 32.2266 -12.8906z" />
</svg>
