<?xml version="1.0" standalone="no"?>
<!DOCTYPE svg PUBLIC "-//W3C//DTD SVG 1.1//EN" "http://www.w3.org/Graphics/SVG/1.1/DTD/svg11.dtd" >
<svg xmlns="http://www.w3.org/2000/svg" xmlns:xlink="http://www.w3.org/1999/xlink" version="1.1" viewBox="-10 0 1066 1000">
   <path fill="currentColor"
d="M780 361q0 -54.667 -33.333 -85.333q-33.334 -32 -88 -32q-53.334 0 -86.667 32q-33.333 30.666 -33.333 82.666v28q0 52 33.333 84q33.333 30.667 88 30.667t86.667 -30.667q33.333 -32 33.333 -82.666v-26.667zM686.667 19.667l-53.334 -28l-270.666 432l53.333 28z
M274.667 74.333q0 53.334 33.333 84q33.333 32 86.667 32q53.333 0 86.666 -32q33.334 -30.666 33.334 -82.666v-26.667q0 -53.333 -33.334 -85.333q-33.333 -30.667 -86.666 -30.667q-54.667 0 -86.667 32q-33.333 30.667 -33.333 82.667v26.666zM533.333 -295
q212 0 361.334 150.667q150.666 149.333 150.666 361.333t-150.666 361.333q-149.334 150.667 -361.334 150.667t-361.333 -150.667q-150.667 -149.333 -150.667 -361.333t150.667 -361.333q149.333 -150.667 361.333 -150.667zM429.333 113q-13.333 14.667 -34.666 14.667
q-21.334 0 -34.667 -14.667q-12 -13.333 -12 -36v-28q0 -25.333 12 -38.667q13.333 -14.666 34.667 -14.666q21.333 0 34.666 14.666q12 14.667 12 37.334v28q0 24 -12 37.333zM658.667 307.667q21.333 0 34.666 13.333q13.334 14.667 13.334 37.333v29.334q0 52 -46.667 52
q-21.333 0 -34.667 -16q-13.333 -14.667 -13.333 -36v-28q0 -24 13.333 -38.667q12 -13.333 33.334 -13.333z" />
</svg>
