<?xml version="1.0" standalone="no"?>
<!DOCTYPE svg PUBLIC "-//W3C//DTD SVG 1.1//EN" "http://www.w3.org/Graphics/SVG/1.1/DTD/svg11.dtd" >
<svg xmlns="http://www.w3.org/2000/svg" xmlns:xlink="http://www.w3.org/1999/xlink" version="1.1" viewBox="-10 0 1034 1000">
   <path fill="currentColor"
d="M533.333 631.667q141.334 0 241.334 -100t100 -241.334q0 -141.333 -100 -241.333t-241.334 -100q-141.333 0 -241.333 100t-100 241.333q0 141.334 100 241.334t241.333 100zM876 17q96 120 96 273.333q0 181.334 -128 310.667q-129.333 128 -310.667 128
q-181.333 0 -310.666 -128q-128 -129.333 -128 -310.667q0 -181.333 128 -310.666q129.333 -128 310.666 -128q153.334 0 273.334 96l69.333 -69.334q36 29.334 69.333 69.334zM484 46.333h98.667v292h-98.667v-292zM680 -197.667h-293.333v-97.333h293.333v97.333z" />
</svg>
