<?xml version="1.0" standalone="no"?>
<!DOCTYPE svg PUBLIC "-//W3C//DTD SVG 1.1//EN" "http://www.w3.org/Graphics/SVG/1.1/DTD/svg11.dtd" >
<svg xmlns="http://www.w3.org/2000/svg" xmlns:xlink="http://www.w3.org/1999/xlink" version="1.1" viewBox="-10 0 908 1000">
   <path fill="currentColor"
d="M424.102 900.898q136.641 0 233.32 -96.6797t96.6797 -233.32t-96.6797 -233.32t-233.32 -96.6797t-233.32 96.6797t-96.6797 233.32t96.6797 233.32t233.32 96.6797zM755.391 306.641q92.8125 116.016 92.8125 264.258q0 175.312 -123.75 300.352
q-125.039 123.75 -300.352 123.75t-300.352 -123.75q-123.75 -125.039 -123.75 -300.352t123.75 -300.352q125.039 -123.75 300.352 -123.75q148.242 0 264.258 92.8125l67.0312 -67.0312q34.8047 28.3594 67.0312 67.0312zM376.406 335h95.3906v282.305h-95.3906v-282.305z
M565.898 99.1016h-283.594v-94.1016h283.594v94.1016z" />
</svg>
