<?xml version="1.0" standalone="no"?>
<!DOCTYPE svg PUBLIC "-//W3C//DTD SVG 1.1//EN" "http://www.w3.org/Graphics/SVG/1.1/DTD/svg11.dtd" >
<svg xmlns="http://www.w3.org/2000/svg" xmlns:xlink="http://www.w3.org/1999/xlink" version="1.1" viewBox="-10 0 1010 1000">
   <path fill="currentColor"
d="M928.125 267.969q25.7812 0 43.8281 18.0469q18.0469 19.3359 18.0469 45.1172v348.047q0 25.7812 -18.0469 43.8281q-18.0469 19.3359 -43.8281 19.3359h-46.4062v100.547q0 10.3125 -10.3125 14.1797q-2.57812 1.28906 -5.15625 1.28906q-6.44531 0 -11.6016 -5.15625
l-96.6797 -110.859h-324.844q-25.7812 0 -43.8281 -19.3359q-18.0469 -18.0469 -18.0469 -43.8281h185.625q51.5625 0 87.6562 -37.3828t36.0938 -88.9453v-284.883h247.5zM618.75 552.852q0 25.7812 -18.0469 43.8281q-18.0469 19.3359 -43.8281 19.3359h-324.844
l-96.6797 110.859q-5.15625 5.15625 -11.6016 5.15625q-2.57812 0 -5.15625 -1.28906q-10.3125 -3.86719 -10.3125 -14.1797v-100.547h-46.4062q-25.7812 0 -43.8281 -19.3359q-18.0469 -18.0469 -18.0469 -43.8281v-348.047q0 -25.7812 18.0469 -45.1172
q18.0469 -18.0469 43.8281 -18.0469h495q25.7812 0 43.8281 18.0469q18.0469 19.3359 18.0469 45.1172v348.047z" />
</svg>
