<?xml version="1.0" standalone="no"?>
<!DOCTYPE svg PUBLIC "-//W3C//DTD SVG 1.1//EN" "http://www.w3.org/Graphics/SVG/1.1/DTD/svg11.dtd" >
<svg xmlns="http://www.w3.org/2000/svg" xmlns:xlink="http://www.w3.org/1999/xlink" version="1.1" viewBox="-10 0 1066 1000">
   <path fill="currentColor"
d="M981.333 -23q26.667 0 45.334 18.667q18.666 20 18.666 46.666v360q0 26.667 -18.666 45.334q-18.667 20 -45.334 20h-48v104q0 10.666 -10.666 14.666q-2.66699 1.33398 -5.33398 1.33398q-6.66602 0 -12 -5.33398l-100 -114.666h-336q-26.666 0 -45.333 -20
q-18.667 -18.667 -18.667 -45.334h192q53.334 0 90.667 -38.666q37.333 -38.667 37.333 -92v-294.667h256zM661.333 271.667q0 26.666 -18.666 45.333q-18.667 20 -45.334 20h-336l-100 114.667q-5.33301 5.33301 -12 5.33301q-2.66602 0 -5.33301 -1.33301
q-10.667 -4 -10.667 -14.667v-104h-48q-26.666 0 -45.333 -20q-18.667 -18.667 -18.667 -45.333v-360q0 -26.667 18.667 -46.667q18.667 -18.667 45.333 -18.667h512q26.667 0 45.334 18.667q18.666 20 18.666 46.667v360z" />
</svg>
