<?xml version="1.0" standalone="no"?>
<!DOCTYPE svg PUBLIC "-//W3C//DTD SVG 1.1//EN" "http://www.w3.org/Graphics/SVG/1.1/DTD/svg11.dtd" >
<svg xmlns="http://www.w3.org/2000/svg" xmlns:xlink="http://www.w3.org/1999/xlink" version="1.1" viewBox="-10 0 1066 1000">
   <path fill="currentColor"
d="M328 21q-2.66699 0 -6.66699 -1.33301q-4 -1.33398 -8 -2.66699q-13.333 -8 -13.333 -18.667q0 -6.66602 4 -14.666q8 -13.334 20 -13.334q2.66699 0 6.66699 1.33398q4 0 8 2.66602q13.333 6.66699 13.333 18.667q0 6.66699 -4 14.667q-8 13.333 -20 13.333zM312 66.333
q0 2.66699 -1.33301 6.66699q0 4 -2.66699 8q-5.33301 8 -14.667 10.667q-4 1.33301 -8 1.33301q-5.33301 0 -10.666 -2.66699q-4 -2.66602 -6.66699 -5.33301q-8 -8 -8 -16q0 -6.66699 4 -13.333q5.33301 -9.33398 14.667 -12q4 -1.33398 6.66602 -1.33398
q6.66699 0 13.334 4q13.333 6.66699 13.333 20zM230.667 45q-8 8 -16 8q-6.66699 0 -13.334 -4q-13.333 -8 -13.333 -18.667q0 -6.66602 4 -14.666q1.33301 -4 4 -5.33398q8 -8 17.333 -8q6.66699 0 12 2.66699q14.667 8 14.667 20q0 6.66699 -4 14.667
q-2.66699 2.66602 -5.33301 5.33301zM257.333 121q13.334 8 13.334 18.667q0 6.66602 -4 14.666q-8 13.334 -20 13.334q-2.66699 0 -6.66699 -1.33398q-4 0 -8 -2.66602q-13.333 -8 -13.333 -18.667q0 -6.66699 4 -14.667q6.66602 -13.333 20 -13.333
q2.66602 0 6.66602 1.33301q4 0 8 2.66699zM342.667 91.667q8 -8 16 -8q6.66602 0 13.333 4q14.667 8 14.667 20q0 5.33301 -4 13.333q-2.66699 2.66699 -5.33398 5.33301q-8 8 -16 8q-6.66602 0 -13.333 -4q-13.333 -8 -13.333 -18.666q0 -6.66699 4 -14.667
q1.33301 -2.66699 4 -5.33301zM908 29q2.66699 -8 2.66699 -16q0 -14.667 -8 -28q-10.667 -21.333 -34.667 -28l-336 -98.667q-9.33301 -2.66602 -17.333 -2.66602q-13.334 0 -26.667 6.66602q-21.333 12 -28 34.667l-48 161.333l21.333 72v2.66699
q0 10.667 -6.66602 18.667q-5.33398 6.66602 -13.334 9.33301l-33.333 9.33301l-69.333 230.667q-2.66699 8 -2.66699 17.333q0 14.667 8 28q12 20 34.667 28l336 98.667q8 2.66699 16 2.66699q14.666 0 28 -8q21.333 -10.667 28 -34.667zM213.333 206.333
q2.66699 1.33398 5.33398 1.33398q4 0 6.66602 -1.33398l93.334 -25.333l62.666 -18.667l29.334 -8q6.66602 -2.66602 10.666 -6.66602q4 -5.33398 4 -12v-4l-17.333 -60l-37.333 -132q-5.33398 -12 -17.334 -12h-5.33301l-1.33301 1.33301l-93.334 26.667l-92 26.666
h-2.66602q-13.334 5.33398 -13.334 18.667v2.66699l56 192q4 8 12 10.666zM533.333 -295q212 0 362.667 149.333q149.333 150.667 149.333 362.667t-149.333 362.667q-150.667 149.333 -362.667 149.333t-362.666 -149.333q-149.334 -150.667 -149.334 -362.667
t149.334 -362.667q150.666 -149.333 362.666 -149.333zM697.333 203.667q29.334 10.666 44 38.666q8 17.334 8 34.667q0 13.333 -4 25.333q-10.666 29.334 -38.666 44q-16 8 -33.334 8q-13.333 0 -26.666 -5.33301q-36 -12 -48 -49.333l-20 60l-21.334 -6.66699l21.334 -60
q-20 13.333 -42.667 13.333q-13.333 0 -26.667 -4q-29.333 -10.666 -44 -40q-8 -16 -8 -32q0 -13.333 5.33398 -26.666q9.33301 -29.334 38.666 -44q16 -8 32 -8q13.334 0 26.667 5.33301h1.33301v-14.667q0 -12 4 -24q10.667 -30.666 38.667 -44q17.333 -8 34.667 -8
q12 0 25.333 4q29.333 10.667 44 38.667q8 16 8 33.333q0 13.334 -5.33301 26.667q-6.66699 18.667 -22.667 32q8 2.66699 9.33301 2.66699z" />
</svg>
