<?xml version="1.0" standalone="no"?>
<!DOCTYPE svg PUBLIC "-//W3C//DTD SVG 1.1//EN" "http://www.w3.org/Graphics/SVG/1.1/DTD/svg11.dtd" >
<svg xmlns="http://www.w3.org/2000/svg" xmlns:xlink="http://www.w3.org/1999/xlink" version="1.1" viewBox="-10 0 1010 1000">
   <path fill="currentColor"
d="M296.484 310.508q-2.57812 0 -6.44531 -1.28906l-7.73438 -2.57812q-12.8906 -7.73438 -12.8906 -18.0469q0 -6.44531 3.86719 -14.1797q7.73438 -12.8906 19.3359 -12.8906q2.57812 0 6.44531 1.28906q3.86719 0 7.73438 2.57812q12.8906 6.44531 12.8906 18.0469
q0 6.44531 -3.86719 14.1797q-7.73438 12.8906 -19.3359 12.8906zM281.016 354.336q0 2.57812 -1.28906 6.44531q0 3.86719 -2.57812 7.73438q-5.15625 7.73438 -14.1797 10.3125q-3.86719 1.28906 -7.73438 1.28906q-5.15625 0 -10.3125 -2.57812
q-3.86719 -2.57812 -6.44531 -5.15625q-7.73438 -7.73438 -7.73438 -15.4688q0 -6.44531 3.86719 -12.8906q5.15625 -9.02344 14.1797 -11.6016q3.86719 -1.28906 6.44531 -1.28906q6.44531 0 12.8906 3.86719q12.8906 6.44531 12.8906 19.3359zM202.383 333.711
q-7.73438 7.73438 -15.4688 7.73438q-6.44531 0 -12.8906 -3.86719q-12.8906 -7.73438 -12.8906 -18.0469q0 -6.44531 3.86719 -14.1797q1.28906 -3.86719 3.86719 -5.15625q7.73438 -7.73438 16.7578 -7.73438q6.44531 0 11.6016 2.57812q14.1797 7.73438 14.1797 19.3359
q0 6.44531 -3.86719 14.1797zM228.164 407.188q12.8906 7.73438 12.8906 18.0469q0 6.44531 -3.86719 14.1797q-7.73438 12.8906 -19.3359 12.8906q-2.57812 0 -6.44531 -1.28906q-3.86719 0 -7.73438 -2.57812q-12.8906 -7.73438 -12.8906 -18.0469
q0 -6.44531 3.86719 -14.1797q6.44531 -12.8906 19.3359 -12.8906q2.57812 0 6.44531 1.28906q3.86719 0 7.73438 2.57812zM310.664 378.828q7.73438 -7.73438 15.4688 -7.73438q6.44531 0 12.8906 3.86719q14.1797 7.73438 14.1797 19.3359q0 5.15625 -3.86719 12.8906
l-5.15625 5.15625q-7.73438 7.73438 -15.4688 7.73438q-6.44531 0 -12.8906 -3.86719q-12.8906 -7.73438 -12.8906 -18.0469q0 -6.44531 3.86719 -14.1797q1.28906 -2.57812 3.86719 -5.15625zM857.227 318.242q2.57812 -7.73438 2.57812 -15.4688
q0 -14.1797 -7.73438 -27.0703q-10.3125 -20.625 -33.5156 -27.0703l-324.844 -95.3906q-9.02344 -2.57812 -16.7578 -2.57812q-12.8906 0 -25.7812 6.44531q-20.625 11.6016 -27.0703 33.5156l-46.4062 155.977l20.625 69.6094v2.57812q0 10.3125 -6.44531 18.0469
q-5.15625 6.44531 -12.8906 9.02344l-32.2266 9.02344l-67.0312 223.008q-2.57812 7.73438 -2.57812 16.7578q0 14.1797 7.73438 27.0703q11.6016 19.3359 33.5156 27.0703l324.844 95.3906q7.73438 2.57812 15.4688 2.57812q14.1797 0 27.0703 -7.73438
q20.625 -10.3125 27.0703 -33.5156zM185.625 489.688q2.57812 1.28906 5.15625 1.28906q3.86719 0 6.44531 -1.28906l90.2344 -24.4922l60.5859 -18.0469l28.3594 -7.73438q6.44531 -2.57812 10.3125 -6.44531q3.86719 -5.15625 3.86719 -11.6016v-3.86719
l-16.7578 -58.0078l-36.0938 -127.617q-5.15625 -11.6016 -16.7578 -11.6016h-5.15625l-1.28906 1.28906l-90.2344 25.7812l-88.9453 25.7812h-2.57812q-12.8906 5.15625 -12.8906 18.0469v2.57812l54.1406 185.625q3.86719 7.73438 11.6016 10.3125zM495 5
q204.961 0 350.625 144.375q144.375 145.664 144.375 350.625t-144.375 350.625q-145.664 144.375 -350.625 144.375t-350.625 -144.375q-144.375 -145.664 -144.375 -350.625t144.375 -350.625q145.664 -144.375 350.625 -144.375zM653.555 487.109
q28.3594 10.3125 42.5391 37.3828q7.73438 16.7578 7.73438 33.5156q0 12.8906 -3.86719 24.4922q-10.3125 28.3594 -37.3828 42.5391q-15.4688 7.73438 -32.2266 7.73438q-12.8906 0 -25.7812 -5.15625q-34.8047 -11.6016 -46.4062 -47.6953l-19.3359 58.0078
l-20.625 -6.44531l20.625 -58.0078q-19.3359 12.8906 -41.25 12.8906q-12.8906 0 -25.7812 -3.86719q-28.3594 -10.3125 -42.5391 -38.6719q-7.73438 -15.4688 -7.73438 -30.9375q0 -12.8906 5.15625 -25.7812q9.02344 -28.3594 37.3828 -42.5391
q15.4688 -7.73438 30.9375 -7.73438q12.8906 0 25.7812 5.15625h1.28906v-14.1797q0 -11.6016 3.86719 -23.2031q10.3125 -29.6484 37.3828 -42.5391q16.7578 -7.73438 33.5156 -7.73438q11.6016 0 24.4922 3.86719q28.3594 10.3125 42.5391 37.3828
q7.73438 15.4688 7.73438 32.2266q0 12.8906 -5.15625 25.7812q-6.44531 18.0469 -21.9141 30.9375q7.73438 2.57812 9.02344 2.57812z" />
</svg>
