<?xml version="1.0" standalone="no"?>
<!DOCTYPE svg PUBLIC "-//W3C//DTD SVG 1.1//EN" "http://www.w3.org/Graphics/SVG/1.1/DTD/svg11.dtd" >
<svg xmlns="http://www.w3.org/2000/svg" xmlns:xlink="http://www.w3.org/1999/xlink" version="1.1" viewBox="-10 0 1010 1000">
   <path fill="currentColor"
d="M495 800.996q59.2969 0 59.2969 -60.5859q-1.28906 -60.5859 -59.2969 -60.5859q-59.2969 0 -59.2969 60.5859t59.2969 60.5859zM442.148 345.957l15.4688 301.641h76.0547l14.1797 -301.641h-105.703zM982.266 853.848q7.73438 14.1797 7.73438 28.3594
q0 12.8906 -6.44531 25.7812q-15.4688 28.3594 -48.9844 28.3594h-877.852q-32.2266 0 -48.9844 -25.7812q-7.73438 -14.1797 -7.73438 -27.0703q0 -15.4688 9.02344 -30.9375q109.57 -192.07 438.281 -760.547q16.7578 -28.3594 47.6953 -28.3594t47.6953 28.3594
q293.906 498.867 439.57 761.836z" />
</svg>
