<?xml version="1.0" standalone="no"?>
<!DOCTYPE svg PUBLIC "-//W3C//DTD SVG 1.1//EN" "http://www.w3.org/Graphics/SVG/1.1/DTD/svg11.dtd" >
<svg xmlns="http://www.w3.org/2000/svg" xmlns:xlink="http://www.w3.org/1999/xlink" version="1.1" viewBox="-10 0 1066 1000">
   <path fill="currentColor"
d="M533.333 528.5q61.334 0 61.334 -62.667q-1.33398 -62.666 -61.334 -62.666q-61.333 0 -61.333 62.666q0 62.667 61.333 62.667zM478.667 57.833l16 312h78.666l14.667 -312h-109.333zM1037.33 583.167q8 14.666 8 29.333q0 13.333 -6.66602 26.667
q-16 29.333 -50.667 29.333h-908q-33.333 0 -50.667 -26.667q-8 -14.666 -8 -28q0 -16 9.33398 -32q113.333 -198.666 453.333 -786.666q17.333 -29.334 49.333 -29.334t49.334 29.334q304 516 454.666 788z" />
</svg>
