<?xml version="1.0" standalone="no"?>
<!DOCTYPE svg PUBLIC "-//W3C//DTD SVG 1.1//EN" "http://www.w3.org/Graphics/SVG/1.1/DTD/svg11.dtd" >
<svg xmlns="http://www.w3.org/2000/svg" xmlns:xlink="http://www.w3.org/1999/xlink" version="1.1" viewBox="-10 0 1066 1000">
   <path fill="currentColor"
d="M876 247.667q-6.66699 -8 -13.333 -24q-13.334 -37.334 -13.334 -89.334t13.334 -89.333q6.66602 -16 13.333 -24q5.33301 -6.66699 10.667 -6.66699q4 0 9.33301 6.66699q6.66699 8 13.333 24q13.334 37.333 13.334 89.333t-13.334 89.334q-6.66602 16 -13.333 24
q-5.33301 6.66602 -9.33301 6.66602q-5.33398 0 -10.667 -6.66602zM513.333 575.667q2.66699 6.66602 2.66699 13.333q0 5.33301 -1.33301 10.667q-4 10.666 -16 16l-118.667 46.666q-5.33301 2.66699 -12 2.66699q-5.33301 0 -10.667 -2.66699
q-10.666 -5.33301 -14.666 -18.666l-81.334 -321.334l128 25.334zM273.333 134.333q0 77.334 10.667 149.334q-74.667 -10.667 -140 -10.667h-66.667l-56 -94.667v-88l56 -94.666h66.667q65.333 0 140 -10.667q-10.667 70.667 -10.667 149.333zM886.667 443.667
q10.666 0 24 -14.667q20 -21.333 36 -64q36 -94.667 36 -230.667t-36 -230.666q-16 -42.667 -36 -64q-13.334 -16 -24 -16q-10.667 0 -25.334 16q-18.666 21.333 -34.666 64q-36 94.666 -36 230.666t36 230.667q16 42.667 34.666 64q14.667 14.667 25.334 14.667z
M1045.33 134.333q0 150.667 -38.666 257.334q-38.667 106.666 -93.334 108h-81.333q-194.667 -146.667 -476 -204q-13.333 -74.667 -13.333 -161.334q0 -88 13.333 -161.333q281.333 -57.333 476 -204h81.333q54.667 1.33301 93.334 108q38.666 106.667 38.666 257.333z" />
</svg>
