<?xml version="1.0" standalone="no"?>
<!DOCTYPE svg PUBLIC "-//W3C//DTD SVG 1.1//EN" "http://www.w3.org/Graphics/SVG/1.1/DTD/svg11.dtd" >
<svg xmlns="http://www.w3.org/2000/svg" xmlns:xlink="http://www.w3.org/1999/xlink" version="1.1" viewBox="-10 0 1010 1000">
   <path fill="currentColor"
d="M826.289 529.648q-6.44531 -7.73438 -12.8906 -23.2031q-12.8906 -36.0938 -12.8906 -86.3672t12.8906 -86.3672q6.44531 -15.4688 12.8906 -23.2031q5.15625 -6.44531 10.3125 -6.44531q3.86719 0 9.02344 6.44531q6.44531 7.73438 12.8906 23.2031
q12.8906 36.0938 12.8906 86.3672t-12.8906 86.3672q-6.44531 15.4688 -12.8906 23.2031q-5.15625 6.44531 -9.02344 6.44531q-5.15625 0 -10.3125 -6.44531zM475.664 846.758q2.57812 6.44531 2.57812 12.8906q0 5.15625 -1.28906 10.3125
q-3.86719 10.3125 -15.4688 15.4688l-114.727 45.1172q-5.15625 2.57812 -11.6016 2.57812q-5.15625 0 -10.3125 -2.57812q-10.3125 -5.15625 -14.1797 -18.0469l-78.6328 -310.664l123.75 24.4922zM243.633 420.078q0 74.7656 10.3125 144.375
q-72.1875 -10.3125 -135.352 -10.3125h-64.4531l-54.1406 -91.5234v-85.0781l54.1406 -91.5234h64.4531q63.1641 0 135.352 -10.3125q-10.3125 68.3203 -10.3125 144.375zM836.602 719.141q10.3125 0 23.2031 -14.1797q19.3359 -20.625 34.8047 -61.875
q34.8047 -91.5234 34.8047 -223.008t-34.8047 -223.008q-15.4688 -41.25 -34.8047 -61.875q-12.8906 -15.4688 -23.2031 -15.4688t-24.4922 15.4688q-18.0469 20.625 -33.5156 61.875q-34.8047 91.5234 -34.8047 223.008t34.8047 223.008q15.4688 41.25 33.5156 61.875
q14.1797 14.1797 24.4922 14.1797zM990 420.078q0 145.664 -37.3828 248.789t-90.2344 104.414h-78.6328q-188.203 -141.797 -460.195 -197.227q-12.8906 -72.1875 -12.8906 -155.977q0 -85.0781 12.8906 -155.977q271.992 -55.4297 460.195 -197.227h78.6328
q52.8516 1.28906 90.2344 104.414t37.3828 248.789z" />
</svg>
