<?xml version="1.0" standalone="no"?>
<!DOCTYPE svg PUBLIC "-//W3C//DTD SVG 1.1//EN" "http://www.w3.org/Graphics/SVG/1.1/DTD/svg11.dtd" >
<svg xmlns="http://www.w3.org/2000/svg" xmlns:xlink="http://www.w3.org/1999/xlink" version="1.1" viewBox="-10 0 1010 1000">
   <path fill="currentColor"
d="M990 54.6289v791.484q0 41.25 -28.3594 70.8984q-29.6484 28.3594 -70.8984 28.3594h-791.484q-41.25 0 -70.8984 -28.3594q-28.3594 -29.6484 -28.3594 -70.8984v-791.484l82.5 82.5l82.5 -82.5l82.5 82.5l82.5 -82.5l82.5 82.5l82.5 -82.5l82.5 82.5l82.5 -82.5
l82.5 82.5l82.5 -82.5l82.5 82.5zM446.016 549.629h-346.758v296.484h346.758v-296.484zM890.742 746.855h-346.758v99.2578h346.758v-99.2578zM890.742 549.629h-346.758v99.2578h346.758v-99.2578zM890.742 302.129h-791.484v148.242h791.484v-148.242z" />
</svg>
