<?xml version="1.0" standalone="no"?>
<!DOCTYPE svg PUBLIC "-//W3C//DTD SVG 1.1//EN" "http://www.w3.org/Graphics/SVG/1.1/DTD/svg11.dtd" >
<svg xmlns="http://www.w3.org/2000/svg" xmlns:xlink="http://www.w3.org/1999/xlink" version="1.1" viewBox="-10 0 1066 1000">
   <path fill="currentColor"
d="M1045.33 -243.5v818.667q0 42.666 -29.333 73.333q-30.667 29.333 -73.333 29.333h-818.667q-42.667 0 -73.333 -29.333q-29.334 -30.667 -29.334 -73.333v-818.667l85.334 85.333l85.333 -85.333l85.333 85.333l85.334 -85.333l85.333 85.333l85.333 -85.333
l85.334 85.333l85.333 -85.333l85.333 85.333l85.334 -85.333l85.333 85.333zM482.667 268.5h-358.667v306.667h358.667v-306.667zM942.667 472.5h-358.667v102.667h358.667v-102.667zM942.667 268.5h-358.667v102.667h358.667v-102.667zM942.667 12.5h-818.667v153.333
h818.667v-153.333z" />
</svg>
