<?xml version="1.0" standalone="no"?>
<!DOCTYPE svg PUBLIC "-//W3C//DTD SVG 1.1//EN" "http://www.w3.org/Graphics/SVG/1.1/DTD/svg11.dtd" >
<svg xmlns="http://www.w3.org/2000/svg" xmlns:xlink="http://www.w3.org/1999/xlink" version="1.1" viewBox="-10 0 1010 1000">
   <path fill="currentColor"
d="M815.977 824.844q41.25 0 64.4531 1.28906q54.1406 5.15625 78.6328 25.7812q28.3594 24.4922 30.9375 78.6328h-474.375q1.28906 -54.1406 30.9375 -78.6328q24.4922 -20.625 78.6328 -25.7812q23.2031 -1.28906 64.4531 -1.28906h126.328zM625.195 760.391h255.234
v48.9844q-25.7812 -2.57812 -64.4531 -2.57812q-10.3125 0 -30.9375 1.28906h-64.4531q-20.625 -1.28906 -30.9375 -1.28906q-38.6719 0 -64.4531 2.57812v-48.9844zM367.383 262.812q-16.7578 0 -30.9375 -15.4688q-11.6016 -11.6016 -14.1797 -24.4922v-6.44531
q0 -10.3125 5.15625 -15.4688l42.5391 -42.5391l82.5 -83.7891q6.44531 -5.15625 15.4688 -5.15625q16.7578 0 32.2266 14.1797q14.1797 15.4688 14.1797 29.6484q0 5.15625 -1.28906 10.3125t-3.86719 7.73438l-126.328 125.039q-2.57812 3.86719 -7.73438 5.15625
q-2.57812 1.28906 -7.73438 1.28906zM696.094 318.242q3.86719 -2.57812 9.02344 -3.86719q2.57812 -1.28906 6.44531 -1.28906q16.7578 0 32.2266 14.1797q11.6016 12.8906 14.1797 27.0703v3.86719q0 10.3125 -5.15625 16.7578l-87.6562 86.3672l-38.6719 38.6719
q-5.15625 5.15625 -15.4688 5.15625q-16.7578 0 -30.9375 -14.1797q-15.4688 -15.4688 -15.4688 -30.9375q0 -3.86719 1.28906 -7.73438q1.28906 -5.15625 5.15625 -9.02344zM144.375 804.219q-24.4922 24.4922 -59.2969 24.4922t-60.5859 -24.4922
q-24.4922 -24.4922 -24.4922 -60.5859q0 -34.8047 24.4922 -59.2969l242.344 -242.344q25.7812 -25.7812 56.7188 -25.7812q14.1797 0 28.3594 5.15625l74.7656 -74.7656q-28.3594 -33.5156 -43.8281 -69.6094q7.73438 -3.86719 12.8906 -9.02344l125.039 -125.039
q5.15625 -5.15625 7.73438 -12.8906q54.1406 24.4922 100.547 70.8984q45.1172 45.1172 69.6094 97.9688q-9.02344 2.57812 -14.1797 7.73438l-125.039 125.039q-6.44531 5.15625 -9.02344 14.1797q-34.8047 -16.7578 -68.3203 -43.8281l-74.7656 74.7656
q5.15625 15.4688 5.15625 28.3594q0 32.2266 -25.7812 56.7188z" />
</svg>
