<?xml version="1.0" standalone="no"?>
<!DOCTYPE svg PUBLIC "-//W3C//DTD SVG 1.1//EN" "http://www.w3.org/Graphics/SVG/1.1/DTD/svg11.dtd" >
<svg xmlns="http://www.w3.org/2000/svg" xmlns:xlink="http://www.w3.org/1999/xlink" version="1.1" viewBox="-10 0 1066 1000">
   <path fill="currentColor"
d="M865.333 553q42.667 0 66.667 1.33301q56 5.33398 81.333 26.667q29.334 25.333 32 81.333h-490.666q1.33301 -56 32 -81.333q25.333 -21.333 81.333 -26.667q24 -1.33301 66.667 -1.33301h130.666zM668 486.333h264v50.667q-26.667 -2.66699 -66.667 -2.66699
q-10.666 0 -32 1.33398h-66.666q-21.334 -1.33398 -32 -1.33398q-40 0 -66.667 2.66699v-50.667zM401.333 -28.333q-17.333 0 -32 -16q-12 -12 -14.666 -25.334v-6.66602q0 -10.667 5.33301 -16l44 -44l85.333 -86.667q6.66699 -5.33301 16 -5.33301q17.334 0 33.334 14.666
q14.666 16 14.666 30.667q0 5.33301 -1.33301 10.667q-1.33301 5.33301 -4 8l-130.667 129.333q-2.66602 4 -8 5.33301q-2.66602 1.33398 -8 1.33398zM741.333 29q4 -2.66699 9.33398 -4q2.66602 -1.33301 6.66602 -1.33301q17.334 0 33.334 14.666q12 13.334 14.666 28v4
q0 10.667 -5.33301 17.334l-90.667 89.333l-40 40q-5.33301 5.33301 -16 5.33301q-17.333 0 -32 -14.666q-16 -16 -16 -32q0 -4 1.33398 -8q1.33301 -5.33398 5.33301 -9.33398zM170.667 531.667q-25.334 25.333 -61.334 25.333t-62.666 -25.333
q-25.334 -25.334 -25.334 -62.667q0 -36 25.334 -61.333l250.666 -250.667q26.667 -26.667 58.667 -26.667q14.667 0 29.333 5.33398l77.334 -77.334q-29.334 -34.666 -45.334 -72q8 -4 13.334 -9.33301l129.333 -129.333q5.33301 -5.33398 8 -13.334q56 25.334 104 73.334
q46.667 46.666 72 101.333q-9.33301 2.66699 -14.667 8l-129.333 129.333q-6.66699 5.33398 -9.33301 14.667q-36 -17.333 -70.667 -45.333l-77.333 77.333q5.33301 16 5.33301 29.333q0 33.334 -26.667 58.667z" />
</svg>
