<?xml version="1.0" standalone="no"?>
<!DOCTYPE svg PUBLIC "-//W3C//DTD SVG 1.1//EN" "http://www.w3.org/Graphics/SVG/1.1/DTD/svg11.dtd" >
<svg xmlns="http://www.w3.org/2000/svg" xmlns:xlink="http://www.w3.org/1999/xlink" version="1.1" viewBox="-10 0 1066 1000">
   <path fill="currentColor"
d="M1040 585q5.33301 26.667 5.33301 46.667q0 48 -36 48h-960q-28 0 -28 -37.334q0 -25.333 12 -66.666q14.667 -41.334 57.334 -101.334q52 -73.333 94.666 -96q29.334 -14.666 102.667 -34.666q62.667 -17.334 94.667 -42.667q46.666 61.333 94.666 80q22.667 8 58.667 8
t57.333 -8q49.334 -18.667 94.667 -80q30.667 22.667 96 40q70.667 16 101.333 37.333q70.667 46.667 118.667 128q34.667 58.667 36 78.667zM306.667 63.667q-1.33398 -14.667 -1.33398 -28q0 -44 17.334 -68v-20q0 -49.334 16 -89.334q30.666 -69.333 98.666 -72
q8 0 16 -5.33301q32 -26.667 89.334 -26.667q13.333 0 28 1.33398q78.666 9.33301 126.666 54.666q28 25.334 40 72q-13.333 -20 -33.333 -37.333q-65.333 -58.667 -158.667 -58.667q-62.666 0 -114.666 28v1.33398q42.666 -20 92 -20q90.666 0 156 58.666
q21.333 18.667 36 42.667q21.333 32 26.666 69.333q-4 -1.33301 -6.66602 -1.33301q-17.334 0 -32 20q-2.66699 4 -8 13.333q-4 8 -6.66699 12q-4 4 -5.33301 4q-2.66699 0 -4 -2.66602q-1.33398 -2.66699 -2.66699 -33.334q0 -13.333 -10.667 -13.333q-4 0 -8 1.33301
q-8 2.66699 -22.666 2.66699q-32 0 -94.667 -10.667q-88 -14.666 -118.667 -29.333q-5.33301 -2.66699 -10.666 -2.66699q-5.33398 0 -8 4q-4 5.33398 -6.66699 14.667q-2.66699 10.667 -5.33301 49.333q-1.33398 6.66699 -1.33398 8q-1.33301 10.667 -5.33301 10.667
q-1.33301 0 -2.66699 -1.33301q-2.66602 -2.66699 -8 -12q-8 -16 -17.333 -16q-10.667 0 -14.667 22.666q-4 14.667 -4 34.667q0 9.33301 1.33398 20q8 76 33.333 76q5.33301 0 6.66699 5.33301q18.666 92 98.666 137.334q26.667 14.666 54.667 14.666
q26.667 0 53.333 -13.333q38.667 -18.667 66.667 -57.333q28 -9.33398 52 -25.334q-32 72 -106.667 113.334q-32 18.666 -64 18.666q-33.333 0 -68 -21.333q-93.333 -56 -114.666 -144q-36 -21.333 -44 -101.333zM726.667 -17.667q4 -2.66602 9.33301 -2.66602
q9.33301 0 18.667 12q13.333 16 13.333 40q0 6.66602 -1.33301 13.333l-8 70.667q-2.66699 21.333 -16 33.333q-10.667 8 -21.334 8q-4 0 -9.33301 -1.33301q-5.33301 -2.66699 -13.333 -5.33398q-5.33398 -1.33301 -5.33398 -10.666q-2.66602 -20 -2.66602 -38.667
q0 -44 14.666 -86.667q8 -24 21.334 -32zM717.333 170.333q-4 4 -9.33301 8q-50.667 37.334 -120 49.334q-6.66699 17.333 -22.667 17.333h-64q-22.666 0 -22.666 -29.333q0 -29.334 22.666 -29.334h64q13.334 0 20 14.667q56 -9.33301 97.334 -37.333
q1.33301 -4 2.66602 -9.33398q2.66699 5.33398 16 9.33398q6.66699 1.33301 13.334 1.33301h6.66602q-1.33301 2.66699 -4 5.33301z" />
</svg>
