<?xml version="1.0" standalone="no"?>
<!DOCTYPE svg PUBLIC "-//W3C//DTD SVG 1.1//EN" "http://www.w3.org/Graphics/SVG/1.1/DTD/svg11.dtd" >
<svg xmlns="http://www.w3.org/2000/svg" xmlns:xlink="http://www.w3.org/1999/xlink" version="1.1" viewBox="-10 0 1010 1000">
   <path fill="currentColor"
d="M984.844 855.781q5.15625 25.7812 5.15625 45.1172q0 46.4062 -34.8047 46.4062h-928.125q-27.0703 0 -27.0703 -36.0938q0 -24.4922 11.6016 -64.4531q14.1797 -39.9609 55.4297 -97.9688q50.2734 -70.8984 91.5234 -92.8125q28.3594 -14.1797 99.2578 -33.5156
q60.5859 -16.7578 91.5234 -41.25q45.1172 59.2969 91.5234 77.3438q21.9141 7.73438 56.7188 7.73438t55.4297 -7.73438q47.6953 -18.0469 91.5234 -77.3438q29.6484 21.9141 92.8125 38.6719q68.3203 15.4688 97.9688 36.0938q68.3203 45.1172 114.727 123.75
q33.5156 56.7188 34.8047 76.0547zM275.859 351.758q-1.28906 -14.1797 -1.28906 -27.0703q0 -42.5391 16.7578 -65.7422v-19.3359q0 -47.6953 15.4688 -86.3672q29.6484 -67.0312 95.3906 -69.6094q7.73438 0 15.4688 -5.15625q30.9375 -25.7812 86.3672 -25.7812
q12.8906 0 27.0703 1.28906q76.0547 9.02344 122.461 52.8516q27.0703 24.4922 38.6719 69.6094q-12.8906 -19.3359 -32.2266 -36.0938q-63.1641 -56.7188 -153.398 -56.7188q-60.5859 0 -110.859 27.0703v1.28906q41.25 -19.3359 88.9453 -19.3359
q87.6562 0 150.82 56.7188q20.625 18.0469 34.8047 41.25q20.625 30.9375 25.7812 67.0312q-3.86719 -1.28906 -6.44531 -1.28906q-16.7578 0 -30.9375 19.3359q-2.57812 3.86719 -7.73438 12.8906q-3.86719 7.73438 -6.44531 11.6016q-3.86719 3.86719 -5.15625 3.86719
q-2.57812 0 -3.86719 -2.57812t-2.57812 -32.2266q0 -12.8906 -10.3125 -12.8906q-3.86719 0 -7.73438 1.28906q-7.73438 2.57812 -21.9141 2.57812q-30.9375 0 -91.5234 -10.3125q-85.0781 -14.1797 -114.727 -28.3594q-5.15625 -2.57812 -10.3125 -2.57812
t-7.73438 3.86719q-3.86719 5.15625 -6.44531 14.1797q-2.57812 10.3125 -5.15625 47.6953q-1.28906 6.44531 -1.28906 7.73438q-1.28906 10.3125 -5.15625 10.3125q-1.28906 0 -2.57812 -1.28906q-2.57812 -2.57812 -7.73438 -11.6016q-7.73438 -15.4688 -16.7578 -15.4688
q-10.3125 0 -14.1797 21.9141q-3.86719 14.1797 -3.86719 33.5156q0 9.02344 1.28906 19.3359q7.73438 73.4766 32.2266 73.4766q5.15625 0 6.44531 5.15625q18.0469 88.9453 95.3906 132.773q25.7812 14.1797 52.8516 14.1797q25.7812 0 51.5625 -12.8906
q37.3828 -18.0469 64.4531 -55.4297q27.0703 -9.02344 50.2734 -24.4922q-30.9375 69.6094 -103.125 109.57q-30.9375 18.0469 -61.875 18.0469q-32.2266 0 -65.7422 -20.625q-90.2344 -54.1406 -110.859 -139.219q-34.8047 -20.625 -42.5391 -97.9688zM681.914 273.125
q3.86719 -2.57812 9.02344 -2.57812q9.02344 0 18.0469 11.6016q12.8906 15.4688 12.8906 38.6719q0 6.44531 -1.28906 12.8906l-7.73438 68.3203q-2.57812 20.625 -15.4688 32.2266q-10.3125 7.73438 -20.625 7.73438q-3.86719 0 -9.02344 -1.28906
q-5.15625 -2.57812 -12.8906 -5.15625q-5.15625 -1.28906 -5.15625 -10.3125q-2.57812 -19.3359 -2.57812 -37.3828q0 -42.5391 14.1797 -83.7891q7.73438 -23.2031 20.625 -30.9375zM672.891 454.883q-3.86719 3.86719 -9.02344 7.73438q-48.9844 36.0938 -116.016 47.6953
q-6.44531 16.7578 -21.9141 16.7578h-61.875q-21.9141 0 -21.9141 -28.3594t21.9141 -28.3594h61.875q12.8906 0 19.3359 14.1797q54.1406 -9.02344 94.1016 -36.0938q1.28906 -3.86719 2.57812 -9.02344q2.57812 5.15625 15.4688 9.02344q6.44531 1.28906 12.8906 1.28906
h6.44531q-1.28906 2.57812 -3.86719 5.15625z" />
</svg>
