<?xml version="1.0" standalone="no"?>
<!DOCTYPE svg PUBLIC "-//W3C//DTD SVG 1.1//EN" "http://www.w3.org/Graphics/SVG/1.1/DTD/svg11.dtd" >
<svg xmlns="http://www.w3.org/2000/svg" xmlns:xlink="http://www.w3.org/1999/xlink" version="1.1" viewBox="-10 0 1010 1000">
   <path fill="currentColor"
d="M867.38 402.549q0 5.16309 11.6162 5.16309h9.03516q3.87207 -1.29102 5.16309 -5.16309v-1.29102q0 -2.58105 -2.58105 -3.87207q-9.03516 -5.16309 -14.1982 -5.16309q-6.4541 0 -9.03516 7.74512v2.58105zM987.419 492.901q2.58105 1.29004 2.58105 3.87207v1.29004
q0 6.4541 -3.87207 11.6172q-1.29102 1.29102 -1.29102 2.58105v2.58203q1.29102 7.74414 1.29102 12.9072q0 12.9072 -7.74414 16.7793q-3.87207 2.58203 -7.74512 2.58203q-5.16211 0 -11.6162 -6.4541q-1.29102 -2.58105 -3.87207 -2.58105q-1.29102 0 -3.87207 2.58105
l-1.29102 2.58203q-1.29102 1.29004 -1.29102 3.87207q0 1.29102 1.29102 2.58105v1.29102q1.29102 1.29102 1.29102 3.87207v1.29102q-1.29102 3.87207 -5.16309 3.87207q-9.03516 0 -14.1982 -3.87207q1.29102 0 -65.8281 -45.1758l-28.3965 -6.4541
q-27.1055 -6.4541 -50.3389 -23.2334q-21.9424 -16.7793 -21.9424 -40.0127q0 -18.0703 11.6162 -40.0137q1.29102 -1.29004 1.29102 -2.58105q0 -3.87207 -5.16309 -5.16309h-2.58105q-1.29102 0 -2.58203 1.29102q-20.6514 29.6865 -20.6514 51.6299
q0 10.3252 5.16309 19.3604q1.29004 1.29102 1.29004 3.87305q0 2.58105 -3.87207 3.87207q-70.9912 24.5234 -125.202 85.1885q-1.29102 1.29102 -3.87207 1.29102q-1.29102 0 -3.87207 -2.58105l-154.89 -189.739q-2.58105 -2.58203 -2.58105 -5.16309
q0 -2.58203 5.16309 -3.87207q6.45312 -1.29102 11.6162 -3.87305q3.87207 -1.29004 3.87207 -3.87207q0 -3.87207 -2.58105 -5.16309q-24.5244 -16.7793 -36.1406 -30.9775v-6.4541q2.58105 -2.58105 5.16309 -2.58105h1.29004q27.1064 7.74414 98.0967 15.4893
q3.87207 0 5.16309 -2.58203q1.29102 -1.29102 1.29102 -2.58105q0 -2.58203 -1.29102 -3.87207q-5.16309 -7.74512 -7.74414 -15.4893v-1.29102q0 -3.87207 2.58105 -5.16309q2.58203 -1.29004 3.87207 -1.29004q1.29102 0 2.58203 1.29004
q11.6162 11.6172 33.5596 20.6523q1.29004 1.29102 2.58105 1.29102q2.58105 0 3.87207 -1.29102q1.29102 -2.58203 1.29102 -3.87207q0 -1.29102 -1.29102 -2.58203q-6.45312 -12.9072 -6.45312 -23.2334v-1.29004q0 -2.58203 2.58105 -3.87305
q1.29102 -1.29004 2.58105 -1.29004q1.29102 0 2.58203 1.29004q16.7793 10.3262 49.0479 15.4893h1.29102q2.58105 0 3.87207 -2.58105q1.29102 -1.29102 1.29102 -2.58203t-1.29102 -2.58105q-3.87207 -6.4541 -6.45312 -14.1982v-1.29102q0 -3.87207 2.58105 -5.16309
q1.29102 -1.29102 2.58105 -1.29102q2.58203 0 3.87305 2.58203q9.03516 10.3262 24.5234 18.0703h1.29102q2.58105 0 3.87207 -1.29102q2.58203 -1.29004 2.58203 -5.16309q-1.29102 -6.45312 -1.29102 -12.9072q0 -9.03516 2.58105 -16.7793
q1.29102 -3.87207 5.16309 -3.87207t5.16309 2.58105q11.6172 27.1055 50.3389 32.2686q33.5596 5.16309 51.6299 28.3965q1.29102 2.58105 3.87207 2.58105h1.29102q2.58105 -1.29004 3.87207 -3.87207q5.16309 -23.2334 10.3262 -36.1406
q2.58105 -2.58105 5.16309 -2.58105h1.29102q3.87207 0 3.87207 5.16309q3.87207 29.6865 12.9072 42.5938q2.58105 2.58203 3.87207 2.58203q2.58203 0 3.87207 -1.29102q5.16309 -5.16309 11.6172 -7.74414h1.29004q3.87305 0 5.16309 2.58105
q1.29102 1.29102 1.29102 2.58203q0 2.58105 -2.58105 3.87207q-7.74512 7.74414 -10.3262 18.0703v5.16309q25.8145 28.3965 64.5371 56.792q2.58105 1.29102 2.58105 5.16309q-1.29004 2.58203 -2.58105 6.4541q-1.29102 1.29102 -1.29102 2.58105
q0 1.29102 1.29102 2.58203q46.4668 69.7002 69.7002 80.0264zM148.436 646.499q2.58203 3.87207 6.4541 3.87207q2.58105 0 5.16309 -2.58105l47.7568 -38.7227q2.58203 -2.58105 5.16309 -2.58105q3.87207 0 6.4541 3.87207l41.3037 51.6299
q2.58105 3.87207 6.4541 3.87207q2.58105 0 5.16211 -2.58105l60.665 -49.0488q3.87207 -2.58105 3.87207 -6.45312q0 -2.58203 -2.58105 -5.16309l-41.3037 -50.3389q-2.58203 -3.87207 -2.58203 -6.4541q0 -3.87207 3.87305 -6.4541l60.665 -47.7568
q2.58105 -2.58203 5.16211 -2.58203q3.87305 0 6.4541 3.87305l41.3037 50.3389q2.58203 3.87207 6.4541 3.87207q2.58105 0 5.16309 -2.58203l45.1758 -36.1406q3.87207 -2.58105 3.87207 -6.45312q0 -2.58203 -2.58105 -6.4541l-41.3047 -50.3389
q-2.58105 -3.87207 -6.45312 -3.87207q-2.58203 0 -5.16309 2.58105l-45.1758 36.1406q-2.58203 2.58203 -5.16309 2.58203q-3.87207 0 -6.4541 -3.87207l-51.6299 -63.2471q-2.58105 -2.58105 -2.58105 -6.45312q0 -2.58203 3.87207 -6.4541l43.8857 -36.1406
q3.87207 -2.58203 3.87207 -6.4541q0 -2.58105 -2.58203 -5.16309l-40.0127 -50.3389q-2.58105 -3.87207 -6.4541 -3.87207q-2.58105 0 -6.45312 2.58203l-45.1758 36.1406q-3.87305 2.58105 -3.87305 6.45312q0 2.58203 2.58203 5.16309l41.3037 50.3389
q2.58105 3.87305 2.58105 6.4541q0 3.87207 -3.87207 6.4541l-59.374 47.7568q-3.87207 3.87207 -3.87207 7.74512q0 2.58105 2.58105 5.16211l51.6299 63.2471q2.58203 2.58105 2.58203 5.16309q0 3.87207 -3.87305 7.74414l-60.6641 47.7578
q-2.58203 2.58105 -5.16309 2.58105q-3.87305 0 -6.4541 -3.87207l-51.6299 -63.2461q-2.58105 -3.87305 -2.58105 -6.4541q0 -3.87207 3.87207 -6.4541l59.374 -47.7568q3.87207 -2.58203 3.87207 -6.4541q0 -2.58105 -2.58105 -6.45312l-40.0137 -50.3398
q-3.87207 -3.87207 -7.74414 -3.87207q-2.58105 0 -5.16309 2.58203l-59.374 49.0479q-3.87207 2.58203 -3.87207 6.4541q0 2.58105 2.58105 5.16309l40.0137 50.3389q2.58105 2.58105 2.58105 6.45312q0 2.58203 -3.87207 6.4541l-46.4668 37.4316
q-3.87207 2.58105 -3.87207 6.45312q0 2.58203 2.58105 5.16309zM305.906 254.113q2.58203 -2.58105 3.87207 -2.58105q2.58203 0 3.87207 2.58105l209.101 259.439l165.216 202.646q5.16211 5.16309 5.16211 11.6172q0 6.45312 -7.74414 11.6162
q-3.87207 3.87207 -9.03516 3.87207h-2.58105q-7.74512 0 -11.6172 -6.45312l-162.634 -198.774l-1.29004 -2.58203q-3.87305 -3.87207 -7.74512 -3.87207q-2.58105 0 -5.16309 2.58203l-271.056 219.426q-6.4541 3.87207 -12.9072 3.87207
q-6.4541 -1.29004 -11.6172 -6.45312l-187.157 -231.043q-2.58203 -3.87207 -2.58203 -9.03516v-3.87305q0 -6.45312 5.16309 -11.6162z" />
</svg>
