<?xml version="1.0" standalone="no"?>
<!DOCTYPE svg PUBLIC "-//W3C//DTD SVG 1.1//EN" "http://www.w3.org/Graphics/SVG/1.1/DTD/svg11.dtd" >
<svg xmlns="http://www.w3.org/2000/svg" xmlns:xlink="http://www.w3.org/1999/xlink" version="1.1" viewBox="-10 0 1067 1000">
   <path fill="currentColor"
d="M919.864 115.702q0 5.33984 12.0156 5.33984h9.3457q4.00488 -1.33496 5.33984 -5.33984v-1.33496q0 -2.66992 -2.66992 -4.00586q-9.3457 -5.33984 -14.6855 -5.33984q-6.67578 0 -9.3457 8.01074v2.66992zM1044.03 209.157q2.66992 1.33496 2.66992 4.00488v1.33496
q0 6.67578 -4.00488 12.0156q-1.33594 1.33496 -1.33594 2.6709v2.66992q1.33594 8.00977 1.33594 13.3506q0 13.3506 -8.01074 17.3555q-4.00488 2.6709 -8.01074 2.6709q-5.33984 0 -12.0156 -6.67578q-1.33496 -2.66992 -4.00488 -2.66992q-1.33496 0 -4.00488 2.66992
l-1.33594 2.66992q-1.33496 1.33496 -1.33496 4.00586q0 1.33496 1.33496 2.66992v1.33496q1.33594 1.33496 1.33594 4.00488v1.33496q-1.33594 4.00586 -5.34082 4.00586q-9.3457 0 -14.6855 -4.00586q1.33496 0 -68.0889 -46.7275l-29.3711 -6.6748
q-28.0371 -6.67578 -52.0684 -24.0312q-22.6963 -17.3564 -22.6963 -41.3877q0 -18.6904 12.0156 -41.3867q1.33496 -1.33496 1.33496 -2.66992q0 -4.00586 -5.33984 -5.34082h-2.66992q-1.33496 0 -2.6709 1.33496q-21.3604 30.707 -21.3604 53.4033
q0 10.6807 5.33984 20.0254q1.33496 1.33594 1.33496 4.00586t-4.00488 4.00488q-73.4287 25.3662 -129.502 88.1152q-1.33496 1.33496 -4.00586 1.33496q-1.33496 0 -4.00488 -2.66992l-160.208 -196.256q-2.6709 -2.66992 -2.6709 -5.34082q0 -2.66992 5.34082 -4.00488
q6.6748 -1.33496 12.0156 -4.00488q4.00488 -1.33496 4.00488 -4.00586q0 -4.00488 -2.66992 -5.33984q-25.3662 -17.3564 -37.3818 -32.042v-6.6748q2.66992 -2.6709 5.33984 -2.6709h1.33496q28.0371 8.01074 101.466 16.0215q4.00488 0 5.33984 -2.66992
q1.33496 -1.33594 1.33496 -2.6709q0 -2.66992 -1.33496 -4.00488q-5.33984 -8.01074 -8.00977 -16.0205v-1.33496q0 -4.00586 2.66992 -5.34082t4.00488 -1.33496t2.66992 1.33496q12.0156 12.0156 34.7119 21.3613q1.33594 1.33496 2.6709 1.33496
q2.66992 0 4.00488 -1.33496q1.33496 -2.66992 1.33496 -4.00488q0 -1.33594 -1.33496 -2.6709q-6.67578 -13.3506 -6.67578 -24.0312v-1.33496q0 -2.66992 2.6709 -4.00488q1.33496 -1.33496 2.66992 -1.33496t2.66992 1.33496q17.3564 10.6807 50.7324 16.0205h1.33594
q2.66992 0 4.00488 -2.66992q1.33496 -1.33496 1.33496 -2.66992t-1.33496 -2.66992q-4.00488 -6.67578 -6.67578 -14.6865v-1.33496q0 -4.00488 2.6709 -5.33984q1.33496 -1.33496 2.66992 -1.33496q2.66992 0 4.00488 2.66992q9.3457 10.6807 25.3662 18.6904h1.33496
q2.6709 0 4.00586 -1.33496q2.66992 -1.33496 2.66992 -5.33984q-1.33496 -6.67578 -1.33496 -13.3506q0 -9.3457 2.66992 -17.3564q1.33496 -4.00488 5.33984 -4.00488q4.00586 0 5.34082 2.66992q12.0156 28.0361 52.0674 33.377q34.7119 5.33984 53.4033 29.3711
q1.33496 2.6709 4.00488 2.6709h1.33496q2.6709 -1.33496 4.00586 -4.00586q5.33984 -24.0312 10.6807 -37.3818q2.66992 -2.66992 5.33984 -2.66992h1.33496q4.00586 0 4.00586 5.33984q4.00488 30.707 13.3506 44.0576q2.66992 2.66992 4.00488 2.66992
q2.66992 0 4.00488 -1.33496q5.34082 -5.33984 12.0156 -8.00977h1.33496q4.00586 0 5.34082 2.66992q1.33496 1.33496 1.33496 2.66992q0 2.66992 -2.66992 4.00488q-8.01074 8.01074 -10.6807 18.6914v5.33984q26.7012 29.3721 66.7539 58.7432
q2.66992 1.33496 2.66992 5.34082q-1.33496 2.66992 -2.66992 6.6748q-1.33594 1.33594 -1.33594 2.6709t1.33594 2.66992q48.0625 72.0938 72.0938 82.7744zM176.229 368.03q2.66992 4.00586 6.67578 4.00586q2.66992 0 5.33984 -2.6709l49.3975 -40.0518
q2.66992 -2.66992 5.34082 -2.66992q4.00488 0 6.6748 4.00488l42.7227 53.4033q2.66992 4.00488 6.6748 4.00488q2.6709 0 5.34082 -2.66992l62.748 -50.7324q4.00586 -2.6709 4.00586 -6.67578q0 -2.66992 -2.6709 -5.33984l-42.7217 -52.0684
q-2.6709 -4.00488 -2.6709 -6.6748q0 -4.00586 4.00586 -6.67578l62.748 -49.3975q2.66992 -2.66992 5.34082 -2.66992q4.00488 0 6.6748 4.00488l42.7227 52.0674q2.66992 4.00586 6.6748 4.00586q2.6709 0 5.34082 -2.6709l46.7275 -37.3818
q4.00488 -2.66992 4.00488 -6.6748q0 -2.6709 -2.66992 -6.67578l-42.7227 -52.0674q-2.66992 -4.00586 -6.6748 -4.00586q-2.6709 0 -5.34082 2.6709l-46.7275 37.3818q-2.66992 2.66992 -5.33984 2.66992q-4.00586 0 -6.67578 -4.00488l-53.4023 -65.4189
q-2.6709 -2.66992 -2.6709 -6.6748q0 -2.6709 4.00586 -6.67578l45.3926 -37.3818q4.00488 -2.66992 4.00488 -6.67578q0 -2.66992 -2.66992 -5.33984l-41.3877 -52.0684q-2.66992 -4.00488 -6.6748 -4.00488q-2.6709 0 -6.67578 2.66992l-46.7275 37.3818
q-4.00488 2.6709 -4.00488 6.67578q0 2.66992 2.66992 5.33984l42.7227 52.0684q2.66992 4.00488 2.66992 6.6748q0 4.00586 -4.00488 6.67578l-61.4141 49.3975q-4.00488 4.00488 -4.00488 8.01074q0 2.66992 2.66992 5.33984l53.4033 65.4189
q2.66992 2.66992 2.66992 5.33984q0 4.00586 -4.00488 8.01074l-62.749 49.3975q-2.66992 2.66992 -5.33984 2.66992q-4.00488 0 -6.67578 -4.00488l-53.4023 -65.418q-2.66992 -4.00586 -2.66992 -6.67578q0 -4.00488 4.00488 -6.67578l61.4131 -49.3975
q4.00488 -2.66992 4.00488 -6.6748q0 -2.6709 -2.66992 -6.67578l-41.3867 -52.0674q-4.00586 -4.00586 -8.01074 -4.00586q-2.66992 0 -5.33984 2.6709l-61.4141 50.7324q-4.00488 2.66992 -4.00488 6.6748q0 2.6709 2.66992 5.34082l41.3877 52.0674
q2.66992 2.66992 2.66992 6.67578q0 2.66992 -4.00488 6.6748l-48.0625 38.7178q-4.00586 2.66992 -4.00586 6.6748q0 2.66992 2.66992 5.34082zM339.108 -37.8311q2.66992 -2.66992 4.00488 -2.66992q2.66992 0 4.00488 2.66992l216.282 268.35l170.889 209.605
q5.34082 5.34082 5.34082 12.0166q0 6.6748 -8.01074 12.0156q-4.00488 4.00488 -9.3457 4.00488h-2.66992q-8.01074 0 -12.0156 -6.67578l-168.219 -205.601l-1.33496 -2.66992q-4.00586 -4.00586 -8.01074 -4.00586q-2.66992 0 -5.33984 2.6709l-280.365 226.962
q-6.67578 4.00488 -13.3506 4.00488q-6.67578 -1.33496 -12.0156 -6.6748l-193.586 -238.979q-2.66992 -4.00488 -2.66992 -9.3457v-4.00488q0 -6.6748 5.33984 -12.0156z" />
</svg>
