<?xml version="1.0" standalone="no"?>
<!DOCTYPE svg PUBLIC "-//W3C//DTD SVG 1.1//EN" "http://www.w3.org/Graphics/SVG/1.1/DTD/svg11.dtd" >
<svg xmlns="http://www.w3.org/2000/svg" xmlns:xlink="http://www.w3.org/1999/xlink" version="1.1" viewBox="-10 0 1066 1000">
   <path fill="currentColor"
d="M522.667 249q36 0 50.666 17.333q14.667 17.334 14.667 61.334v56q0 62.666 -52 62.666h-57.333v-197.333h44zM578.667 89q0 68 -61.334 68h-38.666v-169.333h48q52 0 52 65.333v36zM689.333 334.333q0 -109.333 -74.666 -138.666q65.333 -30.667 65.333 -129.334
v-22.666q0 -148 -150.667 -148h-152v642.666h158.667q153.333 0 153.333 -152v-52zM533.333 -295q212 0 362.667 149.333q149.333 150.667 149.333 362.667t-149.333 362.667q-150.667 149.333 -362.667 149.333t-362.666 -149.333q-149.334 -150.667 -149.334 -362.667
t149.334 -362.667q150.666 -149.333 362.666 -149.333z" />
</svg>
