<?xml version="1.0" standalone="no"?>
<!DOCTYPE svg PUBLIC "-//W3C//DTD SVG 1.1//EN" "http://www.w3.org/Graphics/SVG/1.1/DTD/svg11.dtd" >
<svg xmlns="http://www.w3.org/2000/svg" xmlns:xlink="http://www.w3.org/1999/xlink" version="1.1" viewBox="-10 0 1010 1000">
   <path fill="currentColor"
d="M484.688 530.938q34.8047 0 48.9844 16.7578t14.1797 59.2969v54.1406q0 60.5859 -50.2734 60.5859h-55.4297v-190.781h42.5391zM538.828 376.25q0 65.7422 -59.2969 65.7422h-37.3828v-163.711h46.4062q50.2734 0 50.2734 63.1641v34.8047zM645.82 613.438
q0 -105.703 -72.1875 -134.062q63.1641 -29.6484 63.1641 -125.039v-21.9141q0 -143.086 -145.664 -143.086h-146.953v621.328h153.398q148.242 0 148.242 -146.953v-50.2734zM495 5q204.961 0 350.625 144.375q144.375 145.664 144.375 350.625t-144.375 350.625
q-145.664 144.375 -350.625 144.375t-350.625 -144.375q-144.375 -145.664 -144.375 -350.625t144.375 -350.625q145.664 -144.375 350.625 -144.375z" />
</svg>
