<?xml version="1.0" standalone="no"?>
<!DOCTYPE svg PUBLIC "-//W3C//DTD SVG 1.1//EN" "http://www.w3.org/Graphics/SVG/1.1/DTD/svg11.dtd" >
<svg xmlns="http://www.w3.org/2000/svg" xmlns:xlink="http://www.w3.org/1999/xlink" version="1.1" viewBox="-10 0 872 1000">
   <path fill="currentColor"
d="M314.531 142.93q-3.86719 -33.5156 -27.0703 -55.4297q-24.4922 -21.9141 -56.7188 -21.9141q-34.8047 0 -59.2969 24.4922q-24.4922 25.7812 -24.4922 61.875q0 33.5156 21.9141 58.0078q20.625 24.4922 52.8516 27.0703v1.28906h92.8125v-95.3906zM372.539 136.484
v161.133h-155.977q-54.1406 -6.44531 -91.5234 -47.6953t-37.3828 -97.9688q0 -61.875 42.5391 -104.414q41.25 -42.5391 100.547 -42.5391q55.4297 0 95.3906 38.6719q41.25 37.3828 46.4062 92.8125zM542.695 244.766q28.3594 -3.86719 47.6953 -24.4922
q18.0469 -21.9141 18.0469 -51.5625q0 -32.2266 -20.625 -54.1406q-21.9141 -21.9141 -52.8516 -21.9141q-28.3594 0 -50.2734 19.3359q-20.625 19.3359 -23.2031 48.9844h-1.28906v83.7891h82.5zM547.852 297.617h-137.93v-141.797q5.15625 -48.9844 39.9609 -82.5
q36.0938 -33.5156 85.0781 -33.5156q52.8516 0 88.9453 37.3828q37.3828 37.3828 37.3828 91.5234q0 50.2734 -33.5156 86.3672q-32.2266 37.3828 -79.9219 42.5391zM0 686.914h359.648v308.086h-359.648v-308.086zM422.812 686.914h351.914v308.086h-351.914v-308.086z
M422.812 329.844h351.914v293.906h-351.914v-293.906zM0 329.844h359.648v293.906h-359.648v-293.906z" />
</svg>
