<?xml version="1.0" standalone="no"?>
<!DOCTYPE svg PUBLIC "-//W3C//DTD SVG 1.1//EN" "http://www.w3.org/Graphics/SVG/1.1/DTD/svg11.dtd" >
<svg xmlns="http://www.w3.org/2000/svg" xmlns:xlink="http://www.w3.org/1999/xlink" version="1.1" viewBox="-10 0 1034 1000">
   <path fill="currentColor"
d="M457.333 -152.333q-4 -34.667 -28 -57.334q-25.333 -22.666 -58.666 -22.666q-36 0 -61.334 25.333q-25.333 26.667 -25.333 64q0 34.667 22.667 60q21.333 25.333 54.666 28v1.33301h96v-98.666zM517.333 -159v166.667h-161.333q-56 -6.66699 -94.667 -49.334
q-38.666 -42.666 -38.666 -101.333q0 -64 44 -108q42.666 -44 104 -44q57.333 0 98.666 40q42.667 38.667 48 96zM693.333 -47q29.334 -4 49.334 -25.333q18.666 -22.667 18.666 -53.334q0 -33.333 -21.333 -56q-22.667 -22.666 -54.667 -22.666q-29.333 0 -52 20
q-21.333 20 -24 50.666h-1.33301v86.667h85.333zM698.667 7.66699h-142.667v-146.667q5.33301 -50.667 41.333 -85.333q37.334 -34.667 88 -34.667q54.667 0 92 38.667q38.667 38.666 38.667 94.666q0 52 -34.667 89.334q-33.333 38.666 -82.666 44zM132 410.333h372
v318.667h-372v-318.667zM569.333 410.333h364v318.667h-364v-318.667zM569.333 41h364v304h-364v-304zM132 41h372v304h-372v-304z" />
</svg>
