<?xml version="1.0" standalone="no"?>
<!DOCTYPE svg PUBLIC "-//W3C//DTD SVG 1.1//EN" "http://www.w3.org/Graphics/SVG/1.1/DTD/svg11.dtd" >
<svg xmlns="http://www.w3.org/2000/svg" xmlns:xlink="http://www.w3.org/1999/xlink" version="1.1" viewBox="-10 0 1010 1000">
   <path fill="currentColor"
d="M277.148 514.824l2.57812 6.44531v1.28906q0 3.86719 -3.86719 6.44531q-5.15625 3.86719 -16.7578 12.8906q-10.3125 7.73438 -15.4688 12.8906l-21.9141 16.7578l-7.73438 5.15625q-1.28906 1.28906 -3.86719 1.28906q-1.28906 0 -3.86719 -1.28906
q1.28906 1.28906 -33.5156 -21.9141q-2.57812 -1.28906 -23.2031 -15.4688q-11.6016 -7.73438 -11.6016 -11.6016v-1.28906l10.3125 -38.6719q5.15625 -19.3359 6.44531 -24.4922q1.28906 -1.28906 2.57812 -5.15625t1.28906 -6.44531q2.57812 -6.44531 6.44531 -6.44531
h6.44531l41.25 -2.57812h14.1797q9.02344 0 12.8906 -1.28906q7.73438 0 7.73438 1.28906q2.57812 0 5.15625 6.44531q7.73438 20.625 14.1797 38.6719zM402.188 566.387q-15.4688 54.1406 -56.7188 91.5234q-50.2734 45.1172 -117.305 52.8516
q-11.6016 1.28906 -21.9141 1.28906q-51.5625 0 -96.6797 -24.4922q-58.0078 -30.9375 -87.6562 -88.9453q-21.9141 -43.8281 -21.9141 -90.2344q0 -16.7578 2.57812 -33.5156q10.3125 -61.875 52.8516 -108.281q10.3125 -11.6016 23.2031 -20.625
q52.8516 -42.5391 119.883 -43.8281h9.02344q58.0078 0 106.992 30.9375q28.3594 16.7578 48.9844 42.5391l-58.0078 48.9844l-14.1797 -3.86719l-20.625 -5.15625q-2.57812 0 -6.44531 -6.44531q-3.86719 -2.57812 -9.02344 -10.3125q-3.86719 -6.44531 -12.8906 -18.0469
q-9.02344 -10.3125 -12.8906 -16.7578l-5.15625 -5.15625q-1.28906 -1.28906 -1.28906 -3.86719q0 -3.86719 6.44531 -6.44531q2.57812 -1.28906 9.02344 -3.86719t10.3125 -3.86719l5.15625 -2.57812q-24.4922 -7.73438 -50.2734 -7.73438q-19.3359 0 -39.9609 5.15625
q-2.57812 1.28906 -2.57812 3.86719t2.57812 3.86719q10.3125 2.57812 9.02344 2.57812q6.44531 1.28906 6.44531 6.44531q0 1.28906 -1.28906 2.57812l-3.86719 6.44531l-21.9141 34.8047q-1.28906 2.57812 -3.86719 6.44531l-3.86719 7.73438
q-3.86719 5.15625 -6.44531 6.44531q-5.15625 2.57812 -18.0469 6.44531q-11.6016 3.86719 -16.7578 5.15625l-25.7812 9.02344q-6.44531 2.57812 -7.73438 2.57812q-3.86719 -1.28906 -5.15625 -10.3125q0 -5.15625 -1.28906 -14.1797q0 -2.57812 -2.57812 -3.86719
q-2.57812 0 -3.86719 2.57812q-25.7812 39.9609 -27.0703 88.9453q0 2.57812 2.57812 2.57812h1.28906q1.28906 0 2.57812 -1.28906l3.86719 -3.86719q1.28906 -3.86719 2.57812 -5.15625q5.15625 -7.73438 7.73438 -7.73438t7.73438 5.15625
q14.1797 16.7578 29.6484 32.2266q1.28906 2.57812 5.15625 6.44531l5.15625 5.15625q5.15625 5.15625 5.15625 7.73438l1.28906 21.9141q1.28906 7.73438 1.28906 21.9141q1.28906 15.4688 2.57812 21.9141q0 9.02344 -5.15625 9.02344q-1.28906 0 -10.3125 -1.28906
q-3.86719 0 -11.6016 -1.28906q-6.44531 -1.28906 -10.3125 -2.57812h-5.15625q34.8047 43.8281 88.9453 60.5859h1.28906q1.28906 0 2.57812 -1.28906t1.28906 -2.57812t-1.28906 -1.28906q-3.86719 -5.15625 -5.15625 -9.02344l-9.02344 -10.3125
q-2.57812 -2.57812 -2.57812 -5.15625t3.86719 -5.15625l39.9609 -16.7578l23.2031 -10.3125h2.57812q2.57812 0 6.44531 1.28906q1.28906 0 6.44531 1.28906t6.44531 2.57812q7.73438 2.57812 23.2031 6.44531q14.1797 3.86719 21.9141 6.44531t9.02344 5.15625
q0 2.57812 -5.15625 11.6016l-9.02344 15.4688q2.57812 1.28906 2.57812 2.57812l2.57812 2.57812q46.4062 -20.625 74.7656 -63.1641l1.28906 -1.28906q0 -1.28906 -1.28906 -2.57812t-2.57812 -1.28906h-1.28906q-1.28906 1.28906 -5.15625 1.28906
q-3.86719 1.28906 -5.15625 2.57812q-7.73438 2.57812 -9.02344 2.57812q-5.15625 -1.28906 -5.15625 -7.73438q-1.28906 -6.44531 -2.57812 -19.3359q-1.28906 -14.1797 -1.28906 -20.625l-2.57812 -25.7812q0 -2.57812 7.73438 -14.1797
q1.28906 -2.57812 3.86719 -6.44531t3.86719 -5.15625zM569.766 657.91v-43.8281h-105.703v-87.6562h105.703v-43.8281l105.703 87.6562zM541.406 498.066h-104.414v43.8281l-105.703 -87.6562l105.703 -87.6562v43.8281h104.414v87.6562zM964.219 516.113h2.57812
q3.86719 0 3.86719 -5.15625q1.28906 -9.02344 1.28906 -18.0469q0 -6.44531 -1.28906 -12.8906q0 -6.44531 -6.44531 -6.44531l-24.4922 2.57812q-5.15625 0 -5.15625 3.86719v29.6484q0 3.86719 5.15625 5.15625zM952.617 574.121q1.28906 -1.28906 1.28906 -3.86719
t-3.86719 -3.86719l-21.9141 -10.3125q-1.28906 -1.28906 -3.86719 -1.28906t-3.86719 3.86719q-6.44531 11.6016 -14.1797 21.9141q-1.28906 1.28906 -1.28906 3.86719t3.86719 3.86719l20.625 14.1797q1.28906 1.28906 3.86719 1.28906q1.28906 0 3.86719 -2.57812
q9.02344 -12.8906 15.4688 -27.0703zM910.078 400.098q-2.57812 2.57812 -2.57812 5.15625q0 1.28906 1.28906 3.86719q7.73438 10.3125 12.8906 21.9141q1.28906 3.86719 3.86719 3.86719t3.86719 -1.28906l21.9141 -10.3125q5.15625 -1.28906 5.15625 -5.15625
q0 -1.28906 -1.28906 -2.57812q-6.44531 -14.1797 -15.4688 -28.3594q-2.57812 -2.57812 -5.15625 -2.57812q-1.28906 0 -3.86719 1.28906zM890.742 647.598q2.57812 -2.57812 2.57812 -5.15625q0 -1.28906 -1.28906 -3.86719l-14.1797 -20.625
q-2.57812 -2.57812 -5.15625 -2.57812q-1.28906 0 -2.57812 1.28906q-11.6016 7.73438 -23.2031 12.8906q-3.86719 1.28906 -3.86719 3.86719t1.28906 3.86719l10.3125 23.2031q2.57812 3.86719 5.15625 3.86719t3.86719 -1.28906q14.1797 -6.44531 27.0703 -15.4688z
M800.508 679.824q5.15625 -1.28906 5.15625 -6.44531l-2.57812 -24.4922q0 -6.44531 -6.44531 -6.44531q-6.44531 1.28906 -12.8906 1.28906q-5.15625 0 -11.6016 -1.28906q-6.44531 0 -6.44531 6.44531l-2.57812 24.4922q0 5.15625 6.44531 6.44531h30.9375z
M724.453 637.285q1.28906 -1.28906 1.28906 -2.57812q0 -3.86719 -5.15625 -5.15625q-11.6016 -5.15625 -21.9141 -12.8906q-2.57812 -1.28906 -3.86719 -1.28906q-2.57812 0 -3.86719 2.57812l-14.1797 20.625q-1.28906 2.57812 -1.28906 3.86719
q0 2.57812 2.57812 5.15625q12.8906 9.02344 27.0703 15.4688q1.28906 1.28906 3.86719 1.28906t3.86719 -3.86719zM893.32 348.535q1.28906 -2.57812 1.28906 -3.86719q0 -2.57812 -2.57812 -3.86719q-12.8906 -10.3125 -27.0703 -16.7578
q-1.28906 -1.28906 -3.86719 -1.28906t-3.86719 3.86719l-11.6016 23.2031q-1.28906 1.28906 -1.28906 3.86719t3.86719 3.86719q12.8906 5.15625 23.2031 12.8906q2.57812 1.28906 3.86719 1.28906q2.57812 0 3.86719 -2.57812zM805.664 313.73
q0 -6.44531 -5.15625 -6.44531q-9.02344 -1.28906 -16.7578 -1.28906t-15.4688 1.28906q-5.15625 0 -5.15625 6.44531l1.28906 24.4922q1.28906 5.15625 5.15625 5.15625h29.6484q3.86719 0 5.15625 -5.15625zM719.297 357.559q5.15625 -1.28906 5.15625 -5.15625
q0 -1.28906 -1.28906 -2.57812l-11.6016 -23.2031q-1.28906 -3.86719 -3.86719 -3.86719t-3.86719 1.28906q-14.1797 6.44531 -27.0703 16.7578q-2.57812 1.28906 -2.57812 3.86719q0 1.28906 1.28906 3.86719l12.8906 20.625q2.57812 2.57812 5.15625 2.57812
q1.28906 0 3.86719 -1.28906q10.3125 -7.73438 21.9141 -12.8906zM660 409.121q1.28906 -2.57812 1.28906 -3.86719q0 -2.57812 -2.57812 -5.15625l-20.625 -14.1797q-2.57812 -1.28906 -3.86719 -1.28906q-2.57812 0 -5.15625 2.57812q-9.02344 14.1797 -15.4688 28.3594
q-1.28906 1.28906 -1.28906 3.86719t3.86719 3.86719l23.2031 10.3125q1.28906 1.28906 3.86719 1.28906t3.86719 -3.86719q5.15625 -11.6016 12.8906 -21.9141zM783.75 287.949q85.0781 0 145.664 60.5859q60.5859 59.2969 60.5859 144.375t-60.5859 145.664
q-60.5859 59.2969 -145.664 59.2969q-78.6328 0 -136.641 -51.5625l67.0312 -55.4297q30.9375 23.2031 69.6094 23.2031q50.2734 0 86.3672 -36.0938q34.8047 -34.8047 34.8047 -85.0781q0 -48.9844 -34.8047 -85.0781q-36.0938 -34.8047 -86.3672 -34.8047
q-48.9844 0 -85.0781 34.8047q-34.8047 36.0938 -34.8047 85.0781q0 9.02344 1.28906 16.7578l-30.9375 -25.7812v-1.28906q0 -6.44531 -5.15625 -6.44531h-5.15625l-38.6719 -32.2266q16.7578 -68.3203 72.1875 -112.148t126.328 -43.8281zM852.07 545.762
q0 -5.15625 -5.15625 -9.02344q-2.57812 -2.57812 -6.44531 -2.57812h-2.57812l-32.2266 -32.2266q1.28906 -3.86719 1.28906 -9.02344t-1.28906 -9.02344l32.2266 -32.2266h2.57812q3.86719 0 6.44531 -2.57812q5.15625 -5.15625 5.15625 -9.02344t-5.15625 -7.73438
q-3.86719 -3.86719 -7.73438 -3.86719t-9.02344 3.86719q-2.57812 2.57812 -2.57812 7.73438v2.57812l-32.2266 30.9375q-3.86719 -1.28906 -9.02344 -1.28906t-9.02344 1.28906l-32.2266 -30.9375v-2.57812q0 -5.15625 -2.57812 -7.73438
q-3.86719 -3.86719 -9.02344 -3.86719q-3.86719 0 -7.73438 3.86719t-3.86719 7.73438t3.86719 9.02344q2.57812 2.57812 6.44531 2.57812h2.57812l32.2266 32.2266q-1.28906 3.86719 -1.28906 9.02344t1.28906 9.02344l-32.2266 32.2266h-2.57812
q-3.86719 0 -6.44531 2.57812q-3.86719 3.86719 -3.86719 9.02344q0 3.86719 3.86719 7.73438t7.73438 3.86719q5.15625 0 9.02344 -3.86719q2.57812 -2.57812 2.57812 -6.44531v-2.57812l32.2266 -32.2266q3.86719 2.57812 9.02344 2.57812t9.02344 -2.57812
l32.2266 32.2266v2.57812q0 3.86719 2.57812 6.44531q5.15625 3.86719 9.02344 3.86719t7.73438 -3.86719q5.15625 -3.86719 5.15625 -7.73438zM786.328 383.34q45.1172 0 77.3438 32.2266q33.5156 32.2266 33.5156 77.3438q0 46.4062 -33.5156 78.6328
q-32.2266 32.2266 -77.3438 32.2266q-34.8047 0 -63.1641 -20.625l14.1797 -12.8906l-56.7188 -47.6953q-5.15625 -14.1797 -5.15625 -29.6484q0 -45.1172 32.2266 -77.3438q33.5156 -32.2266 78.6328 -32.2266z" />
</svg>
