<?xml version="1.0" standalone="no"?>
<!DOCTYPE svg PUBLIC "-//W3C//DTD SVG 1.1//EN" "http://www.w3.org/Graphics/SVG/1.1/DTD/svg11.dtd" >
<svg xmlns="http://www.w3.org/2000/svg" xmlns:xlink="http://www.w3.org/1999/xlink" version="1.1" viewBox="-10 0 1066 1000">
   <path fill="currentColor"
d="M308 232.5l2.66699 6.66699v1.33301q0 4 -4 6.66699q-5.33398 4 -17.334 13.333q-10.666 8 -16 13.333l-22.666 17.334l-8 5.33301q-1.33398 1.33301 -4 1.33301q-1.33398 0 -4 -1.33301q1.33301 1.33301 -34.667 -22.667q-2.66699 -1.33301 -24 -16q-12 -8 -12 -12
v-1.33301l10.667 -40q5.33301 -20 6.66602 -25.333q1.33398 -1.33398 2.66699 -5.33398t1.33301 -6.66602q2.66699 -6.66699 6.66699 -6.66699h6.66699l42.666 -2.66699h14.667q9.33301 0 13.333 -1.33301q8 0 8 1.33301q2.66699 0 5.33398 6.66699q8 21.333 14.666 40z
M437.333 285.833q-16 56 -58.666 94.667q-52 46.667 -121.334 54.667q-12 1.33301 -22.666 1.33301q-53.334 0 -100 -25.333q-60 -32 -90.667 -92q-22.667 -45.334 -22.667 -93.334q0 -17.333 2.66699 -34.666q10.667 -64 54.667 -112q10.666 -12 24 -21.334
q54.666 -44 124 -45.333h9.33301q60 0 110.667 32q29.333 17.333 50.666 44l-60 50.667l-14.666 -4l-21.334 -5.33398q-2.66602 0 -6.66602 -6.66602q-4 -2.66699 -9.33398 -10.667q-4 -6.66699 -13.333 -18.667q-9.33301 -10.666 -13.333 -17.333l-5.33398 -5.33301
q-1.33301 -1.33398 -1.33301 -4q0 -4 6.66699 -6.66699q2.66602 -1.33301 9.33301 -4t10.667 -4q2.66602 -1.33301 5.33301 -2.66699q-25.333 -8 -52 -8q-20 0 -41.333 5.33398q-2.66699 1.33301 -2.66699 4q0 2.66602 2.66699 4q10.666 2.66602 9.33301 2.66602
q6.66699 1.33398 6.66699 6.66699q0 1.33301 -1.33398 2.66699l-4 6.66602l-22.666 36q-1.33398 2.66699 -4 6.66699q-2.66699 5.33301 -4 8q-4 5.33301 -6.66699 6.66699q-5.33301 2.66602 -18.667 6.66602q-12 4 -17.333 5.33398l-26.667 9.33301
q-6.66602 2.66699 -8 2.66699q-4 -1.33398 -5.33301 -10.667q0 -5.33301 -1.33301 -14.667q0 -2.66602 -2.66699 -4q-2.66699 0 -4 2.66699q-26.667 41.333 -28 92q0 2.66699 2.66699 2.66699h1.33301q1.33301 0 2.66699 -1.33398l4 -4q1.33301 -4 2.66602 -5.33301
q5.33398 -8 8 -8q2.66699 0 8 5.33301q14.667 17.334 30.667 33.334q1.33301 2.66602 5.33301 6.66602l5.33398 5.33398q5.33301 5.33301 5.33301 8l1.33301 22.666q1.33398 8 1.33398 22.667q1.33301 16 2.66602 22.667q0 9.33301 -5.33301 9.33301
q-1.33301 0 -10.667 -1.33301q-4 0 -12 -1.33398q-6.66602 -1.33301 -10.666 -2.66602h-5.33398q36 45.333 92 62.666h1.33398q1.33301 0 2.66602 -1.33301q1.33398 -1.33301 1.33398 -2.66699q0 -1.33301 -1.33398 -1.33301q-4 -5.33301 -5.33301 -9.33301
l-9.33301 -10.667q-2.66699 -2.66699 -2.66699 -5.33301q0 -2.66699 4 -5.33398l41.333 -17.333l24 -10.667h2.66699q2.66699 0 6.66699 1.33398q1.33301 0 6.66602 1.33301q5.33398 1.33301 6.66699 2.66699q8 2.66602 24 6.66602q14.667 4 22.667 6.66699t9.33301 5.33301
q0 2.66699 -5.33301 12l-9.33398 16q2.66699 1.33398 2.66699 2.66699l2.66699 2.66699q48 -21.334 77.333 -65.334l1.33301 -1.33301q0 -1.33301 -1.33301 -2.66699q-1.33301 -1.33301 -2.66699 -1.33301h-1.33301q-1.33301 1.33301 -5.33301 1.33301
q-4 1.33398 -5.33398 2.66699q-8 2.66699 -9.33301 2.66699q-5.33301 -1.33398 -5.33301 -8q-1.33398 -6.66699 -2.66699 -20q-1.33301 -14.667 -1.33301 -21.334l-2.66699 -26.666q0 -2.66699 8 -14.667q1.33301 -2.66699 4 -6.66699t4 -5.33301zM610.667 380.5v-45.333
h-109.334v-90.667h109.334v-45.333l109.333 90.666zM581.333 215.167h-108v45.333l-109.333 -90.667l109.333 -90.666v45.333h108v90.667zM1018.67 233.833h2.66602q4 0 4 -5.33301q1.33398 -9.33301 1.33398 -18.667q0 -6.66602 -1.33398 -13.333
q0 -6.66699 -6.66602 -6.66699l-25.334 2.66699q-5.33301 0 -5.33301 4v30.667q0 4 5.33301 5.33301zM1006.67 293.833q1.33301 -1.33301 1.33301 -4q0 -2.66602 -4 -4l-22.667 -10.666q-1.33301 -1.33398 -4 -1.33398q-2.66602 0 -4 4q-6.66602 12 -14.666 22.667
q-1.33398 1.33301 -1.33398 4t4 4l21.334 14.667q1.33301 1.33301 4 1.33301q1.33301 0 4 -2.66699q9.33301 -13.333 16 -28zM962.667 113.833q-2.66699 2.66699 -2.66699 5.33398q0 1.33301 1.33301 4q8 10.666 13.334 22.666q1.33301 4 4 4q2.66602 0 4 -1.33301
l22.666 -10.667q5.33398 -1.33301 5.33398 -5.33301q0 -1.33301 -1.33398 -2.66699q-6.66602 -14.666 -16 -29.333q-2.66602 -2.66699 -5.33301 -2.66699q-1.33301 0 -4 1.33398zM942.667 369.833q2.66602 -2.66602 2.66602 -5.33301q0 -1.33301 -1.33301 -4
l-14.667 -21.333q-2.66602 -2.66699 -5.33301 -2.66699q-1.33301 0 -2.66699 1.33301q-12 8 -24 13.334q-4 1.33301 -4 4q0 2.66602 1.33398 4l10.666 24q2.66699 4 5.33398 4q2.66602 0 4 -1.33398q14.666 -6.66602 28 -16zM849.333 403.167
q5.33398 -1.33398 5.33398 -6.66699l-2.66699 -25.333q0 -6.66699 -6.66699 -6.66699q-6.66602 1.33301 -13.333 1.33301q-5.33301 0 -12 -1.33301q-6.66699 0 -6.66699 6.66699l-2.66602 25.333q0 5.33301 6.66602 6.66699h32zM770.667 359.167
q1.33301 -1.33398 1.33301 -2.66699q0 -4 -5.33301 -5.33301q-12 -5.33398 -22.667 -13.334q-2.66699 -1.33301 -4 -1.33301q-2.66699 0 -4 2.66699l-14.667 21.333q-1.33301 2.66699 -1.33301 4q0 2.66699 2.66699 5.33301q13.333 9.33398 28 16q1.33301 1.33398 4 1.33398
q2.66602 0 4 -4zM945.333 60.5q1.33398 -2.66699 1.33398 -4q0 -2.66699 -2.66699 -4q-13.333 -10.667 -28 -17.333q-1.33301 -1.33398 -4 -1.33398t-4 4l-12 24q-1.33301 1.33398 -1.33301 4q0 2.66699 4 4q13.333 5.33398 24 13.334q2.66602 1.33301 4 1.33301
q2.66602 0 4 -2.66699zM854.667 24.5q0 -6.66699 -5.33398 -6.66699q-9.33301 -1.33301 -17.333 -1.33301t-16 1.33301q-5.33301 0 -5.33301 6.66699l1.33301 25.333q1.33301 5.33398 5.33301 5.33398h30.667q4 0 5.33301 -5.33398zM765.333 69.833
q5.33398 -1.33301 5.33398 -5.33301q0 -1.33301 -1.33398 -2.66699l-12 -24q-1.33301 -4 -4 -4q-2.66602 0 -4 1.33398q-14.666 6.66602 -28 17.333q-2.66602 1.33301 -2.66602 4q0 1.33301 1.33301 4l13.333 21.333q2.66699 2.66699 5.33398 2.66699q1.33301 0 4 -1.33301
q10.666 -8 22.666 -13.334zM704 123.167q1.33301 -2.66699 1.33301 -4q0 -2.66699 -2.66602 -5.33398l-21.334 -14.666q-2.66602 -1.33398 -4 -1.33398q-2.66602 0 -5.33301 2.66699q-9.33301 14.667 -16 29.333q-1.33301 1.33398 -1.33301 4q0 2.66699 4 4l24 10.667
q1.33301 1.33301 4 1.33301q2.66602 0 4 -4q5.33301 -12 13.333 -22.666zM832 -2.16699q88 0 150.667 62.667q62.666 61.333 62.666 149.333t-62.666 150.667q-62.667 61.333 -150.667 61.333q-81.333 0 -141.333 -53.333l69.333 -57.333q32 24 72 24q52 0 89.333 -37.334
q36 -36 36 -88q0 -50.666 -36 -88q-37.333 -36 -89.333 -36q-50.667 0 -88 36q-36 37.334 -36 88q0 9.33398 1.33301 17.334l-32 -26.667v-1.33301q0 -6.66699 -5.33301 -6.66699h-5.33301l-40 -33.333q17.333 -70.667 74.666 -116q57.334 -45.334 130.667 -45.334z
M902.667 264.5q0 -5.33301 -5.33398 -9.33301q-2.66602 -2.66699 -6.66602 -2.66699h-2.66699l-33.333 -33.333q1.33301 -4 1.33301 -9.33398q0 -5.33301 -1.33301 -9.33301l33.333 -33.333h2.66699q4 0 6.66602 -2.66699q5.33398 -5.33301 5.33398 -9.33301t-5.33398 -8
q-4 -4 -8 -4t-9.33301 4q-2.66699 2.66602 -2.66699 8v2.66602l-33.333 32q-4 -1.33301 -9.33301 -1.33301q-5.33398 0 -9.33398 1.33301l-33.333 -32v-2.66602q0 -5.33398 -2.66699 -8q-4 -4 -9.33301 -4q-4 0 -8 4t-4 8t4 9.33301q2.66699 2.66699 6.66699 2.66699
h2.66602l33.334 33.333q-1.33398 4 -1.33398 9.33301q0 5.33398 1.33398 9.33398l-33.334 33.333h-2.66602q-4 0 -6.66699 2.66699q-4 4 -4 9.33301q0 4 4 8t8 4q5.33301 0 9.33301 -4q2.66699 -2.66699 2.66699 -6.66699v-2.66602l33.333 -33.334
q4 2.66699 9.33398 2.66699q5.33301 0 9.33301 -2.66699l33.333 33.334v2.66602q0 4 2.66699 6.66699q5.33301 4 9.33301 4t8 -4q5.33398 -4 5.33398 -8zM834.667 96.5q46.666 0 80 33.333q34.666 33.334 34.666 80q0 48 -34.666 81.334q-33.334 33.333 -80 33.333
q-36 0 -65.334 -21.333l14.667 -13.334l-58.667 -49.333q-5.33301 -14.667 -5.33301 -30.667q0 -46.666 33.333 -80q34.667 -33.333 81.334 -33.333z" />
</svg>
