<?xml version="1.0" standalone="no"?>
<!DOCTYPE svg PUBLIC "-//W3C//DTD SVG 1.1//EN" "http://www.w3.org/Graphics/SVG/1.1/DTD/svg11.dtd" >
<svg xmlns="http://www.w3.org/2000/svg" xmlns:xlink="http://www.w3.org/1999/xlink" version="1.1" viewBox="-10 0 1066 1000">
   <path fill="currentColor"
d="M769.333 204.5q6.66699 -18.667 14.667 -40q2.66699 -6.66699 5.33301 -6.66699q0 -1.33301 8 -1.33301q4 1.33301 13.334 1.33301h14.666l42.667 2.66699h6.66699q4 0 6.66602 6.66699q0 2.66602 1.33398 6.66602q1.33301 4 2.66602 5.33398
q1.33398 5.33301 6.66699 25.333l10.667 40v1.33301q0 4 -12 12q-21.334 14.667 -24 16q-36 24 -34.667 22.667q-2.66699 1.33301 -4 1.33301q-2.66699 0 -4 -1.33301l-8 -5.33301l-22.667 -17.334q-5.33301 -5.33301 -16 -13.333q-12 -9.33301 -17.333 -13.333
q-4 -2.66699 -4 -6.66699v-1.33301l2.66699 -6.66699zM702.667 224.5q1.33301 1.33301 4 5.33301q2.66602 4 4 6.66699q8 12 8 14.667l-2.66699 26.666q0 6.66699 -1.33301 21.334q-1.33398 13.333 -2.66699 20q0 6.66602 -5.33301 8q-1.33398 0 -9.33398 -2.66699
q-1.33301 -1.33301 -5.33301 -2.66699q-4 0 -5.33301 -1.33301h-1.33398q-1.33301 0 -2.66602 1.33301q-1.33398 1.33398 -1.33398 2.66699l1.33398 1.33301q29.333 44 77.333 65.334l2.66699 -2.66699q0 -1.33301 2.66602 -2.66699l-9.33301 -16
q-5.33301 -9.33301 -5.33301 -12q1.33301 -2.66602 9.33301 -5.33301t22.667 -6.66699q16 -4 24 -6.66602q1.33301 -1.33398 6.66602 -2.66699q5.33398 -1.33301 6.66699 -1.33301q4 -1.33398 6.66699 -1.33398h2.66602l24 10.667l41.334 17.333q4 2.66699 4 5.33398
q0 2.66602 -2.66699 5.33301l-9.33301 10.667q-1.33398 4 -5.33398 9.33301q-1.33301 0 -1.33301 1.33301q0 1.33398 1.33301 2.66699q1.33398 1.33301 2.66699 1.33301h1.33301q56 -17.333 92 -62.666h-5.33301q-4 1.33301 -10.667 2.66602q-8 1.33398 -12 1.33398
q-9.33301 1.33301 -10.666 1.33301q-5.33398 0 -5.33398 -9.33301q1.33398 -6.66699 2.66699 -22.667q0 -14.667 1.33301 -22.667l1.33398 -22.666q0 -2.66699 5.33301 -8q1.33301 -1.33398 5.33301 -5.33398t5.33398 -6.66602q16 -16 30.666 -33.334
q5.33398 -5.33301 8 -5.33301q2.66699 0 8 8q1.33398 1.33301 2.66699 5.33301l4 4q1.33301 1.33398 2.66699 1.33398h1.33301q2.66699 0 2.66699 -2.66699q-1.33398 -50.667 -28 -92q-1.33398 -2.66699 -4 -2.66699q-2.66699 1.33398 -2.66699 4
q-1.33301 9.33398 -1.33301 14.667q-1.33398 9.33301 -5.33398 10.667q-1.33301 0 -8 -2.66699l-26.666 -9.33301q-5.33398 -1.33398 -17.334 -5.33398q-13.333 -4 -18.666 -6.66602q-2.66699 -1.33398 -6.66699 -6.66699q-1.33301 -2.66699 -4 -8q-2.66699 -4 -4 -6.66699
l-22.667 -36l-4 -6.66602q-1.33301 -1.33398 -1.33301 -2.66699q0 -5.33301 6.66699 -6.66699q-1.33398 0 9.33301 -2.66602q2.66699 -1.33398 2.66699 -4q0 -2.66699 -2.66699 -4q-21.333 -5.33398 -41.333 -5.33398q-26.667 0 -52 8q2.66602 1.33398 5.33301 2.66699
q4 1.33301 10.667 4q6.66602 2.66699 9.33301 4q6.66699 2.66699 6.66699 6.66699q0 2.66602 -1.33398 4l-5.33301 5.33301q-4 6.66699 -13.333 17.333q-9.33398 12 -13.334 18.667q-5.33301 8 -9.33301 10.667q-4 6.66602 -6.66699 6.66602l-21.333 5.33398l-14.667 4
l-60 -50.667q21.334 -26.667 50.667 -44q50.667 -32 110.667 -32h9.33301q69.333 1.33301 124 45.333q13.333 9.33398 24 21.334q44 48 54.667 112q2.66602 17.333 2.66602 34.666q0 48 -22.666 93.334q-30.667 60 -90.667 92q-46.667 25.333 -100 25.333
q-10.667 0 -22.667 -1.33301q-69.333 -8 -121.333 -54.667q-42.667 -38.667 -58.667 -94.667zM346.667 289.833l109.333 -90.666v45.333h109.333v90.667h-109.333v45.333zM485.333 124.5h108v-45.333l109.334 90.666l-109.334 90.667v-45.333h-108v-90.667zM73.333 232.5
q5.33398 -1.33301 5.33398 -5.33301v-30.667q0 -4 -5.33398 -4l-25.333 -2.66699q-6.66699 0 -6.66699 6.66699q-1.33301 6.66699 -1.33301 13.333q0 9.33398 1.33301 18.667q0 5.33301 4 5.33301h2.66699zM76 321.833q2.66699 2.66699 4 2.66699q2.66699 0 4 -1.33301
l21.333 -14.667q4 -1.33301 4 -4t-1.33301 -4q-8 -10.667 -14.667 -22.667q-1.33301 -4 -4 -4q-2.66602 0 -4 1.33398l-22.666 10.666q-4 1.33398 -4 4q0 2.66699 1.33301 4q6.66699 14.667 16 28zM82.667 99.167q-2.66699 -1.33398 -4 -1.33398
q-2.66699 0 -5.33398 2.66699q-9.33301 14.667 -16 29.333q-1.33301 1.33398 -1.33301 2.66699q0 4 5.33301 5.33301l22.667 10.667q1.33301 1.33301 4 1.33301t4 -4q5.33301 -12 13.333 -22.666q1.33398 -2.66699 1.33398 -4q0 -2.66699 -2.66699 -5.33398zM152 385.833
q1.33301 1.33398 4 1.33398t5.33301 -4l10.667 -24q1.33301 -1.33398 1.33301 -4q0 -2.66699 -4 -4q-12 -5.33398 -24 -13.334q-1.33301 -1.33301 -2.66602 -1.33301q-2.66699 0 -5.33398 2.66699l-14.666 21.333q-1.33398 2.66699 -1.33398 4q0 2.66699 2.66699 5.33301
q13.333 9.33398 28 16zM249.333 403.167q6.66699 -1.33398 6.66699 -6.66699l-2.66699 -25.333q0 -6.66699 -6.66602 -6.66699q-6.66699 1.33301 -12 1.33301q-6.66699 0 -13.334 -1.33301q-6.66602 0 -6.66602 6.66699l-2.66699 25.333q0 5.33301 5.33301 6.66699h32z
M308 383.167q1.33301 4 4 4t4 -1.33398q14.667 -6.66602 28 -16q2.66699 -2.66602 2.66699 -5.33301q0 -1.33301 -1.33398 -4l-14.666 -21.333q-1.33398 -2.66699 -4 -2.66699q-1.33398 0 -4 1.33301q-10.667 8 -22.667 13.334q-5.33301 1.33301 -5.33301 5.33301
q0 1.33301 1.33301 2.66699zM136 81.833q1.33301 2.66699 4 2.66699q1.33301 0 4 -1.33301q10.667 -8 24 -13.334q4 -1.33301 4 -4q0 -2.66602 -1.33301 -4l-12 -24q-1.33398 -4 -4 -4q-2.66699 0 -4 1.33398q-14.667 6.66602 -28 17.333q-2.66699 1.33301 -2.66699 4
q0 1.33301 1.33301 4zM213.333 49.833q1.33398 5.33398 5.33398 5.33398h30.666q4 0 5.33398 -5.33398l1.33301 -25.333q0 -6.66699 -5.33301 -6.66699q-8 -1.33301 -16 -1.33301t-17.334 1.33301q-5.33301 0 -5.33301 6.66699zM324 83.167q2.66699 1.33301 4 1.33301
q2.66699 0 5.33301 -2.66699l13.334 -21.333q1.33301 -2.66699 1.33301 -4q0 -2.66699 -2.66699 -4q-13.333 -10.667 -28 -17.333q-1.33301 -1.33398 -4 -1.33398q-2.66602 0 -4 4l-12 24q-1.33301 1.33398 -1.33301 2.66699q0 4 5.33301 5.33301q12 5.33398 22.667 13.334z
M376 145.833q1.33301 4 4 4t4 -1.33301l24 -10.667q4 -1.33301 4 -4q0 -2.66602 -1.33301 -4q-6.66699 -14.666 -16 -29.333q-2.66699 -2.66699 -5.33398 -2.66699q-1.33301 0 -4 1.33398l-21.333 14.666q-2.66699 2.66699 -2.66699 5.33398q0 1.33301 1.33398 4
q8 10.666 13.333 22.666zM365.333 43.167q57.334 45.333 74.667 116l-40 33.333h-5.33301q-5.33398 0 -5.33398 6.66699v1.33301l-32 26.667q1.33398 -8 1.33398 -17.334q0 -50.666 -36 -88q-37.334 -36 -88 -36q-52 0 -89.334 36q-36 37.334 -36 88q0 52 36 88
q37.334 37.334 89.334 37.334q40 0 72 -24l69.333 57.333q-60 53.333 -141.333 53.333q-88 0 -150.667 -61.333q-62.667 -62.667 -62.667 -150.667t62.667 -149.333q62.667 -62.667 150.667 -62.667q73.333 0 130.666 45.334zM169.333 272.5q4 4 8 4t9.33398 -4
q2.66602 -2.66699 2.66602 -6.66699v-2.66602l33.334 -33.334q4 2.66699 9.33301 2.66699t9.33301 -2.66699l33.334 33.334v2.66602q0 4 2.66602 6.66699q4 4 9.33398 4q4 0 8 -4t4 -8q0 -5.33301 -4 -9.33301q-2.66699 -2.66699 -6.66699 -2.66699h-2.66699
l-33.333 -33.333q1.33301 -4 1.33301 -9.33398q0 -5.33301 -1.33301 -9.33301l33.333 -33.333h2.66699q4 0 6.66699 -2.66699q4 -5.33301 4 -9.33301t-4 -8t-8 -4q-5.33398 0 -9.33398 4q-2.66602 2.66602 -2.66602 8v2.66602l-33.334 32q-4 -1.33301 -9.33301 -1.33301
t-9.33301 1.33301l-33.334 -32v-2.66602q0 -5.33398 -2.66602 -8q-5.33398 -4 -9.33398 -4t-8 4q-5.33301 4 -5.33301 8t5.33301 9.33301q2.66699 2.66699 6.66699 2.66699h2.66699l33.333 33.333q-1.33301 4 -1.33301 9.33301q0 5.33398 1.33301 9.33398l-33.333 33.333
h-2.66699q-4 0 -6.66699 2.66699q-5.33301 4 -5.33301 9.33301q0 4 5.33301 8zM313.333 129.833q33.334 33.334 33.334 80q0 16 -5.33398 30.667l-58.666 49.333l14.666 13.334q-29.333 21.333 -65.333 21.333q-46.667 0 -80 -33.333q-34.667 -33.334 -34.667 -81.334
q0 -46.666 34.667 -80q33.333 -33.333 80 -33.333t81.333 33.333z" />
</svg>
