<?xml version="1.0" standalone="no"?>
<!DOCTYPE svg PUBLIC "-//W3C//DTD SVG 1.1//EN" "http://www.w3.org/Graphics/SVG/1.1/DTD/svg11.dtd" >
<svg xmlns="http://www.w3.org/2000/svg" xmlns:xlink="http://www.w3.org/1999/xlink" version="1.1" viewBox="-10 0 1010 1000">
   <path fill="currentColor"
d="M723.164 487.754q6.44531 -18.0469 14.1797 -38.6719q2.57812 -6.44531 5.15625 -6.44531q0 -1.28906 7.73438 -1.28906q3.86719 1.28906 12.8906 1.28906h14.1797l41.25 2.57812h6.44531q3.86719 0 6.44531 6.44531q0 2.57812 1.28906 6.44531t2.57812 5.15625
q1.28906 5.15625 6.44531 24.4922l10.3125 38.6719v1.28906q0 3.86719 -11.6016 11.6016q-20.625 14.1797 -23.2031 15.4688q-34.8047 23.2031 -33.5156 21.9141q-2.57812 1.28906 -3.86719 1.28906q-2.57812 0 -3.86719 -1.28906l-7.73438 -5.15625l-21.9141 -16.7578
q-5.15625 -5.15625 -15.4688 -12.8906q-11.6016 -9.02344 -16.7578 -12.8906q-3.86719 -2.57812 -3.86719 -6.44531v-1.28906l2.57812 -6.44531zM658.711 507.09q1.28906 1.28906 3.86719 5.15625t3.86719 6.44531q7.73438 11.6016 7.73438 14.1797l-2.57812 25.7812
q0 6.44531 -1.28906 20.625q-1.28906 12.8906 -2.57812 19.3359q0 6.44531 -5.15625 7.73438q-1.28906 0 -9.02344 -2.57812q-1.28906 -1.28906 -5.15625 -2.57812q-3.86719 0 -5.15625 -1.28906h-1.28906q-1.28906 0 -2.57812 1.28906t-1.28906 2.57812l1.28906 1.28906
q28.3594 42.5391 74.7656 63.1641l2.57812 -2.57812q0 -1.28906 2.57812 -2.57812l-9.02344 -15.4688q-5.15625 -9.02344 -5.15625 -11.6016q1.28906 -2.57812 9.02344 -5.15625t21.9141 -6.44531q15.4688 -3.86719 23.2031 -6.44531q1.28906 -1.28906 6.44531 -2.57812
t6.44531 -1.28906q3.86719 -1.28906 6.44531 -1.28906h2.57812l23.2031 10.3125l39.9609 16.7578q3.86719 2.57812 3.86719 5.15625t-2.57812 5.15625l-9.02344 10.3125q-1.28906 3.86719 -5.15625 9.02344q-1.28906 0 -1.28906 1.28906t1.28906 2.57812t2.57812 1.28906
h1.28906q54.1406 -16.7578 88.9453 -60.5859h-5.15625q-3.86719 1.28906 -10.3125 2.57812q-7.73438 1.28906 -11.6016 1.28906q-9.02344 1.28906 -10.3125 1.28906q-5.15625 0 -5.15625 -9.02344q1.28906 -6.44531 2.57812 -21.9141q0 -14.1797 1.28906 -21.9141
l1.28906 -21.9141q0 -2.57812 5.15625 -7.73438l5.15625 -5.15625t5.15625 -6.44531q15.4688 -15.4688 29.6484 -32.2266q5.15625 -5.15625 7.73438 -5.15625t7.73438 7.73438q1.28906 1.28906 2.57812 5.15625l3.86719 3.86719t2.57812 1.28906h1.28906
q2.57812 0 2.57812 -2.57812q-1.28906 -48.9844 -27.0703 -88.9453q-1.28906 -2.57812 -3.86719 -2.57812q-2.57812 1.28906 -2.57812 3.86719q-1.28906 9.02344 -1.28906 14.1797q-1.28906 9.02344 -5.15625 10.3125q-1.28906 0 -7.73438 -2.57812l-25.7812 -9.02344
q-5.15625 -1.28906 -16.7578 -5.15625q-12.8906 -3.86719 -18.0469 -6.44531q-2.57812 -1.28906 -6.44531 -6.44531l-3.86719 -7.73438q-2.57812 -3.86719 -3.86719 -6.44531l-21.9141 -34.8047l-3.86719 -6.44531q-1.28906 -1.28906 -1.28906 -2.57812
q0 -5.15625 6.44531 -6.44531q-1.28906 0 9.02344 -2.57812q2.57812 -1.28906 2.57812 -3.86719t-2.57812 -3.86719q-20.625 -5.15625 -39.9609 -5.15625q-25.7812 0 -50.2734 7.73438l5.15625 2.57812q3.86719 1.28906 10.3125 3.86719t9.02344 3.86719
q6.44531 2.57812 6.44531 6.44531q0 2.57812 -1.28906 3.86719l-5.15625 5.15625q-3.86719 6.44531 -12.8906 16.7578q-9.02344 11.6016 -12.8906 18.0469q-5.15625 7.73438 -9.02344 10.3125q-3.86719 6.44531 -6.44531 6.44531l-20.625 5.15625l-14.1797 3.86719
l-58.0078 -48.9844q20.625 -25.7812 48.9844 -42.5391q48.9844 -30.9375 106.992 -30.9375h9.02344q67.0312 1.28906 119.883 43.8281q12.8906 9.02344 23.2031 20.625q42.5391 46.4062 52.8516 108.281q2.57812 16.7578 2.57812 33.5156q0 46.4062 -21.9141 90.2344
q-29.6484 58.0078 -87.6562 88.9453q-45.1172 24.4922 -96.6797 24.4922q-10.3125 0 -21.9141 -1.28906q-67.0312 -7.73438 -117.305 -52.8516q-41.25 -37.3828 -56.7188 -91.5234zM314.531 570.254l105.703 -87.6562v43.8281h105.703v87.6562h-105.703v43.8281z
M448.594 410.41h104.414v-43.8281l105.703 87.6562l-105.703 87.6562v-43.8281h-104.414v-87.6562zM50.2734 514.824q5.15625 -1.28906 5.15625 -5.15625v-29.6484q0 -3.86719 -5.15625 -3.86719l-24.4922 -2.57812q-6.44531 0 -6.44531 6.44531
q-1.28906 6.44531 -1.28906 12.8906q0 9.02344 1.28906 18.0469q0 5.15625 3.86719 5.15625h2.57812zM52.8516 601.191q2.57812 2.57812 3.86719 2.57812q2.57812 0 3.86719 -1.28906l20.625 -14.1797q3.86719 -1.28906 3.86719 -3.86719t-1.28906 -3.86719
q-7.73438 -10.3125 -14.1797 -21.9141q-1.28906 -3.86719 -3.86719 -3.86719t-3.86719 1.28906l-21.9141 10.3125q-3.86719 1.28906 -3.86719 3.86719t1.28906 3.86719q6.44531 14.1797 15.4688 27.0703zM59.2969 385.918q-2.57812 -1.28906 -3.86719 -1.28906
q-2.57812 0 -5.15625 2.57812q-9.02344 14.1797 -15.4688 28.3594q-1.28906 1.28906 -1.28906 2.57812q0 3.86719 5.15625 5.15625l21.9141 10.3125q1.28906 1.28906 3.86719 1.28906t3.86719 -3.86719q5.15625 -11.6016 12.8906 -21.9141
q1.28906 -2.57812 1.28906 -3.86719q0 -2.57812 -2.57812 -5.15625zM126.328 663.066q1.28906 1.28906 3.86719 1.28906t5.15625 -3.86719l10.3125 -23.2031q1.28906 -1.28906 1.28906 -3.86719t-3.86719 -3.86719q-11.6016 -5.15625 -23.2031 -12.8906
q-1.28906 -1.28906 -2.57812 -1.28906q-2.57812 0 -5.15625 2.57812l-14.1797 20.625q-1.28906 2.57812 -1.28906 3.86719q0 2.57812 2.57812 5.15625q12.8906 9.02344 27.0703 15.4688zM220.43 679.824q6.44531 -1.28906 6.44531 -6.44531l-2.57812 -24.4922
q0 -6.44531 -6.44531 -6.44531q-6.44531 1.28906 -11.6016 1.28906q-6.44531 0 -12.8906 -1.28906q-6.44531 0 -6.44531 6.44531l-2.57812 24.4922q0 5.15625 5.15625 6.44531h30.9375zM277.148 660.488q1.28906 3.86719 3.86719 3.86719t3.86719 -1.28906
q14.1797 -6.44531 27.0703 -15.4688q2.57812 -2.57812 2.57812 -5.15625q0 -1.28906 -1.28906 -3.86719l-14.1797 -20.625q-1.28906 -2.57812 -3.86719 -2.57812q-1.28906 0 -3.86719 1.28906q-10.3125 7.73438 -21.9141 12.8906q-5.15625 1.28906 -5.15625 5.15625
q0 1.28906 1.28906 2.57812zM110.859 369.16q1.28906 2.57812 3.86719 2.57812q1.28906 0 3.86719 -1.28906q10.3125 -7.73438 23.2031 -12.8906q3.86719 -1.28906 3.86719 -3.86719t-1.28906 -3.86719l-11.6016 -23.2031q-1.28906 -3.86719 -3.86719 -3.86719
t-3.86719 1.28906q-14.1797 6.44531 -27.0703 16.7578q-2.57812 1.28906 -2.57812 3.86719q0 1.28906 1.28906 3.86719zM185.625 338.223q1.28906 5.15625 5.15625 5.15625h29.6484q3.86719 0 5.15625 -5.15625l1.28906 -24.4922q0 -6.44531 -5.15625 -6.44531
q-7.73438 -1.28906 -15.4688 -1.28906t-16.7578 1.28906q-5.15625 0 -5.15625 6.44531zM292.617 370.449q2.57812 1.28906 3.86719 1.28906q2.57812 0 5.15625 -2.57812l12.8906 -20.625q1.28906 -2.57812 1.28906 -3.86719q0 -2.57812 -2.57812 -3.86719
q-12.8906 -10.3125 -27.0703 -16.7578q-1.28906 -1.28906 -3.86719 -1.28906t-3.86719 3.86719l-11.6016 23.2031q-1.28906 1.28906 -1.28906 2.57812q0 3.86719 5.15625 5.15625q11.6016 5.15625 21.9141 12.8906zM342.891 431.035q1.28906 3.86719 3.86719 3.86719
t3.86719 -1.28906l23.2031 -10.3125q3.86719 -1.28906 3.86719 -3.86719t-1.28906 -3.86719q-6.44531 -14.1797 -15.4688 -28.3594q-2.57812 -2.57812 -5.15625 -2.57812q-1.28906 0 -3.86719 1.28906l-20.625 14.1797q-2.57812 2.57812 -2.57812 5.15625
q0 1.28906 1.28906 3.86719q7.73438 10.3125 12.8906 21.9141zM332.578 331.777q55.4297 43.8281 72.1875 112.148l-38.6719 32.2266h-5.15625q-5.15625 0 -5.15625 6.44531v1.28906l-30.9375 25.7812q1.28906 -7.73438 1.28906 -16.7578q0 -48.9844 -34.8047 -85.0781
q-36.0938 -34.8047 -85.0781 -34.8047q-50.2734 0 -86.3672 34.8047q-34.8047 36.0938 -34.8047 85.0781q0 50.2734 34.8047 85.0781q36.0938 36.0938 86.3672 36.0938q38.6719 0 69.6094 -23.2031l67.0312 55.4297q-58.0078 51.5625 -136.641 51.5625
q-85.0781 0 -145.664 -59.2969q-60.5859 -60.5859 -60.5859 -145.664t60.5859 -144.375q60.5859 -60.5859 145.664 -60.5859q70.8984 0 126.328 43.8281zM143.086 553.496q3.86719 3.86719 7.73438 3.86719t9.02344 -3.86719q2.57812 -2.57812 2.57812 -6.44531v-2.57812
l32.2266 -32.2266q3.86719 2.57812 9.02344 2.57812t9.02344 -2.57812l32.2266 32.2266v2.57812q0 3.86719 2.57812 6.44531q3.86719 3.86719 9.02344 3.86719q3.86719 0 7.73438 -3.86719t3.86719 -7.73438q0 -5.15625 -3.86719 -9.02344
q-2.57812 -2.57812 -6.44531 -2.57812h-2.57812l-32.2266 -32.2266q1.28906 -3.86719 1.28906 -9.02344t-1.28906 -9.02344l32.2266 -32.2266h2.57812q3.86719 0 6.44531 -2.57812q3.86719 -5.15625 3.86719 -9.02344t-3.86719 -7.73438t-7.73438 -3.86719
q-5.15625 0 -9.02344 3.86719q-2.57812 2.57812 -2.57812 7.73438v2.57812l-32.2266 30.9375q-3.86719 -1.28906 -9.02344 -1.28906t-9.02344 1.28906l-32.2266 -30.9375v-2.57812q0 -5.15625 -2.57812 -7.73438q-5.15625 -3.86719 -9.02344 -3.86719t-7.73438 3.86719
q-5.15625 3.86719 -5.15625 7.73438t5.15625 9.02344q2.57812 2.57812 6.44531 2.57812h2.57812l32.2266 32.2266q-1.28906 3.86719 -1.28906 9.02344t1.28906 9.02344l-32.2266 32.2266h-2.57812q-3.86719 0 -6.44531 2.57812q-5.15625 3.86719 -5.15625 9.02344
q0 3.86719 5.15625 7.73438zM282.305 415.566q32.2266 32.2266 32.2266 77.3438q0 15.4688 -5.15625 29.6484l-56.7188 47.6953l14.1797 12.8906q-28.3594 20.625 -63.1641 20.625q-45.1172 0 -77.3438 -32.2266q-33.5156 -32.2266 -33.5156 -78.6328
q0 -45.1172 33.5156 -77.3438q32.2266 -32.2266 77.3438 -32.2266t78.6328 32.2266z" />
</svg>
