<?xml version="1.0" standalone="no"?>
<!DOCTYPE svg PUBLIC "-//W3C//DTD SVG 1.1//EN" "http://www.w3.org/Graphics/SVG/1.1/DTD/svg11.dtd" >
<svg xmlns="http://www.w3.org/2000/svg" xmlns:xlink="http://www.w3.org/1999/xlink" version="1.1" viewBox="-10 0 1066 1000">
   <path fill="currentColor"
d="M793.333 326.333q6.66699 1.33398 13.334 1.33398q26.666 0 45.333 -22.667q12 -16 12 -32q0 -10.667 -5.33301 -22.667q-13.334 -26.666 -77.334 -125.333q-105.333 56 -130.666 72q-22.667 14.667 -22.667 40q0 5.33301 1.33301 10.667q5.33398 33.333 38.667 45.333
q10.667 4 22.667 4q18.666 0 38.666 -12l-12 45.333l17.334 4l12 -45.333q18.666 32 46.666 37.333zM629.333 42.333q2.66699 0 8 1.33398q5.33398 1.33301 9.33398 1.33301q16 0 21.333 -21.333l21.333 -77.334l-17.333 -4l-21.333 78.667q-2.66699 8 -8 8h-4
q-4 -1.33301 -5.33398 -1.33301zM1002.67 -36.333q22.666 6.66602 34.666 26.666q8 13.334 8 26.667q0 8 -2.66602 16l-132 484q-5.33398 22.667 -26.667 33.333q-13.333 8 -26.667 8q-8 0 -16 -2.66602l-237.333 -61.334q14.667 -12 24 -28q14.667 -24 14.667 -49.333
q0 -13.333 -4 -26.667l-81.334 -298.666l48 -174.667q5.33398 -22.667 25.334 -33.333q13.333 -8 28 -8q8 0 16 2.66602zM116 35.667l22.667 50.666l-17.334 4zM417.333 210.333q5.33398 -10.666 5.33398 -22.666q0 -17.334 -13.334 -34.667q-18.666 -24 -48 -24
q-5.33301 0 -10.666 1.33301q-14.667 2.66699 -32 16q-18.667 16 -21.334 33.334q-25.333 -22.667 -50.666 -22.667q-10.667 0 -21.334 4q-34.666 12 -40 48v9.33301q0 29.334 24 45.334q26.667 17.333 133.334 77.333q61.333 -102.667 74.666 -130.667zM172 113
l-48 -98.667l-25.333 6.66699l10.666 108l16 -4l-2.66602 -20l22.666 -5.33301l8 17.333zM593.333 402.333q1.33398 6.66699 1.33398 13.334q0 16 -8 29.333q-10.667 20 -33.334 25.333l-329.333 85.334q-8 2.66602 -16 2.66602q-14.667 0 -28 -8q-20 -12 -25.333 -33.333
l-130.667 -485.333q-2.66699 -8 -2.66699 -16q0 -13.334 8 -26.667q12 -20 34.667 -25.333l329.333 -85.334q8 -2.66602 16 -2.66602q13.334 0 26.667 8q20 12 26.667 33.333z" />
</svg>
