<?xml version="1.0" standalone="no"?>
<!DOCTYPE svg PUBLIC "-//W3C//DTD SVG 1.1//EN" "http://www.w3.org/Graphics/SVG/1.1/DTD/svg11.dtd" >
<svg xmlns="http://www.w3.org/2000/svg" xmlns:xlink="http://www.w3.org/1999/xlink" version="1.1" viewBox="-10 0 1010 1000">
   <path fill="currentColor"
d="M746.367 605.703q6.44531 1.28906 12.8906 1.28906q25.7812 0 43.8281 -21.9141q11.6016 -15.4688 11.6016 -30.9375q0 -10.3125 -5.15625 -21.9141q-12.8906 -25.7812 -74.7656 -121.172q-101.836 54.1406 -126.328 69.6094q-21.9141 14.1797 -21.9141 38.6719
q0 5.15625 1.28906 10.3125q5.15625 32.2266 37.3828 43.8281q10.3125 3.86719 21.9141 3.86719q18.0469 0 37.3828 -11.6016l-11.6016 43.8281l16.7578 3.86719l11.6016 -43.8281q18.0469 30.9375 45.1172 36.0938zM587.812 331.133q2.57812 0 7.73438 1.28906
t9.02344 1.28906q15.4688 0 20.625 -20.625l20.625 -74.7656l-16.7578 -3.86719l-20.625 76.0547q-2.57812 7.73438 -7.73438 7.73438h-3.86719q-3.86719 -1.28906 -5.15625 -1.28906zM948.75 255.078q21.9141 6.44531 33.5156 25.7812q7.73438 12.8906 7.73438 25.7812
q0 7.73438 -2.57812 15.4688l-127.617 467.93q-5.15625 21.9141 -25.7812 32.2266q-12.8906 7.73438 -25.7812 7.73438q-7.73438 0 -15.4688 -2.57812l-229.453 -59.2969q14.1797 -11.6016 23.2031 -27.0703q14.1797 -23.2031 14.1797 -47.6953
q0 -12.8906 -3.86719 -25.7812l-78.6328 -288.75l46.4062 -168.867q5.15625 -21.9141 24.4922 -32.2266q12.8906 -7.73438 27.0703 -7.73438q7.73438 0 15.4688 2.57812zM91.5234 324.688l21.9141 48.9844l-16.7578 3.86719zM382.852 493.555
q5.15625 -10.3125 5.15625 -21.9141q0 -16.7578 -12.8906 -33.5156q-18.0469 -23.2031 -46.4062 -23.2031q-5.15625 0 -10.3125 1.28906q-14.1797 2.57812 -30.9375 15.4688q-18.0469 15.4688 -20.625 32.2266q-24.4922 -21.9141 -48.9844 -21.9141
q-10.3125 0 -20.625 3.86719q-33.5156 11.6016 -38.6719 46.4062v9.02344q0 28.3594 23.2031 43.8281q25.7812 16.7578 128.906 74.7656q59.2969 -99.2578 72.1875 -126.328zM145.664 399.453l-46.4062 -95.3906l-24.4922 6.44531l10.3125 104.414l15.4688 -3.86719
l-2.57812 -19.3359l21.9141 -5.15625l7.73438 16.7578zM553.008 679.18q1.28906 6.44531 1.28906 12.8906q0 15.4688 -7.73438 28.3594q-10.3125 19.3359 -32.2266 24.4922l-318.398 82.5q-7.73438 2.57812 -15.4688 2.57812q-14.1797 0 -27.0703 -7.73438
q-19.3359 -11.6016 -24.4922 -32.2266l-126.328 -469.219q-2.57812 -7.73438 -2.57812 -15.4688q0 -12.8906 7.73438 -25.7812q11.6016 -19.3359 33.5156 -24.4922l318.398 -82.5q7.73438 -2.57812 15.4688 -2.57812q12.8906 0 25.7812 7.73438
q19.3359 11.6016 25.7812 32.2266z" />
</svg>
