<?xml version="1.0" standalone="no"?>
<!DOCTYPE svg PUBLIC "-//W3C//DTD SVG 1.1//EN" "http://www.w3.org/Graphics/SVG/1.1/DTD/svg11.dtd" >
<svg xmlns="http://www.w3.org/2000/svg" xmlns:xlink="http://www.w3.org/1999/xlink" version="1.1" viewBox="-10 0 1066 1000">
   <path fill="currentColor"
d="M905.487 -6.04297h-166.449l-45.2744 255.667h167.781l6.6582 -42.6113h-114.518l11.9844 -69.2432h97.2061l7.99023 -41.2793h-98.5381l10.6523 -59.9219h114.518zM585.903 249.624l126.502 -255.667h-58.5898l-86.5537 191.75l-25.3008 -191.75h-55.9268
l46.6055 255.667h53.2637zM460.733 -6.04297h-51.9326l-43.9424 255.667h50.6006zM338.227 207.013h-109.191l37.2852 -213.056h-51.9326l-43.9434 255.667h159.792zM1000.03 -75.2861q21.3057 0 34.6211 15.9795q10.6533 11.9844 10.6533 26.6318
q0 5.32617 -1.33203 9.32129l-62.585 306.268q-7.98926 34.6221 -43.9424 34.6221h-872.198q-19.9736 0 -33.29 -15.9795q-10.6523 -10.6533 -10.6523 -25.3008q0 -5.32617 1.33105 -9.32129l62.5859 -307.599q6.65723 -34.6221 42.6113 -34.6221h872.197zM221.046 405.421
q-9.32129 0 -14.6484 3.99512q-5.32617 3.99512 -5.32617 10.6533q0 5.32617 6.6582 9.32031q5.32617 3.99512 17.3105 7.99023q21.3057 6.6582 30.627 15.9795q9.32129 9.32031 9.32129 23.9688q0 15.9785 -10.6523 23.9688q-11.9844 9.32129 -33.29 9.32129
q-13.3164 0 -25.3008 -5.32715q-10.6523 -5.32617 -17.3105 -13.3154q-5.32617 -9.32129 -5.32617 -21.3057h25.2998q0 19.9736 22.6377 19.9736q9.32129 0 14.6475 -3.99512q5.32617 -2.66309 5.32617 -9.32031q0 -6.6582 -5.32617 -10.6533t-18.6426 -7.98926
q-11.9844 -3.99512 -19.9736 -7.99023q-19.9746 -11.9844 -19.9746 -30.626q0 -9.32129 5.32617 -17.3115q5.32715 -7.98926 15.9795 -11.9844q9.32129 -3.99414 22.6377 -3.99414q13.3154 0 22.6367 3.99414q10.6533 5.32715 15.9795 13.3164t5.32617 19.9736h-23.9688
q0 -9.32129 -5.32617 -13.3154q-5.32617 -5.32715 -14.6475 -5.32715zM388.827 441.375q5.32617 -5.32715 5.32617 -13.3164q0 -9.32129 -5.32617 -14.6475t-14.6475 -5.32617h-22.6377v38.6162h22.6377q9.32129 0 14.6475 -5.32617zM398.148 393.437
q9.32129 3.99512 15.9785 13.3164q5.32715 9.32129 5.32715 21.3057q0 17.3105 -11.9844 27.9639q-13.3164 10.6523 -34.6221 10.6523h-21.3057v42.6113h-25.2998v-121.176h47.9375q13.3154 0 23.9688 5.32617zM553.945 445.369q0 -18.6426 -6.6582 -29.2949
q-6.6582 -9.32129 -19.9736 -9.32129q-11.9844 0 -18.6426 9.32129q-6.6582 10.6523 -6.6582 29.2949v5.32617q0 18.6426 6.6582 29.2959q6.6582 10.6523 19.9736 10.6523q11.9844 0 18.6426 -10.6523q6.6582 -9.32129 6.6582 -27.9639v-6.6582zM555.277 393.437
q11.9844 6.6582 17.3105 21.3057q6.6582 13.3164 6.6582 30.627v5.32617q0 18.6426 -6.6582 31.959q-5.32617 13.3154 -17.3105 21.3057q-11.9844 6.6582 -26.6328 6.6582q-15.9785 0 -27.9629 -6.6582q-10.6533 -7.99023 -17.3105 -21.3057
q-6.6582 -13.3164 -6.6582 -30.627v-6.6582q0 -17.3105 6.6582 -30.627q5.32617 -14.6475 17.3105 -21.3057q11.9844 -6.65723 26.6318 -6.65723q15.9795 0 27.9639 6.65723zM701.753 440.043q3.99512 -5.32617 3.99512 -13.3164q0 -9.32129 -3.99512 -13.3154
q-5.32617 -5.32617 -14.6475 -5.32617h-19.9746v35.9531h19.9746q9.32129 0 14.6475 -3.99512zM725.722 445.369q-5.32617 7.99023 -15.9795 13.3164l26.6328 49.2686v1.33203h-27.9639l-22.6377 -45.2744h-18.6426v45.2744h-25.2998v-121.176h45.2744
q21.3057 0 31.958 9.32129q11.9844 9.32129 11.9844 26.6318q0 13.3164 -5.32617 21.3057zM782.98 388.11h98.5381v19.9746h-37.2842v101.201h-25.3008v-101.201h-35.9531v-19.9746z" />
</svg>
