<?xml version="1.0" standalone="no"?>
<!DOCTYPE svg PUBLIC "-//W3C//DTD SVG 1.1//EN" "http://www.w3.org/Graphics/SVG/1.1/DTD/svg11.dtd" >
<svg xmlns="http://www.w3.org/2000/svg" xmlns:xlink="http://www.w3.org/1999/xlink" version="1.1" viewBox="-10 0 1010 1000">
   <path fill="currentColor"
d="M854.824 283.719h-160.924l-43.7705 247.178h162.21l6.4375 -41.1953h-110.716l11.5869 -66.9453h93.9795l7.72363 -39.9082h-95.2666l10.2998 -57.9316h110.715zM545.852 530.896l122.302 -247.178h-56.6455l-83.6797 185.383l-24.4609 -185.383h-54.0703
l45.0586 247.178h51.4961zM424.837 283.719h-50.208l-42.4834 247.178h48.9199zM306.397 489.701h-105.565l36.0469 -205.982h-50.208l-42.4844 247.178h154.486zM946.229 216.775q20.5977 0 33.4717 15.4473q10.2998 11.5879 10.2998 25.748q0 5.15039 -1.28809 9.01172
l-60.5068 296.1q-7.72461 33.4707 -42.4834 33.4707h-843.238q-19.3105 0 -32.1846 -15.4473q-10.2988 -10.2988 -10.2988 -24.4609q0 -5.15039 1.28711 -9.01172l60.5068 -297.387q6.4375 -33.4707 41.1963 -33.4707h843.238zM193.107 681.521q-9.01172 0 -14.1611 3.86133
q-5.14941 3.86328 -5.14941 10.2988q0 5.15039 6.43652 9.01172q5.14941 3.86328 16.7363 7.72461q20.5977 6.4375 29.6094 15.4492t9.01172 23.1719q0 15.4492 -10.2988 23.1738q-11.5859 9.01172 -32.1846 9.01172q-12.874 0 -24.46 -5.15039
q-10.2998 -5.14844 -16.7363 -12.873q-5.14941 -9.01172 -5.14941 -20.5977h24.46q0 19.3105 21.8857 19.3105q9.01172 0 14.1611 -3.86328q5.14941 -2.57422 5.14941 -9.01172q0 -6.43555 -5.14941 -10.2988q-5.14941 -3.86133 -18.0234 -7.72461
q-11.5859 -3.86133 -19.3105 -7.72266q-19.3105 -11.5879 -19.3105 -29.6113q0 -9.01172 5.14941 -16.7344q5.14941 -7.72461 15.4482 -11.5879q9.01172 -3.86133 21.8857 -3.86133t21.8857 3.86133q10.2988 5.15039 15.4482 12.875t5.14941 19.3105h-23.1729
q0 -9.01172 -5.14941 -12.875q-5.14941 -5.14844 -14.1611 -5.14844zM355.318 716.281q5.14941 -5.15039 5.14941 -12.875q0 -9.01172 -5.14941 -14.1602q-5.14941 -5.15039 -14.1611 -5.15039h-21.8857v37.334h21.8857q9.01172 0 14.1611 -5.14844zM364.33 669.936
q9.01172 3.86133 15.4482 12.873q5.14941 9.01172 5.14941 20.5977q0 16.7363 -11.5859 27.0352q-12.874 10.2988 -33.4727 10.2988h-20.5977v41.1973h-24.4609v-117.152h46.3467q12.873 0 23.1729 5.15039zM514.954 720.143q0 -18.0234 -6.43652 -28.3223
q-6.4375 -9.01172 -19.3115 -9.01172q-11.5859 0 -18.0234 9.01172q-6.43652 10.2988 -6.43652 28.3223v5.15039q0 18.0234 6.43652 28.3223q6.4375 10.2988 19.3115 10.2988q11.5859 0 18.0234 -10.2988q6.43652 -9.01172 6.43652 -27.0352v-6.4375zM516.241 669.936
q11.5869 6.43555 16.7363 20.5977q6.43652 12.873 6.43652 29.6094v5.15039q0 18.0234 -6.43652 30.8965q-5.14941 12.873 -16.7363 20.5977q-11.5859 6.4375 -25.7471 6.4375q-15.4492 0 -27.0352 -6.4375q-10.2998 -7.72461 -16.7363 -20.5977
q-6.4375 -12.873 -6.4375 -29.6094v-6.4375q0 -16.7363 6.4375 -29.6094q5.14941 -14.1621 16.7363 -20.5977q11.5859 -6.4375 25.7471 -6.4375q15.4492 0 27.0352 6.4375zM657.854 714.992q3.8623 -5.14844 3.8623 -12.873q0 -9.01172 -3.8623 -12.873
q-5.14941 -5.15039 -14.1611 -5.15039h-19.3105v34.7598h19.3105q9.01172 0 14.1611 -3.86328zM681.026 720.143q-5.14941 7.72461 -15.4482 12.873l25.748 47.6348v1.28711h-27.0352l-21.8857 -43.7715h-18.0234v43.7715h-24.46v-117.152h43.7705
q20.5986 0 30.8975 9.01172q11.5869 9.01172 11.5869 25.748q0 12.873 -5.15039 20.5977zM736.385 664.785h95.2666v19.3105h-36.0469v97.8418h-24.4609v-97.8418h-34.7588v-19.3105z" />
</svg>
