<?xml version="1.0" standalone="no"?>
<!DOCTYPE svg PUBLIC "-//W3C//DTD SVG 1.1//EN" "http://www.w3.org/Graphics/SVG/1.1/DTD/svg11.dtd" >
<svg xmlns="http://www.w3.org/2000/svg" xmlns:xlink="http://www.w3.org/1999/xlink" version="1.1" viewBox="-10 0 1066 1000">
   <path fill="currentColor"
d="M692 271.667q-2.66699 0 -2.66699 2.66602v265.334q0 1.33301 2.66699 1.33301h14.667q2.66602 0 2.66602 -1.33301v-265.334q0 -2.66602 -2.66602 -2.66602h-14.667zM905.333 406.333q0 -13.333 -10.666 -21.333q-9.33398 -9.33301 -22.667 -9.33301
q-14.667 0 -24 9.33301t-9.33301 21.333q0 13.334 9.33301 22.667t24 9.33301q13.333 0 22.667 -9.33301q10.666 -9.33301 10.666 -22.667zM614.667 457q-13.334 0 -24 9.33301q-9.33398 9.33398 -9.33398 22.667t9.33398 22.667q10.666 9.33301 24 9.33301
q13.333 0 24 -9.33301q9.33301 -9.33398 9.33301 -22.667t-9.33301 -22.667q-10.667 -9.33301 -24 -9.33301zM402.667 490.333q0 13.334 10.666 21.334q9.33398 9.33301 22.667 9.33301q14.667 0 24 -9.33301q10.667 -8 10.667 -21.334q0 -13.333 -10.667 -22.666
q-9.33301 -9.33398 -24 -9.33398q-13.333 0 -22.667 9.33398q-10.666 9.33301 -10.666 22.666zM614.667 287.667q-13.334 0 -22.667 9.33301q-10.667 9.33301 -10.667 22.667q0 13.333 10.667 22.666q9.33301 9.33398 22.667 9.33398q14.666 0 24 -9.33398
q10.666 -9.33301 10.666 -22.666q0 -13.334 -10.666 -22.667q-9.33398 -9.33301 -24 -9.33301zM404 321q0 13.333 9.33301 22.667q9.33398 9.33301 24 9.33301q13.334 0 24 -9.33301q9.33398 -9.33398 9.33398 -22.667q0 -12 -9.33398 -21.333
q-10.666 -9.33398 -24 -9.33398q-14.666 0 -24 9.33398q-9.33301 9.33301 -9.33301 21.333zM353.333 291.667q0 -24 17.334 -41.334q16 -16 40 -16h577.333q24 0 40 16q17.333 17.334 17.333 41.334v230.666q0 24 -17.333 40q-16 17.334 -40 17.334h-577.333
q-24 0 -40 -17.334q-17.334 -16 -17.334 -40v-230.666zM374.667 162.333q2.66602 0 2.66602 -2.66602v-265.334q0 -2.66602 -2.66602 -2.66602h-14.667q-2.66699 0 -2.66699 2.66602v265.334q0 2.66602 2.66699 2.66602h14.667zM161.333 27.667q0 12 10.667 21.333
q9.33301 9.33301 22.667 9.33301q14.666 0 24 -9.33301q9.33301 -9.33301 9.33301 -21.333q0 -13.334 -9.33301 -22.667q-9.33398 -9.33301 -24 -9.33301q-13.334 0 -22.667 9.33301q-10.667 9.33301 -10.667 22.667zM101.333 -24.333q13.334 0 24 -8
q9.33398 -9.33398 9.33398 -22.667t-9.33398 -22.667q-10.666 -9.33301 -24 -9.33301q-14.666 0 -24 9.33301q-9.33301 9.33398 -9.33301 22.667t9.33301 22.667q9.33398 8 24 8zM313.333 -56.333q0 -13.334 -10.666 -21.334q-9.33398 -9.33301 -24 -9.33301
q-13.334 0 -22.667 9.33301q-10.667 8 -10.667 21.334q0 13.333 10.667 22.666q9.33301 9.33398 22.667 9.33398q14.666 0 24 -9.33398q10.666 -9.33301 10.666 -22.666zM100 146.333q14.667 0 24 -9.33301t9.33301 -22.667q0 -13.333 -9.33301 -22.666
q-9.33301 -9.33398 -24 -9.33398q-13.333 0 -22.667 9.33398q-10.666 9.33301 -10.666 22.666q0 13.334 10.666 22.667q9.33398 9.33301 22.667 9.33301zM312 113q0 -13.333 -9.33301 -22.667q-10.667 -9.33301 -24 -9.33301q-13.334 0 -24 9.33301
q-9.33398 9.33398 -9.33398 22.667q0 12 9.33398 21.333q10.666 9.33398 24 9.33398q13.333 0 24 -9.33398q9.33301 -9.33301 9.33301 -21.333zM452 -24.333q14.667 0 24 -8q9.33301 -9.33398 9.33301 -22.667t-9.33301 -22.667q-9.33301 -9.33301 -24 -9.33301
q-13.333 0 -24 9.33301q-9.33301 9.33398 -9.33301 22.667t9.33301 22.667q10.667 8 24 8zM664 -56.333q0 -13.334 -10.667 -21.334q-9.33301 -9.33301 -22.666 -9.33301q-14.667 0 -24 9.33301q-9.33398 8 -9.33398 21.334q0 13.333 9.33398 22.666
q9.33301 9.33398 24 9.33398q13.333 0 22.666 -9.33398q10.667 -9.33301 10.667 -22.666zM452 146.333q13.333 0 22.667 -9.33301q10.666 -9.33301 10.666 -22.667q0 -13.333 -10.666 -22.666q-9.33398 -9.33398 -22.667 -9.33398q-14.667 0 -24 9.33398
q-10.667 9.33301 -10.667 22.666q0 13.334 10.667 22.667q9.33301 9.33301 24 9.33301zM662.667 113q0 -13.333 -9.33398 -22.667q-9.33301 -9.33301 -24 -9.33301q-13.333 0 -24 9.33301q-9.33301 9.33398 -9.33301 22.667q0 12 9.33301 21.333q10.667 9.33398 24 9.33398
q14.667 0 24 -9.33398q9.33398 -9.33301 9.33398 -21.333zM713.333 142.333q0 24 -16 41.334q-17.333 16 -41.333 16h-577.333q-24 0 -40 -16q-17.334 -17.334 -17.334 -41.334v-230.666q0 -24 17.334 -40q16 -17.334 40 -17.334h577.333q24 0 41.333 17.334q16 16 16 40
v230.666z" />
</svg>
