<?xml version="1.0" standalone="no"?>
<!DOCTYPE svg PUBLIC "-//W3C//DTD SVG 1.1//EN" "http://www.w3.org/Graphics/SVG/1.1/DTD/svg11.dtd" >
<svg xmlns="http://www.w3.org/2000/svg" xmlns:xlink="http://www.w3.org/1999/xlink" version="1.1" viewBox="-10 0 1010 1000">
   <path fill="currentColor"
d="M648.398 552.852q-2.57812 0 -2.57812 2.57812v256.523q0 1.28906 2.57812 1.28906h14.1797q2.57812 0 2.57812 -1.28906v-256.523q0 -2.57812 -2.57812 -2.57812h-14.1797zM854.648 683.047q0 -12.8906 -10.3125 -20.625q-9.02344 -9.02344 -21.9141 -9.02344
q-14.1797 0 -23.2031 9.02344t-9.02344 20.625q0 12.8906 9.02344 21.9141t23.2031 9.02344q12.8906 0 21.9141 -9.02344q10.3125 -9.02344 10.3125 -21.9141zM573.633 732.031q-12.8906 0 -23.2031 9.02344q-9.02344 9.02344 -9.02344 21.9141t9.02344 21.9141
q10.3125 9.02344 23.2031 9.02344t23.2031 -9.02344q9.02344 -9.02344 9.02344 -21.9141t-9.02344 -21.9141q-10.3125 -9.02344 -23.2031 -9.02344zM368.672 764.258q0 12.8906 10.3125 20.625q9.02344 9.02344 21.9141 9.02344q14.1797 0 23.2031 -9.02344
q10.3125 -7.73438 10.3125 -20.625t-10.3125 -21.9141q-9.02344 -9.02344 -23.2031 -9.02344q-12.8906 0 -21.9141 9.02344q-10.3125 9.02344 -10.3125 21.9141zM573.633 568.32q-12.8906 0 -21.9141 9.02344q-10.3125 9.02344 -10.3125 21.9141t10.3125 21.9141
q9.02344 9.02344 21.9141 9.02344q14.1797 0 23.2031 -9.02344q10.3125 -9.02344 10.3125 -21.9141t-10.3125 -21.9141q-9.02344 -9.02344 -23.2031 -9.02344zM369.961 600.547q0 12.8906 9.02344 21.9141t23.2031 9.02344q12.8906 0 23.2031 -9.02344
q9.02344 -9.02344 9.02344 -21.9141q0 -11.6016 -9.02344 -20.625q-10.3125 -9.02344 -23.2031 -9.02344q-14.1797 0 -23.2031 9.02344t-9.02344 20.625zM320.977 572.188q0 -23.2031 16.7578 -39.9609q15.4688 -15.4688 38.6719 -15.4688h558.164
q23.2031 0 38.6719 15.4688q16.7578 16.7578 16.7578 39.9609v223.008q0 23.2031 -16.7578 38.6719q-15.4688 16.7578 -38.6719 16.7578h-558.164q-23.2031 0 -38.6719 -16.7578q-16.7578 -15.4688 -16.7578 -38.6719v-223.008zM341.602 447.148q2.57812 0 2.57812 -2.57812
v-256.523q0 -2.57812 -2.57812 -2.57812h-14.1797q-2.57812 0 -2.57812 2.57812v256.523q0 2.57812 2.57812 2.57812h14.1797zM135.352 316.953q0 11.6016 10.3125 20.625q9.02344 9.02344 21.9141 9.02344q14.1797 0 23.2031 -9.02344t9.02344 -20.625
q0 -12.8906 -9.02344 -21.9141t-23.2031 -9.02344q-12.8906 0 -21.9141 9.02344q-10.3125 9.02344 -10.3125 21.9141zM77.3438 266.68q12.8906 0 23.2031 -7.73438q9.02344 -9.02344 9.02344 -21.9141t-9.02344 -21.9141q-10.3125 -9.02344 -23.2031 -9.02344
q-14.1797 0 -23.2031 9.02344t-9.02344 21.9141t9.02344 21.9141q9.02344 7.73438 23.2031 7.73438zM282.305 235.742q0 -12.8906 -10.3125 -20.625q-9.02344 -9.02344 -23.2031 -9.02344q-12.8906 0 -21.9141 9.02344q-10.3125 7.73438 -10.3125 20.625t10.3125 21.9141
q9.02344 9.02344 21.9141 9.02344q14.1797 0 23.2031 -9.02344q10.3125 -9.02344 10.3125 -21.9141zM76.0547 431.68q14.1797 0 23.2031 -9.02344t9.02344 -21.9141t-9.02344 -21.9141t-23.2031 -9.02344q-12.8906 0 -21.9141 9.02344q-10.3125 9.02344 -10.3125 21.9141
t10.3125 21.9141q9.02344 9.02344 21.9141 9.02344zM281.016 399.453q0 -12.8906 -9.02344 -21.9141q-10.3125 -9.02344 -23.2031 -9.02344t-23.2031 9.02344q-9.02344 9.02344 -9.02344 21.9141q0 11.6016 9.02344 20.625q10.3125 9.02344 23.2031 9.02344
t23.2031 -9.02344q9.02344 -9.02344 9.02344 -20.625zM416.367 266.68q14.1797 0 23.2031 -7.73438q9.02344 -9.02344 9.02344 -21.9141t-9.02344 -21.9141t-23.2031 -9.02344q-12.8906 0 -23.2031 9.02344q-9.02344 9.02344 -9.02344 21.9141t9.02344 21.9141
q10.3125 7.73438 23.2031 7.73438zM621.328 235.742q0 -12.8906 -10.3125 -20.625q-9.02344 -9.02344 -21.9141 -9.02344q-14.1797 0 -23.2031 9.02344q-9.02344 7.73438 -9.02344 20.625t9.02344 21.9141t23.2031 9.02344q12.8906 0 21.9141 -9.02344
q10.3125 -9.02344 10.3125 -21.9141zM416.367 431.68q12.8906 0 21.9141 -9.02344q10.3125 -9.02344 10.3125 -21.9141t-10.3125 -21.9141q-9.02344 -9.02344 -21.9141 -9.02344q-14.1797 0 -23.2031 9.02344q-10.3125 9.02344 -10.3125 21.9141t10.3125 21.9141
q9.02344 9.02344 23.2031 9.02344zM620.039 399.453q0 -12.8906 -9.02344 -21.9141t-23.2031 -9.02344q-12.8906 0 -23.2031 9.02344q-9.02344 9.02344 -9.02344 21.9141q0 11.6016 9.02344 20.625q10.3125 9.02344 23.2031 9.02344q14.1797 0 23.2031 -9.02344
t9.02344 -20.625zM669.023 427.812q0 23.2031 -15.4688 39.9609q-16.7578 15.4688 -39.9609 15.4688h-558.164q-23.2031 0 -38.6719 -15.4688q-16.7578 -16.7578 -16.7578 -39.9609v-223.008q0 -23.2031 16.7578 -38.6719q15.4688 -16.7578 38.6719 -16.7578h558.164
q23.2031 0 39.9609 16.7578q15.4688 15.4688 15.4688 38.6719v223.008z" />
</svg>
