<?xml version="1.0" standalone="no"?>
<!DOCTYPE svg PUBLIC "-//W3C//DTD SVG 1.1//EN" "http://www.w3.org/Graphics/SVG/1.1/DTD/svg11.dtd" >
<svg xmlns="http://www.w3.org/2000/svg" xmlns:xlink="http://www.w3.org/1999/xlink" version="1.1" viewBox="-10 0 1034 1000">
   <path fill="currentColor"
d="M346.667 517q1.33301 0 8 -1.33301v49.333l-18.667 4q-8 2.66699 -17.333 2.66699q-56 0 -69.334 -54.667l-154.666 -620q-2.66699 -9.33301 -2.66699 -17.333q0 -20 10.667 -37.334q16 -25.333 44 -32l414.666 -102.666q8 -2.66699 16 -2.66699q56 0 69.334 53.333
l34.666 138.667h-44l-20 -82.667q-13.333 -54.666 -66.666 -54.666q-8 0 -16 1.33301l-337.334 84q-28 6.66699 -41.333 30.667q-10.667 17.333 -10.667 36q0 8 2.66699 17.333l130.667 533.333q13.333 54.667 68 54.667zM474.667 -103q-49.334 0 -84 36q-36 34.667 -36 84
v465.333l-1.33398 1.33398h-6.66602q-28 0 -36 -29.334l-130.667 -533.333q-1.33301 -8 -1.33301 -14.667q0 -22.666 26.666 -30.666l337.334 -82.667h10.666q25.334 0 32 29.333l18.667 74.667h-129.333zM881.333 175.667h-66.666l-44 230.666l-53.334 -232h-57.333
l-53.333 232l-44 -232h-66.667l72 326.667h68l53.333 -218.667l52 218.667h68zM901.333 -53.667q29.334 0 50.667 21.334q21.333 21.333 21.333 50.666l-1.33301 640q0 29.334 -20 49.334q-21.333 21.333 -50.667 21.333h-426.666q-29.334 0 -50.667 -21.333
q-20 -20 -20 -50.667v-640q0 -29.333 21.333 -49.333q20 -21.334 49.334 -21.334h426.666z" />
</svg>
