<?xml version="1.0" standalone="no"?>
<!DOCTYPE svg PUBLIC "-//W3C//DTD SVG 1.1//EN" "http://www.w3.org/Graphics/SVG/1.1/DTD/svg11.dtd" >
<svg xmlns="http://www.w3.org/2000/svg" xmlns:xlink="http://www.w3.org/1999/xlink" version="1.1" viewBox="-10 0 911 1000">
   <path fill="currentColor"
d="M246.211 790.039q1.28906 0 7.73438 -1.28906v47.6953l-18.0469 3.86719q-7.73438 2.57812 -16.7578 2.57812q-54.1406 0 -67.0312 -52.8516l-149.531 -599.414q-2.57812 -9.02344 -2.57812 -16.7578q0 -19.3359 10.3125 -36.0938q15.4688 -24.4922 42.5391 -30.9375
l400.898 -99.2578q7.73438 -2.57812 15.4688 -2.57812q54.1406 0 67.0312 51.5625l33.5156 134.062h-42.5391l-19.3359 -79.9219q-12.8906 -52.8516 -64.4531 -52.8516q-7.73438 0 -15.4688 1.28906l-326.133 81.2109q-27.0703 6.44531 -39.9609 29.6484
q-10.3125 16.7578 -10.3125 34.8047q0 7.73438 2.57812 16.7578l126.328 515.625q12.8906 52.8516 65.7422 52.8516zM369.961 190.625q-47.6953 0 -81.2109 34.8047q-34.8047 33.5156 -34.8047 81.2109v449.883l-1.28906 1.28906h-6.44531q-27.0703 0 -34.8047 -28.3594
l-126.328 -515.625q-1.28906 -7.73438 -1.28906 -14.1797q0 -21.9141 25.7812 -29.6484l326.133 -79.9219h10.3125q24.4922 0 30.9375 28.3594l18.0469 72.1875h-125.039zM763.125 460.039h-64.4531l-42.5391 223.008l-51.5625 -224.297h-55.4297l-51.5625 224.297
l-42.5391 -224.297h-64.4531l69.6094 315.82h65.7422l51.5625 -211.406l50.2734 211.406h65.7422zM782.461 238.32q28.3594 0 48.9844 20.625t20.625 48.9844l-1.28906 618.75q0 28.3594 -19.3359 47.6953q-20.625 20.625 -48.9844 20.625h-412.5
q-28.3594 0 -48.9844 -20.625q-19.3359 -19.3359 -19.3359 -48.9844v-618.75q0 -28.3594 20.625 -47.6953q19.3359 -20.625 47.6953 -20.625h412.5z" />
</svg>
