<?xml version="1.0" standalone="no"?>
<!DOCTYPE svg PUBLIC "-//W3C//DTD SVG 1.1//EN" "http://www.w3.org/Graphics/SVG/1.1/DTD/svg11.dtd" >
<svg xmlns="http://www.w3.org/2000/svg" xmlns:xlink="http://www.w3.org/1999/xlink" version="1.1" viewBox="-10 0 1066 1000">
   <path fill="currentColor"
d="M845.333 266.333q62.667 0 125.334 25.334q74.666 30.666 74.666 74.666v50.667h-400v-50.667q0 -44 74.667 -74.666q62.667 -25.334 125.333 -25.334zM845.333 217q-41.333 0 -70.666 -29.333q-29.334 -29.334 -29.334 -70.667t29.334 -70.667
q29.333 -29.333 70.666 -29.333q41.334 0 70.667 29.333q29.333 29.334 29.333 70.667t-29.333 70.667q-29.333 29.333 -70.667 29.333zM612 286.333v-49.333h-118.667v-98.667h118.667v-49.333l118.667 98.667zM145.333 251.667q94.667 0 124 -40v36q-29.333 40 -124 40
q-93.333 0 -124 -38.667v-36q30.667 38.667 124 38.667zM145.333 106.333q94.667 0 124 40v36q-29.333 41.334 -124 41.334q-93.333 0 -124 -40v-38.667q30.667 -38.667 124 -38.667zM145.333 315.667q94.667 0 124 -40v36q-29.333 40 -124 40q-93.333 0 -124 -38.667v-36
q30.667 38.667 124 38.667zM145.333 381q94.667 0 124 -41.333v37.333q-29.333 40 -124 40q-93.333 0 -124 -38.667v-37.333q30.667 40 124 40zM322.667 206.333q96 0 125.333 -40v36q-29.333 41.334 -125.333 41.334q-14.667 0 -32 -2.66699v-36q17.333 1.33301 32 1.33301
zM322.667 61q96 0 125.333 41.333v36q-29.333 40 -125.333 40q-14.667 0 -32 -1.33301v-37.333l-4 -5.33398q-21.334 -29.333 -78.667 -41.333q37.333 -32 114.667 -32zM322.667 270.333q96 0 125.333 -40v36q-29.333 40 -125.333 40q-14.667 0 -32 -1.33301v-36
q17.333 1.33301 32 1.33301z" />
</svg>
