<?xml version="1.0" standalone="no"?>
<!DOCTYPE svg PUBLIC "-//W3C//DTD SVG 1.1//EN" "http://www.w3.org/Graphics/SVG/1.1/DTD/svg11.dtd" >
<svg xmlns="http://www.w3.org/2000/svg" xmlns:xlink="http://www.w3.org/1999/xlink" version="1.1" viewBox="-10 0 1010 1000">
   <path fill="currentColor"
d="M796.641 547.695q60.5859 0 121.172 24.4922q72.1875 29.6484 72.1875 72.1875v48.9844h-386.719v-48.9844q0 -42.5391 72.1875 -72.1875q60.5859 -24.4922 121.172 -24.4922zM796.641 500q-39.9609 0 -68.3203 -28.3594t-28.3594 -68.3203t28.3594 -68.3203
t68.3203 -28.3594t68.3203 28.3594t28.3594 68.3203t-28.3594 68.3203t-68.3203 28.3594zM571.055 567.031v-47.6953h-114.727v-95.3906h114.727v-47.6953l114.727 95.3906zM119.883 533.516q91.5234 0 119.883 -38.6719v34.8047q-28.3594 38.6719 -119.883 38.6719
q-90.2344 0 -119.883 -37.3828v-34.8047q29.6484 37.3828 119.883 37.3828zM119.883 393.008q91.5234 0 119.883 38.6719v34.8047q-28.3594 39.9609 -119.883 39.9609q-90.2344 0 -119.883 -38.6719v-37.3828q29.6484 -37.3828 119.883 -37.3828zM119.883 595.391
q91.5234 0 119.883 -38.6719v34.8047q-28.3594 38.6719 -119.883 38.6719q-90.2344 0 -119.883 -37.3828v-34.8047q29.6484 37.3828 119.883 37.3828zM119.883 658.555q91.5234 0 119.883 -39.9609v36.0938q-28.3594 38.6719 -119.883 38.6719q-90.2344 0 -119.883 -37.3828
v-36.0938q29.6484 38.6719 119.883 38.6719zM291.328 489.688q92.8125 0 121.172 -38.6719v34.8047q-28.3594 39.9609 -121.172 39.9609q-14.1797 0 -30.9375 -2.57812v-34.8047q16.7578 1.28906 30.9375 1.28906zM291.328 349.18q92.8125 0 121.172 39.9609v34.8047
q-28.3594 38.6719 -121.172 38.6719q-14.1797 0 -30.9375 -1.28906v-36.0938l-3.86719 -5.15625q-20.625 -28.3594 -76.0547 -39.9609q36.0938 -30.9375 110.859 -30.9375zM291.328 551.562q92.8125 0 121.172 -38.6719v34.8047q-28.3594 38.6719 -121.172 38.6719
q-14.1797 0 -30.9375 -1.28906v-34.8047q16.7578 1.28906 30.9375 1.28906z" />
</svg>
