<?xml version="1.0" standalone="no"?>
<!DOCTYPE svg PUBLIC "-//W3C//DTD SVG 1.1//EN" "http://www.w3.org/Graphics/SVG/1.1/DTD/svg11.dtd" >
<svg xmlns="http://www.w3.org/2000/svg" xmlns:xlink="http://www.w3.org/1999/xlink" version="1.1" viewBox="-10 0 864 1000">
   <path fill="currentColor"
d="M519.492 286.016q0 -59.2969 -41.25 -100.547q-41.25 -42.5391 -99.2578 -42.5391q-59.2969 0 -100.547 42.5391q-41.25 41.25 -41.25 100.547v110.859h282.305v-110.859zM412.5 706.25q46.4062 -21.9141 46.4062 -73.4766q0 -32.2266 -23.2031 -55.4297
q-23.2031 -24.4922 -55.4297 -24.4922t-55.4297 24.4922q-23.2031 23.2031 -23.2031 55.4297q0 50.2734 43.8281 72.1875l-30.9375 152.109v2.57812q0 2.57812 1.28906 3.86719q2.57812 2.57812 5.15625 2.57812l116.016 1.28906q7.73438 0 7.73438 -7.73438
q0 -1.28906 -1.28906 -2.57812zM666.445 396.875q38.6719 0 67.0312 27.0703q27.0703 28.3594 27.0703 68.3203v407.344q0 39.9609 -27.0703 67.0312q-28.3594 28.3594 -67.0312 28.3594h-572.344q-38.6719 0 -67.0312 -28.3594q-27.0703 -27.0703 -27.0703 -67.0312
v-407.344q0 -39.9609 27.0703 -68.3203q28.3594 -27.0703 67.0312 -27.0703h6.44531v-110.859q0 -116.016 81.2109 -198.516q82.5 -82.5 197.227 -82.5t195.938 82.5t81.2109 198.516v110.859h10.3125z" />
</svg>
