<?xml version="1.0" standalone="no"?>
<!DOCTYPE svg PUBLIC "-//W3C//DTD SVG 1.1//EN" "http://www.w3.org/Graphics/SVG/1.1/DTD/svg11.dtd" >
<svg xmlns="http://www.w3.org/2000/svg" xmlns:xlink="http://www.w3.org/1999/xlink" version="1.1" viewBox="-10 0 1034 1000">
   <path fill="currentColor"
d="M677.333 -4.33301q0 -61.334 -42.666 -104q-42.667 -44 -102.667 -44q-61.333 0 -104 44q-42.667 42.666 -42.667 104v114.666h292v-114.666zM566.667 430.333q48 -22.666 48 -76q0 -33.333 -24 -57.333q-24 -25.333 -57.334 -25.333q-33.333 0 -57.333 25.333
q-24 24 -24 57.333q0 52 45.333 74.667l-32 157.333v2.66699q0 2.66699 1.33398 4q2.66602 2.66699 5.33301 2.66699l120 1.33301q8 0 8 -8q0 -1.33301 -1.33301 -2.66699zM829.333 110.333q40 0 69.334 28q28 29.334 28 70.667v421.333q0 41.334 -28 69.334
q-29.334 29.333 -69.334 29.333h-592q-40 0 -69.333 -29.333q-28 -28 -28 -69.334v-421.333q0 -41.333 28 -70.667q29.333 -28 69.333 -28h6.66699v-114.666q0 -120 84 -205.334q85.333 -85.333 204 -85.333t202.667 85.333q84 85.334 84 205.334v114.666h10.666z" />
</svg>
