<?xml version="1.0" standalone="no"?>
<!DOCTYPE svg PUBLIC "-//W3C//DTD SVG 1.1//EN" "http://www.w3.org/Graphics/SVG/1.1/DTD/svg11.dtd" >
<svg xmlns="http://www.w3.org/2000/svg" xmlns:xlink="http://www.w3.org/1999/xlink" version="1.1" viewBox="-10 0 1010 1000">
   <path fill="currentColor"
d="M79.9219 307.93q79.9219 -79.9219 192.07 -79.9219h519.492q82.5 0 140.508 58.0078t58.0078 139.219q0 82.5 -58.0078 140.508t-140.508 58.0078h-420.234q-51.5625 0 -87.6562 -36.0938t-36.0938 -87.6562t36.0938 -87.6562t87.6562 -36.0938h371.25v99.2578h-375.117
q-20.625 0 -20.625 24.4922t20.625 24.4922h424.102q41.25 0 70.8984 -28.3594q28.3594 -29.6484 28.3594 -70.8984q0 -39.9609 -28.3594 -69.6094q-29.6484 -28.3594 -70.8984 -28.3594h-519.492q-70.8984 0 -122.461 50.2734q-50.2734 50.2734 -50.2734 122.461
t50.2734 122.461q51.5625 50.2734 122.461 50.2734h470.508v99.2578h-470.508q-112.148 0 -192.07 -79.9219t-79.9219 -192.07t79.9219 -192.07z" />
</svg>
