<?xml version="1.0" standalone="no"?>
<!DOCTYPE svg PUBLIC "-//W3C//DTD SVG 1.1//EN" "http://www.w3.org/Graphics/SVG/1.1/DTD/svg11.dtd" >
<svg xmlns="http://www.w3.org/2000/svg" xmlns:xlink="http://www.w3.org/1999/xlink" version="1.1" viewBox="-10 0 1066 1000">
   <path fill="currentColor"
d="M104 18.333q82.667 -82.666 198.667 -82.666h537.333q85.333 0 145.333 60t60 144q0 85.333 -60 145.333t-145.333 60h-434.667q-53.333 0 -90.666 -37.333q-37.334 -37.334 -37.334 -90.667t37.334 -90.667q37.333 -37.333 90.666 -37.333h384v102.667h-388
q-21.333 0 -21.333 25.333t21.333 25.333h438.667q42.667 0 73.333 -29.333q29.334 -30.667 29.334 -73.333q0 -41.334 -29.334 -72q-30.666 -29.334 -73.333 -29.334h-537.333q-73.334 0 -126.667 52q-52 52 -52 126.667t52 126.667q53.333 52 126.667 52h486.666v102.666
h-486.666q-116 0 -198.667 -82.666q-82.667 -82.667 -82.667 -198.667t82.667 -198.667z" />
</svg>
