<?xml version="1.0" standalone="no"?>
<!DOCTYPE svg PUBLIC "-//W3C//DTD SVG 1.1//EN" "http://www.w3.org/Graphics/SVG/1.1/DTD/svg11.dtd" >
<svg xmlns="http://www.w3.org/2000/svg" xmlns:xlink="http://www.w3.org/1999/xlink" version="1.1" viewBox="-10 0 971 1000">
   <path fill="currentColor"
d="M815.977 228.008q21.9141 0 21.9141 -27.0703q0 -28.3594 -21.9141 -28.3594h-243.633q-23.2031 0 -23.2031 28.3594q0 27.0703 23.2031 27.0703h243.633zM815.977 311.797q21.9141 0 21.9141 -27.0703q0 -28.3594 -21.9141 -28.3594h-243.633
q-23.2031 0 -23.2031 28.3594q0 27.0703 23.2031 27.0703h243.633zM549.141 368.516q0 27.0703 14.1797 27.0703h149.531q14.1797 0 14.1797 -27.0703q0 -28.3594 -14.1797 -28.3594h-149.531q-14.1797 0 -14.1797 28.3594zM815.977 675.312q21.9141 0 21.9141 -28.3594
q0 -27.0703 -21.9141 -27.0703h-243.633q-23.2031 0 -23.2031 27.0703q0 28.3594 23.2031 28.3594h243.633zM712.852 759.102q14.1797 0 14.1797 -28.3594q0 -27.0703 -14.1797 -27.0703h-149.531q-14.1797 0 -14.1797 27.0703q0 28.3594 14.1797 28.3594h149.531z
M447.305 168.711q0 -20.625 -16.7578 -36.0938t-41.25 -15.4688h-220.43q-23.2031 0 -39.9609 15.4688t-16.7578 36.0938v202.383q0 21.9141 16.7578 37.3828t39.9609 15.4688h220.43q24.4922 0 41.25 -15.4688t16.7578 -37.3828v-78.6328l-77.3438 72.1875
q-10.3125 7.73438 -24.4922 7.73438t-23.2031 -7.73438l-154.688 -141.797q-10.3125 -10.3125 -10.3125 -19.3359q0 -10.3125 10.3125 -20.625l6.44531 -5.15625q11.6016 -10.3125 21.9141 -10.3125t20.625 10.3125l128.906 117.305l101.836 -92.8125v-33.5156z
M447.305 582.5q0 -30.9375 -21.9141 -52.8516t-52.8516 -21.9141h-185.625q-30.9375 0 -52.8516 21.9141t-21.9141 52.8516v157.266q0 30.9375 21.9141 52.8516t52.8516 21.9141h185.625q30.9375 0 52.8516 -21.9141t21.9141 -52.8516v-157.266zM899.766 5
q20.625 0 36.0938 14.1797q14.1797 14.1797 14.1797 34.8047v823.711q0 16.7578 -10.3125 29.6484v1.28906l-2.57812 1.28906q-1.28906 2.57812 -3.86719 3.86719l-76.0547 73.4766q-7.73438 7.73438 -15.4688 7.73438q-6.44531 0 -14.1797 -7.73438l-61.875 -59.2969
l-60.5859 59.2969q-7.73438 7.73438 -15.4688 7.73438t-15.4688 -7.73438l-55.4297 -54.1406l-56.7188 54.1406q-7.73438 7.73438 -15.4688 7.73438t-15.4688 -7.73438l-55.4297 -54.1406l-56.7188 54.1406q-7.73438 7.73438 -15.4688 7.73438t-15.4688 -7.73438
l-55.4297 -54.1406l-56.7188 54.1406q-7.73438 7.73438 -15.4688 7.73438t-15.4688 -7.73438l-60.5859 -59.2969l-60.5859 59.2969q-7.73438 7.73438 -15.4688 7.73438t-15.4688 -7.73438l-76.0547 -73.4766q-2.57812 -1.28906 -3.86719 -3.86719l-2.57812 -2.57812
q-10.3125 -12.8906 -10.3125 -29.6484v-823.711q0 -20.625 14.1797 -34.8047q15.4688 -14.1797 36.0938 -14.1797h849.492z" />
</svg>
