<?xml version="1.0" standalone="no"?>
<!DOCTYPE svg PUBLIC "-//W3C//DTD SVG 1.1//EN" "http://www.w3.org/Graphics/SVG/1.1/DTD/svg11.dtd" >
<svg xmlns="http://www.w3.org/2000/svg" xmlns:xlink="http://www.w3.org/1999/xlink" version="1.1" viewBox="-10 0 1044 1000">
   <path fill="currentColor"
d="M885.333 -64.333q22.667 0 22.667 -28q0 -29.334 -22.667 -29.334h-252q-24 0 -24 29.334q0 28 24 28h252zM885.333 22.333q22.667 0 22.667 -28q0 -29.333 -22.667 -29.333h-252q-24 0 -24 29.333q0 28 24 28h252zM609.333 81q0 28 14.667 28h154.667
q14.666 0 14.666 -28q0 -29.333 -14.666 -29.333h-154.667q-14.667 0 -14.667 29.333zM885.333 398.333q22.667 0 22.667 -29.333q0 -28 -22.667 -28h-252q-24 0 -24 28q0 29.333 24 29.333h252zM778.667 485q14.666 0 14.666 -29.333q0 -28 -14.666 -28h-154.667
q-14.667 0 -14.667 28q0 29.333 14.667 29.333h154.667zM504 -125.667q0 -21.333 -17.333 -37.333q-17.334 -16 -42.667 -16h-228q-24 0 -41.333 16q-17.334 16 -17.334 37.333v209.334q0 22.666 17.334 38.666q17.333 16 41.333 16h228q25.333 0 42.667 -16
q17.333 -16 17.333 -38.666v-81.334l-80 74.667q-10.667 8 -25.333 8q-14.667 0 -24 -8l-160 -146.667q-10.667 -10.666 -10.667 -20q0 -10.666 10.667 -21.333l6.66602 -5.33301q12 -10.667 22.667 -10.667t21.333 10.667l133.334 121.333l105.333 -96v-34.667z
M504 302.333q0 -32 -22.667 -54.666q-22.666 -22.667 -54.666 -22.667h-192q-32 0 -54.667 22.667q-22.667 22.666 -22.667 54.666v162.667q0 32 22.667 54.667q22.667 22.666 54.667 22.666h192q32 0 54.666 -22.666q22.667 -22.667 22.667 -54.667v-162.667zM972 -295
q21.333 0 37.333 14.667q14.667 14.666 14.667 36v852q0 17.333 -10.667 30.666v1.33398l-2.66602 1.33301q-1.33398 2.66699 -4 4l-78.667 76q-8 8 -16 8q-6.66699 0 -14.667 -8l-64 -61.333l-62.666 61.333q-8 8 -16 8t-16 -8l-57.334 -56l-58.666 56q-8 8 -16 8t-16 -8
l-57.334 -56l-58.666 56q-8 8 -16 8t-16 -8l-57.334 -56l-58.666 56q-8 8 -16 8t-16 -8l-62.667 -61.333l-62.667 61.333q-8 8 -16 8t-16 -8l-78.666 -76q-2.66699 -1.33301 -4 -4l-2.66699 -2.66699q-10.667 -13.333 -10.667 -30.666v-852q0 -21.334 14.667 -36
q16 -14.667 37.333 -14.667h878.667z" />
</svg>
