<?xml version="1.0" standalone="no"?>
<!DOCTYPE svg PUBLIC "-//W3C//DTD SVG 1.1//EN" "http://www.w3.org/Graphics/SVG/1.1/DTD/svg11.dtd" >
<svg xmlns="http://www.w3.org/2000/svg" xmlns:xlink="http://www.w3.org/1999/xlink" version="1.1" viewBox="-10 0 1010 1000">
   <path fill="currentColor"
d="M705.117 704.961l-259.102 -155.977v-296.484h73.4766v260.391l223.008 131.484zM495 5q204.961 0 349.336 145.664q145.664 144.375 145.664 349.336t-145.664 349.336q-144.375 145.664 -349.336 145.664t-350.625 -145.664q-144.375 -144.375 -144.375 -349.336
t144.375 -349.336q145.664 -145.664 350.625 -145.664zM198.516 204.805q-122.461 121.172 -122.461 295.195t122.461 295.195q122.461 123.75 296.484 123.75t295.195 -123.75q123.75 -121.172 123.75 -295.195t-123.75 -295.195q-121.172 -123.75 -295.195 -123.75
t-296.484 123.75z" />
</svg>
