<?xml version="1.0" standalone="no"?>
<!DOCTYPE svg PUBLIC "-//W3C//DTD SVG 1.1//EN" "http://www.w3.org/Graphics/SVG/1.1/DTD/svg11.dtd" >
<svg xmlns="http://www.w3.org/2000/svg" xmlns:xlink="http://www.w3.org/1999/xlink" version="1.1" viewBox="-10 0 1066 1000">
   <path fill="currentColor"
d="M750.667 429l-268 -161.333v-306.667h76v269.333l230.666 136zM533.333 -295q212 0 361.334 150.667q150.666 149.333 150.666 361.333t-150.666 361.333q-149.334 150.667 -361.334 150.667t-362.666 -150.667q-149.334 -149.333 -149.334 -361.333t149.334 -361.333
q150.666 -150.667 362.666 -150.667zM226.667 -88.333q-126.667 125.333 -126.667 305.333t126.667 305.333q126.666 128 306.666 128t305.334 -128q128 -125.333 128 -305.333t-128 -305.333q-125.334 -128 -305.334 -128t-306.666 128z" />
</svg>
