<?xml version="1.0" standalone="no"?>
<!DOCTYPE svg PUBLIC "-//W3C//DTD SVG 1.1//EN" "http://www.w3.org/Graphics/SVG/1.1/DTD/svg11.dtd" >
<svg xmlns="http://www.w3.org/2000/svg" xmlns:xlink="http://www.w3.org/1999/xlink" version="1.1" viewBox="-10 0 944 1000">
   <path fill="currentColor"
d="M757.969 995h-595.547q-2.57812 0 -5.15625 -1.28906q-6.44531 0 -12.8906 -1.28906q-60.5859 -7.73438 -100.547 -55.4297q-19.3359 -23.2031 -27.0703 -52.8516q-11.6016 -52.8516 -15.4688 -106.992q-1.28906 -20.625 -1.28906 -41.25q0 -55.4297 10.3125 -110.859
q20.625 -104.414 77.3438 -194.648q39.9609 -65.7422 97.9688 -118.594q5.15625 -3.86719 10.3125 -3.86719h520.781q15.4688 0 27.0703 11.6016q170.156 168.867 176.602 407.344v12.8906q0 52.8516 -9.02344 105.703q-1.28906 5.15625 -1.28906 9.02344
q-2.57812 19.3359 -9.02344 36.0938q-30.9375 83.7891 -118.594 100.547q-7.73438 2.57812 -16.7578 2.57812q-3.86719 1.28906 -7.73438 1.28906zM511.758 569.609l69.6094 -7.73438v-2.57812q-14.1797 -54.1406 -67.0312 -70.8984q-11.6016 -3.86719 -24.4922 -6.44531
q-5.15625 0 -11.6016 -2.57812v-20.625h-39.9609v21.9141h-2.57812q-24.4922 2.57812 -45.1172 11.6016q-58.0078 28.3594 -58.0078 82.5q0 12.8906 3.86719 28.3594q11.6016 37.3828 46.4062 55.4297q24.4922 14.1797 51.5625 20.625q1.28906 0 2.57812 1.28906
t1.28906 2.57812v94.1016q-34.8047 -15.4688 -43.8281 -51.5625q-37.3828 3.86719 -72.1875 6.44531q3.86719 30.9375 21.9141 55.4297q27.0703 33.5156 69.6094 42.5391q7.73438 1.28906 16.7578 2.57812q3.86719 1.28906 7.73438 1.28906v42.5391h39.9609v-42.5391
q7.73438 -1.28906 14.1797 -3.86719q15.4688 -2.57812 28.3594 -7.73438q63.1641 -21.9141 72.1875 -87.6562v-10.3125q0 -48.9844 -43.8281 -74.7656q-19.3359 -10.3125 -38.6719 -16.7578q-11.6016 -3.86719 -21.9141 -6.44531l-10.3125 -2.57812v-90.2344
q27.0703 9.02344 33.5156 36.0938zM641.953 5q3.86719 0 6.44531 1.28906q7.73438 0 15.4688 1.28906q63.1641 11.6016 112.148 52.8516q27.0703 20.625 48.9844 48.9844l-1.28906 1.28906q-1.28906 0 -2.57812 1.28906q-61.875 56.7188 -123.75 114.727
q-2.57812 3.86719 -7.73438 3.86719q-100.547 -1.28906 -201.094 -1.28906h-257.812q-2.57812 0 -4.51172 -0.644531t-3.22266 -0.644531q-46.4062 -43.8281 -94.1016 -88.9453l-30.9375 -28.3594l-1.28906 -1.28906h-1.28906q1.28906 -2.57812 2.57812 -3.86719
q2.57812 -3.86719 5.15625 -6.44531q47.6953 -55.4297 116.016 -81.2109q27.0703 -10.3125 55.4297 -11.6016q1.28906 -1.28906 2.57812 -1.28906h32.2266l10.3125 2.57812q37.3828 6.44531 70.8984 24.4922q19.3359 11.6016 38.6719 20.625
q15.4688 7.73438 30.9375 7.73438t30.9375 -7.73438q16.7578 -9.02344 34.8047 -18.0469q30.9375 -18.0469 65.7422 -25.7812q7.73438 -1.28906 16.7578 -2.57812q3.86719 -1.28906 7.73438 -1.28906h25.7812zM478.242 781.016v-91.5234q11.6016 2.57812 22.5586 7.73438
t17.4023 15.4688t6.44531 21.9141q0 6.44531 -2.57812 14.1797q-5.15625 12.8906 -18.0469 21.9141t-25.7812 10.3125zM436.992 612.148q-15.4688 -5.15625 -25.1367 -15.4688t-9.66797 -24.4922t10.3125 -25.1367t24.4922 -14.8242v79.9219z" />
</svg>
