<?xml version="1.0" standalone="no"?>
<!DOCTYPE svg PUBLIC "-//W3C//DTD SVG 1.1//EN" "http://www.w3.org/Graphics/SVG/1.1/DTD/svg11.dtd" >
<svg xmlns="http://www.w3.org/2000/svg" xmlns:xlink="http://www.w3.org/1999/xlink" version="1.1" viewBox="-10 0 1034 1000">
   <path fill="currentColor"
d="M841.333 729h-616q-2.66602 0 -5.33301 -1.33301q-6.66699 0 -13.333 -1.33398q-62.667 -8 -104 -57.333q-20 -24 -28 -54.667q-12 -54.666 -16 -110.666q-1.33398 -21.334 -1.33398 -42.667q0 -57.333 10.667 -114.667q21.333 -108 80 -201.333
q41.333 -68 101.333 -122.667q5.33398 -4 10.667 -4h538.667q16 0 28 12q176 174.667 182.666 421.334v13.333q0 54.667 -9.33301 109.333q-1.33301 5.33398 -1.33301 9.33398q-2.66699 20 -9.33398 37.333q-32 86.667 -122.666 104q-8 2.66699 -17.334 2.66699
q-4 1.33301 -8 1.33301zM586.667 289l72 -8v-2.66699q-14.667 -56 -69.334 -73.333q-12 -4 -25.333 -6.66699q-5.33301 0 -12 -2.66602v-21.334h-41.333v22.667h-2.66699q-25.333 2.66699 -46.667 12q-60 29.333 -60 85.333q0 13.334 4 29.334q12 38.666 48 57.333
q25.334 14.667 53.334 21.333q1.33301 0 2.66602 1.33398q1.33398 1.33301 1.33398 2.66602v97.334q-36 -16 -45.334 -53.334q-38.666 4 -74.666 6.66699q4 32 22.666 57.333q28 34.667 72 44q8 1.33398 17.334 2.66699q4 1.33301 8 1.33301v44h41.333v-44
q8 -1.33301 14.667 -4q16 -2.66602 29.333 -8q65.333 -22.666 74.667 -90.666v-10.667q0 -50.667 -45.334 -77.333q-20 -10.667 -40 -17.334q-12 -4 -22.666 -6.66602l-10.667 -2.66699v-93.333q28 9.33301 34.667 37.333zM721.333 -295q4 0 6.66699 1.33301q8 0 16 1.33398
q65.333 12 116 54.666q28 21.334 50.667 50.667l-1.33398 1.33301q-1.33301 0 -2.66602 1.33398q-64 58.666 -128 118.666q-2.66699 4 -8 4q-104 -1.33301 -208 -1.33301h-266.667q-2.66699 0 -4.66699 -0.666992q-2 -0.666016 -3.33301 -0.666016q-48 -45.334 -97.333 -92
l-32 -29.334l-1.33398 -1.33301h-1.33301q1.33301 -2.66699 2.66699 -4q2.66602 -4 5.33301 -6.66699q49.333 -57.333 120 -84q28 -10.666 57.333 -12q1.33398 -1.33301 2.66699 -1.33301h33.333l10.667 2.66699q38.667 6.66602 73.333 25.333q20 12 40 21.333q16 8 32 8
t32 -8q17.334 -9.33301 36 -18.666q32 -18.667 68 -26.667q8 -1.33301 17.334 -2.66699q4 -1.33301 8 -1.33301h26.666zM552 507.667v-94.667q12 2.66699 23.333 8q11.334 5.33301 18 16q6.66699 10.667 6.66699 22.667q0 6.66602 -2.66699 14.666
q-5.33301 13.334 -18.666 22.667q-13.334 9.33301 -26.667 10.667zM509.333 333q-16 -5.33301 -26 -16t-10 -25.333q0 -14.667 10.667 -26q10.667 -11.334 25.333 -15.334v82.667z" />
</svg>
