<?xml version="1.0" standalone="no"?>
<!DOCTYPE svg PUBLIC "-//W3C//DTD SVG 1.1//EN" "http://www.w3.org/Graphics/SVG/1.1/DTD/svg11.dtd" >
<svg xmlns="http://www.w3.org/2000/svg" xmlns:xlink="http://www.w3.org/1999/xlink" version="1.1" viewBox="-10 0 1066 1000">
   <path fill="currentColor"
d="M561.333 361.833h92l-73.333 54.667l28 86.667l-74.667 -53.334l-74.666 53.334l28 -86.667l-73.334 -54.667h92l28 -88zM697.333 403.167q0 -69.334 -48 -117.334t-116 -48t-116 48t-48 117.334q0 68 48 116t116 48t116 -48t48 -114.667v-1.33301zM780 403.167
q-1.33301 101.333 -73.333 173.333q-72 70.667 -170.667 70.667h-4q-102.667 -1.33398 -174.667 -73.334q-70.666 -73.333 -70.666 -174.666q1.33301 -102.667 73.333 -173.334q72 -72 173.333 -72q102.667 0 174.667 72q72 73.334 72 174.667v2.66699zM533.333 115.167
q-18.666 0 -36 2.66602l220 -330.666h328l-297.333 425.333q-85.333 -97.333 -214.667 -97.333zM21.333 -212.833h328l160 244l-64 98.666q-74.666 24 -126.666 82.667z" />
</svg>
