<?xml version="1.0" standalone="no"?>
<!DOCTYPE svg PUBLIC "-//W3C//DTD SVG 1.1//EN" "http://www.w3.org/Graphics/SVG/1.1/DTD/svg11.dtd" >
<svg xmlns="http://www.w3.org/2000/svg" xmlns:xlink="http://www.w3.org/1999/xlink" version="1.1" viewBox="-10 0 1010 1000">
   <path fill="currentColor"
d="M522.07 639.863h88.9453l-70.8984 52.8516l27.0703 83.7891l-72.1875 -51.5625l-72.1875 51.5625l27.0703 -83.7891l-70.8984 -52.8516h88.9453l27.0703 -85.0781zM653.555 679.824q0 -67.0312 -46.4062 -113.438t-112.148 -46.4062t-112.148 46.4062t-46.4062 113.438
q0 65.7422 46.4062 112.148t112.148 46.4062t112.148 -46.4062t46.4062 -110.859v-1.28906zM733.477 679.824q-1.28906 97.9688 -70.8984 167.578q-69.6094 68.3203 -165 68.3203h-3.86719q-99.2578 -1.28906 -168.867 -70.8984q-68.3203 -70.8984 -68.3203 -168.867
q1.28906 -99.2578 70.8984 -167.578q69.6094 -69.6094 167.578 -69.6094q99.2578 0 168.867 69.6094q69.6094 70.8984 69.6094 168.867v2.57812zM495 401.387q-18.0469 0 -34.8047 2.57812l212.695 -319.688h317.109l-287.461 411.211q-82.5 -94.1016 -207.539 -94.1016z
M0 84.2773h317.109l154.688 235.898l-61.875 95.3906q-72.1875 23.2031 -122.461 79.9219z" />
</svg>
