<?xml version="1.0" standalone="no"?>
<!DOCTYPE svg PUBLIC "-//W3C//DTD SVG 1.1//EN" "http://www.w3.org/Graphics/SVG/1.1/DTD/svg11.dtd" >
<svg xmlns="http://www.w3.org/2000/svg" xmlns:xlink="http://www.w3.org/1999/xlink" version="1.1" viewBox="-10 0 1066 1000">
   <path fill="currentColor"
d="M226.667 147.667q126.666 248 376 376l124 -125.334q17.333 -17.333 40 -17.333q9.33301 0 18.666 2.66699q98.667 33.333 202.667 33.333q24 0 40 16q17.333 17.333 17.333 40v198.667q0 24 -17.333 40q-16 17.333 -40 17.333q-196 0 -376 -76
q-173.333 -73.333 -308 -206.667q-133.333 -134.666 -206.667 -308q-76 -180 -76 -376q0 -24 17.334 -40q16 -17.333 40 -17.333h198.666q24 0 40 17.333q17.334 16 17.334 40q0 104 32 202.667q2.66602 9.33301 2.66602 18.667q0 22.666 -17.333 40z" />
</svg>
