<?xml version="1.0" standalone="no"?>
<!DOCTYPE svg PUBLIC "-//W3C//DTD SVG 1.1//EN" "http://www.w3.org/Graphics/SVG/1.1/DTD/svg11.dtd" >
<svg xmlns="http://www.w3.org/2000/svg" xmlns:xlink="http://www.w3.org/1999/xlink" version="1.1" viewBox="-10 0 1010 1000">
   <path fill="currentColor"
d="M198.516 432.969q122.461 239.766 363.516 363.516l119.883 -121.172q16.7578 -16.7578 38.6719 -16.7578q9.02344 0 18.0469 2.57812q95.3906 32.2266 195.938 32.2266q23.2031 0 38.6719 15.4688q16.7578 16.7578 16.7578 38.6719v192.07q0 23.2031 -16.7578 38.6719
q-15.4688 16.7578 -38.6719 16.7578q-189.492 0 -363.516 -73.4766q-167.578 -70.8984 -297.773 -199.805q-128.906 -130.195 -199.805 -297.773q-73.4766 -174.023 -73.4766 -363.516q0 -23.2031 16.7578 -38.6719q15.4688 -16.7578 38.6719 -16.7578h192.07
q23.2031 0 38.6719 16.7578q16.7578 15.4688 16.7578 38.6719q0 100.547 30.9375 195.938q2.57812 9.02344 2.57812 18.0469q0 21.9141 -16.7578 38.6719z" />
</svg>
