<?xml version="1.0" standalone="no"?>
<!DOCTYPE svg PUBLIC "-//W3C//DTD SVG 1.1//EN" "http://www.w3.org/Graphics/SVG/1.1/DTD/svg11.dtd" >
<svg xmlns="http://www.w3.org/2000/svg" xmlns:xlink="http://www.w3.org/1999/xlink" version="1.1" viewBox="-10 0 1010 1000">
   <path fill="currentColor"
d="M341.602 449.727q1.28906 -3.86719 1.28906 -6.44531v-3.86719l-1.28906 -3.86719v-3.86719l-14.1797 -12.8906h-16.7578q-7.73438 2.57812 -10.3125 5.15625q-3.86719 3.86719 -3.86719 7.73438q-2.57812 3.86719 -2.57812 9.02344q0 3.86719 2.57812 9.02344
l10.3125 12.8906h20.625zM300.352 394.297l2.57812 -2.57812l2.57812 -1.28906q2.57812 -2.57812 5.15625 -6.44531q1.28906 -3.86719 1.28906 -6.44531v-3.86719q-1.28906 -3.86719 -5.15625 -6.44531l-1.28906 -3.86719l-2.57812 -2.57812
q-2.57812 -3.86719 -6.44531 -3.86719q-3.86719 -3.86719 -9.02344 -3.86719q-3.86719 0 -7.73438 3.86719q-10.3125 5.15625 -10.3125 10.3125q-2.57812 3.86719 -2.57812 7.73438t2.57812 9.02344l2.57812 2.57812l2.57812 3.86719q3.86719 3.86719 7.73438 3.86719
h18.0469zM376.406 418.789v3.86719l1.28906 3.86719q2.57812 5.15625 2.57812 9.02344q-21.9141 25.7812 -38.6719 55.4297h-3.86719q-12.8906 5.15625 -25.7812 5.15625q-10.3125 0 -19.3359 -2.57812q-20.625 -3.86719 -27.0703 -23.2031
q-3.86719 -14.1797 -3.86719 -28.3594q0 -3.86719 3.86719 -10.3125l3.86719 -5.15625l2.57812 -5.15625l-20.625 -6.44531q-11.6016 -11.6016 -14.1797 -16.7578q-3.86719 -10.3125 -3.86719 -21.9141q0 -6.44531 1.28906 -12.8906q10.3125 -19.3359 30.9375 -27.0703
q15.4688 -5.15625 32.2266 -5.15625q7.73438 0 16.7578 1.28906q18.0469 6.44531 27.0703 24.4922q3.86719 9.02344 3.86719 20.625l-10.3125 20.625h23.2031l5.15625 3.86719l5.15625 5.15625q5.15625 5.15625 7.73438 11.6016zM192.07 476.797
q-6.44531 -28.3594 -20.625 -55.4297v7.73438q-6.44531 29.6484 -6.44531 61.875zM234.609 487.109l16.7578 34.8047l-30.9375 12.8906q-11.6016 -15.4688 -18.0469 -33.5156l-58.0078 23.2031l-10.3125 -20.625l3.86719 -30.9375l5.15625 -30.9375
q5.15625 -36.0938 11.6016 -61.875l30.9375 -12.8906l41.25 95.3906l18.0469 -6.44531l10.3125 24.4922zM292.617 675.312q1.28906 34.8047 7.73438 69.6094l-30.9375 -7.73438q-103.125 -30.9375 -174.023 -109.57q-70.8984 -79.9219 -88.9453 -184.336
q-6.44531 -34.8047 -6.44531 -68.3203q0 -113.438 69.6094 -210.117q90.2344 -127.617 243.633 -153.398q36.0938 -6.44531 70.8984 -6.44531q113.438 0 211.406 68.3203q128.906 88.9453 154.688 242.344l-86.3672 -6.44531h-7.73438q-134.062 0 -234.609 88.9453
q-20.625 -78.6328 -81.2109 -121.172q-43.8281 -32.2266 -91.5234 -32.2266q-19.3359 0 -38.6719 5.15625q-69.6094 18.0469 -103.125 85.0781q-21.9141 43.8281 -21.9141 91.5234q0 27.0703 6.44531 54.1406q18.0469 76.0547 78.6328 119.883
q45.1172 33.5156 95.3906 33.5156q15.4688 0 30.9375 -2.57812q-3.86719 21.9141 -3.86719 43.8281zM729.609 439.414q-34.8047 0 -65.7422 16.7578q-51.5625 32.2266 -61.875 92.8125q-1.28906 12.8906 -1.28906 25.7812q0 47.6953 25.7812 90.2344
q30.9375 56.7188 92.8125 79.9219q23.2031 9.02344 46.4062 9.02344q33.5156 0 64.4531 -19.3359q50.2734 -32.2266 63.1641 -90.2344q1.28906 -12.8906 1.28906 -27.0703q0 -47.6953 -25.7812 -92.8125q-32.2266 -56.7188 -94.1016 -78.6328zM663.867 995
q-135.352 0 -230.742 -94.1016q-95.3906 -95.3906 -95.3906 -228.164q0 -134.062 95.3906 -228.164q95.3906 -95.3906 230.742 -95.3906t230.742 95.3906q95.3906 94.1016 95.3906 228.164v2.57812q0 132.773 -94.1016 225.586q-95.3906 94.1016 -228.164 94.1016h-3.86719z
M813.398 626.328q1.28906 -2.57812 1.28906 -5.15625q0 -7.73438 -6.44531 -14.1797l-2.57812 -3.86719q-6.44531 -10.3125 -19.3359 -12.8906h-3.86719q-10.3125 0 -19.3359 5.15625l-2.57812 1.28906q-9.02344 9.02344 -9.02344 21.9141t9.02344 21.9141v1.28906
q10.3125 12.8906 23.2031 12.8906h2.57812q10.3125 0 16.7578 -10.3125q9.02344 -6.44531 10.3125 -18.0469zM750.234 558.008q0 -10.3125 -6.44531 -19.3359q-11.6016 -11.6016 -21.9141 -11.6016q-9.02344 0 -16.7578 7.73438q-7.73438 5.15625 -10.3125 15.4688v3.86719
q0 6.44531 3.86719 14.1797q1.28906 2.57812 3.86719 5.15625q11.6016 10.3125 20.625 10.3125t16.7578 -7.73438q9.02344 -6.44531 10.3125 -18.0469zM723.164 610.859h-7.73438q-23.2031 0 -41.25 -18.0469q-15.4688 -15.4688 -15.4688 -38.6719
q0 -21.9141 16.7578 -38.6719l6.44531 -3.86719q16.7578 -18.0469 41.25 -18.0469t41.25 16.7578l3.86719 3.86719q12.8906 14.1797 12.8906 32.2266q0 7.73438 -2.57812 16.7578q7.73438 -3.86719 16.7578 -3.86719q6.44531 0 12.8906 2.57812
q14.1797 3.86719 21.9141 18.0469q19.3359 15.4688 21.9141 38.6719v6.44531q0 20.625 -14.1797 37.3828q-3.86719 5.15625 -10.3125 10.3125q-18.0469 16.7578 -41.25 16.7578h-3.86719q-25.7812 0 -43.8281 -18.0469l-5.15625 -6.44531
q-11.6016 -10.3125 -15.4688 -25.7812v-7.73438q0 -10.3125 5.15625 -20.625z" />
</svg>
