<?xml version="1.0" standalone="no"?>
<!DOCTYPE svg PUBLIC "-//W3C//DTD SVG 1.1//EN" "http://www.w3.org/Graphics/SVG/1.1/DTD/svg11.dtd" >
<svg xmlns="http://www.w3.org/2000/svg" xmlns:xlink="http://www.w3.org/1999/xlink" version="1.1" viewBox="-10 0 1066 1000">
   <path fill="currentColor"
d="M374.667 165q1.33301 -4 1.33301 -6.66699v-4l-1.33301 -4v-4l-14.667 -13.333h-17.333q-8 2.66699 -10.667 5.33301q-4 4 -4 8q-2.66699 4 -2.66699 9.33398q0 4 2.66699 9.33301l10.667 13.333h21.333zM332 107.667l2.66699 -2.66699l2.66602 -1.33301
q2.66699 -2.66699 5.33398 -6.66699q1.33301 -4 1.33301 -6.66699v-4q-1.33301 -4 -5.33301 -6.66602l-1.33398 -4l-2.66602 -2.66699q-2.66699 -4 -6.66699 -4q-4 -4 -9.33301 -4q-4 0 -8 4q-10.667 5.33301 -10.667 10.667q-2.66699 4 -2.66699 8t2.66699 9.33301
l2.66699 2.66699l2.66602 4q4 4 8 4h18.667zM410.667 133v4l1.33301 4q2.66699 5.33301 2.66699 9.33301q-22.667 26.667 -40 57.334h-4q-13.334 5.33301 -26.667 5.33301q-10.667 0 -20 -2.66699q-21.333 -4 -28 -24q-4 -14.666 -4 -29.333q0 -4 4 -10.667l4 -5.33301
l2.66699 -5.33301l-21.334 -6.66699q-12 -12 -14.666 -17.333q-4 -10.667 -4 -22.667q0 -6.66699 1.33301 -13.333q10.667 -20 32 -28q16 -5.33398 33.333 -5.33398q8 0 17.334 1.33398q18.666 6.66602 28 25.333q4 9.33301 4 21.333l-10.667 21.334h24l5.33301 4
l5.33398 5.33301q5.33301 5.33301 8 12zM220 193q-6.66699 -29.333 -21.333 -57.333v8q-6.66699 30.666 -6.66699 64zM264 203.667l17.333 36l-32 13.333q-12 -16 -18.666 -34.667l-60 24l-10.667 -21.333l4 -32l5.33301 -32q5.33398 -37.333 12 -64l32 -13.333
l42.667 98.666l18.667 -6.66602l10.666 25.333zM324 398.333q1.33301 36 8 72l-32 -8q-106.667 -32 -180 -113.333q-73.333 -82.667 -92 -190.667q-6.66699 -36 -6.66699 -70.666q0 -117.334 72 -217.334q93.334 -132 252 -158.666q37.334 -6.66699 73.334 -6.66699
q117.333 0 218.666 70.667q133.334 92 160 250.666l-89.333 -6.66602h-8q-138.667 0 -242.667 92q-21.333 -81.334 -84 -125.334q-45.333 -33.333 -94.666 -33.333q-20 0 -40 5.33301q-72 18.667 -106.667 88q-22.667 45.334 -22.667 94.667q0 28 6.66699 56
q18.667 78.667 81.333 124q46.667 34.667 98.667 34.667q16 0 32 -2.66699q-4 22.667 -4 45.333zM776 154.333q-36 0 -68 17.334q-53.333 33.333 -64 96q-1.33301 13.333 -1.33301 26.666q0 49.334 26.666 93.334q32 58.666 96 82.666q24 9.33398 48 9.33398
q34.667 0 66.667 -20q52 -33.334 65.333 -93.334q1.33398 -13.333 1.33398 -28q0 -49.333 -26.667 -96q-33.333 -58.666 -97.333 -81.333zM708 729q-140 0 -238.667 -97.333q-98.666 -98.667 -98.666 -236q0 -138.667 98.666 -236q98.667 -98.667 238.667 -98.667
t238.667 98.667q98.666 97.333 98.666 236v2.66602q0 137.334 -97.333 233.334q-98.667 97.333 -236 97.333h-4zM862.667 347.667q1.33301 -2.66699 1.33301 -5.33398q0 -8 -6.66699 -14.666l-2.66602 -4q-6.66699 -10.667 -20 -13.334h-4q-10.667 0 -20 5.33398
l-2.66699 1.33301q-9.33301 9.33301 -9.33301 22.667q0 13.333 9.33301 22.666v1.33398q10.667 13.333 24 13.333h2.66699q10.666 0 17.333 -10.667q9.33301 -6.66602 10.667 -18.666zM797.333 277q0 -10.667 -6.66602 -20q-12 -12 -22.667 -12q-9.33301 0 -17.333 8
q-8 5.33301 -10.667 16v4q0 6.66699 4 14.667q1.33301 2.66602 4 5.33301q12 10.667 21.333 10.667q9.33398 0 17.334 -8q9.33301 -6.66699 10.666 -18.667zM769.333 331.667h-8q-24 0 -42.666 -18.667q-16 -16 -16 -40q0 -22.667 17.333 -40l6.66699 -4
q17.333 -18.667 42.666 -18.667q25.334 0 42.667 17.334l4 4q13.333 14.666 13.333 33.333q0 8 -2.66602 17.333q8 -4 17.333 -4q6.66699 0 13.333 2.66699q14.667 4 22.667 18.667q20 16 22.667 40v6.66602q0 21.334 -14.667 38.667q-4 5.33301 -10.667 10.667
q-18.666 17.333 -42.666 17.333h-4q-26.667 0 -45.334 -18.667l-5.33301 -6.66602q-12 -10.667 -16 -26.667v-8q0 -10.667 5.33301 -21.333z" />
</svg>
