<?xml version="1.0" standalone="no"?>
<!DOCTYPE svg PUBLIC "-//W3C//DTD SVG 1.1//EN" "http://www.w3.org/Graphics/SVG/1.1/DTD/svg11.dtd" >
<svg xmlns="http://www.w3.org/2000/svg" xmlns:xlink="http://www.w3.org/1999/xlink" version="1.1" viewBox="-10 0 1034 1000">
   <path fill="currentColor"
d="M629.333 515.667q2.66699 0 4 -2.66699v-2.66699l-1.33301 -2.66602h-2.66699l-5.33301 2.66602v2.66699l2.66699 2.66699h2.66602zM641.333 587.667q1.33398 2.66602 5.33398 2.66602v-1.33301q4 0 6.66602 -2.66699h1.33398q1.33301 -4 1.33301 -6.66602
q0 -5.33398 -4 -8h-5.33301q-4 0 -6.66699 2.66602q-2.66699 2.66699 -2.66699 5.33398q0 5.33301 4 8zM649.333 613q-2.66602 6.66699 -6.66602 10.667q-5.33398 4 -12 4q4 1.33301 6.66602 5.33301h1.33398l2.66602 4h1.33398q1.33301 4 1.33301 6.66699v1.33301h1.33301
v-1.33301l1.33398 -1.33398q1.33301 -4 4 -6.66602l6.66602 -4h5.33398q-5.33398 -1.33398 -9.33398 -6.66699t-4 -12zM640 549l4 -1.33301q2.66699 -1.33398 2.66699 -4q0 -4 -2.66699 -5.33398h-5.33301l-4 2.66699l-2.66699 2.66699q0 4 2.66699 5.33301h5.33301z
M394.667 -27q-2.66699 -1.33301 -2.66699 -4q0 -1.33301 1.33301 -2.66699q1.33398 -2.66602 4 -2.66602q1.33398 0 2.66699 1.33301t1.33301 4v1.33301q-1.33301 2.66699 -5.33301 2.66699h-1.33301zM390.667 -76.333q0 -4 -2.66699 -8h1.33301q4 4 9.33398 4
q2.66602 0 6.66602 -1.33398q-2.66602 2.66699 -4 8q0 4 1.33398 8q-4 -5.33301 -9.33398 -5.33301q-2.66602 0 -6.66602 2.66699q2.66602 -4 4 -8zM372 -20.333q-4 -5.33398 -10.667 -5.33398h-4q-4 0 -8 1.33398v-1.33398q4 -4 5.33398 -10.666v-2.66699
q0 -5.33301 -2.66699 -9.33301h1.33301q4 5.33301 10.667 6.66602h4q4 0 8 -1.33301h1.33301q-5.33301 4 -5.33301 10.667v4q0 4 1.33301 8h-1.33301zM358.667 -93.667q4 0 8 4q2.66602 2.66699 2.66602 8v2.66699q-1.33301 4 -5.33301 5.33301h-9.33301
q-4 -2.66602 -5.33398 -6.66602v-9.33398q4 -2.66602 9.33398 -4zM408 -119q-17.333 -26.667 -40 -26.667t-38.667 28q-16 26.667 -16 65.334q1.33398 37.333 18.667 64q14.667 26.666 37.333 26.666h2.66699q22.667 0 38.667 -28q14.666 -24 14.666 -58.666v-5.33398
q0 -38.666 -17.333 -65.333zM580 -204.333q4 1.33301 6.66699 5.33301q1.33301 2.66699 1.33301 5.33301v2.66699q0 5.33301 -4 8q-2.66699 1.33301 -5.33301 1.33301h-4q-4 -1.33301 -6.66699 -5.33301q-1.33301 -2.66699 -1.33301 -5.33301v-2.66699
q1.33301 -4 5.33301 -6.66699q2.66699 -2.66602 8 -2.66602zM604 -229.667q2.66699 8 12 9.33398q-5.33301 1.33301 -8 5.33301q-2.66699 2.66699 -2.66699 8q-1.33301 -5.33301 -5.33301 -8q-2.66699 -2.66699 -6.66699 -2.66699l-1.33301 -1.33301
q9.33301 -1.33301 10.667 -10.667h1.33301zM621.333 -187q1.33398 6.66699 6.66699 10.667q4 4 10.667 4q-6.66699 1.33301 -10.667 5.33301q-4 5.33301 -4 12h-1.33301v1.33301q-1.33398 -5.33301 -6.66699 -9.33301t-10.667 -5.33301q5.33398 -1.33398 9.33398 -6.66699
q5.33301 -5.33301 5.33301 -12h1.33301zM640 -201.667h1.33301q2.66699 0 4 1.33398q1.33398 1.33301 1.33398 2.66602q0 2.66699 -2.66699 4q-4 0 -5.33301 -2.66602v-1.33398q0 -2.66602 1.33301 -4zM581.333 -137.667q30.667 18.667 61.334 18.667h4
q30.666 -1.33301 42.666 -21.333q4 -8 4 -18.667q0 -13.333 -8 -29.333q-16 -26.667 -49.333 -45.334q-30.667 -17.333 -60 -17.333h-4q-32 0 -44 20q-4 8 -4 18.667q0 13.333 8 29.333q16 26.667 49.333 45.333zM432 -209.667q4 0 6.66699 2.66699l2.66602 2.66699
l1.33398 1.33301h1.33301q-1.33301 -4 -1.33301 -8q0 -6.66699 5.33301 -12h-9.33301q-6.66699 0 -10.667 -6.66699h-1.33301q1.33301 4 1.33301 8v4q-1.33301 5.33398 -5.33301 8h9.33301zM444 117h-1.33301q-6.66699 6.66699 -16 6.66699h-2.66699
q-2.66699 0 -5.33301 -1.33398q1.33301 0 2.66602 2.66699l1.33398 1.33301l1.33301 1.33398q2.66699 5.33301 2.66699 9.33301t-1.33398 8h1.33398q5.33301 -6.66699 14.666 -6.66699h8q-6.66602 -5.33301 -6.66602 -14.666q0 -2.66699 1.33301 -6.66699zM517.333 413
l6.66699 -2.66699h2.66699q-12 -2.66602 -17.334 -14.666q-1.33301 -5.33398 -1.33301 -10.667h-2.66699q-4 12 -16 17.333q-4 2.66699 -9.33301 2.66699h-1.33301q5.33301 1.33301 10.666 5.33301q9.33398 8 10.667 20h1.33301q2.66699 -12 14.667 -17.333h1.33301z
M732 -61.667q-1.33301 5.33398 -4 9.33398q-4 4 -9.33301 5.33301h2.66602q9.33398 4 10.667 12l2.66699 -2.66699v-2.66602l1.33301 -1.33398v-1.33301q1.33301 -1.33301 2.66699 -1.33301l6.66602 -4h1.33398q-5.33398 -1.33398 -9.33398 -4q-4 -4 -5.33301 -9.33398z
M416 158.333q-4 0 -4 4q0 1.33398 1.33301 2.66699q1.33398 1.33301 2.66699 1.33301h1.33301q4 0 4 -4v-4h-5.33301zM564 629q1.33301 -1.33301 1.33301 -2.66699v-5.33301h-5.33301q-1.33301 0 -2.66699 1.33301q-2.66602 1.33398 -2.66602 4q0 2.66699 2.66602 4
q1.33398 1.33398 2.66699 1.33398q2.66699 0 4 -2.66699zM736 -4.33301q-12 -20 -30.667 -30.667q-14.666 -8 -30.666 -12q38.666 -8 58.666 -41.333q10.667 -20 10.667 -41.334v-5.33301q17.333 40 17.333 84v6.66699q0 40 -14.666 78.666q-1.33398 -20 -10.667 -38.666z
M621.333 221q-5.33301 5.33301 -10.666 5.33301h-4q-2.66699 -1.33301 -4 -4v-5.33301q1.33301 -4 1.33301 -10.667q0 -8 -1.33301 -14.666q-5.33398 -14.667 -18.667 -14.667h-4q-10.667 1.33301 -14.667 13.333q-1.33301 5.33398 -1.33301 12q0 9.33398 5.33301 22.667
q1.33398 1.33301 1.33398 2.66699q0 1.33301 -1.33398 2.66602q0 1.33398 -1.33301 1.33398q-2.66699 0 -6.66699 -2.66699q-44 -18.667 -62.666 -58.667q-12 -24 -12 -50.666q0 -18.667 6.66602 -40q6.66699 -25.334 28 -50.667q21.334 -26.667 53.334 -44
q36 -20 74.666 -20h12q20 1.33301 34.667 9.33301q16 9.33398 22.667 22.667q6.66602 12 6.66602 29.333v9.33398q-2.66602 26.666 -18.666 58.666q-36 68 -85.334 126.667zM658.667 498.333q24 74.667 24 118.667q0 38.667 -17.334 54.667q-33.333 26.666 -74.666 30.666
q-14.667 2.66699 -30.667 2.66699h-21.333q36 -12 53.333 -36q20 -28 21.333 -74.667v-10.666q0 -146.667 -117.333 -290.667l-13.333 -16q-5.33398 21.333 -30.667 36q-21.333 12 -40 12h-1.33301q18.666 -24 22.666 -53.333v-17.334q0 -17.333 -6.66602 -33.333
q0 18.667 -20 33.333q-17.334 12 -37.334 12q12 -14.666 14.667 -36q1.33301 -6.66602 1.33301 -16q0 -10.666 -1.33301 -24q0 -4 -1.33301 -10.666l-1.33398 -6.66699l-1.33301 -5.33301l-1.33301 -5.33398h-1.33398l-2.66602 -8q-4 -13.333 -10.667 -26.666
q-6.66699 -16 -16 -29.334h1.33301q18.667 10.667 41.334 12h5.33301q20 0 36 -8q20 -9.33301 32 -26.666q-6.66699 20 -6.66699 40q1.33398 21.333 5.33398 41.333l6.66602 17.333q5.33398 18.667 13.334 36q20 36 45.333 66.667q2.66699 4 6.66699 8l4 4l4 5.33301
q9.33301 10.667 14.666 17.334q18.667 24 33.334 45.333q41.333 60 68 141.333zM449.333 693q-30.666 -9.33301 -57.333 -29.333q13.333 2.66602 26.667 2.66602q29.333 0 60 -13.333q28 -13.333 52 -36q24 -24 37.333 -54.667q14.667 -32 14.667 -65.333
q0 -1.33301 -1.33398 -5.33301v-6.66699q10.667 42.667 12 85.333q0 61.334 -29.333 94.667q-28 32 -77.333 32q-18.667 0 -37.334 -4zM493.333 461q-9.33301 0 -16 9.33301q-5.33301 8 -6.66602 20q-1.33398 9.33398 -2.66699 10.667h-1.33301l-1.33398 -1.33301h-1.33301
q-2.66699 0 -4 -1.33398q-1.33301 -1.33301 -2.66699 -6.66602q-1.33301 -4 -2.66602 -10.667q-2.66699 -8 -4 -17.333q-4 -25.334 -4 -42.667v-26.667q2.66602 -30.666 8 -60l9.33301 -5.33301q8 -5.33301 16 -12l1.33301 -1.33301h1.33398l1.33301 1.33301l18.667 24
l10.666 14.667l2.66699 4q26.667 37.333 46.667 80q-13.334 49.333 -44 70.666q-6.66699 6.66699 -16 6.66699q-2.66699 0 -5.33398 -1.33301q-1.33301 -1.33398 -1.33301 -2.66699t1.33301 -2.66699q14.667 -12 16 -30.666q0 -12 -10.666 -16zM396 607.667
q20 0 45.333 -9.33398q25.334 -10.666 49.334 -28q57.333 -40 78.666 -93.333v2.66699q0 70.666 -54.666 120q-22.667 20 -48 32q-25.334 10.666 -45.334 10.666q-30.666 0 -30.666 -22.666q0 -6.66699 2.66602 -12h2.66699zM425.333 454.333v9.33398
q1.33398 9.33301 1.33398 16q1.33301 16 1.33301 26.666q0 26.667 -6.66699 44q-6.66602 17.334 -25.333 36q1.33301 -10.666 6.66699 -29.333l1.33301 -8l2.66699 -9.33301q2.66602 -9.33398 4 -17.334q10.666 -45.333 13.333 -76zM325.333 -141.667q12 -18.666 26.667 -28
q14.667 -9.33301 30.667 -9.33301q17.333 0 32 9.33301q14.666 9.33398 25.333 28q22.667 37.334 22.667 90.667q0 52 -22.667 90.667q-12 17.333 -26.667 28q-14.666 9.33301 -30.666 9.33301q-17.334 0 -32 -9.33301q-14.667 -10.667 -25.334 -28
q-22.666 -37.334 -22.666 -90.667q0 -54.667 22.666 -90.667zM469.333 -241.667q-9.33301 16 -12 34.667v8q0 14.667 4 28q-10.666 -10.667 -25.333 -20q-18.667 -10.667 -42.667 -10.667q-20 0 -38.666 8q29.333 -33.333 68 -53.333q37.333 -21.333 81.333 -28
q-22.667 10.667 -34.667 33.333zM489.333 38.333v1.33398l-1.33301 1.33301q-1.33301 2.66699 -2.66699 2.66699q-5.33301 0 -5.33301 -5.33398q0 -4 5.33301 -4q4 0 4 4zM480 -129.667q-4 -1.33301 -4 -5.33301v-1.33301h1.33301q1.33398 -2.66699 2.66699 -2.66699
h2.66699q2.66602 1.33301 2.66602 4v1.33301q0 4 -4 4h-1.33301zM464 -155q1.33301 -4 6.66699 -5.33301h2.66602q2.66699 1.33301 4 4q1.33398 1.33301 1.33398 2.66602q0 1.33398 -1.33398 4q-2.66602 4 -6.66602 4h-2.66699q-2.66699 -1.33301 -4 -4v-5.33301z
M474.667 51.667q5.33301 1.33301 5.33301 6.66602q0 2.66699 -1.33301 5.33398q-1.33398 1.33301 -4 1.33301h-1.33398q-2.66602 0 -4 -1.33301q-2.66602 -1.33398 -2.66602 -4q0 -2.66699 1.33301 -5.33398q1.33301 -1.33301 4 -2.66602h2.66699zM548 -73.667
q44 26.667 68 26.667h2.66699q-30.667 2.66699 -68 22.667q-40 21.333 -57.334 48q10.667 -18.667 10.667 -61.334v-10.666q-1.33301 -52 -14.667 -73.334q14.667 21.334 58.667 48zM637.333 -43q-2.66602 0 -4 -1.33301q-1.33301 -1.33398 -1.33301 -2.66699
q0 -2.66699 2.66699 -4h2.66602q2.66699 0 4 1.33301q1.33398 1.33398 1.33398 2.66699q0 2.66699 -2.66699 4h-2.66699zM658.667 -40.333q-4 0 -5.33398 -2.66699q-1.33301 -2.66699 -1.33301 -5.33301q0 -2.66699 2.66699 -5.33398h4q2.66602 0 5.33301 2.66699
q1.33301 2.66699 1.33301 5.33301q0 2.66699 -2.66602 5.33398h-4zM714.667 -180.333q10.666 18.666 12 37.333v4q0 14.667 -8 28q-8 14.667 -24 22.667q-16 6.66602 -37.334 8h-4q-44 0 -88 -25.334q-46.666 -26.666 -66.666 -66.666q-10.667 -18.667 -12 -36v-5.33398
q0 -14.666 6.66602 -26.666q9.33398 -14.667 25.334 -22.667t37.333 -9.33301h4q42.667 0 86.667 26.666q46.666 26.667 68 65.334zM532 -295q-72 0 -132 38.667q-61.333 38.666 -90.667 104q-18.666 41.333 -21.333 86.666q-1.33301 10.667 -1.33301 21.334
q0 33.333 9.33301 66.666q6.66699 24 17.333 48q2.66699 6.66699 8 17.334l8 18.666q10.667 21.334 17.334 34.667q16 34.667 17.333 72q0 38.667 -25.333 69.333q12 1.33398 24 1.33398h5.33301q20 0 38.667 -9.33398q0 17.334 -9.33398 34.667q-9.33301 20 -29.333 36
q13.333 2.66699 28 2.66699l21.333 -1.33398v5.33398q-1.33301 16 -8 54.666q-5.33301 37.334 -10.666 62.667q-6.66699 29.333 -13.334 60q-1.33301 5.33301 -2.66602 12l-1.33398 6.66699l-1.33301 5.33301q-4 12 -5.33301 20q-9.33398 38.667 -9.33398 72v1.33301
q0 37.334 52 61.334q48 21.333 114.667 21.333h5.33301q70.667 -1.33301 113.334 -20q48 -21.333 54.666 -62.667q1.33398 -12 1.33398 -26.666q0 -38.667 -13.334 -89.334q-22.666 -84 -82.666 -186.666q18.666 10.666 38.666 10.666h4q-12 -14.666 -16 -36
q-1.33301 -8 -1.33301 -14.666q-1.33301 -2.66699 -1.33301 -5.33398v-4q5.33301 -21.333 32 -68q2.66602 -5.33301 6.66602 -10.666l2.66699 -6.66699l4 -5.33301q8 -16 14.667 -26.667q18.666 -32 34.666 -62.667l17.334 -36q2.66602 -5.33301 5.33301 -10.666
q25.333 -56 26.667 -112v-6.66699q0 -48 -17.334 -92q-18.666 -44 -52 -78.667q-32 -32 -72 -50.666q-50.666 -22.667 -105.333 -22.667zM501.333 659.667q-2.66602 2.66602 -2.66602 6.66602t2.66602 8q2.66699 2.66699 6.66699 2.66699t8 -2.66699q2.66699 -4 2.66699 -8
t-2.66699 -6.66602q-4 -2.66699 -8 -2.66699t-6.66699 2.66699zM572 605q1.33301 -1.33301 1.33301 -2.66699v-1.33301q0 -1.33301 -1.33301 -1.33301h-1.33301q-1.33398 0 -2.66699 1.33301v2.66699q0 1.33301 1.33301 1.33301h2.66699zM540 641q-4 0 -5.33301 2.66699
q-2.66699 1.33301 -2.66699 5.33301q0 2.66699 2.66699 5.33301q1.33301 2.66699 5.33301 2.66699q2.66699 0 5.33301 -2.66699q2.66699 -2.66602 2.66699 -5.33301v-1.33301q0 -4 -2.66699 -5.33398q0 -1.33301 -1.33301 -1.33301h-4zM646.667 89
q-2.66699 0 -5.33398 1.33301q-6.66602 2.66699 -9.33301 8h-1.33301q1.33301 -4 1.33301 -6.66602q0 -2.66699 -1.33301 -5.33398q-1.33398 -6.66602 -6.66699 -9.33301h12q6.66699 -2.66699 10.667 -8v12q1.33301 5.33301 6.66602 9.33301
q-2.66602 -1.33301 -6.66602 -1.33301zM626.667 46.333q2.66602 0 2.66602 4v2.66699q-1.33301 1.33301 -2.66602 1.33301q-5.33398 0 -5.33398 -4t5.33398 -4zM596 118.333q-4 0 -6.66699 -2.66602q-4 -2.66699 -4 -8q0 -4 2.66699 -8q2.66699 -2.66699 8 -4q5.33301 0 8 4
q4 2.66602 4 8q0 4 -2.66699 6.66602q-4 4 -8 4h-1.33301zM582.667 82.333q1.33301 -2.66602 1.33301 -5.33301t-1.33301 -4q-1.33398 -4 -5.33398 -6.66699h9.33398q4 -1.33301 6.66602 -5.33301v4q0 6.66699 5.33398 10.667q-2.66699 -1.33398 -4 -1.33398
q-6.66699 0 -12 6.66699v1.33301zM542.667 82.333q-9.33398 14.667 -9.33398 28q0 10.667 5.33398 18.667q10.666 21.333 41.333 22.667h4q30.667 0 62.667 -17.334q33.333 -18.666 49.333 -46.666q8 -16 8 -29.334q0 -9.33301 -4 -18.666q-10.667 -20 -42.667 -21.334h-4
q-30.666 0 -61.333 17.334q-33.333 18.666 -49.333 46.666z" />
</svg>
