<?xml version="1.0" standalone="no"?>
<!DOCTYPE svg PUBLIC "-//W3C//DTD SVG 1.1//EN" "http://www.w3.org/Graphics/SVG/1.1/DTD/svg11.dtd" >
<svg xmlns="http://www.w3.org/2000/svg" xmlns:xlink="http://www.w3.org/1999/xlink" version="1.1" viewBox="-10 0 722 1000">
   <path fill="currentColor"
d="M331.289 788.75q2.57812 0 3.86719 -2.57812v-2.57812l-1.28906 -2.57812h-2.57812l-5.15625 2.57812v2.57812l2.57812 2.57812h2.57812zM342.891 858.359q1.28906 2.57812 5.15625 2.57812v-1.28906q3.86719 0 6.44531 -2.57812h1.28906
q1.28906 -3.86719 1.28906 -6.44531q0 -5.15625 -3.86719 -7.73438h-5.15625q-3.86719 0 -6.44531 2.57812t-2.57812 5.15625q0 5.15625 3.86719 7.73438zM350.625 882.852q-2.57812 6.44531 -6.44531 10.3125q-5.15625 3.86719 -11.6016 3.86719
q3.86719 1.28906 6.44531 5.15625h1.28906l2.57812 3.86719h1.28906q1.28906 3.86719 1.28906 6.44531v1.28906h1.28906v-1.28906l1.28906 -1.28906q1.28906 -3.86719 3.86719 -6.44531l6.44531 -3.86719h5.15625q-5.15625 -1.28906 -9.02344 -6.44531t-3.86719 -11.6016z
M341.602 820.977l3.86719 -1.28906q2.57812 -1.28906 2.57812 -3.86719q0 -3.86719 -2.57812 -5.15625h-5.15625l-3.86719 2.57812l-2.57812 2.57812q0 3.86719 2.57812 5.15625h5.15625zM104.414 264.102q-2.57812 -1.28906 -2.57812 -3.86719q0 -1.28906 1.28906 -2.57812
q1.28906 -2.57812 3.86719 -2.57812q1.28906 0 2.57812 1.28906t1.28906 3.86719v1.28906q-1.28906 2.57812 -5.15625 2.57812h-1.28906zM100.547 216.406q0 -3.86719 -2.57812 -7.73438h1.28906q3.86719 3.86719 9.02344 3.86719q2.57812 0 6.44531 -1.28906
q-2.57812 2.57812 -3.86719 7.73438q0 3.86719 1.28906 7.73438q-3.86719 -5.15625 -9.02344 -5.15625q-2.57812 0 -6.44531 2.57812q2.57812 -3.86719 3.86719 -7.73438zM82.5 270.547q-3.86719 -5.15625 -10.3125 -5.15625h-3.86719q-3.86719 0 -7.73438 1.28906v-1.28906
q3.86719 -3.86719 5.15625 -10.3125v-2.57812q0 -5.15625 -2.57812 -9.02344h1.28906q3.86719 5.15625 10.3125 6.44531h3.86719q3.86719 0 7.73438 -1.28906h1.28906q-5.15625 3.86719 -5.15625 10.3125v3.86719q0 3.86719 1.28906 7.73438h-1.28906zM69.6094 199.648
q3.86719 0 7.73438 3.86719q2.57812 2.57812 2.57812 7.73438v2.57812q-1.28906 3.86719 -5.15625 5.15625h-9.02344q-3.86719 -2.57812 -5.15625 -6.44531v-9.02344q3.86719 -2.57812 9.02344 -3.86719zM117.305 175.156q-16.7578 -25.7812 -38.6719 -25.7812
t-37.3828 27.0703q-15.4688 25.7812 -15.4688 63.1641q1.28906 36.0938 18.0469 61.875q14.1797 25.7812 36.0938 25.7812h2.57812q21.9141 0 37.3828 -27.0703q14.1797 -23.2031 14.1797 -56.7188v-5.15625q0 -37.3828 -16.7578 -63.1641zM283.594 92.6562
q3.86719 1.28906 6.44531 5.15625q1.28906 2.57812 1.28906 5.15625v2.57812q0 5.15625 -3.86719 7.73438q-2.57812 1.28906 -5.15625 1.28906h-3.86719q-3.86719 -1.28906 -6.44531 -5.15625q-1.28906 -2.57812 -1.28906 -5.15625v-2.57812
q1.28906 -3.86719 5.15625 -6.44531q2.57812 -2.57812 7.73438 -2.57812zM306.797 68.1641q2.57812 7.73438 11.6016 9.02344q-5.15625 1.28906 -7.73438 5.15625q-2.57812 2.57812 -2.57812 7.73438q-1.28906 -5.15625 -5.15625 -7.73438
q-2.57812 -2.57812 -6.44531 -2.57812l-1.28906 -1.28906q9.02344 -1.28906 10.3125 -10.3125h1.28906zM323.555 109.414q1.28906 6.44531 6.44531 10.3125q3.86719 3.86719 10.3125 3.86719q-6.44531 1.28906 -10.3125 5.15625q-3.86719 5.15625 -3.86719 11.6016h-1.28906
v1.28906q-1.28906 -5.15625 -6.44531 -9.02344t-10.3125 -5.15625q5.15625 -1.28906 9.02344 -6.44531q5.15625 -5.15625 5.15625 -11.6016h1.28906zM341.602 95.2344h1.28906q2.57812 0 3.86719 1.28906t1.28906 2.57812q0 2.57812 -2.57812 3.86719
q-3.86719 0 -5.15625 -2.57812v-1.28906q0 -2.57812 1.28906 -3.86719zM284.883 157.109q29.6484 18.0469 59.2969 18.0469h3.86719q29.6484 -1.28906 41.25 -20.625q3.86719 -7.73438 3.86719 -18.0469q0 -12.8906 -7.73438 -28.3594q-15.4688 -25.7812 -47.6953 -43.8281
q-29.6484 -16.7578 -58.0078 -16.7578h-3.86719q-30.9375 0 -42.5391 19.3359q-3.86719 7.73438 -3.86719 18.0469q0 12.8906 7.73438 28.3594q15.4688 25.7812 47.6953 43.8281zM140.508 87.5q3.86719 0 6.44531 2.57812l2.57812 2.57812l1.28906 1.28906h1.28906
q-1.28906 -3.86719 -1.28906 -7.73438q0 -6.44531 5.15625 -11.6016h-9.02344q-6.44531 0 -10.3125 -6.44531h-1.28906q1.28906 3.86719 1.28906 7.73438v3.86719q-1.28906 5.15625 -5.15625 7.73438h9.02344zM152.109 403.32h-1.28906q-6.44531 6.44531 -15.4688 6.44531
h-2.57812q-2.57812 0 -5.15625 -1.28906q1.28906 0 2.57812 2.57812l1.28906 1.28906l1.28906 1.28906q2.57812 5.15625 2.57812 9.02344t-1.28906 7.73438h1.28906q5.15625 -6.44531 14.1797 -6.44531h7.73438q-6.44531 -5.15625 -6.44531 -14.1797
q0 -2.57812 1.28906 -6.44531zM223.008 689.492l6.44531 -2.57812h2.57812q-11.6016 -2.57812 -16.7578 -14.1797q-1.28906 -5.15625 -1.28906 -10.3125h-2.57812q-3.86719 11.6016 -15.4688 16.7578q-3.86719 2.57812 -9.02344 2.57812h-1.28906
q5.15625 1.28906 10.3125 5.15625q9.02344 7.73438 10.3125 19.3359h1.28906q2.57812 -11.6016 14.1797 -16.7578h1.28906zM430.547 230.586q-1.28906 5.15625 -3.86719 9.02344q-3.86719 3.86719 -9.02344 5.15625h2.57812q9.02344 3.86719 10.3125 11.6016
l2.57812 -2.57812v-2.57812l1.28906 -1.28906v-1.28906q1.28906 -1.28906 2.57812 -1.28906l6.44531 -3.86719h1.28906q-5.15625 -1.28906 -9.02344 -3.86719q-3.86719 -3.86719 -5.15625 -9.02344zM125.039 443.281q-3.86719 0 -3.86719 3.86719q0 1.28906 1.28906 2.57812
t2.57812 1.28906h1.28906q3.86719 0 3.86719 -3.86719v-3.86719h-5.15625zM268.125 898.32q1.28906 -1.28906 1.28906 -2.57812v-5.15625h-5.15625q-1.28906 0 -2.57812 1.28906q-2.57812 1.28906 -2.57812 3.86719t2.57812 3.86719q1.28906 1.28906 2.57812 1.28906
q2.57812 0 3.86719 -2.57812zM434.414 286.016q-11.6016 -19.3359 -29.6484 -29.6484q-14.1797 -7.73438 -29.6484 -11.6016q37.3828 -7.73438 56.7188 -39.9609q10.3125 -19.3359 10.3125 -39.9609v-5.15625q16.7578 38.6719 16.7578 81.2109v6.44531
q0 38.6719 -14.1797 76.0547q-1.28906 -19.3359 -10.3125 -37.3828zM323.555 503.867q-5.15625 5.15625 -10.3125 5.15625h-3.86719q-2.57812 -1.28906 -3.86719 -3.86719v-5.15625q1.28906 -3.86719 1.28906 -10.3125q0 -7.73438 -1.28906 -14.1797
q-5.15625 -14.1797 -18.0469 -14.1797h-3.86719q-10.3125 1.28906 -14.1797 12.8906q-1.28906 5.15625 -1.28906 11.6016q0 9.02344 5.15625 21.9141q1.28906 1.28906 1.28906 2.57812t-1.28906 2.57812q0 1.28906 -1.28906 1.28906q-2.57812 0 -6.44531 -2.57812
q-42.5391 -18.0469 -60.5859 -56.7188q-11.6016 -23.2031 -11.6016 -48.9844q0 -18.0469 6.44531 -38.6719q6.44531 -24.4922 27.0703 -48.9844q20.625 -25.7812 51.5625 -42.5391q34.8047 -19.3359 72.1875 -19.3359h11.6016q19.3359 1.28906 33.5156 9.02344
q15.4688 9.02344 21.9141 21.9141q6.44531 11.6016 6.44531 28.3594v9.02344q-2.57812 25.7812 -18.0469 56.7188q-34.8047 65.7422 -82.5 122.461zM359.648 771.992q23.2031 72.1875 23.2031 114.727q0 37.3828 -16.7578 52.8516q-32.2266 25.7812 -72.1875 29.6484
q-14.1797 2.57812 -29.6484 2.57812h-20.625q34.8047 -11.6016 51.5625 -34.8047q19.3359 -27.0703 20.625 -72.1875v-10.3125q0 -141.797 -113.438 -281.016l-12.8906 -15.4688q-5.15625 20.625 -29.6484 34.8047q-20.625 11.6016 -38.6719 11.6016h-1.28906
q18.0469 -23.2031 21.9141 -51.5625v-16.7578q0 -16.7578 -6.44531 -32.2266q0 18.0469 -19.3359 32.2266q-16.7578 11.6016 -36.0938 11.6016q11.6016 -14.1797 14.1797 -34.8047q1.28906 -6.44531 1.28906 -15.4688q0 -10.3125 -1.28906 -23.2031
q0 -3.86719 -1.28906 -10.3125l-1.28906 -6.44531l-1.28906 -5.15625l-1.28906 -5.15625h-1.28906l-2.57812 -7.73438q-3.86719 -12.8906 -10.3125 -25.7812q-6.44531 -15.4688 -15.4688 -28.3594h1.28906q18.0469 10.3125 39.9609 11.6016h5.15625
q19.3359 0 34.8047 -7.73438q19.3359 -9.02344 30.9375 -25.7812q-6.44531 19.3359 -6.44531 38.6719q1.28906 20.625 5.15625 39.9609l6.44531 16.7578q5.15625 18.0469 12.8906 34.8047q19.3359 34.8047 43.8281 64.4531q2.57812 3.86719 6.44531 7.73438l3.86719 3.86719
l3.86719 5.15625q9.02344 10.3125 14.1797 16.7578q18.0469 23.2031 32.2266 43.8281q39.9609 58.0078 65.7422 136.641zM157.266 960.195q-29.6484 -9.02344 -55.4297 -28.3594q12.8906 2.57812 25.7812 2.57812q28.3594 0 58.0078 -12.8906
q27.0703 -12.8906 50.2734 -34.8047q23.2031 -23.2031 36.0938 -52.8516q14.1797 -30.9375 14.1797 -63.1641q0 -1.28906 -1.28906 -5.15625v-6.44531q10.3125 41.25 11.6016 82.5q0 59.2969 -28.3594 91.5234q-27.0703 30.9375 -74.7656 30.9375
q-18.0469 0 -36.0938 -3.86719zM199.805 735.898q-9.02344 0 -15.4688 9.02344q-5.15625 7.73438 -6.44531 19.3359q-1.28906 9.02344 -2.57812 10.3125h-1.28906l-1.28906 -1.28906h-1.28906q-2.57812 0 -3.86719 -1.28906t-2.57812 -6.44531
q-1.28906 -3.86719 -2.57812 -10.3125q-2.57812 -7.73438 -3.86719 -16.7578q-3.86719 -24.4922 -3.86719 -41.25v-25.7812q2.57812 -29.6484 7.73438 -58.0078l9.02344 -5.15625q7.73438 -5.15625 15.4688 -11.6016l1.28906 -1.28906h1.28906l1.28906 1.28906
l18.0469 23.2031l10.3125 14.1797l2.57812 3.86719q25.7812 36.0938 45.1172 77.3438q-12.8906 47.6953 -42.5391 68.3203q-6.44531 6.44531 -15.4688 6.44531q-2.57812 0 -5.15625 -1.28906q-1.28906 -1.28906 -1.28906 -2.57812t1.28906 -2.57812
q14.1797 -11.6016 15.4688 -29.6484q0 -11.6016 -10.3125 -15.4688zM105.703 877.695q19.3359 0 43.8281 -9.02344q24.4922 -10.3125 47.6953 -27.0703q55.4297 -38.6719 76.0547 -90.2344v2.57812q0 68.3203 -52.8516 116.016q-21.9141 19.3359 -46.4062 30.9375
q-24.4922 10.3125 -43.8281 10.3125q-29.6484 0 -29.6484 -21.9141q0 -6.44531 2.57812 -11.6016h2.57812zM134.062 729.453v9.02344q1.28906 9.02344 1.28906 15.4688q1.28906 15.4688 1.28906 25.7812q0 25.7812 -6.44531 42.5391t-24.4922 34.8047
q1.28906 -10.3125 6.44531 -28.3594l1.28906 -7.73438l2.57812 -9.02344q2.57812 -9.02344 3.86719 -16.7578q10.3125 -43.8281 12.8906 -73.4766zM37.3828 153.242q11.6016 -18.0469 25.7812 -27.0703t29.6484 -9.02344q16.7578 0 30.9375 9.02344t24.4922 27.0703
q21.9141 36.0938 21.9141 87.6562q0 50.2734 -21.9141 87.6562q-11.6016 16.7578 -25.7812 27.0703q-14.1797 9.02344 -29.6484 9.02344q-16.7578 0 -30.9375 -9.02344q-14.1797 -10.3125 -24.4922 -27.0703q-21.9141 -36.0938 -21.9141 -87.6562
q0 -52.8516 21.9141 -87.6562zM176.602 56.5625q-9.02344 15.4688 -11.6016 33.5156v7.73438q0 14.1797 3.86719 27.0703q-10.3125 -10.3125 -24.4922 -19.3359q-18.0469 -10.3125 -41.25 -10.3125q-19.3359 0 -37.3828 7.73438q28.3594 -32.2266 65.7422 -51.5625
q36.0938 -20.625 78.6328 -27.0703q-21.9141 10.3125 -33.5156 32.2266zM195.938 327.266v1.28906l-1.28906 1.28906q-1.28906 2.57812 -2.57812 2.57812q-5.15625 0 -5.15625 -5.15625q0 -3.86719 5.15625 -3.86719q3.86719 0 3.86719 3.86719zM186.914 164.844
q-3.86719 -1.28906 -3.86719 -5.15625v-1.28906h1.28906q1.28906 -2.57812 2.57812 -2.57812h2.57812q2.57812 1.28906 2.57812 3.86719v1.28906q0 3.86719 -3.86719 3.86719h-1.28906zM171.445 140.352q1.28906 -3.86719 6.44531 -5.15625h2.57812
q2.57812 1.28906 3.86719 3.86719q1.28906 1.28906 1.28906 2.57812t-1.28906 3.86719q-2.57812 3.86719 -6.44531 3.86719h-2.57812q-2.57812 -1.28906 -3.86719 -3.86719v-5.15625zM181.758 340.156q5.15625 1.28906 5.15625 6.44531q0 2.57812 -1.28906 5.15625
q-1.28906 1.28906 -3.86719 1.28906h-1.28906q-2.57812 0 -3.86719 -1.28906q-2.57812 -1.28906 -2.57812 -3.86719t1.28906 -5.15625q1.28906 -1.28906 3.86719 -2.57812h2.57812zM252.656 218.984q42.5391 25.7812 65.7422 25.7812h2.57812
q-29.6484 2.57812 -65.7422 21.9141q-38.6719 20.625 -55.4297 46.4062q10.3125 -18.0469 10.3125 -59.2969v-10.3125q-1.28906 -50.2734 -14.1797 -70.8984q14.1797 20.625 56.7188 46.4062zM339.023 248.633q-2.57812 0 -3.86719 -1.28906t-1.28906 -2.57812
q0 -2.57812 2.57812 -3.86719h2.57812q2.57812 0 3.86719 1.28906t1.28906 2.57812q0 2.57812 -2.57812 3.86719h-2.57812zM359.648 251.211q-3.86719 0 -5.15625 -2.57812t-1.28906 -5.15625t2.57812 -5.15625h3.86719q2.57812 0 5.15625 2.57812
q1.28906 2.57812 1.28906 5.15625t-2.57812 5.15625h-3.86719zM413.789 115.859q10.3125 18.0469 11.6016 36.0938v3.86719q0 14.1797 -7.73438 27.0703q-7.73438 14.1797 -23.2031 21.9141q-15.4688 6.44531 -36.0938 7.73438h-3.86719q-42.5391 0 -85.0781 -24.4922
q-45.1172 -25.7812 -64.4531 -64.4531q-10.3125 -18.0469 -11.6016 -34.8047v-5.15625q0 -14.1797 6.44531 -25.7812q9.02344 -14.1797 24.4922 -21.9141t36.0938 -9.02344h3.86719q41.25 0 83.7891 25.7812q45.1172 25.7812 65.7422 63.1641zM237.188 5
q-69.6094 0 -127.617 37.3828q-59.2969 37.3828 -87.6562 100.547q-18.0469 39.9609 -20.625 83.7891q-1.28906 10.3125 -1.28906 20.625q0 32.2266 9.02344 64.4531q6.44531 23.2031 16.7578 46.4062q2.57812 6.44531 7.73438 16.7578l7.73438 18.0469l16.7578 33.5156
q15.4688 33.5156 16.7578 69.6094q0 37.3828 -24.4922 67.0312q11.6016 1.28906 23.2031 1.28906h5.15625q19.3359 0 37.3828 -9.02344q0 16.7578 -9.02344 33.5156q-9.02344 19.3359 -28.3594 34.8047q12.8906 2.57812 27.0703 2.57812l20.625 -1.28906v5.15625
q-1.28906 15.4688 -7.73438 52.8516q-5.15625 36.0938 -10.3125 60.5859q-6.44531 28.3594 -12.8906 58.0078q-1.28906 5.15625 -2.57812 11.6016l-1.28906 6.44531l-1.28906 5.15625q-3.86719 11.6016 -5.15625 19.3359q-9.02344 37.3828 -9.02344 69.6094v1.28906
q0 36.0938 50.2734 59.2969q46.4062 20.625 110.859 20.625h5.15625q68.3203 -1.28906 109.57 -19.3359q46.4062 -20.625 52.8516 -60.5859q1.28906 -11.6016 1.28906 -25.7812q0 -37.3828 -12.8906 -86.3672q-21.9141 -81.2109 -79.9219 -180.469
q18.0469 10.3125 37.3828 10.3125h3.86719q-11.6016 -14.1797 -15.4688 -34.8047q-1.28906 -7.73438 -1.28906 -14.1797q-1.28906 -2.57812 -1.28906 -5.15625v-3.86719q5.15625 -20.625 30.9375 -65.7422q2.57812 -5.15625 6.44531 -10.3125l2.57812 -6.44531
l3.86719 -5.15625q7.73438 -15.4688 14.1797 -25.7812q18.0469 -30.9375 33.5156 -60.5859l16.7578 -34.8047l5.15625 -10.3125q24.4922 -54.1406 25.7812 -108.281v-6.44531q0 -46.4062 -16.7578 -88.9453q-18.0469 -42.5391 -50.2734 -76.0547
q-30.9375 -30.9375 -69.6094 -48.9844q-48.9844 -21.9141 -101.836 -21.9141zM207.539 927.969q-2.57812 2.57812 -2.57812 6.44531t2.57812 7.73438q2.57812 2.57812 6.44531 2.57812t7.73438 -2.57812q2.57812 -3.86719 2.57812 -7.73438t-2.57812 -6.44531
q-3.86719 -2.57812 -7.73438 -2.57812t-6.44531 2.57812zM275.859 875.117q1.28906 -1.28906 1.28906 -2.57812v-1.28906q0 -1.28906 -1.28906 -1.28906h-1.28906q-1.28906 0 -2.57812 1.28906v2.57812q0 1.28906 1.28906 1.28906h2.57812zM244.922 909.922
q-3.86719 0 -5.15625 2.57812q-2.57812 1.28906 -2.57812 5.15625q0 2.57812 2.57812 5.15625q1.28906 2.57812 5.15625 2.57812q2.57812 0 5.15625 -2.57812t2.57812 -5.15625v-1.28906q0 -3.86719 -2.57812 -5.15625q0 -1.28906 -1.28906 -1.28906h-3.86719z
M348.047 376.25q-2.57812 0 -5.15625 1.28906q-6.44531 2.57812 -9.02344 7.73438h-1.28906q1.28906 -3.86719 1.28906 -6.44531t-1.28906 -5.15625q-1.28906 -6.44531 -6.44531 -9.02344h11.6016q6.44531 -2.57812 10.3125 -7.73438v11.6016
q1.28906 5.15625 6.44531 9.02344q-2.57812 -1.28906 -6.44531 -1.28906zM328.711 335q2.57812 0 2.57812 3.86719v2.57812q-1.28906 1.28906 -2.57812 1.28906q-5.15625 0 -5.15625 -3.86719t5.15625 -3.86719zM299.062 404.609q-3.86719 0 -6.44531 -2.57812
q-3.86719 -2.57812 -3.86719 -7.73438q0 -3.86719 2.57812 -7.73438q2.57812 -2.57812 7.73438 -3.86719q5.15625 0 7.73438 3.86719q3.86719 2.57812 3.86719 7.73438q0 3.86719 -2.57812 6.44531q-3.86719 3.86719 -7.73438 3.86719h-1.28906zM286.172 369.805
q1.28906 -2.57812 1.28906 -5.15625t-1.28906 -3.86719q-1.28906 -3.86719 -5.15625 -6.44531h9.02344q3.86719 -1.28906 6.44531 -5.15625v3.86719q0 6.44531 5.15625 10.3125q-2.57812 -1.28906 -3.86719 -1.28906q-6.44531 0 -11.6016 6.44531v1.28906zM247.5 369.805
q-9.02344 14.1797 -9.02344 27.0703q0 10.3125 5.15625 18.0469q10.3125 20.625 39.9609 21.9141h3.86719q29.6484 0 60.5859 -16.7578q32.2266 -18.0469 47.6953 -45.1172q7.73438 -15.4688 7.73438 -28.3594q0 -9.02344 -3.86719 -18.0469
q-10.3125 -19.3359 -41.25 -20.625h-3.86719q-29.6484 0 -59.2969 16.7578q-32.2266 18.0469 -47.6953 45.1172z" />
</svg>
