<?xml version="1.0" standalone="no"?>
<!DOCTYPE svg PUBLIC "-//W3C//DTD SVG 1.1//EN" "http://www.w3.org/Graphics/SVG/1.1/DTD/svg11.dtd" >
<svg xmlns="http://www.w3.org/2000/svg" xmlns:xlink="http://www.w3.org/1999/xlink" version="1.1" viewBox="-10 0 998 1000">
   <path fill="currentColor"
d="M322.266 520.625q-6.44531 1.28906 -12.8906 1.28906q-15.4688 0 -29.6484 -9.02344q-18.0469 -11.6016 -23.2031 -32.2266l33.5156 -7.73438q2.57812 10.3125 10.3125 16.7578q6.44531 3.86719 12.8906 3.86719h3.86719q11.6016 -1.28906 16.7578 -10.3125
t5.15625 -19.3359q0 -3.86719 -1.28906 -7.73438q-1.28906 -12.8906 -11.6016 -23.2031q-6.44531 -5.15625 -15.4688 -5.15625h-3.86719q-15.4688 2.57812 -23.2031 16.7578h-27.0703q3.86719 -37.3828 3.86719 -92.8125q42.5391 -7.73438 82.5 -21.9141l1.28906 7.73438
l1.28906 7.73438q2.57812 9.02344 2.57812 16.7578q-29.6484 10.3125 -59.2969 15.4688v32.2266q9.02344 -7.73438 20.625 -10.3125q5.15625 -1.28906 10.3125 -1.28906q16.7578 0 29.6484 11.6016q15.4688 12.8906 20.625 32.2266q-28.3594 36.0938 -47.6953 78.6328z
M288.75 674.023q1.28906 36.0938 9.02344 70.8984q-16.7578 -2.57812 -30.9375 -6.44531q-101.836 -30.9375 -172.734 -110.859t-88.9453 -185.625q-5.15625 -33.5156 -5.15625 -67.0312q0 -113.438 69.6094 -211.406q90.2344 -126.328 242.344 -153.398
q33.5156 -5.15625 67.0312 -5.15625q113.438 0 211.406 69.6094q126.328 90.2344 152.109 242.344q-42.5391 -11.6016 -86.3672 -11.6016q-42.5391 0 -86.3672 11.6016q-86.3672 20.625 -153.398 79.9219q-14.1797 -73.4766 -76.0547 -116.016
q-47.6953 -32.2266 -101.836 -32.2266q-16.7578 0 -33.5156 2.57812q-70.8984 23.2031 -104.414 91.5234q-20.625 39.9609 -20.625 81.2109q0 28.3594 9.02344 56.7188q14.1797 70.8984 72.1875 114.727q48.9844 36.0938 108.281 36.0938q10.3125 0 21.9141 -1.28906
q-2.57812 14.1797 -2.57812 43.8281zM158.555 494.844q2.57812 10.3125 11.6016 16.7578q6.44531 3.86719 12.8906 3.86719h3.86719q10.3125 -2.57812 15.4688 -12.8906q2.57812 -6.44531 2.57812 -12.8906q0 -7.73438 -2.57812 -14.1797
q-1.28906 -12.8906 -11.6016 -23.2031q-7.73438 -5.15625 -16.7578 -5.15625h-3.86719q-16.7578 2.57812 -24.4922 16.7578h-24.4922q-1.28906 -11.6016 -1.28906 -21.9141q0 -36.0938 10.3125 -70.8984l85.0781 -12.8906q0 19.3359 3.86719 30.9375l-63.1641 9.02344
q0 18.0469 -2.57812 30.9375q10.3125 -6.44531 23.2031 -9.02344h7.73438q16.7578 0 32.2266 10.3125q19.3359 15.4688 21.9141 39.9609q1.28906 6.44531 1.28906 11.6016q0 15.4688 -7.73438 28.3594q-12.8906 25.7812 -41.25 32.2266q-7.73438 2.57812 -15.4688 2.57812
q-11.6016 0 -23.2031 -6.44531q-18.0469 -12.8906 -25.7812 -34.8047zM719.297 439.414q-33.5156 0 -63.1641 18.0469q-50.2734 29.6484 -60.5859 87.6562q-2.57812 15.4688 -2.57812 29.6484q0 47.6953 25.7812 90.2344q32.2266 54.1406 92.8125 76.0547
q23.2031 9.02344 45.1172 9.02344q32.2266 0 63.1641 -18.0469q51.5625 -30.9375 60.5859 -90.2344q2.57812 -15.4688 2.57812 -29.6484q0 -47.6953 -25.7812 -88.9453q-32.2266 -56.7188 -92.8125 -78.6328q-23.2031 -5.15625 -45.1172 -5.15625zM429.258 900.898
q-92.8125 -94.1016 -92.8125 -226.875t92.8125 -226.875q94.1016 -94.1016 226.875 -94.1016t226.875 94.1016t94.1016 226.875t-94.1016 226.875t-226.875 94.1016t-226.875 -94.1016zM806.953 626.328q0 -12.8906 -7.73438 -21.9141l-2.57812 -2.57812
q-6.44531 -10.3125 -19.3359 -12.8906q-2.57812 -1.28906 -6.44531 -1.28906q-9.02344 0 -16.7578 6.44531l-3.86719 2.57812q-10.3125 9.02344 -10.3125 21.9141v3.86719q0 11.6016 7.73438 19.3359l2.57812 2.57812q6.44531 9.02344 19.3359 11.6016h5.15625
q9.02344 0 16.7578 -5.15625l5.15625 -5.15625q9.02344 -7.73438 10.3125 -19.3359zM732.188 576.055q10.3125 -9.02344 10.3125 -18.0469q0 -7.73438 -6.44531 -15.4688l-3.86719 -3.86719q-9.02344 -11.6016 -19.3359 -11.6016q-7.73438 0 -15.4688 6.44531
l-2.57812 2.57812q-7.73438 6.44531 -9.02344 16.7578q0 11.6016 6.44531 19.3359l2.57812 1.28906q7.73438 11.6016 18.0469 11.6016q7.73438 0 16.7578 -6.44531zM711.562 610.859q-5.15625 1.28906 -10.3125 1.28906q-20.625 0 -36.0938 -18.0469
q-14.1797 -15.4688 -14.1797 -36.0938v-3.86719q1.28906 -23.2031 18.0469 -38.6719l3.86719 -3.86719q15.4688 -16.7578 38.6719 -18.0469h3.86719q20.625 0 36.0938 14.1797l5.15625 3.86719q14.1797 14.1797 14.1797 32.2266q0 7.73438 -2.57812 15.4688
q9.02344 -3.86719 18.0469 -3.86719q20.625 0 34.8047 20.625q15.4688 18.0469 15.4688 41.25v6.44531q-1.28906 27.0703 -20.625 45.1172q-19.3359 16.7578 -43.8281 16.7578h-3.86719q-27.0703 -1.28906 -45.1172 -21.9141q-15.4688 -15.4688 -15.4688 -33.5156
q0 -9.02344 3.86719 -19.3359z" />
</svg>
