<?xml version="1.0" standalone="no"?>
<!DOCTYPE svg PUBLIC "-//W3C//DTD SVG 1.1//EN" "http://www.w3.org/Graphics/SVG/1.1/DTD/svg11.dtd" >
<svg xmlns="http://www.w3.org/2000/svg" xmlns:xlink="http://www.w3.org/1999/xlink" version="1.1" viewBox="-10 0 1052 1000">
   <path fill="currentColor"
d="M354.667 238.333q-6.66699 1.33398 -13.334 1.33398q-16 0 -30.666 -9.33398q-18.667 -12 -24 -33.333l34.666 -8q2.66699 10.667 10.667 17.333q6.66699 4 13.333 4h4q12 -1.33301 17.334 -10.666q5.33301 -9.33398 5.33301 -20q0 -4 -1.33301 -8
q-1.33398 -13.334 -12 -24q-6.66699 -5.33398 -16 -5.33398h-4q-16 2.66699 -24 17.334h-28q4 -38.667 4 -96q44 -8 85.333 -22.667l1.33301 8l1.33398 8q2.66602 9.33301 2.66602 17.333q-30.666 10.667 -61.333 16v33.334q9.33301 -8 21.333 -10.667
q5.33398 -1.33301 10.667 -1.33301q17.333 0 30.667 12q16 13.333 21.333 33.333q-29.333 37.333 -49.333 81.333zM320 397q1.33301 37.333 9.33301 73.333q-17.333 -2.66602 -32 -6.66602q-105.333 -32 -178.666 -114.667q-73.334 -82.667 -92 -192
q-5.33398 -34.667 -5.33398 -69.333q0 -117.334 72 -218.667q93.334 -130.667 250.667 -158.667q34.667 -5.33301 69.333 -5.33301q117.334 0 218.667 72q130.667 93.333 157.333 250.667q-44 -12 -89.333 -12q-44 0 -89.333 12q-89.334 21.333 -158.667 82.666
q-14.667 -76 -78.667 -120q-49.333 -33.333 -105.333 -33.333q-17.333 0 -34.667 2.66699q-73.333 24 -108 94.666q-21.333 41.334 -21.333 84q0 29.334 9.33301 58.667q14.667 73.333 74.667 118.667q50.667 37.333 112 37.333q10.667 0 22.667 -1.33301
q-2.66699 14.666 -2.66699 45.333zM185.333 211.667q2.66699 10.666 12 17.333q6.66699 4 13.334 4h4q10.666 -2.66699 16 -13.333q2.66602 -6.66699 2.66602 -13.334q0 -8 -2.66602 -14.666q-1.33398 -13.334 -12 -24q-8 -5.33398 -17.334 -5.33398h-4
q-17.333 2.66699 -25.333 17.334h-25.333q-1.33398 -12 -1.33398 -22.667q0 -37.333 10.667 -73.333l88 -13.334q0 20 4 32l-65.333 9.33398q0 18.666 -2.66699 32q10.667 -6.66699 24 -9.33398h8q17.333 0 33.333 10.667q20 16 22.667 41.333q1.33301 6.66699 1.33301 12
q0 16 -8 29.334q-13.333 26.666 -42.666 33.333q-8 2.66699 -16 2.66699q-12 0 -24 -6.66699q-18.667 -13.333 -26.667 -36zM765.333 154.333q-34.666 0 -65.333 18.667q-52 30.667 -62.667 90.667q-2.66602 16 -2.66602 30.666q0 49.334 26.666 93.334q33.334 56 96 78.666
q24 9.33398 46.667 9.33398q33.333 0 65.333 -18.667q53.334 -32 62.667 -93.333q2.66699 -16 2.66699 -30.667q0 -49.333 -26.667 -92q-33.333 -58.667 -96 -81.333q-24 -5.33398 -46.667 -5.33398zM465.333 631.667q-96 -97.334 -96 -234.667t96 -234.667
q97.334 -97.333 234.667 -97.333t234.667 97.333q97.333 97.334 97.333 234.667t-97.333 234.667q-97.334 97.333 -234.667 97.333t-234.667 -97.333zM856 347.667q0 -13.334 -8 -22.667l-2.66699 -2.66699q-6.66602 -10.666 -20 -13.333
q-2.66602 -1.33301 -6.66602 -1.33301q-9.33398 0 -17.334 6.66602l-4 2.66699q-10.666 9.33301 -10.666 22.667v4q0 12 8 20l2.66602 2.66602q6.66699 9.33398 20 12h5.33398q9.33301 0 17.333 -5.33301l5.33301 -5.33301q9.33398 -8 10.667 -20zM778.667 295.667
q10.666 -9.33398 10.666 -18.667q0 -8 -6.66602 -16l-4 -4q-9.33398 -12 -20 -12q-8 0 -16 6.66699l-2.66699 2.66602q-8 6.66699 -9.33301 17.334q0 12 6.66602 20l2.66699 1.33301q8 12 18.667 12q8 0 17.333 -6.66699zM757.333 331.667q-5.33301 1.33301 -10.666 1.33301
q-21.334 0 -37.334 -18.667q-14.666 -16 -14.666 -37.333v-4q1.33301 -24 18.666 -40l4 -4q16 -17.333 40 -18.667h4q21.334 0 37.334 14.667l5.33301 4q14.667 14.667 14.667 33.333q0 8 -2.66699 16q9.33301 -4 18.667 -4q21.333 0 36 21.334q16 18.666 16 42.666v6.66699
q-1.33398 28 -21.334 46.667q-20 17.333 -45.333 17.333h-4q-28 -1.33301 -46.667 -22.667q-16 -16 -16 -34.666q0 -9.33398 4 -20z" />
</svg>
