<?xml version="1.0" standalone="no"?>
<!DOCTYPE svg PUBLIC "-//W3C//DTD SVG 1.1//EN" "http://www.w3.org/Graphics/SVG/1.1/DTD/svg11.dtd" >
<svg xmlns="http://www.w3.org/2000/svg" xmlns:xlink="http://www.w3.org/1999/xlink" version="1.1" viewBox="-10 0 1066 1000">
   <path fill="currentColor"
d="M310.667 398.333l-21.334 50.667l-268 -113.333l113.334 -268l106.666 45.333q-44 58.667 -57.333 81.333q-18.667 28 -18.667 64v5.33398q0 33.333 17.334 62.666q17.333 33.334 50.666 52q33.334 20 70.667 20h6.66699zM373.333 171.667
q-6.66602 22.666 -6.66602 46.666q1.33301 24 9.33301 45.334q8 22.666 22.667 40q14.666 18.666 36 30.666l8 60l-30.667 4l-12 -86.666q-16 24 -45.333 40q-26.667 14.666 -48 16h-2.66699q-30.667 0 -56 -16q-22.667 -14.667 -37.333 -38.667
q-14.667 -25.333 -14.667 -52v-4q0 -25.333 13.333 -46.667q10.667 -16 38.667 -54.666q21.333 -29.334 53.333 -72q37.334 -49.334 70.667 -92q56 42.666 112 85.333q-38.667 6.66699 -68 32q-30.667 25.333 -42.667 62.667zM706.667 77q-20 16 -32 37.333
q-13.334 22.667 -16 46.667q-4 25.333 -8 93.333q-1.33398 25.334 -4 60q-1.33398 24 -2.66699 57.334q-16 -10.667 -28 -25.334q-10.667 -14.666 -17.333 -33.333l-28 85.333l-29.334 -9.33301l28 -85.333q-28 20 -62.666 21.333q-17.334 0 -33.334 -5.33301
q-21.333 -8 -38.666 -22.667q-16 -13.333 -25.334 -32q-9.33301 -20 -10.666 -40q-1.33398 -6.66699 -1.33398 -13.333q0 -16 5.33398 -30.667q8 -20 21.333 -37.333q14.667 -16 33.333 -25.334q20 -9.33301 40 -12h8q18.667 0 36 5.33398l1.33398 1.33301h1.33301
l1.33301 1.33301q-2.66602 -12 -2.66602 -24q0 -6.66602 1.33301 -14.666q2.66699 -20 12 -36q9.33301 -17.334 22.667 -29.334q14.666 -13.333 33.333 -20q20 -8 42.667 -8q21.333 1.33398 40 9.33398q20 8 34.666 24q14.667 16 22.667 36q-25.333 8 -45.333 25.333z
M1024 279.667q18.667 25.333 21.333 56v5.33301q0 25.333 -10.666 49.333q-12 26.667 -34.667 42.667q-22.667 17.333 -50.667 18.667h-21.333q-25.333 0 -72 -1.33398q-37.333 -1.33301 -85.333 -2.66602q-54.667 -2.66699 -98.667 -5.33398
q2.66699 -54.666 5.33301 -117.333q6.66699 -124 12 -158.667q2.66699 -20 12 -37.333q9.33398 -16 25.334 -28q14.666 -12 32 -18.667q18.666 -6.66602 37.333 -6.66602q21.333 0 40 8q20 8 34.667 22.666q18.666 18.667 28 53.334q5.33301 21.333 5.33301 41.333
q0 17.333 -4 34.667q12 -4 24 -4q29.333 0 60 16q28 13.333 40 32z" />
</svg>
