<?xml version="1.0" standalone="no"?>
<!DOCTYPE svg PUBLIC "-//W3C//DTD SVG 1.1//EN" "http://www.w3.org/Graphics/SVG/1.1/DTD/svg11.dtd" >
<svg xmlns="http://www.w3.org/2000/svg" xmlns:xlink="http://www.w3.org/1999/xlink" version="1.1" viewBox="-10 0 1010 1000">
   <path fill="currentColor"
d="M279.727 675.312l-20.625 48.9844l-259.102 -109.57l109.57 -259.102l103.125 43.8281q-42.5391 56.7188 -55.4297 78.6328q-18.0469 27.0703 -18.0469 61.875v5.15625q0 32.2266 16.7578 60.5859q16.7578 32.2266 48.9844 50.2734q32.2266 19.3359 68.3203 19.3359
h6.44531zM340.312 456.172q-6.44531 21.9141 -6.44531 45.1172q1.28906 23.2031 9.02344 43.8281q7.73438 21.9141 21.9141 38.6719q14.1797 18.0469 34.8047 29.6484l7.73438 58.0078l-29.6484 3.86719l-11.6016 -83.7891q-15.4688 23.2031 -43.8281 38.6719
q-25.7812 14.1797 -46.4062 15.4688h-2.57812q-29.6484 0 -54.1406 -15.4688q-21.9141 -14.1797 -36.0938 -37.3828q-14.1797 -24.4922 -14.1797 -50.2734v-3.86719q0 -24.4922 12.8906 -45.1172q10.3125 -15.4688 37.3828 -52.8516q20.625 -28.3594 51.5625 -69.6094
q36.0938 -47.6953 68.3203 -88.9453l108.281 82.5q-37.3828 6.44531 -65.7422 30.9375q-29.6484 24.4922 -41.25 60.5859zM662.578 364.648q-19.3359 15.4688 -30.9375 36.0938q-12.8906 21.9141 -15.4688 45.1172q-3.86719 24.4922 -7.73438 90.2344
q-1.28906 24.4922 -3.86719 58.0078q-1.28906 23.2031 -2.57812 55.4297q-15.4688 -10.3125 -27.0703 -24.4922q-10.3125 -14.1797 -16.7578 -32.2266l-27.0703 82.5l-28.3594 -9.02344l27.0703 -82.5q-27.0703 19.3359 -60.5859 20.625q-16.7578 0 -32.2266 -5.15625
q-20.625 -7.73438 -37.3828 -21.9141q-15.4688 -12.8906 -24.4922 -30.9375q-9.02344 -19.3359 -10.3125 -38.6719q-1.28906 -6.44531 -1.28906 -12.8906q0 -15.4688 5.15625 -29.6484q7.73438 -19.3359 20.625 -36.0938q14.1797 -15.4688 32.2266 -24.4922
q19.3359 -9.02344 38.6719 -11.6016h7.73438q18.0469 0 34.8047 5.15625l1.28906 1.28906h1.28906l1.28906 1.28906q-2.57812 -11.6016 -2.57812 -23.2031q0 -6.44531 1.28906 -14.1797q2.57812 -19.3359 11.6016 -34.8047q9.02344 -16.7578 21.9141 -28.3594
q14.1797 -12.8906 32.2266 -19.3359q19.3359 -7.73438 41.25 -7.73438q20.625 1.28906 38.6719 9.02344q19.3359 7.73438 33.5156 23.2031t21.9141 34.8047q-24.4922 7.73438 -43.8281 24.4922zM969.375 560.586q18.0469 24.4922 20.625 54.1406v5.15625
q0 24.4922 -10.3125 47.6953q-11.6016 25.7812 -33.5156 41.25q-21.9141 16.7578 -48.9844 18.0469h-20.625q-24.4922 0 -69.6094 -1.28906q-36.0938 -1.28906 -82.5 -2.57812q-52.8516 -2.57812 -95.3906 -5.15625q2.57812 -52.8516 5.15625 -113.438
q6.44531 -119.883 11.6016 -153.398q2.57812 -19.3359 11.6016 -36.0938q9.02344 -15.4688 24.4922 -27.0703q14.1797 -11.6016 30.9375 -18.0469q18.0469 -6.44531 36.0938 -6.44531q20.625 0 38.6719 7.73438q19.3359 7.73438 33.5156 21.9141
q18.0469 18.0469 27.0703 51.5625q5.15625 20.625 5.15625 39.9609q0 16.7578 -3.86719 33.5156q11.6016 -3.86719 23.2031 -3.86719q28.3594 0 58.0078 15.4688q27.0703 12.8906 38.6719 30.9375z" />
</svg>
