<?xml version="1.0" standalone="no"?>
<!DOCTYPE svg PUBLIC "-//W3C//DTD SVG 1.1//EN" "http://www.w3.org/Graphics/SVG/1.1/DTD/svg11.dtd" >
<svg xmlns="http://www.w3.org/2000/svg" xmlns:xlink="http://www.w3.org/1999/xlink" version="1.1" viewBox="-10 0 1010 1000">
   <path fill="currentColor"
d="M398.32 12.0898q55.4297 51.5625 165 536.25l-27.0703 12.8906h-137.93q-36.0938 -68.3203 -54.1406 -68.3203q-14.1797 -25.7812 -14.1797 -41.25h-14.1797q-46.4062 91.5234 -136.641 123.75l-41.25 41.25h-14.1797q-41.25 -177.891 -123.75 -453.75
q0 -68.3203 398.32 -150.82zM618.75 12.0898q371.25 94.1016 371.25 137.93l-109.57 439.57h-14.1797q-50.2734 -41.25 -96.6797 -41.25h-12.8906l-69.6094 12.8906v-12.8906l28.3594 -41.25q-20.625 -55.4297 -41.25 -55.4297l-55.4297 28.3594l14.1797 68.3203v12.8906
h-14.1797q-30.9375 0 -96.6797 -328.711q30.9375 -220.43 96.6797 -220.43zM701.25 232.52v12.8906q0 28.3594 55.4297 28.3594v41.25q0 27.0703 -28.3594 27.0703q-27.0703 0 -27.0703 -41.25h-27.0703v41.25q3.86719 27.0703 27.0703 27.0703h41.25
q46.4062 0 82.5 -219.141q0 -20.625 -55.4297 -41.25q-68.3203 0 -68.3203 123.75zM247.5 121.66l-14.1797 123.75h-27.0703l-14.1797 -95.3906h-41.25q69.6094 256.523 69.6094 288.75h12.8906l28.3594 -14.1797q-28.3594 -69.6094 -28.3594 -96.6797h28.3594
q27.0703 0 54.1406 82.5h14.1797q27.0703 0 27.0703 -27.0703q-95.3906 -86.3672 -95.3906 -137.93l12.8906 -123.75h-27.0703zM742.5 150.02h27.0703q28.3594 3.86719 28.3594 27.0703q-18.0469 68.3203 -41.25 68.3203q-28.3594 0 -28.3594 -27.0703zM247.5 575.41h522.07
q82.5 48.9844 82.5 165q0 247.5 -330 247.5q-226.875 0 -315.82 -123.75l-27.0703 -96.6797v-41.25q20.625 -150.82 68.3203 -150.82zM509.18 878.34q-140.508 0 -206.25 -96.6797v-109.57l-69.6094 -14.1797l28.3594 41.25v109.57h-28.3594v14.1797
q76.0547 0 152.109 96.6797q-14.1797 0 -14.1797 12.8906h27.0703v-27.0703h206.25l41.25 27.0703q0 -61.875 96.6797 -109.57q0 -14.1797 14.1797 -14.1797l27.0703 14.1797h14.1797v-14.1797q-41.25 0 -41.25 -27.0703v-82.5l27.0703 -41.25v-14.1797
q-50.2734 0 -82.5 179.18q-38.6719 41.25 -192.07 55.4297z" />
</svg>
