<?xml version="1.0" standalone="no"?>
<!DOCTYPE svg PUBLIC "-//W3C//DTD SVG 1.1//EN" "http://www.w3.org/Graphics/SVG/1.1/DTD/svg11.dtd" >
<svg xmlns="http://www.w3.org/2000/svg" xmlns:xlink="http://www.w3.org/1999/xlink" version="1.1" viewBox="-10 0 1066 1000">
   <path fill="currentColor"
d="M433.333 -292.833q57.334 53.333 170.667 554.666l-28 13.334h-142.667q-37.333 -70.667 -56 -70.667q-14.666 -26.667 -14.666 -42.667h-14.667q-48 94.667 -141.333 128l-42.667 42.667h-14.667q-42.666 -184 -128 -469.333q0 -70.667 412 -156zM661.333 -292.833
q384 97.333 384 142.666l-113.333 454.667h-14.667q-52 -42.667 -100 -42.667h-13.333l-72 13.334v-13.334l29.333 -42.666q-21.333 -57.334 -42.666 -57.334l-57.334 29.334l14.667 70.666v13.334h-14.667q-32 0 -100 -340q32 -228 100 -228zM746.667 -64.833v13.333
q0 29.333 57.333 29.333v42.667q0 28 -29.333 28q-28 0 -28 -42.667h-28v42.667q4 28 28 28h42.666q48 0 85.334 -226.667q0 -21.333 -57.334 -42.666q-70.666 0 -70.666 128zM277.333 -179.5l-14.666 128h-28l-14.667 -98.667h-42.667q72 265.334 72 298.667h13.334
l29.333 -14.667q-29.333 -72 -29.333 -100h29.333q28 0 56 85.334h14.667q28 0 28 -28q-98.667 -89.334 -98.667 -142.667l13.333 -128h-28zM789.333 -150.167h28q29.334 4 29.334 28q-18.667 70.667 -42.667 70.667q-29.333 0 -29.333 -28zM277.333 289.833h540
q85.334 50.667 85.334 170.667q0 256 -341.334 256q-234.666 0 -326.666 -128l-28 -100v-42.667q21.333 -156 70.666 -156zM548 603.167q-145.333 0 -213.333 -100v-113.334l-72 -14.666l29.333 42.666v113.334h-29.333v14.666q78.666 0 157.333 100
q-14.667 0 -14.667 13.334h28v-28h213.334l42.666 28q0 -64 100 -113.334q0 -14.666 14.667 -14.666l28 14.666h14.667v-14.666q-42.667 0 -42.667 -28v-85.334l28 -42.666v-14.667q-52 0 -85.333 185.333q-40 42.667 -198.667 57.334z" />
</svg>
