<?xml version="1.0" standalone="no"?>
<!DOCTYPE svg PUBLIC "-//W3C//DTD SVG 1.1//EN" "http://www.w3.org/Graphics/SVG/1.1/DTD/svg11.dtd" >
<svg xmlns="http://www.w3.org/2000/svg" xmlns:xlink="http://www.w3.org/1999/xlink" version="1.1" viewBox="-10 0 1010 1000">
   <path fill="currentColor"
d="M699.961 445.215l70.8984 -145.664l-25.7812 161.133zM828.867 262.168l-73.4766 -23.2031l-140.508 287.461l42.5391 12.8906l25.7812 -52.8516l58.0078 16.7578l-10.3125 58.0078l45.1172 15.4688zM707.695 684.98h3.86719q10.3125 0 19.3359 -5.15625
q11.6016 -7.73438 14.1797 -21.9141q1.28906 -3.86719 1.28906 -7.73438q0 -9.02344 -5.15625 -18.0469q-10.3125 -15.4688 -51.5625 -73.4766q-58.0078 41.25 -69.6094 54.1406q-6.44531 5.15625 -9.02344 14.1797q-1.28906 5.15625 -1.28906 10.3125
q0 7.73438 5.15625 16.7578q6.44531 11.6016 20.625 15.4688q3.86719 1.28906 7.73438 1.28906q14.1797 0 27.0703 -9.02344l-5.15625 28.3594l10.3125 2.57812l5.15625 -28.3594q7.73438 16.7578 27.0703 20.625zM947.461 249.277v1.28906q23.2031 5.15625 34.8047 25.7812
q7.73438 14.1797 7.73438 27.0703q0 7.73438 -2.57812 16.7578l-128.906 475.664q-5.15625 21.9141 -25.7812 32.2266q-12.8906 7.73438 -27.0703 7.73438q-7.73438 0 -15.4688 -2.57812l-228.164 -60.5859q14.1797 -11.6016 21.9141 -27.0703
q14.1797 -23.2031 14.1797 -48.9844q0 -12.8906 -3.86719 -27.0703l-77.3438 -293.906l45.1172 -171.445q6.44531 -21.9141 25.7812 -32.2266q12.8906 -7.73438 28.3594 -7.73438q6.44531 0 12.8906 2.57812zM451.172 684.98q-3.86719 -9.02344 -5.15625 -18.0469
q-1.28906 1.28906 -3.86719 2.57812l-5.15625 2.57812q-5.15625 2.57812 -6.44531 5.15625q-9.02344 9.02344 -20.625 9.02344q-5.15625 0 -9.02344 -1.28906t-7.73438 -1.28906q-14.1797 0 -25.7812 11.6016q-2.57812 0 -6.44531 5.15625
q-3.86719 2.57812 -9.02344 2.57812q-2.57812 0 -3.86719 -1.28906q-6.44531 -1.28906 -12.8906 -1.28906h-5.15625q-11.6016 0 -23.2031 6.44531l-6.44531 6.44531l-2.57812 2.57812l-3.86719 1.28906q-3.86719 2.57812 -10.3125 2.57812h-1.28906
q-6.44531 -2.57812 -12.8906 -2.57812h-2.57812q-14.1797 0 -24.4922 7.73438q-2.57812 1.28906 -7.73438 5.15625l-2.57812 2.57812l-2.57812 2.57812q-2.57812 2.57812 -10.3125 2.57812q-6.44531 -2.57812 -11.6016 -2.57812h-16.7578l1.28906 3.86719l1.28906 5.15625
q1.28906 5.15625 2.57812 7.73438l7.73438 1.28906h6.44531l6.44531 1.28906l7.73438 1.28906q2.57812 0 6.44531 -2.57812h2.57812l2.57812 -1.28906l25.7812 -6.44531q16.7578 -5.15625 25.7812 -7.73438q1.28906 -1.28906 5.15625 -2.57812l2.57812 -1.28906
l5.15625 -1.28906l24.4922 -7.73438q15.4688 -5.15625 24.4922 -7.73438h3.86719l3.86719 -1.28906q3.86719 -1.28906 5.15625 -1.28906l12.8906 -3.86719l12.8906 -3.86719q15.4688 -3.86719 24.4922 -6.44531l3.86719 -1.28906h2.57812l3.86719 -1.28906h2.57812
q11.6016 -9.02344 25.7812 -12.8906zM192.07 563.809q9.02344 -12.8906 19.3359 -15.4688q5.15625 5.15625 12.8906 7.73438q2.57812 1.28906 2.57812 2.57812q32.2266 43.8281 45.1172 96.6797v1.28906q-2.57812 2.57812 -2.57812 6.44531v14.1797
q-9.02344 -9.02344 -21.9141 -9.02344q-2.57812 0 -6.44531 1.28906q9.02344 6.44531 12.8906 16.7578q-10.3125 1.28906 -20.625 5.15625l3.86719 3.86719q1.28906 2.57812 1.28906 3.86719l-3.86719 7.73438l-3.86719 6.44531q-5.15625 9.02344 -6.44531 14.1797
q1.28906 -3.86719 3.86719 -6.44531l2.57812 -2.57812l2.57812 -1.28906q11.6016 -11.6016 25.7812 -11.6016q5.15625 0 10.3125 1.28906h9.02344q7.73438 0 12.8906 -5.15625q6.44531 -6.44531 15.4688 -12.8906q7.73438 -3.86719 16.7578 -3.86719
q5.15625 0 10.3125 1.28906t9.02344 1.28906q7.73438 0 14.1797 -5.15625q14.1797 -14.1797 32.2266 -14.1797q5.15625 0 10.3125 1.28906h12.8906v-2.57812q-18.0469 -10.3125 -38.6719 -18.0469q3.86719 -2.57812 3.86719 -6.44531v-1.28906
q-12.8906 2.57812 -23.2031 10.3125q5.15625 -7.73438 7.73438 -16.7578q-1.28906 0 -2.57812 1.28906t-2.57812 1.28906l-7.73438 3.86719l-3.86719 3.86719l-3.86719 1.28906q2.57812 -3.86719 2.57812 -10.3125v-1.28906q0 -3.86719 -2.57812 -5.15625
q-3.86719 -5.15625 -3.86719 -11.6016v-9.02344q1.28906 -20.625 1.28906 -41.25q0 -86.3672 -24.4922 -170.156q-2.57812 -3.86719 -2.57812 -6.44531q0 -5.15625 2.57812 -9.02344q38.6719 18.0469 65.7422 51.5625q-7.73438 -50.2734 -48.9844 -78.6328
q50.2734 5.15625 88.9453 36.0938l-2.57812 -12.8906q-5.15625 -24.4922 -25.7812 -38.6719q-14.1797 -6.44531 -29.6484 -9.02344q-2.57812 0 -6.44531 -1.28906t-6.44531 -1.28906q0 -3.86719 2.57812 -3.86719q19.3359 -5.15625 38.6719 -5.15625
q16.7578 0 32.2266 3.86719q-28.3594 -30.9375 -70.8984 -30.9375q-16.7578 2.57812 -32.2266 10.3125q0 2.57812 -2.57812 2.57812h-2.57812q16.7578 -19.3359 32.2266 -39.9609h-3.86719q-23.2031 0 -42.5391 12.8906q-20.625 15.4688 -28.3594 39.9609
q-3.86719 -1.28906 -10.3125 -5.15625l-5.15625 -2.57812l-5.15625 -2.57812q-10.3125 -6.44531 -21.9141 -10.3125q-6.44531 -2.57812 -12.8906 -2.57812h-5.15625q-19.3359 9.02344 -32.2266 25.7812h5.15625q27.0703 0 51.5625 12.8906
q-2.57812 2.57812 -5.15625 2.57812q-24.4922 3.86719 -46.4062 16.7578q-24.4922 18.0469 -28.3594 47.6953q37.3828 -27.0703 83.7891 -32.2266q-36.0938 25.7812 -36.0938 68.3203v9.02344l2.57812 -1.28906l1.28906 -1.28906q1.28906 0 1.28906 -1.28906
q23.2031 -30.9375 55.4297 -50.2734q7.73438 -6.44531 11.6016 -6.44531t10.3125 9.02344q3.86719 3.86719 5.15625 9.02344q20.625 73.4766 20.625 146.953q0 38.6719 -5.15625 77.3438q0 7.73438 -5.15625 7.73438q-2.57812 0 -2.57812 2.57812l-1.28906 1.28906v2.57812
l-3.86719 3.86719v-5.15625q-11.6016 -59.2969 -50.2734 -105.703l-7.73438 -18.0469q23.2031 -2.57812 45.1172 -2.57812h7.73438q-6.44531 -10.3125 -19.3359 -14.1797q-12.8906 -5.15625 -25.7812 -7.73438l23.2031 -15.4688q3.86719 -2.57812 12.8906 -6.44531
l6.44531 -2.57812l5.15625 -3.86719q-12.8906 -6.44531 -27.0703 -6.44531q-16.7578 0 -33.5156 11.6016v-1.28906q0 -3.86719 10.3125 -21.9141h-2.57812q-15.4688 0 -27.0703 10.3125q-11.6016 11.6016 -15.4688 28.3594l-14.1797 -3.86719
q-9.02344 -2.57812 -15.4688 -2.57812h-2.57812q-15.4688 0 -28.3594 9.02344q18.0469 2.57812 33.5156 14.1797q-1.28906 0 -2.57812 1.28906l-1.28906 1.28906h-1.28906q-30.9375 16.7578 -30.9375 50.2734v12.8906q18.0469 -28.3594 48.9844 -42.5391
q-5.15625 16.7578 -5.15625 34.8047t5.15625 36.0938q1.28906 -18.0469 10.3125 -30.9375zM554.297 679.824q2.57812 7.73438 2.57812 15.4688q0 12.8906 -7.73438 25.7812q-10.3125 20.625 -32.2266 27.0703l-317.109 85.0781h-2.57812q-7.73438 2.57812 -14.1797 2.57812
q-14.1797 0 -27.0703 -7.73438q-19.3359 -10.3125 -24.4922 -32.2266l-128.906 -475.664v-2.57812q-2.57812 -6.44531 -2.57812 -14.1797q0 -12.8906 7.73438 -25.7812q10.3125 -19.3359 32.2266 -25.7812l318.398 -85.0781h1.28906q7.73438 -2.57812 14.1797 -2.57812
q14.1797 0 27.0703 7.73438q19.3359 10.3125 24.4922 32.2266z" />
</svg>
