<?xml version="1.0" standalone="no"?>
<!DOCTYPE svg PUBLIC "-//W3C//DTD SVG 1.1//EN" "http://www.w3.org/Graphics/SVG/1.1/DTD/svg11.dtd" >
<svg xmlns="http://www.w3.org/2000/svg" xmlns:xlink="http://www.w3.org/1999/xlink" version="1.1" viewBox="-10 0 1066 1000">
   <path fill="currentColor"
d="M745.333 160.5l73.334 -150.667l-26.667 166.667zM878.667 -28.833l-76 -24l-145.334 297.333l44 13.333l26.667 -54.666l60 17.333l-10.667 60l46.667 16zM753.333 408.5h4q10.667 0 20 -5.33301q12 -8 14.667 -22.667q1.33301 -4 1.33301 -8
q0 -9.33301 -5.33301 -18.667q-10.667 -16 -53.333 -76q-60 42.667 -72 56q-6.66699 5.33398 -9.33398 14.667q-1.33301 5.33301 -1.33301 10.667q0 8 5.33301 17.333q6.66699 12 21.334 16q4 1.33301 8 1.33301q14.666 0 28 -9.33301l-5.33398 29.333l10.667 2.66699
l5.33301 -29.333q8 17.333 28 21.333zM1001.33 -42.167v1.33398q24 5.33301 36 26.666q8 14.667 8 28q0 8 -2.66602 17.334l-133.334 492q-5.33301 22.666 -26.666 33.333q-13.334 8 -28 8q-8 0 -16 -2.66699l-236 -62.666q14.666 -12 22.666 -28q14.667 -24 14.667 -50.667
q0 -13.333 -4 -28l-80 -304l46.667 -177.333q6.66602 -22.667 26.666 -33.334q13.334 -8 29.334 -8q6.66602 0 13.333 2.66699zM488 408.5q-4 -9.33301 -5.33301 -18.667q-1.33398 1.33398 -4 2.66699l-5.33398 2.66699q-5.33301 2.66602 -6.66602 5.33301
q-9.33398 9.33301 -21.334 9.33301q-5.33301 0 -9.33301 -1.33301t-8 -1.33301q-14.667 0 -26.667 12q-2.66602 0 -6.66602 5.33301q-4 2.66699 -9.33398 2.66699q-2.66602 0 -4 -1.33398q-6.66602 -1.33301 -13.333 -1.33301h-5.33301q-12 0 -24 6.66699
q-2.66699 2.66602 -6.66699 6.66602l-2.66699 2.66699l-4 1.33301q-4 2.66699 -10.666 2.66699h-1.33398q-6.66602 -2.66699 -13.333 -2.66699h-2.66699q-14.666 0 -25.333 8q-2.66699 1.33398 -8 5.33398l-2.66699 2.66602l-2.66602 2.66699
q-2.66699 2.66699 -10.667 2.66699q-6.66699 -2.66699 -12 -2.66699h-17.333l1.33301 4l1.33301 5.33301q1.33398 5.33398 2.66699 8l8 1.33398h6.66699l6.66602 1.33301l8 1.33301q2.66699 0 6.66699 -2.66602h2.66699l2.66602 -1.33398l26.667 -6.66602
q17.333 -5.33398 26.667 -8q1.33301 -1.33398 5.33301 -2.66699l2.66699 -1.33301l5.33301 -1.33398l25.333 -8q16 -5.33301 25.334 -8h4l4 -1.33301q4 -1.33301 5.33301 -1.33301l13.333 -4l13.334 -4q16 -4 25.333 -6.66699l4 -1.33301h2.66699l4 -1.33398h2.66602
q12 -9.33301 26.667 -13.333zM220 283.167q9.33301 -13.334 20 -16q5.33301 5.33301 13.333 8q2.66699 1.33301 2.66699 2.66602q33.333 45.334 46.667 100v1.33398q-2.66699 2.66602 -2.66699 6.66602v14.667q-9.33301 -9.33301 -22.667 -9.33301
q-2.66602 0 -6.66602 1.33301q9.33301 6.66699 13.333 17.333q-10.667 1.33398 -21.333 5.33398l4 4q1.33301 2.66602 1.33301 4l-4 8l-4 6.66602q-5.33301 9.33398 -6.66699 14.667q1.33398 -4 4 -6.66699l2.66699 -2.66602l2.66699 -1.33398q12 -12 26.666 -12
q5.33398 0 10.667 1.33398h9.33301q8 0 13.334 -5.33398q6.66602 -6.66602 16 -13.333q8 -4 17.333 -4q5.33301 0 10.667 1.33301q5.33301 1.33398 9.33301 1.33398q8 0 14.667 -5.33398q14.666 -14.666 33.333 -14.666q5.33301 0 10.667 1.33301h13.333v-2.66699
q-18.667 -10.666 -40 -18.666q4 -2.66699 4 -6.66699v-1.33301q-13.333 2.66602 -24 10.666q5.33301 -8 8 -17.333q-1.33301 0 -2.66699 1.33301q-1.33301 1.33398 -2.66602 1.33398q-2.66699 1.33301 -8 4l-4 4l-4 1.33301q2.66602 -4 2.66602 -10.667v-1.33301
q0 -4 -2.66602 -5.33301q-4 -5.33398 -4 -12v-9.33398q1.33301 -21.333 1.33301 -42.666q0 -89.334 -25.333 -176q-2.66699 -4 -2.66699 -6.66699q0 -5.33301 2.66699 -9.33301q40 18.666 68 53.333q-8 -52 -50.667 -81.333q52 5.33301 92 37.333l-2.66699 -13.333
q-5.33301 -25.334 -26.666 -40q-14.667 -6.66699 -30.667 -9.33398q-2.66699 0 -6.66699 -1.33301t-6.66602 -1.33301q0 -4 2.66602 -4q20 -5.33398 40 -5.33398q17.334 0 33.334 4q-29.334 -32 -73.334 -32q-17.333 2.66699 -33.333 10.667q0 2.66699 -2.66699 2.66699
h-2.66602q17.333 -20 33.333 -41.334h-4q-24 0 -44 13.334q-21.333 16 -29.333 41.333q-4 -1.33301 -10.667 -5.33301l-5.33301 -2.66699l-5.33398 -2.66699q-10.666 -6.66602 -22.666 -10.666q-6.66699 -2.66699 -13.334 -2.66699h-5.33301q-20 9.33301 -33.333 26.667
h5.33301q28 0 53.333 13.333q-2.66602 2.66699 -5.33301 2.66699q-25.333 4 -48 17.333q-25.333 18.667 -29.333 49.333q38.666 -28 86.666 -33.333q-37.333 26.667 -37.333 70.667v9.33301l2.66699 -1.33301l1.33301 -1.33398q1.33301 0 1.33301 -1.33301
q24 -32 57.334 -52q8 -6.66699 12 -6.66699t10.666 9.33398q4 4 5.33398 9.33301q21.333 76 21.333 152q0 40 -5.33301 80q0 8 -5.33398 8q-2.66602 0 -2.66602 2.66699l-1.33398 1.33301v2.66699l-4 4v-5.33398q-12 -61.333 -52 -109.333q-4 -9.33301 -8 -18.667
q24 -2.66602 46.667 -2.66602h8q-6.66699 -10.667 -20 -14.667q-13.333 -5.33301 -26.667 -8l24 -16q4 -2.66699 13.334 -6.66699l6.66602 -2.66602l5.33398 -4q-13.334 -6.66699 -28 -6.66699q-17.334 0 -34.667 12v-1.33301q0 -4 10.667 -22.667h-2.66699
q-16 0 -28 10.667q-12 12 -16 29.333l-14.667 -4q-9.33301 -2.66699 -16 -2.66699h-2.66602q-16 0 -29.334 9.33398q18.667 2.66602 34.667 14.666q-1.33301 0 -2.66699 1.33398l-1.33301 1.33301h-1.33301q-32 17.333 -32 52v13.333q18.666 -29.333 50.666 -44
q-5.33301 17.334 -5.33301 36q0 18.667 5.33301 37.334q1.33398 -18.667 10.667 -32zM594.667 403.167q2.66602 8 2.66602 16q0 13.333 -8 26.666q-10.666 21.334 -33.333 28l-328 88h-2.66699q-8 2.66699 -14.666 2.66699q-14.667 0 -28 -8q-20 -10.667 -25.334 -33.333
l-133.333 -492v-2.66699q-2.66699 -6.66699 -2.66699 -14.667q0 -13.333 8 -26.666q10.667 -20 33.334 -26.667l329.333 -88h1.33301q8 -2.66699 14.667 -2.66699q14.667 0 28 8q20 10.667 25.333 33.334z" />
</svg>
