<?xml version="1.0" standalone="no"?>
<!DOCTYPE svg PUBLIC "-//W3C//DTD SVG 1.1//EN" "http://www.w3.org/Graphics/SVG/1.1/DTD/svg11.dtd" >
<svg xmlns="http://www.w3.org/2000/svg" xmlns:xlink="http://www.w3.org/1999/xlink" version="1.1" viewBox="-10 0 1010 1000">
   <path fill="currentColor"
d="M699.961 445.859l70.8984 -145.664l-25.7812 161.133zM375.117 695.938q10.3125 -3.86719 16.7578 -12.8906q7.73438 -11.6016 7.73438 -23.2031v-3.86719q-2.57812 -15.4688 -14.1797 -23.2031q-15.4688 -10.3125 -76.0547 -46.4062q-34.8047 60.5859 -42.5391 76.0547
q-2.57812 7.73438 -2.57812 16.7578q2.57812 14.1797 14.1797 23.2031q10.3125 7.73438 21.9141 7.73438h3.86719q19.3359 -2.57812 28.3594 -19.3359l7.73438 27.0703l9.02344 -2.57812l-7.73438 -27.0703q11.6016 7.73438 23.2031 7.73438q5.15625 0 10.3125 -1.28906
v1.28906zM243.633 581.211q11.6016 -1.28906 23.2031 -3.86719q54.1406 -15.4688 54.1406 -65.7422q0 -14.1797 -3.86719 -30.9375l-58.0078 -232.031l-47.6953 12.8906l58.0078 234.609l1.28906 5.15625v3.86719q0 7.73438 -5.15625 15.4688
q-6.44531 9.02344 -16.7578 10.3125q-7.73438 3.86719 -18.0469 5.15625zM553.008 680.469l1.28906 1.28906q1.28906 7.73438 1.28906 14.1797q0 14.1797 -6.44531 27.0703q-11.6016 19.3359 -33.5156 25.7812l-317.109 85.0781l-2.57812 1.28906
q-6.44531 1.28906 -12.8906 1.28906q-14.1797 0 -27.0703 -7.73438q-19.3359 -10.3125 -25.7812 -32.2266l-128.906 -476.953v-1.28906q-1.28906 -7.73438 -1.28906 -14.1797q0 -14.1797 6.44531 -27.0703q11.6016 -19.3359 33.5156 -25.7812l317.109 -85.0781h1.28906
q7.73438 -2.57812 15.4688 -2.57812q12.8906 0 25.7812 7.73438q19.3359 11.6016 25.7812 32.2266zM828.867 262.812l-73.4766 -23.2031l-141.797 287.461l43.8281 12.8906l24.4922 -54.1406l58.0078 18.0469l-10.3125 58.0078l46.4062 15.4688zM707.695 685.625
q11.6016 0 20.625 -5.15625q12.8906 -7.73438 15.4688 -21.9141q1.28906 -5.15625 1.28906 -9.02344q0 -9.02344 -5.15625 -16.7578q-10.3125 -15.4688 -50.2734 -73.4766q-58.0078 39.9609 -69.6094 52.8516q-6.44531 6.44531 -9.02344 15.4688
q-1.28906 5.15625 -1.28906 9.02344q0 9.02344 3.86719 16.7578q6.44531 12.8906 20.625 16.7578q5.15625 1.28906 9.02344 1.28906q14.1797 0 27.0703 -9.02344l-5.15625 28.3594l9.02344 2.57812l5.15625 -28.3594q9.02344 16.7578 28.3594 20.625zM946.172 249.922
h1.28906q23.2031 6.44531 34.8047 27.0703q7.73438 12.8906 7.73438 27.0703q0 7.73438 -2.57812 15.4688l-128.906 476.953q-6.44531 21.9141 -25.7812 32.2266q-12.8906 7.73438 -27.0703 7.73438q-7.73438 0 -15.4688 -2.57812l-228.164 -60.5859
q12.8906 -11.6016 21.9141 -27.0703q14.1797 -24.4922 14.1797 -50.2734q0 -12.8906 -3.86719 -25.7812l-78.6328 -295.195l45.1172 -171.445q6.44531 -20.625 27.0703 -32.2266q12.8906 -6.44531 27.0703 -6.44531q6.44531 0 14.1797 1.28906z" />
</svg>
