<?xml version="1.0" standalone="no"?>
<!DOCTYPE svg PUBLIC "-//W3C//DTD SVG 1.1//EN" "http://www.w3.org/Graphics/SVG/1.1/DTD/svg11.dtd" >
<svg xmlns="http://www.w3.org/2000/svg" xmlns:xlink="http://www.w3.org/1999/xlink" version="1.1" viewBox="-10 0 1066 1000">
   <path fill="currentColor"
d="M745.333 161l73.334 -150.667l-26.667 166.667zM409.333 419.667q10.667 -4 17.334 -13.334q8 -12 8 -24v-4q-2.66699 -16 -14.667 -24q-16 -10.666 -78.667 -48q-36 62.667 -44 78.667q-2.66602 8 -2.66602 17.333q2.66602 14.667 14.666 24q10.667 8 22.667 8h4
q20 -2.66602 29.333 -20l8 28l9.33398 -2.66602l-8 -28q12 8 24 8q5.33301 0 10.666 -1.33398v1.33398zM273.333 301q12 -1.33301 24 -4q56 -16 56 -68q0 -14.667 -4 -32l-60 -240l-49.333 13.333l60 242.667l1.33301 5.33301v4q0 8 -5.33301 16
q-6.66699 9.33398 -17.333 10.667q-8 4 -18.667 5.33301zM593.333 403.667l1.33398 1.33301q1.33301 8 1.33301 14.667q0 14.666 -6.66699 28q-12 20 -34.666 26.666l-328 88l-2.66699 1.33398q-6.66699 1.33301 -13.333 1.33301q-14.667 0 -28 -8
q-20 -10.667 -26.667 -33.333l-133.333 -493.334v-1.33301q-1.33398 -8 -1.33398 -14.667q0 -14.666 6.66699 -28q12 -20 34.667 -26.666l328 -88h1.33301q8 -2.66699 16 -2.66699q13.333 0 26.667 8q20 12 26.666 33.333zM878.667 -28.333l-76 -24l-146.667 297.333
l45.333 13.333l25.334 -56l60 18.667l-10.667 60l48 16zM753.333 409q12 0 21.334 -5.33301q13.333 -8 16 -22.667q1.33301 -5.33301 1.33301 -9.33301q0 -9.33398 -5.33301 -17.334q-10.667 -16 -52 -76q-60 41.334 -72 54.667q-6.66699 6.66699 -9.33398 16
q-1.33301 5.33301 -1.33301 9.33301q0 9.33398 4 17.334q6.66699 13.333 21.333 17.333q5.33398 1.33301 9.33398 1.33301q14.666 0 28 -9.33301l-5.33398 29.333l9.33398 2.66699l5.33301 -29.333q9.33301 17.333 29.333 21.333zM1000 -41.667h1.33301q24 6.66699 36 28
q8 13.334 8 28q0 8 -2.66602 16l-133.334 493.334q-6.66602 22.666 -26.666 33.333q-13.334 8 -28 8q-8 0 -16 -2.66699l-236 -62.666q13.333 -12 22.666 -28q14.667 -25.334 14.667 -52q0 -13.334 -4 -26.667l-81.333 -305.333l46.666 -177.334q6.66699 -21.333 28 -33.333
q13.334 -6.66699 28 -6.66699q6.66699 0 14.667 1.33398z" />
</svg>
