<?xml version="1.0" standalone="no"?>
<!DOCTYPE svg PUBLIC "-//W3C//DTD SVG 1.1//EN" "http://www.w3.org/Graphics/SVG/1.1/DTD/svg11.dtd" >
<svg xmlns="http://www.w3.org/2000/svg" xmlns:xlink="http://www.w3.org/1999/xlink" version="1.1" viewBox="-10 0 1066 1000">
   <path fill="currentColor"
d="M806.667 44.5l26.666 -166.667l-74.666 152zM340 168.5q64 37.333 78.667 48q10.666 10.667 13.333 25.333v4q0 12 -8 22.667q-6.66699 8 -17.333 12q-5.33398 1.33301 -9.33398 1.33301q-13.333 0 -25.333 -6.66602l8 28h-12l-8 -28q-9.33301 16 -28 22.666
q-4 1.33398 -6.66699 1.33398q-14.666 0 -25.333 -14.667q-8 -12 -8 -22.667q0 -6.66602 2.66699 -13.333q8 -17.333 45.333 -80zM245.333 171.167l-49.333 -330.667l76 -24l144 300l-46.667 14.667l-26.666 -54.667l-60 17.333l8 60zM545.333 283.167
q24 1.33301 49.334 6.66602q2.66602 -8 2.66602 -13.333q0 -6.66699 -2.66602 -13.333l-133.334 -496q-5.33301 -22.667 -25.333 -34.667q-13.333 -6.66699 -28 -6.66699q-6.66699 0 -14.667 1.33398h-1.33301l-328 89.333q-22.667 5.33301 -34.667 25.333q-8 14.667 -8 28
q0 8 1.33398 14.667l1.33301 1.33301l132 496q5.33301 21.334 25.333 33.334q13.334 8 28 8q6.66699 0 14.667 -1.33398h1.33301l132 -34.666q29.334 -60 93.334 -84q44 -20 94.666 -20zM250.667 -114.167l22.666 166.667l50.667 -13.333zM836 165.833l-46.667 -14.666
l9.33398 -61.334l-60 -20l-26.667 54.667l-46.667 -13.333l148 -300l74.667 22.666zM714.667 268.5l-10.667 29.333l-9.33301 -2.66602l12 -29.334q-12 5.33398 -24 5.33398q-6.66699 0 -13.334 -2.66699q-13.333 -6.66699 -18.666 -20q-1.33398 -6.66699 -1.33398 -12
q0 -9.33301 4 -17.333t12 -13.334q17.334 -9.33301 84 -40q32 65.334 37.334 82.667q2.66602 5.33301 2.66602 9.33301q0 10.667 -6.66602 20q-8 13.334 -24 17.334q-4 1.33301 -8 1.33301q-5.33398 0 -9.33398 -1.33301q-20 -6.66699 -26.666 -26.667zM674.667 -272.833
q-9.33398 -2.66699 -16 -2.66699q-13.334 0 -25.334 6.66699q-20 12 -26.666 33.333l-1.33398 2.66699l-49.333 178.666l81.333 305.334q4 13.333 4 26.666q0 12 -4 25.334q66.667 28 97.334 92l106.666 29.333q9.33398 2.66699 17.334 2.66699q13.333 0 24 -6.66699
q21.333 -10.667 26.666 -32l1.33398 -4l133.333 -496q1.33301 -6.66699 1.33301 -13.333q0 -16 -8 -30.667q-10.666 -21.333 -34.666 -28zM577.333 327.167q-18.666 -5.33398 -36 -5.33398q-17.333 0 -36 5.33398v40q18.667 -4 36 -4q17.334 0 36 4v-40zM508 692.5
q17.333 4 36 4t36 -4v-40q-17.333 4 -36 4t-36 -4v40zM681.333 384.5l-17.333 9.33301l-17.333 10.667q25.333 25.333 36 60l17.333 -9.33301l17.333 -10.667q-13.333 -33.333 -37.333 -60h1.33301zM646.667 612.5l17.333 9.33301l17.333 10.667q25.334 -26.667 36 -61.333
l-17.333 -10.667l-17.333 -9.33301q-10.667 34.666 -37.334 61.333h1.33398zM438.667 404.5l-17.334 -10.667l-17.333 -9.33301q-26.667 26.667 -37.333 60l17.333 10.667l17.333 9.33301q12 -34.667 37.334 -60zM401.333 551.167l-17.333 10.666l-17.333 9.33398
q10.666 34.666 37.333 61.333q17.333 -9.33301 34.667 -20q-25.334 -26.667 -37.334 -61.333zM620 429.833q-33.333 -30.666 -77.333 -30.666q-45.334 0 -78.667 30.666q-30.667 33.334 -30.667 78.667t30.667 77.333q33.333 32 78.667 32q44 0 77.333 -32
q32 -32 32 -77.333t-32 -78.667zM744 508.5v2.66699q0 80 -57.333 138.666q-58.667 58.667 -141.334 60h-2.66602q-84 0 -144 -58.666q-58.667 -60 -58.667 -142.667q0 -84 58.667 -144q60 -58.667 144 -58.667q82.666 0 142.666 58.667q58.667 60 58.667 144z
M602.667 447.167q25.333 25.333 25.333 61.333q0 34.667 -25.333 60q-25.334 25.333 -60 26.667q-36 0 -61.334 -26.667q-25.333 -25.333 -25.333 -60q0 -36 25.333 -61.333q25.334 -25.334 61.334 -25.334q34.666 1.33398 60 25.334z" />
</svg>
