<?xml version="1.0" standalone="no"?>
<!DOCTYPE svg PUBLIC "-//W3C//DTD SVG 1.1//EN" "http://www.w3.org/Graphics/SVG/1.1/DTD/svg11.dtd" >
<svg xmlns="http://www.w3.org/2000/svg" xmlns:xlink="http://www.w3.org/1999/xlink" version="1.1" viewBox="-10 0 1010 1000">
   <path fill="currentColor"
d="M759.258 333.066l25.7812 -161.133l-72.1875 146.953zM308.086 452.949q61.875 36.0938 76.0547 46.4062q10.3125 10.3125 12.8906 24.4922v3.86719q0 11.6016 -7.73438 21.9141q-6.44531 7.73438 -16.7578 11.6016q-5.15625 1.28906 -9.02344 1.28906
q-12.8906 0 -24.4922 -6.44531l7.73438 27.0703h-11.6016l-7.73438 -27.0703q-9.02344 15.4688 -27.0703 21.9141q-3.86719 1.28906 -6.44531 1.28906q-14.1797 0 -24.4922 -14.1797q-7.73438 -11.6016 -7.73438 -21.9141q0 -6.44531 2.57812 -12.8906
q7.73438 -16.7578 43.8281 -77.3438zM216.562 455.527l-47.6953 -319.688l73.4766 -23.2031l139.219 290.039l-45.1172 14.1797l-25.7812 -52.8516l-58.0078 16.7578l7.73438 58.0078zM506.602 563.809q23.2031 1.28906 47.6953 6.44531q2.57812 -7.73438 2.57812 -12.8906
q0 -6.44531 -2.57812 -12.8906l-128.906 -479.531q-5.15625 -21.9141 -24.4922 -33.5156q-12.8906 -6.44531 -27.0703 -6.44531q-6.44531 0 -14.1797 1.28906h-1.28906l-317.109 86.3672q-21.9141 5.15625 -33.5156 24.4922q-7.73438 14.1797 -7.73438 27.0703
q0 7.73438 1.28906 14.1797l1.28906 1.28906l127.617 479.531q5.15625 20.625 24.4922 32.2266q12.8906 7.73438 27.0703 7.73438q6.44531 0 14.1797 -1.28906h1.28906l127.617 -33.5156q28.3594 -58.0078 90.2344 -81.2109q42.5391 -19.3359 91.5234 -19.3359z
M221.719 179.668l21.9141 161.133l48.9844 -12.8906zM787.617 450.371l-45.1172 -14.1797l9.02344 -59.2969l-58.0078 -19.3359l-25.7812 52.8516l-45.1172 -12.8906l143.086 -290.039l72.1875 21.9141zM670.312 549.629l-10.3125 28.3594l-9.02344 -2.57812
l11.6016 -28.3594q-11.6016 5.15625 -23.2031 5.15625q-6.44531 0 -12.8906 -2.57812q-12.8906 -6.44531 -18.0469 -19.3359q-1.28906 -6.44531 -1.28906 -11.6016q0 -9.02344 3.86719 -16.7578t11.6016 -12.8906q16.7578 -9.02344 81.2109 -38.6719
q30.9375 63.1641 36.0938 79.9219q2.57812 5.15625 2.57812 9.02344q0 10.3125 -6.44531 19.3359q-7.73438 12.8906 -23.2031 16.7578q-3.86719 1.28906 -7.73438 1.28906q-5.15625 0 -9.02344 -1.28906q-19.3359 -6.44531 -25.7812 -25.7812zM631.641 26.2695
q-9.02344 -2.57812 -15.4688 -2.57812q-12.8906 0 -24.4922 6.44531q-19.3359 11.6016 -25.7812 32.2266l-1.28906 2.57812l-47.6953 172.734l78.6328 295.195q3.86719 12.8906 3.86719 25.7812q0 11.6016 -3.86719 24.4922q64.4531 27.0703 94.1016 88.9453
l103.125 28.3594q9.02344 2.57812 16.7578 2.57812q12.8906 0 23.2031 -6.44531q20.625 -10.3125 25.7812 -30.9375l1.28906 -3.86719l128.906 -479.531q1.28906 -6.44531 1.28906 -12.8906q0 -15.4688 -7.73438 -29.6484q-10.3125 -20.625 -33.5156 -27.0703z
M537.539 606.348q-18.0469 -5.15625 -34.8047 -5.15625t-34.8047 5.15625v38.6719q18.0469 -3.86719 34.8047 -3.86719t34.8047 3.86719v-38.6719zM470.508 959.551q16.7578 3.86719 34.8047 3.86719t34.8047 -3.86719v-38.6719q-16.7578 3.86719 -34.8047 3.86719
t-34.8047 -3.86719v38.6719zM638.086 661.777l-16.7578 9.02344l-16.7578 10.3125q24.4922 24.4922 34.8047 58.0078l16.7578 -9.02344l16.7578 -10.3125q-12.8906 -32.2266 -36.0938 -58.0078h1.28906zM604.57 882.207l16.7578 9.02344l16.7578 10.3125
q24.4922 -25.7812 34.8047 -59.2969l-16.7578 -10.3125l-16.7578 -9.02344q-10.3125 33.5156 -36.0938 59.2969h1.28906zM403.477 681.113l-16.7578 -10.3125l-16.7578 -9.02344q-25.7812 25.7812 -36.0938 58.0078l16.7578 10.3125l16.7578 9.02344
q11.6016 -33.5156 36.0938 -58.0078zM367.383 822.91l-16.7578 10.3125l-16.7578 9.02344q10.3125 33.5156 36.0938 59.2969q16.7578 -9.02344 33.5156 -19.3359q-24.4922 -25.7812 -36.0938 -59.2969zM578.789 705.605q-32.2266 -29.6484 -74.7656 -29.6484
q-43.8281 0 -76.0547 29.6484q-29.6484 32.2266 -29.6484 76.0547t29.6484 74.7656q32.2266 30.9375 76.0547 30.9375q42.5391 0 74.7656 -30.9375q30.9375 -30.9375 30.9375 -74.7656t-30.9375 -76.0547zM698.672 781.66v2.57812q0 77.3438 -55.4297 134.062
q-56.7188 56.7188 -136.641 58.0078h-2.57812q-81.2109 0 -139.219 -56.7188q-56.7188 -58.0078 -56.7188 -137.93q0 -81.2109 56.7188 -139.219q58.0078 -56.7188 139.219 -56.7188q79.9219 0 137.93 56.7188q56.7188 58.0078 56.7188 139.219zM562.031 722.363
q24.4922 24.4922 24.4922 59.2969q0 33.5156 -24.4922 58.0078t-58.0078 25.7812q-34.8047 0 -59.2969 -25.7812q-24.4922 -24.4922 -24.4922 -58.0078q0 -34.8047 24.4922 -59.2969t59.2969 -24.4922q33.5156 1.28906 58.0078 24.4922z" />
</svg>
