<?xml version="1.0" standalone="no"?>
<!DOCTYPE svg PUBLIC "-//W3C//DTD SVG 1.1//EN" "http://www.w3.org/Graphics/SVG/1.1/DTD/svg11.dtd" >
<svg xmlns="http://www.w3.org/2000/svg" xmlns:xlink="http://www.w3.org/1999/xlink" version="1.1" viewBox="-10 0 1010 1000">
   <path fill="currentColor"
d="M90.1162 757.477v2.57422q-1.28711 10.3008 -1.28711 20.5996q0 37.334 23.1729 70.8066q28.3223 39.9082 78.5303 47.6328l312.835 52.7832q-16.7354 9.01172 -36.0469 9.01172l-402.951 -25.748h-2.5752q-27.0352 -2.57617 -46.3457 -23.1738
q-15.4482 -19.3105 -15.4482 -43.7715v-3.86133l38.6211 -605.072v-5.14844q2.5752 -27.0352 23.1729 -45.0586q18.0234 -15.4492 41.1963 -15.4492h6.4375l74.668 3.86328zM764.707 500l-102.991 -177.66l-177.659 102.992l102.991 177.658zM941.079 154.98h2.57422
q25.748 9.01172 38.6221 33.4727q7.72461 14.1602 7.72461 30.8965q0 9.01172 -2.5752 19.3105l-171.223 580.611q-9.01172 25.748 -33.4717 38.6211q-14.1611 9.01172 -30.8975 9.01172q-9.01172 0 -19.3105 -2.57422l-387.503 -113.291
q-25.748 -7.72266 -39.9092 -32.1836q-7.72461 -15.4492 -7.72461 -32.1855q0 -9.01172 2.5752 -19.3105l171.222 -579.324q7.72461 -27.0352 32.1846 -39.9082q16.7363 -9.01172 32.1846 -9.01172q9.01172 0 19.3115 2.57422zM248.465 651.912
q-5.14941 18.0234 -5.14941 34.7578q0 29.6113 14.1611 57.9336q23.1729 43.7715 72.0938 57.9316l319.271 93.9785q-18.0234 12.875 -41.1963 12.875h-10.2988l-400.377 -68.2324q-27.0352 -5.14844 -42.4834 -27.0352q-12.874 -18.0234 -12.874 -39.9082
q0 -3.86133 1.28711 -10.2988l99.1289 -596.061q5.14941 -27.0352 28.3223 -42.4824q16.7363 -12.875 38.6221 -12.875h10.2988l83.6797 12.875z" />
</svg>
