<?xml version="1.0" standalone="no"?>
<!DOCTYPE svg PUBLIC "-//W3C//DTD SVG 1.1//EN" "http://www.w3.org/Graphics/SVG/1.1/DTD/svg11.dtd" >
<svg xmlns="http://www.w3.org/2000/svg" xmlns:xlink="http://www.w3.org/1999/xlink" version="1.1" viewBox="-10 0 1066 1000">
   <path fill="currentColor"
d="M114.518 483.985v2.66309q-1.33203 10.6533 -1.33203 21.3057q0 38.6172 23.9688 73.2383q29.2959 41.2793 81.2275 49.2695l323.579 54.5957q-17.3105 9.32031 -37.2852 9.32031l-416.79 -26.6318h-2.66309q-27.9639 -2.66309 -47.9375 -23.9688
q-15.9795 -19.9736 -15.9795 -45.2744v-3.99414l39.9482 -625.853v-5.32617q2.66309 -27.9629 23.9688 -46.6055q18.6426 -15.9795 42.6113 -15.9795h6.65723l77.2334 3.99512zM812.275 217.666l-106.527 -183.761l-183.761 106.527l106.527 183.761zM994.705 -139.203
h2.66309q26.6318 9.32129 39.9482 34.6221q7.98926 14.6475 7.98926 31.958q0 9.32129 -2.66309 19.9746l-177.103 600.551q-9.32129 26.6318 -34.6221 39.9482q-14.6475 9.32129 -31.958 9.32129q-9.32129 0 -19.9746 -2.66309l-400.812 -117.181
q-26.6318 -7.99023 -41.2793 -33.29q-7.98926 -15.9795 -7.98926 -33.29q0 -9.32129 2.66309 -19.9746l177.103 -599.22q7.98926 -27.9629 33.29 -41.2793q17.3105 -9.32129 33.29 -9.32129q9.32129 0 19.9736 2.66309zM278.305 374.795q-5.32715 18.6416 -5.32715 35.9531
q0 30.627 14.6475 59.9219q23.9697 45.2744 74.5703 59.9219l330.236 97.207q-18.6426 13.3154 -42.6113 13.3154h-10.6523l-414.128 -70.5742q-27.9629 -5.32715 -43.9424 -27.9639q-13.3164 -18.6426 -13.3164 -41.2793q0 -3.99512 1.33203 -10.6533l102.533 -616.53
q5.32617 -27.9639 29.2949 -43.9434q17.3105 -13.3154 39.9482 -13.3154h10.6523l86.5547 13.3154z" />
</svg>
