<?xml version="1.0" standalone="no"?>
<!DOCTYPE svg PUBLIC "-//W3C//DTD SVG 1.1//EN" "http://www.w3.org/Graphics/SVG/1.1/DTD/svg11.dtd" >
<svg xmlns="http://www.w3.org/2000/svg" xmlns:xlink="http://www.w3.org/1999/xlink" version="1.1" viewBox="-10 0 1066 1000">
   <path fill="currentColor"
d="M360.47 196.307q-57.4082 12.0156 -98.7959 52.0674l-52.0674 -296.386v-8.01074q0 -17.3555 9.3457 -30.7061q13.3506 -18.6914 34.7119 -22.6963l144.188 -25.3662q-9.3457 16.0205 -10.6807 36.0469zM489.972 188.296q-9.3457 -1.33496 -20.0264 -1.33496
q-9.3457 0 -18.6914 1.33496h-8.00977q-21.3613 0 -44.0576 4.00488l26.7012 -287.04q2.66992 -21.3613 20.0264 -34.7119q14.6855 -13.3506 34.7119 -13.3506h4.00488l122.827 10.6807q-5.34082 9.3457 -10.6807 20.0264zM248.323 448.635
q-5.33984 6.67578 -5.33984 16.0215v56.0723l1.33496 2.6709q1.33496 4.00488 1.33496 5.33984l-218.952 -421.883q-5.33984 -12.0156 -5.33984 -24.0312q0 -8.01074 2.66992 -17.3555q6.67578 -20.0264 26.7012 -30.707l117.486 -61.4131l74.7646 424.553v30.7061
q0 10.6807 5.33984 20.0264zM476.62 523.399q85.4453 0 152.198 -57.4082v52.0674q-17.3555 25.3662 -65.418 41.3877q-48.0625 14.6855 -106.806 14.6855q-10.6807 1.33496 -21.3613 1.33496q-84.1094 0 -150.863 -54.7383v-52.0674q66.7539 54.7383 150.863 54.7383
h41.3867zM926.54 145.573l-86.7803 -38.7168l-8.00977 -94.79l-64.084 70.7588l-93.4551 -22.6963l49.3975 82.7744l-52.0674 81.4395l93.4551 -20.0264l61.4131 72.0947l10.6807 -94.791zM1010.65 -22.6455q20.0264 9.3457 29.3711 28.0371
q5.34082 10.6797 5.34082 21.3604q0 9.3457 -2.66992 18.6914l-164.214 455.26q-8.01074 20.0254 -28.0371 30.7061q-12.0156 5.34082 -24.0312 5.34082q-8.00977 0 -17.3555 -2.6709l-137.513 -44.0566v-21.3613q0 -10.6807 -4.00488 -20.0264
q4.00488 -10.6807 4.00488 -20.0264v-52.0674q0 -10.6807 -4.00488 -20.0264q4.00488 -10.6807 4.00488 -21.3604v-53.4033q0 -12.0156 -6.67578 -24.0312q-53.4023 -57.4082 -132.172 -65.4189l106.806 -291.045q6.67578 -21.3613 26.7021 -32.042
q12.0156 -5.34082 24.0312 -5.34082q8.00977 0 18.6904 4.00586zM563.4 416.593q48.0625 -14.6855 65.418 -40.0518v52.0674q-17.3555 25.3672 -65.418 40.0527q-48.0625 16.0205 -106.806 16.0205h-22.6963q-84.1094 0 -149.528 -53.4023v-52.0684
q65.4189 54.7383 149.528 54.7383q10.6807 0 22.6963 -1.33496q58.7432 0 106.806 -16.0215zM480.626 228.348q81.4395 0 148.192 56.0732v50.7334q-17.3555 25.3662 -65.418 41.3867q-48.0625 14.6855 -106.806 14.6855q-12.0156 1.33496 -22.6963 1.33496
q-84.1094 0 -149.528 -54.7373v-53.4033q65.4189 -54.7373 149.528 -54.7373h22.6963q12.0156 -1.33594 24.0312 -1.33594z" />
</svg>
