<?xml version="1.0" standalone="no"?>
<!DOCTYPE svg PUBLIC "-//W3C//DTD SVG 1.1//EN" "http://www.w3.org/Graphics/SVG/1.1/DTD/svg11.dtd" >
<svg xmlns="http://www.w3.org/2000/svg" xmlns:xlink="http://www.w3.org/1999/xlink" version="1.1" viewBox="-10 0 1010 1000">
   <path fill="currentColor"
d="M327.849 480.639q-55.502 11.6172 -95.5156 50.3389l-50.3389 -286.545v-7.74414q0 -16.7793 9.03516 -29.6875q12.9072 -18.0703 33.5596 -21.9424l139.4 -24.5234q-9.03516 15.4883 -10.3262 34.8496zM453.051 472.895q-9.03516 -1.29102 -19.3613 -1.29102
q-9.03516 0 -18.0703 1.29102h-7.74512q-20.6514 0 -42.5938 3.87207l25.8145 -277.51q2.58105 -20.6514 19.3613 -33.5596q14.1982 -12.9072 33.5596 -12.9072h3.87207l118.748 10.3262q-5.16309 9.03516 -10.3262 19.3613zM219.426 724.59
q-5.16309 6.45312 -5.16309 15.4883v54.2119l1.29102 2.58105q1.29102 3.87207 1.29102 5.16309l-211.683 -407.875q-5.16211 -11.6162 -5.16211 -23.2334q0 -7.74414 2.58105 -16.7793q6.4541 -19.3613 25.8145 -29.6875l113.586 -59.374l72.2812 410.456v29.6875
q0 10.3262 5.16309 19.3613zM440.143 796.871q82.6084 0 147.146 -55.502v50.3389q-16.7803 24.5244 -63.2471 40.0127q-46.4668 14.1982 -103.259 14.1982q-10.3262 1.29102 -20.6523 1.29102q-81.3164 0 -145.854 -52.9199v-50.3398q64.5371 52.9209 145.854 52.9209
h40.0127zM875.123 431.591l-83.8975 -37.4316l-7.74512 -91.6426l-61.9551 68.4092l-90.3525 -21.9424l47.7578 80.0254l-50.3389 78.7354l90.3516 -19.3604l59.374 69.7002l10.3262 -91.6436zM956.44 268.957q19.3613 9.03516 28.3965 27.1055
q5.16309 10.3262 5.16309 20.6523q0 9.03516 -2.58203 18.0703l-158.762 440.144q-7.74414 19.3613 -27.1055 29.6865q-11.6162 5.16309 -23.2334 5.16309q-7.74414 0 -16.7793 -2.58105l-132.946 -42.5947v-20.6523q0 -10.3252 -3.87305 -19.3604
q3.87305 -10.3262 3.87305 -19.3613v-50.3389q0 -10.3262 -3.87305 -19.3613q3.87305 -10.3262 3.87305 -20.6523v-51.6299q0 -11.6162 -6.4541 -23.2334q-51.6299 -55.502 -127.783 -63.2461l103.259 -281.382q6.4541 -20.6523 25.8154 -30.9775
q11.6162 -5.16309 23.2334 -5.16309q7.74414 0 18.0703 3.87207zM524.041 693.611q46.4668 -14.1982 63.2471 -38.7217v50.3389q-16.7803 24.5234 -63.2471 38.7217q-46.4668 15.4893 -103.259 15.4893h-21.9434q-81.3164 0 -144.562 -51.6299v-50.3389
q63.2461 52.9209 144.562 52.9209q10.3262 0 21.9434 -1.29102q56.792 0 103.259 -15.4893zM444.016 511.617q78.7354 0 143.272 54.2109v49.0479q-16.7803 24.5244 -63.2471 40.0137q-46.4668 14.1982 -103.259 14.1982q-11.6172 1.29004 -21.9434 1.29004
q-81.3164 0 -144.562 -52.9199v-51.6299q63.2461 -52.9209 144.562 -52.9209h21.9434q11.6162 -1.29004 23.2334 -1.29004z" />
</svg>
