<?xml version="1.0" standalone="no"?>
<!DOCTYPE svg PUBLIC "-//W3C//DTD SVG 1.1//EN" "http://www.w3.org/Graphics/SVG/1.1/DTD/svg11.dtd" >
<svg xmlns="http://www.w3.org/2000/svg" xmlns:xlink="http://www.w3.org/1999/xlink" version="1.1" viewBox="-10 0 1066 1000">
   <path fill="currentColor"
d="M396 112.5l-110.667 -152l30.667 -153.333l-46.667 12l-25.333 152l-34.667 -133.334l-46.666 13.334l81.333 305.333l48 -12l-25.333 -94.667l5.33301 -32l78.667 110.667zM597.333 251.167q0 9.33301 -1.33301 16h-198.667q17.334 -10.667 17.334 -26.667
q0 -5.33301 -1.33398 -10.667l-1.33301 -5.33301q-4 -12 -14.667 -18.667q-8 -2.66602 -14.666 -2.66602q-5.33398 0 -9.33398 1.33301h-4l1.33398 -5.33301v-5.33398q0 -5.33301 -1.33398 -8q-6.66602 -25.333 -29.333 -25.333q-5.33301 0 -9.33301 1.33301
q-13.334 2.66699 -21.334 13.334q-6.66602 9.33301 -6.66602 18.666q0 4 1.33301 6.66699q4 9.33301 9.33301 16l-5.33301 1.33301q-12 4 -18.667 16q-2.66602 6.66699 -2.66602 14.667q0 4 1.33301 9.33301l4 2.66699h-32q-26.667 0 -50.667 13.333
q-5.33301 1.33398 -10.666 6.66699l-4 4l-4 5.33301q-28 30.667 -34.667 72l-133.333 -488q-1.33398 -8 -1.33398 -14.666q0 -14.667 8 -29.334q12 -20 34.667 -25.333l332 -89.333q6.66699 -1.33398 13.333 -1.33398q16 0 28 8q21.334 12 26.667 34.667zM877.333 -104.833
q6.66699 -22.667 6.66699 -46.667v-9.33301q-14.667 -26.667 -44 -32q-12 -5.33398 -24 -5.33398q-16 0 -30.667 9.33398q-26.666 13.333 -30.666 44l-16 49.333q-5.33398 17.333 -5.33398 30.667q0 34.666 33.334 45.333q8 2.66699 17.333 2.66699q16 0 30.667 -16
l-16 50.666q-5.33398 22.667 -13.334 25.334q-1.33301 5.33301 -8 5.33301q-4 0 -10.666 -2.66699q-17.334 -4 -17.334 -18.666q0 -5.33398 1.33398 -12l4 -9.33398l-41.334 -13.333l-2.66602 6.66699q-6.66699 13.333 -6.66699 26.666q0 13.334 6.66699 26.667
q12 26.667 40 32q9.33301 4 20 5.33301h6.66602q21.334 0 37.334 -14.666q18.666 -16 21.333 -41.334zM1006.67 -192.833l8 2.66602q18.666 8 26.666 25.334q4 9.33301 4 20q0 8 -4 18.666l-120 453.334l-9.33301 -18.667q-4 -8 -9.33301 -16
q-9.33398 -14.667 -25.334 -21.333q-1.33301 0 -4 -1.33398v-2.66602h-10.666l-4 -1.33398q-6.66699 -1.33301 -9.33398 -1.33301q-13.333 -1.33301 -26.666 -1.33301q-13.334 0 -26.667 1.33301q-9.33301 0 -30.667 1.33301l-17.333 1.33398h-28l56 -30.667
l-46.667 -86.667l-85.333 48l37.333 69.334h-37.333q0 -12 -2.66699 -25.334l-82.666 -305.333l48 -177.333l1.33301 -5.33398q6.66699 -21.333 26.667 -32q10.666 -5.33301 24 -5.33301q8 0 16 2.66699zM822.667 -151.5q16 6.66699 16 20q0 5.33301 -2.66699 10.667l-12 48
l-1.33301 5.33301q-5.33398 14.667 -17.334 14.667q-4 0 -9.33301 -1.33398q-18.667 -4 -18.667 -20q0 -5.33301 2.66699 -12l12 -46.666l1.33301 -6.66699q5.33398 -14.667 17.334 -14.667q4 0 10.666 2.66699h1.33398zM842.667 563.167l2.66602 -5.33398l2.66699 -5.33301
q2.66699 -6.66699 6.66699 -8q-16 -10.667 -33.334 -16q-6.66602 -2.66699 -6.66602 -12l1.33301 -14.667q1.33301 -9.33301 1.33301 -13.333v-10.667q0 -36 -9.33301 -72l10.667 -4l10.666 -4q14.667 -4 22.667 -8l-4 -12l-2.66699 -6.66602l-2.66602 -6.66699h-2.66699
q-26.667 5.33301 -50.667 16q-8 2.66699 -14.666 8q-8 6.66699 -8 10.667q2.66602 17.333 2.66602 34.666q0 44 -12 85.334q-26.666 54.666 -80 69.333q-21.333 5.33301 -50.666 8l-26.667 1.33301l-25.333 1.33398q-16 1.33301 -33.334 1.33301q-72 0 -140 -26.667
q-53.333 -20 -65.333 -68q-4 -16 -4 -42.666q0 -24 2.66699 -57.334v-2.66602q0 -9.33398 -9.33398 -13.334q-1.33301 0 -6.66602 -2.66602l-5.33398 -2.66699h-2.66602l-57.334 -20q-4 13.333 -9.33301 25.333l12 4l10.667 4q14.666 5.33398 21.333 8
q-9.33301 32 -9.33301 64q0 24 6.66602 49.334q0 6.66602 -6.66602 9.33301q-5.33398 1.33301 -14.667 6.66699l-14.667 6.66602q-5.33301 0 -5.33301 6.66699l9.33301 18.667l21.334 -10.667l22.666 -8q38.667 65.333 113.334 84l-4 10.667l-4 10.666l-2.66699 9.33398
l-4 10.666l13.333 4q9.33398 0 13.334 2.66699q8 -16 13.333 -32q4 -10.667 10.667 -10.667q2.66602 0 5.33301 1.33398q48 9.33301 97.333 9.33301q28 0 57.334 -2.66699q25.333 -1.33301 49.333 -6.66602q1.33301 10.666 6.66699 18.666q8 17.334 12 18.667
q6.66602 0 22.666 -5.33301l2.66699 -4l-4 -10.667l-2.66699 -10.667q-5.33301 -12 -8 -20q73.334 -17.333 113.334 -81.333l22.666 9.33301zM896 467.167q0 41.333 -12 84q-33.333 85.333 -117.333 122.666q-81.334 41.334 -173.334 44q-25.333 2.66699 -52 2.66699
q-70.666 0 -140 -17.333q-66.666 -12 -116 -54.667q-52 -44 -73.333 -106.667q-10.667 -38.666 -10.667 -78.666q0 -50.667 20 -101.334q4 -17.333 13.334 -32q9.33301 -21.333 32 -21.333h558.666q22.667 0 33.334 21.333q37.333 66.667 37.333 137.334z" />
</svg>
