<?xml version="1.0" standalone="no"?>
<!DOCTYPE svg PUBLIC "-//W3C//DTD SVG 1.1//EN" "http://www.w3.org/Graphics/SVG/1.1/DTD/svg11.dtd" >
<svg xmlns="http://www.w3.org/2000/svg" xmlns:xlink="http://www.w3.org/1999/xlink" version="1.1" viewBox="-10 0 1010 1000">
   <path fill="currentColor"
d="M362.227 398.809l-106.992 -146.953l29.6484 -148.242l-45.1172 11.6016l-24.4922 146.953l-33.5156 -128.906l-45.1172 12.8906l78.6328 295.195l46.4062 -11.6016l-24.4922 -91.5234l5.15625 -30.9375l76.0547 106.992zM556.875 532.871q0 9.02344 -1.28906 15.4688
h-192.07q16.7578 -10.3125 16.7578 -25.7812q0 -5.15625 -1.28906 -10.3125l-1.28906 -5.15625q-3.86719 -11.6016 -14.1797 -18.0469q-7.73438 -2.57812 -14.1797 -2.57812q-5.15625 0 -9.02344 1.28906h-3.86719l1.28906 -5.15625v-5.15625q0 -5.15625 -1.28906 -7.73438
q-6.44531 -24.4922 -28.3594 -24.4922q-5.15625 0 -9.02344 1.28906q-12.8906 2.57812 -20.625 12.8906q-6.44531 9.02344 -6.44531 18.0469q0 3.86719 1.28906 6.44531q3.86719 9.02344 9.02344 15.4688l-5.15625 1.28906q-11.6016 3.86719 -18.0469 15.4688
q-2.57812 6.44531 -2.57812 14.1797q0 3.86719 1.28906 9.02344l3.86719 2.57812h-30.9375q-25.7812 0 -48.9844 12.8906q-5.15625 1.28906 -10.3125 6.44531l-3.86719 3.86719l-3.86719 5.15625q-27.0703 29.6484 -33.5156 69.6094l-128.906 -471.797
q-1.28906 -7.73438 -1.28906 -14.1797q0 -14.1797 7.73438 -28.3594q11.6016 -19.3359 33.5156 -24.4922l320.977 -86.3672q6.44531 -1.28906 12.8906 -1.28906q15.4688 0 27.0703 7.73438q20.625 11.6016 25.7812 33.5156zM827.578 188.691
q6.44531 -21.9141 6.44531 -45.1172v-9.02344q-14.1797 -25.7812 -42.5391 -30.9375q-11.6016 -5.15625 -23.2031 -5.15625q-15.4688 0 -29.6484 9.02344q-25.7812 12.8906 -29.6484 42.5391l-15.4688 47.6953q-5.15625 16.7578 -5.15625 29.6484q0 33.5156 32.2266 43.8281
q7.73438 2.57812 16.7578 2.57812q15.4688 0 29.6484 -15.4688l-15.4688 48.9844q-5.15625 21.9141 -12.8906 24.4922q-1.28906 5.15625 -7.73438 5.15625q-3.86719 0 -10.3125 -2.57812q-16.7578 -3.86719 -16.7578 -18.0469q0 -5.15625 1.28906 -11.6016l3.86719 -9.02344
l-39.9609 -12.8906l-2.57812 6.44531q-6.44531 12.8906 -6.44531 25.7812t6.44531 25.7812q11.6016 25.7812 38.6719 30.9375q9.02344 3.86719 19.3359 5.15625h6.44531q20.625 0 36.0938 -14.1797q18.0469 -15.4688 20.625 -39.9609zM952.617 103.613l7.73438 2.57812
q18.0469 7.73438 25.7812 24.4922q3.86719 9.02344 3.86719 19.3359q0 7.73438 -3.86719 18.0469l-116.016 438.281l-9.02344 -18.0469q-3.86719 -7.73438 -9.02344 -15.4688q-9.02344 -14.1797 -24.4922 -20.625q-1.28906 0 -3.86719 -1.28906v-2.57812h-10.3125
l-3.86719 -1.28906q-6.44531 -1.28906 -9.02344 -1.28906q-12.8906 -1.28906 -25.7812 -1.28906t-25.7812 1.28906q-9.02344 0 -29.6484 1.28906l-16.7578 1.28906h-27.0703l54.1406 -29.6484l-45.1172 -83.7891l-82.5 46.4062l36.0938 67.0312h-36.0938
q0 -11.6016 -2.57812 -24.4922l-79.9219 -295.195l46.4062 -171.445l1.28906 -5.15625q6.44531 -20.625 25.7812 -30.9375q10.3125 -5.15625 23.2031 -5.15625q7.73438 0 15.4688 2.57812zM774.727 143.574q15.4688 6.44531 15.4688 19.3359q0 5.15625 -2.57812 10.3125
l-11.6016 46.4062l-1.28906 5.15625q-5.15625 14.1797 -16.7578 14.1797q-3.86719 0 -9.02344 -1.28906q-18.0469 -3.86719 -18.0469 -19.3359q0 -5.15625 2.57812 -11.6016l11.6016 -45.1172l1.28906 -6.44531q5.15625 -14.1797 16.7578 -14.1797
q3.86719 0 10.3125 2.57812h1.28906zM794.062 834.512l2.57812 -5.15625l2.57812 -5.15625q2.57812 -6.44531 6.44531 -7.73438q-15.4688 -10.3125 -32.2266 -15.4688q-6.44531 -2.57812 -6.44531 -11.6016l1.28906 -14.1797q1.28906 -9.02344 1.28906 -12.8906v-10.3125
q0 -34.8047 -9.02344 -69.6094l10.3125 -3.86719l10.3125 -3.86719q14.1797 -3.86719 21.9141 -7.73438l-3.86719 -11.6016l-2.57812 -6.44531l-2.57812 -6.44531h-2.57812q-25.7812 5.15625 -48.9844 15.4688q-7.73438 2.57812 -14.1797 7.73438
q-7.73438 6.44531 -7.73438 10.3125q2.57812 16.7578 2.57812 33.5156q0 42.5391 -11.6016 82.5q-25.7812 52.8516 -77.3438 67.0312q-20.625 5.15625 -48.9844 7.73438l-25.7812 1.28906l-24.4922 1.28906q-15.4688 1.28906 -32.2266 1.28906q-69.6094 0 -135.352 -25.7812
q-51.5625 -19.3359 -63.1641 -65.7422q-3.86719 -15.4688 -3.86719 -41.25q0 -23.2031 2.57812 -55.4297v-2.57812q0 -9.02344 -9.02344 -12.8906q-1.28906 0 -6.44531 -2.57812l-5.15625 -2.57812h-2.57812l-55.4297 -19.3359q-3.86719 12.8906 -9.02344 24.4922
l11.6016 3.86719l10.3125 3.86719q14.1797 5.15625 20.625 7.73438q-9.02344 30.9375 -9.02344 61.875q0 23.2031 6.44531 47.6953q0 6.44531 -6.44531 9.02344q-5.15625 1.28906 -14.1797 6.44531l-14.1797 6.44531q-5.15625 0 -5.15625 6.44531l9.02344 18.0469
l20.625 -10.3125l21.9141 -7.73438q37.3828 63.1641 109.57 81.2109l-3.86719 10.3125l-3.86719 10.3125l-2.57812 9.02344l-3.86719 10.3125l12.8906 3.86719q9.02344 0 12.8906 2.57812q7.73438 -15.4688 12.8906 -30.9375q3.86719 -10.3125 10.3125 -10.3125
q2.57812 0 5.15625 1.28906q46.4062 9.02344 94.1016 9.02344q27.0703 0 55.4297 -2.57812q24.4922 -1.28906 47.6953 -6.44531q1.28906 10.3125 6.44531 18.0469q7.73438 16.7578 11.6016 18.0469q6.44531 0 21.9141 -5.15625l2.57812 -3.86719l-3.86719 -10.3125
l-2.57812 -10.3125q-5.15625 -11.6016 -7.73438 -19.3359q70.8984 -16.7578 109.57 -78.6328l21.9141 9.02344zM845.625 741.699q0 39.9609 -11.6016 81.2109q-32.2266 82.5 -113.438 118.594q-78.6328 39.9609 -167.578 42.5391q-24.4922 2.57812 -50.2734 2.57812
q-68.3203 0 -135.352 -16.7578q-64.4531 -11.6016 -112.148 -52.8516q-50.2734 -42.5391 -70.8984 -103.125q-10.3125 -37.3828 -10.3125 -76.0547q0 -48.9844 19.3359 -97.9688q3.86719 -16.7578 12.8906 -30.9375q9.02344 -20.625 30.9375 -20.625h540.117
q21.9141 0 32.2266 20.625q36.0938 64.4531 36.0938 132.773z" />
</svg>
