<?xml version="1.0" standalone="no"?>
<!DOCTYPE svg PUBLIC "-//W3C//DTD SVG 1.1//EN" "http://www.w3.org/Graphics/SVG/1.1/DTD/svg11.dtd" >
<svg xmlns="http://www.w3.org/2000/svg" xmlns:xlink="http://www.w3.org/1999/xlink" version="1.1" viewBox="-10 0 1010 1000">
   <path fill="currentColor"
d="M930.601 538.362v-76.7246h-77.9629v76.7246h77.9629zM825.413 204.237l-54.4502 -54.4502l-54.4502 54.4502l54.4502 54.4502zM825.413 795.763l-54.4502 -54.4502l-54.4502 54.4502l54.4502 54.4502zM512.325 879.912h-76.7246v76.7256h76.7246v-76.7256z
M233.888 795.763l-54.4502 -54.4502l-54.4502 54.4502l54.4502 54.4502zM94.0498 461.638h-76.7246v76.7246h76.7246v-76.7246zM124.987 204.237l54.4502 54.4502l54.4502 -54.4502l-54.4502 -54.4502zM820.463 500q0 -143.55 -101.476 -243.787
q-100.237 -101.476 -243.787 -101.476t-245.025 100.237q-100.237 101.476 -100.237 245.025t100.237 245.025q101.476 100.237 245.025 100.237t245.025 -100.237q100.237 -101.476 100.237 -245.025zM435.601 120.088h76.7246v-76.7256h-76.7246v76.7256zM495 5
q205.425 0 350.213 144.787q144.787 144.788 144.787 350.213t-144.787 350.213q-144.788 144.787 -350.213 144.787t-350.212 -144.787q-144.788 -144.788 -144.788 -350.213t144.788 -350.213q144.787 -144.787 350.212 -144.787zM532.125 372.537
q-23.5127 -23.5117 -56.9248 -23.5117t-56.9248 23.5117q-23.5127 22.2754 -23.5127 55.6875q0 13.6133 3.71289 25.9883q-28.4629 1.2373 -49.5 19.7998q-24.75 22.2744 -27.2256 55.6875v3.71191q0 30.9375 21.0381 54.4502q22.2744 24.75 55.6875 25.9873h6.1875
q28.4619 0 50.7373 -19.7998l-17.3252 59.4004h74.25l-18.5625 -60.6377q22.2754 21.0371 50.7373 21.0371h3.71289q32.1748 0 55.6875 -22.2744q23.5127 -22.2754 24.75 -54.4502v-3.71289q0 -30.9375 -21.0381 -54.4492q-23.5117 -23.5127 -55.6875 -24.75
q3.71289 -12.375 3.71289 -25.9883q0 -32.1748 -23.5127 -55.6875zM193.05 500q0 -116.325 82.9131 -199.237q82.9121 -82.9131 199.237 -82.9131t199.237 82.9131q82.9131 82.9121 82.9131 199.237t-82.9131 199.237q-82.9121 82.9131 -199.237 82.9131t-199.237 -82.9131
q-82.9131 -82.9121 -82.9131 -199.237z" />
</svg>
