<?xml version="1.0" standalone="no"?>
<!DOCTYPE svg PUBLIC "-//W3C//DTD SVG 1.1//EN" "http://www.w3.org/Graphics/SVG/1.1/DTD/svg11.dtd" >
<svg xmlns="http://www.w3.org/2000/svg" xmlns:xlink="http://www.w3.org/1999/xlink" version="1.1" viewBox="-10 0 1065 1000">
   <path fill="currentColor"
d="M983.04 272.68v-79.3594h-80.6396v79.3594h80.6396zM874.24 -72.9199l-56.3203 -56.3203l-56.3203 56.3203l56.3203 56.3203zM874.24 538.92l-56.3203 -56.3203l-56.3203 56.3203l56.3203 56.3203zM550.4 625.96h-79.3604v79.3604h79.3604v-79.3604zM262.4 538.92
l-56.3203 -56.3203l-56.3203 56.3203l56.3203 56.3203zM117.76 193.32h-79.3594v79.3594h79.3594v-79.3594zM149.76 -72.9199l56.3203 56.3203l56.3203 -56.3203l-56.3203 -56.3203zM869.12 233q0 -148.48 -104.96 -252.16q-103.68 -104.96 -252.16 -104.96t-253.44 103.68
q-103.68 104.96 -103.68 253.44t103.68 253.44q104.96 103.68 253.44 103.68t253.44 -103.68q103.68 -104.96 103.68 -253.44zM471.04 -159.96h79.3604v-79.3604h-79.3604v79.3604zM532.48 -279q212.479 0 362.239 149.76q149.761 149.76 149.761 362.24t-149.761 362.24
q-149.76 149.76 -362.239 149.76q-212.48 0 -362.24 -149.76t-149.76 -362.24t149.76 -362.24t362.24 -149.76zM570.88 101.16q-24.3203 -24.3203 -58.8799 -24.3203t-58.8799 24.3203q-24.3203 23.04 -24.3203 57.5996q0 14.0801 3.83984 26.8799
q-29.4395 1.28027 -51.1992 20.4805q-25.6006 23.04 -28.1602 57.5996v3.83984q0 32 21.7598 56.3203q23.04 25.6006 57.5996 26.8799h6.40039q29.4404 0 52.4795 -20.4795l-17.9199 61.4395h76.8008l-19.2002 -62.7197q23.04 21.7598 52.4795 21.7598h3.83984
q33.2803 0 57.6006 -23.04t25.5996 -56.3193v-3.84082q0 -32 -21.7598 -56.3193q-24.3203 -24.3203 -57.5996 -25.6006q3.83984 -12.7998 3.83984 -26.8799q0 -33.2793 -24.3203 -57.5996zM220.16 233q0 -120.32 85.7598 -206.08t206.08 -85.7598t206.08 85.7598
t85.7598 206.08t-85.7598 206.08t-206.08 85.7598t-206.08 -85.7598t-85.7598 -206.08z" />
</svg>
