<?xml version="1.0" standalone="no"?>
<!DOCTYPE svg PUBLIC "-//W3C//DTD SVG 1.1//EN" "http://www.w3.org/Graphics/SVG/1.1/DTD/svg11.dtd" >
<svg xmlns="http://www.w3.org/2000/svg" xmlns:xlink="http://www.w3.org/1999/xlink" version="1.1" viewBox="-10 0 1010 1000">
   <path fill="currentColor"
d="M194.648 510.312l1.28906 10.3125l-52.8516 7.73438l-1.28906 -14.1797v-14.1797q0 -11.6016 1.28906 -28.3594l52.8516 5.15625l-1.28906 11.6016v21.9141zM199.805 555.43q3.86719 20.625 11.6016 41.25l-48.9844 21.9141q-9.02344 -27.0703 -14.1797 -55.4297z
M247.5 329.844q-12.8906 18.0469 -21.9141 37.3828l-48.9844 -18.0469q11.6016 -25.7812 28.3594 -48.9844zM211.406 400.742q-6.44531 19.3359 -11.6016 41.25l-52.8516 -5.15625q6.44531 -28.3594 15.4688 -55.4297zM326.133 747.5q18.0469 12.8906 37.3828 21.9141
l-19.3359 48.9844q-25.7812 -11.6016 -48.9844 -28.3594zM224.297 628.906q10.3125 20.625 20.625 38.6719l-39.9609 33.5156q-16.7578 -23.2031 -28.3594 -48.9844zM266.836 694.648q14.1797 18.0469 30.9375 30.9375l-30.9375 43.8281q-21.9141 -18.0469 -41.25 -39.9609z
M723.164 304.062q-14.1797 -16.7578 -30.9375 -30.9375l30.9375 -42.5391q23.2031 18.0469 41.25 39.9609zM595.547 216.406q-23.2031 -7.73438 -45.1172 -11.6016l9.02344 -52.8516q27.0703 5.15625 54.1406 15.4688zM395.742 783.594q20.625 6.44531 41.25 11.6016
l-5.15625 51.5625q-28.3594 -5.15625 -55.4297 -14.1797zM665.156 252.5q-18.0469 -12.8906 -37.3828 -21.9141l18.0469 -50.2734q25.7812 12.8906 48.9844 28.3594zM300.352 271.836q-16.7578 14.1797 -30.9375 30.9375l-43.8281 -30.9375q18.0469 -21.9141 39.9609 -41.25
zM765.703 369.805q-9.02344 -19.3359 -20.625 -37.3828l39.9609 -34.8047q16.7578 24.4922 28.3594 50.2734zM366.094 229.297q-20.625 9.02344 -38.6719 20.625l-33.5156 -39.9609q23.2031 -16.7578 48.9844 -28.3594zM439.57 204.805q-20.625 3.86719 -42.5391 10.3125
l-20.625 -47.6953q27.0703 -10.3125 55.4297 -15.4688zM495 198.359l-10.3125 1.28906l-9.02344 1.28906l-9.02344 -52.8516q18.0469 -2.57812 28.3594 -2.57812t29.6484 2.57812l-9.02344 52.8516l-10.3125 -1.28906zM790.195 444.57q-3.86719 -21.9141 -10.3125 -42.5391
l47.6953 -20.625q9.02344 27.0703 15.4688 54.1406zM690.938 728.164q16.7578 -15.4688 30.9375 -30.9375l42.5391 30.9375q-18.0469 21.9141 -39.9609 41.25zM625.195 770.703q19.3359 -9.02344 37.3828 -20.625l34.8047 39.9609q-24.4922 16.7578 -50.2734 28.3594z
M742.5 670.156q12.8906 -19.3359 21.9141 -38.6719l50.2734 19.3359q-11.6016 25.7812 -28.3594 48.9844zM846.914 470.352q1.28906 18.0469 1.28906 29.6484t-1.28906 28.3594l-52.8516 -5.15625l1.28906 -12.8906v-20.625l-1.28906 -10.3125zM778.594 599.258
q6.44531 -20.625 11.6016 -41.25l52.8516 5.15625q-5.15625 28.3594 -15.4688 55.4297zM937.148 518.047q18.0469 0 18.0469 -18.0469q0 -190.781 -135.352 -324.844q-134.062 -135.352 -324.844 -135.352q-18.0469 0 -18.0469 18.0469t18.0469 18.0469
q175.312 0 300.352 123.75q123.75 125.039 125.039 300.352q0 18.0469 16.7578 18.0469zM733.477 806.797q70.8984 -55.4297 110.859 -135.352q39.9609 -81.2109 39.9609 -171.445q0 -27.0703 -2.57812 -52.8516q-15.4688 -103.125 -79.9219 -185.625
q-96.6797 -125.039 -253.945 -146.953q-25.7812 -3.86719 -52.8516 -3.86719t-52.8516 3.86719q-103.125 14.1797 -185.625 78.6328q-70.8984 55.4297 -110.859 135.352q-39.9609 81.2109 -39.9609 171.445q0 25.7812 3.86719 51.5625v1.28906
q14.1797 103.125 78.6328 184.336q63.1641 83.7891 159.844 122.461q70.8984 29.6484 145.664 29.6484q25.7812 0 52.8516 -3.86719h1.28906q103.125 -14.1797 185.625 -77.3438v-1.28906zM513.047 943.438v-1.28906q0 -18.0469 -18.0469 -18.0469
q-175.312 0 -300.352 -125.039q-123.75 -123.75 -123.75 -299.062q0 -18.0469 -18.0469 -18.0469t-18.0469 18.0469q1.28906 189.492 135.352 324.844q135.352 134.062 324.844 135.352q18.0469 -1.28906 18.0469 -16.7578zM495 5q204.961 0 350.625 144.375
q144.375 145.664 144.375 350.625t-144.375 350.625q-145.664 144.375 -350.625 144.375t-350.625 -144.375q-144.375 -145.664 -144.375 -350.625t144.375 -350.625q145.664 -144.375 350.625 -144.375zM550.43 795.195q21.9141 -5.15625 42.5391 -11.6016l20.625 48.9844
q-27.0703 9.02344 -55.4297 14.1797zM495 800.352l20.625 -1.28906l9.02344 52.8516l-15.4688 1.28906h-14.1797q-11.6016 0 -28.3594 -1.28906l5.15625 -52.8516l11.6016 1.28906h11.6016zM513.047 413.633q-9.02344 -2.57812 -18.0469 -2.57812t-18.0469 2.57812v-90.2344
q0 -18.0469 18.0469 -18.0469t18.0469 18.0469v90.2344zM476.953 586.367q9.02344 1.28906 18.0469 1.28906t18.0469 -1.28906v90.2344q0 18.0469 -18.0469 18.0469t-18.0469 -18.0469v-90.2344zM408.633 481.953q-1.28906 9.02344 -1.28906 18.0469t1.28906 18.0469
h-90.2344q-18.0469 0 -18.0469 -18.0469t18.0469 -18.0469h90.2344zM671.602 481.953q16.7578 1.28906 16.7578 16.7578v1.28906q0 16.7578 -16.7578 18.0469h-90.2344q2.57812 -9.02344 2.57812 -18.0469t-2.57812 -18.0469h90.2344zM532.383 462.617
q15.4688 15.4688 15.4688 37.3828t-15.4688 37.3828t-37.3828 15.4688t-37.3828 -15.4688t-15.4688 -37.3828t15.4688 -37.3828t37.3828 -15.4688t37.3828 15.4688zM671.602 552.852q21.9141 0 37.3828 -15.4688q15.4688 -16.7578 15.4688 -37.3828
q0 -21.9141 -15.4688 -37.3828t-37.3828 -15.4688h-106.992q-7.73438 -10.3125 -16.7578 -18.0469v-105.703q0 -21.9141 -15.4688 -37.3828q-15.4688 -16.7578 -37.3828 -16.7578t-37.3828 16.7578q-15.4688 15.4688 -15.4688 37.3828v105.703
q-10.3125 7.73438 -18.0469 18.0469h-105.703q-21.9141 0 -37.3828 15.4688q-16.7578 15.4688 -16.7578 37.3828t16.7578 37.3828q15.4688 15.4688 37.3828 15.4688h105.703q7.73438 10.3125 18.0469 16.7578v106.992q0 21.9141 15.4688 37.3828t37.3828 15.4688
t37.3828 -15.4688t15.4688 -37.3828v-106.992q9.02344 -6.44531 16.7578 -16.7578h106.992zM738.633 603.125q-42.5391 100.547 -144.375 141.797q-50.2734 20.625 -100.547 20.625t-101.836 -20.625q-101.836 -43.8281 -143.086 -145.664
q-19.3359 -50.2734 -19.3359 -99.2578q0 -51.5625 20.625 -103.125q43.8281 -100.547 144.375 -143.086q50.2734 -19.3359 100.547 -19.3359q51.5625 0 103.125 20.625q100.547 43.8281 141.797 145.664q20.625 50.2734 20.625 99.2578q0 51.5625 -20.625 103.125h-1.28906z
" />
</svg>
