<?xml version="1.0" standalone="no"?>
<!DOCTYPE svg PUBLIC "-//W3C//DTD SVG 1.1//EN" "http://www.w3.org/Graphics/SVG/1.1/DTD/svg11.dtd" >
<svg xmlns="http://www.w3.org/2000/svg" xmlns:xlink="http://www.w3.org/1999/xlink" version="1.1" viewBox="-10 0 1066 1000">
   <path fill="currentColor"
d="M222.667 227.667l1.33301 10.666l-54.667 8l-1.33301 -14.666v-14.667q0 -12 1.33301 -29.333l54.667 5.33301l-1.33301 12v22.667zM228 274.333q4 21.334 12 42.667l-50.667 22.667q-9.33301 -28 -14.666 -57.334zM277.333 41q-13.333 18.667 -22.666 38.667
l-50.667 -18.667q12 -26.667 29.333 -50.667zM240 114.333q-6.66699 20 -12 42.667l-54.667 -5.33301q6.66699 -29.334 16 -57.334zM358.667 473q18.666 13.333 38.666 22.667l-20 50.666q-26.666 -12 -50.666 -29.333zM253.333 350.333q10.667 21.334 21.334 40
l-41.334 34.667q-17.333 -24 -29.333 -50.667zM297.333 418.333q14.667 18.667 32 32l-32 45.334q-22.666 -18.667 -42.666 -41.334zM769.333 14.333q-14.666 -17.333 -32 -32l32 -44q24 18.667 42.667 41.334zM637.333 -76.333q-24 -8 -46.666 -12l9.33301 -54.667
q28 5.33301 56 16zM430.667 510.333q21.333 6.66699 42.666 12l-5.33301 53.334q-29.333 -5.33398 -57.333 -14.667zM709.333 -39q-18.666 -13.333 -38.666 -22.667l18.666 -52q26.667 13.334 50.667 29.334zM332 -19q-17.333 14.667 -32 32l-45.333 -32
q18.666 -22.667 41.333 -42.667zM813.333 82.333q-9.33301 -20 -21.333 -38.666l41.333 -36q17.334 25.333 29.334 52zM400 -63q-21.333 9.33301 -40 21.333l-34.667 -41.333q24 -17.333 50.667 -29.333zM476 -88.333q-21.333 4 -44 10.666l-21.333 -49.333
q28 -10.667 57.333 -16zM533.333 -95l-10.666 1.33301l-9.33398 1.33398l-9.33301 -54.667q18.667 -2.66699 29.333 -2.66699q10.667 0 30.667 2.66699l-9.33301 54.667l-10.667 -1.33398zM838.667 159.667q-4 -22.667 -10.667 -44l49.333 -21.334q9.33398 28 16 56z
M736 453q17.333 -16 32 -32l44 32q-18.667 22.667 -41.333 42.667zM668 497q20 -9.33301 38.667 -21.333l36 41.333q-25.334 17.333 -52 29.333zM789.333 393q13.334 -20 22.667 -40l52 20q-12 26.667 -29.333 50.667zM897.333 186.333q1.33398 18.667 1.33398 30.667
t-1.33398 29.333l-54.666 -5.33301l1.33301 -13.333v-21.334l-1.33301 -10.666zM826.667 319.667q6.66602 -21.334 12 -42.667l54.666 5.33301q-5.33301 29.334 -16 57.334zM990.667 235.667q18.666 0 18.666 -18.667q0 -197.333 -140 -336q-138.666 -140 -336 -140
q-18.666 0 -18.666 18.667q0 18.666 18.666 18.666q181.334 0 310.667 128q128 129.334 129.333 310.667q0 18.667 17.334 18.667zM780 534.333q73.333 -57.333 114.667 -140q41.333 -84 41.333 -177.333q0 -28 -2.66699 -54.667q-16 -106.666 -82.666 -192
q-100 -129.333 -262.667 -152q-26.667 -4 -54.667 -4t-54.666 4q-106.667 14.667 -192 81.334q-73.334 57.333 -114.667 140q-41.333 84 -41.333 177.333q0 26.667 4 53.333v1.33398q14.666 106.666 81.333 190.666q65.333 86.667 165.333 126.667
q73.334 30.667 150.667 30.667q26.667 0 54.667 -4h1.33301q106.667 -14.667 192 -80v-1.33398zM552 675.667v-1.33398q0 -18.666 -18.667 -18.666q-181.333 0 -310.666 -129.334q-128 -128 -128 -309.333q0 -18.667 -18.667 -18.667t-18.667 18.667q1.33398 196 140 336
q140 138.667 336 140q18.667 -1.33301 18.667 -17.333zM533.333 -295q212 0 362.667 149.333q149.333 150.667 149.333 362.667t-149.333 362.667q-150.667 149.333 -362.667 149.333t-362.666 -149.333q-149.334 -150.667 -149.334 -362.667t149.334 -362.667
q150.666 -149.333 362.666 -149.333zM590.667 522.333q22.666 -5.33301 44 -12l21.333 50.667q-28 9.33301 -57.333 14.667zM533.333 527.667l21.334 -1.33398l9.33301 54.667l-16 1.33301h-14.667q-12 0 -29.333 -1.33301l5.33301 -54.667l12 1.33398h12zM552 127.667
q-9.33301 -2.66699 -18.667 -2.66699q-9.33301 0 -18.666 2.66699v-93.334q0 -18.666 18.666 -18.666q18.667 0 18.667 18.666v93.334zM514.667 306.333q9.33301 1.33398 18.666 1.33398q9.33398 0 18.667 -1.33398v93.334q0 18.666 -18.667 18.666
q-18.666 0 -18.666 -18.666v-93.334zM444 198.333q-1.33301 9.33398 -1.33301 18.667t1.33301 18.667h-93.333q-18.667 0 -18.667 -18.667t18.667 -18.667h93.333zM716 198.333q17.333 1.33398 17.333 17.334v1.33301q0 17.333 -17.333 18.667h-93.333
q2.66602 -9.33398 2.66602 -18.667t-2.66602 -18.667h93.333zM572 178.333q16 16 16 38.667t-16 38.667t-38.667 16q-22.666 0 -38.666 -16t-16 -38.667t16 -38.667t38.666 -16q22.667 0 38.667 16zM716 271.667q22.667 0 38.667 -16q16 -17.334 16 -38.667
q0 -22.667 -16 -38.667t-38.667 -16h-110.667q-8 -10.666 -17.333 -18.666v-109.334q0 -22.666 -16 -38.666q-16 -17.334 -38.667 -17.334q-22.666 0 -38.666 17.334q-16 16 -16 38.666v109.334q-10.667 8 -18.667 18.666h-109.333q-22.667 0 -38.667 16
q-17.333 16 -17.333 38.667t17.333 38.667q16 16 38.667 16h109.333q8 10.666 18.667 17.333v110.667q0 22.666 16 38.666t38.666 16q22.667 0 38.667 -16t16 -38.666v-110.667q9.33301 -6.66699 17.333 -17.333h110.667zM785.333 323.667q-44 104 -149.333 146.666
q-52 21.334 -104 21.334t-105.333 -21.334q-105.334 -45.333 -148 -150.666q-20 -52 -20 -102.667q0 -53.333 21.333 -106.667q45.333 -104 149.333 -148q52 -20 104 -20q53.334 0 106.667 21.334q104 45.333 146.667 150.666q21.333 52 21.333 102.667
q0 53.333 -21.333 106.667h-1.33398z" />
</svg>
