<?xml version="1.0" standalone="no"?>
<!DOCTYPE svg PUBLIC "-//W3C//DTD SVG 1.1//EN" "http://www.w3.org/Graphics/SVG/1.1/DTD/svg11.dtd" >
<svg xmlns="http://www.w3.org/2000/svg" xmlns:xlink="http://www.w3.org/1999/xlink" version="1.1" viewBox="-10 0 1044 1000">
   <path fill="currentColor"
d="M277.76 -218.98l512 25.6006l234.24 456.96l-277.76 430.08l-512 -25.6006l-234.24 -455.68zM935.68 227.74l-184.319 -360.96l-404.48 -20.4805l184.32 360.96zM256 575.9l220.16 -340.48l-184.32 -360.96l-220.16 340.48zM712.96 629.66l220.16 -340.48
l-404.48 -19.1992l-220.159 339.199zM675.84 3.74023q10.2402 10.2402 10.2402 25.5996q0 14.0801 -10.2402 25.6006q-11.5195 10.2393 -25.5996 10.2393q-15.3604 0 -25.6006 -10.2393q-11.5195 -11.5205 -11.5195 -25.6006q0 -15.3594 11.5195 -25.5996
q10.2402 -11.5205 25.6006 -11.5205q14.0801 0 25.5996 11.5205zM463.36 501.66q8.95996 -8.95996 21.7598 -8.95996h3.83984q15.3604 1.28027 24.3203 12.7998q8.95996 10.2402 8.95996 23.04v2.55957q-1.28027 15.3604 -11.5205 25.6006
q-11.5195 8.95996 -26.8799 8.95996q-15.3594 -1.28027 -24.3203 -12.7998q-8.95996 -10.2402 -8.95996 -23.04v-3.83984q1.28027 -14.0801 12.8008 -24.3203zM775.68 357.02q11.5205 10.2402 11.5205 25.6006t-11.5205 25.5996q-10.2393 10.2402 -25.5996 10.2402
q-14.0801 0 -25.5996 -10.2402q-10.2402 -10.2393 -10.2402 -25.5996t10.2402 -25.6006q11.5195 -10.2393 25.5996 -10.2393q15.3604 0 25.5996 10.2393zM300.8 45.9805q10.2402 11.5195 10.2402 25.5996q0 15.3604 -10.2402 25.5996q-10.2402 11.5205 -25.5996 11.5205
q-15.3604 0 -25.6006 -11.5205q-10.2393 -10.2393 -10.2393 -25.5996q0 -14.0801 10.2393 -25.5996q10.2402 -10.2402 25.6006 -10.2402q15.3594 0 25.5996 10.2402zM200.96 199.58q10.2402 10.2402 10.2402 25.5996q0 15.3604 -10.2402 25.6006
q-10.2402 10.2393 -25.5996 10.2393q-15.3604 0 -25.6006 -10.2393q-10.2402 -10.2402 -10.2402 -25.6006q0 -15.3594 10.2402 -25.5996t25.6006 -10.2402q15.3594 0 25.5996 10.2402zM384 212.38q10.2402 10.2402 10.2402 25.6006q0 14.0791 -10.2402 25.5996
q-10.2402 10.2402 -25.5996 10.2402q-15.3604 0 -25.6006 -10.2402q-10.2402 -11.5205 -10.2402 -25.5996q0 -15.3604 10.2402 -25.6006q10.2402 -11.5195 25.6006 -11.5195q15.3594 0 25.5996 11.5195zM288 357.02q10.2402 10.2402 10.2402 25.6006t-10.2402 25.5996
q-11.5195 10.2402 -25.5996 10.2402q-15.3604 0 -25.6006 -10.2402q-11.5195 -10.2393 -11.5195 -25.5996t11.5195 -25.6006q10.2402 -10.2393 25.6006 -10.2393q14.0801 0 25.5996 10.2393z" />
</svg>
