<?xml version="1.0" standalone="no"?>
<!DOCTYPE svg PUBLIC "-//W3C//DTD SVG 1.1//EN" "http://www.w3.org/Graphics/SVG/1.1/DTD/svg11.dtd" >
<svg xmlns="http://www.w3.org/2000/svg" xmlns:xlink="http://www.w3.org/1999/xlink" version="1.1" viewBox="-10 0 1010 1000">
   <path fill="currentColor"
d="M268.537 58.832l495 24.75l226.463 441.787l-268.537 415.799l-495 -24.75l-226.463 -440.549zM904.612 490.719l-178.2 -348.975l-391.05 -19.8008l178.2 348.975zM247.5 827.318l212.85 -329.174l-178.199 -348.977l-212.851 329.176zM689.287 879.293
l212.851 -329.174l-391.05 -18.5625l-212.851 327.938zM653.4 274.156q9.89941 9.90039 9.89941 24.75q0 13.6133 -9.89941 24.75q-11.1377 9.90039 -24.75 9.90039q-14.8506 0 -24.75 -9.90039q-11.1377 -11.1367 -11.1377 -24.75q0 -14.8496 11.1377 -24.75
q9.89941 -11.1367 24.75 -11.1367q13.6123 0 24.75 11.1367zM447.975 755.543q8.66309 -8.66211 21.0381 -8.66211h3.71191q14.8506 1.23828 23.5127 12.375q8.66309 9.90039 8.66309 22.2754v2.47461q-1.23828 14.8496 -11.1377 24.75q-11.1377 8.66211 -25.9873 8.66211
q-14.8506 -1.23633 -23.5127 -12.375q-8.66309 -9.89844 -8.66309 -22.2734v-3.71289q1.23828 -13.6133 12.375 -23.5137zM749.925 615.707q11.1377 9.89844 11.1377 24.75q0 14.8496 -11.1377 24.75q-9.89941 9.89844 -24.75 9.89844q-13.6123 0 -24.75 -9.89844
q-9.89941 -9.90039 -9.89941 -24.75q0 -14.8516 9.89941 -24.75q11.1377 -9.90039 24.75 -9.90039q14.8506 0 24.75 9.90039zM290.812 314.994q9.90039 11.1367 9.90039 24.75q0 14.8496 -9.90039 24.75q-9.90039 11.1367 -24.75 11.1367t-24.75 -11.1367
q-9.90039 -9.90039 -9.90039 -24.75q0 -13.6133 9.90039 -24.75q9.90039 -9.90039 24.75 -9.90039t24.75 9.90039zM194.287 463.494q9.90039 9.90039 9.90039 24.75t-9.90039 24.75q-9.89941 9.90039 -24.75 9.90039q-14.8496 0 -24.75 -9.90039
q-9.89941 -9.90039 -9.89941 -24.75t9.89941 -24.75q9.90039 -9.90039 24.75 -9.90039q14.8506 0 24.75 9.90039zM371.25 475.869q9.90039 9.90039 9.90039 24.75q0 13.6113 -9.90039 24.75q-9.90039 9.90039 -24.75 9.90039t-24.75 -9.90039
q-9.90039 -11.1387 -9.90039 -24.75q0 -14.8496 9.90039 -24.75q9.90039 -11.1387 24.75 -11.1387t24.75 11.1387zM278.438 615.707q9.90039 9.89844 9.90039 24.75q0 14.8496 -9.90039 24.75q-11.1377 9.89844 -24.75 9.89844q-14.8496 0 -24.75 -9.89844
q-11.1377 -9.90039 -11.1377 -24.75q0 -14.8516 11.1377 -24.75q9.90039 -9.90039 24.75 -9.90039q13.6123 0 24.75 9.90039z" />
</svg>
