<?xml version="1.0" standalone="no"?>
<!DOCTYPE svg PUBLIC "-//W3C//DTD SVG 1.1//EN" "http://www.w3.org/Graphics/SVG/1.1/DTD/svg11.dtd" >
<svg xmlns="http://www.w3.org/2000/svg" xmlns:xlink="http://www.w3.org/1999/xlink" version="1.1" viewBox="-10 0 1064 1000">
   <path fill="currentColor"
d="M977.394 228.318q0 -13.3154 -9.32031 -22.6367q-9.32129 -10.6533 -23.9688 -10.6533h-822.929q-14.6475 0 -22.6377 10.6533q-10.6523 9.32129 -10.6523 22.6367v400.812q0 14.6475 10.6523 23.9688q7.99023 9.32129 22.6377 9.32129h822.929
q14.6475 0 23.9688 -9.32129q9.32031 -9.32129 9.32031 -23.9688v-400.812zM169.113 -40.6641q-55.9277 78.5635 -74.5693 173.107q13.3154 -3.99512 26.6318 -3.99512h135.823q6.65723 -59.9219 19.9736 -118.512q-55.9268 -19.9746 -107.859 -50.6006zM364.858 -195.13
q-86.5537 35.9531 -151.803 102.533q38.6162 23.9688 81.2275 38.6162q25.3008 -75.9014 70.5752 -141.149zM499.35 51.2158q-79.8955 -3.99512 -158.46 -22.6367q-11.9844 49.2686 -15.9795 99.8691h174.439v-77.2324zM499.35 -221.762q-46.6055 17.3105 -87.8857 75.9004
q-30.626 46.6064 -53.2637 110.523q70.5752 15.9785 141.149 18.6426v-205.066zM565.93 128.448h173.108q-5.32715 -50.6006 -17.3115 -99.8691q-75.9004 18.6416 -155.797 22.6367v77.2324zM565.93 -16.6953q69.2432 -2.66406 138.486 -18.6426
q-21.3057 -62.585 -51.9326 -109.191q-39.9473 -58.5908 -86.5537 -75.9014v203.735zM850.892 -92.5967q-66.5791 -66.5801 -153.134 -102.533q46.6064 65.248 70.5752 141.149q41.2793 -15.9795 82.5586 -38.6162zM893.503 -40.6641q-50.6006 30.626 -107.859 50.6006
q14.6475 58.5898 19.9746 118.512h138.486q11.9844 0 23.9688 2.66406q-18.6426 -93.2129 -74.5703 -171.776zM531.309 -293.668h6.65723q213.057 2.66309 362.195 157.128q143.812 149.14 143.812 354.206v411.464q0 41.2793 -29.2949 70.5752
q-29.2949 29.2949 -70.5742 29.2949h-822.929q-41.2803 0 -70.5752 -29.2949q-29.2949 -29.2959 -29.2949 -70.5752v-402.143q-1.33203 -5.32715 -1.33203 -9.32129q0 -211.725 149.14 -362.195q150.471 -149.139 362.195 -149.139zM266.32 529.26
q13.3154 0 22.6367 9.32129q10.6533 9.32129 10.6533 23.9688q0 13.3164 -10.6533 23.9688q-9.32129 9.32129 -22.6367 9.32129h-67.9121q-13.3154 0 -23.9688 -9.32129q-7.98926 -10.6523 -7.98926 -23.9688v-267.651q0 -13.3154 7.98926 -22.6367
q10.6533 -10.6533 23.9688 -10.6533q14.6475 0 23.9688 10.6533q9.32129 9.32129 9.32129 22.6367v234.361h34.6221zM399.479 261.608q13.3164 0 23.9688 10.6533q9.32129 9.32129 9.32129 22.6367v267.651q0 13.3164 -9.32129 23.9688q-9.32129 9.32129 -23.9688 9.32129
q-13.3154 0 -23.9688 -9.32129q-9.32129 -10.6523 -9.32129 -23.9688v-266.319q0 -14.6475 9.32129 -23.9688q10.6533 -10.6533 23.9688 -10.6533zM695.095 278.919q5.32617 7.99023 5.32617 17.3115q0 3.99414 -1.33105 7.98926l-66.5801 266.32
q-5.32617 19.9736 -23.9688 23.9688q-3.99512 1.33105 -9.32129 1.33105q-7.98926 0 -15.9795 -5.32617q-11.9844 -6.6582 -15.9785 -19.9736l-66.5801 -266.32q-1.33203 -3.99512 -1.33203 -7.98926q0 -9.32129 5.32617 -17.3115q6.6582 -11.9844 21.3057 -15.9785
q3.99512 -1.33203 7.99023 -1.33203q7.98926 0 15.9785 5.32617q11.9844 7.99023 15.9795 19.9746l33.29 138.486l34.6221 -138.486q3.99414 -11.9844 14.6475 -19.9746q9.32129 -5.32617 17.3105 -5.32617q3.99512 0 7.98926 1.33203q14.6475 3.99414 21.3057 15.9785z
M833.581 462.68v66.5801h33.29q13.3164 0 22.6377 9.32129q10.6523 9.32129 10.6523 23.9688q0 13.3164 -10.6523 23.9688q-9.32129 9.32129 -22.6377 9.32129h-67.9111q-13.3164 0 -22.6377 -9.32129q-10.6523 -10.6523 -10.6523 -23.9688v-267.651
q0 -13.3154 10.6523 -22.6367q9.32129 -10.6533 22.6377 -10.6533h67.9111q13.3164 0 22.6377 10.6533q10.6523 9.32129 10.6523 22.6367q0 14.6475 -10.6523 23.9688q-9.32129 9.32129 -22.6377 9.32129h-33.29v67.9121h33.29q13.3164 0 22.6377 9.32031
q10.6523 9.32129 10.6523 23.9688q0 13.3164 -10.6523 22.6377q-9.32129 10.6523 -22.6377 10.6523h-33.29z" />
</svg>
