<?xml version="1.0" standalone="no"?>
<!DOCTYPE svg PUBLIC "-//W3C//DTD SVG 1.1//EN" "http://www.w3.org/Graphics/SVG/1.1/DTD/svg11.dtd" >
<svg xmlns="http://www.w3.org/2000/svg" xmlns:xlink="http://www.w3.org/1999/xlink" version="1.1" viewBox="-10 0 1010 1000">
   <path fill="currentColor"
d="M925.631 510.299q0 -12.873 -9.01172 -21.8848q-9.01172 -10.2998 -23.1729 -10.2998h-795.604q-14.1611 0 -21.8857 10.2998q-10.2988 9.01172 -10.2988 21.8848v387.504q0 14.1611 10.2988 23.1729q7.72461 9.01172 21.8857 9.01172h795.604
q14.1611 0 23.1729 -9.01172t9.01172 -23.1729v-387.504zM144.188 250.247q-54.0703 75.9561 -72.0938 167.36q12.874 -3.8623 25.748 -3.8623h131.313q6.43652 -57.9326 19.3105 -114.577q-54.0703 -19.3105 -104.278 -48.9209zM333.434 100.91
q-83.6807 34.7598 -146.763 99.1289q37.335 23.1729 78.5312 37.334q24.46 -73.3809 68.2314 -136.463zM463.459 339.077q-77.2432 -3.8623 -153.198 -21.8857q-11.5869 47.6328 -15.4492 96.5537h168.647v-74.668zM463.459 75.1631q-45.0586 16.7354 -84.9668 73.3809
q-29.6104 45.0586 -51.4961 106.853q68.2314 15.4492 136.463 18.0234v-198.257zM527.828 413.745h167.36q-5.14941 -48.9209 -16.7354 -96.5537q-73.3818 18.0234 -150.625 21.8857v74.668zM527.828 273.42q66.9443 -2.57422 133.889 -18.0234
q-20.5986 -60.5068 -50.208 -105.565q-38.6221 -56.6445 -83.6807 -73.3809v196.97zM803.329 200.039q-64.3691 -64.3691 -148.049 -99.1289q45.0576 63.082 68.2314 136.463q39.9082 -15.4482 79.8174 -37.334zM844.525 250.247q-48.9209 29.6104 -104.278 48.9209
q14.1611 56.6445 19.3115 114.577h133.888q11.5869 0 23.1729 2.5752q-18.0234 -90.1172 -72.0938 -166.073zM494.356 5.64355h6.4375q205.981 2.5752 350.169 151.912q139.037 144.187 139.037 342.444v397.803q0 39.9092 -28.3223 68.2314t-68.2314 28.3223h-795.604
q-39.9092 0 -68.2314 -28.3223t-28.3223 -68.2314v-388.791q-1.28809 -5.14941 -1.28809 -9.01172q0 -204.694 144.188 -350.169q145.475 -144.188 350.169 -144.188zM238.167 801.248q12.874 0 21.8857 9.01172q10.2988 9.01172 10.2988 23.1738q0 12.873 -10.2988 23.1729
q-9.01172 9.01172 -21.8857 9.01172h-65.6572q-12.874 0 -23.1729 -9.01172q-7.72461 -10.2998 -7.72461 -23.1729v-258.765q0 -12.874 7.72461 -21.8857q10.2988 -10.2998 23.1729 -10.2998q14.1611 0 23.1729 10.2998q9.01172 9.01172 9.01172 21.8857v226.579h33.4727z
M366.905 542.483q12.874 0 23.1729 10.2998q9.01172 9.01172 9.01172 21.8857v258.765q0 12.873 -9.01172 23.1729q-9.01172 9.01172 -23.1729 9.01172q-12.874 0 -23.1729 -9.01172q-9.01172 -10.2998 -9.01172 -23.1729v-257.478q0 -14.1611 9.01172 -23.1729
q10.2988 -10.2998 23.1729 -10.2998zM652.705 559.22q5.14941 7.72461 5.14941 16.7363q0 3.8623 -1.28711 7.72461l-64.3691 257.477q-5.14941 19.3115 -23.1729 23.1729q-3.8623 1.28809 -9.01172 1.28809q-7.72461 0 -15.4492 -5.14941
q-11.5859 -6.4375 -15.4482 -19.3115l-64.3691 -257.477q-1.28809 -3.8623 -1.28809 -7.72461q0 -9.01172 5.14941 -16.7363q6.4375 -11.5859 20.5986 -15.4482q3.8623 -1.28809 7.72461 -1.28809q7.72363 0 15.4482 5.15039q11.5869 7.72363 15.4482 19.3105
l32.1855 133.888l33.4717 -133.888q3.8623 -11.5869 14.1611 -19.3105q9.01172 -5.15039 16.7363 -5.15039q3.8623 0 7.72363 1.28809q14.1621 3.8623 20.5986 15.4482zM786.593 736.879v64.3691h32.1855q12.873 0 21.8848 9.01172q10.2998 9.01172 10.2998 23.1738
q0 12.873 -10.2998 23.1729q-9.01172 9.01172 -21.8848 9.01172h-65.6572q-12.874 0 -21.8857 -9.01172q-10.2988 -10.2998 -10.2988 -23.1729v-258.765q0 -12.874 10.2988 -21.8857q9.01172 -10.2998 21.8857 -10.2998h65.6572q12.873 0 21.8848 10.2998
q10.2998 9.01172 10.2998 21.8857q0 14.1611 -10.2998 23.1729q-9.01172 9.01172 -21.8848 9.01172h-32.1855v65.6562h32.1855q12.873 0 21.8848 9.01172q10.2998 9.01172 10.2998 23.1729q0 12.874 -10.2998 21.8857q-9.01172 10.2988 -21.8848 10.2988h-32.1855z" />
</svg>
