<?xml version="1.0" standalone="no"?>
<!DOCTYPE svg PUBLIC "-//W3C//DTD SVG 1.1//EN" "http://www.w3.org/Graphics/SVG/1.1/DTD/svg11.dtd" >
<svg xmlns="http://www.w3.org/2000/svg" xmlns:xlink="http://www.w3.org/1999/xlink" version="1.1" viewBox="-10 0 1066 1000">
   <path fill="currentColor"
d="M918.667 445q50.666 -85.333 61.333 -184l-108 -118.667l-98.667 49.334l-76 210.666l62.667 73.334zM709.333 515.667l-62.666 -74.667h-225.334l-65.333 77.333l41.333 125.334q65.334 21.333 136 21.333q58.667 0 114.667 -14.667zM306.667 478.333l62.666 -76
l-74.666 -210.666l-98.667 -48l-108 117.333q10.667 114.667 76 209.333zM370.667 -200.333q-110.667 44 -185.334 136l30.667 145.333l101.333 49.333l184 -134.666v-124zM565.333 -3l185.334 134.667l100 -49.334l32 -145.333q-74.667 -92 -185.334 -136l-132 70.667
v125.333zM533.333 -295q212 0 361.334 150.667q150.666 149.333 150.666 361.333t-149.333 362.667q-150.667 149.333 -362.667 149.333t-362.666 -149.333q-149.334 -150.667 -149.334 -362.667t149.334 -362.667q150.666 -149.333 362.666 -149.333z" />
</svg>
