<?xml version="1.0" standalone="no"?>
<!DOCTYPE svg PUBLIC "-//W3C//DTD SVG 1.1//EN" "http://www.w3.org/Graphics/SVG/1.1/DTD/svg11.dtd" >
<svg xmlns="http://www.w3.org/2000/svg" xmlns:xlink="http://www.w3.org/1999/xlink" version="1.1" viewBox="-10 0 1010 1000">
   <path fill="currentColor"
d="M867.539 720.43q48.9844 -82.5 59.2969 -177.891l-104.414 -114.727l-95.3906 47.6953l-73.4766 203.672l60.5859 70.8984zM665.156 788.75l-60.5859 -72.1875h-217.852l-63.1641 74.7656l39.9609 121.172q63.1641 20.625 131.484 20.625q56.7188 0 110.859 -14.1797z
M275.859 752.656l60.5859 -73.4766l-72.1875 -203.672l-95.3906 -46.4062l-104.414 113.438q10.3125 110.859 73.4766 202.383zM337.734 96.5234q-106.992 42.5391 -179.18 131.484l29.6484 140.508l97.9688 47.6953l177.891 -130.195v-119.883zM525.938 287.305
l179.18 130.195l96.6797 -47.6953l30.9375 -140.508q-72.1875 -88.9453 -179.18 -131.484l-127.617 68.3203v121.172zM495 5q204.961 0 349.336 145.664q145.664 144.375 145.664 349.336t-144.375 350.625q-145.664 144.375 -350.625 144.375t-350.625 -144.375
q-144.375 -145.664 -144.375 -350.625t144.375 -350.625q145.664 -144.375 350.625 -144.375z" />
</svg>
