<?xml version="1.0" standalone="no"?>
<!DOCTYPE svg PUBLIC "-//W3C//DTD SVG 1.1//EN" "http://www.w3.org/Graphics/SVG/1.1/DTD/svg11.dtd" >
<svg xmlns="http://www.w3.org/2000/svg" xmlns:xlink="http://www.w3.org/1999/xlink" version="1.1" viewBox="-10 0 1010 1000">
   <path fill="currentColor"
d="M838.663 552.968q27.7451 0 47.9229 -20.1777q20.1787 -18.917 20.1787 -47.9238q0 -27.7451 -20.1787 -47.9238q-20.1777 -18.917 -47.9229 -18.917t-47.9238 18.917q-18.917 20.1787 -18.917 47.9238q0 29.0068 18.917 47.9238q20.1787 20.1777 47.9238 20.1777z
M838.663 814.025q27.7451 0 47.9229 -20.1787q20.1787 -20.1777 20.1787 -47.9229t-20.1787 -47.9238q-20.1777 -20.1787 -47.9229 -20.1787t-47.9238 20.1787q-18.917 20.1787 -18.917 47.9238t18.917 47.9229q20.1787 20.1787 47.9238 20.1787zM694.893 405.414
q0 -16.3945 -11.3506 -27.7451t-27.7451 -11.3506h-500.676q-15.1338 0 -27.7451 11.3506q-11.3506 11.3506 -11.3506 27.7451v421.223q1.26172 16.3955 12.6123 27.7451q11.3496 11.3506 26.4834 11.3506h500.676q16.3945 0 27.7451 -12.6113
q11.3506 -11.3506 11.3506 -26.4844v-421.223zM918.115 246.51q30.2676 0 51.707 21.4395q20.1777 21.4395 20.1777 50.4453v594q0 29.0068 -21.4395 50.4463q-20.1777 20.1787 -50.4453 21.4395h-846.229q-30.2676 -1.26074 -50.4463 -21.4395
q-21.4395 -21.4395 -21.4395 -50.4463v-594q0 -29.0059 21.4395 -50.4453q20.1787 -21.4395 50.4463 -21.4395h305.197l-108.458 -177.822q-3.78418 -8.82715 -3.78418 -15.1338q0 -15.1338 13.873 -25.2227q8.82812 -6.30566 18.917 -6.30566h5.04492
q13.8721 1.26172 22.7002 12.6113l129.898 211.873h79.4521l129.898 -211.873l3.7832 -6.30566q8.82812 -11.3506 21.4395 -12.6113h6.30566q10.0889 0 18.917 6.30566q10.0889 8.82812 12.6113 21.4395v3.7832q0 11.3506 -6.30566 21.4395l-108.458 177.822h305.197z" />
</svg>
