<?xml version="1.0" standalone="no"?>
<!DOCTYPE svg PUBLIC "-//W3C//DTD SVG 1.1//EN" "http://www.w3.org/Graphics/SVG/1.1/DTD/svg11.dtd" >
<svg xmlns="http://www.w3.org/2000/svg" xmlns:xlink="http://www.w3.org/1999/xlink" version="1.1" viewBox="-10 0 1061 1000">
   <path fill="currentColor"
d="M884.423 282.875q28.6982 0 49.5693 -20.8711q20.8711 -19.5674 20.8711 -49.5693q0 -28.6982 -20.8711 -49.5693q-20.8711 -19.5674 -49.5693 -19.5674t-49.5693 19.5674q-19.5664 20.8711 -19.5664 49.5693q0 30.002 19.5664 49.5693q20.8711 20.8711 49.5693 20.8711z
M884.423 552.898q28.6982 0 49.5693 -20.8721q20.8711 -20.8711 20.8711 -49.5693t-20.8711 -49.5693t-49.5693 -20.8711t-49.5693 20.8711q-19.5664 20.8711 -19.5664 49.5693t19.5664 49.5693q20.8711 20.8721 49.5693 20.8721zM735.715 130.254
q0 -16.958 -11.7402 -28.6982t-28.6982 -11.7402h-517.87q-15.6533 0 -28.6982 11.7402q-11.7402 11.7402 -11.7402 28.6982v435.688q1.30469 16.958 13.0449 28.6982t27.3936 11.7402h517.87q16.958 0 28.6982 -13.0449q11.7402 -11.7402 11.7402 -27.3936v-435.688z
M966.604 -34.1084q31.3076 0 53.4834 22.1758q20.8711 22.1758 20.8711 52.1787v614.399q0 30.0029 -22.1758 52.1787q-20.8711 20.8711 -52.1787 22.1758h-875.291q-31.3076 -1.30469 -52.1787 -22.1758q-22.1758 -22.1758 -22.1758 -52.1787v-614.399
q0 -30.0029 22.1758 -52.1787q20.8711 -22.1758 52.1787 -22.1758h315.679l-112.184 -183.929q-3.91309 -9.13086 -3.91309 -15.6533q0 -15.6533 14.3486 -26.0889q9.13184 -6.52246 19.5674 -6.52246h5.21777q14.3486 1.30469 23.4795 13.0439l134.359 219.149h82.1816
l134.358 -219.149l3.91406 -6.52148q9.13086 -11.7402 22.1758 -13.0449h6.52246q10.4355 0 19.5664 6.52246q10.4355 9.13086 13.0449 22.1758v3.91309q0 11.7402 -6.52246 22.1758l-112.184 183.929h315.679z" />
</svg>
