<?xml version="1.0" standalone="no"?>
<!DOCTYPE svg PUBLIC "-//W3C//DTD SVG 1.1//EN" "http://www.w3.org/Graphics/SVG/1.1/DTD/svg11.dtd" >
<svg xmlns="http://www.w3.org/2000/svg" xmlns:xlink="http://www.w3.org/1999/xlink" version="1.1" viewBox="-10 0 1010 1000">
   <path fill="currentColor"
d="M41.25 679.18q-14.1797 0 -25.7812 -10.3125q-12.8906 -11.6016 -14.1797 -28.3594v-7.73438q0 -12.8906 7.73438 -25.7812q11.6016 -14.1797 29.6484 -16.7578q345.469 -67.0312 617.461 -290.039q67.0312 -52.8516 126.328 -112.148q2.57812 -2.57812 3.86719 -6.44531
v-3.86719q0 -2.57812 -1.28906 -3.86719l-54.1406 -39.9609q-7.73438 -2.57812 -9.02344 -11.6016q-1.28906 -3.86719 -1.28906 -6.44531q0 -11.6016 14.1797 -15.4688l210.117 -92.8125q5.15625 -2.57812 10.3125 -2.57812t10.3125 3.86719
q6.44531 3.86719 6.44531 15.4688v3.86719l-12.8906 241.055q-1.28906 14.1797 -9.02344 18.0469q-3.86719 1.28906 -6.44531 1.28906q-6.44531 0 -14.1797 -5.15625l-59.2969 -43.8281q-3.86719 -3.86719 -6.44531 -3.86719t-3.86719 1.28906
q-2.57812 1.28906 -5.15625 3.86719l-2.57812 2.57812q-69.6094 69.6094 -145.664 128.906q-281.016 229.453 -638.086 304.219q-18.0469 2.57812 -20.625 2.57812h-6.44531zM988.711 360.781h1.28906v589.102q0 18.0469 -12.8906 30.9375t-30.9375 14.1797h-903.633
q-16.7578 -1.28906 -29.6484 -12.8906q-11.6016 -12.8906 -12.8906 -30.9375v-195.938q20.625 7.73438 42.5391 7.73438l15.4688 -1.28906h2.57812l2.57812 -1.28906h2.57812q9.02344 -1.28906 16.7578 -2.57812q56.7188 -10.3125 112.148 -25.7812l70.8984 -23.2031
q99.2578 -33.5156 194.648 -81.2109l70.8984 -38.6719q100.547 -56.7188 194.648 -126.328l69.6094 -55.4297q41.25 -33.5156 74.7656 -64.4531l6.44531 5.15625q23.2031 19.3359 54.1406 23.2031q6.44531 1.28906 12.8906 1.28906q23.2031 0 43.8281 -10.3125z" />
</svg>
