<?xml version="1.0" standalone="no"?>
<!DOCTYPE svg PUBLIC "-//W3C//DTD SVG 1.1//EN" "http://www.w3.org/Graphics/SVG/1.1/DTD/svg11.dtd" >
<svg xmlns="http://www.w3.org/2000/svg" xmlns:xlink="http://www.w3.org/1999/xlink" version="1.1" viewBox="-10 0 1066 1000">
   <path fill="currentColor"
d="M64 402.333q-14.667 0 -26.667 -10.666q-13.333 -12 -14.666 -29.334v-8q0 -13.333 8 -26.666q12 -14.667 30.666 -17.334q357.334 -69.333 638.667 -300q69.333 -54.666 130.667 -116q2.66602 -2.66602 4 -6.66602v-4q0 -2.66699 -1.33398 -4l-56 -41.334
q-8 -2.66602 -9.33301 -12q-1.33301 -4 -1.33301 -6.66602q0 -12 14.666 -16l217.334 -96q5.33301 -2.66699 10.666 -2.66699q5.33398 0 10.667 4q6.66699 4 6.66699 16v4l-13.334 249.333q-1.33301 14.667 -9.33301 18.667q-4 1.33301 -6.66699 1.33301
q-6.66602 0 -14.666 -5.33301l-61.334 -45.333q-4 -4 -6.66602 -4q-2.66699 0 -4 1.33301q-2.66699 1.33301 -5.33398 4l-2.66602 2.66699q-72 72 -150.667 133.333q-290.667 237.333 -660 314.667q-18.667 2.66602 -21.333 2.66602h-6.66699zM1044 73h1.33301v609.333
q0 18.667 -13.333 32q-13.333 13.334 -32 14.667h-934.667q-17.333 -1.33301 -30.666 -13.333q-12 -13.334 -13.334 -32v-202.667q21.334 8 44 8l16 -1.33301h2.66699l2.66699 -1.33398h2.66602q9.33398 -1.33301 17.334 -2.66602q58.666 -10.667 116 -26.667l73.333 -24
q102.667 -34.667 201.333 -84l73.334 -40q104 -58.667 201.333 -130.667l72 -57.333q42.667 -34.667 77.333 -66.667l6.66699 5.33398q24 20 56 24q6.66699 1.33301 13.333 1.33301q24 0 45.334 -10.667z" />
</svg>
