<?xml version="1.0" standalone="no"?>
<!DOCTYPE svg PUBLIC "-//W3C//DTD SVG 1.1//EN" "http://www.w3.org/Graphics/SVG/1.1/DTD/svg11.dtd" >
<svg xmlns="http://www.w3.org/2000/svg" xmlns:xlink="http://www.w3.org/1999/xlink" version="1.1" viewBox="-10 0 1044 1000">
   <path fill="currentColor"
d="M295.68 511.4h-249.6q-19.2002 0 -32 -14.0801q-14.0801 -12.8008 -14.0801 -32v-294.4q0 -19.2002 14.0801 -32q12.7998 -14.0801 32 -14.0801h236.8l-1.28027 339.2q1.28027 25.5996 14.0801 47.3604zM53.7598 456.36h172.8v-42.2402h-115.199
q5.12012 -2.56055 12.7998 -10.2402q6.39941 -5.12012 17.9199 -15.3604q10.2402 -11.5195 19.2002 -21.7598l5.12012 -5.12012l5.11914 -6.39941q6.40039 -7.68066 10.2402 -12.7998q8.95996 -14.0801 16.6406 -28.1602q7.67969 -15.3604 12.7998 -30.7207
q3.83984 -16.6396 3.83984 -32q0 -14.0791 -5.12012 -26.8799q-3.83984 -12.7998 -14.0801 -23.04q-10.2402 -10.2393 -24.3203 -16.6396q-14.0791 -5.12012 -28.1592 -5.12012h-5.12012q-20.4805 0 -39.6807 7.67969q-16.6396 7.68066 -28.1592 23.04
q-11.5205 15.3604 -15.3604 34.5605l38.4004 16.6396q2.55957 -15.3594 14.0791 -26.8799q8.96094 -10.2402 23.04 -10.2402h6.40039q7.67969 0 15.3604 3.83984q7.67969 3.84082 11.5195 12.8008t3.83984 19.1992q0 14.0801 -5.12012 26.8809
q-5.11914 15.3594 -14.0791 28.1592q-10.2402 15.3604 -20.4805 28.1602q-12.7998 15.3604 -24.3203 26.8799q-11.5195 11.5205 -25.5996 26.8809l-24.3203 23.0391v35.8408zM910.08 458.92q12.7998 -3.83984 23.04 -12.7998q8.95996 -8.95996 15.3604 -20.4805
q5.11914 -12.7998 5.11914 -26.8799q0 -11.5195 -5.11914 -23.04q-3.84082 -10.2393 -12.8008 -17.9199q-10.2393 -7.67969 -23.04 -10.2402q15.3604 -6.39941 24.3203 -20.4795t8.95996 -30.7197q0 -15.3604 -7.67969 -29.4404q-8.95996 -12.7998 -21.7598 -17.9199
q-15.3604 -7.67969 -32 -7.67969q-20.4805 0 -38.4004 8.95996q-16.6396 8.95996 -25.5996 24.3193l19.1992 25.6006q7.68066 -11.5205 17.9199 -17.9199q11.5205 -5.12012 23.04 -5.12012q7.68066 0 15.3604 2.55957q6.40039 3.83984 8.95996 10.2402
q3.83984 6.40039 3.83984 12.7998q0 8.95996 -5.12012 16.6406q-5.12012 6.39941 -12.7998 10.2393q-7.67969 2.56055 -16.6396 2.56055h-12.7998v35.8398h15.3594q10.2402 0 20.4805 3.83984q8.95996 2.56055 14.0801 8.95996q5.12012 7.67969 5.12012 17.9199
q0 7.68066 -3.84082 14.0801q-3.83984 7.67969 -11.5195 10.2402q-8.95996 5.12012 -19.2002 5.12012t-17.9199 -3.83984q-8.95996 -2.56055 -15.3604 -8.95996q-7.67969 -6.40039 -12.7998 -14.0801l-20.4795 25.5996q6.39941 11.5205 15.3594 19.2002
q10.2402 8.95996 23.04 12.7998q14.0801 3.83984 29.4404 3.83984q14.0801 0 26.8799 -3.83984zM413.44 113.32l37.1191 56.3193l49.9209 -38.3994v317.439h69.1191v-414.72h-49.9199zM655.36 -36.4404q19.1992 0 33.2793 14.0801q12.8008 12.8008 14.0801 32l1.28027 454.4
q-1.28027 19.2002 -14.0801 33.2803q-14.0801 12.7998 -33.2803 14.0801h-289.279q-19.2002 -1.28027 -33.2803 -14.0801q-12.7998 -14.0801 -12.7998 -33.2803l1.2793 -454.4q0 -19.1992 12.8008 -32q14.0801 -14.0801 33.2793 -14.0801h286.721zM977.92 193.96
q19.2002 0 32 14.0801q14.0801 12.7998 14.0801 32v224q0 19.2002 -14.0801 33.2803q-12.7998 12.7998 -32 14.0801h-249.6q14.0801 -21.7607 14.0801 -47.3604l-1.28027 -270.08h236.8z" />
</svg>
