<?xml version="1.0" standalone="no"?>
<!DOCTYPE svg PUBLIC "-//W3C//DTD SVG 1.1//EN" "http://www.w3.org/Graphics/SVG/1.1/DTD/svg11.dtd" >
<svg xmlns="http://www.w3.org/2000/svg" xmlns:xlink="http://www.w3.org/1999/xlink" version="1.1" viewBox="-10 0 1010 1000">
   <path fill="currentColor"
d="M285.862 764.825h-241.312q-18.5625 0 -30.9375 -13.6123q-13.6123 -12.375 -13.6123 -30.9375v-284.625q0 -18.5625 13.6123 -30.9375q12.375 -13.6123 30.9375 -13.6123h228.938l-1.2373 327.938q1.2373 24.75 13.6123 45.7871zM51.9746 711.612h167.062v-40.8369
h-111.375q4.9502 -2.47559 12.375 -9.90039q6.1875 -4.9502 17.3252 -14.8496q9.90039 -11.1377 18.5625 -21.0381q3.71289 -3.71191 4.9502 -4.94922l4.9502 -6.1875q6.1875 -7.42578 9.89941 -12.375q8.66309 -13.6133 16.0879 -27.2256q7.4248 -14.8496 12.375 -29.7002
q3.71289 -16.0869 3.71289 -30.9375q0 -13.6123 -4.9502 -25.9873q-3.71289 -12.375 -13.6123 -22.2744q-9.90039 -9.90039 -23.5127 -16.0879q-13.6123 -4.9502 -27.2256 -4.9502h-4.94922q-19.8008 0 -38.3633 7.4248q-16.0869 7.42578 -27.2246 22.2754t-14.8496 33.4121
l37.125 16.0879q2.47461 -14.8496 13.6123 -25.9873q8.66211 -9.90039 22.2744 -9.90039h6.1875q7.42578 0 14.8506 3.71289q7.4248 3.71191 11.1377 12.375q3.71191 8.66211 3.71191 18.5625q0 13.6123 -4.9502 25.9873q-4.94922 14.8496 -13.6123 27.2246
q-9.89941 14.8506 -19.7998 27.2256q-12.375 14.8496 -23.5127 25.9873t-24.75 25.9873l-23.5127 22.2754v34.6494zM879.862 714.088q12.375 -3.71289 22.2754 -12.375q8.66211 -8.66309 14.8496 -19.7998q4.9502 -12.375 4.9502 -25.9883q0 -11.1367 -4.9502 -22.2744
q-3.71191 -9.90039 -12.375 -17.3252q-9.89941 -7.4248 -22.2744 -9.90039q14.8496 -6.1875 23.5117 -19.7998q8.66309 -13.6123 8.66309 -29.7002q0 -14.8496 -7.4248 -28.4619q-8.66309 -12.375 -21.0381 -17.3252q-14.8496 -7.4248 -30.9375 -7.4248
q-19.7998 0 -37.125 8.66211q-16.0869 8.66309 -24.75 23.5127l18.5625 24.75q7.4248 -11.1377 17.3252 -17.3252q11.1377 -4.9502 22.2754 -4.9502q7.4248 0 14.8496 2.47559q6.1875 3.71191 8.66211 9.89941q3.71289 6.1875 3.71289 12.375q0 8.66309 -4.9502 16.0879
q-4.9502 6.1875 -12.375 9.90039q-7.4248 2.47461 -16.0869 2.47461h-12.375v34.6504h14.8496q9.90039 0 19.7998 3.71191q8.66309 2.47559 13.6123 8.66309q4.9502 7.4248 4.9502 17.3242q0 7.42578 -3.71191 13.6133q-3.71289 7.4248 -11.1377 9.89941
q-8.66309 4.9502 -18.5625 4.9502q-9.90039 0 -17.3252 -3.71289q-8.66211 -2.47461 -14.8496 -8.66211q-7.42578 -6.1875 -12.375 -13.6123l-19.8008 24.75q6.1875 11.1377 14.8506 18.5625q9.89941 8.66211 22.2744 12.375q13.6133 3.71191 28.4629 3.71191
q13.6123 0 25.9873 -3.71191zM399.713 379.963l35.8867 54.4502l48.2627 -37.125v306.899h66.8252v-400.95h-48.2627zM633.6 235.175q18.5625 0 32.1758 13.6133q12.375 12.375 13.6123 30.9375l1.2373 439.312q-1.2373 18.5625 -13.6123 32.1748
q-13.6123 12.375 -32.1748 13.6123h-279.676q-18.5625 -1.2373 -32.1748 -13.6123q-12.375 -13.6123 -12.375 -32.1748l1.2373 -439.312q0 -18.5625 12.375 -30.9375q13.6133 -13.6133 32.1758 -13.6133h277.199zM945.45 457.925q18.5625 0 30.9375 13.6133
q13.6123 12.375 13.6123 30.9375v216.562q0 18.5625 -13.6123 32.1748q-12.375 12.375 -30.9375 13.6123h-241.312q13.6123 -21.0371 13.6123 -45.7871l-1.2373 -261.113h228.938z" />
</svg>
