<?xml version="1.0" standalone="no"?>
<!DOCTYPE svg PUBLIC "-//W3C//DTD SVG 1.1//EN" "http://www.w3.org/Graphics/SVG/1.1/DTD/svg11.dtd" >
<svg xmlns="http://www.w3.org/2000/svg" xmlns:xlink="http://www.w3.org/1999/xlink" version="1.1" viewBox="-10 0 1065 1000">
   <path fill="currentColor"
d="M264.96 -200.28q0 2.56055 -2.55957 8.95996l-2.56055 3.83984l-1.28027 5.12012l-231.68 392.96l-1.28027 3.84082l-1.2793 5.11914l-2.56055 3.84082l-1.2793 5.11914h494.079zM776.96 -211.8h-487.68l243.2 427.52zM240.64 537q-29.4395 0 -49.9199 -20.4805
q-20.4795 -20.4795 -20.4795 -49.9199v-3.83984q0 -26.8799 17.9199 -46.0801q19.2002 -20.4795 47.3594 -21.7598h5.12012q29.4404 0 51.2002 20.4805q20.4805 21.7598 20.4805 51.1992q0 29.4404 -20.4805 49.9199q-20.4795 20.4805 -51.2002 20.4805zM20.4805 251.56
q1.2793 7.68066 6.39941 12.8008l231.68 398.08l244.48 -416h-482.56v5.11914zM1044.48 228.52q0 -3.83984 -2.56055 -8.95996l-2.55957 -5.11914v-3.84082l-232.96 -399.359q0 -10.2402 -11.5205 -11.5205l-244.479 428.8h494.08zM756.48 540.84
q-21.7607 -21.7598 -21.7607 -51.2002q0 -29.4395 21.7607 -49.9199q20.4795 -21.7598 49.9199 -21.7598q29.4395 0 51.1992 21.7598q20.4805 20.4805 20.4805 49.9199q-3.83984 28.1602 -23.04 48.6406q-20.4805 19.2002 -48.6396 23.04q-29.4404 0 -49.9199 -20.4805z
M561.92 251.56l238.08 417.28q0 -6.39941 6.40039 -6.39941l232.96 -398.08v-5.12012l2.55957 -3.83984l1.28027 -5.12012l1.28027 -3.83984h-482.561v5.11914zM655.36 629.16q-21.7607 21.7598 -51.2002 21.7598q-29.4404 0 -49.9199 -21.7598
q-21.7598 -20.4805 -21.7598 -49.9199v-3.83984q0 -25.6006 17.9199 -46.0801q20.4795 -20.4805 48.6396 -21.7607h5.12012q29.4395 0 49.9199 21.7607q21.7598 20.4795 21.7598 49.9199q0 29.4395 -20.4795 49.9199zM485.12 365.48l-11.5205 17.9199
q17.9199 -17.9199 43.5205 -17.9199h3.83984q29.4404 0 49.9199 20.4795q21.7598 20.4805 21.7598 49.9199q0 30.7197 -21.7598 51.2002q-20.4795 20.4795 -49.9199 20.4795t-51.2002 -20.4795q-20.4795 -20.4805 -20.4795 -51.2002v-2.55957q0 -8.95996 6.39941 -15.3604
l-17.9199 24.3203l-143.359 244.479h471.04l-232.96 -404.479z" />
</svg>
