<?xml version="1.0" standalone="no"?>
<!DOCTYPE svg PUBLIC "-//W3C//DTD SVG 1.1//EN" "http://www.w3.org/Graphics/SVG/1.1/DTD/svg11.dtd" >
<svg xmlns="http://www.w3.org/2000/svg" xmlns:xlink="http://www.w3.org/1999/xlink" version="1.1" viewBox="-10 0 1010 1000">
   <path fill="currentColor"
d="M236.362 76.7754q0 2.47461 -2.47461 8.66211l-2.47461 3.71289l-1.23828 4.9502l-223.987 379.912l-1.2373 3.71289l-1.2373 4.94922l-2.47559 3.71289l-1.2373 4.9502h477.675zM731.362 65.6377h-471.487l235.125 413.325zM212.851 789.575
q-28.4629 0 -48.2627 -19.7998t-19.7998 -48.2627v-3.71289q0 -25.9873 17.3242 -44.5498q18.5625 -19.7998 45.7881 -21.0371h4.9502q28.4619 0 49.5 19.7998q19.7998 21.0371 19.7998 49.5t-19.7998 48.2627q-19.8008 19.7998 -49.5 19.7998zM0 513.612
q1.2373 7.42578 6.1875 12.375l223.987 384.863l236.363 -402.188h-466.538v4.94922zM990 491.338q0 -3.71289 -2.47461 -8.66309l-2.47559 -4.94922v-3.71289l-225.225 -386.1q0 -9.90039 -11.1377 -11.1377l-236.362 414.562h477.675zM711.562 793.288
q-21.0371 -21.0381 -21.0371 -49.5q0 -28.4629 21.0371 -48.2627q19.7998 -21.0381 48.2627 -21.0381t49.5 21.0381q19.7998 19.7998 19.7998 48.2627q-3.71191 27.2246 -22.2744 47.0244q-19.8008 18.5625 -47.0254 22.2754q-28.4629 0 -48.2627 -19.7998zM523.463 513.612
l230.175 403.426q0 -6.1875 6.1875 -6.1875l225.225 -384.863v-4.94922l2.47559 -3.71289l1.2373 -4.9502l1.2373 -3.71191h-466.537v4.94922zM613.8 878.675q-21.0371 21.0381 -49.5 21.0381q-28.4619 0 -48.2617 -21.0381q-21.0381 -19.7998 -21.0381 -48.2617v-3.71289
q0 -24.75 17.3252 -44.5498q19.7998 -19.7998 47.0254 -21.0381h4.94922q28.4629 0 48.2627 21.0381q21.0381 19.7998 21.0381 48.2627q0 28.4619 -19.8008 48.2617zM449.213 623.75l-11.1377 17.3252q17.3252 -17.3252 42.0752 -17.3252h3.71191q28.4629 0 48.2627 19.7998
q21.0381 19.8008 21.0381 48.2627q0 29.7002 -21.0381 49.5q-19.7998 19.7998 -48.2627 19.7998q-28.4619 0 -49.5 -19.7998q-19.7998 -19.7998 -19.7998 -49.5v-2.47461q0 -8.66309 6.1875 -14.8506l-17.3252 23.5127l-138.6 236.362h455.4l-225.226 -391.05z" />
</svg>
