<?xml version="1.0" standalone="no"?>
<!DOCTYPE svg PUBLIC "-//W3C//DTD SVG 1.1//EN" "http://www.w3.org/Graphics/SVG/1.1/DTD/svg11.dtd" >
<svg xmlns="http://www.w3.org/2000/svg" xmlns:xlink="http://www.w3.org/1999/xlink" version="1.1" viewBox="-10 0 1010 1000">
   <path fill="currentColor"
d="M362.588 603.331h-115.088v-115.088h-58.1621v115.088h-118.8v61.875h115.087v115.088h61.875v-115.088h115.088v-61.875zM433.125 631.794q0 90.3369 -64.3496 154.688q-64.3506 64.3496 -154.688 64.3496q-89.1006 -1.2373 -152.213 -64.3496
q-61.875 -63.1133 -61.875 -150.976v-3.71191q1.2373 -89.1006 64.3506 -152.213q64.3496 -61.875 154.688 -61.875q87.8623 0 150.975 61.875t63.1123 149.737v2.47559zM441.788 232.081q77.9619 0 141.074 19.7998q60.6377 18.5625 89.1006 50.7373v65.5879
q-24.75 34.6504 -85.3877 54.4502t-141.075 19.7998h-40.8369q-79.2002 -73.0127 -185.625 -74.25v-65.5879q24.75 -30.9375 84.1494 -50.7373q61.875 -19.7998 138.601 -19.7998zM905.851 508.044q61.875 -21.0381 84.1494 -53.2129v66.8252
q-24.75 33.4121 -85.3877 53.2119q-61.875 19.8008 -141.074 19.8008h-12.375q-23.5127 0 -45.7881 -3.71289v-65.5879q22.2754 3.71289 45.7881 3.71289h12.375q77.9619 0 142.312 -21.0371zM905.851 391.719q61.875 -19.7998 84.1494 -51.9756v65.5879
q-24.75 34.6504 -85.3877 54.4502q-61.875 19.7998 -141.074 19.7998h-12.375q-23.5127 0 -45.7881 -3.71289v-65.5869q22.2754 3.71191 45.7881 3.71191h12.375q77.9619 0 142.312 -22.2744zM905.851 170.206q61.875 19.7998 80.4375 54.4502v65.5869
q-24.75 34.6504 -85.3877 54.4502q-61.875 19.7998 -142.312 19.7998h-11.1377q-23.5127 0 -45.7871 -3.71191v-66.8252l-8.66309 -7.4248q-55.6875 -65.5879 -139.837 -79.2002q82.9121 -58.1621 183.149 -58.1621q13.6123 0 27.2256 1.2373q80.4375 0 142.312 19.7998z
M466.538 727.081q70.5371 -2.47461 124.987 -23.5127q54.4502 -19.7998 73.0127 -50.7373v65.5879q-24.75 34.6494 -85.3877 54.4492q-61.875 19.8008 -142.312 19.8008h-7.4248q24.75 -29.7002 37.125 -65.5879zM482.625 607.044q143.55 -13.6133 181.913 -69.3008v65.5879
q-18.5625 27.2246 -70.5381 45.7871q-48.2627 18.5625 -115.087 24.75q3.71191 -17.3242 3.71191 -33.4121v-33.4121zM668.25 488.243q-22.2744 27.2256 -74.25 48.2627q-51.9746 19.7998 -120.037 25.9873q-9.90039 -34.6494 -28.4629 -65.5869
q77.9629 -3.71289 137.362 -23.5127q60.6377 -19.7998 85.3877 -50.7373v65.5869z" />
</svg>
