<?xml version="1.0" standalone="no"?>
<!DOCTYPE svg PUBLIC "-//W3C//DTD SVG 1.1//EN" "http://www.w3.org/Graphics/SVG/1.1/DTD/svg11.dtd" >
<svg xmlns="http://www.w3.org/2000/svg" xmlns:xlink="http://www.w3.org/1999/xlink" version="1.1" viewBox="-10 0 1065 1000">
   <path fill="currentColor"
d="M395.52 344.5h-119.039v-119.04h-60.1602v119.04h-122.88v64h119.04v119.04h64v-119.04h119.039v-64zM468.48 373.94q0 93.4395 -66.5605 160q-66.5596 66.5596 -160 66.5596q-92.1602 -1.28027 -157.439 -66.5596q-64 -65.2803 -64 -156.16v-3.83984
q1.2793 -92.1602 66.5596 -157.44q66.5596 -64 160 -64q90.8799 0 156.16 64t65.2803 154.88v2.56055zM477.44 -39.5q80.6396 0 145.92 20.4805q62.7197 19.1992 92.1592 52.4795v67.8398q-25.5996 35.8398 -88.3193 56.3203q-62.7197 20.4795 -145.92 20.4795h-42.2402
q-81.9199 -75.5195 -192 -76.7998v-67.8398q25.5996 -32 87.04 -52.4795q64 -20.4805 143.36 -20.4805zM957.44 245.94q64 -21.7607 87.04 -55.04v69.1191q-25.6006 34.5605 -88.3203 55.04q-64 20.4805 -145.92 20.4805h-12.7998q-24.3203 0 -47.3604 -3.83984v-67.8398
q23.04 3.83984 47.3604 3.83984h12.7998q80.6396 0 147.2 -21.7598zM957.44 125.62q64 -20.4805 87.04 -53.7598v67.8398q-25.6006 35.8398 -88.3203 56.3193q-64 20.4805 -145.92 20.4805h-12.7998q-24.3203 0 -47.3604 -3.83984v-67.8398q23.04 3.83984 47.3604 3.83984
h12.7998q80.6396 0 147.2 -23.04zM957.44 -103.5q64 20.4805 83.1992 56.3203v67.8398q-25.5996 35.8398 -88.3193 56.3203q-64 20.4795 -147.2 20.4795h-11.5205q-24.3193 0 -47.3594 -3.83984v-69.1201l-8.95996 -7.67969q-57.6006 -67.8398 -144.641 -81.9199
q85.7607 -60.1602 189.44 -60.1602q14.0801 0 28.1602 1.2793q83.2002 0 147.2 20.4805zM503.04 472.5q72.96 -2.55957 129.28 -24.3203q56.3193 -20.4795 75.5195 -52.4795v67.8398q-25.5996 35.8398 -88.3203 56.3203q-64 20.4795 -147.199 20.4795h-7.68066
q25.6006 -30.7197 38.4004 -67.8398zM519.68 348.34q148.48 -14.0801 188.16 -71.6797v67.8398q-19.2002 28.1602 -72.96 47.3604q-49.9199 19.1992 -119.04 25.5996q3.83984 -17.9199 3.83984 -34.5596v-34.5605zM711.68 225.46q-23.04 28.1602 -76.7998 49.9199
q-53.7598 20.4805 -124.16 26.8799q-10.2393 -35.8398 -29.4395 -67.8398q80.6396 -3.83984 142.08 -24.3203q62.7197 -20.4795 88.3193 -52.4795v67.8398z" />
</svg>
