<?xml version="1.0" standalone="no"?>
<!DOCTYPE svg PUBLIC "-//W3C//DTD SVG 1.1//EN" "http://www.w3.org/Graphics/SVG/1.1/DTD/svg11.dtd" >
<svg xmlns="http://www.w3.org/2000/svg" xmlns:xlink="http://www.w3.org/1999/xlink" version="1.1" viewBox="-10 0 1010 1000">
   <path fill="currentColor"
d="M950.039 5q16.7578 1.28906 28.3594 12.8906t11.6016 28.3594l-25.7812 721.875q-1.28906 15.4688 -12.8906 25.7812q-10.3125 10.3125 -25.7812 10.3125q-15.4688 -1.28906 -25.7812 -11.6016l-697.383 -697.383q-10.3125 -10.3125 -11.6016 -25.7812
q0 -15.4688 10.3125 -27.0703q10.3125 -10.3125 25.7812 -11.6016l721.875 -25.7812h1.28906zM38.6719 995q-16.7578 0 -27.0703 -12.8906q-11.6016 -11.6016 -11.6016 -28.3594l25.7812 -719.297q0 -15.4688 11.6016 -25.7812t25.7812 -10.3125q15.4688 0 27.0703 10.3125
l696.094 696.094q11.6016 10.3125 11.6016 25.7812v3.86719q0 12.8906 -9.02344 23.2031q-10.3125 10.3125 -25.7812 11.6016l-721.875 25.7812h-2.57812z" />
</svg>
