<?xml version="1.0" standalone="no"?>
<!DOCTYPE svg PUBLIC "-//W3C//DTD SVG 1.1//EN" "http://www.w3.org/Graphics/SVG/1.1/DTD/svg11.dtd" >
<svg xmlns="http://www.w3.org/2000/svg" xmlns:xlink="http://www.w3.org/1999/xlink" version="1.1" viewBox="-10 0 1066 1000">
   <path fill="currentColor"
d="M1004 -295q17.333 1.33301 29.333 13.333t12 29.334l-26.666 746.666q-1.33398 16 -13.334 26.667q-10.666 10.667 -26.666 10.667q-16 -1.33398 -26.667 -12l-721.333 -721.334q-10.667 -10.666 -12 -26.666q0 -16 10.666 -28q10.667 -10.667 26.667 -12
l746.667 -26.667h1.33301zM61.333 729q-17.333 0 -28 -13.333q-12 -12 -12 -29.334l26.667 -744q0 -16 12 -26.666q12 -10.667 26.667 -10.667q16 0 28 10.667l720 720q12 10.666 12 26.666v4q0 13.334 -9.33398 24q-10.666 10.667 -26.666 12l-746.667 26.667h-2.66699z
" />
</svg>
