<?xml version="1.0" standalone="no"?>
<!DOCTYPE svg PUBLIC "-//W3C//DTD SVG 1.1//EN" "http://www.w3.org/Graphics/SVG/1.1/DTD/svg11.dtd" >
<svg xmlns="http://www.w3.org/2000/svg" xmlns:xlink="http://www.w3.org/1999/xlink" version="1.1" viewBox="-10 0 1010 1000">
   <path fill="currentColor"
d="M475.199 564.35q81.6758 -75.4883 94.0508 -198h367.537l-325.463 337.838zM986.287 403.475q3.71289 6.1875 3.71289 11.1367q0 4.95117 -3.71289 8.66406v441.787q0 25.9863 -13.6123 42.0742q-14.8506 16.0879 -39.6006 16.0879h-631.125
q-22.2744 0 -38.3623 -16.0879q-16.0869 -17.3242 -16.0869 -42.0742v-214.088h12.375q91.5742 0 165.824 -49.5l155.926 164.588q12.375 12.375 28.4619 12.375q16.0879 0 25.9873 -12.375zM70.5371 329.225v9.90039q0 74.25 53.2129 128.699
q55.6875 59.4004 136.125 59.4004q77.9619 0 134.887 -54.4492q55.6875 -54.4512 59.4004 -131.176v-7.42578q0 -73.0117 -50.7373 -128.699q-54.4502 -59.4004 -134.888 -63.1133h-7.4248q-75.4873 0 -129.938 51.9766q-58.1631 53.2109 -60.6377 134.887zM519.75 329.225
v9.90039q0 102.713 -71.7754 178.199q-76.7246 80.4375 -188.1 84.1504q-105.188 0 -180.676 -73.0117q-75.4873 -74.25 -79.1992 -179.438v-7.42578q0 -102.713 69.2998 -180.676q73.0127 -80.4375 178.2 -84.1484h7.4248q103.95 0 181.912 70.5371
q80.4375 73.0117 82.9131 181.912zM379.912 279.725l-144.787 148.5l-86.625 -91.5742l33.4121 -37.125l53.2129 58.1621l111.375 -115.088z" />
</svg>
