<?xml version="1.0" standalone="no"?>
<!DOCTYPE svg PUBLIC "-//W3C//DTD SVG 1.1//EN" "http://www.w3.org/Graphics/SVG/1.1/DTD/svg11.dtd" >
<svg xmlns="http://www.w3.org/2000/svg" xmlns:xlink="http://www.w3.org/1999/xlink" version="1.1" viewBox="-10 0 1068 1000">
   <path fill="currentColor"
d="M514.56 304.04q84.4805 -78.0801 97.2803 -204.8h380.16l-336.64 349.439zM1043.2 137.64q3.83984 6.40039 3.83984 11.5205t-3.83984 8.95996v456.96q0 26.8799 -14.0801 43.5195q-15.3604 16.6406 -40.96 16.6406h-652.8q-23.04 0 -39.6807 -16.6406
q-16.6396 -17.9199 -16.6396 -43.5195v-221.44h12.7998q94.7197 0 171.521 -51.1992l161.279 170.239q12.8008 12.8008 29.4404 12.8008t26.8799 -12.8008zM96 60.8398v10.2402q0 76.7998 55.04 133.12q57.5996 61.4395 140.8 61.4395q80.6406 0 139.521 -56.3193
q57.5996 -56.3203 61.4395 -135.681v-7.67969q0 -75.5195 -52.4795 -133.12q-56.3203 -61.4395 -139.521 -65.2803h-7.67969q-78.0801 0 -134.4 53.7607q-60.1602 55.04 -62.7197 139.52zM560.64 60.8398v10.2402q0 106.24 -74.2393 184.32q-79.3604 83.1992 -194.561 87.04
q-108.8 0 -186.88 -75.5205q-78.0801 -76.7998 -81.9199 -185.6v-7.68066q0 -106.239 71.6797 -186.88q75.5205 -83.2002 184.32 -87.04h7.67969q107.521 0 188.16 72.96q83.2002 75.5205 85.7598 188.16zM416 9.63965l-149.76 153.601l-89.6006 -94.7207l34.5605 -38.3994
l55.04 60.1602l115.2 -119.04z" />
</svg>
