<?xml version="1.0" standalone="no"?>
<!DOCTYPE svg PUBLIC "-//W3C//DTD SVG 1.1//EN" "http://www.w3.org/Graphics/SVG/1.1/DTD/svg11.dtd" >
<svg xmlns="http://www.w3.org/2000/svg" xmlns:xlink="http://www.w3.org/1999/xlink" version="1.1" viewBox="-10 0 1066 1000">
   <path fill="currentColor"
d="M345.333 217q36 -68 102.667 -110.667q65.333 -41.333 144 -45.333q-58.667 -36 -69.333 -89.333q-2.66699 -13.334 -2.66699 -29.334q0 -37.333 14.667 -84q-68 37.334 -120 44q-14.667 2.66699 -29.334 2.66699q-48 0 -94.666 -24q1.33301 14.667 1.33301 28
q0 53.333 -29.333 97.333q-25.334 36 -92 85.334q60 2.66602 104 37.333q38.666 29.333 70.666 88zM533.333 -295q104 0 198.667 40q92 38.667 164 109.333q70.667 72 109.333 164q40 94.667 40 198.667t-40 198.667q-38.666 92 -109.333 164q-72 70.666 -164 109.333
q-94.667 40 -198.667 40t-198.666 -40q-92 -38.667 -164 -109.333q-70.667 -72 -109.334 -164q-40 -94.667 -40 -198.667t40 -198.667q38.667 -92 109.334 -164q72 -70.666 164 -109.333q94.666 -40 198.666 -40z" />
</svg>
