<?xml version="1.0" standalone="no"?>
<!DOCTYPE svg PUBLIC "-//W3C//DTD SVG 1.1//EN" "http://www.w3.org/Graphics/SVG/1.1/DTD/svg11.dtd" >
<svg xmlns="http://www.w3.org/2000/svg" xmlns:xlink="http://www.w3.org/1999/xlink" version="1.1" viewBox="-10 0 1010 1000">
   <path fill="currentColor"
d="M313.242 500q34.8047 -65.7422 99.2578 -106.992q63.1641 -39.9609 139.219 -43.8281q-56.7188 -34.8047 -67.0312 -86.3672q-2.57812 -12.8906 -2.57812 -28.3594q0 -36.0938 14.1797 -81.2109q-65.7422 36.0938 -116.016 42.5391q-14.1797 2.57812 -28.3594 2.57812
q-46.4062 0 -91.5234 -23.2031q1.28906 14.1797 1.28906 27.0703q0 51.5625 -28.3594 94.1016q-24.4922 34.8047 -88.9453 82.5q58.0078 2.57812 100.547 36.0938q37.3828 28.3594 68.3203 85.0781zM495 5q100.547 0 192.07 38.6719q88.9453 37.3828 158.555 105.703
q68.3203 69.6094 105.703 158.555q38.6719 91.5234 38.6719 192.07t-38.6719 192.07q-37.3828 88.9453 -105.703 158.555q-69.6094 68.3203 -158.555 105.703q-91.5234 38.6719 -192.07 38.6719t-192.07 -38.6719q-88.9453 -37.3828 -158.555 -105.703
q-68.3203 -69.6094 -105.703 -158.555q-38.6719 -91.5234 -38.6719 -192.07t38.6719 -192.07q37.3828 -88.9453 105.703 -158.555q69.6094 -68.3203 158.555 -105.703q91.5234 -38.6719 192.07 -38.6719z" />
</svg>
