<?xml version="1.0" standalone="no"?>
<!DOCTYPE svg PUBLIC "-//W3C//DTD SVG 1.1//EN" "http://www.w3.org/Graphics/SVG/1.1/DTD/svg11.dtd" >
<svg xmlns="http://www.w3.org/2000/svg" xmlns:xlink="http://www.w3.org/1999/xlink" version="1.1" viewBox="-10 0 932 1000">
   <path fill="currentColor"
d="M877.852 106.836q16.7578 27.0703 19.3359 59.2969l-2.57812 185.625l-2.57812 186.914q-2.57812 229.453 -2.57812 371.25q0 36.0938 -30.9375 54.1406q-24.4922 20.625 -55.4297 28.3594l30.9375 -956.484q25.7812 38.6719 43.8281 70.8984zM656.133 871.25
q25.7812 -58.0078 70.8984 -172.734l-14.1797 -10.3125l-15.4688 18.0469q-9.02344 10.3125 -14.1797 18.0469v2.57812q-34.8047 48.9844 -63.1641 69.6094q-34.8047 25.7812 -76.0547 25.7812h-11.6016l-38.6719 -2.57812h-14.1797q-28.3594 -2.57812 -72.1875 -7.73438
l-36.0938 -3.86719l-37.3828 -5.15625q-14.1797 -1.28906 -28.3594 -7.73438q-3.86719 -2.57812 -6.44531 -5.15625q-9.02344 -7.73438 -11.6016 -19.3359q-1.28906 -6.44531 -1.28906 -11.6016q0 -6.44531 1.28906 -11.6016q10.3125 -96.6797 24.4922 -224.297
l64.4531 -5.15625q43.8281 -5.15625 87.6562 -5.15625h41.25q39.9609 3.86719 55.4297 18.0469q20.625 19.3359 20.625 67.0312q1.28906 6.44531 5.15625 10.3125l2.57812 2.57812l2.57812 2.57812q3.86719 3.86719 3.86719 5.15625l9.02344 -3.86719l9.02344 -154.688
l1.28906 -24.4922l2.57812 -24.4922q1.28906 -29.6484 1.28906 -48.9844h-16.7578v7.73438q-3.86719 9.02344 -6.44531 19.3359q-3.86719 28.3594 -20.625 50.2734q-28.3594 33.5156 -72.1875 33.5156h-18.0469l-67.0312 3.86719l-100.547 7.73438v-20.625
q9.02344 -106.992 16.7578 -176.602q1.28906 -7.73438 2.57812 -20.625v-7.73438q0 -5.15625 1.28906 -6.44531q0 -5.15625 10.3125 -12.8906q6.44531 -3.86719 14.1797 -6.44531l81.2109 -18.0469l82.5 -15.4688q37.3828 -11.6016 76.0547 -14.1797
q23.2031 1.28906 34.8047 19.3359q9.02344 12.8906 29.6484 67.0312q1.28906 3.86719 3.86719 6.44531l11.6016 9.02344l9.02344 -9.02344l2.57812 -5.15625v-152.109l-351.914 81.2109l-204.961 46.4062v7.73438h47.6953q30.9375 0 37.3828 23.2031
q1.28906 10.3125 1.28906 20.625t-1.28906 20.625v23.2031l-5.15625 46.4062l-5.15625 47.6953l-6.44531 64.4531l-7.73438 65.7422l-23.2031 168.867q0 20.625 -14.1797 34.8047q-14.1797 15.4688 -36.0938 15.4688l-60.5859 2.57812q11.6016 7.73438 25.7812 12.8906
q15.4688 3.86719 29.6484 5.15625q253.945 36.0938 514.336 72.1875h6.44531q6.44531 -1.28906 11.6016 -3.86719t5.15625 -5.15625zM538.828 81.0547q54.1406 -15.4688 128.906 -37.3828l64.4531 -19.3359l64.4531 -19.3359h3.86719l-30.9375 990
q-43.8281 0 -87.6562 -9.02344q-137.93 -25.7812 -332.578 -60.5859l-166.289 -29.6484l-167.578 -28.3594q-3.86719 -1.28906 -7.73438 -1.28906t-7.73438 1.28906v-16.7578l1.28906 -2.57812l2.57812 -2.57812q2.57812 -2.57812 2.57812 -5.15625l28.3594 -152.109
l29.6484 -152.109q32.2266 -171.445 56.7188 -304.219q1.28906 -19.3359 15.4688 -33.5156q12.8906 -14.1797 32.2266 -16.7578q79.9219 -20.625 185.625 -48.9844l91.5234 -25.7812z" />
</svg>
