<?xml version="1.0" standalone="no"?>
<!DOCTYPE svg PUBLIC "-//W3C//DTD SVG 1.1//EN" "http://www.w3.org/Graphics/SVG/1.1/DTD/svg11.dtd" >
<svg xmlns="http://www.w3.org/2000/svg" xmlns:xlink="http://www.w3.org/1999/xlink" version="1.1" viewBox="-10 0 1034 1000">
   <path fill="currentColor"
d="M977.333 -189.667q17.334 28 20 61.334l-2.66602 192l-2.66699 193.333q-2.66699 237.333 -2.66699 384q0 37.333 -32 56q-25.333 21.333 -57.333 29.333l32 -989.333q26.667 40 45.333 73.333zM748 601q26.667 -60 73.333 -178.667l-14.666 -10.666l-16 18.666
q-9.33398 10.667 -14.667 18.667v2.66699q-36 50.666 -65.333 72q-36 26.666 -78.667 26.666h-12l-40 -2.66602h-14.667q-29.333 -2.66699 -74.666 -8l-37.334 -4l-38.666 -5.33398q-14.667 -1.33301 -29.334 -8q-4 -2.66602 -6.66602 -5.33301q-9.33398 -8 -12 -20
q-1.33398 -6.66699 -1.33398 -12q0 -6.66699 1.33398 -12q10.666 -100 25.333 -232l66.667 -5.33301q45.333 -5.33398 90.666 -5.33398h42.667q41.333 4 57.333 18.667q21.334 20 21.334 69.333q1.33301 6.66699 5.33301 10.667l2.66699 2.66699l2.66602 2.66602
q4 4 4 5.33398l9.33398 -4l9.33301 -160l1.33301 -25.334l2.66699 -25.333q1.33301 -30.667 1.33301 -50.667h-17.333v8q-4 9.33398 -6.66699 20q-4 29.334 -21.333 52q-29.333 34.667 -74.667 34.667h-18.666l-69.334 4l-104 8v-21.333q9.33398 -110.667 17.334 -182.667
q1.33301 -8 2.66602 -21.333v-8q0 -5.33398 1.33398 -6.66699q0 -5.33301 10.666 -13.333q6.66699 -4 14.667 -6.66699q36 -8 84 -18.667l85.333 -16q38.667 -12 78.667 -14.666q24 1.33301 36 20q9.33301 13.333 30.667 69.333q1.33301 4 4 6.66699l12 9.33301
l9.33301 -9.33301q1.33301 -2.66699 2.66699 -5.33398v-157.333l-364 84l-212 48v8h49.333q32 0 38.667 24q1.33301 10.667 1.33301 21.333q0 10.667 -1.33301 21.334v24l-5.33398 48l-5.33301 49.333l-6.66699 66.667l-8 68l-24 174.666q0 21.334 -14.666 36
q-14.667 16 -37.334 16l-62.666 2.66699q12 8 26.666 13.333q16 4 30.667 5.33398q262.667 37.333 532 74.666h6.66699q6.66602 -1.33301 12 -4q5.33301 -2.66602 5.33301 -5.33301zM626.667 -216.333q56 -16 133.333 -38.667l66.667 -20l66.666 -20h4l-32 1024
q-45.333 0 -90.666 -9.33301q-142.667 -26.667 -344 -62.667l-172 -30.667l-173.334 -29.333q-4 -1.33301 -8 -1.33301t-8 1.33301v-17.333l1.33398 -2.66699l2.66602 -2.66699q2.66699 -2.66602 2.66699 -5.33301l29.333 -157.333l30.667 -157.334
q33.333 -177.333 58.667 -314.666q1.33301 -20 16 -34.667q13.333 -14.667 33.333 -17.333q82.667 -21.334 192 -50.667l94.667 -26.667z" />
</svg>
