<?xml version="1.0" standalone="no"?>
<!DOCTYPE svg PUBLIC "-//W3C//DTD SVG 1.1//EN" "http://www.w3.org/Graphics/SVG/1.1/DTD/svg11.dtd" >
<svg xmlns="http://www.w3.org/2000/svg" xmlns:xlink="http://www.w3.org/1999/xlink" version="1.1" viewBox="-10 0 1044 1000">
   <path fill="currentColor"
d="M506.88 489.64q46.0801 0 78.0801 -32q33.2803 -32 33.2803 -78.0801v-3.83984q0 -43.5195 -30.7207 -74.2393q-32 -33.2803 -78.0791 -33.2803h-3.84082q-43.5195 0 -74.2393 30.7197q-33.2803 30.7197 -34.5605 76.7998v3.83984q0 42.2402 28.1602 74.2402
q30.7197 33.2803 75.5205 35.8398h6.39941zM675.84 549.8q-69.1201 69.1201 -166.399 69.1201h-3.84082q-99.8398 0 -168.96 -70.4004q-69.1201 -70.3994 -69.1201 -166.399v-3.83984q0 -99.8398 70.4004 -168.96q71.6797 -70.4004 170.24 -70.4004h3.83984
q97.2803 0 166.4 69.1201q67.8398 67.8398 67.8398 165.12v7.67969q0 99.8398 -70.4004 168.96zM126.72 97.96q2.56055 46.0801 34.5605 78.0801q30.7197 32 76.7998 33.2803q46.0801 0 79.3604 -33.2803q32 -33.2803 33.2793 -79.3604q0 -46.0801 -33.2793 -79.3594
q-32 -32 -78.0801 -32q-47.3604 0 -79.3604 32q-33.2803 33.2793 -33.2803 79.3594v1.28027zM325.12 185q-64 60.1602 -81.9199 145.92h-14.0801q-85.7598 0 -152.32 -57.5996q-71.6797 -64 -76.7998 -158.721v-19.1992q0 -87.04 57.5996 -156.16
q65.2803 -75.5205 163.841 -81.9199q8.95996 -1.28027 16.6396 -1.28027q8.95996 0 17.9199 1.28027q97.2803 5.12012 161.28 78.0801q58.8799 66.5596 58.8799 153.6v24.3203q-87.04 11.5195 -151.04 71.6797zM764.16 292.52q57.5996 -2.55957 90.8799 -28.1592
q33.2803 -25.6006 37.1201 -71.6807q1.28027 -8.95996 1.28027 -16.6396q0 -34.5596 -20.4805 -62.7197q-25.5996 -34.5605 -67.8398 -43.5205q-12.7998 -2.55957 -25.6006 -2.55957q-29.4395 0 -55.0391 16.6396q-35.8408 24.3203 -55.04 79.3604l-14.0801 -7.68066
l-14.0801 -7.67969q-15.3604 -8.95996 -28.1602 -14.0801q-10.2402 -3.83984 -28.1602 -10.2402l-15.3604 -5.11914l-14.0801 -5.12012q23.04 -90.8799 103.681 -139.521q57.5996 -35.8398 120.319 -35.8398q24.3203 0 49.9209 5.12012q96 19.2002 152.319 99.8398
q42.2402 61.4404 42.2402 133.12q0 21.7598 -3.83984 44.7998q-14.0801 88.3203 -84.4805 143.36q-61.4395 51.2002 -140.8 51.2002q-8.95996 0 -17.9199 -1.28027zM241.92 53.1602l-10.2402 5.12012l-8.95996 5.12012h-5.12012q-3.83984 0 -5.11914 -2.56055v-6.39941
q0 -2.56055 2.55957 -5.12012q2.55957 -2.56055 5.12012 -3.83984l8.95996 -6.40039l8.95996 -5.12012l7.67969 -2.55957h11.5205q1.2793 0 1.2793 1.2793l-1.2793 1.28027v120.32h-7.68066q-2.55957 0 -5.11914 -2.56055l-2.56055 -7.67969v-90.8799zM800 122.28
q2.55957 -1.28027 3.83984 -1.28027q2.56055 0 5.12012 1.28027q3.83984 0 7.67969 2.55957q2.56055 1.28027 2.56055 3.83984q0 3.83984 -2.56055 5.12012q-3.83984 2.56055 -7.67969 2.56055h-39.6797v17.9199q6.39941 -1.28027 11.5195 -1.28027
q6.40039 0 11.5205 1.28027q8.95996 1.2793 17.9199 6.39941q6.39941 2.56055 11.5195 10.2402q3.83984 7.67969 3.83984 17.9199t-2.55957 19.2002q-3.83984 6.40039 -7.67969 11.5195q-6.40039 5.12012 -12.8008 6.40039h-25.5996q-7.67969 -1.28027 -12.7998 -3.83984
q-6.40039 -3.83984 -10.2402 -8.95996q-3.83984 -6.40039 -3.83984 -14.0801q0 -3.83984 2.55957 -7.67969q2.56055 -2.56055 6.40039 -2.56055q1.28027 -1.28027 2.55957 -1.28027q1.28027 0 2.56055 1.28027q2.55957 2.56055 2.55957 6.40039v7.67969
q1.28027 3.83984 5.12012 5.12012q3.83984 2.55957 7.67969 2.55957h10.2402q7.68066 0 12.7998 -5.11914q5.12012 -8.96094 5.12012 -17.9209q0 -7.67969 -3.83984 -12.7998t-8.95996 -7.67969q-6.39941 -2.56055 -12.7998 -2.56055h-26.8799v-34.5596
q1.28027 -6.40039 5.12012 -10.2402q5.12012 -2.55957 11.5195 -3.83984q8.95996 2.56055 16.6406 6.40039h11.5195zM514.56 359.08q3.84082 -1.28027 5.12012 -5.12012q2.56055 -1.28027 3.83984 -5.12012v-5.12012q-1.2793 -6.39941 -5.11914 -10.2393
q-5.12012 -3.84082 -12.8008 -3.84082q-6.39941 0 -12.7998 3.84082q-3.83984 3.83984 -3.83984 10.2393v5.12012q1.28027 3.83984 3.83984 5.12012q2.56055 3.83984 5.12012 5.12012h16.6396zM517.12 414.12q5.12012 -1.28027 7.67969 -5.12012
q2.56055 -2.55957 3.83984 -6.40039q1.28027 -2.55957 1.28027 -3.83984q0 -2.55957 -1.28027 -3.83984q1.28027 -2.55957 1.28027 -3.83984q0 -2.56055 -1.28027 -3.83984q-1.2793 -3.83984 -3.83984 -6.40039q-2.55957 -3.83984 -7.67969 -5.12012
q-5.12012 -2.55957 -10.2402 -2.55957q-10.2402 0 -17.9199 6.39941q-5.12012 5.12012 -5.12012 14.0801v2.56055q0 8.95996 6.40039 14.0801q6.39941 3.83984 12.7998 3.83984h14.0801zM520.96 314.28q6.40039 2.55957 10.2402 7.67969q5.12012 3.83984 6.39941 8.95996
q2.56055 5.12012 2.56055 11.5205q0 6.39941 -2.56055 11.5195q-2.55957 6.40039 -7.67969 10.2402q7.67969 3.83984 12.7998 10.2402q3.83984 8.95996 3.83984 17.9199q0 7.67969 -2.55957 15.3594q-2.55957 6.40039 -7.67969 11.5205t-11.5205 7.67969
q-8.95996 2.56055 -17.9199 2.56055t-16.6396 -2.56055q-7.68066 -2.55957 -12.7998 -7.67969q-5.12012 -5.12012 -7.68066 -11.5205q-1.2793 -6.39941 -1.2793 -14.0801q0 -10.2393 3.83984 -17.9199q3.83984 -7.67969 11.5195 -11.5195
q-3.83984 -3.83984 -6.39941 -10.2402q-1.28027 -3.83984 -1.28027 -6.40039q0 -2.55957 1.28027 -5.11914v-11.5205q1.2793 -5.12012 6.39941 -8.95996q3.83984 -5.12012 8.95996 -7.67969q7.68066 -2.56055 14.0801 -2.56055q7.67969 0 14.0801 2.56055z" />
</svg>
