<?xml version="1.0" standalone="no"?>
<!DOCTYPE svg PUBLIC "-//W3C//DTD SVG 1.1//EN" "http://www.w3.org/Graphics/SVG/1.1/DTD/svg11.dtd" >
<svg xmlns="http://www.w3.org/2000/svg" xmlns:xlink="http://www.w3.org/1999/xlink" version="1.1" viewBox="-10 0 1010 1000">
   <path fill="currentColor"
d="M490.05 743.787q44.5498 0 75.4873 -30.9375q32.1758 -30.9375 32.1758 -75.4883v-3.71094q0 -42.0762 -29.7002 -71.7754q-30.9375 -32.1758 -75.4873 -32.1758h-3.71289q-42.0752 0 -71.7754 29.7012q-32.1748 29.6992 -33.4121 74.25v3.71094
q0 40.8379 27.2246 71.7754q29.7002 32.1758 73.0127 34.6504h6.1875zM653.4 801.949q-66.8252 66.8262 -160.875 66.8262h-3.71289q-96.5254 0 -163.35 -68.0625q-66.8252 -68.0625 -66.8252 -160.875v-3.71289q0 -96.5254 68.0625 -163.35
q69.2998 -68.0625 164.587 -68.0625h3.71289q94.0498 0 160.875 66.8242q65.5879 65.5879 65.5879 159.637v7.42578q0 96.5254 -68.0625 163.35zM122.513 365.111q2.47461 44.5508 33.4121 75.4883q29.7002 30.9375 74.25 32.1758q44.5498 0 76.7256 -32.1758
q30.9375 -32.1758 32.1748 -76.7246q0 -44.5508 -32.1748 -76.7246q-30.9375 -30.9375 -75.4883 -30.9375q-45.7871 0 -76.7246 30.9375q-32.1748 32.1738 -32.1748 76.7246v1.23633zM314.325 449.262q-61.875 58.1621 -79.2002 141.076h-13.6123
q-82.9131 0 -147.263 -55.6875q-69.2998 -61.875 -74.25 -153.451v-18.5625q0 -84.1504 55.6875 -150.975q63.1123 -73.0117 158.4 -79.1992q8.66211 -1.23828 16.0869 -1.23828q8.66309 0 17.3252 1.23828q94.0498 4.94922 155.925 75.4863q56.9248 64.3496 56.9248 148.5
v23.5137q-84.1494 11.1367 -146.024 69.2988zM738.787 553.213q55.6875 -2.47656 87.8633 -27.2266q32.1748 -24.75 35.8867 -69.2988q1.23828 -8.66211 1.23828 -16.0879q0 -33.4121 -19.8008 -60.6367q-24.75 -33.4141 -65.5869 -42.0762
q-12.375 -2.47461 -24.75 -2.47461q-28.4629 0 -53.2129 16.0879q-34.6494 23.5117 -53.2119 76.7246l-13.6133 -7.42578l-13.6123 -7.42383q-14.8496 -8.66211 -27.2246 -13.6133q-9.90039 -3.71289 -27.2256 -9.90039l-14.8496 -4.94922l-13.6123 -4.94922
q22.2744 -87.8633 100.237 -134.889q55.6875 -34.6504 116.325 -34.6504q23.5127 0 48.2627 4.95117q92.8125 18.5625 147.262 96.5254q40.8379 59.3984 40.8379 128.699q0 21.0371 -3.71289 43.3125q-13.6123 85.3867 -81.6748 138.6q-59.3994 49.5 -136.125 49.5
q-8.66211 0 -17.3252 -1.23633zM233.888 321.799l-9.90039 4.95117l-8.66211 4.94922h-4.9502q-3.71289 0 -4.9502 -2.47461v-6.1875q0 -2.47461 2.47559 -4.94922q2.47461 -2.47656 4.94922 -3.71289l8.66309 -6.1875l8.66211 -4.95117l7.4248 -2.47461h11.1377
q1.2373 0 1.2373 1.23828l-1.2373 1.23633v116.326h-7.4248q-2.47461 0 -4.9502 -2.47461l-2.47461 -7.42578v-87.8633zM773.438 388.625q2.47461 -1.23828 3.71289 -1.23828q2.47461 0 4.94922 1.23828q3.71289 0 7.42578 2.47461q2.47461 1.23828 2.47461 3.71289
q0 3.71289 -2.47461 4.94922q-3.71289 2.47461 -7.42578 2.47461h-38.3623v17.3262q6.1875 -1.23828 11.1377 -1.23828q6.1875 0 11.1377 1.23828q8.66211 1.23633 17.3252 6.1875q6.1875 2.47461 11.1367 9.90039q3.71289 7.42383 3.71289 17.3242t-2.47461 18.5625
q-3.71289 6.1875 -7.42578 11.1367q-6.1875 4.95117 -12.375 6.1875h-24.75q-7.4248 -1.23633 -12.375 -3.71094q-6.1875 -3.71289 -9.89941 -8.66406q-3.71289 -6.1875 -3.71289 -13.6113q0 -3.71289 2.47559 -7.42578q2.47461 -2.47461 6.1875 -2.47461
q1.2373 -1.23828 2.47461 -1.23828t2.47461 1.23828q2.47559 2.47461 2.47559 6.1875v7.42578q1.2373 3.71094 4.9502 4.94922q3.71191 2.47461 7.4248 2.47461h9.89941q7.42578 0 12.375 -4.94922q4.9502 -8.66211 4.9502 -17.3262q0 -7.42383 -3.71191 -12.375
q-3.71289 -4.94922 -8.66309 -7.42383q-6.1875 -2.47461 -12.375 -2.47461h-25.9873v-33.4141q1.2373 -6.1875 4.9502 -9.89844q4.9502 -2.47656 11.1377 -3.71289q8.66211 2.47461 16.0869 6.1875h11.1377zM497.475 617.562q3.71289 -1.23828 4.9502 -4.95117
q2.47559 -1.23633 3.71289 -4.94922v-4.94922q-1.2373 -6.1875 -4.9502 -9.90039q-4.9502 -3.71289 -12.375 -3.71289q-6.1875 0 -12.375 3.71289q-3.71289 3.71289 -3.71289 9.90039v4.94922q1.23828 3.71289 3.71289 4.94922q2.47461 3.71289 4.9502 4.95117h16.0869z
M499.95 670.775q4.9502 -1.23828 7.4248 -4.95117q2.47461 -2.47461 3.71289 -6.1875q1.2373 -2.47461 1.2373 -3.71289q0 -2.47461 -1.2373 -3.71094q1.2373 -2.47656 1.2373 -3.71289q0 -2.47461 -1.2373 -3.71289q-1.23828 -3.71289 -3.71289 -6.1875
q-2.47461 -3.71289 -7.4248 -4.94922q-4.9502 -2.47656 -9.90039 -2.47656q-9.89941 0 -17.3252 6.1875q-4.94922 4.95117 -4.94922 13.6133v2.47461q0 8.66211 6.1875 13.6133q6.1875 3.71289 12.375 3.71289h13.6123zM503.662 574.25q6.1875 2.47461 9.90039 7.42383
q4.9502 3.71289 6.1875 8.66406q2.47461 4.94922 2.47461 11.1367t-2.47461 11.1367q-2.47461 6.1875 -7.4248 9.90039q7.4248 3.71289 12.375 9.90039q3.71191 8.66211 3.71191 17.3242q0 7.42578 -2.47461 14.8516q-2.47461 6.1875 -7.4248 11.1367t-11.1377 7.42578
q-8.66211 2.47461 -17.3252 2.47461q-8.66211 0 -16.0869 -2.47461q-7.42578 -2.47656 -12.375 -7.42578q-4.9502 -4.94922 -7.42578 -11.1367q-1.2373 -6.1875 -1.2373 -13.6133q0 -9.90039 3.71289 -17.3242q3.71191 -7.42578 11.1377 -11.1387
q-3.71289 -3.71289 -6.1875 -9.90039q-1.23828 -3.71094 -1.23828 -6.1875q0 -2.47461 1.23828 -4.94922v-11.1367q1.2373 -4.95117 6.1875 -8.66406q3.71191 -4.94922 8.66211 -7.42383q7.4248 -2.47461 13.6123 -2.47461q7.4248 0 13.6123 2.47461z" />
</svg>
