<?xml version="1.0" standalone="no"?>
<!DOCTYPE svg PUBLIC "-//W3C//DTD SVG 1.1//EN" "http://www.w3.org/Graphics/SVG/1.1/DTD/svg11.dtd" >
<svg xmlns="http://www.w3.org/2000/svg" xmlns:xlink="http://www.w3.org/1999/xlink" version="1.1" viewBox="-10 0 1066 1000">
   <path fill="currentColor"
d="M772 89q-1.33301 -6.66699 -4 -13.333q1.33301 -4 1.33301 -6.66699q0 -4 -1.33301 -6.66699q0 -5.33301 -2.66699 -9.33301q-1.33301 -2.66699 -4 -4h-204q-2.66602 2.66699 -4 5.33301v21.334q0 12 2.66699 22.666q2.66699 6.66699 8 6.66699h133.333l-114.666 252v8
q1.33301 2.66699 4 4q5.33301 2.66699 10.666 2.66699h50.667q4 -1.33398 8 -2.66699q1.33301 -2.66699 2.66699 -5.33301l106.666 -246.667l4 -9.33301q1.33398 -4 2.66699 -8v-10.667zM502.667 322.333q9.33301 -20 9.33301 -42.666v-5.33398q0 -10.666 -4 -21.333
q-5.33301 -13.333 -14.667 -22.667q-10.666 -10.666 -22.666 -17.333q-14.667 -6.66699 -30.667 -8q13.333 -2.66699 25.333 -10.667q10.667 -6.66602 17.334 -16q8 -10.666 12 -22.666q2.66602 -10.667 2.66602 -21.334v-12q0 -14.666 -5.33301 -29.333
q-6.66699 -14.667 -18.667 -25.333q-14.666 -10.667 -30.666 -16q-21.334 -5.33398 -42.667 -5.33398q-8 -1.33301 -17.333 -1.33301q-8 0 -16 1.33301q-13.334 2.66699 -26.667 9.33398l-20 9.33301q-6.66699 2.66699 -12 8l-4 4v45.333q1.33301 1.33398 2.66699 4h4
q5.33301 -1.33301 9.33301 -4q8 -5.33301 16 -9.33301q9.33301 -5.33301 20 -8q12 -4 24 -4q10.667 0 20 2.66699q8 2.66602 14.667 9.33301q5.33301 5.33301 8 12q2.66602 8 2.66602 16q0 9.33301 -4 18.667q-4 9.33301 -12 16q-8 6.66602 -18.666 9.33301
q-13.334 4 -25.334 4h-29.333q0 -1.33301 -1.33301 -1.33301q-1.33398 0 -2.66699 1.33301q-2.66699 0 -4 2.66699q-1.33301 4 -2.66699 8v24q1.33398 4 2.66699 8q1.33301 2.66602 4 2.66602h33.333q16 0 30.667 4q12 2.66699 22.667 9.33398q16 12 16 33.333v2.66699
q0 9.33301 -2.66699 18.666q-4 6.66699 -9.33301 12q-8 6.66699 -18.667 9.33398q-12 4 -24 4q-14.667 0 -29.333 -4q-10.667 -2.66699 -21.334 -6.66699l-16 -8q-4 -2.66699 -9.33301 -2.66699q-4 0 -5.33301 4v44q1.33301 2.66699 4 4l9.33301 5.33398q8 5.33301 17.333 8
q13.334 4 26.667 5.33301q14.667 2.66699 30.667 2.66699q25.333 0 50.666 -6.66699q21.334 -5.33301 38.667 -18.667q17.333 -13.333 26.667 -32zM533.333 -295q104 0 198.667 40q92 38.667 164 109.333q70.667 72 109.333 164q40 94.667 40 198.667t-40 198.667
q-38.666 92 -109.333 164q-72 70.666 -164 109.333q-94.667 40 -198.667 40t-198.666 -40q-92 -38.667 -164 -109.333q-70.667 -72 -109.334 -164q-40 -94.667 -40 -198.667t40 -198.667q38.667 -92 109.334 -164q72 -70.666 164 -109.333q94.666 -40 198.666 -40z" />
</svg>
