<?xml version="1.0" standalone="no"?>
<!DOCTYPE svg PUBLIC "-//W3C//DTD SVG 1.1//EN" "http://www.w3.org/Graphics/SVG/1.1/DTD/svg11.dtd" >
<svg xmlns="http://www.w3.org/2000/svg" xmlns:xlink="http://www.w3.org/1999/xlink" version="1.1" viewBox="-10 0 1010 1000">
   <path fill="currentColor"
d="M725.742 376.25q-1.28906 -6.44531 -3.86719 -12.8906q1.28906 -3.86719 1.28906 -6.44531q0 -3.86719 -1.28906 -6.44531q0 -5.15625 -2.57812 -9.02344q-1.28906 -2.57812 -3.86719 -3.86719h-197.227q-2.57812 2.57812 -3.86719 5.15625v20.625
q0 11.6016 2.57812 21.9141q2.57812 6.44531 7.73438 6.44531h128.906l-110.859 243.633v7.73438q1.28906 2.57812 3.86719 3.86719q5.15625 2.57812 10.3125 2.57812h48.9844l7.73438 -2.57812l2.57812 -5.15625l103.125 -238.477l3.86719 -9.02344l2.57812 -7.73438
v-10.3125zM465.352 601.836q9.02344 -19.3359 9.02344 -41.25v-5.15625q0 -10.3125 -3.86719 -20.625q-5.15625 -12.8906 -14.1797 -21.9141q-10.3125 -10.3125 -21.9141 -16.7578q-14.1797 -6.44531 -29.6484 -7.73438q12.8906 -2.57812 24.4922 -10.3125
q10.3125 -6.44531 16.7578 -15.4688q7.73438 -10.3125 11.6016 -21.9141q2.57812 -10.3125 2.57812 -20.625v-11.6016q0 -14.1797 -5.15625 -28.3594q-6.44531 -14.1797 -18.0469 -24.4922q-14.1797 -10.3125 -29.6484 -15.4688q-20.625 -5.15625 -41.25 -5.15625
q-7.73438 -1.28906 -16.7578 -1.28906q-7.73438 0 -15.4688 1.28906q-12.8906 2.57812 -25.7812 9.02344l-19.3359 9.02344q-6.44531 2.57812 -11.6016 7.73438l-3.86719 3.86719v43.8281q1.28906 1.28906 2.57812 3.86719h3.86719q5.15625 -1.28906 9.02344 -3.86719
q7.73438 -5.15625 15.4688 -9.02344q9.02344 -5.15625 19.3359 -7.73438q11.6016 -3.86719 23.2031 -3.86719q10.3125 0 19.3359 2.57812q7.73438 2.57812 14.1797 9.02344q5.15625 5.15625 7.73438 11.6016q2.57812 7.73438 2.57812 15.4688q0 9.02344 -3.86719 18.0469
t-11.6016 15.4688t-18.0469 9.02344q-12.8906 3.86719 -24.4922 3.86719h-28.3594q0 -1.28906 -1.28906 -1.28906t-2.57812 1.28906q-2.57812 0 -3.86719 2.57812l-2.57812 7.73438v23.2031l2.57812 7.73438q1.28906 2.57812 3.86719 2.57812h32.2266
q15.4688 0 29.6484 3.86719q11.6016 2.57812 21.9141 9.02344q15.4688 11.6016 15.4688 32.2266v2.57812q0 9.02344 -2.57812 18.0469q-3.86719 6.44531 -9.02344 11.6016q-7.73438 6.44531 -18.0469 9.02344q-11.6016 3.86719 -23.2031 3.86719
q-14.1797 0 -28.3594 -3.86719q-10.3125 -2.57812 -20.625 -6.44531l-15.4688 -7.73438q-3.86719 -2.57812 -9.02344 -2.57812q-3.86719 0 -5.15625 3.86719v42.5391q1.28906 2.57812 3.86719 3.86719l9.02344 5.15625q7.73438 5.15625 16.7578 7.73438
q12.8906 3.86719 25.7812 5.15625q14.1797 2.57812 29.6484 2.57812q24.4922 0 48.9844 -6.44531q20.625 -5.15625 37.3828 -18.0469t25.7812 -30.9375zM495 5q100.547 0 192.07 38.6719q88.9453 37.3828 158.555 105.703q68.3203 69.6094 105.703 158.555
q38.6719 91.5234 38.6719 192.07t-38.6719 192.07q-37.3828 88.9453 -105.703 158.555q-69.6094 68.3203 -158.555 105.703q-91.5234 38.6719 -192.07 38.6719t-192.07 -38.6719q-88.9453 -37.3828 -158.555 -105.703q-68.3203 -69.6094 -105.703 -158.555
q-38.6719 -91.5234 -38.6719 -192.07t38.6719 -192.07q37.3828 -88.9453 105.703 -158.555q69.6094 -68.3203 158.555 -105.703q91.5234 -38.6719 192.07 -38.6719z" />
</svg>
