<?xml version="1.0" standalone="no"?>
<!DOCTYPE svg PUBLIC "-//W3C//DTD SVG 1.1//EN" "http://www.w3.org/Graphics/SVG/1.1/DTD/svg11.dtd" >
<svg xmlns="http://www.w3.org/2000/svg" xmlns:xlink="http://www.w3.org/1999/xlink" version="1.1" viewBox="-10 0 1010 1000">
   <path fill="currentColor"
d="M1.2373 603.331h2.47559q3.71191 -12.375 12.375 -19.7998q9.89941 -7.4248 21.0371 -12.375q12.375 -4.9502 23.5127 -12.375q-18.5625 19.7998 -32.1748 43.3125q-6.1875 13.6123 -7.42578 28.4619v4.9502q0 9.90039 3.71289 18.5625h2.47461v-4.9502
q0 -13.6123 4.9502 -24.75q9.90039 -13.6123 22.2754 -23.5117q11.1377 -9.90039 24.75 -19.8008q9.89941 -8.66211 22.2744 -14.8496q-11.1367 11.1377 -17.3242 24.75q-2.47559 9.90039 -2.47559 19.7998q0 8.66309 2.47559 18.5625h2.47461
q2.47461 -12.375 7.4248 -25.9873q7.4248 -12.375 19.7998 -19.7998l11.1377 -8.66309q7.4248 -4.94922 12.375 -7.4248l9.90039 -7.4248l3.71191 -2.47461q-2.47461 4.94922 -6.1875 8.66211q-4.94922 4.9502 -8.66211 9.90039h2.47461q16.0879 -11.1377 27.2256 -27.2256
q9.89941 -14.8496 11.1377 -32.1748q1.2373 2.47461 4.94922 3.71289h2.47559v-6.1875q0 -21.0381 13.6123 -38.3633q6.1875 -8.66211 17.3252 -17.3242l8.66211 -8.66309l9.90039 -7.4248l6.1875 -6.1875q0 2.47461 -3.71289 8.66211l-1.2373 4.9502l-1.2373 2.47559
v33.4121q0 12.375 8.66211 24.75q3.71289 4.9502 9.90039 11.1377l8.66211 9.89941q9.90039 11.1377 21.0381 19.8008q14.8496 8.66211 29.6992 16.0869q6.1875 4.9502 11.1377 9.90039q3.71289 0 8.66309 3.71191q4.94922 3.71289 4.94922 7.42578v3.71191
q0 4.9502 -2.47461 9.90039l-4.9502 7.4248l-4.9502 6.1875q-9.89941 12.375 -22.2744 22.2754q-7.4248 6.1875 -8.66309 14.8496q1.23828 8.66211 8.66309 11.1377q13.6123 7.4248 29.7002 8.66211l14.8496 2.47559l13.6123 2.47461l14.8506 3.71289
q4.94922 0 4.94922 6.1875v4.94922l-1.2373 3.71289v4.9502l1.2373 3.71191q1.23828 4.9502 4.9502 7.42578q12.375 7.4248 24.75 8.66211q8.66309 3.71289 17.3252 8.66211q8.66211 4.9502 18.5625 9.90039q-2.47461 0 -2.47461 4.9502v8.66211q0 4.9502 7.4248 12.375
q6.1875 4.9502 12.375 11.1377q2.47461 3.71289 4.9502 3.71289q2.47461 0 3.71191 -2.47559l2.47559 -2.47461l1.2373 -2.47559q0 -1.2373 2.47461 -7.4248l2.47559 -4.9502l2.47461 -3.71191q3.71289 2.47461 12.375 6.1875l6.1875 2.47461l6.1875 3.71289l6.1875 3.71191
l4.9502 4.9502q6.1875 4.9502 11.1377 6.1875h8.66211q4.9502 2.47559 7.4248 6.1875q0 2.47559 -1.2373 4.9502l-1.2373 1.2373v4.9502q0 8.66211 9.89941 12.375q13.6133 3.71289 28.4629 3.71289h2.47461l3.71289 -1.23828q2.47461 0 2.47461 -1.2373v-1.2373
q-1.2373 -6.1875 -4.94922 -12.375q-4.9502 -7.4248 -8.66309 -16.0879q-1.2373 -4.94922 -7.4248 -8.66211l-6.1875 -3.71289l-4.9502 -3.71191q9.90039 -1.2373 19.7998 -1.2373q9.90039 0 18.5625 1.2373q2.47559 0 6.1875 2.47461l3.71289 1.2373l3.71289 1.23828
q3.71191 2.47461 6.1875 2.47461q3.71191 0 6.1875 -2.47461q6.1875 -2.47559 11.1367 -7.42578l2.47559 -2.47461l3.71191 -1.2373q3.71289 -2.47559 6.1875 -3.71289q1.23828 -2.47461 2.47559 -6.1875q0 -7.4248 2.47461 -14.8496q1.2373 -2.47559 1.2373 -4.9502
q0 -3.71289 -1.2373 -6.1875v-34.6504q0 -2.47461 1.2373 -7.4248l1.23828 -3.71191l1.2373 -3.71289l1.2373 -1.2373v-3.71289q1.2373 -3.71191 1.2373 -7.4248q2.47559 -11.1377 3.71289 -17.3252q1.2373 -7.4248 2.47461 -8.66211t6.1875 -1.2373
q6.1875 1.2373 12.375 4.94922q16.0879 6.1875 32.1748 8.66309q14.8506 6.1875 28.4629 13.6123l7.4248 2.47461q1.2373 0 2.47559 3.71289v4.9502l1.2373 1.2373v1.2373l1.2373 3.71289q0 6.1875 -2.47461 8.66211q-3.71289 7.4248 -8.66309 12.375l-9.89941 14.8506
q-12.375 11.1367 -25.9883 17.3242q-11.1367 4.9502 -12.375 11.1377q-1.2373 4.9502 -4.94922 4.9502q-2.47559 0 -3.71289 -1.2373q-2.47461 -3.71289 -2.47461 -4.9502h-6.1875q-8.66309 0 -16.0879 6.1875q-2.47461 3.71289 -4.9502 8.66211l-1.2373 1.23828
l-1.2373 2.47461l-2.47559 4.9502q-3.71191 6.1875 -6.1875 6.1875q-3.71191 1.2373 -3.71191 3.71191q0 2.47559 1.2373 3.71289q0 2.47461 2.47461 2.47461q1.23828 1.23828 6.1875 1.23828h3.71289l2.47461 -1.23828h17.3252q4.9502 -1.2373 7.4248 -3.71191
q18.5625 -11.1377 39.6006 -12.375h7.4248q1.2373 0 4.9502 -2.47559q1.2373 -2.47461 2.47461 -3.71191q0 -1.2373 1.2373 -2.47559l2.47559 -4.94922q1.2373 -4.9502 3.71191 -8.66309q6.1875 -7.4248 14.8506 -13.6123q6.1875 -4.9502 9.89941 -9.90039
q6.1875 -6.1875 11.1377 -12.375l3.71289 -4.94922l3.71191 -4.9502q3.71289 -6.1875 3.71289 -11.1377v-18.5625q1.2373 -3.71289 1.2373 -7.4248q0 -3.71289 -1.2373 -6.1875q-2.47461 -2.47559 -4.9502 -3.71289q-4.9502 -2.47461 -9.89941 -6.1875l-21.0381 -23.5127
q-7.4248 -7.4248 -14.8496 -16.0869l-1.2373 -1.2373q0 -2.47559 4.94922 -7.42578q2.47559 -3.71191 4.9502 -8.66211q3.71289 -7.4248 4.9502 -16.0879q2.47461 -6.1875 6.1875 -11.1367l4.9502 -3.71289l3.71191 -3.71289q3.71289 -3.71191 6.1875 -8.66211v-4.9502
l1.23828 -3.71191q1.2373 -2.47559 4.94922 -9.90039l3.71289 -6.1875l2.47461 -6.1875l11.1377 -22.2754l11.1377 -22.2744q11.1377 -19.7998 18.5625 -42.0752q0 -3.71289 2.47461 -11.1377l1.23828 -4.9502l2.47461 -6.1875l1.2373 -6.1875v-6.1875
q1.2373 -7.4248 3.71289 -9.89941h11.1377l6.1875 2.47461h9.89941q13.6123 7.4248 27.2256 12.375l12.375 4.9502l7.4248 2.47461q7.4248 0 8.66211 2.47559q2.47559 3.71191 2.47559 8.66211v2.47559q0 6.1875 4.94922 7.4248h2.47559q2.47461 0 6.1875 -1.2373
l4.9502 -1.23828h4.94922q4.9502 0 6.1875 -3.71191q1.23828 -2.47559 1.23828 -7.4248q0 -1.23828 1.2373 -1.23828h1.2373q2.47461 1.23828 3.71289 3.71289q0 1.2373 2.47461 1.2373h1.2373l1.2373 -1.2373h2.47559q1.2373 -1.2373 3.71191 -2.47461
q4.9502 -2.47559 6.1875 -4.9502q2.47559 -8.66309 9.90039 -13.6123v-3.71289q-2.47461 -8.66211 -6.1875 -16.0879q-4.9502 -6.1875 -11.1377 -9.89941q-17.3252 -12.375 -27.2246 -30.9375l-6.1875 -7.4248l-4.9502 -8.66309q-6.1875 -8.66211 -7.4248 -18.5625
q-2.47559 -7.4248 -8.66309 -12.375l-9.89941 -6.1875l-9.90039 -6.1875l-17.3252 -12.375q-4.94922 -3.71191 -7.4248 -11.1377q-1.2373 -6.1875 -4.9502 -12.375q-2.47461 -7.4248 -2.47461 -16.0869v-6.1875q0 -4.9502 -4.9502 -4.9502q-4.9502 1.2373 -7.4248 4.9502
q-7.4248 12.375 -7.4248 28.4619v3.71289q-7.4248 -7.4248 -11.1377 -17.3252h-1.2373q-1.2373 0 -3.71289 2.47559q-1.2373 3.71191 -1.2373 6.1875v17.3242q-3.71289 -1.2373 -7.4248 -1.2373q-8.66309 0 -16.0879 6.1875h4.9502q0 2.47559 -2.47461 3.71289h-3.71289
q-7.4248 0 -13.6123 -2.47559q0 4.9502 4.9502 6.1875h3.71191q-2.47461 -1.2373 -4.9502 -1.2373q-2.47461 0 -4.94922 1.2373h-9.90039q-6.1875 1.23828 -9.90039 3.71289h13.6133q2.47461 0 2.47461 2.47461l-1.2373 1.23828l-1.2373 1.2373
q-1.23828 -1.2373 -2.47559 -1.2373t-3.71191 1.2373q-9.90039 2.47461 -18.5625 11.1377h2.47461q2.47461 -1.23828 4.9502 -1.23828q2.47461 0 3.71191 1.23828l-4.94922 2.47461l-8.66309 2.47461h-2.47461l-2.47559 1.23828q-2.47461 0 -3.71191 3.71191v2.47559h1.2373
l1.2373 1.2373q0 1.2373 -2.47461 2.47461q-8.66309 2.47559 -13.6123 7.4248h7.4248l1.2373 1.23828h1.2373v1.2373q-1.2373 1.2373 -2.47461 1.2373h-3.71289q-6.1875 0 -13.6123 3.71289l-6.1875 3.71191q-3.71289 2.47559 -7.4248 2.47559l-4.9502 7.4248
q-1.2373 -2.47559 -3.71289 -4.9502h-2.47461q0 2.47461 2.47461 4.9502v2.47461h2.47559l4.9502 2.47559h-4.9502q-1.2373 0 -3.71289 -2.47559q0 -1.2373 -1.2373 -1.2373q-2.47461 -1.2373 -3.71289 -1.2373q-4.94922 0 -6.1875 -4.9502l-1.2373 -3.71289v-2.47461
q-3.71191 -3.71289 -8.66211 -7.4248h-4.9502q-3.71289 1.2373 -6.1875 1.2373q-7.4248 1.2373 -7.4248 4.9502q1.2373 2.47461 3.71191 3.71191h-3.71191q-3.71289 0 -8.66309 -2.47461l-3.71191 -1.2373h-3.71289q-1.2373 -1.2373 -2.47461 -1.2373t-2.47559 1.2373
q-1.2373 -2.47559 -3.71191 -4.9502l4.9502 -4.9502q0 -3.71191 6.1875 -4.9502h3.71191q2.47559 -1.2373 4.9502 -6.1875l2.47461 -3.71191l1.23828 -3.71289q8.66211 -8.66211 18.5625 -14.8496q4.94922 -2.47559 6.1875 -8.66309h7.4248v-3.71191
q2.47461 3.71191 6.1875 4.9502h8.66211q1.2373 0 1.2373 -6.1875q1.23828 -3.71289 2.47559 -4.9502q0 -2.47559 2.47461 -2.47559q3.71289 -1.2373 3.71289 -4.94922v-8.66309q0 -6.1875 3.71191 -11.1377v-3.71191h7.42578q7.4248 -1.2373 7.4248 -9.90039h-8.66309
v-6.1875q-1.2373 -11.1377 -9.89941 -18.5625q-13.6123 -13.6123 -33.4131 -13.6123h-3.71191q-8.66309 1.2373 -14.8506 6.1875q-8.66211 3.71289 -13.6123 9.90039q-4.9502 7.4248 -4.9502 16.0869v14.8506q-7.4248 -4.9502 -14.8496 -4.9502
q-4.9502 -1.2373 -11.1377 -1.2373q-4.9502 0 -11.1377 1.2373q-13.6123 2.47461 -28.4619 2.47461h-25.9873q-8.66309 0 -16.0879 4.9502t-14.8496 7.4248h-11.1377q-4.9502 1.2373 -11.1377 1.2373q-4.9502 0 -9.90039 -1.2373l-2.47461 1.2373l-3.71289 1.23828
l-2.47461 1.2373l-3.71289 1.2373v6.1875q0 1.2373 1.23828 2.47461l2.47461 1.23828q1.2373 1.2373 1.2373 3.71191v1.2373q-9.89941 11.1377 -17.3252 24.75q-3.71191 7.42578 -3.71191 14.8506q0 4.9502 1.2373 8.66211q0 4.9502 7.4248 11.1377l6.1875 6.1875
q3.71289 2.47461 4.9502 3.71289q22.2754 17.3242 49.5 22.2744q17.3252 3.71289 33.4121 11.1377q12.375 3.71289 24.75 11.1377h-29.6992q-11.1377 0 -21.0381 -2.47559l-6.1875 -3.71191l-6.1875 -2.47559q-3.71191 -2.47461 -7.4248 -2.47461t-6.1875 2.47461v3.71289
q-9.90039 4.9502 -18.5625 8.66211h-7.4248q-2.47559 0 -6.1875 -1.2373l-3.71289 -1.2373h-2.47461q0 -1.2373 -1.2373 -1.2373l-1.23828 1.2373h-7.4248l-11.1377 -3.71289h-30.9375q-6.1875 0 -16.0869 -1.2373l-8.66309 -1.2373h-7.4248q-6.1875 0 -16.0869 -1.2373
l-8.66309 -1.2373l-7.4248 -1.23828q-6.1875 -1.2373 -12.375 -1.2373q-4.9502 0 -11.1377 1.2373q-13.6123 6.1875 -25.9873 12.375t-24.75 13.6133l-12.375 8.66211q-7.4248 4.9502 -12.375 8.66211q-9.90039 7.42578 -22.2754 11.1377q-13.6123 3.71289 -25.9873 9.90039
l-14.8496 4.9502q-8.66309 2.47461 -13.6123 4.94922q-4.9502 2.47559 -14.8506 7.42578l-6.1875 3.71191l-7.4248 3.71289q-12.375 4.9502 -23.5127 12.375q-9.89941 7.4248 -17.3252 18.5625l-4.94922 4.9502l-3.71289 6.1875q-4.9502 4.94922 -12.375 9.89941
l-4.9502 2.47559l-6.1875 1.2373q-6.1875 2.47461 -9.89941 4.9502l-19.8008 6.1875q-12.375 0 -22.2744 4.94922q9.89941 4.9502 22.2744 6.1875q-22.2744 7.42578 -37.125 22.2754q-7.4248 9.90039 -11.1367 21.0371q-3.71289 12.375 -3.71289 25.9883zM662.062 324.894
q1.2373 -4.9502 3.71289 -4.9502q3.71191 0 7.4248 2.47559l6.1875 6.1875l3.71191 3.71191l2.47559 2.47559h-3.71289q-4.9502 0 -8.66211 2.47461zM674.438 336.031l-6.1875 -4.9502l-7.4248 -6.1875zM655.875 370.681q-3.71289 1.23828 -4.9502 1.23828
q-6.1875 0 -6.1875 -6.1875h17.3252l3.71289 -1.23828l3.71191 -1.2373q4.9502 -2.47461 7.4248 -2.47461q-8.66211 3.71191 -16.0869 8.66211q-2.47559 0 -4.9502 1.2373zM612.562 744.406q-6.1875 2.47461 -12.375 3.71191q-13.6123 -1.2373 -25.9873 -4.94922
l-11.1377 -2.47559q-3.71289 -2.47461 -8.66211 -4.9502l-11.1377 -3.71191q-6.1875 -2.47559 -11.1377 -4.9502q-3.71289 -1.2373 -8.66211 -1.2373q-3.71289 0 -7.42578 1.2373h-2.47461q-4.9502 0 -7.4248 -6.1875l-1.2373 -3.71289l-1.23828 -3.71191
q-1.2373 -3.71289 -1.2373 -6.1875q-2.47461 -3.71289 -6.1875 -4.9502h-6.1875q-7.4248 0 -14.8496 2.47461l-1.2373 -7.4248q0 -3.71191 -1.23828 -7.4248q-1.2373 -2.47461 -6.1875 -4.9502l-3.71191 -1.2373l-2.47559 -1.2373q-3.71191 -1.2373 -9.89941 -3.71289
q-6.1875 -2.47461 -11.1377 -3.71191q-2.47461 0 -2.47461 -6.1875v-3.71289l1.2373 -4.9502v-3.71191q1.2373 -3.71289 1.2373 -4.9502q0 -2.47559 1.2373 -11.1377l1.2373 -6.1875l1.23828 -7.4248q1.2373 -7.4248 1.2373 -13.6123q0 -7.42578 -1.2373 -13.6133v-37.125
q0 -2.47461 1.2373 -4.94922l3.71191 -3.71289l6.1875 4.9502l6.1875 3.71191q8.66309 6.1875 13.6133 9.90039q12.375 11.1377 28.4619 16.0879q7.4248 3.71191 14.8506 4.94922q8.66211 3.71289 18.5625 7.42578l37.125 16.0869q7.4248 3.71289 17.3242 4.9502h7.42578
q2.47461 0 6.1875 6.1875q1.2373 4.9502 1.2373 9.90039q0 4.94922 -1.2373 9.89941v21.0381q0 17.3242 4.94922 34.6494q1.23828 9.90039 2.47559 18.5625v12.375l1.2373 2.47559q1.2373 1.2373 1.2373 3.71191v1.2373zM376.2 649.118q-4.9502 0 -6.1875 -4.94922v-11.1377
l3.71191 -3.71289q9.90039 7.4248 9.90039 21.0381v2.47461z" />
</svg>
