<?xml version="1.0" standalone="no"?>
<!DOCTYPE svg PUBLIC "-//W3C//DTD SVG 1.1//EN" "http://www.w3.org/Graphics/SVG/1.1/DTD/svg11.dtd" >
<svg xmlns="http://www.w3.org/2000/svg" xmlns:xlink="http://www.w3.org/1999/xlink" version="1.1" viewBox="-10 0 1044 1000">
   <path fill="currentColor"
d="M1.28027 344.5h2.55957q3.83984 -12.7998 12.7998 -20.4805q10.2402 -7.67969 21.7607 -12.7998q12.7998 -5.12012 24.3193 -12.7998q-19.2002 20.4805 -33.2793 44.7998q-6.40039 14.0801 -7.68066 29.4404v5.12012q0 10.2393 3.83984 19.2002h2.56055v-5.12012
q0 -14.0801 5.12012 -25.6006q10.2393 -14.0801 23.04 -24.3193q11.5195 -10.2402 25.5996 -20.4805q10.2402 -8.95996 23.04 -15.3604q-11.5195 11.5205 -17.9199 25.6006q-2.55957 10.2402 -2.55957 20.4795q0 8.95996 2.55957 19.2002h2.55957
q2.56055 -12.7998 7.68066 -26.8799q7.67969 -12.7998 20.4795 -20.4805l11.5205 -8.95996q7.67969 -5.11914 12.7998 -7.67969l10.2402 -7.67969l3.83984 -2.56055q-2.56055 5.12012 -6.40039 8.95996q-5.12012 5.12012 -8.95996 10.2402h2.56055
q16.6396 -11.5195 28.1592 -28.1602q10.2402 -15.3594 11.5205 -33.2793q1.28027 2.55957 5.12012 3.83984h2.55957v-6.40039q0 -21.7598 14.0801 -39.6797q6.40039 -8.95996 17.9199 -17.9199l8.95996 -8.95996l10.2402 -7.68066l6.40039 -6.39941
q0 2.55957 -3.83984 8.95996l-1.28027 5.12012l-1.28027 2.55957v34.5605q0 12.7998 8.95996 25.5996q3.83984 5.12012 10.2402 11.5195l8.95996 10.2402q10.2402 11.5205 21.7598 20.4805q15.3604 8.95996 30.7197 16.6396q6.40039 5.12012 11.5205 10.2402
q3.83984 0 8.95996 3.83984t5.12012 7.67969v3.84082q0 5.11914 -2.56055 10.2393l-5.11914 7.68066l-5.12012 6.39941q-10.2402 12.7998 -23.04 23.04q-7.68066 6.40039 -8.95996 15.3604q1.2793 8.95996 8.95996 11.5195q14.0801 7.68066 30.7197 8.95996l15.3604 2.56055
l14.0801 2.55957l15.3594 3.83984q5.12012 0 5.12012 6.40039v5.12012l-1.28027 3.83984v5.12012l1.28027 3.83984q1.28027 5.12012 5.12012 7.67969q12.7998 7.68066 25.5996 8.95996q8.95996 3.84082 17.9199 8.95996q8.95996 5.12012 19.2002 10.2402
q-2.55957 0 -2.55957 5.12012v8.95996q0 5.12012 7.67969 12.7998q6.40039 5.12012 12.7998 11.5205q2.56055 3.83984 5.12012 3.83984q2.56055 0 3.83984 -2.55957l2.56055 -2.56055l1.2793 -2.55957q0 -1.28027 2.56055 -7.68066l2.55957 -5.12012l2.56055 -3.83984
q3.83984 2.56055 12.7998 6.40039l6.40039 2.55957l6.39941 3.83984l6.40039 3.84082l5.12012 5.12012q6.39941 5.11914 11.5195 6.39941h8.95996q5.12012 2.56055 7.68066 6.40039q0 2.55957 -1.28027 5.12012l-1.28027 1.2793v5.12012q0 8.95996 10.2402 12.7998
q14.0801 3.84082 29.4395 3.84082h2.56055l3.83984 -1.28027q2.55957 0 2.55957 -1.28027v-1.28027q-1.2793 -6.39941 -5.11914 -12.7998q-5.12012 -7.67969 -8.95996 -16.6396q-1.28027 -5.12012 -7.68066 -8.95996l-6.39941 -3.83984l-5.12012 -3.84082
q10.2393 -1.2793 20.4795 -1.2793t19.2002 1.2793q2.55957 0 6.40039 2.56055l3.83984 1.28027l3.83984 1.2793q3.83984 2.56055 6.40039 2.56055q3.83984 0 6.39941 -2.56055q6.40039 -2.55957 11.5205 -7.67969l2.55957 -2.55957l3.83984 -1.28027
q3.83984 -2.56055 6.40039 -3.83984q1.28027 -2.56055 2.55957 -6.40039q0 -7.67969 2.56055 -15.3604q1.2793 -2.55957 1.2793 -5.11914q0 -3.84082 -1.2793 -6.40039v-35.8398q0 -2.56055 1.2793 -7.67969l1.28027 -3.84082l1.28027 -3.83984l1.28027 -1.28027v-3.83984
q1.2793 -3.83984 1.2793 -7.67969q2.56055 -11.5195 3.83984 -17.9199q1.28027 -7.67969 2.56055 -8.95996t6.40039 -1.28027q6.39941 1.28027 12.7998 5.12012q16.6396 6.40039 33.2793 8.95996q15.3604 6.40039 29.4404 14.0801l7.67969 2.55957
q1.28027 0 2.56055 3.84082v5.11914l1.2793 1.28027v1.28027l1.28027 3.83984q0 6.40039 -2.55957 8.95996q-3.83984 7.67969 -8.95996 12.7998l-10.2402 15.3604q-12.7998 11.5195 -26.8799 17.9199q-11.5205 5.12012 -12.7998 11.5205q-1.28027 5.11914 -5.12012 5.11914
q-2.56055 0 -3.83984 -1.2793q-2.56055 -3.83984 -2.56055 -5.12012h-6.39941q-8.95996 0 -16.6406 6.39941q-2.55957 3.84082 -5.12012 8.95996l-1.2793 1.28027l-1.28027 2.56055l-2.56055 5.11914q-3.83984 6.40039 -6.39941 6.40039q-3.83984 1.28027 -3.83984 3.83984
q0 2.56055 1.2793 3.83984q0 2.56055 2.56055 2.56055q1.28027 1.28027 6.39941 1.28027h3.84082l2.55957 -1.28027h17.9199q5.12012 -1.28027 7.67969 -3.83984q19.2002 -11.5205 40.96 -12.8008h7.68066q1.28027 0 5.12012 -2.55957q1.2793 -2.55957 2.55957 -3.83984
q0 -1.28027 1.28027 -2.56055l2.55957 -5.11914q1.28027 -5.12012 3.83984 -8.95996q6.40039 -7.68066 15.3604 -14.0801q6.40039 -5.12012 10.2402 -10.2402q6.39941 -6.40039 11.5195 -12.7998l3.83984 -5.12012l3.84082 -5.12012q3.83984 -6.40039 3.83984 -11.5205
v-19.1992q1.28027 -3.84082 1.28027 -7.68066t-1.28027 -6.39941q-2.56055 -2.56055 -5.12012 -3.83984q-5.12012 -2.56055 -10.2402 -6.40039l-21.7598 -24.3203q-7.67969 -7.67969 -15.3604 -16.6396l-1.2793 -1.28027q0 -2.55957 5.11914 -7.67969
q2.56055 -3.83984 5.12012 -8.95996q3.83984 -7.68066 5.12012 -16.6406q2.56055 -6.39941 6.40039 -11.5195l5.12012 -3.83984l3.83984 -3.83984q3.83984 -3.84082 6.39941 -8.95996v-5.12012l1.28027 -3.83984l5.12012 -10.2402l3.83984 -6.40039l2.56055 -6.39941
l11.5195 -23.04l11.5205 -23.04q11.5195 -20.4805 19.1992 -43.5205q0 -3.83984 2.56055 -11.5195l1.28027 -5.12012l2.55957 -6.40039l1.28027 -6.39941v-6.40039q1.2793 -7.67969 3.83984 -10.2402h11.5195l6.40039 2.56055h10.2402q14.0801 7.67969 28.1602 12.7998
l12.7998 5.12012l7.67969 2.55957q7.67969 0 8.95996 2.56055q2.56055 3.83984 2.56055 8.95996v2.55957q0 6.40039 5.11914 7.67969h2.56055q2.55957 0 6.39941 -1.2793l5.12012 -1.28027h5.12012q5.12012 0 6.40039 -3.83984q1.28027 -2.56055 1.28027 -7.67969
q0 -1.28027 1.2793 -1.28027h1.28027q2.55957 1.28027 3.83984 3.83984q0 1.28027 2.56055 1.28027h1.2793l1.28027 -1.28027h2.55957q1.28027 -1.28027 3.84082 -2.55957q5.12012 -2.56055 6.39941 -5.12012q2.56055 -8.95996 10.2402 -14.0801v-3.83984
q-2.55957 -8.95996 -6.40039 -16.6406q-5.11914 -6.39941 -11.5195 -10.2402q-17.9199 -12.7998 -28.1602 -32l-6.40039 -7.67969l-5.11914 -8.95996q-6.40039 -8.95996 -7.68066 -19.2002q-2.55957 -7.67969 -8.95996 -12.7998l-10.2402 -6.39941l-10.2393 -6.40039
l-17.9199 -12.7998q-5.12012 -3.83984 -7.68066 -11.5205q-1.2793 -6.39941 -5.12012 -12.7998q-2.55957 -7.67969 -2.55957 -16.6396v-6.40039q0 -5.12012 -5.12012 -5.12012q-5.12012 1.28027 -7.67969 5.12012q-7.68066 12.7998 -7.68066 29.4404v3.83984
q-7.67969 -7.68066 -11.5195 -17.9199h-1.28027q-1.2793 0 -3.83984 2.55957q-1.28027 3.83984 -1.28027 6.40039v17.9199q-3.83984 -1.28027 -7.67969 -1.28027q-8.95996 0 -16.6396 6.40039h5.12012q0 2.55957 -2.56055 3.83984h-3.83984q-7.67969 0 -14.0801 -2.56055
q0 5.12012 5.12012 6.40039h3.83984q-2.55957 -1.28027 -5.12012 -1.28027q-2.55957 0 -5.12012 1.28027h-10.2393q-6.40039 1.28027 -10.2402 3.83984h14.0801q2.55957 0 2.55957 2.56055l-1.28027 1.2793l-1.2793 1.28027q-1.28027 -1.28027 -2.56055 -1.28027
q-1.2793 0 -3.83984 1.28027q-10.2402 2.56055 -19.2002 11.5205h2.56055q2.55957 -1.28027 5.12012 -1.28027q2.55957 0 3.83984 1.28027l-5.12012 2.55957l-8.95996 2.55957h-2.56055l-2.55957 1.28027q-2.55957 0 -3.83984 3.83984v2.56055h1.28027l1.2793 1.2793
q0 1.28027 -2.55957 2.56055q-8.95996 2.55957 -14.0801 7.67969h7.67969l1.28027 1.28027h1.28027v1.28027q-1.28027 1.2793 -2.56055 1.2793h-3.83984q-6.39941 0 -14.0801 3.84082l-6.39941 3.83984q-3.84082 2.55957 -7.68066 2.55957l-5.12012 7.67969
q-1.2793 -2.55957 -3.83984 -5.11914h-2.55957q0 2.55957 2.55957 5.11914v2.56055h2.56055l5.12012 2.55957h-5.12012q-1.28027 0 -3.83984 -2.55957q0 -1.28027 -1.28027 -1.28027q-2.56055 -1.28027 -3.83984 -1.28027q-5.12012 0 -6.40039 -5.11914l-1.28027 -3.84082
v-2.55957q-3.83984 -3.83984 -8.95996 -7.67969h-5.12012q-3.83984 1.2793 -6.39941 1.2793q-7.68066 1.28027 -7.68066 5.12012q1.28027 2.56055 3.84082 3.83984h-3.84082q-3.83984 0 -8.95996 -2.55957l-3.83984 -1.28027h-3.83984q-1.28027 -1.2793 -2.55957 -1.2793
q-1.28027 0 -2.56055 1.2793q-1.2793 -2.55957 -3.83984 -5.12012l5.12012 -5.11914q0 -3.84082 6.40039 -5.12012h3.83984q2.55957 -1.28027 5.12012 -6.40039l2.55957 -3.83984l1.28027 -3.83984q8.95996 -8.95996 19.2002 -15.3604q5.11914 -2.55957 6.39941 -8.95996
h7.67969v-3.83984q2.56055 3.83984 6.40039 5.12012h8.95996q1.28027 0 1.28027 -6.40039q1.28027 -3.83984 2.55957 -5.12012q0 -2.55957 2.56055 -2.55957q3.83984 -1.28027 3.83984 -5.12012v-8.95996q0 -6.40039 3.83984 -11.5205v-3.83984h7.67969
q7.68066 -1.2793 7.68066 -10.2393h-8.95996v-6.40039q-1.28027 -11.5205 -10.2402 -19.2002q-14.0801 -14.0801 -34.5605 -14.0801h-3.83984q-8.95996 1.28027 -15.3594 6.40039q-8.95996 3.83984 -14.0801 10.2402q-5.12012 7.67969 -5.12012 16.6396v15.3604
q-7.67969 -5.12012 -15.3604 -5.12012q-5.12012 -1.28027 -11.5195 -1.28027q-5.12012 0 -11.5205 1.28027q-14.0801 2.55957 -29.4395 2.55957h-26.8799q-8.95996 0 -16.6406 5.12012q-7.67969 5.12012 -15.3594 7.67969h-11.5205q-5.12012 1.28027 -11.5195 1.28027
q-5.12012 0 -10.2402 -1.28027l-2.56055 1.28027l-3.83984 1.28027l-2.55957 1.2793l-3.83984 1.28027v6.40039q0 1.28027 1.2793 2.55957l2.56055 1.28027q1.28027 1.28027 1.28027 3.83984v1.28027q-10.2402 11.5195 -17.9209 25.5996q-3.83984 7.68066 -3.83984 15.3604
q0 5.12012 1.28027 8.95996q0 5.12012 7.67969 11.5195l6.40039 6.40039q3.83984 2.55957 5.12012 3.83984q23.04 17.9199 51.2002 23.04q17.9199 3.83984 34.5596 11.5205q12.7998 3.83984 25.5996 11.5195h-30.7197q-11.5195 0 -21.7598 -2.55957l-6.40039 -3.84082
l-6.39941 -2.55957q-3.83984 -2.55957 -7.68066 -2.55957q-3.83984 0 -6.39941 2.55957v3.83984q-10.2402 5.12012 -19.2002 8.95996h-7.67969q-2.56055 0 -6.40039 -1.2793l-3.83984 -1.28027h-2.56055q0 -1.28027 -1.2793 -1.28027l-1.28027 1.28027h-7.67969
l-11.5205 -3.83984h-32q-6.39941 0 -16.6396 -1.28027l-8.95996 -1.28027h-7.67969q-6.40039 0 -16.6406 -1.28027l-8.95996 -1.2793l-7.67969 -1.28027q-6.40039 -1.28027 -12.7998 -1.28027q-5.12012 0 -11.5205 1.28027q-14.0801 6.40039 -26.8799 12.7998
q-12.7998 6.40039 -25.5996 14.0801l-12.8008 8.95996q-7.67969 5.12012 -12.7998 8.95996q-10.2402 7.68066 -23.04 11.5205q-14.0801 3.83984 -26.8799 10.2393l-15.3604 5.12012q-8.95996 2.56055 -14.0791 5.12012q-5.12012 2.56055 -15.3604 7.68066l-6.40039 3.83984
l-7.67969 3.83984q-12.7998 5.12012 -24.3203 12.7998q-10.2393 7.67969 -17.9199 19.2002l-5.12012 5.12012l-3.83984 6.39941q-5.12012 5.12012 -12.7998 10.2402l-5.12012 2.56055l-6.39941 1.2793q-6.40039 2.56055 -10.2402 5.12012l-20.4805 6.40039
q-12.7998 0 -23.04 5.12012q10.2402 5.12012 23.04 6.39941q-23.04 7.68066 -38.3994 23.04q-7.68066 10.2402 -11.5205 21.7598q-3.83984 12.8008 -3.83984 26.8809zM684.8 56.5q1.28027 -5.12012 3.83984 -5.12012q3.84082 0 7.68066 2.56055l6.39941 6.39941
l3.83984 3.83984l2.56055 2.56055h-3.83984q-5.12012 0 -8.95996 2.55957zM697.6 68.0195l-6.39941 -5.11914l-7.68066 -6.40039zM678.4 103.86q-3.84082 1.2793 -5.12012 1.2793q-6.40039 0 -6.40039 -6.39941h17.9199l3.83984 -1.28027l3.84082 -1.28027
q5.11914 -2.55957 7.67969 -2.55957q-8.95996 3.83984 -16.6406 8.95996q-2.55957 0 -5.11914 1.28027zM633.6 490.42q-6.39941 2.56055 -12.7998 3.83984q-14.0801 -1.2793 -26.8799 -5.12012l-11.5195 -2.55957q-3.84082 -2.56055 -8.95996 -5.12012l-11.5205 -3.83984
q-6.40039 -2.56055 -11.5195 -5.12012q-3.84082 -1.28027 -8.95996 -1.28027q-3.84082 0 -7.68066 1.28027h-2.55957q-5.12012 0 -7.68066 -6.40039l-1.2793 -3.83984l-1.28027 -3.83984q-1.28027 -3.83984 -1.28027 -6.40039q-2.55957 -3.83984 -6.39941 -5.11914h-6.40039
q-7.67969 0 -15.3604 2.55957l-1.2793 -7.67969q0 -3.83984 -1.28027 -7.68066q-1.28027 -2.55957 -6.40039 -5.11914l-3.83984 -1.28027l-2.55957 -1.28027q-3.83984 -1.28027 -10.2402 -3.83984q-6.40039 -2.56055 -11.5195 -3.83984q-2.56055 0 -2.56055 -6.40039
v-3.83984l1.28027 -5.12012v-3.83984q1.28027 -3.83984 1.28027 -5.12012q0 -2.55957 1.2793 -11.5195l1.28027 -6.40039l1.28027 -7.67969q1.2793 -7.68066 1.2793 -14.0801q0 -7.68066 -1.2793 -14.0801v-38.4004q0 -2.55957 1.2793 -5.12012l3.84082 -3.83984
l6.39941 5.12012l6.40039 3.83984q8.95996 6.40039 14.0801 10.2402q12.7998 11.5195 29.4395 16.6396q7.68066 3.84082 15.3604 5.12012q8.95996 3.83984 19.2002 7.68066l38.3994 16.6396q7.68066 3.83984 17.9199 5.12012h7.68066q2.55957 0 6.39941 6.39941
q1.28027 5.12012 1.28027 10.2402t-1.28027 10.2402v21.7598q0 17.9199 5.12012 35.8398q1.28027 10.2402 2.56055 19.2002v12.7998l1.2793 2.56055q1.28027 1.2793 1.28027 3.83984v1.28027zM389.12 391.86q-5.12012 0 -6.40039 -5.12012v-11.5205l3.83984 -3.83984
q10.2402 7.67969 10.2402 21.7598v2.56055z" />
</svg>
