<?xml version="1.0" standalone="no"?>
<!DOCTYPE svg PUBLIC "-//W3C//DTD SVG 1.1//EN" "http://www.w3.org/Graphics/SVG/1.1/DTD/svg11.dtd" >
<svg xmlns="http://www.w3.org/2000/svg" xmlns:xlink="http://www.w3.org/1999/xlink" version="1.1" viewBox="-10 0 1066 1000">
   <path fill="currentColor"
d="M938.667 291.667q-25.334 0 -40 -20v42.666h-14.667v-42.666q-13.333 21.333 -38.667 21.333q-21.333 0 -36 -14.667q-14.666 -14.666 -14.666 -34.666q0 -21.334 14.666 -36q14.667 -14.667 36 -14.667q-8 -10.667 -8 -24v-4q0 -17.333 13.334 -32
q13.333 -14.667 34.666 -16h4q17.334 0 32 13.333q14.667 13.334 16 34.667v4q0 12 -6.66602 24h5.33301q20 0 34.667 14.667q14.666 13.333 14.666 34.666q0 20 -14.666 34.667q-14.667 14.667 -34.667 14.667h2.66699zM713.333 355.667h-52v-200q-29.333 28 -69.333 40
v-48q13.333 -4 25.333 -10.667q12 -8 24 -17.333q9.33398 -9.33398 18.667 -21.334q6.66699 -9.33301 10.667 -21.333h42.666v278.667zM592 647.667q-30.667 -1.33398 -50.667 -24v46.666h-16v-45.333q-21.333 22.667 -52 22.667q-24 -2.66699 -38.666 -21.334
q-12 -14.666 -12 -34.666v-6.66699q1.33301 -14.667 10.666 -26.667q18.667 -22.666 100 -102.666q80 80 100 102.666q10.667 16 10.667 33.334v8q-2.66699 22.666 -21.333 37.333q-13.334 10.667 -30.667 12v-1.33301zM358.667 327.667q5.33301 -13.334 13.333 -25.334
q10.667 -16 24 -29.333q12 -13.333 36 -36q18.667 -16 30.667 -29.333q9.33301 -9.33398 16 -18.667q5.33301 -6.66699 6.66602 -14.667q1.33398 -4 1.33398 -8t-1.33398 -6.66602q1.33398 -4 1.33398 -6.66699q0 -9.33301 -6.66699 -17.333q-8 -10.667 -21.333 -13.334
q-2.66699 -1.33301 -5.33398 -1.33301q-1.33301 0 -4 1.33301q-34.666 0 -37.333 42.667l-53.333 -5.33301q0 -34.667 26.666 -60q24 -22.667 56 -22.667h10.667q18.667 0 34.667 5.33301q16 5.33398 29.333 16q12 9.33398 17.333 24q6.66699 13.334 6.66699 28v4
q0 13.334 -2.66699 26.667q-4 13.333 -10.666 25.333q-8 13.334 -18.667 25.334l-28 28q-16 13.333 -20 17.333l-12 13.333l-8 9.33398l-5.33301 8h105.333v49.333h-186.667q1.33398 -14.667 5.33398 -28v-1.33301zM181.333 318.333l-101.333 -101.333l101.333 -101.333
l101.334 101.333zM533.333 -203q18.667 -33.333 57.334 -33.333h2.66602q22.667 2.66602 37.334 20q13.333 17.333 13.333 37.333v4q-1.33301 14.667 -10.667 28q-18.666 22.667 -100 102.667q-80 -80 -98.666 -102.667q-12 -16 -12 -34.667v-6.66602
q2.66602 -22.667 21.333 -37.334q13.333 -10.666 30.667 -10.666q37.333 1.33301 58.666 33.333zM334.667 -255q-92 38.667 -164 109.333q-70.667 72 -109.334 164q-40 94.667 -40 198.667t40 198.667q38.667 92 109.334 164q72 70.666 164 109.333q94.666 40 198.666 40
t198.667 -40q92 -38.667 164 -109.333q70.667 -72 109.333 -164q40 -94.667 40 -198.667t-40 -198.667q-38.666 -92 -109.333 -164q-72 -70.666 -164 -109.333q-94.667 -40 -198.667 -40t-198.666 40z" />
</svg>
