<?xml version="1.0" standalone="no"?>
<!DOCTYPE svg PUBLIC "-//W3C//DTD SVG 1.1//EN" "http://www.w3.org/Graphics/SVG/1.1/DTD/svg11.dtd" >
<svg xmlns="http://www.w3.org/2000/svg" xmlns:xlink="http://www.w3.org/1999/xlink" version="1.1" viewBox="-10 0 1010 1000">
   <path fill="currentColor"
d="M886.875 572.188q-24.4922 0 -38.6719 -19.3359v41.25h-14.1797v-41.25q-12.8906 20.625 -37.3828 20.625q-20.625 0 -34.8047 -14.1797t-14.1797 -33.5156q0 -20.625 14.1797 -34.8047t34.8047 -14.1797q-7.73438 -10.3125 -7.73438 -23.2031v-3.86719
q0 -16.7578 12.8906 -30.9375t33.5156 -15.4688h3.86719q16.7578 0 30.9375 12.8906t15.4688 33.5156v3.86719q0 11.6016 -6.44531 23.2031h5.15625q19.3359 0 33.5156 14.1797q14.1797 12.8906 14.1797 33.5156q0 19.3359 -14.1797 33.5156t-33.5156 14.1797h2.57812z
M669.023 634.062h-50.2734v-193.359q-28.3594 27.0703 -67.0312 38.6719v-46.4062q12.8906 -3.86719 24.4922 -10.3125q11.6016 -7.73438 23.2031 -16.7578q9.02344 -9.02344 18.0469 -20.625q6.44531 -9.02344 10.3125 -20.625h41.25v269.414zM551.719 916.367
q-29.6484 -1.28906 -48.9844 -23.2031v45.1172h-15.4688v-43.8281q-20.625 21.9141 -50.2734 21.9141q-23.2031 -2.57812 -37.3828 -20.625q-11.6016 -14.1797 -11.6016 -33.5156v-6.44531q1.28906 -14.1797 10.3125 -25.7812q18.0469 -21.9141 96.6797 -99.2578
q77.3438 77.3438 96.6797 99.2578q10.3125 15.4688 10.3125 32.2266v7.73438q-2.57812 21.9141 -20.625 36.0938q-12.8906 10.3125 -29.6484 11.6016v-1.28906zM326.133 606.992q5.15625 -12.8906 12.8906 -24.4922q10.3125 -15.4688 23.2031 -28.3594
q11.6016 -12.8906 34.8047 -34.8047q18.0469 -15.4688 29.6484 -28.3594q9.02344 -9.02344 15.4688 -18.0469q5.15625 -6.44531 6.44531 -14.1797q1.28906 -3.86719 1.28906 -7.73438t-1.28906 -6.44531q1.28906 -3.86719 1.28906 -6.44531q0 -9.02344 -6.44531 -16.7578
q-7.73438 -10.3125 -20.625 -12.8906q-2.57812 -1.28906 -5.15625 -1.28906q-1.28906 0 -3.86719 1.28906q-33.5156 0 -36.0938 41.25l-51.5625 -5.15625q0 -33.5156 25.7812 -58.0078q23.2031 -21.9141 54.1406 -21.9141h10.3125q18.0469 0 33.5156 5.15625
t28.3594 15.4688q11.6016 9.02344 16.7578 23.2031q6.44531 12.8906 6.44531 27.0703v3.86719q0 12.8906 -2.57812 25.7812q-3.86719 12.8906 -10.3125 24.4922q-7.73438 12.8906 -18.0469 24.4922l-27.0703 27.0703q-15.4688 12.8906 -19.3359 16.7578l-11.6016 12.8906
l-7.73438 9.02344l-5.15625 7.73438h101.836v47.6953h-180.469q1.28906 -14.1797 5.15625 -27.0703v-1.28906zM154.688 597.969l-97.9688 -97.9688l97.9688 -97.9688l97.9688 97.9688zM495 93.9453q18.0469 -32.2266 55.4297 -32.2266h2.57812
q21.9141 2.57812 36.0938 19.3359q12.8906 16.7578 12.8906 36.0938v3.86719q-1.28906 14.1797 -10.3125 27.0703q-18.0469 21.9141 -96.6797 99.2578q-77.3438 -77.3438 -95.3906 -99.2578q-11.6016 -15.4688 -11.6016 -33.5156v-6.44531q2.57812 -21.9141 20.625 -36.0938
q12.8906 -10.3125 29.6484 -10.3125q36.0938 1.28906 56.7188 32.2266zM302.93 43.6719q-88.9453 37.3828 -158.555 105.703q-68.3203 69.6094 -105.703 158.555q-38.6719 91.5234 -38.6719 192.07t38.6719 192.07q37.3828 88.9453 105.703 158.555
q69.6094 68.3203 158.555 105.703q91.5234 38.6719 192.07 38.6719t192.07 -38.6719q88.9453 -37.3828 158.555 -105.703q68.3203 -69.6094 105.703 -158.555q38.6719 -91.5234 38.6719 -192.07t-38.6719 -192.07q-37.3828 -88.9453 -105.703 -158.555
q-69.6094 -68.3203 -158.555 -105.703q-91.5234 -38.6719 -192.07 -38.6719t-192.07 38.6719z" />
</svg>
