<?xml version="1.0" standalone="no"?>
<!DOCTYPE svg PUBLIC "-//W3C//DTD SVG 1.1//EN" "http://www.w3.org/Graphics/SVG/1.1/DTD/svg11.dtd" >
<svg xmlns="http://www.w3.org/2000/svg" xmlns:xlink="http://www.w3.org/1999/xlink" version="1.1" viewBox="-10 0 1010 1000">
   <path fill="currentColor"
d="M988.761 370.52q1.23926 3.7168 1.23926 7.43359q0 17.3477 -37.1719 39.6504q-2.47754 7.43359 -14.8682 7.43359q-11.1514 0 -27.2598 -4.95508q-8.67285 -2.47852 -16.1074 -2.47852q-14.8682 0 -27.2588 9.91211q-13.6299 9.91211 -44.6055 53.2793
q-37.1719 52.041 -149.925 105.318q4.95605 33.4551 6.19531 61.9531v2.47852q0 14.8691 -16.1084 23.541l-7.43359 3.71875l-7.43457 3.7168q-8.67383 3.7168 -13.6299 7.43359q-29.7373 22.3027 -66.9082 26.0195q-6.19531 0 -6.19531 -3.7168
q0 -6.19531 13.6289 -22.3027v-2.47852q0 -6.19531 11.1523 -16.1074q12.3896 -11.1504 21.0635 -12.3906l3.7168 -1.23828h4.95605q3.71777 -1.24023 6.19531 -2.47852q7.43457 -2.47852 8.67383 -13.6289v-2.47852q0 -16.1074 -26.0205 -43.3672
q-4.95605 21.0645 -14.8682 40.8887q-1.23926 2.47852 -3.7168 11.1523l-1.23926 6.19531l-2.47852 6.19531q-7.43457 14.8672 -29.7373 14.8672q-42.127 3.71875 -76.8203 30.9766q-2.47852 2.47852 -4.95703 2.47852q-6.19434 0 -8.67285 -13.6289
q-9.91211 0 -9.91211 -11.1523q6.19531 -17.3457 22.3027 -28.498q11.1514 -9.91211 29.7373 -17.3457q6.19531 -2.47852 13.6289 -4.95703l6.19531 -2.47852l6.19531 -1.23828q12.3906 -4.95703 12.3906 -7.43555q3.7168 -8.67188 9.91211 -63.1914
q-4.95605 -11.1504 -19.8242 -21.0625q-12.3906 -7.43555 -29.7373 -14.8691q-21.0635 -8.67383 -39.6494 -12.3906q0 33.4551 -9.91309 49.5625q-7.43359 14.8691 -39.6494 42.127q-14.8682 13.6289 -14.8682 33.4551q0 14.8691 8.67285 34.6934
q7.43457 16.1074 19.8252 30.9766q11.1514 13.6289 21.0635 19.8242q14.8691 8.67383 18.5859 17.3457q1.23926 2.47852 1.23926 6.19531q0 7.43555 -2.47852 17.3477q-2.47754 13.6289 -13.6289 13.6289q-4.95605 0 -13.6299 -3.7168q-6.19531 2.47852 -9.91211 2.47852
q-7.43457 0 -9.91309 -6.19531q-7.43359 8.67383 -13.6289 11.1504h-2.47852q-2.47754 0 -3.7168 -1.23828q-2.47852 -3.7168 -2.47852 -9.91211q-3.7168 -17.3477 -11.1514 -34.6934q-4.95605 -11.1523 -14.8682 -26.0195q-16.1074 -26.0215 -16.1074 -33.4551v-1.23828
q1.23828 -6.19531 1.23828 -23.543v-19.8242l-1.23828 -13.6309v-29.7363q2.47754 -8.67383 2.47754 -17.3457q0 -19.8262 -9.91211 -38.4121q-12.3906 -27.2578 -39.6494 -40.8887q-52.04 -27.2578 -61.9531 -85.4941q-65.6689 43.3672 -117.709 43.3672
q-27.2598 0 -50.8008 -11.1504q-23.542 -11.1523 -42.1279 -34.6934q-6.19531 -7.43555 -13.6299 -17.3477l-3.7168 -7.43359l-2.47852 -2.47852l-1.23926 -2.47852q-6.19434 -9.91211 -11.1514 -30.9766q-2.47754 -16.1074 -2.47754 -28.498v-8.67383
q0 -17.3457 7.43457 -17.3457q8.67285 1.23828 23.541 28.498q29.7373 53.2793 95.4072 53.2793q24.7812 0 47.084 -7.43359q21.0635 -7.43555 28.498 -17.3477q40.8887 -29.7363 91.6895 -40.8887q37.1719 -32.2148 99.124 -33.4551h9.91211q53.2793 0 110.275 23.543
q58.2354 27.2598 120.188 27.2598q37.1719 0 75.582 -9.91406q35.9326 -17.3457 59.4746 -27.2578q-6.19531 -12.3906 -6.19531 -23.543q0 -12.3906 6.19531 -23.541q26.0205 3.7168 48.3232 16.1074q0 -28.498 6.19531 -28.498q1.23828 0 2.47754 1.23828
q1.23926 1.24023 3.71777 4.95703l4.95605 7.43359q4.95605 7.43555 8.67285 8.67383q12.3906 6.19531 17.3467 18.5859q16.1074 7.43359 35.9326 22.3027q21.0635 17.3457 23.542 30.9766q3.7168 19.8242 69.3867 54.5176z" />
</svg>
