<?xml version="1.0" standalone="no"?>
<!DOCTYPE svg PUBLIC "-//W3C//DTD SVG 1.1//EN" "http://www.w3.org/Graphics/SVG/1.1/DTD/svg11.dtd" >
<svg xmlns="http://www.w3.org/2000/svg" xmlns:xlink="http://www.w3.org/1999/xlink" version="1.1" viewBox="-10 0 1046 1000">
   <path fill="currentColor"
d="M1024 102.797q1.28125 3.84473 1.28125 7.68945q0 17.9424 -38.4473 41.0107q-2.56348 7.69043 -15.3799 7.69043q-11.5342 0 -28.1953 -5.12695q-8.9707 -2.56348 -16.6602 -2.56348q-15.3799 0 -28.1953 10.2529q-14.0977 10.2529 -46.1377 55.1094
q-38.4482 53.8271 -155.074 108.936q5.12695 34.6035 6.4082 64.0801v2.56348q0 15.3799 -16.6611 24.3506l-7.68945 3.84473l-7.68945 3.84473q-8.97168 3.84473 -14.0977 7.68945q-30.7588 23.0693 -69.207 26.9141q-6.40723 0 -6.40723 -3.84473
q0 -6.4082 14.0977 -23.0693v-2.5625q0 -6.4082 11.5342 -16.6611q12.8154 -11.5342 21.7871 -12.8164l3.84473 -1.28125h5.12695q3.84473 -1.28125 6.40723 -2.56348q7.68945 -2.5625 8.97168 -14.0977v-2.5625q0 -16.6611 -26.9141 -44.8564
q-5.12598 21.7871 -15.3789 42.293q-1.28125 2.56348 -3.84473 11.5342l-1.28223 6.4082l-2.5625 6.4082q-7.68945 15.3789 -30.7588 15.3789q-43.5742 3.84473 -79.459 32.04q-2.56348 2.56348 -5.12695 2.56348q-6.40723 0 -8.9707 -14.0977q-10.2529 0 -10.2529 -11.5342
q6.4082 -17.9424 23.0684 -29.4775q11.5352 -10.2529 30.7588 -17.9424q6.4082 -2.5625 14.0977 -5.12598l6.4082 -2.56348l6.4082 -1.28125q12.8154 -5.12695 12.8154 -7.68945q3.84473 -8.97168 10.2529 -65.3623q-5.12598 -11.5342 -20.5059 -21.7871
q-12.8154 -7.68945 -30.7578 -15.3789q-21.7871 -8.97168 -41.0117 -12.8164q0 34.6035 -10.2529 51.2646q-7.68945 15.3789 -41.0107 43.5742q-15.3799 14.0977 -15.3799 34.6035q0 15.3789 8.97168 35.8848q7.68945 16.6602 20.5059 32.04
q11.5342 14.0977 21.7871 20.5049q15.3789 8.97168 19.2236 17.9424q1.28223 2.56348 1.28223 6.4082q0 7.68945 -2.56348 17.9424q-2.56348 14.0977 -14.0977 14.0977q-5.12695 0 -14.0977 -3.84473q-6.4082 2.56348 -10.2529 2.56348q-7.68945 0 -10.2529 -6.4082
q-7.68945 8.97168 -14.0977 11.5342h-2.5625q-2.56348 0 -3.8457 -1.28125q-2.5625 -3.84473 -2.5625 -10.2529q-3.84473 -17.9424 -11.5352 -35.8848q-5.12598 -11.5342 -15.3789 -26.9141q-16.6611 -26.9131 -16.6611 -34.6025v-1.28223
q1.28223 -6.40723 1.28223 -24.3506v-20.5049l-1.28223 -14.0977v-30.7588q2.56348 -8.9707 2.56348 -17.9424q0 -20.5059 -10.2529 -39.7295q-12.8154 -28.1953 -41.0107 -42.293q-53.8271 -28.1953 -64.0801 -88.4307q-67.9248 44.8564 -121.753 44.8564
q-28.1943 0 -52.5449 -11.5352q-24.3506 -11.5342 -43.5752 -35.8848q-6.40723 -7.68945 -14.0977 -17.9424l-3.84473 -7.68945l-2.5625 -2.56348l-1.28223 -2.5625q-6.40723 -10.2529 -11.5342 -32.04q-2.56348 -16.6611 -2.56348 -29.4775v-8.9707
q0 -17.9424 7.69043 -17.9424q8.9707 1.28125 24.3496 29.4766q30.7588 55.1094 98.6836 55.1094q25.6318 0 48.7012 -7.69043q21.7871 -7.68945 29.4766 -17.9424q42.293 -30.7578 94.8389 -42.292q38.4482 -33.3223 102.528 -34.6035h10.2529q55.1084 0 114.062 24.3506
q60.2354 28.1953 124.315 28.1953q38.4473 0 78.1777 -10.2529q37.166 -17.9424 61.5166 -28.1953q-6.4082 -12.8164 -6.4082 -24.3506q0 -12.8164 6.4082 -24.3506q26.9131 3.84473 49.9824 16.6611q0 -29.4775 6.4082 -29.4775q1.28125 0 2.5625 1.28223
q1.28223 1.28125 3.8457 5.12598l5.12598 7.68945q5.12598 7.69043 8.9707 8.97168q12.8164 6.4082 17.9434 19.2236q16.6602 7.69043 37.166 23.0693q21.7871 17.9424 24.3506 32.04q3.84473 20.5059 71.7695 56.3906z" />
</svg>
