<?xml version="1.0" standalone="no"?>
<!DOCTYPE svg PUBLIC "-//W3C//DTD SVG 1.1//EN" "http://www.w3.org/Graphics/SVG/1.1/DTD/svg11.dtd" >
<svg xmlns="http://www.w3.org/2000/svg" xmlns:xlink="http://www.w3.org/1999/xlink" version="1.1" viewBox="-10 0 1034 1000">
   <path fill="currentColor"
d="M684 53q0 10.667 8 17.333q6.66699 8 17.333 8q10.667 0 17.334 -8q8 -6.66602 8 -17.333t-8 -17.333q-6.66699 -8 -17.334 -8q-10.666 0 -17.333 8q-8 6.66602 -8 17.333zM497.333 705q-18.666 -40 -20 -84q-2.66602 -13.333 -6.66602 -25.333
q-12 6.66602 -21.334 14.666q-9.33301 9.33398 -24 26.667l-22.666 28q-10.667 12 -24 21.333q-1.33398 -32 -1.33398 -62.666q0 -42.667 2.66699 -84l-4 -2.66699q-10.667 6.66699 -21.333 16l-38.667 38.667l-37.333 40q-4 4 -10.667 9.33301l-6.66699 5.33301
l-6.66602 6.66699q-4 -12 -5.33398 -24l1.33398 -69.333l1.33301 -69.334l1.33301 -14.666v-8l1.33398 -9.33398l-76 60l-4 -2.66602v-18.667q10.666 -128 62.666 -244q62.667 -144 181.334 -246.667q68 -58.666 156 -70.666q17.333 -2.66699 34.666 -2.66699
q52 0 98.667 24q61.333 28 77.333 94.667q5.33398 18.666 20 30.666q13.334 10.667 34.667 28l17.333 14.667l17.334 14.667q8 8 16 17.333q-12 2.66699 -24 4h-94.667q-61.333 0 -112 37.333q-13.333 12 -33.333 32l-17.334 17.334l-16 16q-22.666 20 -49.333 36
q-13.333 8 -26.667 8q-6.66602 0 -13.333 -1.33398q-22.667 -5.33301 -34.667 -24l-12 -13.333l-2.66602 1.33301q0 8 1.33301 16q8 24 30.667 37.334q16 9.33301 34.666 9.33301q5.33398 0 12 -1.33301q22.667 -4 44 -12q10.667 -4 20 -9.33398l5.33398 17.334l4 17.333
q6.66602 20 8 33.333q24 120 100 216q14.666 18.667 17.333 42.667v5.33301q0 21.334 -10.667 40q-10.666 18.667 -24 36q-6.66602 10.667 -10.666 10.667t-13.334 -8q-33.333 -30.667 -53.333 -70.667l-5.33301 -12l-6.66699 -12q-5.33301 -8 -9.33301 -8h-1.33398
q-4 0 -9.33301 5.33398q-13.333 13.333 -25.333 29.333l-20 29.333l-20 29.334q-1.33398 2.66602 -5.33398 6.66602l-4 4l-4 5.33398q-6.66602 -10.667 -12 -22.667zM796 190.333q-8 5.33398 -16 10.667q-16 6.66699 -16 20q0 6.66699 4 13.333q16 30.667 29.333 64
q12 33.334 14.667 68v6.66699q0 18.667 -12 28q-8 6.66699 -20 6.66699q-6.66699 0 -16 -2.66699q-38.667 -8 -68 -33.333q-29.333 -25.334 -41.333 -62.667q-5.33398 -14.667 -5.33398 -30.667q0 -21.333 10.667 -42.666q18.667 -34.667 56 -46.667
q6.66699 -1.33301 13.333 -2.66699q24 -4 50.667 -4q8 0 14.667 4zM520 -77.667l-9.33301 1.33398q-10.667 0 -17.334 1.33301q-40 9.33301 -73.333 34.667q-16 10.666 -33.333 18.666q-16 5.33398 -32 5.33398q-9.33398 0 -18.667 -1.33398q-25.333 -6.66602 -44 -26.666
q-13.333 -18.667 -13.333 -40v-8q4 -28 24 -45.334q30.666 -26.666 69.333 -30.666q9.33301 -1.33398 17.333 -1.33398q30.667 0 58.667 14.667q46.667 28 78.667 73.333l1.33301 4h-8zM666.667 -76.333l-29.334 -6.66699q-61.333 -6.66699 -112 -44q-36 -28 -52 -70.667
q-6.66602 -13.333 -6.66602 -26.666q0 -5.33398 1.33301 -10.667q2.66699 -20 17.333 -33.333q22.667 -26.667 53.334 -26.667q10.666 0 21.333 2.66699q26.667 6.66602 44 26.666q17.333 21.334 17.333 49.334l4 54.666q4 44 34.667 74.667l8 8zM772 -24.333
q-20 -18.667 -44 -33.334q-25.333 -16 -48 -36q-14.667 -18.666 -14.667 -41.333v-4q1.33398 -25.333 18.667 -44q17.333 -17.333 42.667 -18.667h4q22.666 0 40 16v1.33398q28 21.333 38.666 54.666q6.66699 20 6.66699 40q0 14.667 -2.66699 28
q-6.66602 30.667 -17.333 60q-2.66699 5.33398 -5.33301 9.33398q-6.66699 -17.334 -18.667 -32zM692 35.667q6.66699 -8 17.333 -8q9.33398 0 17.334 8q6.66602 6.66602 8 17.333q0 10.667 -8 17.333q-6.66699 8 -17.334 8q-10.666 0 -17.333 -8q-8 -6.66602 -8 -17.333
q0 -9.33301 8 -17.333z" />
</svg>
