<?xml version="1.0" standalone="no"?>
<!DOCTYPE svg PUBLIC "-//W3C//DTD SVG 1.1//EN" "http://www.w3.org/Graphics/SVG/1.1/DTD/svg11.dtd" >
<svg xmlns="http://www.w3.org/2000/svg" xmlns:xlink="http://www.w3.org/1999/xlink" version="1.1" viewBox="-10 0 831 1000">
   <path fill="currentColor"
d="M492.422 341.445q0 10.3125 7.73438 16.7578q6.44531 7.73438 16.7578 7.73438t16.7578 -7.73438q7.73438 -6.44531 7.73438 -16.7578t-7.73438 -16.7578q-6.44531 -7.73438 -16.7578 -7.73438t-16.7578 7.73438q-7.73438 6.44531 -7.73438 16.7578zM311.953 971.797
q-18.0469 -38.6719 -19.3359 -81.2109q-2.57812 -12.8906 -6.44531 -24.4922q-11.6016 6.44531 -20.625 14.1797q-9.02344 9.02344 -23.2031 25.7812l-21.9141 27.0703q-10.3125 11.6016 -23.2031 20.625q-1.28906 -30.9375 -1.28906 -60.5859q0 -41.25 2.57812 -81.2109
l-3.86719 -2.57812q-10.3125 6.44531 -20.625 15.4688l-37.3828 37.3828l-36.0938 38.6719q-3.86719 3.86719 -10.3125 9.02344l-6.44531 5.15625l-6.44531 6.44531q-3.86719 -11.6016 -5.15625 -23.2031l1.28906 -67.0312l1.28906 -67.0312l1.28906 -14.1797v-7.73438
l1.28906 -9.02344l-73.4766 58.0078l-3.86719 -2.57812v-18.0469q10.3125 -123.75 60.5859 -235.898q60.5859 -139.219 175.312 -238.477q65.7422 -56.7188 150.82 -68.3203q16.7578 -2.57812 33.5156 -2.57812q50.2734 0 95.3906 23.2031q59.2969 27.0703 74.7656 91.5234
q5.15625 18.0469 19.3359 29.6484q12.8906 10.3125 33.5156 27.0703l16.7578 14.1797l16.7578 14.1797q7.73438 7.73438 15.4688 16.7578q-11.6016 2.57812 -23.2031 3.86719h-91.5234q-59.2969 0 -108.281 36.0938q-12.8906 11.6016 -32.2266 30.9375l-16.7578 16.7578
l-15.4688 15.4688q-21.9141 19.3359 -47.6953 34.8047q-12.8906 7.73438 -25.7812 7.73438q-6.44531 0 -12.8906 -1.28906q-21.9141 -5.15625 -33.5156 -23.2031l-11.6016 -12.8906l-2.57812 1.28906q0 7.73438 1.28906 15.4688q7.73438 23.2031 29.6484 36.0938
q15.4688 9.02344 33.5156 9.02344q5.15625 0 11.6016 -1.28906q21.9141 -3.86719 42.5391 -11.6016q10.3125 -3.86719 19.3359 -9.02344l5.15625 16.7578l3.86719 16.7578q6.44531 19.3359 7.73438 32.2266q23.2031 116.016 96.6797 208.828q14.1797 18.0469 16.7578 41.25
v5.15625q0 20.625 -10.3125 38.6719t-23.2031 34.8047q-6.44531 10.3125 -10.3125 10.3125t-12.8906 -7.73438q-32.2266 -29.6484 -51.5625 -68.3203l-5.15625 -11.6016l-6.44531 -11.6016q-5.15625 -7.73438 -9.02344 -7.73438h-1.28906q-3.86719 0 -9.02344 5.15625
q-12.8906 12.8906 -24.4922 28.3594l-19.3359 28.3594l-19.3359 28.3594q-1.28906 2.57812 -5.15625 6.44531l-3.86719 3.86719l-3.86719 5.15625q-6.44531 -10.3125 -11.6016 -21.9141zM600.703 474.219l-15.4688 10.3125q-15.4688 6.44531 -15.4688 19.3359
q0 6.44531 3.86719 12.8906q15.4688 29.6484 28.3594 61.875q11.6016 32.2266 14.1797 65.7422v6.44531q0 18.0469 -11.6016 27.0703q-7.73438 6.44531 -19.3359 6.44531q-6.44531 0 -15.4688 -2.57812q-37.3828 -7.73438 -65.7422 -32.2266t-39.9609 -60.5859
q-5.15625 -14.1797 -5.15625 -29.6484q0 -20.625 10.3125 -41.25q18.0469 -33.5156 54.1406 -45.1172l12.8906 -2.57812q23.2031 -3.86719 48.9844 -3.86719q7.73438 0 14.1797 3.86719zM333.867 215.117l-9.02344 1.28906q-10.3125 0 -16.7578 1.28906
q-38.6719 9.02344 -70.8984 33.5156q-15.4688 10.3125 -32.2266 18.0469q-15.4688 5.15625 -30.9375 5.15625q-9.02344 0 -18.0469 -1.28906q-24.4922 -6.44531 -42.5391 -25.7812q-12.8906 -18.0469 -12.8906 -38.6719v-7.73438q3.86719 -27.0703 23.2031 -43.8281
q29.6484 -25.7812 67.0312 -29.6484q9.02344 -1.28906 16.7578 -1.28906q29.6484 0 56.7188 14.1797q45.1172 27.0703 76.0547 70.8984l1.28906 3.86719h-7.73438zM475.664 216.406l-28.3594 -6.44531q-59.2969 -6.44531 -108.281 -42.5391
q-34.8047 -27.0703 -50.2734 -68.3203q-6.44531 -12.8906 -6.44531 -25.7812q0 -5.15625 1.28906 -10.3125q2.57812 -19.3359 16.7578 -32.2266q21.9141 -25.7812 51.5625 -25.7812q10.3125 0 20.625 2.57812q25.7812 6.44531 42.5391 25.7812
q16.7578 20.625 16.7578 47.6953l3.86719 52.8516q3.86719 42.5391 33.5156 72.1875l7.73438 7.73438zM577.5 266.68q-19.3359 -18.0469 -42.5391 -32.2266q-24.4922 -15.4688 -46.4062 -34.8047q-14.1797 -18.0469 -14.1797 -39.9609v-3.86719
q1.28906 -24.4922 18.0469 -42.5391q16.7578 -16.7578 41.25 -18.0469h3.86719q21.9141 0 38.6719 15.4688v1.28906q27.0703 20.625 37.3828 52.8516q6.44531 19.3359 6.44531 38.6719q0 14.1797 -2.57812 27.0703q-6.44531 29.6484 -16.7578 58.0078
q-2.57812 5.15625 -5.15625 9.02344q-6.44531 -16.7578 -18.0469 -30.9375zM500.156 324.688q6.44531 -7.73438 16.7578 -7.73438q9.02344 0 16.7578 7.73438q6.44531 6.44531 7.73438 16.7578q0 10.3125 -7.73438 16.7578q-6.44531 7.73438 -16.7578 7.73438
t-16.7578 -7.73438q-7.73438 -6.44531 -7.73438 -16.7578q0 -9.02344 7.73438 -16.7578z" />
</svg>
