<?xml version="1.0" standalone="no"?>
<!DOCTYPE svg PUBLIC "-//W3C//DTD SVG 1.1//EN" "http://www.w3.org/Graphics/SVG/1.1/DTD/svg11.dtd" >
<svg xmlns="http://www.w3.org/2000/svg" xmlns:xlink="http://www.w3.org/1999/xlink" version="1.1" viewBox="-10 0 1010 1000">
   <path fill="currentColor"
d="M513.047 190.625v-1.28906q-1.28906 -1.28906 -3.86719 -1.28906h-28.3594q-2.57812 0 -2.57812 1.28906q-1.28906 0 -1.28906 1.28906t-1.28906 1.28906q-1.28906 1.28906 -5.15625 1.28906h-5.15625q-1.28906 1.28906 -1.28906 2.57812l-1.28906 1.28906h-1.28906
q-1.28906 0 -2.57812 1.28906v3.86719h-1.28906q-1.28906 0 -2.57812 1.28906l-2.57812 2.57812l-2.57812 2.57812t-1.28906 2.57812v1.28906h-2.57812l-1.28906 1.28906q-1.28906 1.28906 -1.28906 3.86719q-1.28906 1.28906 -1.28906 3.86719l-1.28906 1.28906
q-1.28906 0 -1.28906 1.28906v2.57812q0 1.28906 -1.28906 2.57812l-1.28906 2.57812q-2.57812 0 -2.57812 3.86719v29.6484q0 1.28906 1.28906 2.57812q0 1.28906 1.28906 1.28906q2.57812 0 2.57812 3.86719v3.86719q1.28906 1.28906 1.28906 2.57812
q1.28906 0 2.57812 1.28906v3.86719q0 1.28906 1.28906 2.57812q0 1.28906 1.28906 1.28906h2.57812v2.57812q0 1.28906 1.28906 1.28906q0 1.28906 1.28906 1.28906h1.28906q1.28906 1.28906 1.28906 2.57812l1.28906 1.28906q0 1.28906 1.28906 1.28906h1.28906
l1.28906 1.28906q0 1.28906 1.28906 2.57812h2.57812q1.28906 0 3.86719 1.28906l1.28906 1.28906q0 1.28906 2.57812 2.57812h3.86719q3.86719 0 3.86719 2.57812q0 1.28906 1.28906 1.28906l2.57812 1.28906h28.3594q1.28906 -1.28906 2.57812 -1.28906v-1.28906
q0 -2.57812 5.15625 -2.57812t5.15625 -2.57812t5.15625 -2.57812t5.15625 -2.57812v-1.28906h1.28906q1.28906 0 2.57812 -1.28906v-1.28906q0 -1.28906 1.28906 -2.57812h1.28906q1.28906 0 2.57812 -1.28906v-1.28906q0 -1.28906 1.28906 -2.57812h1.28906
q2.57812 0 2.57812 -5.15625t2.57812 -5.15625t2.57812 -5.15625q0 -3.86719 2.57812 -3.86719l1.28906 -1.28906v-2.57812q1.28906 -3.86719 1.28906 -15.4688q0 -10.3125 -1.28906 -14.1797v-2.57812l-1.28906 -1.28906q-2.57812 0 -2.57812 -3.86719
q0 -5.15625 -2.57812 -5.15625t-2.57812 -5.15625t-2.57812 -5.15625q-1.28906 0 -1.28906 -1.28906q-1.28906 0 -1.28906 -1.28906v-1.28906q-1.28906 -1.28906 -2.57812 -1.28906h-1.28906q-1.28906 -1.28906 -1.28906 -2.57812v-1.28906
q-1.28906 -1.28906 -2.57812 -1.28906h-1.28906v-2.57812l-1.28906 -1.28906l-1.28906 -1.28906h-2.57812v-1.28906q0 -1.28906 -2.57812 -2.57812h-5.15625q-3.86719 0 -6.44531 -1.28906q-1.28906 0 -1.28906 -1.28906zM439.57 6.28906q15.4688 -1.28906 67.0312 -1.28906
t68.3203 1.28906q12.8906 0 18.0469 1.28906q3.86719 0 3.86719 1.28906t2.57812 1.28906q2.57812 1.28906 9.02344 1.28906h9.02344q2.57812 1.28906 3.86719 2.57812q1.28906 2.57812 7.73438 2.57812h6.44531q1.28906 1.28906 1.28906 2.57812t2.57812 1.28906
q1.28906 1.28906 6.44531 1.28906h7.73438q1.28906 0 1.28906 1.28906q0 2.57812 6.44531 2.57812q5.15625 0 5.15625 2.57812q0 1.28906 1.28906 2.57812h5.15625q7.73438 0 7.73438 2.57812l2.57812 2.57812h3.86719q3.86719 0 3.86719 2.57812q0 1.28906 2.57812 1.28906
q1.28906 1.28906 5.15625 1.28906q6.44531 0 6.44531 2.57812q1.28906 1.28906 2.57812 1.28906q1.28906 1.28906 2.57812 1.28906h3.86719q1.28906 1.28906 1.28906 2.57812q1.28906 0 2.57812 1.28906t2.57812 1.28906h2.57812q1.28906 1.28906 2.57812 1.28906
q0 1.28906 1.28906 2.57812h3.86719q1.28906 0 2.57812 1.28906q1.28906 0 1.28906 1.28906v2.57812h2.57812q1.28906 0 2.57812 1.28906q1.28906 0 1.28906 1.28906l2.57812 2.57812h2.57812q2.57812 0 3.86719 1.28906q1.28906 0 1.28906 1.28906v1.28906
q1.28906 1.28906 3.86719 1.28906q1.28906 0 2.57812 1.28906q1.28906 0 2.57812 1.28906q0 1.28906 1.28906 1.28906q1.28906 1.28906 2.57812 1.28906h3.86719q1.28906 1.28906 1.28906 2.57812l1.28906 1.28906q1.28906 1.28906 2.57812 1.28906h1.28906
q1.28906 1.28906 1.28906 2.57812v1.28906h2.57812l1.28906 1.28906l1.28906 1.28906v2.57812h3.86719q1.28906 0 2.57812 1.28906q1.28906 0 2.57812 1.28906q0 1.28906 1.28906 2.57812h1.28906q1.28906 0 2.57812 1.28906v1.28906q0 1.28906 1.28906 1.28906
q1.28906 1.28906 2.57812 1.28906h3.86719v2.57812q0 1.28906 1.28906 1.28906l1.28906 1.28906h2.57812q1.28906 1.28906 1.28906 2.57812t1.28906 1.28906q1.28906 1.28906 2.57812 1.28906h1.28906v2.57812l1.28906 1.28906h1.28906q1.28906 0 2.57812 1.28906v1.28906
q0 1.28906 1.28906 2.57812h1.28906q1.28906 0 2.57812 1.28906v1.28906q0 1.28906 1.28906 2.57812h1.28906q1.28906 0 1.28906 1.28906q1.28906 0 1.28906 1.28906t1.28906 1.28906q1.28906 1.28906 2.57812 1.28906t2.57812 1.28906t1.28906 3.86719t1.28906 3.86719
t3.86719 1.28906q5.15625 0 5.15625 2.57812l1.28906 1.28906q0 1.28906 1.28906 1.28906h1.28906l1.28906 1.28906v2.57812h2.57812q1.28906 0 1.28906 1.28906q1.28906 0 1.28906 1.28906v2.57812l2.57812 2.57812l2.57812 2.57812t1.28906 2.57812v1.28906
q1.28906 1.28906 2.57812 1.28906h1.28906q1.28906 1.28906 1.28906 2.57812v1.28906q1.28906 1.28906 2.57812 1.28906h1.28906q1.28906 1.28906 1.28906 2.57812v1.28906l1.28906 1.28906h2.57812v1.28906q0 1.28906 5.15625 6.44531q2.57812 2.57812 3.86719 5.15625
q1.28906 1.28906 1.28906 2.57812t1.28906 2.57812q0 1.28906 1.28906 1.28906t1.28906 1.28906q1.28906 0 1.28906 1.28906v1.28906q1.28906 1.28906 2.57812 1.28906h1.28906l1.28906 1.28906v2.57812q1.28906 1.28906 2.57812 1.28906q0 1.28906 1.28906 3.86719
q1.28906 1.28906 1.28906 2.57812v2.57812h1.28906q1.28906 0 2.57812 1.28906v1.28906q0 1.28906 1.28906 2.57812q1.28906 0 1.28906 1.28906q1.28906 0 2.57812 1.28906v3.86719q0 1.28906 1.28906 2.57812q0 1.28906 1.28906 1.28906h2.57812v1.28906
q0 1.28906 1.28906 2.57812q0 1.28906 1.28906 1.28906q1.28906 1.28906 1.28906 3.86719q1.28906 1.28906 1.28906 2.57812t1.28906 2.57812h1.28906q2.57812 0 2.57812 5.15625t2.57812 5.15625t2.57812 5.15625t2.57812 5.15625h1.28906v2.57812
q0 1.28906 1.28906 2.57812t1.28906 2.57812l2.57812 2.57812v1.28906q0 1.28906 1.28906 2.57812h1.28906q0 1.28906 1.28906 2.57812q0 2.57812 1.28906 5.15625q0 3.86719 1.28906 5.15625q0 2.57812 1.28906 2.57812t2.57812 1.28906v2.57812q0 2.57812 1.28906 3.86719
q0 2.57812 1.28906 2.57812q2.57812 0 2.57812 7.73438v5.15625q1.28906 1.28906 2.57812 1.28906q2.57812 0 2.57812 5.15625v2.57812q0 2.57812 1.28906 2.57812t1.28906 2.57812q1.28906 1.28906 1.28906 3.86719t1.28906 5.15625l1.28906 2.57812
q1.28906 1.28906 1.28906 3.86719q1.28906 2.57812 1.28906 6.44531q1.28906 9.02344 2.57812 9.02344t2.57812 2.57812v5.15625q0 2.57812 1.28906 5.15625q0 3.86719 1.28906 5.15625t1.28906 5.15625q1.28906 2.57812 1.28906 7.73438v6.44531
q1.28906 2.57812 2.57812 2.57812q1.28906 1.28906 2.57812 32.2266q1.28906 32.2266 1.28906 86.3672q0 47.6953 -1.28906 60.5859q0 11.6016 -2.57812 14.1797q-1.28906 2.57812 -1.28906 6.44531q-1.28906 2.57812 -1.28906 6.44531v6.44531
q-1.28906 2.57812 -2.57812 2.57812q-2.57812 1.28906 -2.57812 9.02344v6.44531q-1.28906 2.57812 -2.57812 3.86719t-1.28906 3.86719q-1.28906 2.57812 -1.28906 6.44531v5.15625q-1.28906 1.28906 -2.57812 1.28906t-1.28906 1.28906q-1.28906 1.28906 -1.28906 5.15625
q0 6.44531 -1.28906 7.73438q-2.57812 1.28906 -2.57812 7.73438t-2.57812 6.44531l-2.57812 2.57812v3.86719q0 3.86719 -2.57812 3.86719q-1.28906 0 -1.28906 1.28906q-1.28906 1.28906 -1.28906 3.86719q0 1.28906 -1.28906 3.86719q-1.28906 3.86719 -2.57812 6.44531
q-2.57812 6.44531 -2.57812 7.73438v1.28906l-1.28906 1.28906q-1.28906 0 -2.57812 3.86719q-2.57812 2.57812 -5.15625 7.73438q-1.28906 5.15625 -3.86719 9.02344t-3.86719 3.86719l-1.28906 1.28906v2.57812q0 1.28906 -1.28906 3.86719q0 1.28906 -1.28906 1.28906
t-2.57812 2.57812q0 1.28906 -1.28906 3.86719q0 1.28906 -1.28906 2.57812q0 1.28906 -1.28906 1.28906l-1.28906 1.28906v2.57812q-1.28906 1.28906 -2.57812 1.28906t-1.28906 1.28906q-1.28906 1.28906 -1.28906 2.57812v2.57812l-2.57812 2.57812
q0 1.28906 -1.28906 2.57812l-1.28906 1.28906v1.28906l-1.28906 1.28906h-2.57812q-1.28906 1.28906 -1.28906 3.86719q0 1.28906 -1.28906 3.86719l-3.86719 3.86719q-3.86719 3.86719 -3.86719 6.44531l-1.28906 1.28906h-1.28906q-1.28906 0 -1.28906 1.28906
q-1.28906 1.28906 -1.28906 2.57812q-1.28906 1.28906 -2.57812 3.86719t-2.57812 3.86719l-3.86719 3.86719t-1.28906 2.57812v1.28906h-2.57812l-1.28906 1.28906v1.28906q0 1.28906 -1.28906 2.57812h-1.28906q-1.28906 0 -2.57812 1.28906v1.28906
q0 1.28906 -1.28906 1.28906q0 1.28906 -1.28906 1.28906t-2.57812 1.28906v1.28906q0 1.28906 -1.28906 1.28906q0 1.28906 -1.28906 1.28906h-1.28906l-1.28906 1.28906q0 1.28906 -1.28906 2.57812q0 2.57812 -2.57812 3.86719q-1.28906 1.28906 -1.28906 2.57812
l-1.28906 1.28906q0 1.28906 -3.86719 5.15625q-2.57812 2.57812 -5.15625 2.57812v1.28906q-1.28906 0 -1.28906 1.28906t-1.28906 2.57812h-2.57812q-2.57812 0 -2.57812 1.28906q-1.28906 0 -1.28906 1.28906t-1.28906 1.28906q0 1.28906 -1.28906 1.28906h-1.28906
q-1.28906 1.28906 -1.28906 2.57812t-1.28906 1.28906q0 1.28906 -1.28906 1.28906h-1.28906q-1.28906 1.28906 -1.28906 2.57812v1.28906q-1.28906 1.28906 -2.57812 1.28906h-1.28906l-1.28906 1.28906v2.57812h-2.57812l-1.28906 1.28906l-1.28906 1.28906
q0 1.28906 -1.28906 2.57812h-2.57812q-1.28906 0 -1.28906 1.28906q-1.28906 0 -1.28906 1.28906t-1.28906 2.57812h-2.57812q-1.28906 0 -2.57812 1.28906q-1.28906 0 -1.28906 1.28906t-1.28906 1.28906q0 1.28906 -1.28906 1.28906h-1.28906
q-1.28906 1.28906 -1.28906 2.57812t-1.28906 1.28906q0 1.28906 -1.28906 1.28906h-2.57812q-1.28906 1.28906 -1.28906 2.57812t-1.28906 1.28906q-1.28906 1.28906 -2.57812 1.28906h-3.86719v2.57812l-1.28906 1.28906h-2.57812q-1.28906 0 -2.57812 1.28906
l-1.28906 1.28906v2.57812h-3.86719q-1.28906 0 -2.57812 1.28906q-1.28906 0 -1.28906 1.28906t-1.28906 2.57812h-2.57812q-1.28906 0 -1.28906 1.28906q-1.28906 0 -1.28906 1.28906t-1.28906 1.28906q-1.28906 1.28906 -2.57812 1.28906t-3.86719 1.28906
q-1.28906 0 -1.28906 1.28906t-1.28906 1.28906q-2.57812 1.28906 -3.86719 1.28906h-2.57812q-1.28906 1.28906 -1.28906 2.57812l-1.28906 1.28906q-1.28906 1.28906 -2.57812 1.28906h-2.57812v2.57812q0 1.28906 -5.15625 1.28906q-2.57812 0 -3.86719 1.28906
l-1.28906 1.28906l-2.57812 2.57812h-2.57812q-2.57812 0 -3.86719 1.28906q-1.28906 0 -2.57812 1.28906t-3.86719 2.57812h-11.6016q0 -1.28906 -1.28906 -1.28906v-2.57812q0 -2.57812 1.28906 -2.57812q0 -1.28906 1.28906 -1.28906t2.57812 -1.28906v-1.28906
q0 -1.28906 1.28906 -2.57812h1.28906q2.57812 0 2.57812 -5.15625t2.57812 -5.15625h1.28906q1.28906 -1.28906 1.28906 -2.57812v-1.28906q1.28906 -1.28906 2.57812 -1.28906h1.28906q1.28906 -1.28906 1.28906 -2.57812v-1.28906h2.57812q1.28906 0 1.28906 -5.15625
t2.57812 -5.15625q1.28906 0 2.57812 -1.28906v-1.28906q0 -1.28906 1.28906 -1.28906q0 -1.28906 1.28906 -1.28906q2.57812 0 2.57812 -5.15625t2.57812 -5.15625t2.57812 -3.86719q0 -5.15625 2.57812 -5.15625t2.57812 -5.15625t2.57812 -5.15625t2.57812 -5.15625
t2.57812 -5.15625t2.57812 -5.15625q0 -3.86719 1.28906 -3.86719t2.57812 -2.57812v-5.15625q0 -3.86719 1.28906 -6.44531q0 -1.28906 1.28906 -1.28906t2.57812 -1.28906v-6.44531q0 -2.57812 1.28906 -5.15625q0 -2.57812 1.28906 -3.86719
q2.57812 -1.28906 2.57812 -11.6016v-9.02344q1.28906 -2.57812 2.57812 -2.57812t1.28906 -1.28906t1.28906 -5.15625v-67.0312q-1.28906 -3.86719 -1.28906 -5.15625t-1.28906 -1.28906t-2.57812 -2.57812v-20.625q-1.28906 -2.57812 -2.57812 -2.57812t-1.28906 -1.28906
q-1.28906 -2.57812 -1.28906 -7.73438v-7.73438q-1.28906 -2.57812 -2.57812 -2.57812t-1.28906 -1.28906q-1.28906 -1.28906 -1.28906 -6.44531v-5.15625q-1.28906 -1.28906 -2.57812 -1.28906t-1.28906 -5.15625t-2.57812 -5.15625t-2.57812 -5.15625t-2.57812 -5.15625
t-2.57812 -3.86719q0 -2.57812 -1.28906 -3.86719q0 -2.57812 -1.28906 -2.57812t-1.28906 -1.28906q-1.28906 -2.57812 -1.28906 -3.86719t-1.28906 -2.57812q0 -1.28906 -1.28906 -1.28906q-2.57812 0 -2.57812 -5.15625t-2.57812 -5.15625h-1.28906
q-1.28906 -1.28906 -1.28906 -2.57812v-1.28906q-1.28906 -1.28906 -2.57812 -1.28906l-1.28906 -2.57812q-1.28906 -1.28906 -1.28906 -2.57812v-2.57812l-1.28906 -1.28906q-1.28906 0 -2.57812 -1.28906v-1.28906q0 -1.28906 -1.28906 -2.57812h-1.28906
q-1.28906 0 -2.57812 -1.28906v-1.28906q0 -1.28906 -1.28906 -1.28906q0 -1.28906 -1.28906 -1.28906h-1.28906l-1.28906 -1.28906q0 -1.28906 -1.28906 -3.86719t-3.86719 -5.15625q-5.15625 -6.44531 -5.15625 -7.73438v-1.28906h-2.57812l-1.28906 -1.28906
l-1.28906 -1.28906v-2.57812h-2.57812l-1.28906 -1.28906v-1.28906q0 -1.28906 -1.28906 -1.28906l-1.28906 -1.28906q-1.28906 0 -2.57812 -1.28906v-1.28906q0 -1.28906 -1.28906 -1.28906l-1.28906 -1.28906q-5.15625 -2.57812 -9.02344 -5.15625
q-3.86719 -1.28906 -3.86719 -2.57812v-1.28906q-1.28906 -1.28906 -2.57812 -1.28906h-1.28906l-1.28906 -1.28906v-2.57812h-2.57812l-1.28906 -1.28906v-1.28906q0 -2.57812 -5.15625 -2.57812t-5.15625 -2.57812q0 -1.28906 -1.28906 -2.57812h-1.28906
q-1.28906 0 -1.28906 -1.28906q-1.28906 0 -1.28906 -1.28906q0 -2.57812 -5.15625 -2.57812t-5.15625 -2.57812v-1.28906q-1.28906 -1.28906 -2.57812 -1.28906h-1.28906q-1.28906 -1.28906 -1.28906 -2.57812q0 -2.57812 -3.86719 -2.57812h-3.86719
q-2.57812 -1.28906 -2.57812 -2.57812q-1.28906 0 -3.86719 -1.28906h-3.86719q-1.28906 0 -3.86719 -1.28906l-1.28906 -1.28906l-2.57812 -2.57812h-3.86719q-3.86719 0 -3.86719 -2.57812q0 -1.28906 -2.57812 -2.57812h-5.15625q-3.86719 0 -6.44531 -1.28906
q-1.28906 0 -1.28906 -1.28906t-1.28906 -2.57812h-11.6016q-1.28906 -1.28906 -1.28906 -2.57812t-2.57812 -1.28906q-2.57812 -1.28906 -10.3125 -1.28906h-10.3125q-2.57812 -1.28906 -2.57812 -2.57812l-1.28906 -1.28906h-5.15625q-6.44531 -1.28906 -29.6484 -1.28906
h-30.9375q-3.86719 0 -5.15625 -1.28906q-1.28906 0 -1.28906 -1.28906t-2.57812 -1.28906h-11.6016q-9.02344 0 -11.6016 -1.28906q-2.57812 0 -3.86719 -1.28906q-1.28906 -2.57812 -7.73438 -2.57812q-3.86719 0 -6.44531 -1.28906q-1.28906 0 -1.28906 -1.28906
t-1.28906 -2.57812h-6.44531q-3.86719 0 -5.15625 -1.28906q-1.28906 0 -1.28906 -1.28906q0 -2.57812 -5.15625 -2.57812t-5.15625 -2.57812t-5.15625 -2.57812h-5.15625q-2.57812 -1.28906 -2.57812 -2.57812q-1.28906 -1.28906 -2.57812 -1.28906
q-1.28906 -1.28906 -2.57812 -1.28906h-1.28906v-2.57812q0 -2.57812 -5.15625 -2.57812t-5.15625 -1.28906t-1.28906 -2.57812h-1.28906q-1.28906 0 -1.28906 -1.28906l-1.28906 -1.28906q0 -2.57812 -5.15625 -2.57812t-5.15625 -2.57812v-1.28906
q-1.28906 -1.28906 -2.57812 -1.28906l-1.28906 -1.28906v-1.28906q0 -1.28906 -1.28906 -1.28906l-1.28906 -1.28906h-2.57812v-2.57812q0 -1.28906 -1.28906 -1.28906q0 -1.28906 -1.28906 -1.28906h-2.57812v-2.57812l-1.28906 -1.28906
q-1.28906 -1.28906 -2.57812 -1.28906q-2.57812 0 -3.86719 -2.57812q-1.28906 -1.28906 -1.28906 -2.57812q-1.28906 -1.28906 -1.28906 -2.57812q-1.28906 -1.28906 -2.57812 -1.28906t-1.28906 -1.28906q-1.28906 0 -1.28906 -1.28906v-2.57812h-2.57812
l-1.28906 -1.28906v-1.28906q0 -1.28906 -1.28906 -1.28906l-1.28906 -1.28906h-2.57812v-2.57812q0 -1.28906 -1.28906 -1.28906q0 -1.28906 -1.28906 -1.28906h-2.57812v-2.57812l-1.28906 -1.28906q0 -1.28906 -1.28906 -1.28906q-2.57812 0 -2.57812 -3.86719
q0 -5.15625 -2.57812 -5.15625q-1.28906 0 -1.28906 -1.28906q-1.28906 0 -1.28906 -1.28906v-2.57812h-2.57812q-2.57812 0 -2.57812 -5.15625t-2.57812 -5.15625t-2.57812 -5.15625q0 -3.86719 -1.28906 -3.86719t-2.57812 -1.28906v-1.28906
q0 -1.28906 -1.28906 -2.57812t-1.28906 -2.57812q-1.28906 0 -2.57812 -2.57812v-3.86719q0 -6.44531 -2.57812 -6.44531t-2.57812 -5.15625q0 -1.28906 -1.28906 -2.57812q0 -2.57812 -1.28906 -2.57812t-1.28906 -2.57812q-1.28906 -2.57812 -1.28906 -7.73438v-6.44531
q-1.28906 -2.57812 -2.57812 -2.57812t-1.28906 -2.57812q-1.28906 -2.57812 -1.28906 -9.02344v-10.3125q0 -2.57812 -2.57812 -2.57812l-1.28906 -1.28906v-6.44531q-1.28906 -6.44531 -1.28906 -32.2266q0 -27.0703 1.28906 -33.5156v-6.44531
q1.28906 -1.28906 1.28906 -2.57812q1.28906 0 2.57812 -2.57812v-7.73438q0 -5.15625 1.28906 -7.73438q0 -1.28906 1.28906 -1.28906t2.57812 -2.57812v-5.15625q0 -3.86719 1.28906 -6.44531q0 -1.28906 1.28906 -1.28906t2.57812 -1.28906v-11.6016
q1.28906 -1.28906 2.57812 -1.28906q2.57812 0 2.57812 -5.15625t2.57812 -5.15625t2.57812 -5.15625t2.57812 -5.15625q1.28906 0 1.28906 -5.15625t2.57812 -5.15625h2.57812v-1.28906q0 -1.28906 1.28906 -2.57812h1.28906q2.57812 0 2.57812 -5.15625t2.57812 -5.15625
q1.28906 0 1.28906 -1.28906q1.28906 0 1.28906 -1.28906t1.28906 -1.28906q0 -1.28906 1.28906 -1.28906q2.57812 0 2.57812 -5.15625t2.57812 -5.15625h1.28906l1.28906 -1.28906v-2.57812h2.57812l1.28906 -1.28906l1.28906 -1.28906v-2.57812h1.28906
q1.28906 0 2.57812 -1.28906v-1.28906q0 -1.28906 1.28906 -1.28906l1.28906 -1.28906q1.28906 0 2.57812 -1.28906v-1.28906q0 -1.28906 1.28906 -1.28906q0 -1.28906 1.28906 -1.28906h1.28906q1.28906 -1.28906 1.28906 -2.57812t1.28906 -1.28906
q0 -1.28906 1.28906 -1.28906h1.28906q1.28906 -1.28906 1.28906 -2.57812v-1.28906q1.28906 -1.28906 2.57812 -1.28906h1.28906q1.28906 -1.28906 1.28906 -2.57812t5.15625 -1.28906q3.86719 0 3.86719 -2.57812q0 -1.28906 1.28906 -2.57812h1.28906
q1.28906 0 2.57812 -1.28906v-1.28906q0 -2.57812 5.15625 -2.57812t5.15625 -2.57812q0 -1.28906 1.28906 -1.28906q0 -1.28906 1.28906 -1.28906t1.28906 -1.28906q1.28906 0 1.28906 -1.28906q0 -2.57812 5.15625 -2.57812q3.86719 0 3.86719 -2.57812l1.28906 -1.28906
q1.28906 -1.28906 2.57812 -1.28906h2.57812l2.57812 -2.57812q1.28906 0 2.57812 -1.28906h3.86719q5.15625 0 5.15625 -2.57812q0 -1.28906 1.28906 -2.57812h6.44531q3.86719 0 5.15625 -1.28906q1.28906 0 1.28906 -1.28906t2.57812 -2.57812h5.15625
q3.86719 0 6.44531 -1.28906q1.28906 0 1.28906 -1.28906t2.57812 -2.57812h7.73438zM513.047 685.625v-1.28906q-1.28906 -1.28906 -3.86719 -1.28906h-28.3594q-2.57812 0 -2.57812 1.28906q-1.28906 0 -1.28906 1.28906t-1.28906 1.28906
q-1.28906 1.28906 -5.15625 1.28906h-5.15625q-1.28906 1.28906 -1.28906 2.57812l-1.28906 1.28906h-1.28906q-1.28906 0 -2.57812 1.28906v3.86719h-1.28906q-1.28906 0 -2.57812 1.28906l-2.57812 2.57812l-2.57812 2.57812t-1.28906 2.57812v1.28906h-2.57812
l-1.28906 1.28906q-1.28906 1.28906 -1.28906 3.86719q-1.28906 1.28906 -1.28906 3.86719l-1.28906 1.28906q-1.28906 0 -1.28906 1.28906v2.57812q0 1.28906 -1.28906 2.57812l-1.28906 2.57812q-2.57812 0 -2.57812 3.86719v25.7812q1.28906 3.86719 2.57812 5.15625
q0 1.28906 1.28906 2.57812q1.28906 2.57812 1.28906 3.86719q0 5.15625 1.28906 5.15625t2.57812 1.28906v1.28906q0 1.28906 1.28906 1.28906q0 1.28906 1.28906 1.28906l1.28906 1.28906q0 1.28906 1.28906 3.86719q0 1.28906 1.28906 3.86719l1.28906 1.28906h2.57812
v2.57812q0 1.28906 1.28906 1.28906q1.28906 1.28906 2.57812 1.28906h3.86719v1.28906q0 1.28906 1.28906 2.57812h2.57812q1.28906 0 2.57812 1.28906l1.28906 1.28906q0 1.28906 1.28906 2.57812h5.15625q5.15625 0 6.44531 1.28906q1.28906 0 1.28906 1.28906
t2.57812 2.57812h19.3359q2.57812 -1.28906 2.57812 -2.57812t2.57812 -1.28906q1.28906 -1.28906 5.15625 -1.28906h6.44531q1.28906 -1.28906 1.28906 -2.57812v-1.28906q1.28906 -1.28906 2.57812 -1.28906h1.28906q1.28906 -1.28906 1.28906 -2.57812t5.15625 -1.28906
q3.86719 0 3.86719 -2.57812q0 -1.28906 1.28906 -2.57812h1.28906q2.57812 0 2.57812 -5.15625t2.57812 -5.15625q1.28906 0 1.28906 -1.28906q1.28906 0 1.28906 -1.28906t1.28906 -1.28906q0 -1.28906 1.28906 -1.28906t1.28906 -1.28906
q1.28906 -1.28906 1.28906 -5.15625q0 -6.44531 2.57812 -7.73438q1.28906 0 1.28906 -3.86719q1.28906 -2.57812 1.28906 -12.8906q0 -9.02344 -1.28906 -11.6016v-2.57812l-1.28906 -1.28906q-2.57812 0 -2.57812 -3.86719q0 -5.15625 -2.57812 -5.15625
t-2.57812 -5.15625t-2.57812 -5.15625q-1.28906 0 -1.28906 -1.28906q-1.28906 0 -1.28906 -1.28906v-1.28906q-1.28906 -1.28906 -2.57812 -1.28906h-1.28906q-1.28906 -1.28906 -1.28906 -2.57812v-1.28906q-1.28906 -1.28906 -2.57812 -1.28906h-1.28906v-2.57812
l-1.28906 -1.28906l-1.28906 -1.28906h-2.57812v-1.28906q0 -1.28906 -2.57812 -2.57812h-5.15625q-3.86719 0 -6.44531 -1.28906q-1.28906 0 -1.28906 -1.28906zM286.172 43.6719q0 -1.28906 1.28906 -2.57812h2.57812q1.28906 0 2.57812 1.28906t2.57812 3.86719v3.86719
q-1.28906 2.57812 -2.57812 2.57812q-1.28906 1.28906 -1.28906 2.57812q-1.28906 1.28906 -1.28906 2.57812v1.28906h-2.57812l-1.28906 1.28906q-1.28906 0 -1.28906 1.28906v1.28906l-1.28906 1.28906h-2.57812q-1.28906 1.28906 -1.28906 2.57812
q-1.28906 3.86719 -3.86719 7.73438t-3.86719 3.86719l-1.28906 1.28906v1.28906q0 1.28906 -1.28906 2.57812h-1.28906q-1.28906 0 -1.28906 1.28906q-1.28906 1.28906 -1.28906 2.57812v2.57812l-2.57812 2.57812t-1.28906 2.57812l-1.28906 1.28906v1.28906
q-1.28906 1.28906 -2.57812 1.28906q-2.57812 0 -2.57812 5.15625q0 3.86719 -1.28906 3.86719t-2.57812 1.28906v3.86719q0 1.28906 -1.28906 2.57812t-1.28906 2.57812q-1.28906 0 -2.57812 1.28906v2.57812q0 2.57812 -1.28906 3.86719q0 1.28906 -1.28906 1.28906
l-2.57812 2.57812v3.86719q0 1.28906 -1.28906 3.86719q0 1.28906 -1.28906 2.57812q-1.28906 0 -1.28906 2.57812q-1.28906 2.57812 -1.28906 5.15625q0 5.15625 -2.57812 5.15625q-1.28906 0 -1.28906 1.28906q-1.28906 2.57812 -1.28906 6.44531v6.44531
q-1.28906 3.86719 -2.57812 5.15625q-1.28906 0 -1.28906 3.86719q-1.28906 2.57812 -1.28906 6.44531v6.44531q-1.28906 2.57812 -2.57812 3.86719q-1.28906 2.57812 -1.28906 16.7578q-1.28906 12.8906 -1.28906 29.6484q0 18.0469 1.28906 30.9375
q0 12.8906 1.28906 14.1797q2.57812 0 2.57812 2.57812v6.44531q0 3.86719 1.28906 7.73438q1.28906 2.57812 1.28906 3.86719q1.28906 1.28906 2.57812 5.15625v5.15625q0 7.73438 2.57812 7.73438q2.57812 1.28906 2.57812 7.73438q0 3.86719 1.28906 5.15625
q0 1.28906 1.28906 1.28906t1.28906 1.28906q1.28906 1.28906 1.28906 3.86719v2.57812q1.28906 2.57812 2.57812 3.86719t1.28906 2.57812q1.28906 1.28906 1.28906 2.57812v2.57812q0 1.28906 1.28906 1.28906l1.28906 1.28906q1.28906 1.28906 1.28906 2.57812
q0 2.57812 1.28906 3.86719q0 1.28906 1.28906 1.28906l1.28906 1.28906q0 1.28906 1.28906 3.86719q0 2.57812 1.28906 3.86719t1.28906 2.57812q1.28906 0 2.57812 1.28906v2.57812q0 2.57812 1.28906 3.86719q0 1.28906 1.28906 1.28906h2.57812v3.86719l1.28906 1.28906
q1.28906 0 1.28906 1.28906q1.28906 1.28906 1.28906 2.57812q1.28906 2.57812 1.28906 3.86719q1.28906 1.28906 2.57812 1.28906t1.28906 1.28906q1.28906 0 1.28906 1.28906v1.28906q1.28906 1.28906 2.57812 1.28906h1.28906l1.28906 1.28906q0 1.28906 1.28906 2.57812
q0 2.57812 2.57812 3.86719q3.86719 3.86719 3.86719 5.15625l6.44531 6.44531q1.28906 2.57812 3.86719 5.15625l1.28906 2.57812q0 1.28906 1.28906 2.57812h2.57812l1.28906 1.28906q0 1.28906 1.28906 2.57812q1.28906 0 2.57812 1.28906q1.28906 0 2.57812 1.28906
l1.28906 1.28906q0 1.28906 1.28906 1.28906q0 1.28906 1.28906 1.28906h2.57812v2.57812l1.28906 1.28906q0 1.28906 1.28906 1.28906h2.57812q0 1.28906 1.28906 2.57812l1.28906 1.28906h1.28906q1.28906 0 2.57812 1.28906v1.28906q0 1.28906 1.28906 2.57812h2.57812
q1.28906 0 2.57812 1.28906q1.28906 0 1.28906 1.28906t1.28906 2.57812h1.28906q1.28906 0 2.57812 1.28906q1.28906 0 1.28906 1.28906t1.28906 1.28906q1.28906 1.28906 2.57812 1.28906l1.28906 1.28906v1.28906q0 1.28906 1.28906 1.28906
q1.28906 1.28906 3.86719 1.28906h2.57812l2.57812 2.57812q0 1.28906 1.28906 1.28906q1.28906 1.28906 2.57812 1.28906h3.86719v2.57812q0 1.28906 5.15625 1.28906q2.57812 0 3.86719 1.28906l2.57812 1.28906q0 1.28906 1.28906 2.57812h3.86719
q1.28906 0 2.57812 1.28906q1.28906 0 2.57812 1.28906q0 2.57812 6.44531 2.57812q3.86719 0 5.15625 1.28906q1.28906 0 1.28906 1.28906q0 2.57812 6.44531 2.57812q5.15625 0 5.15625 2.57812q0 1.28906 2.57812 1.28906q1.28906 1.28906 7.73438 1.28906
q9.02344 0 11.6016 2.57812q1.28906 1.28906 3.86719 1.28906q3.86719 1.28906 10.3125 1.28906h10.3125q1.28906 0 1.28906 2.57812l1.28906 1.28906h5.15625q5.15625 1.28906 25.7812 1.28906h32.2266l1.28906 1.28906q1.28906 2.57812 3.86719 2.57812h9.02344
q7.73438 0 10.3125 1.28906q2.57812 0 2.57812 1.28906t1.28906 2.57812h7.73438q5.15625 0 7.73438 1.28906q1.28906 0 2.57812 1.28906q0 2.57812 6.44531 2.57812q7.73438 0 7.73438 2.57812q1.28906 1.28906 2.57812 1.28906q1.28906 1.28906 3.86719 1.28906
q3.86719 0 3.86719 2.57812t5.15625 2.57812t5.15625 2.57812t5.15625 2.57812t5.15625 1.28906t1.28906 2.57812h2.57812q2.57812 0 2.57812 1.28906q1.28906 0 1.28906 1.28906t1.28906 2.57812h1.28906q1.28906 0 1.28906 1.28906q1.28906 0 1.28906 1.28906
t1.28906 2.57812h2.57812q2.57812 0 3.86719 1.28906q1.28906 0 1.28906 1.28906l1.28906 1.28906q1.28906 1.28906 2.57812 1.28906h1.28906q1.28906 1.28906 1.28906 2.57812l1.28906 1.28906q1.28906 1.28906 2.57812 1.28906h1.28906q1.28906 1.28906 1.28906 2.57812
v1.28906q1.28906 1.28906 2.57812 1.28906h1.28906q1.28906 1.28906 1.28906 2.57812v1.28906h1.28906q1.28906 0 2.57812 1.28906v1.28906q0 1.28906 1.28906 2.57812h1.28906q1.28906 0 2.57812 1.28906v1.28906q0 1.28906 1.28906 2.57812h1.28906
q1.28906 0 1.28906 1.28906q1.28906 0 1.28906 1.28906t1.28906 1.28906q0 1.28906 1.28906 1.28906t1.28906 1.28906q1.28906 0 1.28906 1.28906v1.28906q1.28906 1.28906 2.57812 1.28906h1.28906q1.28906 1.28906 1.28906 2.57812v1.28906
q1.28906 1.28906 2.57812 1.28906h1.28906q1.28906 0 1.28906 1.28906v2.57812q1.28906 0 1.28906 1.28906l2.57812 2.57812v3.86719q0 1.28906 1.28906 1.28906l1.28906 1.28906q1.28906 0 2.57812 1.28906v1.28906l1.28906 1.28906q0 1.28906 1.28906 2.57812
l2.57812 2.57812v2.57812q0 1.28906 1.28906 2.57812q0 1.28906 1.28906 1.28906q2.57812 0 2.57812 5.15625q0 3.86719 2.57812 3.86719t2.57812 5.15625t2.57812 5.15625q1.28906 0 1.28906 1.28906q1.28906 1.28906 1.28906 2.57812v3.86719
q1.28906 2.57812 2.57812 2.57812q0 1.28906 1.28906 3.86719v5.15625q0 5.15625 2.57812 5.15625q1.28906 0 2.57812 2.57812v5.15625q0 2.57812 1.28906 5.15625q0 2.57812 1.28906 2.57812t1.28906 3.86719q1.28906 3.86719 1.28906 7.73438q0 5.15625 1.28906 9.02344
q1.28906 5.15625 1.28906 6.44531q1.28906 1.28906 2.57812 12.8906v45.1172q-1.28906 10.3125 -2.57812 11.6016q-1.28906 0 -1.28906 2.57812q-1.28906 2.57812 -1.28906 9.02344v9.02344q-1.28906 3.86719 -2.57812 3.86719q0 1.28906 -1.28906 3.86719t-1.28906 6.44531
t-1.28906 6.44531t-1.28906 3.86719q-1.28906 0 -1.28906 1.28906q-1.28906 1.28906 -1.28906 3.86719q0 5.15625 -1.28906 5.15625q-2.57812 0 -2.57812 3.86719q0 2.57812 -1.28906 3.86719q0 1.28906 -1.28906 1.28906t-2.57812 2.57812q0 1.28906 -1.28906 5.15625
q0 2.57812 -1.28906 5.15625q0 1.28906 -1.28906 1.28906q0 1.28906 -1.28906 1.28906v2.57812q0 1.28906 -1.28906 1.28906q0 1.28906 -1.28906 1.28906q-2.57812 0 -2.57812 3.86719v3.86719q-1.28906 1.28906 -2.57812 1.28906l-1.28906 1.28906
q-1.28906 1.28906 -1.28906 3.86719q-1.28906 1.28906 -2.57812 3.86719t-2.57812 3.86719q-2.57812 1.28906 -3.86719 2.57812v2.57812q0 1.28906 -1.28906 1.28906l-1.28906 1.28906h-2.57812v2.57812l-1.28906 1.28906h-1.28906q-1.28906 0 -2.57812 1.28906v1.28906
q0 1.28906 -1.28906 2.57812l-2.57812 2.57812t-1.28906 2.57812l-1.28906 2.57812q0 1.28906 -1.28906 1.28906q0 1.28906 -1.28906 1.28906t-1.28906 1.28906q-1.28906 0 -1.28906 1.28906t-1.28906 1.28906q0 1.28906 -1.28906 1.28906h-1.28906
q-1.28906 1.28906 -1.28906 2.57812q-1.28906 0 -2.57812 1.28906t-2.57812 1.28906h-2.57812v2.57812l-1.28906 1.28906h-1.28906q-1.28906 0 -2.57812 1.28906v1.28906q0 1.28906 -1.28906 2.57812h-1.28906q-1.28906 0 -1.28906 1.28906q-1.28906 0 -2.57812 1.28906
q0 1.28906 -1.28906 2.57812h-3.86719q-2.57812 0 -3.86719 1.28906h-1.28906q0 2.57812 -2.57812 5.15625q-3.86719 3.86719 -6.44531 3.86719h-1.28906l-2.57812 2.57812q0 1.28906 -1.28906 1.28906l-1.28906 1.28906h-2.57812q-1.28906 1.28906 -1.28906 2.57812
l-1.28906 1.28906q-1.28906 1.28906 -3.86719 1.28906h-2.57812l-1.28906 1.28906l-2.57812 2.57812h-3.86719q-1.28906 0 -3.86719 1.28906q-1.28906 0 -1.28906 1.28906q-1.28906 2.57812 -7.73438 2.57812q-3.86719 0 -5.15625 1.28906q-1.28906 0 -1.28906 1.28906
t-2.57812 2.57812h-14.1797q-1.28906 1.28906 -1.28906 2.57812t-2.57812 1.28906q-1.28906 1.28906 -7.73438 1.28906h-7.73438q-2.57812 1.28906 -2.57812 2.57812q-1.28906 1.28906 -19.3359 1.28906q-15.4688 1.28906 -38.6719 1.28906q-21.9141 0 -37.3828 -1.28906
q-18.0469 0 -18.0469 -1.28906t-2.57812 -2.57812h-12.8906q-7.73438 0 -11.6016 -1.28906q-2.57812 0 -2.57812 -1.28906t-2.57812 -2.57812h-15.4688q-1.28906 -1.28906 -1.28906 -2.57812t-2.57812 -1.28906q-2.57812 -1.28906 -7.73438 -1.28906h-7.73438
q-2.57812 -1.28906 -2.57812 -2.57812t-1.28906 -1.28906q-1.28906 -1.28906 -6.44531 -1.28906h-5.15625q-1.28906 -1.28906 -1.28906 -2.57812t-2.57812 -1.28906h-7.73438q-5.15625 0 -7.73438 -1.28906q-2.57812 0 -2.57812 -1.28906q0 -2.57812 -3.86719 -2.57812
q-5.15625 0 -5.15625 -2.57812t-5.15625 -2.57812t-5.15625 -2.57812q0 -1.28906 -1.28906 -2.57812h-11.6016q-2.57812 -1.28906 -2.57812 -2.57812q0 -2.57812 -3.86719 -2.57812q-5.15625 0 -5.15625 -2.57812t-5.15625 -2.57812t-5.15625 -2.57812t-5.15625 -2.57812
t-5.15625 -1.28906q0 -2.57812 -3.86719 -2.57812q-5.15625 0 -5.15625 -2.57812q0 -1.28906 -1.28906 -2.57812h-1.28906q-1.28906 0 -2.57812 -1.28906v-1.28906q0 -2.57812 -5.15625 -2.57812t-5.15625 -2.57812t-5.15625 -2.57812q-3.86719 0 -3.86719 -2.57812
q0 -1.28906 -1.28906 -1.28906l-1.28906 -1.28906h-2.57812v-2.57812q0 -2.57812 -5.15625 -2.57812t-5.15625 -1.28906t-1.28906 -2.57812h-1.28906q-1.28906 0 -1.28906 -1.28906l-1.28906 -1.28906v-2.57812h-2.57812l-1.28906 -1.28906q-1.28906 0 -1.28906 -1.28906
q0 -2.57812 -3.86719 -2.57812q-5.15625 0 -5.15625 -2.57812q0 -1.28906 -1.28906 -1.28906q0 -1.28906 -1.28906 -1.28906t-2.57812 -1.28906v-1.28906q0 -1.28906 -1.28906 -1.28906q0 -1.28906 -1.28906 -1.28906h-1.28906q-1.28906 -1.28906 -1.28906 -2.57812
l-1.28906 -1.28906q0 -1.28906 -1.28906 -1.28906h-1.28906q-1.28906 -1.28906 -1.28906 -2.57812v-1.28906h-2.57812q-1.28906 0 -1.28906 -1.28906l-1.28906 -1.28906q0 -1.28906 -1.28906 -2.57812h-2.57812q-1.28906 0 -2.57812 -1.28906q-2.57812 0 -2.57812 -1.28906
t-1.28906 -2.57812h-1.28906q-1.28906 0 -2.57812 -1.28906v-1.28906q0 -1.28906 -1.28906 -1.28906q0 -1.28906 -1.28906 -1.28906t-1.28906 -1.28906q-1.28906 0 -1.28906 -1.28906t-1.28906 -1.28906q0 -1.28906 -1.28906 -1.28906h-1.28906
q-1.28906 -1.28906 -1.28906 -2.57812v-1.28906q-1.28906 -1.28906 -2.57812 -1.28906h-1.28906q-1.28906 -1.28906 -1.28906 -2.57812v-1.28906h-2.57812l-1.28906 -1.28906l-1.28906 -1.28906v-2.57812h-2.57812l-1.28906 -1.28906v-1.28906q0 -1.28906 -1.28906 -2.57812
h-1.28906q-2.57812 0 -2.57812 -5.15625t-2.57812 -5.15625h-2.57812v-2.57812q0 -1.28906 -1.28906 -1.28906q0 -1.28906 -1.28906 -1.28906h-1.28906q-1.28906 -1.28906 -1.28906 -2.57812l-1.28906 -1.28906q0 -1.28906 -1.28906 -1.28906h-1.28906l-1.28906 -1.28906
v-2.57812h-2.57812l-1.28906 -1.28906l-1.28906 -1.28906v-2.57812h-2.57812l-1.28906 -1.28906v-2.57812q0 -1.28906 -1.28906 -2.57812t-1.28906 -2.57812q-1.28906 0 -2.57812 -1.28906v-2.57812q0 -1.28906 -1.28906 -1.28906q0 -1.28906 -1.28906 -1.28906h-2.57812
v-2.57812l-1.28906 -1.28906q0 -1.28906 -1.28906 -1.28906t-1.28906 -2.57812q-1.28906 -1.28906 -1.28906 -2.57812q0 -2.57812 -1.28906 -2.57812q0 -1.28906 -1.28906 -1.28906q-2.57812 0 -2.57812 -5.15625t-2.57812 -5.15625q-1.28906 0 -1.28906 -1.28906
q-1.28906 0 -1.28906 -1.28906v-1.28906q-1.28906 -1.28906 -2.57812 -1.28906q-2.57812 0 -2.57812 -5.15625q0 -3.86719 -1.28906 -3.86719t-2.57812 -1.28906v-1.28906q0 -1.28906 -1.28906 -2.57812l-1.28906 -1.28906q-1.28906 0 -2.57812 -1.28906v-3.86719
q0 -1.28906 -1.28906 -2.57812q0 -1.28906 -1.28906 -1.28906q-2.57812 0 -2.57812 -5.15625t-2.57812 -5.15625t-2.57812 -3.86719q0 -5.15625 -2.57812 -5.15625t-2.57812 -5.15625t-2.57812 -5.15625t-2.57812 -5.15625v-3.86719l-1.28906 -1.28906
q-2.57812 -1.28906 -2.57812 -7.73438q0 -3.86719 -1.28906 -5.15625q0 -1.28906 -1.28906 -1.28906q-2.57812 0 -2.57812 -5.15625q0 -1.28906 -1.28906 -3.86719q0 -1.28906 -1.28906 -2.57812t-2.57812 -3.86719v-3.86719q0 -2.57812 -1.28906 -3.86719
q0 -2.57812 -1.28906 -2.57812t-1.28906 -2.57812q-1.28906 -2.57812 -1.28906 -7.73438v-6.44531q-1.28906 -2.57812 -2.57812 -2.57812t-1.28906 -1.28906q-1.28906 -2.57812 -1.28906 -7.73438v-9.02344q-1.28906 -1.28906 -2.57812 -1.28906t-1.28906 -2.57812
q-1.28906 -1.28906 -1.28906 -7.73438v-7.73438q0 -1.28906 -2.57812 -1.28906q-1.28906 0 -1.28906 -3.86719v-11.6016q0 -6.44531 -1.28906 -10.3125q0 -5.15625 -1.28906 -5.15625t-1.28906 -72.1875t1.28906 -73.4766q1.28906 0 1.28906 -3.86719
q1.28906 -3.86719 1.28906 -9.02344v-10.3125q0 -2.57812 1.28906 -2.57812q2.57812 0 2.57812 -1.28906v-10.3125q0 -6.44531 1.28906 -9.02344q0 -2.57812 1.28906 -2.57812q2.57812 -1.28906 2.57812 -9.02344q0 -3.86719 1.28906 -5.15625q0 -1.28906 1.28906 -1.28906
t2.57812 -2.57812v-6.44531q0 -5.15625 1.28906 -7.73438q0 -2.57812 1.28906 -2.57812q1.28906 -1.28906 1.28906 -2.57812q1.28906 -1.28906 1.28906 -2.57812v-5.15625l2.57812 -2.57812t1.28906 -3.86719q1.28906 -2.57812 1.28906 -3.86719
q0 -5.15625 2.57812 -5.15625q1.28906 0 1.28906 -1.28906q1.28906 -1.28906 1.28906 -5.15625q0 -6.44531 2.57812 -7.73438l1.28906 -2.57812v-2.57812q0 -5.15625 2.57812 -5.15625t2.57812 -5.15625t2.57812 -5.15625t2.57812 -5.15625q0 -3.86719 2.57812 -3.86719
t2.57812 -5.15625t2.57812 -5.15625t2.57812 -5.15625t2.57812 -5.15625h1.28906q1.28906 -1.28906 1.28906 -2.57812v-1.28906q1.28906 -1.28906 2.57812 -1.28906t1.28906 -5.15625q0 -3.86719 2.57812 -3.86719t2.57812 -5.15625t2.57812 -5.15625
q1.28906 0 2.57812 -1.28906v-1.28906q0 -1.28906 1.28906 -1.28906q0 -1.28906 1.28906 -1.28906t1.28906 -1.28906q1.28906 -1.28906 1.28906 -2.57812t1.28906 -3.86719q0 -1.28906 1.28906 -1.28906t1.28906 -1.28906q1.28906 -1.28906 1.28906 -2.57812v-1.28906
h2.57812q1.28906 0 1.28906 -1.28906l1.28906 -1.28906v-2.57812h2.57812q2.57812 0 2.57812 -5.15625t1.28906 -5.15625h2.57812v-2.57812q0 -1.28906 1.28906 -1.28906l1.28906 -1.28906h2.57812v-2.57812l1.28906 -1.28906q0 -1.28906 1.28906 -1.28906h1.28906
q1.28906 -1.28906 1.28906 -2.57812l1.28906 -1.28906h1.28906q2.57812 0 2.57812 -5.15625t2.57812 -5.15625q1.28906 0 1.28906 -1.28906q1.28906 0 1.28906 -1.28906v-1.28906q1.28906 -1.28906 2.57812 -1.28906l1.28906 -1.28906q1.28906 0 1.28906 -1.28906v-1.28906
l1.28906 -1.28906h2.57812v-2.57812l1.28906 -1.28906l1.28906 -1.28906h2.57812v-2.57812l1.28906 -1.28906h1.28906q1.28906 0 2.57812 -1.28906v-1.28906q0 -1.28906 1.28906 -2.57812h1.28906q1.28906 0 1.28906 -1.28906q1.28906 0 1.28906 -1.28906t1.28906 -2.57812
h1.28906q1.28906 0 1.28906 -1.28906q1.28906 0 1.28906 -1.28906v-1.28906q1.28906 -1.28906 2.57812 -1.28906l1.28906 -1.28906q1.28906 0 1.28906 -1.28906t2.57812 -1.28906q1.28906 -1.28906 2.57812 -1.28906h2.57812q1.28906 -1.28906 1.28906 -2.57812
t1.28906 -1.28906q0 -1.28906 1.28906 -1.28906h2.57812v-2.57812l1.28906 -1.28906q0 -1.28906 1.28906 -1.28906h1.28906l1.28906 -1.28906q0 -1.28906 1.28906 -2.57812h1.28906q1.28906 0 1.28906 -1.28906l1.28906 -1.28906v-2.57812h2.57812
q1.28906 0 1.28906 -1.28906q1.28906 0 1.28906 -1.28906q0 -2.57812 5.15625 -2.57812q3.86719 0 3.86719 -2.57812q0 -1.28906 1.28906 -1.28906l1.28906 -1.28906h2.57812v-2.57812q0 -1.28906 1.28906 -1.28906q0 -1.28906 1.28906 -1.28906h1.28906l2.57812 -2.57812
l1.28906 -1.28906q1.28906 -1.28906 3.86719 -1.28906h2.57812l1.28906 -1.28906v-2.57812h2.57812l1.28906 -1.28906l1.28906 -1.28906q0 -2.57812 3.86719 -2.57812q5.15625 0 5.15625 -2.57812t5.15625 -2.57812t5.15625 -2.57812t5.15625 -2.57812t5.15625 -2.57812
v-1.28906q1.28906 -1.28906 2.57812 -1.28906h1.28906v-2.57812q0 -2.57812 5.15625 -2.57812t5.15625 -2.57812q0 -1.28906 5.15625 -1.28906t5.15625 -2.57812t5.15625 -2.57812q1.28906 0 2.57812 -1.28906q2.57812 0 2.57812 -1.28906z" />
</svg>
