<?xml version="1.0" standalone="no"?>
<!DOCTYPE svg PUBLIC "-//W3C//DTD SVG 1.1//EN" "http://www.w3.org/Graphics/SVG/1.1/DTD/svg11.dtd" >
<svg xmlns="http://www.w3.org/2000/svg" xmlns:xlink="http://www.w3.org/1999/xlink" version="1.1" viewBox="-10 0 1066 1000">
   <path fill="currentColor"
d="M552 -103v-1.33301q-1.33301 -1.33398 -4 -1.33398h-29.333q-2.66699 0 -2.66699 1.33398q-1.33301 0 -1.33301 1.33301t-1.33398 1.33301q-1.33301 1.33398 -5.33301 1.33398h-5.33301q-1.33398 1.33301 -1.33398 2.66602l-1.33301 1.33398h-1.33301
q-1.33398 0 -2.66699 1.33301v4h-1.33301q-1.33398 0 -2.66699 1.33301q-1.33301 1.33398 -2.66699 2.66699q-1.33301 1.33301 -2.66602 2.66699q-1.33398 1.33301 -1.33398 2.66602v1.33398h-2.66602l-1.33398 1.33301q-1.33301 1.33301 -1.33301 4
q-1.33301 1.33301 -1.33301 4l-1.33398 1.33301q-1.33301 0 -1.33301 1.33398v2.66602q0 1.33398 -1.33301 2.66699l-1.33398 2.66699q-2.66602 0 -2.66602 4v30.666q0 1.33398 1.33301 2.66699q0 1.33301 1.33301 1.33301q2.66699 0 2.66699 4v4
q1.33301 1.33398 1.33301 2.66699q1.33398 0 2.66699 1.33301v4q0 1.33398 1.33301 2.66699q0 1.33301 1.33398 1.33301h2.66602v2.66699q0 1.33301 1.33398 1.33301q0 1.33398 1.33301 1.33398h1.33301q1.33398 1.33301 1.33398 2.66602l1.33301 1.33398
q0 1.33301 1.33301 1.33301h1.33398l1.33301 1.33301q0 1.33398 1.33301 2.66699h2.66699q1.33301 0 4 1.33301l1.33301 1.33398q0 1.33301 2.66699 2.66602h4q4 0 4 2.66699q0 1.33301 1.33301 1.33301l2.66699 1.33398h29.333q1.33398 -1.33398 2.66699 -1.33398v-1.33301
q0 -2.66699 5.33301 -2.66699q5.33398 0 5.33398 -2.66602q0 -2.66699 5.33301 -2.66699t5.33301 -2.66699v-1.33301h1.33398q1.33301 0 2.66602 -1.33301v-1.33398q0 -1.33301 1.33398 -2.66602h1.33301q1.33301 0 2.66699 -1.33398v-1.33301q0 -1.33301 1.33301 -2.66699
h1.33301q2.66699 0 2.66699 -5.33301t2.66699 -5.33301q2.66602 0 2.66602 -5.33398q0 -4 2.66699 -4l1.33301 -1.33301v-2.66699q1.33398 -4 1.33398 -16q0 -10.666 -1.33398 -14.666v-2.66699l-1.33301 -1.33301q-2.66699 0 -2.66699 -4q0 -5.33398 -2.66602 -5.33398
q-2.66699 0 -2.66699 -5.33301t-2.66699 -5.33301q-1.33301 0 -1.33301 -1.33398q-1.33301 0 -1.33301 -1.33301v-1.33301q-1.33398 -1.33398 -2.66699 -1.33398h-1.33301q-1.33398 -1.33301 -1.33398 -2.66602v-1.33398q-1.33301 -1.33301 -2.66602 -1.33301h-1.33398
v-2.66699l-1.33301 -1.33301l-1.33301 -1.33301h-2.66699v-1.33398q0 -1.33301 -2.66699 -2.66602h-5.33301q-4 0 -6.66699 -1.33398q-1.33301 0 -1.33301 -1.33301zM476 -293.667q16 -1.33301 69.333 -1.33301q53.334 0 70.667 1.33301q13.333 0 18.667 1.33398
q4 0 4 1.33301t2.66602 1.33301q2.66699 1.33398 9.33398 1.33398h9.33301q2.66699 1.33301 4 2.66602q1.33301 2.66699 8 2.66699h6.66699q1.33301 1.33301 1.33301 2.66699q0 1.33301 2.66699 1.33301q1.33301 1.33301 6.66602 1.33301h8q1.33398 0 1.33398 1.33398
q0 2.66602 6.66602 2.66602q5.33398 0 5.33398 2.66699q0 1.33301 1.33301 2.66699h5.33301q8 0 8 2.66602l2.66699 2.66699h4q4 0 4 2.66699q0 1.33301 2.66699 1.33301q1.33301 1.33301 5.33301 1.33301q6.66699 0 6.66699 2.66699q1.33301 1.33301 2.66602 1.33301
q1.33398 1.33398 2.66699 1.33398h4q1.33301 1.33301 1.33301 2.66602q1.33398 0 2.66699 1.33398q1.33301 1.33301 2.66699 1.33301h2.66602q1.33398 1.33301 2.66699 1.33301q0 1.33398 1.33301 2.66699h4q1.33398 0 2.66699 1.33301q1.33301 0 1.33301 1.33398v2.66602
h2.66699q1.33301 0 2.66699 1.33398q1.33301 0 1.33301 1.33301l2.66699 2.66699h2.66602q2.66699 0 4 1.33301q1.33398 0 1.33398 1.33301v1.33398q1.33301 1.33301 4 1.33301q1.33301 0 2.66602 1.33301q1.33398 0 2.66699 1.33398q0 1.33301 1.33301 1.33301
q1.33398 1.33301 2.66699 1.33301h4q1.33301 1.33398 1.33301 2.66699l1.33398 1.33301q1.33301 1.33398 2.66602 1.33398h1.33398q1.33301 1.33301 1.33301 2.66602v1.33398h2.66699l1.33301 1.33301l1.33301 1.33301v2.66699h4q1.33398 0 2.66699 1.33301
q1.33301 0 2.66699 1.33398q0 1.33301 1.33301 2.66602h1.33301q1.33398 0 2.66699 1.33398v1.33301q0 1.33301 1.33301 1.33301q1.33398 1.33398 2.66699 1.33398h4v2.66602q0 1.33398 1.33301 1.33398l1.33398 1.33301h2.66602q1.33398 1.33301 1.33398 2.66699
q0 1.33301 1.33301 1.33301q1.33301 1.33301 2.66699 1.33301h1.33301v2.66699l1.33301 1.33301h1.33398q1.33301 0 2.66602 1.33398v1.33301q0 1.33301 1.33398 2.66699h1.33301q1.33301 0 2.66699 1.33301v1.33301q0 1.33398 1.33301 2.66699h1.33301
q1.33398 0 1.33398 1.33301q1.33301 0 1.33301 1.33398q0 1.33301 1.33301 1.33301q1.33398 1.33301 2.66699 1.33301t2.66699 1.33398q1.33301 1.33301 1.33301 4q0 2.66602 1.33301 4q1.33398 1.33301 4 1.33301q5.33398 0 5.33398 2.66699l1.33301 1.33301
q0 1.33301 1.33301 1.33301h1.33398l1.33301 1.33398v2.66602h2.66699q1.33301 0 1.33301 1.33398q1.33301 0 1.33301 1.33301v2.66699q1.33398 1.33301 2.66699 2.66602q1.33301 1.33398 2.66699 2.66699q1.33301 1.33301 1.33301 2.66699v1.33301
q1.33301 1.33301 2.66699 1.33301h1.33301q1.33301 1.33398 1.33301 2.66699v1.33301q1.33398 1.33398 2.66699 1.33398h1.33301q1.33398 1.33301 1.33398 2.66602v1.33398l1.33301 1.33301h2.66699v1.33301q0 1.33398 5.33301 6.66699q2.66699 2.66699 4 5.33301
q1.33301 1.33398 1.33301 2.66699t1.33398 2.66699q0 1.33301 1.33301 1.33301t1.33301 1.33301q1.33398 0 1.33398 1.33398v1.33301q1.33301 1.33301 2.66602 1.33301h1.33398l1.33301 1.33398v2.66602q1.33301 1.33398 2.66699 1.33398q0 1.33301 1.33301 4
q1.33301 1.33301 1.33301 2.66602v2.66699h1.33398q1.33301 0 2.66602 1.33301v1.33398q0 1.33301 1.33398 2.66602q1.33301 0 1.33301 1.33398q1.33301 0 2.66699 1.33301v4q0 1.33301 1.33301 2.66699q0 1.33301 1.33301 1.33301h2.66699v1.33301
q0 1.33398 1.33301 2.66699q0 1.33301 1.33398 1.33301q1.33301 1.33398 1.33301 4q1.33301 1.33398 1.33301 2.66699t1.33398 2.66699h1.33301q2.66699 0 2.66699 5.33301t2.66602 5.33301q2.66699 0 2.66699 5.33398q0 5.33301 2.66699 5.33301h1.33301v2.66699
q0 1.33301 1.33301 2.66602q1.33398 1.33398 1.33398 2.66699q1.33301 1.33301 2.66602 2.66699v1.33301q0 1.33301 1.33398 2.66699h1.33301q0 1.33301 1.33301 2.66602q0 2.66699 1.33398 5.33398q0 4 1.33301 5.33301q0 2.66699 1.33301 2.66699
q1.33398 0 2.66699 1.33301v2.66699q0 2.66602 1.33301 4q0 2.66602 1.33398 2.66602q2.66602 0 2.66602 8v5.33398q1.33398 1.33301 2.66699 1.33301q2.66699 0 2.66699 5.33301v2.66699q0 2.66699 1.33301 2.66699t1.33301 2.66602q1.33398 1.33398 1.33398 4
q0 2.66699 1.33301 5.33398l1.33301 2.66602q1.33398 1.33398 1.33398 4q1.33301 2.66699 1.33301 6.66699q1.33301 9.33301 2.66699 9.33301q1.33301 0 2.66602 2.66699v5.33301q0 2.66699 1.33398 5.33398q0 4 1.33301 5.33301t1.33301 5.33301q1.33398 2.66699 1.33398 8
v6.66699q1.33301 2.66699 2.66602 2.66699q1.33398 1.33301 2.66699 33.333q1.33301 33.333 1.33301 89.333q0 49.334 -1.33301 62.667q0 12 -2.66699 14.667q-1.33301 2.66602 -1.33301 6.66602q-1.33301 2.66699 -1.33301 6.66699v6.66699
q-1.33398 2.66602 -2.66699 2.66602q-2.66699 1.33398 -2.66699 9.33398v6.66602q-1.33301 2.66699 -2.66602 4q-1.33398 1.33398 -1.33398 4q-1.33301 2.66699 -1.33301 6.66699v5.33301q-1.33301 1.33398 -2.66699 1.33398q-1.33301 0 -1.33301 1.33301
q-1.33301 1.33301 -1.33301 5.33301q0 6.66699 -1.33398 8q-2.66602 1.33398 -2.66602 8q0 6.66699 -2.66699 6.66699l-2.66699 2.66699v4q0 4 -2.66602 4q-1.33398 0 -1.33398 1.33301q-1.33301 1.33301 -1.33301 4q0 1.33301 -1.33301 4q-1.33398 4 -2.66699 6.66699
q-2.66699 6.66602 -2.66699 8v1.33301l-1.33301 1.33301q-1.33301 0 -2.66699 4q-2.66602 2.66699 -5.33301 8q-1.33301 5.33398 -4 9.33398t-4 4l-1.33301 1.33301v2.66699q0 1.33301 -1.33398 4q0 1.33301 -1.33301 1.33301t-2.66699 2.66699q0 1.33301 -1.33301 4
q0 1.33301 -1.33301 2.66602q0 1.33398 -1.33398 1.33398l-1.33301 1.33301v2.66699q-1.33301 1.33301 -2.66699 1.33301q-1.33301 0 -1.33301 1.33301q-1.33301 1.33398 -1.33301 2.66699v2.66699q-1.33398 1.33301 -2.66699 2.66602q0 1.33398 -1.33301 2.66699
l-1.33398 1.33301v1.33398l-1.33301 1.33301h-2.66699q-1.33301 1.33301 -1.33301 4q0 1.33301 -1.33301 4l-4 4q-4 4 -4 6.66699l-1.33398 1.33301h-1.33301q-1.33301 0 -1.33301 1.33301q-1.33398 1.33398 -1.33398 2.66699q-1.33301 1.33301 -2.66602 4
q-1.33398 2.66699 -2.66699 4l-4 4t-1.33301 2.66699v1.33301h-2.66699l-1.33301 1.33301v1.33398q0 1.33301 -1.33398 2.66602h-1.33301q-1.33301 0 -2.66699 1.33398v1.33301q0 1.33301 -1.33301 1.33301q0 1.33398 -1.33301 1.33398q-1.33398 0 -2.66699 1.33301v1.33301
q0 1.33398 -1.33301 1.33398q0 1.33301 -1.33398 1.33301h-1.33301l-1.33301 1.33301q0 1.33398 -1.33398 2.66699q0 2.66699 -2.66602 4q-1.33398 1.33301 -1.33398 2.66699l-1.33301 1.33301q0 1.33301 -4 5.33301q-2.66699 2.66699 -5.33301 2.66699v1.33301
q-1.33398 0 -1.33398 1.33398q0 1.33301 -1.33301 2.66602h-2.66699q-2.66602 0 -2.66602 1.33398q-1.33398 0 -1.33398 1.33301t-1.33301 1.33301q0 1.33398 -1.33301 1.33398h-1.33398q-1.33301 1.33301 -1.33301 2.66602q0 1.33398 -1.33301 1.33398
q0 1.33301 -1.33398 1.33301h-1.33301q-1.33301 1.33301 -1.33301 2.66699v1.33301q-1.33398 1.33301 -2.66699 1.33301h-1.33301l-1.33398 1.33398v2.66602h-2.66602l-1.33398 1.33398l-1.33301 1.33301q0 1.33301 -1.33301 2.66699h-2.66699q-1.33301 0 -1.33301 1.33301
q-1.33398 0 -1.33398 1.33301q0 1.33398 -1.33301 2.66699h-2.66699q-1.33301 0 -2.66602 1.33301q-1.33398 0 -1.33398 1.33398q0 1.33301 -1.33301 1.33301q0 1.33301 -1.33301 1.33301h-1.33398q-1.33301 1.33398 -1.33301 2.66699t-1.33301 1.33301
q0 1.33398 -1.33398 1.33398h-2.66602q-1.33398 1.33301 -1.33398 2.66602q0 1.33398 -1.33301 1.33398q-1.33301 1.33301 -2.66699 1.33301h-4v2.66699l-1.33301 1.33301h-2.66699q-1.33301 0 -2.66602 1.33301l-1.33398 1.33398v2.66602h-4q-1.33301 0 -2.66602 1.33398
q-1.33398 0 -1.33398 1.33301t-1.33301 2.66699h-2.66699q-1.33301 0 -1.33301 1.33301q-1.33301 0 -1.33301 1.33301q0 1.33398 -1.33398 1.33398q-1.33301 1.33301 -2.66602 1.33301q-1.33398 0 -4 1.33301q-1.33398 0 -1.33398 1.33398q0 1.33301 -1.33301 1.33301
q-2.66699 1.33301 -4 1.33301h-2.66699q-1.33301 1.33398 -1.33301 2.66699l-1.33301 1.33301q-1.33398 1.33398 -2.66699 1.33398h-2.66699v2.66602q0 1.33398 -5.33301 1.33398q-2.66699 0 -4 1.33301l-1.33301 1.33301l-2.66699 2.66699h-2.66699q-2.66602 0 -4 1.33301
q-1.33301 0 -2.66602 1.33398q-1.33398 1.33301 -4 2.66602h-12q0 -1.33301 -1.33398 -1.33301v-2.66699q0 -2.66602 1.33398 -2.66602q0 -1.33398 1.33301 -1.33398t2.66699 -1.33301v-1.33301q0 -1.33398 1.33301 -2.66699h1.33301q2.66699 0 2.66699 -5.33301
q0 -5.33398 2.66699 -5.33398h1.33301q1.33301 -1.33301 1.33301 -2.66602v-1.33398q1.33398 -1.33301 2.66699 -1.33301h1.33301q1.33398 -1.33301 1.33398 -2.66699v-1.33301h2.66602q1.33398 0 1.33398 -5.33301q0 -5.33398 2.66602 -5.33398q1.33398 0 2.66699 -1.33301
v-1.33301q0 -1.33398 1.33301 -1.33398q0 -1.33301 1.33398 -1.33301q2.66602 0 2.66602 -5.33301q0 -5.33398 2.66699 -5.33398t2.66699 -4q0 -5.33301 2.66602 -5.33301q2.66699 0 2.66699 -5.33301q0 -5.33398 2.66699 -5.33398q2.66602 0 2.66602 -5.33301
t2.66699 -5.33301t2.66699 -5.33398q0 -4 1.33301 -4t2.66699 -2.66602v-5.33398q0 -4 1.33301 -6.66602q0 -1.33398 1.33301 -1.33398q1.33398 0 2.66699 -1.33301v-6.66699q0 -2.66602 1.33301 -5.33301q0 -2.66699 1.33398 -4q2.66602 -1.33301 2.66602 -12v-9.33301
q1.33398 -2.66699 2.66699 -2.66699t1.33301 -1.33301q0 -1.33398 1.33398 -5.33398v-69.333q-1.33398 -4 -1.33398 -5.33301q0 -1.33398 -1.33301 -1.33398t-2.66699 -2.66602v-21.334q-1.33301 -2.66602 -2.66602 -2.66602q-1.33398 0 -1.33398 -1.33398
q-1.33301 -2.66602 -1.33301 -8v-8q-1.33301 -2.66602 -2.66699 -2.66602q-1.33301 0 -1.33301 -1.33398q-1.33301 -1.33301 -1.33301 -6.66602v-5.33398q-1.33398 -1.33301 -2.66699 -1.33301t-1.33301 -5.33301q0 -5.33398 -2.66699 -5.33398t-2.66699 -5.33301
t-2.66602 -5.33301q-2.66699 0 -2.66699 -4q0 -2.66699 -1.33301 -4q0 -2.66699 -1.33398 -2.66699q-1.33301 0 -1.33301 -1.33301q-1.33301 -2.66699 -1.33301 -4q0 -1.33398 -1.33398 -2.66699q0 -1.33301 -1.33301 -1.33301q-2.66699 0 -2.66699 -5.33398
q0 -5.33301 -2.66602 -5.33301h-1.33398q-1.33301 -1.33301 -1.33301 -2.66699v-1.33301q-1.33301 -1.33301 -2.66699 -1.33301l-1.33301 -2.66699q-1.33301 -1.33301 -1.33301 -2.66699v-2.66602l-1.33398 -1.33398q-1.33301 0 -2.66602 -1.33301v-1.33301
q0 -1.33398 -1.33398 -2.66699h-1.33301q-1.33301 0 -2.66699 -1.33301v-1.33398q0 -1.33301 -1.33301 -1.33301q0 -1.33301 -1.33301 -1.33301h-1.33398l-1.33301 -1.33398q0 -1.33301 -1.33301 -4q-1.33398 -2.66602 -4 -5.33301q-5.33398 -6.66699 -5.33398 -8v-1.33301
h-2.66602l-1.33398 -1.33398l-1.33301 -1.33301v-2.66699h-2.66699l-1.33301 -1.33301v-1.33301q0 -1.33398 -1.33301 -1.33398l-1.33398 -1.33301q-1.33301 0 -2.66602 -1.33301v-1.33398q0 -1.33301 -1.33398 -1.33301l-1.33301 -1.33301
q-5.33301 -2.66699 -9.33301 -5.33398q-4 -1.33301 -4 -2.66602v-1.33398q-1.33398 -1.33301 -2.66699 -1.33301h-1.33301l-1.33398 -1.33301v-2.66699h-2.66602l-1.33398 -1.33301v-1.33398q0 -2.66602 -5.33301 -2.66602t-5.33301 -2.66699q0 -1.33301 -1.33398 -2.66699
h-1.33301q-1.33301 0 -1.33301 -1.33301q-1.33398 0 -1.33398 -1.33301q0 -2.66699 -5.33301 -2.66699t-5.33301 -2.66699v-1.33301q-1.33398 -1.33301 -2.66699 -1.33301h-1.33301q-1.33398 -1.33398 -1.33398 -2.66699q0 -2.66699 -4 -2.66699h-4
q-2.66602 -1.33301 -2.66602 -2.66602q-1.33398 0 -4 -1.33398h-4q-1.33398 0 -4 -1.33301l-1.33398 -1.33301q-1.33301 -1.33398 -2.66602 -2.66699h-4q-4 0 -4 -2.66699q0 -1.33301 -2.66699 -2.66602h-5.33301q-4 0 -6.66699 -1.33398q-1.33301 0 -1.33301 -1.33301
t-1.33398 -2.66699h-12q-1.33301 -1.33301 -1.33301 -2.66602q0 -1.33398 -2.66699 -1.33398q-2.66602 -1.33301 -10.666 -1.33301h-10.667q-2.66699 -1.33301 -2.66699 -2.66699l-1.33301 -1.33301h-5.33301q-6.66699 -1.33301 -30.667 -1.33301h-32
q-4 0 -5.33301 -1.33398q-1.33398 0 -1.33398 -1.33301t-2.66602 -1.33301h-12q-9.33398 0 -12 -1.33398q-2.66699 0 -4 -1.33301q-1.33398 -2.66699 -8 -2.66699q-4 0 -6.66699 -1.33301q-1.33301 0 -1.33301 -1.33301q0 -1.33398 -1.33398 -2.66699h-6.66602
q-4 0 -5.33398 -1.33301q-1.33301 0 -1.33301 -1.33398q0 -2.66602 -5.33301 -2.66602q-5.33398 0 -5.33398 -2.66699t-5.33301 -2.66699h-5.33301q-2.66699 -1.33301 -2.66699 -2.66602q-1.33301 -1.33398 -2.66699 -1.33398q-1.33301 -1.33301 -2.66602 -1.33301h-1.33398
v-2.66699q0 -2.66602 -5.33301 -2.66602t-5.33301 -1.33398q0 -1.33301 -1.33398 -2.66602h-1.33301q-1.33301 0 -1.33301 -1.33398l-1.33398 -1.33301q0 -2.66699 -5.33301 -2.66699t-5.33301 -2.66602v-1.33398q-1.33398 -1.33301 -2.66699 -1.33301l-1.33301 -1.33301
v-1.33398q0 -1.33301 -1.33398 -1.33301l-1.33301 -1.33301h-2.66699v-2.66699q0 -1.33301 -1.33301 -1.33301q0 -1.33398 -1.33301 -1.33398h-2.66699v-2.66602l-1.33301 -1.33398q-1.33398 -1.33301 -2.66699 -1.33301q-2.66699 0 -4 -2.66699
q-1.33301 -1.33301 -1.33301 -2.66602q-1.33398 -1.33398 -1.33398 -2.66699q-1.33301 -1.33301 -2.66602 -1.33301q-1.33398 0 -1.33398 -1.33398q-1.33301 0 -1.33301 -1.33301v-2.66699h-2.66699l-1.33301 -1.33301v-1.33301q0 -1.33398 -1.33301 -1.33398
l-1.33398 -1.33301h-2.66602v-2.66699q0 -1.33301 -1.33398 -1.33301q0 -1.33301 -1.33301 -1.33301h-2.66699v-2.66699l-1.33301 -1.33301q0 -1.33398 -1.33301 -1.33398q-2.66699 0 -2.66699 -4q0 -5.33301 -2.66699 -5.33301q-1.33301 0 -1.33301 -1.33301
q-1.33301 0 -1.33301 -1.33398v-2.66602h-2.66699q-2.66699 0 -2.66699 -5.33398q0 -5.33301 -2.66602 -5.33301q-2.66699 0 -2.66699 -5.33301q0 -4 -1.33301 -4q-1.33398 0 -2.66699 -1.33398v-1.33301q0 -1.33301 -1.33301 -2.66699q-1.33398 -1.33301 -1.33398 -2.66602
q-1.33301 0 -2.66602 -2.66699v-4q0 -6.66699 -2.66699 -6.66699t-2.66699 -5.33301q0 -1.33301 -1.33301 -2.66699q0 -2.66602 -1.33301 -2.66602q-1.33398 0 -1.33398 -2.66699q-1.33301 -2.66699 -1.33301 -8v-6.66699q-1.33301 -2.66602 -2.66699 -2.66602
q-1.33301 0 -1.33301 -2.66699q-1.33301 -2.66699 -1.33301 -9.33301v-10.667q0 -2.66699 -2.66699 -2.66699l-1.33301 -1.33301v-6.66699q-1.33398 -6.66602 -1.33398 -33.333q0 -28 1.33398 -34.667v-6.66602q1.33301 -1.33398 1.33301 -2.66699
q1.33301 0 2.66699 -2.66699v-8q0 -5.33301 1.33301 -8q0 -1.33301 1.33301 -1.33301q1.33398 0 2.66699 -2.66699v-5.33301q0 -4 1.33301 -6.66699q0 -1.33301 1.33398 -1.33301q1.33301 0 2.66602 -1.33301v-12q1.33398 -1.33398 2.66699 -1.33398
q2.66699 0 2.66699 -5.33301t2.66602 -5.33301q2.66699 0 2.66699 -5.33398q0 -5.33301 2.66699 -5.33301q1.33301 0 1.33301 -5.33301q0 -5.33398 2.66699 -5.33398h2.66602v-1.33301q0 -1.33301 1.33398 -2.66699h1.33301q2.66699 0 2.66699 -5.33301t2.66602 -5.33301
q1.33398 0 1.33398 -1.33398q1.33301 0 1.33301 -1.33301t1.33301 -1.33301q0 -1.33398 1.33398 -1.33398q2.66602 0 2.66602 -5.33301t2.66699 -5.33301h1.33301l1.33398 -1.33398v-2.66602h2.66602l1.33398 -1.33398l1.33301 -1.33301v-2.66699h1.33301
q1.33398 0 2.66699 -1.33301v-1.33301q0 -1.33398 1.33301 -1.33398l1.33398 -1.33301q1.33301 0 2.66602 -1.33301v-1.33398q0 -1.33301 1.33398 -1.33301q0 -1.33301 1.33301 -1.33301h1.33301q1.33398 -1.33398 1.33398 -2.66699t1.33301 -1.33301
q0 -1.33398 1.33301 -1.33398h1.33398q1.33301 -1.33301 1.33301 -2.66602v-1.33398q1.33301 -1.33301 2.66699 -1.33301h1.33301q1.33301 -1.33301 1.33301 -2.66699q0 -1.33301 5.33398 -1.33301q4 0 4 -2.66699q0 -1.33301 1.33301 -2.66602h1.33301
q1.33398 0 2.66699 -1.33398v-1.33301q0 -2.66699 5.33301 -2.66699q5.33398 0 5.33398 -2.66602q0 -1.33398 1.33301 -1.33398q0 -1.33301 1.33301 -1.33301q1.33398 0 1.33398 -1.33301q1.33301 0 1.33301 -1.33398q0 -2.66602 5.33301 -2.66602q4 0 4 -2.66699
l1.33398 -1.33301q1.33301 -1.33398 2.66602 -1.33398h2.66699q1.33301 -1.33301 2.66699 -2.66602q1.33301 0 2.66602 -1.33398h4q5.33398 0 5.33398 -2.66602q0 -1.33398 1.33301 -2.66699h6.66699q4 0 5.33301 -1.33301q1.33301 0 1.33301 -1.33398
q0 -1.33301 2.66699 -2.66602h5.33301q4 0 6.66699 -1.33398q1.33301 0 1.33301 -1.33301t2.66699 -2.66699h8zM552 409v-1.33301q-1.33301 -1.33398 -4 -1.33398h-29.333q-2.66699 0 -2.66699 1.33398q-1.33301 0 -1.33301 1.33301t-1.33398 1.33301
q-1.33301 1.33398 -5.33301 1.33398h-5.33301q-1.33398 1.33301 -1.33398 2.66602l-1.33301 1.33398h-1.33301q-1.33398 0 -2.66699 1.33301v4h-1.33301q-1.33398 0 -2.66699 1.33301q-1.33301 1.33398 -2.66699 2.66699q-1.33301 1.33301 -2.66602 2.66699
q-1.33398 1.33301 -1.33398 2.66602v1.33398h-2.66602l-1.33398 1.33301q-1.33301 1.33301 -1.33301 4q-1.33301 1.33301 -1.33301 4l-1.33398 1.33301q-1.33301 0 -1.33301 1.33398v2.66602q0 1.33398 -1.33301 2.66699l-1.33398 2.66699q-2.66602 0 -2.66602 4v26.666
q1.33301 4 2.66602 5.33398q0 1.33301 1.33398 2.66602q1.33301 2.66699 1.33301 4q0 5.33398 1.33301 5.33398q1.33398 0 2.66699 1.33301v1.33301q0 1.33398 1.33301 1.33398q0 1.33301 1.33398 1.33301l1.33301 1.33301q0 1.33398 1.33301 4q0 1.33398 1.33398 4
l1.33301 1.33398h2.66699v2.66602q0 1.33398 1.33301 1.33398q1.33301 1.33301 2.66699 1.33301h4v1.33301q0 1.33398 1.33301 2.66699h2.66699q1.33301 0 2.66602 1.33301l1.33398 1.33398q0 1.33301 1.33301 2.66602h5.33301q5.33398 0 6.66699 1.33398
q1.33301 0 1.33301 1.33301t2.66699 2.66699h20q2.66699 -1.33398 2.66699 -2.66699t2.66602 -1.33301q1.33398 -1.33398 5.33398 -1.33398h6.66602q1.33398 -1.33301 1.33398 -2.66602v-1.33398q1.33301 -1.33301 2.66602 -1.33301h1.33398
q1.33301 -1.33301 1.33301 -2.66699q0 -1.33301 5.33301 -1.33301q4 0 4 -2.66699q0 -1.33301 1.33398 -2.66602h1.33301q2.66699 0 2.66699 -5.33398q0 -5.33301 2.66602 -5.33301q1.33398 0 1.33398 -1.33301q1.33301 0 1.33301 -1.33398q0 -1.33301 1.33301 -1.33301
q0 -1.33301 1.33398 -1.33301q1.33301 0 1.33301 -1.33398q1.33301 -1.33301 1.33301 -5.33301q0 -6.66699 2.66699 -8q1.33301 0 1.33301 -4q1.33398 -2.66699 1.33398 -13.333q0 -9.33398 -1.33398 -12v-2.66699l-1.33301 -1.33301q-2.66699 0 -2.66699 -4
q0 -5.33398 -2.66602 -5.33398q-2.66699 0 -2.66699 -5.33301t-2.66699 -5.33301q-1.33301 0 -1.33301 -1.33398q-1.33301 0 -1.33301 -1.33301v-1.33301q-1.33398 -1.33398 -2.66699 -1.33398h-1.33301q-1.33398 -1.33301 -1.33398 -2.66602v-1.33398
q-1.33301 -1.33301 -2.66602 -1.33301h-1.33398v-2.66699l-1.33301 -1.33301l-1.33301 -1.33301h-2.66699v-1.33398q0 -1.33301 -2.66699 -2.66602h-5.33301q-4 0 -6.66699 -1.33398q-1.33301 0 -1.33301 -1.33301zM317.333 -255q0 -1.33301 1.33398 -2.66699h2.66602
q1.33398 0 2.66699 1.33398q1.33301 1.33301 2.66699 4v4q-1.33398 2.66602 -2.66699 2.66602q-1.33301 1.33398 -1.33301 2.66699q-1.33398 1.33301 -1.33398 2.66699v1.33301h-2.66602l-1.33398 1.33301q-1.33301 0 -1.33301 1.33398v1.33301l-1.33301 1.33301h-2.66699
q-1.33301 1.33398 -1.33301 2.66699q-1.33398 4 -4 8q-2.66699 4 -4 4l-1.33398 1.33301v1.33398q0 1.33301 -1.33301 2.66602h-1.33301q-1.33398 0 -1.33398 1.33398q-1.33301 1.33301 -1.33301 2.66602v2.66699l-2.66699 2.66699q-1.33301 1.33301 -1.33301 2.66602
l-1.33301 1.33398v1.33301q-1.33398 1.33301 -2.66699 1.33301q-2.66699 0 -2.66699 5.33398q0 4 -1.33301 4t-2.66699 1.33301v4q0 1.33301 -1.33301 2.66699q-1.33301 1.33301 -1.33301 2.66602q-1.33398 0 -2.66699 1.33398v2.66602q0 2.66699 -1.33301 4
q0 1.33398 -1.33398 1.33398l-2.66602 2.66602v4q0 1.33398 -1.33398 4q0 1.33398 -1.33301 2.66699q-1.33301 0 -1.33301 2.66699q-1.33398 2.66602 -1.33398 5.33301q0 5.33301 -2.66602 5.33301q-1.33398 0 -1.33398 1.33398q-1.33301 2.66602 -1.33301 6.66602v6.66699
q-1.33301 4 -2.66699 5.33301q-1.33301 0 -1.33301 4q-1.33301 2.66699 -1.33301 6.66699v6.66699q-1.33398 2.66602 -2.66699 4q-1.33301 2.66602 -1.33301 17.333q-1.33398 13.333 -1.33398 30.667q0 18.666 1.33398 32q0 13.333 1.33301 14.666
q2.66699 0 2.66699 2.66699v6.66699q0 4 1.33301 8q1.33301 2.66602 1.33301 4q1.33398 1.33301 2.66699 5.33301v5.33301q0 8 2.66699 8q2.66602 1.33398 2.66602 8q0 4 1.33398 5.33398q0 1.33301 1.33301 1.33301t1.33301 1.33301q1.33398 1.33398 1.33398 4v2.66699
q1.33301 2.66699 2.66602 4q1.33398 1.33301 1.33398 2.66699q1.33301 1.33301 1.33301 2.66602v2.66699q0 1.33301 1.33301 1.33301l1.33398 1.33398q1.33301 1.33301 1.33301 2.66602q0 2.66699 1.33301 4q0 1.33398 1.33398 1.33398l1.33301 1.33301q0 1.33301 1.33301 4
q0 2.66699 1.33398 4q1.33301 1.33301 1.33301 2.66699q1.33301 0 2.66699 1.33301v2.66699q0 2.66602 1.33301 4q0 1.33301 1.33301 1.33301h2.66699v4l1.33301 1.33301q1.33398 0 1.33398 1.33398q1.33301 1.33301 1.33301 2.66602q1.33301 2.66699 1.33301 4
q1.33398 1.33398 2.66699 1.33398t1.33301 1.33301q1.33398 0 1.33398 1.33301v1.33398q1.33301 1.33301 2.66602 1.33301h1.33398l1.33301 1.33301q0 1.33398 1.33301 2.66699q0 2.66699 2.66699 4q4 4 4 5.33301l6.66699 6.66699q1.33301 2.66699 4 5.33301
l1.33301 2.66699q0 1.33301 1.33301 2.66699h2.66699l1.33301 1.33301q0 1.33301 1.33398 2.66699q1.33301 0 2.66602 1.33301q1.33398 0 2.66699 1.33301l1.33301 1.33398q0 1.33301 1.33398 1.33301q0 1.33301 1.33301 1.33301h2.66699v2.66699l1.33301 1.33301
q0 1.33398 1.33301 1.33398h2.66699q0 1.33301 1.33301 2.66602l1.33398 1.33398h1.33301q1.33301 0 2.66699 1.33301v1.33301q0 1.33398 1.33301 2.66699h2.66699q1.33301 0 2.66602 1.33301q1.33398 0 1.33398 1.33398q0 1.33301 1.33301 2.66602h1.33301
q1.33398 0 2.66699 1.33398q1.33301 0 1.33301 1.33301t1.33398 1.33301q1.33301 1.33398 2.66602 1.33398l1.33398 1.33301v1.33301q0 1.33398 1.33301 1.33398q1.33301 1.33301 4 1.33301h2.66699q1.33301 1.33301 2.66602 2.66699q0 1.33301 1.33398 1.33301
q1.33301 1.33301 2.66602 1.33301h4v2.66699q0 1.33301 5.33398 1.33301q2.66602 0 4 1.33398l2.66602 1.33301q0 1.33301 1.33398 2.66699h4q1.33301 0 2.66602 1.33301q1.33398 0 2.66699 1.33301q0 2.66699 6.66699 2.66699q4 0 5.33301 1.33301
q1.33301 0 1.33301 1.33398q0 2.66602 6.66699 2.66602q5.33301 0 5.33301 2.66699q0 1.33301 2.66699 1.33301q1.33301 1.33398 8 1.33398q9.33301 0 12 2.66602q1.33301 1.33398 4 1.33398q4 1.33301 10.667 1.33301h10.666q1.33398 0 1.33398 2.66699l1.33301 1.33301
h5.33301q5.33398 1.33301 26.667 1.33301h33.333l1.33398 1.33398q1.33301 2.66602 4 2.66602h9.33301q8 0 10.667 1.33398q2.66602 0 2.66602 1.33301t1.33398 2.66699h8q5.33301 0 8 1.33301q1.33301 0 2.66602 1.33301q0 2.66699 6.66699 2.66699q8 0 8 2.66699
q1.33301 1.33301 2.66699 1.33301q1.33301 1.33301 4 1.33301q4 0 4 2.66699t5.33301 2.66699t5.33301 2.66602q0 2.66699 5.33398 2.66699q5.33301 0 5.33301 1.33301q0 1.33398 1.33301 2.66699h2.66699q2.66699 0 2.66699 1.33301q1.33301 0 1.33301 1.33398
q0 1.33301 1.33301 2.66602h1.33398q1.33301 0 1.33301 1.33398q1.33301 0 1.33301 1.33301t1.33398 2.66699h2.66602q2.66699 0 4 1.33301q1.33398 0 1.33398 1.33301l1.33301 1.33398q1.33301 1.33301 2.66699 1.33301h1.33301q1.33301 1.33301 1.33301 2.66699
l1.33398 1.33301q1.33301 1.33301 2.66602 1.33301h1.33398q1.33301 1.33398 1.33301 2.66699v1.33301q1.33301 1.33398 2.66699 1.33398h1.33301q1.33301 1.33301 1.33301 2.66602v1.33398h1.33398q1.33301 0 2.66602 1.33301v1.33301q0 1.33398 1.33398 2.66699h1.33301
q1.33301 0 2.66699 1.33301v1.33398q0 1.33301 1.33301 2.66602h1.33301q1.33398 0 1.33398 1.33398q1.33301 0 1.33301 1.33301t1.33301 1.33301q0 1.33398 1.33398 1.33398q1.33301 0 1.33301 1.33301q1.33301 0 1.33301 1.33301v1.33398q1.33398 1.33301 2.66699 1.33301
h1.33301q1.33398 1.33301 1.33398 2.66699v1.33301q1.33301 1.33301 2.66602 1.33301h1.33398q1.33301 0 1.33301 1.33398v2.66602q1.33301 0 1.33301 1.33398q1.33398 1.33301 2.66699 2.66602v4q0 1.33398 1.33301 1.33398l1.33398 1.33301q1.33301 0 2.66602 1.33301
v1.33398l1.33398 1.33301q0 1.33301 1.33301 2.66699q1.33301 1.33301 2.66699 2.66602v2.66699q0 1.33301 1.33301 2.66699q0 1.33301 1.33301 1.33301q2.66699 0 2.66699 5.33301q0 4 2.66699 4q2.66602 0 2.66602 5.33398q0 5.33301 2.66699 5.33301
q1.33301 0 1.33301 1.33301q1.33398 1.33398 1.33398 2.66699v4q1.33301 2.66699 2.66602 2.66699q0 1.33301 1.33398 4v5.33301q0 5.33301 2.66602 5.33301q1.33398 0 2.66699 2.66699v5.33301q0 2.66699 1.33301 5.33398q0 2.66602 1.33398 2.66602q1.33301 0 1.33301 4
q1.33301 4 1.33301 8q0 5.33398 1.33398 9.33398q1.33301 5.33301 1.33301 6.66602q1.33301 1.33398 2.66699 13.334v46.666q-1.33398 10.667 -2.66699 12q-1.33301 0 -1.33301 2.66699q-1.33398 2.66699 -1.33398 9.33301v9.33398q-1.33301 4 -2.66602 4
q0 1.33301 -1.33398 4q-1.33301 2.66602 -1.33301 6.66602t-1.33301 6.66699q-1.33398 2.66699 -1.33398 4q-1.33301 0 -1.33301 1.33301q-1.33301 1.33398 -1.33301 4q0 5.33398 -1.33398 5.33398q-2.66602 0 -2.66602 4q0 2.66602 -1.33398 4q0 1.33301 -1.33301 1.33301
t-2.66699 2.66699q0 1.33301 -1.33301 5.33301q0 2.66699 -1.33301 5.33301q0 1.33398 -1.33398 1.33398q0 1.33301 -1.33301 1.33301v2.66699q0 1.33301 -1.33301 1.33301q0 1.33301 -1.33398 1.33301q-2.66602 0 -2.66602 4v4q-1.33398 1.33398 -2.66699 1.33398
l-1.33301 1.33301q-1.33398 1.33301 -1.33398 4q-1.33301 1.33301 -2.66602 4q-1.33398 2.66699 -2.66699 4q-2.66699 1.33301 -4 2.66699v2.66602q0 1.33398 -1.33301 1.33398l-1.33398 1.33301h-2.66602v2.66699l-1.33398 1.33301h-1.33301q-1.33301 0 -2.66699 1.33301
v1.33398q0 1.33301 -1.33301 2.66602q-1.33301 1.33398 -2.66699 2.66699q-1.33301 1.33301 -1.33301 2.66699l-1.33301 2.66602q0 1.33398 -1.33398 1.33398q0 1.33301 -1.33301 1.33301t-1.33301 1.33301q-1.33398 0 -1.33398 1.33398q0 1.33301 -1.33301 1.33301
q0 1.33301 -1.33301 1.33301h-1.33398q-1.33301 1.33398 -1.33301 2.66699q-1.33301 0 -2.66699 1.33301q-1.33301 1.33398 -2.66602 1.33398h-2.66699v2.66602l-1.33301 1.33398h-1.33398q-1.33301 0 -2.66602 1.33301v1.33301q0 1.33398 -1.33398 2.66699h-1.33301
q-1.33301 0 -1.33301 1.33301q-1.33398 0 -2.66699 1.33398q0 1.33301 -1.33301 2.66602h-4q-2.66699 0 -4 1.33398h-1.33398q0 2.66602 -2.66602 5.33301q-4 4 -6.66699 4h-1.33301q-1.33398 1.33301 -2.66699 2.66699q0 1.33301 -1.33301 1.33301l-1.33398 1.33301
h-2.66602q-1.33398 1.33398 -1.33398 2.66699l-1.33301 1.33301q-1.33301 1.33398 -4 1.33398h-2.66699l-1.33301 1.33301l-2.66699 2.66699h-4q-1.33301 0 -4 1.33301q-1.33301 0 -1.33301 1.33301q-1.33301 2.66699 -8 2.66699q-4 0 -5.33301 1.33301
q-1.33398 0 -1.33398 1.33398q0 1.33301 -2.66602 2.66602h-14.667q-1.33301 1.33398 -1.33301 2.66699t-2.66699 1.33301q-1.33301 1.33398 -8 1.33398h-8q-2.66699 1.33301 -2.66699 2.66602q-1.33301 1.33398 -20 1.33398q-16 1.33301 -40 1.33301
q-22.666 0 -38.666 -1.33301q-18.667 0 -18.667 -1.33398q0 -1.33301 -2.66699 -2.66602h-13.333q-8 0 -12 -1.33398q-2.66699 0 -2.66699 -1.33301t-2.66602 -2.66699h-16q-1.33398 -1.33301 -1.33398 -2.66602q0 -1.33398 -2.66602 -1.33398
q-2.66699 -1.33301 -8 -1.33301h-8q-2.66699 -1.33301 -2.66699 -2.66699q0 -1.33301 -1.33301 -1.33301q-1.33398 -1.33301 -6.66699 -1.33301h-5.33301q-1.33398 -1.33398 -1.33398 -2.66699t-2.66602 -1.33301h-8q-5.33398 0 -8 -1.33398q-2.66699 0 -2.66699 -1.33301
q0 -2.66699 -4 -2.66699q-5.33301 0 -5.33301 -2.66602q0 -2.66699 -5.33398 -2.66699q-5.33301 0 -5.33301 -2.66699q0 -1.33301 -1.33301 -2.66602h-12q-2.66699 -1.33398 -2.66699 -2.66699q0 -2.66699 -4 -2.66699q-5.33301 0 -5.33301 -2.66602
q0 -2.66699 -5.33398 -2.66699q-5.33301 0 -5.33301 -2.66699q0 -2.66602 -5.33301 -2.66602q-5.33398 0 -5.33398 -1.33398q0 -2.66602 -4 -2.66602q-5.33301 0 -5.33301 -2.66699q0 -1.33301 -1.33301 -2.66699h-1.33398q-1.33301 0 -2.66602 -1.33301v-1.33301
q0 -2.66699 -5.33398 -2.66699q-5.33301 0 -5.33301 -2.66699q0 -2.66602 -5.33301 -2.66602q-4 0 -4 -2.66699q0 -1.33301 -1.33398 -1.33301l-1.33301 -1.33398h-2.66699v-2.66602q0 -2.66699 -5.33301 -2.66699t-5.33301 -1.33301q0 -1.33398 -1.33398 -2.66699h-1.33301
q-1.33301 0 -1.33301 -1.33301l-1.33398 -1.33398v-2.66602h-2.66602l-1.33398 -1.33398q-1.33301 0 -1.33301 -1.33301q0 -2.66699 -4 -2.66699q-5.33301 0 -5.33301 -2.66602q0 -1.33398 -1.33398 -1.33398q0 -1.33301 -1.33301 -1.33301t-2.66699 -1.33301v-1.33398
q0 -1.33301 -1.33301 -1.33301q0 -1.33301 -1.33301 -1.33301h-1.33398q-1.33301 -1.33398 -1.33301 -2.66699l-1.33301 -1.33301q0 -1.33398 -1.33398 -1.33398h-1.33301q-1.33301 -1.33301 -1.33301 -2.66602v-1.33398h-2.66699q-1.33301 0 -1.33301 -1.33301
l-1.33398 -1.33301q0 -1.33398 -1.33301 -2.66699h-2.66699q-1.33301 0 -2.66602 -1.33301q-2.66699 0 -2.66699 -1.33398q0 -1.33301 -1.33301 -2.66602h-1.33398q-1.33301 0 -2.66602 -1.33398v-1.33301q0 -1.33301 -1.33398 -1.33301q0 -1.33398 -1.33301 -1.33398
t-1.33301 -1.33301q-1.33398 0 -1.33398 -1.33301q0 -1.33398 -1.33301 -1.33398q0 -1.33301 -1.33301 -1.33301h-1.33398q-1.33301 -1.33301 -1.33301 -2.66699v-1.33301q-1.33301 -1.33301 -2.66699 -1.33301h-1.33301q-1.33301 -1.33398 -1.33301 -2.66699v-1.33301
h-2.66699l-1.33301 -1.33398l-1.33398 -1.33301v-2.66699h-2.66602l-1.33398 -1.33301v-1.33301q0 -1.33398 -1.33301 -2.66699h-1.33301q-2.66699 0 -2.66699 -5.33301q0 -5.33398 -2.66699 -5.33398h-2.66602v-2.66602q0 -1.33398 -1.33398 -1.33398
q0 -1.33301 -1.33301 -1.33301h-1.33301q-1.33398 -1.33301 -1.33398 -2.66699l-1.33301 -1.33301q0 -1.33301 -1.33301 -1.33301h-1.33398l-1.33301 -1.33398v-2.66602h-2.66699l-1.33301 -1.33398l-1.33301 -1.33301v-2.66699h-2.66699l-1.33301 -1.33301v-2.66699
q0 -1.33301 -1.33398 -2.66602q-1.33301 -1.33398 -1.33301 -2.66699q-1.33301 0 -2.66699 -1.33301v-2.66699q0 -1.33301 -1.33301 -1.33301q0 -1.33398 -1.33301 -1.33398h-2.66699v-2.66602l-1.33301 -1.33398q0 -1.33301 -1.33398 -1.33301
q-1.33301 0 -1.33301 -2.66699q-1.33301 -1.33301 -1.33301 -2.66602q0 -2.66699 -1.33398 -2.66699q0 -1.33301 -1.33301 -1.33301q-2.66699 0 -2.66699 -5.33398q0 -5.33301 -2.66602 -5.33301q-1.33398 0 -1.33398 -1.33301q-1.33301 0 -1.33301 -1.33398v-1.33301
q-1.33301 -1.33301 -2.66699 -1.33301q-2.66602 0 -2.66602 -5.33398q0 -4 -1.33398 -4q-1.33301 0 -2.66602 -1.33301v-1.33301q0 -1.33398 -1.33398 -2.66699l-1.33301 -1.33301q-1.33301 0 -2.66699 -1.33398v-4q0 -1.33301 -1.33301 -2.66602
q0 -1.33398 -1.33301 -1.33398q-2.66699 0 -2.66699 -5.33301t-2.66699 -5.33301q-2.66602 0 -2.66602 -4q0 -5.33398 -2.66699 -5.33398t-2.66699 -5.33301t-2.66602 -5.33301q-2.66699 0 -2.66699 -5.33398v-4l-1.33301 -1.33301q-2.66699 -1.33301 -2.66699 -8
q0 -4 -1.33301 -5.33301q0 -1.33398 -1.33398 -1.33398q-2.66602 0 -2.66602 -5.33301q0 -1.33301 -1.33398 -4q0 -1.33301 -1.33301 -2.66699q-1.33301 -1.33301 -2.66699 -4v-4q0 -2.66602 -1.33301 -4q0 -2.66602 -1.33301 -2.66602q-1.33398 0 -1.33398 -2.66699
q-1.33301 -2.66699 -1.33301 -8v-6.66699q-1.33301 -2.66602 -2.66699 -2.66602q-1.33301 0 -1.33301 -1.33398q-1.33301 -2.66602 -1.33301 -8v-9.33301q-1.33398 -1.33301 -2.66699 -1.33301t-1.33301 -2.66699q-1.33398 -1.33301 -1.33398 -8v-8
q0 -1.33301 -2.66602 -1.33301q-1.33398 0 -1.33398 -4v-12q0 -6.66699 -1.33301 -10.667q0 -5.33301 -1.33301 -5.33301q-1.33398 0 -1.33398 -74.667t1.33398 -76q1.33301 0 1.33301 -4q1.33301 -4 1.33301 -9.33301v-10.667q0 -2.66699 1.33398 -2.66699
q2.66602 0 2.66602 -1.33301v-10.667q0 -6.66602 1.33398 -9.33301q0 -2.66699 1.33301 -2.66699q2.66699 -1.33301 2.66699 -9.33301q0 -4 1.33301 -5.33301q0 -1.33398 1.33301 -1.33398q1.33398 0 2.66699 -2.66602v-6.66699q0 -5.33301 1.33301 -8
q0 -2.66699 1.33398 -2.66699q1.33301 -1.33301 1.33301 -2.66602q1.33301 -1.33398 1.33301 -2.66699v-5.33301l2.66699 -2.66699t1.33301 -4q1.33398 -2.66699 1.33398 -4q0 -5.33301 2.66602 -5.33301q1.33398 0 1.33398 -1.33398q1.33301 -1.33301 1.33301 -5.33301
q0 -6.66699 2.66699 -8l1.33301 -2.66699v-2.66602q0 -5.33398 2.66699 -5.33398q2.66602 0 2.66602 -5.33301t2.66699 -5.33301t2.66699 -5.33398q0 -4 2.66602 -4q2.66699 0 2.66699 -5.33301t2.66699 -5.33301q2.66602 0 2.66602 -5.33398q0 -5.33301 2.66699 -5.33301
h1.33301q1.33398 -1.33301 1.33398 -2.66699v-1.33301q1.33301 -1.33301 2.66602 -1.33301q1.33398 0 1.33398 -5.33398q0 -4 2.66602 -4q2.66699 0 2.66699 -5.33301t2.66699 -5.33301q1.33301 0 2.66602 -1.33398v-1.33301q0 -1.33301 1.33398 -1.33301
q0 -1.33398 1.33301 -1.33398t1.33301 -1.33301q1.33398 -1.33301 1.33398 -2.66699q0 -1.33301 1.33301 -4q0 -1.33301 1.33301 -1.33301q1.33398 0 1.33398 -1.33301q1.33301 -1.33398 1.33301 -2.66699v-1.33301h2.66699q1.33301 0 1.33301 -1.33398l1.33301 -1.33301
v-2.66699h2.66699q2.66699 0 2.66699 -5.33301t1.33301 -5.33301h2.66699v-2.66699q0 -1.33301 1.33301 -1.33301l1.33301 -1.33398h2.66699v-2.66602l1.33301 -1.33398q0 -1.33301 1.33398 -1.33301h1.33301q1.33301 -1.33301 1.33301 -2.66699l1.33398 -1.33301h1.33301
q2.66699 0 2.66699 -5.33301q0 -5.33398 2.66602 -5.33398q1.33398 0 1.33398 -1.33301q1.33301 0 1.33301 -1.33301v-1.33398q1.33301 -1.33301 2.66699 -1.33301l1.33301 -1.33301q1.33301 0 1.33301 -1.33398v-1.33301l1.33398 -1.33301h2.66602v-2.66699
l1.33398 -1.33301l1.33301 -1.33398h2.66699v-2.66602l1.33301 -1.33398h1.33301q1.33398 0 2.66699 -1.33301v-1.33301q0 -1.33398 1.33301 -2.66699h1.33398q1.33301 0 1.33301 -1.33301q1.33301 0 1.33301 -1.33398q0 -1.33301 1.33398 -2.66602h1.33301
q1.33301 0 1.33301 -1.33398q1.33398 0 1.33398 -1.33301v-1.33301q1.33301 -1.33398 2.66602 -1.33398l1.33398 -1.33301q1.33301 0 1.33301 -1.33301q0 -1.33398 2.66699 -1.33398q1.33301 -1.33301 2.66602 -1.33301h2.66699q1.33301 -1.33301 1.33301 -2.66699
q0 -1.33301 1.33398 -1.33301q0 -1.33301 1.33301 -1.33301h2.66699v-2.66699l1.33301 -1.33301q0 -1.33398 1.33301 -1.33398h1.33398l1.33301 -1.33301q0 -1.33301 1.33301 -2.66699h1.33398q1.33301 0 1.33301 -1.33301l1.33301 -1.33301v-2.66699h2.66699
q1.33301 0 1.33301 -1.33301q1.33398 0 1.33398 -1.33398q0 -2.66602 5.33301 -2.66602q4 0 4 -2.66699q0 -1.33301 1.33301 -1.33301l1.33398 -1.33398h2.66602v-2.66602q0 -1.33398 1.33398 -1.33398q0 -1.33301 1.33301 -1.33301h1.33301
q1.33398 -1.33301 2.66699 -2.66699l1.33301 -1.33301q1.33398 -1.33301 4 -1.33301h2.66699l1.33301 -1.33398v-2.66602h2.66699l1.33301 -1.33398l1.33398 -1.33301q0 -2.66699 4 -2.66699q5.33301 0 5.33301 -2.66602q0 -2.66699 5.33301 -2.66699
q5.33398 0 5.33398 -2.66699q0 -2.66602 5.33301 -2.66602t5.33301 -2.66699v-1.33301q1.33398 -1.33398 2.66699 -1.33398h1.33301v-2.66602q0 -2.66699 5.33398 -2.66699q5.33301 0 5.33301 -2.66699q0 -1.33301 5.33301 -1.33301q5.33398 0 5.33398 -2.66699
q0 -2.66602 5.33301 -2.66602q1.33301 0 2.66699 -1.33398q2.66602 0 2.66602 -1.33301z" />
</svg>
