<?xml version="1.0" standalone="no"?>
<!DOCTYPE svg PUBLIC "-//W3C//DTD SVG 1.1//EN" "http://www.w3.org/Graphics/SVG/1.1/DTD/svg11.dtd" >
<svg xmlns="http://www.w3.org/2000/svg" xmlns:xlink="http://www.w3.org/1999/xlink" version="1.1" viewBox="-10 0 1010 1000">
   <path fill="currentColor"
d="M240.075 259.924l132.412 16.0879l-74.25 63.1133q-14.8496 12.375 -14.8496 32.1738q0 3.71289 1.2373 8.66406q2.47461 23.5117 19.7998 44.5488q19.7998 22.2754 45.7881 25.9883q6.1875 1.23633 11.1367 1.23633q23.5127 0 47.0254 -17.3242l95.2871 -71.7754
l289.575 194.287q12.375 9.90039 17.3252 22.2754q2.47461 6.1875 2.47461 12.375t-3.71191 13.6133q-6.1875 12.375 -18.5625 16.0879q-3.71289 1.23633 -7.4248 1.23633q-13.6133 0 -28.4629 -9.90039l-132.412 -81.6738q-4.9502 -3.71289 -9.90039 -3.71289
q-1.2373 0 -3.71289 1.23828q-6.1875 1.23633 -8.66211 6.1875q-3.71289 4.94922 -3.71289 11.1367q1.23828 6.1875 6.1875 8.66211l137.363 86.625q6.1875 3.71289 9.89941 14.8496q1.2373 4.95117 1.2373 8.66406q0 6.1875 -2.47461 11.1367
q-6.1875 11.1367 -17.3252 17.3242q-6.1875 2.47656 -11.1377 2.47656q-6.1875 0 -11.1367 -2.47656l-133.65 -76.7246q-3.71289 -2.47461 -7.4248 -2.47461q-2.47559 0 -4.9502 1.23828q-6.1875 1.23633 -9.90039 6.1875q-1.2373 3.71094 -1.2373 6.1875v3.71094
q0 6.1875 6.1875 9.90039l121.275 70.5371q3.71191 2.47656 4.9502 6.1875q1.2373 4.95117 1.2373 9.90039q-2.47559 12.375 -13.6123 19.8008q-7.42578 3.71289 -17.3252 3.71289h-6.1875q-13.6123 0 -29.7002 -6.1875l-84.1504 -43.3125
q-6.1875 -3.71289 -11.1367 -3.71289q-1.23828 0 -3.71289 1.23633q-6.1875 1.23828 -8.66211 7.42578q-2.47559 3.71289 -2.47559 8.66211v2.47461q1.2373 6.1875 7.4248 8.66406l84.1504 42.0742q8.66211 4.94922 8.66211 11.1367v1.23828
q-1.2373 7.42578 -9.89941 13.6133q-8.66309 6.1875 -21.0381 9.89844q-13.6123 3.71289 -24.75 3.71289q-50.7373 -1.23633 -86.625 -21.0371q11.1377 -22.2754 12.375 -42.0742v-7.42578q0 -14.8496 -6.1875 -25.9883q-7.4248 -14.8496 -22.2744 -24.75
q-14.8506 -9.89844 -34.6504 -12.375q2.47559 -4.94922 2.47559 -12.375q0 -3.71094 -1.23828 -8.66211q-2.47461 -12.375 -9.89941 -22.2754q-8.66309 -12.375 -19.7998 -19.7988q-13.6133 -7.42578 -28.4629 -8.66211q1.2373 -4.95117 1.2373 -9.90039
q0 -9.90039 -6.1875 -22.2754q-8.66211 -17.3242 -27.2246 -29.6992q-17.3252 -11.1387 -34.6504 -11.1387h-3.71191q-23.5127 2.47461 -40.8379 22.2754q-4.9502 -13.6133 -14.8496 -23.5117q-9.90039 -9.90039 -23.5127 -12.375q-4.9502 -1.23828 -11.1377 -1.23828
q-9.90039 0 -19.7998 3.71289q-18.5625 4.94922 -34.6504 21.0371l-34.6494 -49.5zM873.675 478.963l-68.0625 55.6875l-305.662 -204.188l-105.188 76.7246q-17.3252 13.6113 -35.8877 13.6113h-2.47461q-18.5625 -1.23633 -29.7002 -14.8496
q-11.1377 -11.1367 -11.1377 -25.9863v-3.71289q0 -17.3262 14.8496 -30.9375l82.9131 -73.0137q30.9375 -27.2246 87.8623 -35.8867q19.7998 -2.47461 39.5996 -2.47461q27.2256 0 54.4502 4.94922l155.925 29.7012zM169.537 559.4q7.42578 -11.1387 19.8008 -11.1387
h3.71191q8.66309 0 17.3252 4.95117q8.66211 7.42383 11.1377 17.3242q1.2373 3.71289 1.2373 6.1875q0 8.66211 -6.1875 16.0879l-25.9873 35.8867q-8.66309 12.375 -19.7998 13.6133h-2.47559q-9.89941 0 -17.3252 -6.1875q-9.89941 -7.42578 -12.375 -18.5625v-6.1875
q0 -11.1387 4.9502 -19.8008zM269.775 575.486q8.66211 -11.1367 21.0371 -11.1367h3.71289q8.66211 0 17.3242 6.1875q9.90039 7.42578 13.6133 17.3242q1.2373 2.47656 1.2373 6.1875q0 8.66406 -6.1875 17.3262l-64.3506 90.3379q-8.66211 11.1367 -21.0371 12.375
h-4.9502q-8.66211 0 -16.0869 -4.95117q-9.90039 -7.42383 -13.6133 -18.5625q-1.2373 -3.71289 -1.2373 -8.66211q0 -8.66211 4.9502 -17.3242zM334.125 647.262q7.4248 -11.1367 19.7998 -11.1367h3.71289q8.66211 0 17.3252 6.1875q9.89941 7.42383 13.6123 18.5625
q1.2373 2.47461 1.2373 4.94922q0 8.66211 -6.1875 17.3262l-44.5498 63.1113q-8.66309 12.375 -22.2754 14.8496q-3.71191 1.23828 -7.4248 1.23828q-7.4248 0 -14.8496 -3.71289q-12.375 -6.1875 -16.0879 -16.0879q-2.47461 -4.94922 -2.47461 -8.66211
q0 -7.42383 4.94922 -16.0879zM396 717.799q7.4248 -9.89844 19.7998 -11.1367q11.1377 0 21.0381 7.42578q11.1367 6.1875 13.6123 17.3242q1.2373 3.71289 1.2373 7.42578q0 8.66211 -6.1875 16.0859l-29.7002 40.8379q-7.4248 12.375 -21.0371 14.8496
q-3.71289 1.23828 -8.66309 1.23828q-7.4248 0 -14.8496 -3.71289q-11.1377 -4.94922 -16.0879 -16.0879q-1.2373 -3.71094 -1.2373 -7.42383q0 -7.42578 4.9502 -16.0879zM987.525 414.611q2.47461 4.95117 2.47461 8.66406q0 3.71094 -1.2373 7.42383
q-1.2373 8.66211 -8.66309 12.375l-55.6875 32.1758q-4.94922 2.47461 -8.66211 2.47461t-7.4248 -1.23828q-7.4248 -1.23633 -12.375 -8.66211l-124.987 -215.324q-2.47559 -6.1875 -2.47559 -12.375v-3.71289q2.47559 -8.66211 9.90039 -12.375l55.6875 -32.1758
q4.9502 -2.47461 8.66211 -2.47461q3.71289 0 7.4248 1.23828q7.42578 1.23633 12.375 8.66211zM123.75 199.287q4.9502 -7.42578 12.375 -9.90039q3.71289 -1.23633 7.4248 -1.23633q3.71289 0 8.66309 2.47461l55.6875 30.9375q7.4248 4.94922 9.89941 12.375
q1.2373 3.71289 1.2373 7.42383q0 3.71289 -2.47461 8.66406l-122.513 216.562q-3.71191 7.42383 -12.375 9.89844q-2.47461 1.23828 -6.1875 1.23828q-4.9502 0 -9.89941 -2.47461l-54.4502 -30.9375q-7.4248 -4.95117 -9.90039 -12.375q-1.2373 -3.71289 -1.2373 -7.42578
t2.47461 -8.66211z" />
</svg>
