<?xml version="1.0" standalone="no"?>
<!DOCTYPE svg PUBLIC "-//W3C//DTD SVG 1.1//EN" "http://www.w3.org/Graphics/SVG/1.1/DTD/svg11.dtd" >
<svg xmlns="http://www.w3.org/2000/svg" xmlns:xlink="http://www.w3.org/1999/xlink" version="1.1" viewBox="-10 0 1044 1000">
   <path fill="currentColor"
d="M248.32 -10.8398l136.96 16.6396l-76.7998 65.2803q-15.3604 12.7998 -15.3604 33.2803q0 3.83984 1.28027 8.95996q2.55957 24.3193 20.4795 46.0801q20.4805 23.04 47.3604 26.8799q6.39941 1.2793 11.5195 1.2793q24.3203 0 48.6406 -17.9199l98.5596 -74.2393
l299.521 200.96q12.7998 10.2393 17.9199 23.04q2.55957 6.39941 2.55957 12.7998q0 6.39941 -3.83984 14.0801q-6.40039 12.7998 -19.2002 16.6396q-3.83984 1.28027 -7.67969 1.28027q-14.0801 0 -29.4404 -10.2402l-136.96 -84.4795q-5.12012 -3.84082 -10.2402 -3.84082
q-1.2793 0 -3.83984 1.28027q-6.39941 1.28027 -8.95996 6.40039q-3.83984 5.12012 -3.83984 11.5195q1.28027 6.40039 6.40039 8.95996l142.08 89.6006q6.39941 3.83984 10.2393 15.3594q1.28027 5.12012 1.28027 8.95996q0 6.40039 -2.55957 11.5205
q-6.40039 11.5195 -17.9199 17.9199q-6.40039 2.55957 -11.5205 2.55957q-6.40039 0 -11.5195 -2.55957l-138.24 -79.3604q-3.83984 -2.55957 -7.68066 -2.55957q-2.55957 0 -5.11914 1.2793q-6.40039 1.28027 -10.2402 6.40039q-1.28027 3.83984 -1.28027 6.40039v3.83984
q0 6.39941 6.40039 10.2402l125.439 72.96q3.83984 2.55957 5.12012 6.39941q1.28027 5.12012 1.28027 10.2402q-2.56055 12.7998 -14.0801 20.4805q-7.67969 3.83984 -17.9199 3.83984h-6.40039q-14.0801 0 -30.7197 -6.40039l-87.04 -44.7998
q-6.40039 -3.83984 -11.5195 -3.83984q-1.28027 0 -3.84082 1.2793q-6.39941 1.28027 -8.95996 7.68066q-2.55957 3.83984 -2.55957 8.95996v2.55957q1.28027 6.40039 7.67969 8.95996l87.04 43.5205q8.95996 5.12012 8.95996 11.5195v1.28027
q-1.2793 7.67969 -10.2402 14.0801q-8.95996 6.39941 -21.7598 10.2402q-14.0801 3.83984 -25.5996 3.83984q-52.4805 -1.28027 -89.6006 -21.7598q11.5205 -23.04 12.8008 -43.5205v-7.67969q0 -15.3604 -6.40039 -26.8799q-7.67969 -15.3604 -23.04 -25.6006
t-35.8398 -12.7998q2.55957 -5.12012 2.55957 -12.7998q0 -3.83984 -1.2793 -8.95996q-2.56055 -12.7998 -10.2402 -23.04q-8.95996 -12.7998 -20.4805 -20.4805q-14.0801 -7.67969 -29.4395 -8.95996q1.28027 -5.12012 1.28027 -10.2393q0 -10.2402 -6.40039 -23.04
q-8.95996 -17.9209 -28.1602 -30.7207q-17.9199 -11.5195 -35.8398 -11.5195h-3.83984q-24.3203 2.55957 -42.2402 23.04q-5.12012 -14.0801 -15.3604 -24.3203q-10.2393 -10.2402 -24.3193 -12.7998q-5.12012 -1.28027 -11.5205 -1.28027q-10.2402 0 -20.4795 3.83984
q-19.2002 5.12012 -35.8398 21.7607l-35.8408 -51.2002zM903.68 215.72l-70.3994 57.6006l-316.16 -211.2l-108.8 79.3604q-17.9199 14.0791 -37.1201 14.0791h-2.56055q-19.1992 -1.2793 -30.7197 -15.3594q-11.5195 -11.5205 -11.5195 -26.8799v-3.83984
q0 -17.9209 15.3594 -32l85.7598 -75.5205q32 -28.1602 90.8809 -37.1201q20.4795 -2.55957 40.96 -2.55957q28.1592 0 56.3193 5.12012l161.28 30.7197zM175.36 298.92q7.67969 -11.5195 20.4795 -11.5195h3.83984q8.95996 0 17.9199 5.11914
q8.95996 7.68066 11.5205 17.9209q1.28027 3.83984 1.28027 6.39941q0 8.95996 -6.40039 16.6406l-26.8799 37.1191q-8.95996 12.8008 -20.4805 14.0801h-2.55957q-10.2402 0 -17.9199 -6.39941q-10.2402 -7.68066 -12.7998 -19.2002v-6.40039q0 -11.5195 5.12012 -20.4795z
M279.04 315.56q8.95996 -11.5195 21.7598 -11.5195h3.83984q8.95996 0 17.9199 6.40039q10.2402 7.67969 14.0801 17.9199q1.28027 2.55957 1.28027 6.39941q0 8.95996 -6.40039 17.9199l-66.5596 93.4404q-8.95996 11.5195 -21.7598 12.7998h-5.12012
q-8.95996 0 -16.6396 -5.12012q-10.2402 -7.67969 -14.0801 -19.2002q-1.28027 -3.83984 -1.28027 -8.95996q0 -8.95996 5.12012 -17.9199zM345.6 389.8q7.68066 -11.5195 20.4805 -11.5195h3.83984q8.95996 0 17.9199 6.39941q10.2402 7.68066 14.0801 19.2002
q1.28027 2.56055 1.28027 5.12012q0 8.95996 -6.40039 17.9199l-46.0801 65.2803q-8.95996 12.7998 -23.04 15.3594q-3.83984 1.28027 -7.67969 1.28027q-7.67969 0 -15.3604 -3.83984q-12.7998 -6.40039 -16.6396 -16.6396q-2.55957 -5.12012 -2.55957 -8.95996
q0 -7.68066 5.11914 -16.6406zM409.6 462.76q7.68066 -10.2402 20.4805 -11.5195q11.5195 0 21.7598 7.67969q11.5205 6.40039 14.0801 17.9199q1.28027 3.83984 1.28027 7.67969q0 8.96094 -6.40039 16.6406l-30.7197 42.2402q-7.67969 12.7998 -21.7598 15.3594
q-3.83984 1.28027 -8.95996 1.28027q-7.68066 0 -15.3604 -3.83984q-11.5195 -5.12012 -16.6396 -16.6406q-1.28027 -3.83984 -1.28027 -7.67969q0 -7.67969 5.12012 -16.6396zM1021.44 149.16q2.55957 5.12012 2.55957 8.95996t-1.28027 7.67969
q-1.2793 8.95996 -8.95996 12.7998l-57.5996 33.2803q-5.12012 2.56055 -8.95996 2.56055t-7.68066 -1.28027q-7.67969 -1.28027 -12.7998 -8.95996l-129.279 -222.72q-2.56055 -6.40039 -2.56055 -12.8008v-3.83984q2.56055 -8.95996 10.2402 -12.7998l57.5996 -33.2803
q5.12012 -2.55957 8.95996 -2.55957t7.68066 1.28027q7.67969 1.2793 12.7998 8.95996zM128 -73.5596q5.12012 -7.68066 12.7998 -10.2402q3.83984 -1.28027 7.68066 -1.28027q3.83984 0 8.95996 2.56055l57.5996 32q7.67969 5.11914 10.2402 12.7998
q1.2793 3.83984 1.2793 7.67969t-2.55957 8.95996l-126.72 224q-3.83984 7.67969 -12.7998 10.2402q-2.56055 1.28027 -6.40039 1.28027q-5.12012 0 -10.2402 -2.56055l-56.3203 -32q-7.67969 -5.12012 -10.2393 -12.7998q-1.28027 -3.83984 -1.28027 -7.67969
q0 -3.84082 2.55957 -8.95996z" />
</svg>
