<?xml version="1.0" standalone="no"?>
<!DOCTYPE svg PUBLIC "-//W3C//DTD SVG 1.1//EN" "http://www.w3.org/Graphics/SVG/1.1/DTD/svg11.dtd" >
<svg xmlns="http://www.w3.org/2000/svg" xmlns:xlink="http://www.w3.org/1999/xlink" version="1.1" viewBox="-10 0 1044 1000">
   <path fill="currentColor"
d="M134.4 374.44q20.4795 0 34.5596 14.0791q14.0801 15.3604 14.0801 35.8408v207.359q0 20.4805 -14.0801 35.8398q-14.0801 14.0801 -34.5596 14.0801h-84.4805q-20.4795 0 -35.8398 -14.0801q-14.0801 -15.3594 -14.0801 -35.8398v-207.359q0 -20.4805 14.0801 -35.8408
q15.3604 -14.0791 35.8398 -14.0791h84.4805zM413.44 225.96q20.4795 0 35.8398 14.0801q14.0801 14.0801 14.0801 34.5596v357.12q0 20.4805 -14.0801 35.8398q-15.3604 14.0801 -35.8398 14.0801h-83.2002q-20.4805 0 -35.8398 -14.0801
q-14.0801 -15.3594 -14.0801 -35.8398v-357.12q0 -20.4795 14.0801 -34.5596q15.3594 -14.0801 35.8398 -14.0801h83.2002zM693.76 284.84q20.4805 0 35.8398 8.95996q14.0801 8.95996 14.0801 21.7598v335.36q0 12.7998 -14.0801 21.7598
q-15.3594 8.95996 -35.8398 8.95996h-83.2002q-20.4795 0 -35.8398 -8.95996q-14.0801 -8.95996 -14.0801 -21.7598v-335.36q0 -12.7998 14.0801 -21.7598q15.3604 -8.95996 35.8398 -8.95996h83.2002zM974.08 85.1602q20.4795 0 35.8398 10.2402
q14.0801 10.2393 14.0801 24.3193v527.36q0 14.0801 -14.0801 24.3203q-15.3604 10.2393 -35.8398 10.2393h-84.4805q-20.4795 0 -34.5596 -10.2393q-14.0801 -10.2402 -14.0801 -24.3203v-527.36q0 -14.0801 14.0801 -24.3193q14.0801 -10.2402 34.5596 -10.2402h84.4805z
M46.0801 301.48q-7.67969 0 -14.0801 -3.84082q-6.40039 -3.83984 -11.5195 -8.95996q-5.12012 -8.95996 -5.12012 -20.4795v-3.83984q2.55957 -11.5205 12.7998 -19.2002l282.88 -202.24q5.12012 -5.12012 12.7998 -5.12012h5.12012q5.12012 0 10.2402 1.28027
l270.08 94.7197l343.04 -331.52q8.95996 -8.95996 21.7598 -8.95996t21.7598 8.95996q8.95996 10.2393 8.95996 23.04q0 12.7998 -8.95996 21.7598l-357.12 344.32q-6.39941 6.39941 -15.3594 7.67969q-3.84082 1.28027 -7.68066 1.28027t-8.95996 -2.56055l-272.64 -96
l-270.08 193.28q-7.67969 6.40039 -17.9199 6.40039z" />
</svg>
