<?xml version="1.0" standalone="no"?>
<!DOCTYPE svg PUBLIC "-//W3C//DTD SVG 1.1//EN" "http://www.w3.org/Graphics/SVG/1.1/DTD/svg11.dtd" >
<svg xmlns="http://www.w3.org/2000/svg" xmlns:xlink="http://www.w3.org/1999/xlink" version="1.1" viewBox="-10 0 1010 1000">
   <path fill="currentColor"
d="M129.938 632.412q19.7998 0 33.4121 13.6133q13.6133 14.8496 13.6133 34.6484v200.477q0 19.7988 -13.6133 34.6484q-13.6123 13.6133 -33.4121 13.6133h-81.6748q-19.7998 0 -34.6504 -13.6133q-13.6123 -14.8496 -13.6123 -34.6484v-200.477
q0 -19.7988 13.6123 -34.6484q14.8506 -13.6133 34.6504 -13.6133h81.6748zM399.713 488.861q19.7998 0 34.6494 13.6133q13.6123 13.6133 13.6123 33.4121v345.264q0 19.7988 -13.6123 34.6484q-14.8496 13.6133 -34.6494 13.6133h-80.4375q-19.8008 0 -34.6504 -13.6133
q-13.6123 -14.8496 -13.6123 -34.6484v-345.264q0 -19.7988 13.6123 -33.4121q14.8496 -13.6133 34.6504 -13.6133h80.4375zM670.725 545.787q19.8008 0 34.6504 8.66211q13.6123 8.66211 13.6123 21.0371v324.227q0 12.375 -13.6123 21.0371
q-14.8496 8.66211 -34.6504 8.66211h-80.4375q-19.7998 0 -34.6494 -8.66211q-13.6123 -8.66211 -13.6123 -21.0371v-324.227q0 -12.375 13.6123 -21.0371q14.8496 -8.66211 34.6494 -8.66211h80.4375zM941.737 352.736q19.7998 0 34.6504 9.90039
q13.6123 9.90039 13.6123 23.5137v509.85q0 13.6113 -13.6123 23.5117q-14.8506 9.90039 -34.6504 9.90039h-81.6748q-19.7998 0 -33.4121 -9.90039q-13.6133 -9.90039 -13.6133 -23.5117v-509.85q0 -13.6133 13.6133 -23.5137q13.6123 -9.90039 33.4121 -9.90039h81.6748z
M44.5498 561.875q-7.4248 0 -13.6123 -3.71289t-11.1377 -8.66211q-4.9502 -8.66211 -4.9502 -19.8008v-3.71289q2.47559 -11.1367 12.375 -18.5625l273.488 -195.523q4.94922 -4.95117 12.375 -4.95117h4.94922q4.9502 0 9.90039 1.23828l261.112 91.5742l331.65 -320.512
q8.66211 -8.66211 21.0371 -8.66211t21.0381 8.66211q8.66211 9.90039 8.66211 22.2754t-8.66211 21.0371l-345.263 332.887q-6.1875 6.1875 -14.8506 7.42578q-3.71191 1.23633 -7.4248 1.23633q-3.71191 0 -8.66211 -2.47461l-263.588 -92.8125l-261.112 186.863
q-7.4248 6.1875 -17.3252 6.1875z" />
</svg>
