<?xml version="1.0" standalone="no"?>
<!DOCTYPE svg PUBLIC "-//W3C//DTD SVG 1.1//EN" "http://www.w3.org/Graphics/SVG/1.1/DTD/svg11.dtd" >
<svg xmlns="http://www.w3.org/2000/svg" xmlns:xlink="http://www.w3.org/1999/xlink" version="1.1" viewBox="-10 0 1044 1000">
   <path fill="currentColor"
d="M976.64 -110.18q0 -8.95996 -6.39941 -15.3604q-6.40039 -6.40039 -15.3604 -6.40039h-885.76q-8.95996 0 -15.3604 6.40039q-6.39941 6.40039 -6.39941 15.3604v583.68q0 8.95996 6.39941 15.3604q6.40039 6.39941 15.3604 6.39941h885.76q8.95996 0 15.3604 -6.39941
q6.39941 -6.40039 6.39941 -15.3604v-583.68zM954.88 -179.3q14.0801 0 26.8799 5.12012t21.7598 15.3594q10.2402 8.95996 15.3604 21.7607q5.12012 12.7998 5.12012 26.8799v583.68q0 14.0801 -5.12012 26.8799t-15.3604 23.04q-8.95996 8.95996 -21.7598 14.0801
t-26.8799 5.12012h-66.5596v129.28h-71.6807v-129.28h-609.279v129.28h-71.6807v-129.28h-66.5596q-14.0801 0 -26.8799 -5.12012t-21.7598 -14.0801q-10.2402 -10.2402 -15.3604 -23.04t-5.12012 -26.8799v-583.68q0 -14.0801 5.12012 -26.8799
q5.12012 -12.8008 15.3604 -21.7607q8.95996 -10.2393 21.7598 -15.3594t26.8799 -5.12012h885.76zM202.24 159.9h44.7998v44.7998h-44.7998v-44.7998zM202.24 109.98h44.7998v44.7998h-44.7998v-44.7998zM202.24 60.0596h44.7998v44.8008h-44.7998v-44.8008zM252.16 308.38
h44.7998v44.7998h-44.7998v-44.7998zM202.24 10.1396h44.7998v44.8008h-44.7998v-44.8008zM202.24 209.82h44.7998v43.5195h-44.7998v-43.5195zM152.32 308.38h44.7998v44.7998h-44.7998v-44.7998zM152.32 60.0596h44.7998v44.8008h-44.7998v-44.8008zM202.24 308.38
h44.7998v44.7998h-44.7998v-44.7998zM202.24 258.46h44.7998v44.7998h-44.7998v-44.7998zM450.56 60.0596h44.8008v44.8008h-44.8008v-44.8008zM450.56 109.98h44.8008v44.7998h-44.8008v-44.7998zM450.56 209.82h44.8008v43.5195h-44.8008v-43.5195zM450.56 258.46h44.8008
v44.7998h-44.8008v-44.7998zM628.48 258.46h44.7998v44.7998h-44.7998v-44.7998zM628.48 209.82h44.7998v43.5195h-44.7998v-43.5195zM727.04 10.1396h46.0801v44.8008h-46.0801v-44.8008zM776.96 10.1396h44.7998v44.8008h-44.7998v-44.8008zM776.96 308.38h44.7998
v44.7998h-44.7998v-44.7998zM776.96 109.98h44.7998v44.7998h-44.7998v-44.7998zM826.88 209.82h44.7998v43.5195h-44.7998v-43.5195zM826.88 258.46h44.7998v44.7998h-44.7998v-44.7998zM826.88 60.0596h44.7998v44.8008h-44.7998v-44.8008zM826.88 109.98h44.7998v44.7998
h-44.7998v-44.7998zM628.48 159.9h44.7998v44.7998h-44.7998v-44.7998zM826.88 159.9h44.7998v44.7998h-44.7998v-44.7998zM628.48 60.0596h44.7998v44.8008h-44.7998v-44.8008zM628.48 109.98h44.7998v44.7998h-44.7998v-44.7998zM678.4 308.38h44.7998v44.7998h-44.7998
v-44.7998zM727.04 308.38h46.0801v44.7998h-46.0801v-44.7998zM678.4 209.82h44.7998v43.5195h-44.7998v-43.5195zM727.04 159.9h46.0801v44.7998h-46.0801v-44.7998zM678.4 10.1396h44.7998v44.8008h-44.7998v-44.8008z" />
</svg>
