<?xml version="1.0" standalone="no"?>
<!DOCTYPE svg PUBLIC "-//W3C//DTD SVG 1.1//EN" "http://www.w3.org/Graphics/SVG/1.1/DTD/svg11.dtd" >
<svg xmlns="http://www.w3.org/2000/svg" xmlns:xlink="http://www.w3.org/1999/xlink" version="1.1" viewBox="-10 0 1010 1000">
   <path fill="currentColor"
d="M944.213 155.356q0 -8.66309 -6.1875 -14.8506t-14.8506 -6.1875h-856.35q-8.66309 0 -14.8506 6.1875t-6.1875 14.8506v564.3q0 8.66211 6.1875 14.8496t14.8506 6.1875h856.35q8.66309 0 14.8506 -6.1875t6.1875 -14.8496v-564.3zM923.175 88.5312
q13.6123 0 25.9873 4.9502t21.0381 14.8496q9.89941 8.66309 14.8496 21.0381t4.9502 25.9873v564.3q0 13.6123 -4.9502 25.9873t-14.8496 22.2754q-8.66309 8.66211 -21.0381 13.6123t-25.9873 4.9502h-64.3496v124.987h-69.2998v-124.987h-589.051v124.987h-69.2998
v-124.987h-64.3496q-13.6123 0 -25.9873 -4.9502t-21.0381 -13.6123q-9.89941 -9.90039 -14.8496 -22.2754t-4.9502 -25.9873v-564.3q0 -13.6123 4.9502 -25.9873t14.8496 -21.0381q8.66309 -9.89941 21.0381 -14.8496t25.9873 -4.9502h856.35zM195.525 416.469h43.3125
v43.3125h-43.3125v-43.3125zM195.525 368.206h43.3125v43.3125h-43.3125v-43.3125zM195.525 319.943h43.3125v43.3125h-43.3125v-43.3125zM243.787 560.019h43.3125v43.3125h-43.3125v-43.3125zM195.525 271.682h43.3125v43.3125h-43.3125v-43.3125zM195.525 464.731
h43.3125v42.0752h-43.3125v-42.0752zM147.263 560.019h43.3125v43.3125h-43.3125v-43.3125zM147.263 319.943h43.3125v43.3125h-43.3125v-43.3125zM195.525 560.019h43.3125v43.3125h-43.3125v-43.3125zM195.525 511.756h43.3125v43.3125h-43.3125v-43.3125zM435.6 319.943
h43.3125v43.3125h-43.3125v-43.3125zM435.6 368.206h43.3125v43.3125h-43.3125v-43.3125zM435.6 464.731h43.3125v42.0752h-43.3125v-42.0752zM435.6 511.756h43.3125v43.3125h-43.3125v-43.3125zM607.612 511.756h43.3125v43.3125h-43.3125v-43.3125zM607.612 464.731
h43.3125v42.0752h-43.3125v-42.0752zM702.9 271.682h44.5498v43.3125h-44.5498v-43.3125zM751.162 271.682h43.3125v43.3125h-43.3125v-43.3125zM751.162 560.019h43.3125v43.3125h-43.3125v-43.3125zM751.162 368.206h43.3125v43.3125h-43.3125v-43.3125zM799.425 464.731
h43.3125v42.0752h-43.3125v-42.0752zM799.425 511.756h43.3125v43.3125h-43.3125v-43.3125zM799.425 319.943h43.3125v43.3125h-43.3125v-43.3125zM799.425 368.206h43.3125v43.3125h-43.3125v-43.3125zM607.612 416.469h43.3125v43.3125h-43.3125v-43.3125z
M799.425 416.469h43.3125v43.3125h-43.3125v-43.3125zM607.612 319.943h43.3125v43.3125h-43.3125v-43.3125zM607.612 368.206h43.3125v43.3125h-43.3125v-43.3125zM655.875 560.019h43.3125v43.3125h-43.3125v-43.3125zM702.9 560.019h44.5498v43.3125h-44.5498v-43.3125z
M655.875 464.731h43.3125v42.0752h-43.3125v-42.0752zM702.9 416.469h44.5498v43.3125h-44.5498v-43.3125zM655.875 271.682h43.3125v43.3125h-43.3125v-43.3125z" />
</svg>
