<?xml version="1.0" standalone="no"?>
<!DOCTYPE svg PUBLIC "-//W3C//DTD SVG 1.1//EN" "http://www.w3.org/Graphics/SVG/1.1/DTD/svg11.dtd" >
<svg xmlns="http://www.w3.org/2000/svg" xmlns:xlink="http://www.w3.org/1999/xlink" version="1.1" viewBox="-10 0 1044 1000">
   <path fill="currentColor"
d="M992 542.7q12.7998 0 23.04 11.5195q8.95996 11.5205 8.95996 29.4404q0 16.6396 -8.95996 28.1602q-10.2402 11.5195 -23.04 11.5195h-532.48q-12.7998 0 -23.0391 -11.5195q-8.96094 -11.5205 -8.96094 -29.4404q0 -16.6396 8.96094 -28.1602
q10.2393 -11.5195 23.0391 -11.5195h5.12012q11.5205 0 20.4805 -7.68066q7.67969 -8.95996 7.67969 -20.4795q0 -6.40039 5.12012 -11.5205q5.12012 -5.11914 11.5205 -5.11914h432.64q6.40039 0 11.5195 5.11914q5.12012 5.12012 5.12012 11.5205
q0 11.5195 7.68066 20.4795q7.67969 7.68066 19.1992 7.68066h6.40039zM574.72 433.9q-5.12012 -8.95996 -5.12012 -19.2002q0 -5.12012 1.28027 -10.2402q3.83984 -15.3604 15.3604 -20.4795l208.64 -97.2803q5.12012 -2.56055 11.5205 -2.56055q6.39941 0 14.0801 3.84082
q12.7998 6.39941 20.4795 21.7598q5.12012 10.2402 5.12012 19.2002q0 5.11914 -1.28027 10.2393q-3.83984 15.3604 -16.6396 20.4805l-207.36 97.2803q-5.12012 2.55957 -11.5195 2.55957q-6.40039 0 -14.0801 -3.83984q-14.0801 -6.40039 -20.4805 -21.7598z
M431.36 49.9004q-6.40039 2.55957 -11.5205 2.55957q-7.67969 0 -14.0801 -3.83984q-14.0801 -6.40039 -21.7598 -21.7598q-3.83984 -10.2402 -3.83984 -19.2002q0 -5.12012 1.28027 -10.2402q3.83984 -14.0801 15.3594 -20.4795l207.36 -97.2803
q5.12012 -2.56055 11.5195 -2.56055q6.40039 0 14.0801 3.84082q14.0801 6.39941 21.7598 21.7598q3.84082 8.95996 3.84082 19.2002q0 5.11914 -1.28027 10.2393q-2.56055 15.3604 -15.3604 20.4805zM549.12 308.46q-10.2402 -24.3203 -35.8398 -33.2803
q-10.2402 -3.83984 -20.4805 -3.83984q-14.0801 0 -26.8799 6.40039l-409.6 190.72q-7.68066 3.83984 -16.6406 3.83984q-6.39941 0 -12.7998 -2.55957q-6.39941 -2.56055 -12.7998 -7.68066q-14.0801 -11.5195 -14.0801 -30.7197q0 -7.67969 2.55957 -15.3594
q5.12012 -15.3604 20.4805 -21.7607l407.04 -190.72q24.3203 -11.5195 33.2803 -35.8398q3.83984 -10.2402 3.83984 -21.7598q0 -12.8008 -6.40039 -26.8809l-17.9199 -38.3994l209.92 -98.5605l128 275.2l-209.92 98.5605z" />
</svg>
