<?xml version="1.0" standalone="no"?>
<!DOCTYPE svg PUBLIC "-//W3C//DTD SVG 1.1//EN" "http://www.w3.org/Graphics/SVG/1.1/DTD/svg11.dtd" >
<svg xmlns="http://www.w3.org/2000/svg" xmlns:xlink="http://www.w3.org/1999/xlink" version="1.1" viewBox="-10 0 1010 1000">
   <path fill="currentColor"
d="M959.062 782.769q12.375 0 22.2754 11.1377q8.66211 11.1377 8.66211 28.4619q0 16.0879 -8.66211 27.2256q-9.90039 11.1377 -22.2754 11.1377h-514.8q-12.375 0 -22.2754 -11.1377q-8.66211 -11.1377 -8.66211 -28.4629q0 -16.0869 8.66211 -27.2246
q9.90039 -11.1377 22.2754 -11.1377h4.9502q11.1367 0 19.7998 -7.4248q7.4248 -8.66309 7.4248 -19.7998q0 -6.1875 4.9502 -11.1377t11.1377 -4.9502h418.274q6.1875 0 11.1377 4.9502t4.9502 11.1377q0 11.1367 7.4248 19.7998q7.4248 7.4248 18.5625 7.4248h6.1875z
M555.638 677.581q-4.9502 -8.66211 -4.9502 -18.5625q0 -4.9502 1.2373 -9.90039q3.71289 -14.8496 14.8506 -19.7998l201.712 -94.0498q4.9502 -2.47461 11.1377 -2.47461t13.6123 3.71191q12.375 6.1875 19.7998 21.0381q4.9502 9.89941 4.9502 18.5625
q0 4.94922 -1.2373 9.89941q-3.71289 14.8506 -16.0879 19.7998l-200.475 94.0508q-4.9502 2.47461 -11.1377 2.47461t-13.6123 -3.71289q-13.6123 -6.1875 -19.7998 -21.0371zM417.037 306.331q-6.1875 2.47461 -11.1367 2.47461q-7.42578 0 -13.6133 -3.71191
q-13.6123 -6.1875 -21.0371 -21.0381q-3.71289 -9.89941 -3.71289 -18.5625q0 -4.94922 1.23828 -9.89941q3.71191 -13.6123 14.8496 -19.7998l200.475 -94.0508q4.9502 -2.47461 11.1377 -2.47461t13.6123 3.71289q13.6133 6.1875 21.0381 21.0371
q3.71191 8.66211 3.71191 18.5625q0 4.9502 -1.2373 9.90039q-2.47461 14.8496 -14.8496 19.7998zM530.888 556.306q-9.90039 -23.5117 -34.6504 -32.1748q-9.89941 -3.71191 -19.7998 -3.71191q-13.6123 0 -25.9873 6.1875l-396 184.387q-7.4248 3.71289 -16.0879 3.71289
q-6.1875 0 -12.375 -2.47461q-6.1875 -2.47559 -12.375 -7.42578q-13.6123 -11.1367 -13.6123 -29.6992q0 -7.42578 2.47461 -14.8506q4.9502 -14.8496 19.8008 -21.0371l393.524 -184.388q23.5127 -11.1377 32.1748 -34.6504q3.71289 -9.89941 3.71289 -21.0371
q0 -12.375 -6.1875 -25.9873l-17.3252 -37.125l202.95 -95.2881l123.75 266.062l-202.95 95.2881z" />
</svg>
