<?xml version="1.0" standalone="no"?>
<!DOCTYPE svg PUBLIC "-//W3C//DTD SVG 1.1//EN" "http://www.w3.org/Graphics/SVG/1.1/DTD/svg11.dtd" >
<svg xmlns="http://www.w3.org/2000/svg" xmlns:xlink="http://www.w3.org/1999/xlink" version="1.1" viewBox="-10 0 1044 1000">
   <path fill="currentColor"
d="M111.36 410.28q-38.4004 -2.56055 -67.8408 -30.7207q-30.7197 -29.4395 -39.6797 -75.5195q-3.83984 -17.9199 -3.83984 -33.2803q0 -23.04 7.67969 -43.5195q14.0801 -34.5605 44.8008 -53.7598zM102.4 124.84q5.11914 -1.28027 14.0801 -3.83984l75.5195 -19.2002
l76.7998 -19.2002l16.6406 66.5605l12.7998 51.2002l33.2793 136.96l12.8008 51.1992q-29.4404 7.68066 -76.8008 19.2002l-38.3994 8.95996q-23.04 6.40039 -39.6797 10.2402q-7.68066 1.28027 -12.8008 2.56055l-12.7998 -51.2002l-62.7197 -252.16zM738.56 368.04
q-64 -253.44 -112.64 -453.12q-2.55957 2.56055 -3.83984 3.83984l-1.28027 1.28027l-1.28027 2.55957q-2.55957 2.56055 -3.83984 5.12012q-40.96 52.4805 -80.6396 90.8799q-46.0801 44.8008 -96 75.5205q-17.9199 11.5195 -39.6797 20.4795l14.0801 56.3203
l2.55957 10.2402l2.55957 10.2402l5.12012 19.1992q3.83984 17.9199 10.2402 43.5205l5.12012 21.7598l6.40039 21.7598h16.6396q64 0 133.12 17.9199q62.7197 16.6406 143.359 52.4805zM730.88 21.1602q28.1602 12.7998 48.6396 37.1201q17.9209 23.04 25.6006 52.4795
q5.12012 16.6406 5.12012 34.5605q0 11.5195 -2.56055 23.04q-6.39941 30.7197 -25.5996 57.5996q-3.83984 5.12012 -5.12012 10.2402q0 5.12012 1.28027 11.5195q19.2002 76.7998 43.5195 175.36q1.28027 5.12012 1.28027 10.2402q0 10.2393 -5.12012 19.1992
q-7.67969 12.8008 -23.04 15.3604h-3.83984q-10.2402 0 -21.7598 -6.39941q-107.521 -58.8809 -202.24 -83.2002q-49.9199 -12.7998 -96 -12.7998q-35.8398 0 -69.1201 7.67969l-37.1201 -147.2l-10.2402 -39.6797l-12.7998 -51.2002l-16.6396 -66.5605l15.3604 -3.83984
q46.0791 -11.5195 98.5596 -52.4795q92.1602 -72.96 168.96 -193.28q12.7998 -19.2002 30.7197 -19.2002h2.56055q12.7998 0 20.4795 7.68066q8.95996 7.67969 12.7998 21.7598l21.7607 88.3203q12.7998 48.6396 21.7598 88.3193q1.28027 5.12012 3.83984 8.95996
q2.56055 3.83984 8.95996 6.40039zM878.08 117.16q-2.56055 1.28027 -6.40039 1.28027q-5.12012 0 -11.5195 -3.84082q-7.67969 -5.11914 -10.2402 -14.0801q-1.28027 -3.83984 -1.28027 -6.39941q0 -6.40039 3.84082 -11.5205q5.11914 -8.95996 14.0791 -11.5195l128 -32
h3.84082q7.67969 0 14.0801 3.83984q8.95996 3.83984 10.2393 14.0801q1.28027 2.55957 1.28027 6.40039q0 5.11914 -3.83984 11.5195q-5.12012 7.67969 -14.0801 10.2402zM853.76 238.76q-8.95996 -3.83984 -12.7998 -14.0801q-1.28027 -3.83984 -1.28027 -7.67969
q0 -5.12012 2.56055 -10.2402q3.83984 -8.95996 12.7998 -11.5195q5.12012 -2.56055 8.95996 -2.56055q5.12012 0 8.95996 2.56055l120.32 51.2002q8.95996 3.83984 12.7998 12.7998q2.55957 3.83984 2.55957 8.95996q0 3.83984 -2.55957 8.95996
q-3.83984 8.95996 -12.7998 12.7998q-3.83984 1.28027 -8.95996 1.28027q-3.83984 0 -8.95996 -1.28027zM832 10.9199q-6.40039 8.95996 -15.3604 10.2402h-3.83984q-7.67969 0 -14.0801 -3.83984q-7.67969 -5.12012 -10.2393 -15.3604v-3.83984
q0 -6.40039 3.83984 -14.0801l75.5195 -107.521q5.12012 -7.67969 15.3604 -10.2393h3.83984q6.40039 0 14.0801 3.83984q7.67969 6.39941 8.95996 15.3604q1.28027 2.55957 1.28027 5.11914q0 7.68066 -5.12012 12.8008zM212.48 483.24l20.4795 -5.12012
q25.5996 -6.40039 40.96 -10.2402q46.0801 -11.5195 80.6396 -19.2002q1.28027 -1.2793 2.56055 -1.2793q2.55957 0 3.83984 1.2793q3.83984 1.28027 6.40039 3.83984q12.7998 8.96094 17.9199 24.3203q5.12012 11.5205 5.12012 29.4404q1.2793 14.0801 7.67969 24.3193
q6.40039 10.2402 19.2002 15.3604q21.7598 10.2402 39.6797 24.3203q19.2002 14.0801 24.3203 39.6797q1.2793 5.12012 1.2793 10.2402q0 6.39941 -2.55957 10.2402q-5.12012 8.95996 -17.9199 11.5195q-67.8398 17.9199 -121.6 30.7197q-6.40039 2.56055 -11.5205 2.56055
q-3.83984 0 -6.40039 -1.28027q-7.67969 -2.55957 -14.0791 -11.5195q-25.6006 -37.1201 -56.3203 -84.4805l-57.6006 -83.2002q0 -1.2793 -1.2793 -2.55957l-1.28027 -1.28027v-2.55957z" />
</svg>
