<?xml version="1.0" standalone="no"?>
<!DOCTYPE svg PUBLIC "-//W3C//DTD SVG 1.1//EN" "http://www.w3.org/Graphics/SVG/1.1/DTD/svg11.dtd" >
<svg xmlns="http://www.w3.org/2000/svg" xmlns:xlink="http://www.w3.org/1999/xlink" version="1.1" viewBox="-10 0 1010 1000">
   <path fill="currentColor"
d="M107.662 667.062q-37.125 -2.47461 -65.5869 -29.7012q-29.7002 -28.4609 -38.3623 -73.0117q-3.71289 -17.3242 -3.71289 -32.1758q0 -22.2734 7.4248 -42.0742q13.6123 -33.4121 43.3125 -51.9746zM99 391.1q4.9502 -1.23828 13.6123 -3.71289l73.0127 -18.5625
l74.25 -18.5625l16.0879 64.3496l12.375 49.5l32.1748 132.414l12.375 49.5q-28.4629 7.42383 -74.25 18.5625l-37.125 8.66211q-22.2754 6.1875 -38.3623 9.90039q-7.42578 1.23633 -12.375 2.47461l-12.375 -49.5l-60.6377 -243.787zM714.037 626.225
q-61.875 -245.025 -108.899 -438.074q-2.47559 2.47461 -3.71289 3.71094l-1.2373 1.23828l-1.2373 2.47461q-2.47559 2.47461 -3.71289 4.95117q-39.5996 50.7363 -77.9619 87.8613q-44.5508 43.3125 -92.8125 73.0137q-17.3252 11.1367 -38.3633 19.7988l13.6133 54.4512
l2.47461 9.89844l2.47461 9.90039l4.9502 18.5625q3.71289 17.3262 9.90039 42.0762l4.9502 21.0371l6.1875 21.0371h16.0869q61.875 0 128.7 17.3242q60.6377 16.0879 138.6 50.7383zM706.612 290.861q27.2256 12.375 47.0254 35.8887q17.3252 22.2754 24.75 50.7363
q4.9502 16.0879 4.9502 33.4141q0 11.1367 -2.47559 22.2734q-6.1875 29.7012 -24.75 55.6875q-3.71191 4.95117 -4.9502 9.90039q0 4.95117 1.23828 11.1387q18.5625 74.25 42.0742 169.537q1.23828 4.94922 1.23828 9.90039q0 9.89844 -4.9502 18.5625
q-7.4248 12.375 -22.2754 14.8496h-3.71191q-9.90039 0 -21.0381 -6.1875q-103.95 -56.9258 -195.524 -80.4375q-48.2627 -12.375 -92.8125 -12.375q-34.6504 0 -66.8252 7.42383l-35.8877 -142.312l-9.90039 -38.3613l-12.375 -49.5l-16.0869 -64.3496l14.8496 -3.71289
q44.5498 -11.1387 95.2881 -50.7383q89.0996 -70.5371 163.35 -186.861q12.375 -18.5625 29.7002 -18.5625h2.47461q12.375 0 19.7998 7.42383q8.66309 7.42578 12.375 21.0371l21.0381 85.3887q12.375 47.0254 21.0371 85.3867q1.2373 4.95117 3.71289 8.66211
q2.47461 3.71289 8.66211 6.1875zM848.925 383.674q-2.47461 1.23828 -6.1875 1.23828q-4.9502 0 -11.1377 -3.71289q-7.4248 -4.94922 -9.89941 -13.6113q-1.2373 -3.71289 -1.2373 -6.1875q0 -6.1875 3.71191 -11.1387q4.9502 -8.66211 13.6123 -11.1367l123.75 -30.9375
h3.71289q7.4248 0 13.6123 3.71289q8.66309 3.71094 9.90039 13.6113q1.2373 2.47461 1.2373 6.1875q0 4.95117 -3.71289 11.1387q-4.94922 7.42383 -13.6123 9.89844zM825.412 501.236q-8.66211 -3.71094 -12.375 -13.6113q-1.2373 -3.71289 -1.2373 -7.42578
q0 -4.94922 2.47559 -9.90039q3.71191 -8.66211 12.375 -11.1367q4.94922 -2.47461 8.66211 -2.47461q4.9502 0 8.66211 2.47461l116.325 49.5q8.66309 3.71289 12.375 12.375q2.47559 3.71289 2.47559 8.66211q0 3.71289 -2.47559 8.66211q-3.71191 8.66406 -12.375 12.375
q-3.71191 1.23828 -8.66211 1.23828q-3.71289 0 -8.66309 -1.23828zM804.375 280.963q-6.1875 8.66211 -14.8496 9.89844h-3.71289q-7.4248 0 -13.6123 -3.71094q-7.4248 -4.95117 -9.90039 -14.8516v-3.71094q0 -6.1875 3.71289 -13.6133l73.0127 -103.949
q4.94922 -7.42578 14.8496 -9.90039h3.71289q6.1875 0 13.6123 3.71289q7.4248 6.1875 8.66211 14.8496q1.2373 2.47461 1.2373 4.94922q0 7.42578 -4.94922 12.375zM205.425 737.6l19.7998 -4.94922q24.75 -6.1875 39.6006 -9.90039q44.5498 -11.1387 77.9619 -18.5625
q1.23828 -1.23828 2.47559 -1.23828q2.47461 0 3.71191 1.23828q3.71289 1.23633 6.1875 3.71289q12.375 8.66211 17.3252 23.5117q4.9502 11.1367 4.9502 28.4629q1.2373 13.6113 7.4248 23.5117t18.5625 14.8496q21.0381 9.90039 38.3623 23.5137
q18.5625 13.6113 23.5127 38.3613q1.2373 4.95117 1.2373 9.90039q0 6.1875 -2.47461 9.90039q-4.9502 8.66211 -17.3252 11.1367q-65.5869 17.3262 -117.562 29.7012q-6.1875 2.47461 -11.1377 2.47461q-3.71191 0 -6.1875 -1.23828q-7.4248 -2.47461 -13.6123 -11.1367
q-24.75 -35.8867 -54.4502 -81.6758l-55.6875 -80.4375q0 -1.23633 -1.2373 -2.47461l-1.2373 -1.23633v-2.47656z" />
</svg>
