<?xml version="1.0" standalone="no"?>
<!DOCTYPE svg PUBLIC "-//W3C//DTD SVG 1.1//EN" "http://www.w3.org/Graphics/SVG/1.1/DTD/svg11.dtd" >
<svg xmlns="http://www.w3.org/2000/svg" xmlns:xlink="http://www.w3.org/1999/xlink" version="1.1" viewBox="-10 0 1044 1000">
   <path fill="currentColor"
d="M367.616 271.92h-287.744q-6.14453 0 -11.2637 -4.6084q-5.12012 -4.60742 -5.12012 -11.2637t5.12012 -11.2637q5.11914 -4.6084 11.2637 -4.6084h287.744q7.16797 0 11.7754 4.6084q4.6084 4.60742 4.6084 11.2637t-4.6084 11.2637q-4.60742 4.6084 -11.7754 4.6084z
M335.872 192.048q-13.3125 0 -22.5283 -9.21582t-9.21582 -22.5283q0 -13.3115 9.21582 -22.5273q9.21582 -9.2168 22.5283 -9.2168q13.3115 0 22.5283 9.2168q9.21582 9.21582 9.21582 22.5273q0 13.3125 -9.21582 22.5283q-9.2168 9.21582 -22.5283 9.21582z
M111.616 -31.1836q-13.3125 0 -22.5283 -9.72852q-9.21582 -9.72754 -9.21582 -23.04q0 -13.3115 9.21582 -22.5283q9.21582 -9.21582 22.5283 -9.21582q13.3115 0 23.04 9.21582q9.72754 9.2168 9.72754 22.5283q0 13.3125 -9.72754 23.04q-9.72852 9.72852 -23.04 9.72852
zM224.256 80.4316q-13.3115 0 -22.5283 -9.21582q-9.21582 -9.21582 -9.21582 -22.5273q0 -13.3125 9.21582 -23.04q9.2168 -9.72852 22.5283 -9.72852q13.3125 0 22.5283 9.72852q9.21582 9.72754 9.21582 23.04q0 13.3115 -9.21582 22.5273t-22.5283 9.21582z
M335.872 320.048q13.3115 0 22.5283 9.72852q9.21582 9.72754 9.21582 23.04q0 13.3115 -9.21582 22.5273q-9.2168 9.21582 -22.5283 9.21582q-13.3125 0 -22.5283 -9.21582t-9.21582 -22.5273q0 -13.3125 9.21582 -23.04q9.21582 -9.72852 22.5283 -9.72852z
M335.872 544.304q13.3115 0 22.5283 9.21582q9.21582 9.2168 9.21582 22.5283q0 13.3125 -9.21582 23.04q-9.2168 9.72852 -22.5283 9.72852q-13.3125 0 -22.5283 -9.72852q-9.21582 -9.72754 -9.21582 -23.04q0 -13.3115 9.21582 -22.5283
q9.21582 -9.21582 22.5283 -9.21582zM111.616 320.048q13.3115 0 23.04 9.72852q9.72754 9.72754 9.72754 23.04q0 13.3115 -9.72754 22.5273q-9.72852 9.21582 -23.04 9.21582q-13.3125 0 -22.5283 -9.21582t-9.21582 -22.5273q0 -13.3125 9.21582 -23.04
q9.21582 -9.72852 22.5283 -9.72852zM111.616 544.304q13.3115 0 23.04 9.21582q9.72754 9.2168 9.72754 22.5283q0 13.3125 -9.72754 23.04q-9.72852 9.72852 -23.04 9.72852q-13.3125 0 -22.5283 -9.72852q-9.21582 -9.72754 -9.21582 -23.04q0 -13.3115 9.21582 -22.5283
q9.21582 -9.21582 22.5283 -9.21582zM975.872 400.944q20.4795 0 34.3037 13.8232q13.8242 13.8242 13.8242 33.2803v352.256q0 20.4805 -13.8242 34.3047q-13.8242 13.8232 -34.3037 13.8232h-768q-19.4561 0 -33.792 -13.8232q-14.3359 -13.8242 -14.3359 -34.3047
v-111.615h-111.616q-20.4795 0 -34.3037 -14.3369q-13.8242 -14.3359 -13.8242 -33.792v-768q0 -20.4795 13.8242 -34.3037t34.3037 -13.8242h352.256q19.4561 0 33.792 13.8242t14.3359 34.3037v528.385h527.36zM31.7441 640.56q0 6.14453 4.60742 11.2646
q4.6084 5.12012 11.7764 5.12012h352.256q6.14453 0 10.752 -5.12012q4.6084 -5.12012 4.6084 -11.2646v-768q0 -7.16797 -4.6084 -11.7754q-4.60742 -4.6084 -10.752 -4.6084h-352.256q-7.16797 0 -11.7764 4.6084q-4.60742 4.60742 -4.60742 11.7754v768zM992.256 800.304
v-352.256q0 -6.14355 -4.60742 -10.752q-4.6084 -4.60742 -11.7764 -4.60742h-527.36v207.871q0 19.4561 -14.3359 33.792q-14.3359 14.3369 -33.792 14.3369h-207.872v111.615q0 7.16797 4.6084 11.7764q4.60742 4.6084 10.752 4.6084h768q7.16797 0 11.7764 -4.6084
q4.60742 -4.6084 4.60742 -11.7764zM592.384 464.432q6.65625 0 11.2646 4.6084q4.60742 4.6084 4.60742 11.7764v287.743q0 6.14453 -4.60742 10.752q-4.6084 4.6084 -11.2646 4.6084t-11.7754 -4.6084q-5.12012 -4.60742 -5.12012 -10.752v-287.743
q0 -7.16797 5.12012 -11.7764q5.11914 -4.6084 11.7754 -4.6084zM495.616 480.816q13.3115 0 23.04 9.21582q9.72754 9.21582 9.72754 22.5273q0 13.3125 -9.72754 22.5283q-9.72852 9.21582 -23.04 9.21582q-13.3125 0 -22.5283 -9.21582t-9.21582 -22.5283
q0 -13.3115 9.21582 -22.5273t22.5283 -9.21582zM272.384 704.048q13.3125 0 22.5283 9.72852q9.21582 9.72754 9.21582 23.04q0 13.3115 -9.21582 22.5273t-22.5283 9.21582q-13.3115 0 -23.04 -9.21582q-9.72754 -9.21582 -9.72754 -22.5273q0 -13.3125 9.72754 -23.04
q9.72852 -9.72852 23.04 -9.72852zM688.128 480.816q13.3125 0 22.5283 9.21582t9.21582 22.5273q0 13.3125 -9.21582 22.5283t-22.5283 9.21582q-13.3115 0 -22.5283 -9.21582q-9.21582 -9.21582 -9.21582 -22.5283q0 -13.3115 9.21582 -22.5273
q9.2168 -9.21582 22.5283 -9.21582zM912.384 480.816q13.3125 0 22.5283 9.21582t9.21582 22.5273q0 13.3125 -9.21582 22.5283t-22.5283 9.21582q-13.3115 0 -23.04 -9.21582q-9.72754 -9.21582 -9.72754 -22.5283q0 -13.3115 9.72754 -22.5273
q9.72852 -9.21582 23.04 -9.21582zM799.744 592.432q13.3115 0 22.5283 9.2168q9.21582 9.21582 9.21582 22.5273q0 13.3125 -9.21582 23.04q-9.2168 9.72852 -22.5283 9.72852q-13.3125 0 -22.5283 -9.72852q-9.21582 -9.72754 -9.21582 -23.04
q0 -13.3115 9.21582 -22.5273q9.21582 -9.2168 22.5283 -9.2168zM688.128 704.048q13.3125 0 22.5283 9.72852q9.21582 9.72754 9.21582 23.04q0 13.3115 -9.21582 22.5273t-22.5283 9.21582q-13.3115 0 -22.5283 -9.21582q-9.21582 -9.21582 -9.21582 -22.5273
q0 -13.3125 9.21582 -23.04q9.2168 -9.72852 22.5283 -9.72852zM912.384 704.048q13.3125 0 22.5283 9.72852q9.21582 9.72754 9.21582 23.04q0 13.3115 -9.21582 22.5273t-22.5283 9.21582q-13.3115 0 -23.04 -9.21582q-9.72754 -9.21582 -9.72754 -22.5273
q0 -13.3125 9.72754 -23.04q9.72852 -9.72852 23.04 -9.72852z" />
</svg>
