<?xml version="1.0" standalone="no"?>
<!DOCTYPE svg PUBLIC "-//W3C//DTD SVG 1.1//EN" "http://www.w3.org/Graphics/SVG/1.1/DTD/svg11.dtd" >
<svg xmlns="http://www.w3.org/2000/svg" xmlns:xlink="http://www.w3.org/1999/xlink" version="1.1" viewBox="-10 0 1010 1000">
   <path fill="currentColor"
d="M355.41 437.63h-278.19q-5.93945 0 -10.8896 -4.45508t-4.9502 -10.8896q0 -6.43555 4.9502 -10.8906t10.8896 -4.45508h278.19q6.92969 0 11.3848 4.45508t4.45508 10.8906q0 6.43457 -4.45508 10.8896t-11.3848 4.45508zM324.72 360.41q-12.8701 0 -21.7793 -8.91016
q-8.91016 -8.91016 -8.91016 -21.7803t8.91016 -21.7803q8.90918 -8.91016 21.7793 -8.91016t21.7803 8.91016t8.91016 21.7803t-8.91016 21.7803t-21.7803 8.91016zM107.91 144.59q-12.8701 0 -21.7803 -9.40527t-8.91016 -22.2744q0 -12.8701 8.91016 -21.7803
t21.7803 -8.91016t22.2744 8.91016q9.40527 8.91016 9.40527 21.7803q0 12.8691 -9.40527 22.2744q-9.4043 9.40527 -22.2744 9.40527zM216.81 252.5q-12.8691 0 -21.7793 -8.91016t-8.91016 -21.7803t8.91016 -22.2744q8.91016 -9.40527 21.7793 -9.40527
q12.8701 0 21.7803 9.40527q8.91016 9.4043 8.91016 22.2744t-8.91016 21.7803t-21.7803 8.91016zM324.72 484.16q12.8701 0 21.7803 9.4043q8.91016 9.40527 8.91016 22.2754t-8.91016 21.7803q-8.91016 8.90918 -21.7803 8.90918t-21.7793 -8.90918
q-8.91016 -8.91016 -8.91016 -21.7803t8.91016 -22.2754q8.90918 -9.4043 21.7793 -9.4043zM324.72 700.97q12.8701 0 21.7803 8.91016t8.91016 21.7803q0 12.8691 -8.91016 22.2744t-21.7803 9.40527t-21.7793 -9.40527q-8.91016 -9.40527 -8.91016 -22.2744
q0 -12.8701 8.91016 -21.7803q8.90918 -8.91016 21.7793 -8.91016zM107.91 484.16q12.8701 0 22.2744 9.4043q9.40527 9.40527 9.40527 22.2754t-9.40527 21.7803q-9.4043 8.90918 -22.2744 8.90918t-21.7803 -8.90918q-8.91016 -8.91016 -8.91016 -21.7803
t8.91016 -22.2754q8.91016 -9.4043 21.7803 -9.4043zM107.91 700.97q12.8701 0 22.2744 8.91016q9.40527 8.91016 9.40527 21.7803q0 12.8691 -9.40527 22.2744q-9.4043 9.40527 -22.2744 9.40527t-21.7803 -9.40527t-8.91016 -22.2744q0 -12.8701 8.91016 -21.7803
t21.7803 -8.91016zM943.47 562.37q19.7998 0 33.165 13.3643q13.3652 13.3652 13.3652 32.1758v340.56q0 19.7998 -13.3652 33.165t-33.165 13.3652h-742.5q-18.8096 0 -32.6699 -13.3652q-13.8594 -13.3652 -13.8594 -33.165v-107.91h-107.91q-19.7998 0 -33.165 -13.8604
q-13.3652 -13.8594 -13.3652 -32.6699v-742.5q0 -19.7998 13.3652 -33.165q13.3652 -13.3643 33.165 -13.3643h340.56q18.8105 0 32.6699 13.3643q13.8604 13.3652 13.8604 33.165v510.841h509.85zM30.6904 794.029q0 5.94043 4.4541 10.8906q4.45508 4.9502 11.3857 4.9502
h340.56q5.94043 0 10.3955 -4.9502t4.45508 -10.8906v-742.5q0 -6.92969 -4.45508 -11.3848t-10.3955 -4.45508h-340.56q-6.93066 0 -11.3857 4.45508q-4.4541 4.45508 -4.4541 11.3848v742.5zM959.31 948.47v-340.56q0 -5.94043 -4.4541 -10.3955
q-4.45508 -4.45508 -11.3857 -4.45508h-509.85v200.97q0 18.8105 -13.8604 32.6699q-13.8594 13.8604 -32.6699 13.8604h-200.97v107.91q0 6.92969 4.45508 11.3848t10.3945 4.45508h742.5q6.93066 0 11.3857 -4.45508q4.4541 -4.45508 4.4541 -11.3848zM572.715 623.75
q6.43555 0 10.8906 4.45508q4.4541 4.45508 4.4541 11.3848v278.189q0 5.94043 -4.4541 10.3955q-4.45508 4.45508 -10.8906 4.45508q-6.43457 0 -11.3848 -4.45508t-4.9502 -10.3955v-278.189q0 -6.92969 4.9502 -11.3848t11.3848 -4.45508zM479.16 639.59
q12.8701 0 22.2744 8.91016q9.40527 8.91016 9.40527 21.7793q0 12.8701 -9.40527 21.7803q-9.4043 8.91016 -22.2744 8.91016t-21.7803 -8.91016t-8.91016 -21.7803q0 -12.8691 8.91016 -21.7793t21.7803 -8.91016zM263.34 855.41q12.8701 0 21.7803 9.4043
q8.91016 9.40527 8.91016 22.2754t-8.91016 21.7803q-8.91016 8.90918 -21.7803 8.90918t-22.2744 -8.90918q-9.40527 -8.91016 -9.40527 -21.7803t9.40527 -22.2754q9.4043 -9.4043 22.2744 -9.4043zM665.28 639.59q12.8701 0 21.7793 8.91016
q8.91016 8.91016 8.91016 21.7793q0 12.8701 -8.91016 21.7803q-8.90918 8.91016 -21.7793 8.91016t-21.7803 -8.91016t-8.91016 -21.7803q0 -12.8691 8.91016 -21.7793t21.7803 -8.91016zM882.09 639.59q12.8701 0 21.7803 8.91016t8.91016 21.7793
q0 12.8701 -8.91016 21.7803t-21.7803 8.91016t-22.2744 -8.91016q-9.40527 -8.91016 -9.40527 -21.7803q0 -12.8691 9.40527 -21.7793q9.4043 -8.91016 22.2744 -8.91016zM773.19 747.5q12.8691 0 21.7793 8.91016q8.91016 8.90918 8.91016 21.7793t-8.91016 22.2754
t-21.7793 9.40527q-12.8701 0 -21.7803 -9.40527t-8.91016 -22.2754t8.91016 -21.7793q8.91016 -8.91016 21.7803 -8.91016zM665.28 855.41q12.8701 0 21.7793 9.4043q8.91016 9.40527 8.91016 22.2754t-8.91016 21.7803q-8.90918 8.90918 -21.7793 8.90918
t-21.7803 -8.90918q-8.91016 -8.91016 -8.91016 -21.7803t8.91016 -22.2754q8.91016 -9.4043 21.7803 -9.4043zM882.09 855.41q12.8701 0 21.7803 9.4043q8.91016 9.40527 8.91016 22.2754t-8.91016 21.7803q-8.91016 8.90918 -21.7803 8.90918t-22.2744 -8.90918
q-9.40527 -8.91016 -9.40527 -21.7803t9.40527 -22.2754q9.4043 -9.4043 22.2744 -9.4043z" />
</svg>
