<?xml version="1.0" standalone="no"?>
<!DOCTYPE svg PUBLIC "-//W3C//DTD SVG 1.1//EN" "http://www.w3.org/Graphics/SVG/1.1/DTD/svg11.dtd" >
<svg xmlns="http://www.w3.org/2000/svg" xmlns:xlink="http://www.w3.org/1999/xlink" version="1.1" viewBox="-10 0 1064 1000">
   <path fill="currentColor"
d="M872 50.333q-54.667 20 -102.667 52q-53.333 32 -98.666 73.334q13.333 12 28 21.333q53.333 40 114.666 68q8 4 22.667 9.33301l6.66699 2.66699l6.66602 2.66699q9.33398 4 16 6.66602q44 18.667 84 36q33.334 10.667 54.667 40q13.333 24 13.333 49.334
q0 12 -2.66602 25.333q-8 46.667 -45.334 77.333q-29.333 24 -66.666 26.667q-12 2.66699 -24 2.66699q-32 0 -61.334 -17.334q-21.333 -14.666 -33.333 -45.333l-2.66699 -8l-2.66602 -8q-4 -10.667 -6.66699 -17.333q-8 -22.667 -18.667 -42.667
q-26.666 -46.667 -62.666 -86.667q-38.667 -45.333 -85.334 -81.333q-17.333 16 -33.333 33.333l-6.66699 6.66699l-6.66602 6.66699q-8 8 -16 14.666q-17.334 18.667 -32 34.667q-40 41.333 -72 77.333q-85.334 100 -109.334 164q-10.666 26.667 -24 53.334
q-21.333 53.333 -68 85.333q-29.333 16 -62.666 16h-14.667q-37.333 0 -70.667 -18.667q-44 -26.666 -60 -74.666q-8 -25.334 -8 -52q0 -13.334 2.66699 -28q6.66699 -40 24 -74.667q16 -33.333 41.333 -61.333q44 -41.334 102.667 -57.334q106.667 -37.333 204 -92
q60 -38.666 114.667 -84l14.666 -10.666l-16 -12l-6.66602 -5.33398l-8 -5.33301q-8 -5.33301 -14.667 -10.667q-20 -13.333 -36 -25.333q-44 -29.333 -81.333 -52q-101.334 -62.667 -161.334 -74.667q-28 -5.33301 -52 -13.333q-50.666 -10.667 -88 -49.333
q-21.333 -28 -24 -64q-2.66602 -14.667 -2.66602 -29.334q0 -22.666 6.66602 -44q16 -44 56 -68q33.334 -17.333 70.667 -17.333h8q32 0 62.667 9.33301q32 9.33398 60 28q45.333 34.667 68 86.667q49.333 90.667 114.666 172q42.667 50.667 92 92l24 21.333
q22.667 -21.333 45.334 -44q53.333 -52 94.666 -113.333q5.33398 -6.66699 14.667 -21.333l4 -6.66699l4 -8q5.33301 -9.33301 10.667 -16q26.666 -44 53.333 -85.333q18.667 -33.334 52 -52q18.667 -6.66699 37.333 -6.66699q21.334 0 42.667 9.33301
q49.333 17.334 73.333 64q14.667 32 14.667 68v10.667q-1.33301 50.667 -33.333 90.667q-18.667 18.666 -53.334 26.666l-9.33301 1.33398l-8 1.33301q-12 2.66699 -20 4q-25.333 5.33301 -48 13.333z" />
</svg>
