<?xml version="1.0" standalone="no"?>
<!DOCTYPE svg PUBLIC "-//W3C//DTD SVG 1.1//EN" "http://www.w3.org/Graphics/SVG/1.1/DTD/svg11.dtd" >
<svg xmlns="http://www.w3.org/2000/svg" xmlns:xlink="http://www.w3.org/1999/xlink" version="1.1" viewBox="-10 0 1009 1000">
   <path fill="currentColor"
d="M822.422 338.867q-52.8516 19.3359 -99.2578 50.2734q-51.5625 30.9375 -95.3906 70.8984q12.8906 11.6016 27.0703 20.625q51.5625 38.6719 110.859 65.7422q7.73438 3.86719 21.9141 9.02344l6.44531 2.57812l6.44531 2.57812q9.02344 3.86719 15.4688 6.44531
q42.5391 18.0469 81.2109 34.8047q32.2266 10.3125 52.8516 38.6719q12.8906 23.2031 12.8906 47.6953q0 11.6016 -2.57812 24.4922q-7.73438 45.1172 -43.8281 74.7656q-28.3594 23.2031 -64.4531 25.7812q-11.6016 2.57812 -23.2031 2.57812q-30.9375 0 -59.2969 -16.7578
q-20.625 -14.1797 -32.2266 -43.8281l-2.57812 -7.73438l-2.57812 -7.73438q-3.86719 -10.3125 -6.44531 -16.7578q-7.73438 -21.9141 -18.0469 -41.25q-25.7812 -45.1172 -60.5859 -83.7891q-37.3828 -43.8281 -82.5 -78.6328q-16.7578 15.4688 -32.2266 32.2266
l-6.44531 6.44531l-6.44531 6.44531q-7.73438 7.73438 -15.4688 14.1797q-16.7578 18.0469 -30.9375 33.5156q-38.6719 39.9609 -69.6094 74.7656q-82.5 96.6797 -105.703 158.555q-10.3125 25.7812 -23.2031 51.5625q-20.625 51.5625 -65.7422 82.5
q-28.3594 15.4688 -60.5859 15.4688h-14.1797q-36.0938 0 -68.3203 -18.0469q-42.5391 -25.7812 -58.0078 -72.1875q-7.73438 -24.4922 -7.73438 -50.2734q0 -12.8906 2.57812 -27.0703q6.44531 -38.6719 23.2031 -72.1875q15.4688 -32.2266 39.9609 -59.2969
q42.5391 -39.9609 99.2578 -55.4297q103.125 -36.0938 197.227 -88.9453q58.0078 -37.3828 110.859 -81.2109l14.1797 -10.3125l-15.4688 -11.6016l-6.44531 -5.15625l-7.73438 -5.15625q-7.73438 -5.15625 -14.1797 -10.3125q-19.3359 -12.8906 -34.8047 -24.4922
q-42.5391 -28.3594 -78.6328 -50.2734q-97.9688 -60.5859 -155.977 -72.1875q-27.0703 -5.15625 -50.2734 -12.8906q-48.9844 -10.3125 -85.0781 -47.6953q-20.625 -27.0703 -23.2031 -61.875q-2.57812 -14.1797 -2.57812 -28.3594q0 -21.9141 6.44531 -42.5391
q15.4688 -42.5391 54.1406 -65.7422q32.2266 -16.7578 68.3203 -16.7578h7.73438q30.9375 0 60.5859 9.02344q30.9375 9.02344 58.0078 27.0703q43.8281 33.5156 65.7422 83.7891q47.6953 87.6562 110.859 166.289q41.25 48.9844 88.9453 88.9453l23.2031 20.625
q21.9141 -20.625 43.8281 -42.5391q51.5625 -50.2734 91.5234 -109.57q5.15625 -6.44531 14.1797 -20.625l3.86719 -6.44531l3.86719 -7.73438q5.15625 -9.02344 10.3125 -15.4688q25.7812 -42.5391 51.5625 -82.5q18.0469 -32.2266 50.2734 -50.2734
q18.0469 -6.44531 36.0938 -6.44531q20.625 0 41.25 9.02344q47.6953 16.7578 70.8984 61.875q14.1797 30.9375 14.1797 65.7422v10.3125q-1.28906 48.9844 -32.2266 87.6562q-18.0469 18.0469 -51.5625 25.7812l-9.02344 1.28906l-7.73438 1.28906
q-11.6016 2.57812 -19.3359 3.86719q-24.4922 5.15625 -46.4062 12.8906z" />
</svg>
