<?xml version="1.0" standalone="no"?>
<!DOCTYPE svg PUBLIC "-//W3C//DTD SVG 1.1//EN" "http://www.w3.org/Graphics/SVG/1.1/DTD/svg11.dtd" >
<svg xmlns="http://www.w3.org/2000/svg" xmlns:xlink="http://www.w3.org/1999/xlink" version="1.1" viewBox="-10 0 1044 1000">
   <path fill="currentColor"
d="M892.16 268.2q1.28027 -3.83984 1.28027 -6.40039q0 -8.95996 -10.2402 -12.7998h-3.83984q-5.12012 0 -10.2402 2.55957q-10.2402 -20.4795 -32 -29.4395q-11.5205 -5.12012 -23.04 -5.12012q-10.2402 0 -20.4805 3.83984q-2.55957 -10.2402 -2.55957 -21.7598v-7.67969
q0 -32 19.2002 -47.3604q3.83984 3.83984 7.67969 5.12012t6.40039 1.28027q8.95996 0 14.0801 -10.2402q1.2793 -3.83984 1.2793 -6.40039q0 -8.95996 -10.2393 -12.7998q-3.84082 -1.28027 -7.68066 -1.28027q-8.95996 0 -12.7998 10.2402
q-1.28027 2.55957 -1.28027 5.12012h-5.12012q-53.7598 0 -81.9199 48.6396q-7.67969 -24.3193 -29.4395 -38.3994q-15.3604 -8.95996 -32 -8.95996q-7.68066 0 -14.0801 1.2793q-2.56055 -8.95996 -10.2402 -11.5195q-3.83984 -1.28027 -6.39941 -1.28027
q-8.96094 0 -12.8008 10.2402q-1.2793 3.83984 -1.2793 7.67969q0 8.95996 10.2393 12.7998q3.84082 1.28027 6.40039 1.28027q8.95996 0 12.7998 -10.2402l1.28027 -1.2793q6.39941 2.55957 12.7998 8.95996q6.40039 8.95996 10.2402 20.4795
q2.55957 10.2402 2.55957 24.3203q0 26.8799 -8.95996 62.7197l-2.55957 7.68066v1.2793q0 11.5205 57.5996 33.2803q25.6006 8.95996 44.7998 11.5195q7.68066 1.28027 12.8008 1.28027q6.39941 0 7.67969 -2.55957q11.5195 -24.3203 33.2803 -39.6807
q21.7598 -14.0801 47.3594 -15.3594v3.83984q0 11.5195 10.2402 15.3604q3.83984 1.2793 6.40039 1.2793q8.95996 0 12.7998 -10.2393v-1.28027zM981.76 -19.7998h1.28027q21.7598 6.39941 33.2803 26.8799q7.67969 12.7998 7.67969 26.8799q0 7.67969 -2.55957 15.3604
l-131.841 494.08q-5.11914 21.7598 -25.5996 34.5596q-12.7998 7.67969 -26.8799 7.67969q-8.95996 0 -16.6396 -2.55957l-235.521 -62.7197q15.3604 -12.8008 24.3203 -29.4404q14.0801 -23.04 14.0801 -48.6396q0 -14.0801 -3.84082 -28.1602l-80.6396 -304.64
l47.3604 -177.921q6.39941 -23.04 25.5996 -34.5596q12.7998 -7.67969 26.8799 -7.67969q8.95996 0 16.6406 2.55957zM432.64 192.68q0 -3.83984 -1.2793 -7.67969q-2.56055 -7.67969 -10.2402 -8.95996q-3.83984 -1.28027 -6.40039 -1.28027q-8.95996 0 -12.7998 11.5205
q-11.5195 -5.12012 -24.3203 -5.12012q-10.2393 0 -19.1992 2.55957q-21.7607 7.68066 -33.2803 28.1602q-11.5205 -7.67969 -20.4805 -20.4795q-16.6396 -19.2002 -16.6396 -39.6807q0 -5.12012 1.28027 -10.2393h8.95996q10.2402 -3.84082 10.2402 -12.8008
q0 -3.83984 -1.28027 -7.67969q-3.83984 -10.2402 -12.7998 -10.2402q-2.56055 0 -6.40039 1.28027q-10.2402 5.12012 -10.2402 14.0801q0 2.55957 1.28027 6.39941q0 2.56055 2.55957 5.12012q-38.3994 28.1602 -38.3994 72.96q0 8.95996 1.28027 19.2002
q-15.3604 -10.2402 -34.5605 -10.2402q-5.12012 0 -11.5195 1.28027q-25.6006 3.83984 -40.96 24.3203q-3.84082 -3.83984 -10.2402 -3.83984q-2.56055 0 -5.12012 1.2793q-10.2402 3.84082 -10.2402 12.8008q0 3.83984 1.28027 7.67969q5.12012 10.2402 14.0801 10.2402
q2.55957 0 6.39941 -1.28027q10.2402 -5.12012 10.2402 -14.0801q0 -2.55957 -1.28027 -6.40039l-1.2793 -1.2793q5.12012 -1.28027 10.2393 -1.28027q12.8008 0 26.8809 10.2402q26.8799 17.9199 51.1992 70.3994l3.84082 6.40039q1.2793 5.12012 10.2393 5.12012
q15.3604 0 55.04 -15.3604q56.3203 -21.7598 56.3203 -33.2803v-1.2793q-3.83984 -12.7998 -3.83984 -25.6006q0 -12.7998 3.83984 -25.5996q7.67969 -24.3203 26.8799 -42.2402q5.12012 10.2402 12.7998 10.2402q2.56055 0 6.40039 -1.28027
q11.5195 -5.12012 11.5195 -14.0801zM568.32 425.64q2.55957 7.68066 2.55957 15.3604q0 14.0801 -7.67969 26.8799q-11.5205 20.4805 -34.5605 26.8799l-326.399 88.3203q-7.68066 2.55957 -15.3604 2.55957q-14.0801 0 -28.1602 -8.95996
q-19.2002 -11.5195 -25.5996 -34.5596l-131.84 -492.8q-1.28027 -7.68066 -1.28027 -14.0801q0 -15.3604 7.67969 -29.4404q11.5205 -20.4795 34.5605 -26.8799l326.399 -88.3203q7.68066 -1.2793 14.0801 -1.2793q15.3604 0 28.1602 7.67969
q20.4805 11.5195 26.8799 34.5596z" />
</svg>
