<?xml version="1.0" standalone="no"?>
<!DOCTYPE svg PUBLIC "-//W3C//DTD SVG 1.1//EN" "http://www.w3.org/Graphics/SVG/1.1/DTD/svg11.dtd" >
<svg xmlns="http://www.w3.org/2000/svg" xmlns:xlink="http://www.w3.org/1999/xlink" version="1.1" viewBox="-10 0 1010 1000">
   <path fill="currentColor"
d="M862.537 529.699q1.23828 -3.71289 1.23828 -6.1875q0 -8.66211 -9.90039 -12.375h-3.71289q-4.94922 0 -9.89941 2.47461q-9.90039 -19.7988 -30.9375 -28.4609q-11.1377 -4.95117 -22.2754 -4.95117q-9.89941 0 -19.7998 3.71289q-2.47461 -9.90039 -2.47461 -21.0371
v-7.42578q0 -30.9375 18.5625 -45.7871q3.71191 3.71289 7.4248 4.94922q3.71191 1.23828 6.1875 1.23828q8.66211 0 13.6123 -9.90039q1.2373 -3.71289 1.2373 -6.1875q0 -8.66211 -9.89941 -12.375q-3.71289 -1.23633 -7.42578 -1.23633q-8.66211 0 -12.375 9.89844
q-1.2373 2.47656 -1.2373 4.95117h-4.9502q-51.9746 0 -79.1992 47.0254q-7.42578 -23.5137 -28.4629 -37.125q-14.8496 -8.66406 -30.9375 -8.66406q-7.4248 0 -13.6123 1.23828q-2.47559 -8.66211 -9.90039 -11.1367q-3.71191 -1.23828 -6.1875 -1.23828
q-8.66211 0 -12.375 9.90039q-1.2373 3.71289 -1.2373 7.42383q0 8.66406 9.90039 12.375q3.71191 1.23828 6.1875 1.23828q8.66211 0 12.375 -9.90039l1.2373 -1.23633q6.1875 2.47461 12.375 8.66211q6.1875 8.66211 9.89941 19.7988q2.47559 9.90039 2.47559 23.5137
q0 25.9863 -8.66309 60.6367l-2.47461 7.42578v1.23633q0 11.1387 55.6875 32.1758q24.75 8.66211 43.3125 11.1367q7.4248 1.23828 12.375 1.23828q6.1875 0 7.4248 -2.47461q11.1377 -23.5137 32.1748 -38.3633q21.0381 -13.6113 45.7881 -14.8496v3.71289
q0 11.1367 9.89941 14.8496q3.71289 1.23828 6.1875 1.23828q8.66309 0 12.375 -9.90039v-1.23828zM949.162 251.262h1.23828q21.0371 6.1875 32.1748 25.9883q7.4248 12.375 7.4248 25.9863q0 7.42578 -2.47461 14.8516l-127.463 477.674q-4.9502 21.0371 -24.75 33.4121
q-12.375 7.42578 -25.9873 7.42578q-8.66309 0 -16.0879 -2.47461l-227.7 -60.6387q14.8506 -12.375 23.5127 -28.4609q13.6123 -22.2754 13.6123 -47.0254q0 -13.6133 -3.71191 -27.2246l-77.9629 -294.525l45.7881 -172.014q6.1875 -22.2734 24.75 -33.4121
q12.375 -7.42383 25.9873 -7.42383q8.66211 0 16.0869 2.47461zM418.275 456.688q0 -3.71289 -1.23828 -7.42578q-2.47461 -7.42383 -9.89941 -8.66211q-3.71289 -1.23828 -6.1875 -1.23828q-8.66309 0 -12.375 11.1387q-11.1377 -4.95117 -23.5127 -4.95117
q-9.90039 0 -18.5625 2.47656q-21.0371 7.42383 -32.1748 27.2246q-11.1377 -7.42578 -19.7998 -19.8008q-16.0879 -18.5625 -16.0879 -38.3613q0 -4.95117 1.2373 -9.90039h8.66309q9.89941 -3.71289 9.89941 -12.375q0 -3.71289 -1.2373 -7.42578
q-3.71289 -9.90039 -12.375 -9.90039q-2.47461 0 -6.1875 1.23828q-9.90039 4.94922 -9.90039 13.6133q0 2.47461 1.23828 6.1875q0 2.47461 2.47461 4.94922q-37.125 27.2246 -37.125 70.5371q0 8.66211 1.2373 18.5625q-14.8496 -9.90039 -33.4121 -9.90039
q-4.9502 0 -11.1377 1.23828q-24.75 3.71289 -39.5996 23.5117q-3.71289 -3.71094 -9.90039 -3.71094q-2.47461 0 -4.9502 1.23633q-9.89941 3.71289 -9.89941 12.375q0 3.71289 1.2373 7.42578q4.9502 9.90039 13.6123 9.90039q2.47461 0 6.1875 -1.23828
q9.90039 -4.94922 9.90039 -13.6133q0 -2.47461 -1.23828 -6.1875l-1.2373 -1.23633q4.9502 -1.23828 9.90039 -1.23828q12.375 0 25.9873 9.90039q25.9873 17.3242 49.5 68.0625l3.71289 6.1875q1.2373 4.94922 9.89941 4.94922q14.8506 0 53.2129 -14.8496
q54.4502 -21.0371 54.4502 -32.1738v-1.23828q-3.71289 -12.375 -3.71289 -24.75t3.71289 -24.75q7.4248 -23.5117 25.9873 -40.8379q4.9502 9.90039 12.375 9.90039q2.47461 0 6.1875 -1.23828q11.1377 -4.94922 11.1377 -13.6113zM549.45 681.912
q2.47461 7.42578 2.47461 14.8496q0 13.6133 -7.4248 25.9883q-11.1377 19.7988 -33.4121 25.9863l-315.562 85.3887q-7.42578 2.47461 -14.8506 2.47461q-13.6123 0 -27.2246 -8.66211q-18.5625 -11.1387 -24.75 -33.4121l-127.463 -476.438
q-1.2373 -7.42578 -1.2373 -13.6133q0 -14.8496 7.4248 -28.4629q11.1377 -19.7988 33.4131 -25.9863l315.562 -85.3887q7.4248 -1.23633 13.6123 -1.23633q14.8496 0 27.2246 7.42383q19.7998 11.1387 25.9873 33.4121z" />
</svg>
