<?xml version="1.0" standalone="no"?>
<!DOCTYPE svg PUBLIC "-//W3C//DTD SVG 1.1//EN" "http://www.w3.org/Graphics/SVG/1.1/DTD/svg11.dtd" >
<svg xmlns="http://www.w3.org/2000/svg" xmlns:xlink="http://www.w3.org/1999/xlink" version="1.1" viewBox="-10 0 868 1000">
   <path fill="currentColor"
d="M768.281 938.281q-108.281 56.7188 -229.453 56.7188h-11.6016q-99.2578 0 -188.203 -41.25q-95.3906 -45.1172 -159.844 -127.617q-67.0312 -83.7891 -82.5 -190.781h-96.6797v-104.414h81.2109v-25.7812l1.28906 -21.9141v-21.9141h-82.5v-104.414h99.2578
q24.4922 -113.438 101.836 -199.805q63.1641 -74.7656 153.398 -114.727q83.7891 -37.3828 175.312 -37.3828h11.6016q114.727 0 221.719 43.8281l-41.25 167.578q-79.9219 -33.5156 -165 -34.8047h-9.02344q-103.125 0 -171.445 79.9219q-34.8047 41.25 -47.6953 95.3906
h367.383v104.414h-389.297q-1.28906 15.4688 -1.28906 45.1172v24.4922h390.586v104.414h-369.961q11.6016 58.0078 48.9844 103.125q72.1875 74.7656 172.734 74.7656h16.7578q88.9453 -1.28906 168.867 -38.6719z" />
</svg>
