<?xml version="1.0" standalone="no"?>
<!DOCTYPE svg PUBLIC "-//W3C//DTD SVG 1.1//EN" "http://www.w3.org/Graphics/SVG/1.1/DTD/svg11.dtd" >
<svg xmlns="http://www.w3.org/2000/svg" xmlns:xlink="http://www.w3.org/1999/xlink" version="1.1" viewBox="-10 0 1034 1000">
   <path fill="currentColor"
d="M930.667 670.333q-112 58.667 -237.334 58.667h-12q-102.666 0 -194.666 -42.667q-98.667 -46.666 -165.334 -132q-69.333 -86.666 -85.333 -197.333h-100v-108h84v-26.667l1.33301 -22.666v-22.667h-85.333v-108h102.667q25.333 -117.333 105.333 -206.667
q65.333 -77.333 158.667 -118.666q86.666 -38.667 181.333 -38.667h12q118.667 0 229.333 45.333l-42.666 173.334q-82.667 -34.667 -170.667 -36h-9.33301q-106.667 0 -177.334 82.666q-36 42.667 -49.333 98.667h380v108h-402.667q-1.33301 16 -1.33301 46.667v25.333h404
v108h-382.667q12 60 50.667 106.667q74.667 77.333 178.667 77.333h17.333q92 -1.33301 174.667 -40z" />
</svg>
