<?xml version="1.0" standalone="no"?>
<!DOCTYPE svg PUBLIC "-//W3C//DTD SVG 1.1//EN" "http://www.w3.org/Graphics/SVG/1.1/DTD/svg11.dtd" >
<svg xmlns="http://www.w3.org/2000/svg" xmlns:xlink="http://www.w3.org/1999/xlink" version="1.1" viewBox="-10 0 1010 1000">
   <path fill="currentColor"
d="M925.547 69.4531q64.4531 64.4531 64.4531 154.688q0 91.5234 -64.4531 155.977t-154.688 64.4531q-91.5234 0 -155.977 -64.4531t-64.4531 -155.977q0 -90.2344 64.4531 -154.688t155.977 -64.4531q90.2344 0 154.688 64.4531zM385.43 5q23.2031 0 38.6719 15.4688
q16.7578 16.7578 16.7578 38.6719v330q0 23.2031 -16.7578 39.9609q-15.4688 15.4688 -38.6719 15.4688h-330q-23.2031 0 -38.6719 -15.4688q-16.7578 -16.7578 -16.7578 -39.9609v-330q0 -21.9141 16.7578 -38.6719q15.4688 -15.4688 38.6719 -15.4688h330zM385.43 554.141
q23.2031 0 38.6719 16.7578q16.7578 15.4688 16.7578 38.6719v330q0 23.2031 -16.7578 38.6719q-15.4688 16.7578 -38.6719 16.7578h-330q-23.2031 0 -38.6719 -16.7578q-16.7578 -15.4688 -16.7578 -38.6719v-330q0 -23.2031 16.7578 -38.6719
q15.4688 -16.7578 38.6719 -16.7578h330zM935.859 554.141q21.9141 0 38.6719 16.7578q15.4688 15.4688 15.4688 38.6719v330q0 23.2031 -15.4688 38.6719q-16.7578 16.7578 -38.6719 16.7578h-330q-23.2031 0 -39.9609 -16.7578q-15.4688 -15.4688 -15.4688 -38.6719v-330
q0 -23.2031 15.4688 -38.6719q16.7578 -16.7578 39.9609 -16.7578h330z" />
</svg>
