<?xml version="1.0" standalone="no"?>
<!DOCTYPE svg PUBLIC "-//W3C//DTD SVG 1.1//EN" "http://www.w3.org/Graphics/SVG/1.1/DTD/svg11.dtd" >
<svg xmlns="http://www.w3.org/2000/svg" xmlns:xlink="http://www.w3.org/1999/xlink" version="1.1" viewBox="-10 0 1066 1000">
   <path fill="currentColor"
d="M978.667 -228.333q66.666 66.666 66.666 160q0 94.666 -66.666 161.333q-66.667 66.667 -160 66.667q-94.667 0 -161.334 -66.667q-66.666 -66.667 -66.666 -161.333q0 -93.334 66.666 -160q66.667 -66.667 161.334 -66.667q93.333 0 160 66.667zM420 -295q24 0 40 16
q17.333 17.333 17.333 40v341.333q0 24 -17.333 41.334q-16 16 -40 16h-341.333q-24 0 -40 -16q-17.334 -17.334 -17.334 -41.334v-341.333q0 -22.667 17.334 -40q16 -16 40 -16h341.333zM420 273q24 0 40 17.333q17.333 16 17.333 40v341.334q0 24 -17.333 40
q-16 17.333 -40 17.333h-341.333q-24 0 -40 -17.333q-17.334 -16 -17.334 -40v-341.334q0 -24 17.334 -40q16 -17.333 40 -17.333h341.333zM989.333 273q22.667 0 40 17.333q16 16 16 40v341.334q0 24 -16 40q-17.333 17.333 -40 17.333h-341.333q-24 0 -41.333 -17.333
q-16 -16 -16 -40v-341.334q0 -24 16 -40q17.333 -17.333 41.333 -17.333h341.333z" />
</svg>
