<?xml version="1.0" standalone="no"?>
<!DOCTYPE svg PUBLIC "-//W3C//DTD SVG 1.1//EN" "http://www.w3.org/Graphics/SVG/1.1/DTD/svg11.dtd" >
<svg xmlns="http://www.w3.org/2000/svg" xmlns:xlink="http://www.w3.org/1999/xlink" version="1.1" viewBox="-10 0 930 1000">
   <path fill="currentColor"
d="M518.203 485.82q85.0781 0 135.352 -9.02344q37.3828 -6.44531 54.1406 -18.0469q14.1797 -11.6016 23.2031 -37.3828q10.3125 -34.8047 10.3125 -92.8125q0 -73.4766 -7.73438 -116.016q-3.86719 -16.7578 -9.02344 -28.3594q-2.57812 -7.73438 -7.73438 -12.8906
q-3.86719 -5.15625 -10.3125 -9.02344q-9.02344 -5.15625 -21.9141 -9.02344q-32.2266 -9.02344 -91.5234 -9.02344l-41.25 -1.28906h-260.391v342.891h226.875zM136.641 840.312h-136.641v-137.93h136.641v-77.3438h-136.641v-139.219h136.641v-480.82h455.039
q170.156 0 235.898 69.6094q64.4531 68.3203 64.4531 246.211q0 171.445 -68.3203 237.188q-67.0312 65.7422 -243.633 65.7422h-288.75v77.3438h136.641v137.93h-136.641v155.977h-154.688v-154.688z" />
</svg>
