<?xml version="1.0" standalone="no"?>
<!DOCTYPE svg PUBLIC "-//W3C//DTD SVG 1.1//EN" "http://www.w3.org/Graphics/SVG/1.1/DTD/svg11.dtd" >
<svg xmlns="http://www.w3.org/2000/svg" xmlns:xlink="http://www.w3.org/1999/xlink" version="1.1" viewBox="-10 0 1034 1000">
   <path fill="currentColor"
d="M608 202.333q88 0 140 -9.33301q38.667 -6.66699 56 -18.667q14.667 -12 24 -38.666q10.667 -36 10.667 -96q0 -76 -8 -120q-4 -17.334 -9.33398 -29.334q-2.66602 -8 -8 -13.333q-4 -5.33301 -10.666 -9.33301q-9.33398 -5.33398 -22.667 -9.33398
q-33.333 -9.33301 -94.667 -9.33301l-42.666 -1.33301h-269.334v354.666h234.667zM213.333 569h-141.333v-142.667h141.333v-80h-141.333v-144h141.333v-497.333h470.667q176 0 244 72q66.667 70.667 66.667 254.667q0 177.333 -70.667 245.333q-69.333 68 -252 68h-298.667
v80h141.334v142.667h-141.334v161.333h-160v-160z" />
</svg>
