<?xml version="1.0" standalone="no"?>
<!DOCTYPE svg PUBLIC "-//W3C//DTD SVG 1.1//EN" "http://www.w3.org/Graphics/SVG/1.1/DTD/svg11.dtd" >
<svg xmlns="http://www.w3.org/2000/svg" xmlns:xlink="http://www.w3.org/1999/xlink" version="1.1" viewBox="-10 0 764 1000">
   <path fill="currentColor"
d="M300.352 439.414q117.305 30.9375 176.602 74.7656q82.5 61.875 82.5 167.578q0 79.9219 -56.7188 131.484q-50.2734 46.4062 -136.641 63.1641v118.594h-165v-119.883q-85.0781 -18.0469 -137.93 -68.3203q-59.2969 -56.7188 -63.1641 -141.797h119.883
q11.6016 114.727 163.711 114.727q81.2109 0 119.883 -34.8047q29.6484 -25.7812 29.6484 -63.1641q0 -43.8281 -30.9375 -73.4766q-39.9609 -36.0938 -134.062 -59.2969q-125.039 -29.6484 -186.914 -79.9219q-72.1875 -56.7188 -72.1875 -146.953
q0 -76.0547 56.7188 -130.195q51.5625 -50.2734 135.352 -68.3203v-118.594h165v119.883q76.0547 15.4688 125.039 73.4766q50.2734 59.2969 51.5625 136.641h-121.172q-5.15625 -116.016 -137.93 -116.016q-68.3203 0 -108.281 28.3594t-39.9609 73.4766
q0 39.9609 36.0938 67.0312q37.3828 27.0703 128.906 51.5625z" />
</svg>
