<?xml version="1.0" standalone="no"?>
<!DOCTYPE svg PUBLIC "-//W3C//DTD SVG 1.1//EN" "http://www.w3.org/Graphics/SVG/1.1/DTD/svg11.dtd" >
<svg xmlns="http://www.w3.org/2000/svg" xmlns:xlink="http://www.w3.org/1999/xlink" version="1.1" viewBox="-10 0 1034 1000">
   <path fill="currentColor"
d="M554.667 154.333q121.333 32 182.666 77.334q85.334 64 85.334 173.333q0 82.667 -58.667 136q-52 48 -141.333 65.333v122.667h-170.667v-124q-88 -18.667 -142.667 -70.667q-61.333 -58.666 -65.333 -146.666h124q12 118.666 169.333 118.666q84 0 124 -36
q30.667 -26.666 30.667 -65.333q0 -45.333 -32 -76q-41.333 -37.333 -138.667 -61.333q-129.333 -30.667 -193.333 -82.667q-74.667 -58.667 -74.667 -152q0 -78.667 58.667 -134.667q53.333 -52 140 -70.666v-122.667h170.667v124q78.666 16 129.333 76
q52 61.333 53.333 141.333h-125.333q-5.33301 -120 -142.667 -120q-70.666 0 -112 29.334q-41.333 29.333 -41.333 76q0 41.333 37.333 69.333q38.667 28 133.334 53.333z" />
</svg>
