<?xml version="1.0" standalone="no"?>
<!DOCTYPE svg PUBLIC "-//W3C//DTD SVG 1.1//EN" "http://www.w3.org/Graphics/SVG/1.1/DTD/svg11.dtd" >
<svg xmlns="http://www.w3.org/2000/svg" xmlns:xlink="http://www.w3.org/1999/xlink" version="1.1" viewBox="-10 0 1044 1000">
   <path fill="currentColor"
d="M697.6 330.42l-325.119 186.88v-372.479zM930.56 51.3799h-837.119v558.08h837.119v-558.08zM930.56 -42.0596q19.2002 0 37.1201 7.67969q16.6406 7.67969 29.4404 20.4795q12.7998 12.8008 19.2002 29.4404q7.67969 16.6396 7.67969 35.8398v558.08
q0 19.2002 -7.67969 37.1201q-6.40039 16.6396 -19.2002 29.4395q-12.7998 12.8008 -29.4404 19.2002q-17.9199 7.68066 -37.1201 7.68066h-837.119q-19.2002 0 -37.1201 -7.68066q-16.6406 -6.39941 -29.4404 -19.2002q-12.7998 -12.7998 -19.2002 -29.4395
q-7.67969 -17.9199 -7.67969 -37.1201v-558.08q0 -19.2002 7.67969 -35.8398q6.40039 -16.6396 19.2002 -29.4404q12.7998 -12.7998 29.4404 -20.4795q17.9199 -7.67969 37.1201 -7.67969h353.279l-153.6 -152.32l33.2803 -33.2803l185.6 185.601l185.6 -185.601
l33.2803 33.2803l-153.6 152.32h353.279z" />
</svg>
