<?xml version="1.0" standalone="no"?>
<!DOCTYPE svg PUBLIC "-//W3C//DTD SVG 1.1//EN" "http://www.w3.org/Graphics/SVG/1.1/DTD/svg11.dtd" >
<svg xmlns="http://www.w3.org/2000/svg" xmlns:xlink="http://www.w3.org/1999/xlink" version="1.1" viewBox="-10 0 1010 1000">
   <path fill="currentColor"
d="M674.438 589.719l-314.325 180.675v-360.112zM899.662 319.943h-809.324v539.55h809.324v-539.55zM899.662 229.606q18.5625 0 35.8877 7.4248q16.0879 7.4248 28.4629 19.7998t18.5625 28.4629q7.4248 16.0869 7.4248 34.6494v539.55q0 18.5625 -7.4248 35.8877
q-6.1875 16.0879 -18.5625 28.4629t-28.4629 18.5625q-17.3252 7.4248 -35.8877 7.4248h-809.324q-18.5625 0 -35.8877 -7.4248q-16.0879 -6.1875 -28.4629 -18.5625t-18.5625 -28.4629q-7.4248 -17.3252 -7.4248 -35.8877v-539.55q0 -18.5625 7.4248 -34.6494
q6.1875 -16.0879 18.5625 -28.4629t28.4629 -19.7998q17.3252 -7.4248 35.8877 -7.4248h341.55l-148.5 -147.263l32.1748 -32.1748l179.438 179.438l179.438 -179.438l32.1748 32.1748l-148.5 147.263h341.55z" />
</svg>
