<?xml version="1.0" standalone="no"?>
<!DOCTYPE svg PUBLIC "-//W3C//DTD SVG 1.1//EN" "http://www.w3.org/Graphics/SVG/1.1/DTD/svg11.dtd" >
<svg xmlns="http://www.w3.org/2000/svg" xmlns:xlink="http://www.w3.org/1999/xlink" version="1.1" viewBox="-10 0 1076 1000">
   <path fill="currentColor"
d="M1022.92 227.879q12.9219 41.9932 22.6123 101.754q9.69141 59.7598 9.69141 102.83q0 67.8359 -13.998 135.672q-2.1543 26.9189 -18.3057 49.5312q-9.69043 15.0752 -29.0723 25.8428t-37.6865 10.7676q-20.458 0 -37.6865 -9.69141
q-13.998 -6.45996 -26.9189 -16.1514q-12.9209 -9.69043 -30.1494 -25.3037t-23.6885 -22.0732q-53.8389 -52.7617 -77.5273 -80.7578q-9.69043 -11.8438 -27.9961 -19.9199q-18.3047 -8.0752 -33.3789 -8.0752h-2.15332h-312.262h-2.15332q-13.998 0 -30.6875 8.0752
q-16.6895 8.07617 -25.3037 19.9199q-20.459 26.9189 -53.8379 61.376q-33.3799 34.4561 -59.2217 55.9912l-40.917 26.9189q-19.3818 12.9209 -43.0713 12.9209q-20.458 0 -40.917 -12.9209q-20.458 -12.9209 -29.0723 -31.2256q-19.3818 -44.1475 -22.6113 -90.4482
q-5.38379 -34.4561 -5.38379 -68.9131v-12.9209v-11.8438q0 -73.2207 26.9189 -169.052q26.9189 -95.832 64.6055 -158.284q10.7676 -22.6123 26.9189 -40.917q23.6885 -34.4561 71.0664 -58.6836q47.377 -24.2266 89.3711 -24.2266q38.7637 0 74.2959 15.0742
q38.7637 11.8447 72.1436 35.5332q26.9189 18.3047 59.2217 18.3047h4.30762h45.2236h5.38379q32.3027 0 58.1445 -18.3047q23.6895 -16.1514 60.8379 -30.6875q37.1475 -14.5361 66.2207 -18.8438q11.8438 -1.07617 23.6885 -1.07617q37.6865 0 80.7568 20.458
q43.0703 20.459 67.8359 48.4541q25.8428 34.457 53.8379 87.2178q27.9961 52.7617 40.917 93.6787zM429.628 282.793v-49.5303v-2.1543q0 -5.38379 -3.23047 -8.61328q-3.23047 -3.23047 -8.61426 -3.23047h-1.07617h-54.915v-53.8379q-4.30762 -12.9219 -18.3047 -13.998
h-45.2246h-1.07617q-5.38379 0 -8.61426 3.23047q-3.23047 3.22949 -3.23047 8.61328v2.1543v53.8379h-54.915q-12.9209 4.30664 -12.9209 18.3047v45.2236v1.07715q0 5.38379 3.23047 9.15234t8.61426 3.76855q1.07617 0 1.07617 -1.07617h59.2217v54.9141v1.07715
q0 5.38379 3.23047 9.15234t8.61426 3.76855q1.07715 0 2.15332 -1.07617h45.2246q5.38379 0 9.15234 -3.76855q3.76855 -3.76953 3.76855 -9.15332v-54.9141h54.915q0 1.07617 1.07617 1.07617q5.38379 0 8.61426 -3.76855t3.23047 -9.15234v-1.07715zM764.501 147.121
h-1.07715q-15.0752 0 -26.3809 10.2295t-13.459 25.3037q1.07617 15.0752 11.8438 28.5342q10.7676 13.46 24.7656 16.6904q17.2285 0 29.0723 -11.8447q11.8447 -11.8447 11.8447 -27.9961v-6.45996q0 -15.0752 -9.69043 -24.7656q-9.69141 -9.69141 -24.7656 -9.69141
h-2.15332zM692.357 301.099q15.0752 -2.1543 26.9189 -13.998q11.8447 -11.8447 13.998 -26.9189q0 -17.2285 -11.8447 -29.0732q-11.8438 -11.8438 -29.0723 -11.8438t-29.0723 11.8438q-11.8447 11.8447 -11.8447 28.5342q0 16.6904 11.8447 29.0732
q11.8438 12.3828 29.0723 12.3828zM764.501 368.935h4.30664q15.0742 0 25.8418 -10.7676t10.7676 -25.8428q0 -17.2275 -11.8438 -29.0723q-11.8447 -11.8447 -29.0723 -11.8447h-5.38379q-15.0752 0 -25.3047 10.2295q-10.2285 10.2295 -10.2285 24.2275
q0 1.07617 1.07617 2.15332q0 17.2275 11.8447 29.0723q11.8438 11.8447 27.9961 11.8447zM842.027 301.099q13.998 -1.07715 25.8418 -11.8447q11.8447 -10.7676 15.0752 -24.7656q0 -17.2285 -11.8447 -29.0723q-11.8438 -11.8447 -29.0723 -11.8447h-6.46094
q-13.9971 0 -24.2266 10.2295t-10.2295 24.2275v2.15332q0 17.2275 11.8447 29.0723q11.8438 11.8447 29.0723 11.8447z" />
</svg>
