<?xml version="1.0" standalone="no"?>
<!DOCTYPE svg PUBLIC "-//W3C//DTD SVG 1.1//EN" "http://www.w3.org/Graphics/SVG/1.1/DTD/svg11.dtd" >
<svg xmlns="http://www.w3.org/2000/svg" xmlns:xlink="http://www.w3.org/1999/xlink" version="1.1" viewBox="-10 0 1010 1000">
   <path fill="currentColor"
d="M958.77 413.076q12.4922 40.5996 21.8613 98.375q9.36914 57.7764 9.36914 99.417q0 65.583 -13.5332 131.167q-2.08203 26.0254 -17.6973 47.8857q-9.36914 14.5742 -28.1074 24.9844t-36.4355 10.4102q-19.7783 0 -36.4346 -9.36914
q-13.5332 -6.24609 -26.0254 -15.6152t-29.1484 -24.4629q-16.6562 -15.0947 -22.9023 -21.3408q-52.0508 -51.0098 -74.9521 -78.0762q-9.36914 -11.4512 -27.0664 -19.2588t-32.2715 -7.80762h-2.08203h-301.893h-2.08203q-13.5332 0 -29.6689 7.80762t-24.4639 19.2588
q-19.7793 26.0254 -52.0508 59.3379q-32.2705 33.3125 -57.2549 54.1318l-39.5586 26.0254q-18.7383 12.4922 -41.6406 12.4922q-19.7793 0 -39.5586 -12.4922q-19.7783 -12.4922 -28.1064 -30.1885q-18.7383 -42.6816 -21.8613 -87.4453
q-5.20508 -33.3125 -5.20508 -66.625v-12.4912v-11.4512q0 -70.7891 26.0254 -163.438q26.0254 -92.6504 62.46 -153.028q10.4102 -21.8613 26.0254 -39.5586q22.9023 -33.3125 68.707 -56.7354q45.8037 -23.4229 86.4033 -23.4229q37.4766 0 71.8301 14.5742
q37.4766 11.4512 69.7471 34.3535q26.0254 17.6973 57.2559 17.6973h4.16406h43.7227h5.20508q31.2295 0 56.2139 -17.6973q22.9023 -15.6152 58.8174 -29.6689t64.0225 -18.2178q11.4512 -1.04102 22.9014 -1.04102q36.4355 0 78.0762 19.7793t65.584 46.8457
q24.9834 33.3125 52.0498 84.3213q27.0664 51.0098 39.5586 90.5684zM385.173 466.167v-47.8857v-2.08203q0 -5.20508 -3.12207 -8.32812q-3.12305 -3.12305 -8.32812 -3.12305h-1.04102h-53.0918v-52.0508q-4.16406 -12.4922 -17.6973 -13.5332h-43.7227h-1.04102
q-5.20508 0 -8.32812 3.12305t-3.12305 8.32812v2.08203v52.0508h-53.0908q-12.4922 4.16406 -12.4922 17.6973v43.7217v1.04102q0 5.20508 3.12305 8.84863t8.32812 3.64355q1.04102 0 1.04102 -1.04102h57.2549v53.0918v1.04102q0 5.20508 3.12305 8.84863
t8.32812 3.64355q1.04102 0 2.08203 -1.04102h43.7227q5.20508 0 8.84863 -3.64355t3.64355 -8.84863v-53.0918h53.0918q0 1.04102 1.04102 1.04102q5.20508 0 8.32812 -3.64355q3.12207 -3.64355 3.12207 -8.84863v-1.04102zM708.928 335h-1.04102
q-14.5742 0 -25.5049 9.88965t-13.0127 24.4639q1.04102 14.5742 11.4512 27.5869t23.9434 16.1357q16.6553 0 28.1064 -11.4512t11.4512 -27.0664v-6.24609q0 -14.5742 -9.36914 -23.9434t-23.9424 -9.36914h-2.08203zM639.18 483.864q14.5742 -2.08203 26.0254 -13.5332
t13.5332 -26.0244q0 -16.6562 -11.4512 -28.1074t-28.1074 -11.4512t-28.1074 11.4512t-11.4512 27.5869q0 16.1348 11.4512 28.1064t28.1074 11.9717zM708.928 549.448h4.16309q14.5742 0 24.9844 -10.4102t10.4102 -24.9844q0 -16.6562 -11.4512 -28.1074
t-28.1064 -11.4512h-5.20508q-14.5742 0 -24.4639 9.88965t-9.88965 23.4229q0 1.04102 1.04102 2.08203q0 16.6562 11.4512 28.1074t27.0664 11.4512zM783.88 483.864q13.5332 -1.04102 24.9844 -11.4512t14.5742 -23.9424q0 -16.6562 -11.4512 -28.1074t-28.1074 -11.4512
h-6.24609q-13.5332 0 -23.4229 9.88965t-9.88965 23.4229v2.08203q0 16.6553 11.4512 28.1064t28.1074 11.4512z" />
</svg>
