<?xml version="1.0" standalone="no"?>
<!DOCTYPE svg PUBLIC "-//W3C//DTD SVG 1.1//EN" "http://www.w3.org/Graphics/SVG/1.1/DTD/svg11.dtd" >
<svg xmlns="http://www.w3.org/2000/svg" xmlns:xlink="http://www.w3.org/1999/xlink" version="1.1" viewBox="-10 0 1146 1000">
   <path fill="currentColor"
d="M439.559 567.668v-219.779h126.466v219.779h-126.466zM503.405 398.229q-15.9619 33.1504 -41.7461 61.3906q28.2402 23.3281 41.7461 57.707q14.7334 -33.1514 40.5176 -57.707q-25.7842 -27.0117 -40.5176 -61.3906zM661.794 567.668v-219.779h127.692v219.779
h-127.692zM725.641 398.229q-15.9619 33.1504 -40.5186 61.3906q27.0127 23.3281 40.5186 57.707q14.7334 -33.1514 40.5176 -57.707q-25.7842 -27.0117 -40.5176 -61.3906zM1085.39 139.159q17.1895 0 28.8535 12.2783q11.665 12.2783 11.665 28.2402v0
q0 17.1895 -11.665 28.8535q-11.6641 11.6641 -28.8535 11.6641q-11.0498 0 -21.4863 -6.75293t-15.3477 -17.8037h-14.7344v255.387q0 7.36621 -4.29688 12.2783q-4.29785 4.91113 -11.6641 4.91113h-49.1133v49.1123q0 7.36719 -4.91113 11.6641
q-4.91113 4.29785 -12.2783 4.29785h-40.5176v124.01q0 7.36621 -4.91113 11.6641q-4.91211 4.29688 -11.0508 4.29688h-777.209q-6.13867 0 -11.0498 -4.29688q-4.91113 -4.29785 -4.91113 -11.6641v-399.041q0 -6.13867 4.91113 -11.0508
q4.91113 -4.91113 11.0498 -4.91113h777.209q6.13867 0 11.0508 4.91113q4.91113 4.91211 4.91113 11.0508v110.504h40.5176q7.36719 0 12.2783 4.91113t4.91113 11.0498v50.3408h33.1514v-255.386q0 -6.13965 4.91113 -11.0508t11.0508 -4.91113h30.6953
q3.68359 -9.82227 14.7334 -16.5752q11.0508 -6.75293 22.1006 -7.98145zM376.94 568.896v-222.234q0 -12.2783 -9.20898 -21.4873t-22.7148 -9.20898h-128.921q-13.5059 0 -22.1006 9.20898t-8.59473 21.4873v222.234q0 13.5059 9.20898 22.7148
q9.20801 9.20898 21.4863 9.20898h128.921q12.2783 -1.22852 21.4873 -10.4365q9.20801 -9.20898 10.4365 -21.4873zM599.175 568.896v-222.234q0 -12.2783 -9.20801 -21.4873q-9.20898 -9.20898 -22.7148 -9.20898h-128.921q-12.2783 0 -21.4873 9.20898
q-9.20801 9.20898 -9.20801 21.4873v222.234q0 12.2783 9.20801 21.4873q9.20898 9.20801 21.4873 10.4365h128.921q13.5059 0 22.7148 -9.20898q9.20801 -9.20898 9.20801 -22.7148zM821.41 568.896v-222.234q0 -12.2783 -9.20898 -21.4873
q-9.20801 -9.20898 -21.4863 -9.20898h-128.921q-13.5059 0 -22.7148 9.20898t-9.20898 21.4873v222.234q0 12.2783 9.20898 21.4873q9.20898 9.20801 22.7148 10.4365h128.921q12.2783 -1.22852 21.4863 -9.82324q9.20898 -8.59473 9.20898 -22.1006zM935.597 501.365
v-99.4531h-24.5557v99.4531h24.5557zM180.489 75.3125l-34.3789 -33.1504q-2.45605 -2.45605 -2.45605 -6.13965v-1.22754q0 -8.59473 8.59473 -8.59473l46.6572 -7.36719l22.1006 -42.9736q1.22852 -3.68359 3.68359 -4.91113h3.68359q6.13965 0 8.59473 4.91113
l20.873 42.9736l47.8848 7.36719q6.13867 0 7.36719 6.13867v2.45605q0 3.68359 -2.45605 7.36719l-34.3789 33.1504l8.59473 46.6572v2.45605q0 2.45508 -1.22754 4.91113q-2.45605 3.68359 -7.36719 3.68359q-2.45508 0 -4.91113 -1.22754l-42.9736 -22.1016
l-41.7461 22.1016q-2.45508 1.22754 -4.91113 1.22754h-2.45508q-6.13965 -1.22754 -6.13965 -8.59473v-2.45605zM444.47 33.5674l-58.9346 -57.708q-3.68359 -3.68359 -4.91211 -9.82227v-1.22754q0 -14.7344 14.7344 -15.9619l81.0361 -12.2783l35.6064 -73.6689
q2.45605 -4.91113 7.36719 -7.36719q3.68359 -1.22754 7.36621 -1.22754q11.0508 0 14.7344 8.59473l35.6064 73.6689l82.2637 12.2783q9.82324 1.22754 12.2783 11.0508q1.22754 2.45508 1.22754 4.91113q0 6.13867 -4.91113 11.0498l-58.9346 57.708l14.7334 81.0361
v2.45508q0 3.68359 -2.45605 7.36719q-4.91113 8.59473 -14.7334 8.59473q-3.68359 0 -7.36719 -1.22754l-72.4414 -38.0625l-72.4404 38.0625q-3.68359 1.22754 -7.36719 1.22754h-2.45605q-13.5059 -2.45605 -13.5059 -15.9619v-2.45508zM779.664 75.3125
l-34.3789 -33.1504q-2.45508 -2.45605 -3.68359 -6.13965v-1.22754q0 -7.36719 8.59473 -8.59473l47.8848 -7.36719l20.873 -42.9736q1.22852 -3.68359 4.91113 -4.91113h3.68359q6.13965 0 7.36719 4.91113l22.1006 42.9736l46.6572 7.36719q6.13867 0 7.36719 6.13867
q1.22754 1.22852 1.22754 3.68359q0 3.68359 -3.68359 6.13965l-33.1514 33.1504l7.36719 46.6572v2.45605q0 2.45508 -1.22754 4.91113q-2.45605 3.68359 -7.36719 3.68359q-2.45508 0 -4.91113 -1.22754l-41.7461 -22.1016l-42.9736 22.1016
q-2.45508 1.22754 -3.68359 1.22754h-2.45508q-7.36719 -1.22754 -7.36719 -8.59473v-2.45605zM217.324 567.668v-219.779h126.465v219.779h-126.465zM279.942 398.229q-14.7334 34.3789 -40.5176 61.3906q28.2393 23.3281 40.5176 57.707q14.7334 -33.1514 41.7461 -57.707
q-27.0127 -27.0117 -41.7461 -61.3906zM0 877.078z" />
</svg>
