<?xml version="1.0" standalone="no"?>
<!DOCTYPE svg PUBLIC "-//W3C//DTD SVG 1.1//EN" "http://www.w3.org/Graphics/SVG/1.1/DTD/svg11.dtd" >
<svg xmlns="http://www.w3.org/2000/svg" xmlns:xlink="http://www.w3.org/1999/xlink" version="1.1" viewBox="-10 0 1010 1000">
   <path fill="currentColor"
d="M326.438 793.795v-212.482h122.267v212.482h-122.267zM388.165 629.982q-15.4316 32.0488 -40.3594 59.3516q27.3018 22.5547 40.3594 55.791q14.2451 -32.0508 39.1729 -55.791q-24.9277 -26.1152 -39.1729 -59.3516zM541.295 793.795v-212.482h123.453v212.482
h-123.453zM603.021 629.982q-15.4316 32.0488 -39.1729 59.3516q26.1152 22.5547 39.1729 55.791q14.2441 -32.0508 39.1729 -55.791q-24.9287 -26.1152 -39.1729 -59.3516zM950.827 379.514q16.6191 0 27.8955 11.8711q11.2773 11.8711 11.2773 27.3027v0
q0 16.6172 -11.2773 27.8945q-11.2764 11.2773 -27.8955 11.2773q-10.6836 0 -20.7734 -6.5293q-10.0898 -6.52734 -14.8379 -17.2109h-14.2451v246.906q0 7.12109 -4.1543 11.8691t-11.2773 4.74805h-47.4814v47.4824q0 7.12305 -4.74805 11.2773
q-4.74902 4.1543 -11.8711 4.1543h-39.1729v119.893q0 7.12305 -4.74805 11.2773t-10.6836 4.1543h-751.402q-5.93555 0 -10.6836 -4.1543t-4.74805 -11.2773v-385.791q0 -5.93555 4.74805 -10.6836t10.6836 -4.74805h751.402q5.93555 0 10.6836 4.74805t4.74805 10.6836
v106.834h39.1729q7.12207 0 11.8711 4.74805q4.74805 4.74805 4.74805 10.6836v48.6699h32.0498v-246.906q0 -5.93555 4.74805 -10.6836q4.74902 -4.74805 10.6836 -4.74805h29.6768q3.56055 -9.49805 14.2441 -16.0254q10.6836 -6.5293 21.3672 -7.7168zM265.899 794.982
v-214.857q0 -11.8691 -8.90332 -20.7734q-8.90234 -8.90234 -21.96 -8.90234h-124.641q-13.0576 0 -21.3672 8.90234q-8.30957 8.9043 -8.30957 20.7734v214.857q0 13.0566 8.90332 21.959q8.90332 8.9043 20.7734 8.9043h124.641q11.8701 -1.1875 20.7734 -10.0898
q8.90234 -8.9043 10.0898 -20.7734zM480.755 794.982v-214.857q0 -11.8691 -8.90234 -20.7734q-8.90332 -8.90234 -21.9609 -8.90234h-124.64q-11.8711 0 -20.7734 8.90234q-8.90332 8.9043 -8.90332 20.7734v214.857q0 11.8691 8.90332 20.7734
q8.90234 8.90234 20.7734 10.0898h124.64q13.0576 0 21.9609 -8.9043q8.90234 -8.90234 8.90234 -21.959zM695.611 794.982v-214.857q0 -11.8691 -8.90332 -20.7734q-8.90234 -8.90234 -20.7734 -8.90234h-124.64q-13.0576 0 -21.9609 8.90234
q-8.90234 8.9043 -8.90234 20.7734v214.857q0 11.8691 8.90234 20.7734q8.90332 8.90234 21.9609 10.0898h124.64q11.8711 -1.1875 20.7734 -9.49805q8.90332 -8.30859 8.90332 -21.3652zM806.007 729.693v-96.1504h-23.7412v96.1504h23.7412zM75.9707 317.787
l-33.2373 -32.0508q-2.37402 -2.37305 -2.37402 -5.93359v-1.1875q0 -8.31055 8.30957 -8.31055l45.1074 -7.12109l21.3672 -41.5469q1.1875 -3.5625 3.56152 -4.74805h3.56055q5.93555 0 8.30957 4.74805l20.1797 41.5469l46.2949 7.12109q5.93555 0 7.12305 5.93555v2.375
q0 3.56055 -2.37402 7.12109l-33.2383 32.0508l8.30957 45.1074v2.375q0 2.37305 -1.18652 4.74805q-2.37402 3.56055 -7.12305 3.56055q-2.37402 0 -4.74805 -1.18555l-41.5469 -21.3672l-40.3594 21.3672q-2.37402 1.18555 -4.74805 1.18555h-2.37402
q-5.93555 -1.18555 -5.93555 -8.30859v-2.375zM331.187 277.428l-56.9785 -55.791q-3.56055 -3.5625 -4.74805 -9.49609v-1.1875q0 -14.2441 14.2451 -15.4316l78.3447 -11.8711l34.4248 -71.2227q2.37402 -4.74805 7.12207 -7.12305q3.56152 -1.18555 7.12207 -1.18555
q10.6836 0 14.2451 8.30859l34.4248 71.2227l79.5322 11.8711q9.49609 1.1875 11.8701 10.6836q1.1875 2.37305 1.1875 4.74805q0 5.93555 -4.74805 10.6836l-56.9785 55.791l14.2441 78.3457v2.37305q0 3.5625 -2.37402 7.12305q-4.74805 8.30859 -14.2441 8.30859
q-3.56152 0 -7.12305 -1.18555l-70.0361 -36.7988l-70.0352 36.7988q-3.56152 1.18555 -7.12305 1.18555h-2.37402q-13.0576 -2.37305 -13.0576 -15.4316v-2.37305zM655.252 317.787l-33.2373 -32.0508q-2.375 -2.37305 -3.56152 -5.93359v-1.1875
q0 -7.12305 8.30957 -8.31055l46.2949 -7.12109l20.1797 -41.5469q1.18652 -3.5625 4.74805 -4.74805h3.56152q5.93457 0 7.12207 4.74805l21.3672 41.5469l45.1074 7.12109q5.93555 0 7.12207 5.93555q1.1875 1.1875 1.1875 3.5625q0 3.56055 -3.56152 5.93359
l-32.0498 32.0508l7.12207 45.1074v2.375q0 2.37305 -1.1875 4.74805q-2.37402 3.56055 -7.12207 3.56055q-2.37402 0 -4.74805 -1.18555l-40.3594 -21.3672l-41.5469 21.3672q-2.37402 1.18555 -3.56152 1.18555h-2.37402q-7.12207 -1.18555 -7.12207 -8.30859v-2.375z
M111.583 793.795v-212.482h122.266v212.482h-122.266zM172.122 629.982q-14.2441 33.2363 -39.1729 59.3516q27.3027 22.5547 39.1729 55.791q14.2441 -32.0508 40.3594 -55.791q-26.1152 -26.1152 -40.3594 -59.3516zM-98.5254 1092.93z" />
</svg>
