<?xml version="1.0" standalone="no"?>
<!DOCTYPE svg PUBLIC "-//W3C//DTD SVG 1.1//EN" "http://www.w3.org/Graphics/SVG/1.1/DTD/svg11.dtd" >
<svg xmlns="http://www.w3.org/2000/svg" xmlns:xlink="http://www.w3.org/1999/xlink" version="1.1" viewBox="-10 0 837 1000">
   <path fill="currentColor"
d="M693.864 5q36.7471 0 63.2266 26.4795q26.4785 26.4795 26.4785 63.2256v810.59q0 36.7471 -26.4785 63.2256q-26.4795 26.4795 -63.2266 26.4795h-450.688q-36.7471 0 -63.2266 -26.4795q-26.4785 -26.4785 -26.4785 -63.2256v-89.7051q0 -19.4541 12.9688 -32.4238
q12.9697 -12.9697 31.8838 -12.9697q18.9131 0 31.8828 12.9697t12.9697 32.4238v44.3125h450.688v-719.804h-450.688v44.3125q0 19.4541 -12.9697 32.4229q-12.9697 12.9697 -31.8828 12.9697q-18.9141 0 -31.8838 -12.9697q-12.9688 -12.9688 -12.9688 -32.4229v-89.7061
q0 -36.7461 26.4785 -63.2256q26.4795 -26.4795 63.2266 -26.4795h450.688zM153.472 565.928l237.772 -238.854q11.8887 -12.9688 30.2617 -12.9688q16.2119 0 28.1006 11.8887q11.8887 11.8877 11.8887 28.0996q0 18.374 -12.9688 30.2627l-263.712 263.712
q-12.9697 12.9688 -31.8838 12.9688q-18.9131 0 -31.8828 -12.9688l-111.321 -111.321q-9.72656 -10.8076 -9.72656 -25.9395q0 -17.292 11.8887 -29.1807t29.1807 -11.8887q15.1309 0 25.9395 9.72656z" />
</svg>
