<?xml version="1.0" standalone="no"?>
<!DOCTYPE svg PUBLIC "-//W3C//DTD SVG 1.1//EN" "http://www.w3.org/Graphics/SVG/1.1/DTD/svg11.dtd" >
<svg xmlns="http://www.w3.org/2000/svg" xmlns:xlink="http://www.w3.org/1999/xlink" version="1.1" viewBox="-10 0 1034 1000">
   <path fill="currentColor"
d="M885.38 -209.092q38.0088 0 65.3975 27.3887t27.3887 65.3975v838.428q0 38.0088 -27.3887 65.3975t-65.3975 27.3887h-466.166q-38.0088 0 -65.3975 -27.3887t-27.3887 -65.3975v-92.7861q0 -20.1221 13.415 -33.5371q13.415 -13.4141 32.9785 -13.4141t32.9775 13.4141
q13.415 13.415 13.415 33.5371v45.834h466.166v-744.523h-466.166v45.834q0 20.1221 -13.415 33.5371q-13.4141 13.415 -32.9775 13.415t-32.9785 -13.415t-13.415 -33.5371v-92.7861q0 -38.0088 27.3887 -65.3975t65.3975 -27.3887h466.166zM326.428 371.101
l245.939 -247.057q12.2969 -13.415 31.3008 -13.415q16.7686 0 29.0654 12.2969t12.2969 29.0654q0 19.0049 -13.415 31.3018l-272.769 272.769q-13.4141 13.4141 -32.9775 13.4141t-32.9785 -13.4141l-115.144 -115.145q-10.0615 -11.1787 -10.0615 -26.8301
q0 -17.8857 12.2969 -30.1826t30.1836 -12.2969q15.6504 0 26.8301 10.0605z" />
</svg>
