<?xml version="1.0" standalone="no"?>
<!DOCTYPE svg PUBLIC "-//W3C//DTD SVG 1.1//EN" "http://www.w3.org/Graphics/SVG/1.1/DTD/svg11.dtd" >
<svg xmlns="http://www.w3.org/2000/svg" xmlns:xlink="http://www.w3.org/1999/xlink" version="1.1" viewBox="-10 0 1034 1000">
   <path fill="currentColor"
d="M384 -167.376q18.4316 -8.19238 38.4004 -8.19238q19.9678 0 38.3994 8.19238l328.704 145.408q22.5283 11.2637 38.9121 36.3516t16.3838 49.6641v221.185q0 128 -54.7842 246.783q-54.7832 118.784 -151.552 203.265q-96.7676 84.4795 -215.552 113.151
q-119.809 -28.6719 -216.576 -113.151q-96.7676 -84.4805 -151.552 -203.265q-54.7842 -118.783 -54.7842 -246.783v-221.185q0 -24.5762 16.3838 -49.6641t39.9365 -36.3516zM422.912 331.312v-412.672l-328.704 145.408v268.288h328.704v418.816
q129.023 -39.9365 219.136 -156.672q90.1123 -116.736 109.568 -263.169h-328.704z" />
</svg>
