<?xml version="1.0" standalone="no"?>
<!DOCTYPE svg PUBLIC "-//W3C//DTD SVG 1.1//EN" "http://www.w3.org/Graphics/SVG/1.1/DTD/svg11.dtd" >
<svg xmlns="http://www.w3.org/2000/svg" xmlns:xlink="http://www.w3.org/1999/xlink" version="1.1" viewBox="-10 0 1000 1000">
   <path fill="currentColor"
d="M371.25 12.9199q17.8203 -7.91992 37.125 -7.91992t37.125 7.91992l317.79 140.58q21.7803 10.8896 37.6201 35.1445t15.8398 48.0156v213.84q0 123.75 -52.9648 238.59t-146.521 196.515q-93.5547 81.6748 -208.395 109.396q-115.83 -27.7207 -209.385 -109.396
q-93.5557 -81.6748 -146.521 -196.515t-52.9648 -238.59v-213.84q0 -23.7607 15.8398 -48.0156t38.6104 -35.1445zM408.87 495.05v-398.97l-317.79 140.58v259.38h317.79v404.909q124.74 -38.6094 211.86 -151.47q87.1191 -112.859 105.93 -254.43h-317.79z" />
</svg>
