<?xml version="1.0" standalone="no"?>
<!DOCTYPE svg PUBLIC "-//W3C//DTD SVG 1.1//EN" "http://www.w3.org/Graphics/SVG/1.1/DTD/svg11.dtd" >
<svg xmlns="http://www.w3.org/2000/svg" xmlns:xlink="http://www.w3.org/1999/xlink" version="1.1" viewBox="-10 0 999 1000">
   <path fill="currentColor"
d="M221.513 874.962l361.35 101.476q-18.5625 18.5625 -44.5498 18.5625q-8.66211 0 -17.3252 -2.47559l-457.875 -73.0127q-25.9873 -6.1875 -44.5498 -29.0811t-18.5625 -50.1182q0 -4.9502 1.2373 -11.1377l112.612 -685.575q6.1875 -25.9873 29.7002 -44.5498
t49.5 -18.5625q6.1875 0 11.1377 1.2373l96.5254 16.0879l-175.726 602.662q-3.71191 17.3252 -3.71191 34.6504q0 44.5498 29.0811 85.3867q29.0811 40.8379 71.1562 54.4502zM973.912 232.699l-198 664.538q-7.4248 22.2744 -29.0811 37.7432t-45.1689 15.4688
q-11.1367 0 -22.2744 -2.47461l-446.737 -129.938q-22.2754 -7.4248 -37.7441 -29.0811t-15.4688 -45.1689q0 -11.1377 2.47461 -21.0371l198 -663.301q7.42578 -22.2744 29.082 -38.3623q21.6562 -16.0869 45.168 -16.0869q11.1377 0 22.2754 3.71191l446.737 128.7
q22.2754 4.9502 38.9814 25.9873q16.7061 21.0381 16.7061 44.5498q0 12.375 -4.9502 24.75zM707.85 469.062q-6.1875 0 -11.1367 -4.9502q21.0371 -19.7998 33.4121 -45.7881q7.4248 -17.3242 7.4248 -35.8867q0 -42.0752 -29.7002 -71.1562
q-29.6992 -29.082 -70.5371 -29.082q-28.4629 0 -55.6875 18.5625t-37.125 44.5508q-6.1875 21.0371 -6.1875 43.3125v7.4248h-6.1875q-17.3252 -7.4248 -37.125 -7.4248q-42.0752 0 -71.1562 29.0811t-29.0811 71.1562q0 28.4619 18.5625 55.6875
q18.5625 27.2246 45.7871 37.125q16.0879 6.1875 34.6504 6.1875q30.9375 0 55.6875 -17.3252l-28.4629 79.2002l28.4629 11.1377l28.4619 -79.2002q4.9502 21.0371 22.8945 40.8369q17.9434 19.8008 38.9805 27.2256q18.5625 7.4248 38.3633 7.4248
q28.4619 0 55.0684 -18.5625t36.5059 -45.7871q4.9502 -13.6133 4.9502 -28.4629q0 -29.7002 -19.7998 -57.5439t-47.0254 -37.7432z" />
</svg>
