<?xml version="1.0" standalone="no"?>
<!DOCTYPE svg PUBLIC "-//W3C//DTD SVG 1.1//EN" "http://www.w3.org/Graphics/SVG/1.1/DTD/svg11.dtd" >
<svg xmlns="http://www.w3.org/2000/svg" xmlns:xlink="http://www.w3.org/1999/xlink" version="1.1" viewBox="-10 0 1180 1000">
   <path fill="currentColor"
d="M376.32 631.48l373.76 104.96q-19.2002 19.1992 -46.0801 19.1992q-8.95996 0 -17.9199 -2.55957l-473.6 -75.5205q-26.8809 -6.39941 -46.0801 -30.0791q-19.2002 -23.6807 -19.2002 -51.8408q0 -5.12012 1.28027 -11.5195l116.479 -709.12
q6.40039 -26.8799 30.7197 -46.0801q24.3203 -19.2002 51.2002 -19.2002q6.40039 0 11.5205 1.28027l99.8398 16.6396l-181.76 623.36q-3.84082 17.9199 -3.84082 35.8398q0 46.0801 30.0801 88.3203t73.6006 56.3203zM1154.56 -32.8398l-204.8 687.359
q-7.67969 23.04 -30.0801 39.04q-22.3994 16 -46.7197 16q-11.5195 0 -23.04 -2.55957l-462.08 -134.4q-23.04 -7.67969 -39.04 -30.0801q-16 -22.3994 -16 -46.7197q0 -11.5195 2.56055 -21.7598l204.8 -686.08q7.67969 -23.04 30.0801 -39.6797
q22.3994 -16.6406 46.7197 -16.6406q11.5205 0 23.04 3.84082l462.08 133.119q23.04 5.12012 40.3203 26.8809q17.2793 21.7598 17.2793 46.0791q0 12.8008 -5.12012 25.6006zM879.36 211.64q-6.40039 0 -11.5205 -5.12012q21.7598 -20.4795 34.5605 -47.3594
q7.67969 -17.9199 7.67969 -37.1201q0 -43.5205 -30.7197 -73.5996q-30.7207 -30.0801 -72.96 -30.0801q-29.4404 0 -57.6006 19.1992q-28.1602 19.2002 -38.3994 46.0801q-6.40039 21.7607 -6.40039 44.8008v7.67969h-6.40039q-17.9199 -7.67969 -38.3994 -7.67969
q-43.5205 0 -73.6006 30.0791q-30.0801 30.0801 -30.0801 73.6006q0 29.4395 19.2002 57.5996t47.3604 38.4004q16.6396 6.39941 35.8398 6.39941q32 0 57.5996 -17.9199l-29.4395 81.9199l29.4395 11.5205l29.4404 -81.9199q5.12012 21.7598 23.6797 42.2402
q18.5605 20.4795 40.3203 28.1592q19.2002 7.68066 39.6797 7.68066q29.4404 0 56.96 -19.2002q27.5205 -19.2002 37.7607 -47.3604q5.12012 -14.0801 5.12012 -29.4395q0 -30.7197 -20.4805 -59.5205q-20.4805 -28.7998 -48.6396 -39.04z" />
</svg>
