<?xml version="1.0" standalone="no"?>
<!DOCTYPE svg PUBLIC "-//W3C//DTD SVG 1.1//EN" "http://www.w3.org/Graphics/SVG/1.1/DTD/svg11.dtd" >
<svg xmlns="http://www.w3.org/2000/svg" xmlns:xlink="http://www.w3.org/1999/xlink" version="1.1" viewBox="-10 0 1149 1000">
   <path fill="currentColor"
d="M169.021 513.238q61.6865 107.335 193.08 183.827q131.393 76.4912 254.766 76.4912q138.179 0 256.617 -68.4727q118.438 -68.4717 186.911 -186.91q68.4717 -118.438 68.4717 -256.617v-3.70117q0 -40.7129 -11.1035 -95.6143t-27.1416 -93.1475
q-53.0508 -132.01 -191.846 -225.773q-138.796 -93.7637 -281.909 -93.7637q-12.3369 0 -40.0957 1.85059q-27.7598 1.85059 -41.3301 1.85059h-3.70117q-114.738 20.9736 -212.819 96.8486q-98.082 75.874 -155.451 185.06q-57.3682 109.186 -58.6025 226.391v34.5449
q2.46777 48.1152 20.9736 111.652q18.5059 63.5381 43.1807 105.484zM210.969 534.212q-2.46777 -3.70117 -24.6748 -38.2461q16.0391 12.3379 33.3105 22.208l38.2461 12.3369q32.0771 6.16895 64.1543 8.63672q12.3369 -75.2588 43.1807 -145.581
q-17.2725 -34.5449 -50.583 -120.289q-33.3105 -85.7451 -34.5449 -88.2119l-90.0625 -30.8438q-59.2188 109.803 -59.2188 136.944v-64.1543q20.9727 -48.1152 46.8818 -93.7637h3.70117v-6.16895q0 -32.0771 12.3369 -74.0234q12.3379 -41.9473 30.8438 -69.0898
q22.207 -27.1416 62.3037 -53.667q40.0957 -26.5254 73.4072 -36.3955q4.93457 -7.40234 14.8047 -17.2725q9.87012 -9.86914 24.6748 -21.5898t27.1416 -21.5908q12.3379 -9.86914 30.8438 -24.6738q18.5059 -14.8057 27.1416 -20.9736q34.5449 -8.63672 55.5186 -13.5713
q-35.7783 28.376 -85.1279 64.1543q-67.8555 59.2188 -77.7256 69.0889q6.16895 22.207 38.2461 102.4q28.376 -1.23438 66.0049 3.08398t59.8359 8.63574q22.207 4.31836 59.2197 12.9551l37.0117 8.63574q24.6748 -24.6748 64.7715 -50.583
q40.0957 -25.9082 72.1729 -38.2461q-18.5059 -74.0234 -55.5176 -140.646q-7.40234 -1.2334 -70.9395 -15.4219q-63.5381 -14.1875 -95.6152 -19.123q25.9092 -4.93457 53.0508 -4.93457h11.1035h9.87012q33.3105 0 79.5762 9.25293q46.2646 9.25293 77.1084 21.5898
l-43.1807 8.63672q41.9463 65.3877 60.4531 140.646q32.0771 17.2725 73.4072 46.8818q41.3301 29.6104 67.2383 55.5186h128.309q1.2334 3.70117 3.70117 10.4863q2.4668 6.78613 4.93457 10.4873h-128.309v2.4668q0 35.7783 -9.86914 83.8945
q-9.87012 48.1152 -24.6748 80.1924q1.2334 3.70117 17.2725 38.8633q16.0381 35.1611 35.1611 81.4258q19.123 46.2656 28.9922 75.875q9.87012 0 40.0967 -1.85059t41.3301 -1.85059q-75.2578 170.255 -209.734 243.046l-17.2725 -64.1543h-19.7402
q-101.166 0 -202.332 -12.3379q-23.4414 19.7402 -60.4531 40.0967t-67.8555 27.7588q4.93457 37.0127 13.5713 72.791q-9.87012 -4.93555 -22.208 -4.93555q-1.2334 0 -3.70117 1.23438q0 -14.8047 -1.85059 -38.2461t-1.85059 -30.8438
q-37.0117 -16.0381 -82.043 -48.7324q-45.0312 -32.6934 -72.1738 -62.3037q-61.6865 -3.70117 -119.672 -25.9082zM637.841 582.328q108.568 12.3369 217.138 12.3369h4.93457q59.2197 -67.8555 111.036 -140.646q-33.3105 -101.167 -81.4268 -196.164l-170.255 -8.63574
q-4.93457 4.93457 -60.4531 80.8096q-55.5186 75.874 -76.4912 98.082q7.40234 17.2715 28.376 77.1084q20.9727 59.8359 27.1416 77.1084zM386.159 384.93q72.79 18.5068 178.892 30.8438q14.8047 -16.0381 136.944 -180.125q-25.9082 -87.5957 -64.1543 -170.256
q-151.749 -38.2451 -225.773 -34.5439l-111.036 145.58q35.7783 107.335 85.1279 208.501zM1090.62 69.0938z" />
</svg>
