<?xml version="1.0" standalone="no"?>
<!DOCTYPE svg PUBLIC "-//W3C//DTD SVG 1.1//EN" "http://www.w3.org/Graphics/SVG/1.1/DTD/svg11.dtd" >
<svg xmlns="http://www.w3.org/2000/svg" xmlns:xlink="http://www.w3.org/1999/xlink" version="1.1" viewBox="-10 0 1010 1000">
   <path fill="currentColor"
d="M62.0234 743.325q59.6387 103.771 186.669 177.723q127.03 73.9521 246.308 73.9521q133.59 0 248.096 -66.1992q114.507 -66.1982 180.705 -180.704q66.1992 -114.506 66.1992 -248.097v-3.57812q0 -39.3613 -10.7354 -92.4395q-10.7344 -53.0791 -26.2412 -90.0547
q-51.2891 -127.627 -185.476 -218.277t-272.548 -90.6504q-11.9277 0 -38.7656 1.78906q-26.8369 1.78906 -39.957 1.78906h-3.5791q-110.928 20.2773 -205.753 93.6328t-150.289 178.916q-55.4639 105.56 -56.6562 218.873v33.3975q2.38574 46.5186 20.2773 107.946
t41.7461 101.981zM102.578 763.603q-2.38574 -3.57812 -23.8555 -36.9756q15.5059 11.9277 32.2051 21.4697l36.9756 11.9277q31.0117 5.96387 62.0244 8.34961q11.9277 -72.7598 41.7471 -140.747q-16.6992 -33.3984 -48.9043 -116.296
q-32.2041 -82.8975 -33.3975 -85.2832l-87.0723 -29.8193q-57.2529 106.157 -57.2529 132.398v-62.0244q20.2773 -46.5186 45.3252 -90.6504h3.57812v-5.96387q0 -31.0127 11.9277 -71.5664q11.9277 -40.5547 29.8193 -66.7949q21.4707 -26.2412 60.2354 -51.8857
t70.9697 -35.1865q4.77148 -7.15723 14.3135 -16.6992t23.8555 -20.873q14.3135 -11.332 26.2412 -20.874t29.8193 -23.8555q17.8906 -14.3135 26.2402 -20.2773q33.3975 -8.34863 53.6748 -13.1201q-34.5898 27.4336 -82.3008 62.0244q-65.6025 57.2529 -75.1445 66.7949
q5.96387 21.4697 36.9756 99q27.4336 -1.19238 63.8135 2.98145q36.3789 4.1748 57.8496 8.34961q21.4697 4.1748 57.2529 12.5244l35.7832 8.34961q23.8555 -23.8555 62.6201 -48.9043q38.7646 -25.0479 69.7773 -36.9756q-17.8916 -71.5664 -53.6748 -135.976
q-7.15723 -1.19336 -68.585 -14.9102t-92.4395 -18.4873q25.0479 -4.77148 51.2891 -4.77148h10.7354h9.54199q32.2051 0 76.9336 8.94531q44.7295 8.94629 74.5479 20.874l-41.7461 8.34961q40.5537 63.2168 58.4453 135.976q31.0117 16.6992 70.9697 45.3252
q39.958 28.627 65.0059 53.6748h124.049q1.19238 3.57812 3.57812 10.1387t4.77051 10.1387h-124.048v2.38574q0 34.5898 -9.54199 81.1084q-9.54199 46.5176 -23.8555 77.5293q1.19238 3.5791 16.6992 37.5732q15.5059 33.9932 33.9932 78.7227
q18.4883 44.7285 28.0303 73.3555q9.54199 0 38.7656 -1.78906q29.2227 -1.78906 39.957 -1.78906q-72.7588 164.602 -202.771 234.976l-16.6992 -62.0244h-19.084q-97.8076 0 -195.614 -11.9277q-22.6631 19.085 -58.4463 38.7656t-65.6025 26.8369
q4.77148 35.7832 13.1211 70.374q-9.54199 -4.77148 -21.4697 -4.77148q-1.19336 0 -3.5791 1.19238q0 -14.3125 -1.78906 -36.9756t-1.78906 -29.8193q-35.7832 -15.5059 -79.3193 -47.1143t-69.7764 -60.2354q-59.6387 -3.57812 -115.699 -25.0479zM515.277 810.12
q104.964 11.9277 209.928 11.9277h4.77051q57.2529 -65.6016 107.35 -135.976q-32.2051 -97.8076 -78.7227 -189.65l-164.603 -8.34961q-4.77148 4.77148 -58.4463 78.127t-73.9512 94.8252q7.15625 16.6982 27.4336 74.5479t26.2412 74.5479zM271.951 619.277
q70.374 17.8916 172.952 29.8193q14.3135 -15.5059 132.397 -174.145q-25.0479 -84.6875 -62.0234 -164.603q-146.711 -36.9756 -218.277 -33.3975l-107.35 140.747q34.5908 103.771 82.3008 201.578zM953.023 313.928z" />
</svg>
