<?xml version="1.0" standalone="no"?>
<!DOCTYPE svg PUBLIC "-//W3C//DTD SVG 1.1//EN" "http://www.w3.org/Graphics/SVG/1.1/DTD/svg11.dtd" >
<svg xmlns="http://www.w3.org/2000/svg" xmlns:xlink="http://www.w3.org/1999/xlink" version="1.1" viewBox="-10 0 1010 1000">
   <path fill="currentColor"
d="M565.715 75.7148q114.274 0 212.143 56.5703q97.8691 56.5723 155.006 154.441q57.1367 97.8672 57.1367 213.273t-57.1367 213.275q-57.1367 97.8672 -155.006 154.439q-97.8682 56.5703 -212.143 56.5703h-3.39453q-72.4111 0 -158.399 -37.3359
q-85.9893 -37.3379 -135.771 -89.3828l66.7539 -66.7539q38.4688 40.7305 105.789 70.1484q67.3193 29.416 123.891 29.416h1.13184q135.771 0 232.509 -96.7363q96.7373 -96.7383 96.7373 -233.641t-96.7373 -233.639q-96.7373 -96.7383 -233.074 -96.7383
q-136.338 0 -233.074 96.7383q-96.7373 96.7363 -96.7373 233.639h141.429l-188.949 188.949l-4.52539 -4.52539l-183.292 -184.424h141.429v-2.26172q0 -114.275 56.5713 -211.578q56.5723 -97.3027 153.875 -153.875q97.3027 -56.5703 211.577 -56.5703h2.2627z
M518.194 311.053h70.1494v198l165.188 99.5645l-32.8115 56.5723l-202.526 -117.67v-236.467z" />
</svg>
