<?xml version="1.0" standalone="no"?>
<!DOCTYPE svg PUBLIC "-//W3C//DTD SVG 1.1//EN" "http://www.w3.org/Graphics/SVG/1.1/DTD/svg11.dtd" >
<svg xmlns="http://www.w3.org/2000/svg" xmlns:xlink="http://www.w3.org/1999/xlink" version="1.1" viewBox="-10 0 1094 1000">
   <path fill="currentColor"
d="M634.295 -154.649q118.199 0 219.429 58.5146t160.329 159.744t59.0996 220.599t-59.0996 220.599t-160.329 159.744t-219.429 58.5146h-3.51074q-74.8984 0 -163.84 -38.6201q-88.9424 -38.6191 -140.435 -92.4521l69.0469 -69.0469q39.79 42.1299 109.422 72.5576
t128.146 30.4277h1.16992q140.435 0 240.493 -100.06q100.06 -100.06 100.06 -241.664t-100.06 -241.664q-100.059 -100.06 -241.078 -100.06t-241.079 100.06t-100.06 241.664h146.286l-195.438 195.438l-4.68066 -4.68066l-189.586 -190.757h146.285v-2.34082
q0 -118.198 58.5146 -218.843q58.5137 -100.645 159.159 -159.159q100.645 -58.5146 218.843 -58.5146h2.34082zM585.143 88.7705h72.5576v204.8l170.862 102.985l-33.9385 58.5137l-209.481 -121.709v-244.59z" />
</svg>
