<?xml version="1.0" standalone="no"?>
<!DOCTYPE svg PUBLIC "-//W3C//DTD SVG 1.1//EN" "http://www.w3.org/Graphics/SVG/1.1/DTD/svg11.dtd" >
<svg xmlns="http://www.w3.org/2000/svg" xmlns:xlink="http://www.w3.org/1999/xlink" version="1.1" viewBox="-10 0 1010 1000">
   <path fill="currentColor"
d="M807.475 440.48h-0.991211q76.3828 0 129.949 53.5684q53.5674 53.5664 53.5674 129.453t-53.5674 128.957q-53.5664 53.0723 -129.949 53.0723h-259.9v-179.549h64.4795q7.93555 0 13.3916 -5.95312q5.45605 -5.95117 5.45605 -13.8867q0 -5.95312 -2.97656 -10.9121
l-115.07 -153.758q-5.95117 -7.93555 -15.8711 -7.93555t-15.8721 7.93555l-115.07 153.758q-2.97559 4.95898 -2.97559 10.9121q0 7.93555 5.45605 13.8867q5.45605 5.95312 13.3916 5.95312h64.4785v177.564h-260.892h-1.9834q-75.3916 0 -128.958 -53.0703
q-53.5674 -53.0723 -53.5674 -128.463q0 -58.5273 40.6709 -110.109q40.6719 -51.584 97.2148 -66.4629q-1.98438 -13.8887 -1.98438 -27.7754q1.98438 -92.2559 68.4473 -157.727t158.718 -65.4707q49.5986 0 104.158 28.7676q54.5586 28.7676 83.3262 70.4316
q26.7842 -9.91992 55.5518 -9.91992h0.991211h0.992188q66.4629 0 114.574 47.1191t50.0957 112.59q16.8633 -2.97656 34.7188 -2.97656z" />
</svg>
