<?xml version="1.0" standalone="no"?>
<!DOCTYPE svg PUBLIC "-//W3C//DTD SVG 1.1//EN" "http://www.w3.org/Graphics/SVG/1.1/DTD/svg11.dtd" >
<svg xmlns="http://www.w3.org/2000/svg" xmlns:xlink="http://www.w3.org/1999/xlink" version="1.1" viewBox="-10 0 1044 1000">
   <path fill="currentColor"
d="M835.206 269.134h-1.02539q79.0059 0 134.412 55.4072q55.4072 55.4072 55.4072 133.899q0 78.4932 -55.4072 133.388q-55.4062 54.8936 -134.412 54.8936h-268.826v-185.716h66.6934q8.20898 0 13.8516 -6.15625q5.64355 -6.15625 5.64355 -14.3643
q0 -6.15625 -3.07812 -11.2871l-119.021 -159.038q-6.15723 -8.20801 -16.417 -8.20801q-10.2607 0 -16.417 8.20801l-119.022 159.038q-3.07812 5.13086 -3.07812 11.2871q0 8.20801 5.64355 14.3643t13.8516 6.15625h66.6934v183.663h-269.852h-2.05176
q-77.9805 0 -133.387 -54.8936q-55.4072 -54.8936 -55.4072 -132.874q0 -60.5371 42.0684 -113.892t100.553 -68.7451q-2.05176 -14.3652 -2.05176 -28.7295q2.05176 -95.4229 70.7979 -163.143q68.7451 -67.7188 164.168 -67.7188q51.3027 0 107.735 29.7549
q56.4326 29.7559 86.1885 72.8496q27.7031 -10.2607 57.459 -10.2607h1.02637h1.02539q68.7461 0 118.509 48.7383q49.7637 48.7373 51.8164 116.457q17.4424 -3.0791 35.9111 -3.0791z" />
</svg>
