<?xml version="1.0" standalone="no"?>
<!DOCTYPE svg PUBLIC "-//W3C//DTD SVG 1.1//EN" "http://www.w3.org/Graphics/SVG/1.1/DTD/svg11.dtd" >
<svg xmlns="http://www.w3.org/2000/svg" xmlns:xlink="http://www.w3.org/1999/xlink" version="1.1" viewBox="-10 0 1091 1000">
   <path fill="currentColor"
d="M558.952 -46.4961h1.11816q101.729 0 206.253 46.9521q104.523 46.9521 186.131 127.441t118.498 175.511q-36.8906 95.0215 -118.498 175.511t-186.689 126.883q-105.083 46.3926 -206.812 46.3926t-206.812 -46.3926q-105.083 -46.3936 -186.689 -126.883
q-81.6074 -80.4893 -118.498 -175.511q36.8906 -95.0215 118.498 -175.511q81.6064 -80.4893 186.131 -127.441q104.523 -46.9521 206.253 -46.9521h1.11816zM558.952 535.933h2.23535q95.0225 0 162.655 -67.6338q67.6328 -67.6328 67.6328 -162.654v-2.23633
q0 -96.1396 -68.1914 -164.332q-68.1924 -68.1914 -164.332 -68.1914t-164.332 68.1914q-68.1924 68.1924 -68.1924 164.332t68.1924 164.332t164.332 68.1924zM558.952 163.67h2.23535q57.0137 0 97.2578 40.2451q40.2451 40.2441 40.2451 97.2578v2.23535
q0 58.1309 -40.8037 98.9346t-98.9346 40.8037t-98.9346 -40.8037t-40.8037 -98.9346t40.8037 -98.9346t98.9346 -40.8037z" />
</svg>
