<?xml version="1.0" standalone="no"?>
<!DOCTYPE svg PUBLIC "-//W3C//DTD SVG 1.1//EN" "http://www.w3.org/Graphics/SVG/1.1/DTD/svg11.dtd" >
<svg xmlns="http://www.w3.org/2000/svg" xmlns:xlink="http://www.w3.org/1999/xlink" version="1.1" viewBox="-10 0 1010 1000">
   <path fill="currentColor"
d="M495 162.254h1.08105q98.3516 0 199.405 45.3945q101.054 45.3926 179.951 123.209t114.562 169.684q-35.665 91.8672 -114.562 169.684t-180.491 122.668q-101.595 44.8535 -199.946 44.8535t-199.945 -44.8535q-101.594 -44.8516 -180.491 -122.668t-114.563 -169.684
q35.666 -91.8672 114.563 -169.684t179.951 -123.209q101.054 -45.3945 199.405 -45.3945h1.08008zM495 725.344h2.16211q91.8672 0 157.254 -65.3867q65.3877 -65.3887 65.3877 -157.254v-2.16211q0 -92.9473 -65.9277 -158.875q-65.9277 -65.9297 -158.876 -65.9297
q-92.9473 0 -158.875 65.9297q-65.9277 65.9277 -65.9277 158.875t65.9277 158.875t158.875 65.9277zM495 365.443h2.16211q55.1201 0 94.0283 38.9082t38.9082 94.0273v2.16211q0 56.2012 -39.4482 95.6484q-39.4492 39.4492 -95.6504 39.4492
q-56.2002 0 -95.6494 -39.4492q-39.4482 -39.4473 -39.4482 -95.6484t39.4482 -95.6504q39.4492 -39.4473 95.6494 -39.4473z" />
</svg>
