<?xml version="1.0" standalone="no"?>
<!DOCTYPE svg PUBLIC "-//W3C//DTD SVG 1.1//EN" "http://www.w3.org/Graphics/SVG/1.1/DTD/svg11.dtd" >
<svg xmlns="http://www.w3.org/2000/svg" xmlns:xlink="http://www.w3.org/1999/xlink" version="1.1" viewBox="-10 0 1010 1000">
   <path fill="currentColor"
d="M495 90.7998q-168.96 0 -289.08 120.12t-120.12 289.08t120.12 289.08t289.08 120.12t289.08 -120.12t120.12 -289.08t-120.12 -289.08t-289.08 -120.12zM495 5q204.6 0 349.8 145.2t145.2 349.8q0 204.601 -145.2 349.8q-145.2 145.2 -349.8 145.2t-349.8 -145.2
q-145.2 -145.199 -145.2 -349.8q0 -204.6 145.2 -349.8t349.8 -145.2zM562.32 188.48q-23.7607 0 -40.9199 17.1602q-17.1602 17.1592 -18.4805 42.2393q0 23.7607 17.1602 40.9199q17.1602 17.1602 42.2402 17.1602q23.7598 0 40.2598 -17.1602
q16.5 -17.1592 16.5 -40.9199q0 -23.7598 -16.5 -40.9199t-40.2598 -18.4795zM547.8 374.601q11.8799 0 19.1406 2.63965q7.25977 2.63965 10.5596 10.5596q3.2998 7.9209 4.62012 13.2002q1.32031 5.28027 0 18.4805t-1.32031 15.8398t-2.63965 15.8398
q-7.91992 31.6797 -28.3799 107.58t-30.3604 118.8q-9.90039 42.9004 -7.25977 53.46q5.28027 18.4805 68.6396 -25.0801q6.60059 -3.95996 9.24023 -5.2793q1.32031 -2.64062 3.95996 -2.64062q3.95996 0 5.28027 3.95996q1.31934 1.32031 3.95996 3.95996
q7.91992 11.8799 1.31934 15.8398q-2.63965 2.64062 -19.7998 13.8604t-40.9199 27.7197t-31.6797 21.7803q-9.24023 5.28027 -17.1602 9.24023t-23.0996 10.5596q-15.1807 6.60059 -25.7402 6.60059q-10.5605 0 -21.1201 -3.2998q-10.5596 -3.30078 -14.5205 -18.4805
q-3.95996 -15.1797 0 -38.9404q9.24023 -52.7998 50.1602 -219.119q17.1602 -67.3203 1.32031 -68.6406q-9.24023 -1.31934 -30.3604 11.8799q-36.96 22.4404 -40.9199 26.4004q-6.59961 3.95996 -7.91992 3.2998q-1.31934 -0.660156 -5.28027 -8.58008
q-6.59961 -9.24023 -6.59961 -10.5596q0 -1.32031 5.28027 -5.28027q125.399 -100.32 171.6 -105.6z" />
</svg>
