<?xml version="1.0" standalone="no"?>
<!DOCTYPE svg PUBLIC "-//W3C//DTD SVG 1.1//EN" "http://www.w3.org/Graphics/SVG/1.1/DTD/svg11.dtd" >
<svg xmlns="http://www.w3.org/2000/svg" xmlns:xlink="http://www.w3.org/1999/xlink" version="1.1" viewBox="-10 0 1215 1000">
   <path fill="currentColor"
d="M682.667 -208.678q-174.763 0 -299.009 124.246q-124.245 124.245 -124.245 299.008t124.245 299.008q124.246 124.245 299.009 124.245t299.008 -124.245t124.245 -299.008t-124.245 -299.008q-124.245 -124.246 -299.008 -124.246zM682.667 -297.424
q211.626 0 361.813 150.187q150.187 150.187 150.187 361.813t-150.187 361.813q-150.188 150.187 -361.813 150.187q-211.627 0 -361.813 -150.187t-150.187 -361.813t150.187 -361.813t361.813 -150.187zM752.299 -107.643q-24.5762 0 -42.3252 17.749
q-17.75 17.75 -19.1152 43.6904q0 24.5762 17.75 42.3262q17.749 17.749 43.6904 17.749q24.5762 0 41.6426 -17.749q17.0664 -17.75 17.0664 -42.3262q0 -24.5752 -17.0664 -42.3252q-17.0664 -17.749 -41.6426 -19.1143zM737.28 84.8691q12.2881 0 19.7969 2.73047
q7.50977 2.73145 10.9229 10.9229q3.41309 8.19238 4.77832 13.6533q1.36523 5.46191 0 19.1152t-1.36523 16.3838t-2.73047 16.3838q-8.19238 32.7686 -29.3545 111.274q-21.1631 78.5068 -31.4023 122.88q-10.2402 44.374 -7.50977 55.2969
q5.46094 19.1143 70.9971 -25.9414q6.82715 -4.09668 9.55762 -5.46191q1.36523 -2.73047 4.0957 -2.73047q4.09668 0 5.46191 4.0957q1.36523 1.36523 4.0957 4.09668q8.19238 12.2881 1.36523 16.3838q-2.73047 2.73047 -20.4795 14.3359q-17.75 11.6055 -42.3262 28.6719
q-24.5752 17.0664 -32.7676 22.5283q-9.55762 5.46094 -17.749 9.55664q-8.19238 4.09668 -23.8936 10.9229q-15.7012 6.82715 -26.624 6.82715t-21.8457 -3.41406q-10.9229 -3.41309 -15.0186 -19.1143t0 -40.2773q9.55762 -54.6133 51.8828 -226.646
q17.749 -69.6318 1.36523 -70.9971q-9.55762 -1.36523 -31.4023 12.2881q-38.2295 23.2109 -42.3252 27.3066q-6.82715 4.0957 -8.19238 3.41309t-5.46094 -8.87402q-6.82715 -9.55762 -6.82715 -10.9229t5.46191 -5.46191q129.706 -103.765 177.493 -109.227z" />
</svg>
