<?xml version="1.0" standalone="no"?>
<!DOCTYPE svg PUBLIC "-//W3C//DTD SVG 1.1//EN" "http://www.w3.org/Graphics/SVG/1.1/DTD/svg11.dtd" >
<svg xmlns="http://www.w3.org/2000/svg" xmlns:xlink="http://www.w3.org/1999/xlink" version="1.1" viewBox="-10 0 1215 1000">
   <path fill="currentColor"
d="M682.667 403.992h2.73047q21.8447 0 36.8643 15.7012q15.0186 15.7012 15.0186 37.5469q0 21.8447 -15.0186 36.8633q-15.0195 15.0195 -36.8643 15.0195h-2.73047q-20.4805 0 -35.499 -15.7021q-15.0186 -15.7012 -15.0186 -36.8633q0 -21.1631 15.0186 -36.1816
t35.499 -16.3838zM195.242 591.043q-24.5752 -42.3252 -24.5752 -91.4775t24.5752 -91.4775l330.411 -570.709q21.8457 -38.2295 67.584 -64.8535t89.4297 -26.624q43.6904 0 90.1113 26.624q46.4219 26.624 68.2666 64.8535l330.411 572.074
q23.2109 42.3252 23.2109 91.4775q0 75.0938 -53.248 128.342q-53.248 53.2471 -128.342 53.2471h-659.456q-43.6904 0 -90.1113 -26.623q-46.4219 -26.624 -68.2676 -64.8535zM267.605 548.718q10.9229 21.8447 36.1816 36.1807q25.2578 14.3359 49.834 14.3359h659.456
q23.2109 0 48.4697 -14.3359t36.1807 -34.8154q13.6533 -23.2109 13.6533 -49.835t-13.6533 -49.835l-329.045 -572.074q-12.2881 -20.4805 -37.5469 -34.8164t-49.1514 -14.3359q-23.8936 0 -49.1523 14.3359t-36.1816 34.8164l-330.41 572.074
q-12.2881 21.8457 -12.2881 49.1523q0 25.9414 13.6533 49.1523zM696.32 33.9863q16.3838 5.46191 27.9893 21.8457t11.6055 34.1338v2.73047q0 8.19141 -1.36523 24.5762q-1.36621 16.3838 -1.36621 24.5752q-2.73047 31.4033 -6.14355 94.208
q-3.41309 62.8057 -4.77832 95.5732q-1.36523 15.0195 -12.2881 25.9414q-10.9229 10.9229 -25.9414 10.9229h-1.36523q-16.3848 0 -27.9893 -11.6055q-11.6055 -11.6055 -11.6055 -26.624q0 -25.9414 -1.36523 -38.2295q-1.36523 -20.4795 -3.41406 -61.4395
q-2.04785 -40.96 -3.41309 -61.4404q0 -12.2881 -2.04785 -38.9121q-2.04785 -26.623 -3.41309 -38.9111v-2.73145q0 -12.2881 5.46094 -24.5752q5.46191 -12.2881 19.7979 -21.8457t27.9893 -9.55762q6.82617 0 13.6533 1.36523z" />
</svg>
