<?xml version="1.0" standalone="no"?>
<!DOCTYPE svg PUBLIC "-//W3C//DTD SVG 1.1//EN" "http://www.w3.org/Graphics/SVG/1.1/DTD/svg11.dtd" >
<svg xmlns="http://www.w3.org/2000/svg" xmlns:xlink="http://www.w3.org/1999/xlink" version="1.1" viewBox="-10 0 1010 1000">
   <path fill="currentColor"
d="M495 683.48h2.63965q21.1201 0 35.6406 15.1797q14.5195 15.1797 14.5195 36.3008q0 21.1191 -14.5195 35.6387q-14.5205 14.5195 -35.6406 14.5195h-2.63965q-19.7998 0 -34.3203 -15.1797q-14.5195 -15.1797 -14.5195 -35.6387q0 -20.4609 14.5195 -34.9805
q14.5205 -14.5195 34.3203 -15.8398zM23.7598 864.32q-23.7598 -40.9199 -23.7598 -88.4395q0 -47.5215 23.7598 -88.4414l319.44 -551.76q21.1201 -36.959 65.3398 -62.6992t86.46 -25.7402t87.1201 25.7402t66 62.6992l319.439 553.08q22.4404 40.9199 22.4404 88.4395
q0 72.6016 -51.4805 124.08q-51.4795 51.4805 -124.079 51.4805h-637.561q-42.2402 0 -87.1201 -25.7402t-66 -62.6992zM93.7197 823.4q10.5605 21.1191 34.9805 34.9805q24.4199 13.8594 48.1797 13.8594h637.561q22.4395 0 46.8594 -13.8594
q24.4199 -13.8613 34.9805 -33.6602q13.2002 -22.4414 13.2002 -48.1797q0 -25.7402 -13.2002 -48.1816l-318.12 -553.08q-11.8799 -19.7988 -36.2998 -33.6602q-24.4199 -13.8594 -47.5205 -13.8594q-23.0996 0 -47.5195 13.8594q-24.4199 13.8613 -34.9805 33.6602
l-319.439 553.08q-11.8809 21.1211 -11.8809 47.5215q0 25.0801 13.2002 47.5195zM508.2 325.76q15.8398 5.28125 27.0596 21.1211q11.2207 15.8398 11.2207 33v2.63867q0 7.91992 -1.32031 23.7598t-1.32031 23.7617q-2.63965 30.3594 -5.93945 91.0781
q-3.30078 60.7207 -4.62012 92.4004q-1.32031 14.5215 -11.8799 25.0801q-10.5605 10.5605 -25.0801 10.5605h-1.32031q-15.8398 0 -27.0596 -11.2207q-11.2207 -11.2188 -11.2207 -25.7402q0 -25.0801 -1.31934 -36.959q-1.32031 -19.8008 -3.30078 -59.4004
q-1.97949 -39.5996 -3.2998 -59.4004q0 -11.8789 -1.97949 -37.6191q-1.98047 -25.7402 -3.30078 -37.6211v-2.63867q0 -11.8809 5.28027 -23.7598q5.28027 -11.8809 19.1406 -21.1211q13.8594 -9.24023 27.0596 -9.24023q6.59961 0 13.2002 1.32031z" />
</svg>
