<?xml version="1.0" standalone="no"?>
<!DOCTYPE svg PUBLIC "-//W3C//DTD SVG 1.1//EN" "http://www.w3.org/Graphics/SVG/1.1/DTD/svg11.dtd" >
<svg xmlns="http://www.w3.org/2000/svg" xmlns:xlink="http://www.w3.org/1999/xlink" version="1.1" viewBox="-10 0 1010 1000">
   <path fill="currentColor"
d="M585.494 500.494l385.715 385.714q18.791 18.792 18.791 45q0 26.209 -18.791 45q-18.791 18.792 -45.4951 18.792q-26.7031 0 -45.4941 -18.792l-385.714 -384.725l-384.726 384.725q-18.791 18.792 -45.4941 18.792q-26.7041 0 -45.4951 -18.792
q-18.791 -18.791 -18.791 -45q0 -26.208 18.791 -45l385.715 -385.714l-385.715 -385.714q-18.791 -18.792 -18.791 -45.4951t18.791 -45.4941t45.4951 -18.791q26.7031 0 45.4941 18.791l384.726 385.714l385.714 -385.714q18.791 -18.791 45.4941 -18.791
q26.7041 0 45.4951 18.791t18.791 45.4941t-18.791 45.4951zM585.494 500.494z" />
</svg>
