<?xml version="1.0" standalone="no"?>
<!DOCTYPE svg PUBLIC "-//W3C//DTD SVG 1.1//EN" "http://www.w3.org/Graphics/SVG/1.1/DTD/svg11.dtd" >
<svg xmlns="http://www.w3.org/2000/svg" xmlns:xlink="http://www.w3.org/1999/xlink" version="1.1" viewBox="-10 0 1044 1000">
   <path fill="currentColor"
d="M605.603 337.32l398.961 398.961q19.4365 19.4365 19.4365 46.5459q0 27.1084 -19.4365 46.5449t-47.0566 19.4365q-27.6211 0 -47.0576 -19.4365l-398.961 -397.938l-397.938 397.938q-19.4365 19.4365 -47.0576 19.4365q-27.6201 0 -47.0566 -19.4365
t-19.4365 -46.5449q0 -27.1094 19.4365 -46.5459l398.961 -398.961l-398.961 -398.961q-19.4365 -19.4365 -19.4365 -47.0576q0 -27.6201 19.4365 -47.0566t47.0566 -19.4365q27.6211 0 47.0576 19.4365l397.938 398.961l398.961 -398.961
q19.4365 -19.4365 47.0576 -19.4365q27.6201 0 47.0566 19.4365t19.4365 47.0566q0 27.6211 -19.4365 47.0576zM605.603 337.32z" />
</svg>
