<?xml version="1.0" standalone="no"?>
<!DOCTYPE svg PUBLIC "-//W3C//DTD SVG 1.1//EN" "http://www.w3.org/Graphics/SVG/1.1/DTD/svg11.dtd" >
<svg xmlns="http://www.w3.org/2000/svg" xmlns:xlink="http://www.w3.org/1999/xlink" version="1.1" viewBox="-10 0 1044 1000">
   <path fill="currentColor"
d="M509.952 392.752l57.3438 57.3438q-144.384 149.504 -169.984 386.048q-51.1992 -12.2871 -115.199 -44.5439q-64 -32.2559 -103.937 -67.0713zM406.528 289.328l57.3438 57.3438l-331.776 331.776q-35.8398 -38.9121 -70.1436 -102.912t-47.6162 -115.2
q240.64 -24.5762 392.192 -171.008zM1021.95 296.496q2.04785 22.5283 2.04785 43.0078v1.02441q0 79.8721 -37.8877 178.688q-37.8887 98.8164 -92.1602 158.208l-230.4 -230.399q55.2959 -43.0088 141.824 -83.9688t155.136 -55.2959q29.6963 -6.14355 61.4404 -11.2637z
M517.12 293.424l-58.3682 -59.3916q48.1279 -59.3926 93.6963 -155.136q45.5674 -95.7441 61.9521 -171.521q7.16797 -35.8398 12.2881 -70.6562q54.2715 12.2881 120.831 47.1045q66.5605 34.8154 106.496 72.7041zM125.952 0.55957l238.592 239.616
q-138.24 133.12 -360.448 154.624q-4.0957 -30.7197 -4.0957 -61.4395v-1.02441q0 -78.8477 36.8643 -175.616q36.8633 -96.7676 89.0879 -156.16zM461.824 845.36q23.5518 -217.088 154.624 -354.305l231.424 231.425q-59.3916 52.2236 -156.16 89.0879
q-96.7676 36.8633 -175.616 36.8633h-1.02344q-26.624 0 -53.248 -3.07129zM622.592 397.872l-59.3916 -58.3682l336.896 -336.896q35.8398 40.96 69.1201 108.031q33.2803 67.0723 44.5439 120.32q-32.7676 5.12012 -64.5117 12.2881q-75.7764 15.3604 -171.521 60.9277
q-95.7432 45.5684 -155.136 93.6963zM561.152 -172.496q-31.7441 222.208 -151.553 364.544l-238.592 -237.567q59.3926 -54.2725 157.696 -92.1602q98.3037 -37.8887 179.2 -37.8887v0q26.624 0 53.248 3.07227z" />
</svg>
