<?xml version="1.0" standalone="no"?>
<!DOCTYPE svg PUBLIC "-//W3C//DTD SVG 1.1//EN" "http://www.w3.org/Graphics/SVG/1.1/DTD/svg11.dtd" >
<svg xmlns="http://www.w3.org/2000/svg" xmlns:xlink="http://www.w3.org/1999/xlink" version="1.1" viewBox="-10 0 1010 1000">
   <path fill="currentColor"
d="M493.02 554.449l55.4404 55.4404q-139.59 144.54 -164.34 373.23q-49.5 -11.8809 -111.375 -43.0654t-100.485 -64.8447zM393.03 454.46l55.4395 55.4395l-320.76 320.761q-34.6504 -37.6201 -67.8154 -99.4951q-33.1641 -61.875 -46.0342 -111.375
q232.649 -23.7607 379.17 -165.33zM988.02 461.39q1.98047 21.7803 1.98047 41.5801v0.990234q0 77.2197 -36.6299 172.755t-89.1006 152.955l-222.75 -222.75q53.4609 -41.5801 137.115 -81.1807q83.6553 -39.5996 149.985 -53.46q28.71 -5.93945 59.3994 -10.8896z
M499.95 458.42l-56.4307 -57.4199q46.5303 -57.4199 90.5859 -149.985q44.0547 -92.5654 59.8945 -165.825q6.92969 -34.6494 11.8799 -68.3096q52.4697 11.8799 116.82 45.54q64.3496 33.6602 102.96 70.29zM121.77 175.279l230.671 231.66q-133.65 128.7 -348.48 149.49
q-3.95996 -29.7002 -3.95996 -59.4004v-0.989258q0 -76.2305 35.6396 -169.785q35.6406 -93.5557 86.1299 -150.976zM446.49 992.029q22.7695 -209.88 149.49 -342.54l223.739 223.74q-57.4199 50.4902 -150.975 86.1299q-93.5547 35.6406 -169.785 35.6406h-0.990234
q-25.7393 0 -51.4795 -2.9707zM601.92 559.399l-57.4199 -56.4297l325.71 -325.71q34.6504 39.5996 66.8252 104.445q32.1748 64.8447 43.0645 116.324q-31.6797 4.9502 -62.3691 11.8809q-73.2607 14.8496 -165.825 58.9043q-92.5654 44.0557 -149.985 90.585z
M542.52 7.96973q-30.6895 214.83 -146.52 352.44l-230.67 -229.681q57.4199 -52.4697 152.46 -89.0996t173.25 -36.6299v0q25.7402 0 51.4795 2.96973z" />
</svg>
