<?xml version="1.0" standalone="no"?>
<!DOCTYPE svg PUBLIC "-//W3C//DTD SVG 1.1//EN" "http://www.w3.org/Graphics/SVG/1.1/DTD/svg11.dtd" >
<svg xmlns="http://www.w3.org/2000/svg" xmlns:xlink="http://www.w3.org/1999/xlink" version="1.1" viewBox="-10 0 1044 1000">
   <path fill="currentColor"
d="M64.5117 588.336q-16.3838 -27.6475 -30.208 -66.5596q-13.8232 -38.9121 -23.04 -79.3604q-9.21582 -40.4482 -11.2637 -72.1924v-33.792q1.02441 -116.735 58.3682 -226.304t155.647 -184.832q98.3047 -75.2637 212.992 -96.7676h4.0957q12.2881 0 40.4482 -2.04785
q28.1602 -2.04883 40.4482 -2.04883q93.1836 0 189.952 43.0088q96.7676 43.0078 172.544 116.735q75.7764 73.7285 111.616 159.744q15.3594 37.8877 26.624 93.1836q11.2637 55.2969 11.2637 96.2568v3.07129q0 103.425 -40.96 198.145t-109.568 163.328
q-68.6074 68.6074 -163.328 109.567q-94.7197 40.96 -198.144 40.96q-123.904 -1.02344 -254.976 -77.3115q-131.072 -76.2881 -192.513 -182.784zM106.496 609.84q58.3682 21.5039 119.808 25.6006q27.6484 28.6719 72.1924 61.4395q44.5439 32.7686 81.4082 49.1523
q0 7.16797 2.04785 30.7197t2.04785 37.8877q2.04785 -1.02344 4.0957 -1.02344q11.2646 0 21.5039 5.12012q-8.19141 -35.8398 -12.2881 -72.7041q29.6963 -8.19238 67.0723 -28.1602t60.9277 -40.4482q100.353 13.3125 201.729 13.3125h19.4561l17.4082 63.4873
q60.416 -34.8154 121.855 -106.496q61.4404 -71.6797 87.04 -136.191q-10.2402 0 -40.4482 2.04785t-40.4473 2.04785q-9.21582 -29.6963 -28.6719 -75.7754q-19.4561 -46.0801 -35.3281 -81.4082t-16.8965 -39.4238q13.3125 -31.7441 23.5518 -79.8721
q10.2402 -48.1279 10.2402 -82.9443v-3.07227h128q-2.04785 -4.0957 -4.0957 -10.752t-4.0957 -10.752h-128q-26.624 -25.5996 -67.584 -55.2959t-73.7285 -47.1035q-7.16797 -30.7207 -25.0879 -72.1924t-34.3037 -69.1201l43.0078 -8.19238
q-31.7441 -12.2871 -77.8242 -20.9912t-79.8721 -8.7041h-9.21582h-10.2402q-27.6475 0 -53.248 4.0957q31.7441 5.12012 95.2324 18.9443t70.6562 14.8477q37.8877 66.5605 55.2959 141.312q-31.7441 12.2871 -72.1924 38.3994t-64 50.6885
q-45.0557 -12.2881 -110.08 -22.5283q-65.0234 -10.2402 -112.128 -11.2637q-31.7441 -79.8721 -37.8877 -102.4q8.19141 -8.19238 76.7998 -68.6084q49.1523 -34.8154 84.9922 -63.4873q-21.5039 4.0957 -55.2959 12.2881q-67.584 48.1279 -123.904 107.52
q-33.792 9.21582 -73.7275 35.8398q-39.9365 26.624 -62.4648 53.248q-18.4316 26.624 -30.7197 68.6084q-12.2881 41.9834 -12.2881 74.752v6.14355h-4.0957q-26.624 45.0566 -47.1045 94.208v63.4883q21.5039 -71.6797 59.3926 -136.192l90.1113 29.6963
q1.02441 3.07227 34.3047 88.5762t50.6875 120.32q-30.7197 69.6318 -43.0078 145.407q-31.7441 -3.07129 -63.4883 -9.21582l-38.9111 -12.2881q-17.4082 -9.21582 -33.792 -21.5039q12.2871 17.4082 25.5996 38.9121zM533.504 655.92q-6.14355 -16.3838 -27.6475 -76.2881
q-21.5049 -59.9043 -27.6484 -77.3115q20.4805 -22.5283 76.7998 -98.8164q56.3203 -76.2881 59.3926 -80.3838l171.008 9.21582q47.1035 95.2324 80.8955 195.584q-54.2715 76.7998 -110.592 141.312h-6.14355q-108.544 0 -216.064 -13.3125zM281.6 460.336
q-49.1514 -102.4 -84.9912 -208.896l110.592 -145.408q48.1279 1.02344 114.176 10.752q66.0479 9.72754 112.128 23.04q37.8877 82.9434 63.4883 171.008q-120.832 161.792 -136.192 179.2q-30.7197 -3.07227 -92.6719 -13.3125q-61.9521 -10.2393 -86.5283 -16.3838z" />
</svg>
