<?xml version="1.0" standalone="no"?>
<!DOCTYPE svg PUBLIC "-//W3C//DTD SVG 1.1//EN" "http://www.w3.org/Graphics/SVG/1.1/DTD/svg11.dtd" >
<svg xmlns="http://www.w3.org/2000/svg" xmlns:xlink="http://www.w3.org/1999/xlink" version="1.1" viewBox="-10 0 1010 1000">
   <path fill="currentColor"
d="M62.3701 743.54q-15.8398 -26.7305 -29.2051 -64.3506t-22.2754 -76.7246q-8.90918 -39.1055 -10.8896 -69.7949v-32.6699q0.990234 -112.86 56.4297 -218.79q55.4404 -105.931 150.48 -178.695t205.92 -93.5547h3.95996q11.8799 0 39.1045 -1.98047
q27.2256 -1.97949 39.1055 -1.97949q90.0898 0 183.645 41.5801q93.5557 41.5801 166.815 112.859q73.2598 71.2803 107.91 154.44q14.8496 36.6299 25.7402 90.0898q10.8896 53.46 10.8896 93.0596v2.9707q0 99.9893 -39.5996 191.564q-39.6006 91.5752 -105.931 157.905
t-157.904 105.93q-91.5752 39.6006 -191.565 39.6006q-119.79 -0.990234 -246.51 -74.7451q-126.721 -73.7549 -186.12 -176.715zM102.96 764.33q56.4297 20.79 115.83 24.75q26.7295 27.7197 69.7949 59.3994q43.0654 31.6807 78.7051 47.5205q0 6.92969 1.97949 29.6992
q1.98047 22.7705 1.98047 36.6309q1.98047 -0.990234 3.95996 -0.990234q10.8896 0 20.79 4.9502q-7.91992 -34.6504 -11.8799 -70.29q28.71 -7.91992 64.8447 -27.2256q36.1348 -19.3047 58.9053 -39.1045q97.0195 12.8701 195.03 12.8701h18.8096l16.8301 61.3799
q58.4102 -33.6602 117.81 -102.96q59.4004 -69.2998 84.1504 -131.67q-9.90039 0 -39.1055 1.97949q-29.2041 1.98047 -39.1045 1.98047q-8.91016 -28.71 -27.7197 -73.2607q-18.8105 -44.5498 -34.1553 -78.7041q-15.3447 -34.1553 -16.335 -38.1152
q12.8701 -30.6904 22.7695 -77.2207q9.90039 -46.5293 9.90039 -80.1895v-2.96973h123.75q-1.98047 -3.95996 -3.95996 -10.3955q-1.98047 -6.43457 -3.95996 -10.3945h-123.75q-25.7402 -24.75 -65.3398 -53.46q-39.6006 -28.71 -71.2803 -45.54
q-6.92969 -29.7002 -24.2549 -69.7949q-17.3252 -40.0957 -33.165 -66.8252l41.5801 -7.91992q-30.6904 -11.8799 -75.2402 -20.2949t-77.2197 -8.41504h-8.91016h-9.90039q-26.7295 0 -51.4795 3.95996q30.6895 4.9502 92.0703 18.3145q61.3799 13.3652 68.3096 14.3555
q36.6299 64.3496 53.46 136.62q-30.6904 11.8799 -69.7949 37.125q-39.1055 25.2451 -61.875 49.0049q-43.5596 -11.8799 -106.425 -21.7803t-108.405 -10.8896q-30.6904 -77.2207 -36.6299 -99q7.91992 -7.91992 74.25 -66.3301q47.5195 -33.6602 82.1699 -61.3799
q-20.79 3.95996 -53.46 11.8799q-65.3398 46.5303 -119.79 103.95q-32.6699 8.90918 -71.2803 34.6494q-38.6094 25.7402 -60.3896 51.4805q-17.8203 25.7393 -29.7002 66.3301q-11.8799 40.5898 -11.8799 72.2695v5.94043h-3.95996q-25.7402 43.5596 -45.54 91.0801
v61.3799q20.79 -69.2998 57.4199 -131.67l87.1201 28.71q0.990234 2.96973 33.165 85.6348t49.0049 116.325q-29.7002 67.3193 -41.5801 140.58q-30.6895 -2.9707 -61.3799 -8.91016l-37.6201 -11.8799q-16.8301 -8.91016 -32.6699 -20.79q11.8799 16.8301 24.75 37.6201z
M515.79 808.88q-5.94043 -15.8398 -26.7305 -73.7549t-26.7295 -74.7451q19.7998 -21.7803 74.25 -95.5352t57.4199 -77.7148l165.33 8.91016q45.54 92.0693 78.21 189.09q-52.4697 74.25 -106.92 136.62h-5.94043q-104.939 0 -208.89 -12.8701zM272.25 619.79
q-47.5195 -99 -82.1699 -201.96l106.92 -140.58q46.5303 0.989258 110.385 10.3945q63.8555 9.40527 108.405 22.2754q36.6299 80.1895 61.3799 165.33q-116.82 156.42 -131.67 173.25q-29.7002 -2.9707 -89.5947 -12.8701q-59.8955 -9.90039 -83.6553 -15.8398z" />
</svg>
