<?xml version="1.0" standalone="no"?>
<!DOCTYPE svg PUBLIC "-//W3C//DTD SVG 1.1//EN" "http://www.w3.org/Graphics/SVG/1.1/DTD/svg11.dtd" >
<svg xmlns="http://www.w3.org/2000/svg" xmlns:xlink="http://www.w3.org/1999/xlink" version="1.1" viewBox="-10 0 1038 1000">
   <path fill="currentColor"
d="M845.824 -47.5684q2.04785 1.02441 2.04785 4.09668q0 2.04785 -1.02441 4.0957q-46.0801 53.248 -158.72 90.1123q-112.64 36.8633 -260.096 36.8633h-14.3359q-65.5361 0 -154.112 -16.8955q-88.5762 -16.8965 -148.992 -41.4717q-3.07227 -1.02441 -3.07227 -5.12012
q0 -2.04785 1.02441 -4.09668q63.4883 -80.8955 180.736 -138.239q117.248 -57.3447 219.647 -57.3447q79.8721 0 178.688 37.376q98.8154 37.376 158.208 90.624zM978.944 540.208q6.14355 0 6.14355 6.14355v2.04883q-36.8643 81.9199 -112.128 151.04
q-75.2637 69.1191 -169.472 109.056q-94.208 39.9355 -183.296 39.9355q-48.1279 0 -95.2324 -9.21582q-5.12012 -1.02344 -5.12012 -6.14355q0 -1.02441 1.02441 -2.04785q18.4316 -46.0801 61.9521 -97.2803q43.5195 -51.2002 86.5273 -77.8242
q74.752 -48.1279 191.488 -81.9199t205.824 -33.792h12.2881zM915.456 33.3281q43.0078 56.3203 72.7041 145.92t29.6963 160.256q0 54.2725 -11.2646 106.496q-1.02344 5.12012 -6.14355 5.12012h-32.7686h-12.2881q-100.352 0 -231.424 38.3994
q-131.071 38.4004 -216.063 92.6729q-54.2725 33.792 -108.032 99.3271q-53.7598 65.5361 -76.2881 124.929q-1.02441 4.0957 -6.14355 4.0957h-2.04883q-84.9912 -35.8398 -158.208 -111.104q-73.2158 -75.2646 -115.199 -171.521q-41.9844 -96.2559 -41.9844 -188.416
q0 -49.1523 15.3604 -115.712q15.3594 -66.5596 37.8877 -110.592q1.02441 -3.07227 5.12012 -3.07227h3.07227q69.6318 29.6963 172.544 51.2002t177.664 21.5039h16.3838q155.647 0 284.672 -40.96q129.023 -40.96 193.536 -109.568q2.04785 -1.02344 5.12012 -1.02344
q3.07129 0 4.0957 2.04785z" />
</svg>
