<?xml version="1.0" standalone="no"?>
<!DOCTYPE svg PUBLIC "-//W3C//DTD SVG 1.1//EN" "http://www.w3.org/Graphics/SVG/1.1/DTD/svg11.dtd" >
<svg xmlns="http://www.w3.org/2000/svg" xmlns:xlink="http://www.w3.org/1999/xlink" version="1.1" viewBox="-10 0 1005 1000">
   <path fill="currentColor"
d="M817.74 128.75q1.97949 0.989258 1.97949 3.95996q0 1.97949 -0.989258 3.95996q-44.5508 51.4795 -153.45 87.1201q-108.9 35.6396 -251.46 35.6396h-13.8604q-63.3604 0 -148.995 -16.335t-144.045 -40.0947q-2.96973 -0.990234 -2.96973 -4.9502
q0 -1.98047 0.990234 -3.95996q61.3799 -78.21 174.734 -133.65q113.355 -55.4395 212.355 -55.4395q77.2197 0 172.755 36.1348t152.955 87.6152zM946.44 697.01q5.93945 0 5.93945 5.93945v1.98047q-35.6396 79.2002 -108.405 146.025q-72.7646 66.8242 -163.845 105.435
t-177.21 38.6104q-46.5303 0 -92.0703 -8.91016q-4.94922 -0.990234 -4.94922 -5.94043q0 -0.989258 0.989258 -1.97949q17.8203 -44.5498 59.8955 -94.0498t83.6553 -75.2402q72.2695 -46.5303 185.13 -79.2002q112.859 -32.6699 198.989 -32.6699h11.8809zM885.06 206.96
q41.5801 54.4502 70.29 141.075t28.71 154.935q0 52.4697 -10.8896 102.96q-0.990234 4.9502 -5.93945 4.9502h-31.6807h-11.8799q-97.0195 0 -223.74 37.125q-126.72 37.125 -208.89 89.5947q-52.4697 32.6699 -104.445 96.0303q-51.9746 63.3594 -73.7549 120.78
q-0.990234 3.95996 -5.93945 3.95996h-1.98047q-82.1699 -34.6504 -152.955 -107.415q-70.7852 -72.7656 -111.375 -165.825q-40.5898 -93.0605 -40.5898 -182.16q0 -47.5205 14.8496 -111.87q14.8506 -64.3496 36.6309 -106.92q0.989258 -2.96973 4.94922 -2.96973h2.9707
q67.3193 28.71 166.814 49.5t171.766 20.79h15.8398q150.479 0 275.22 -39.6006q124.74 -39.5996 187.11 -105.93q1.97949 -0.990234 4.94922 -0.990234q2.9707 0 3.95996 1.98047z" />
</svg>
