<?xml version="1.0" standalone="no"?>
<!DOCTYPE svg PUBLIC "-//W3C//DTD SVG 1.1//EN" "http://www.w3.org/Graphics/SVG/1.1/DTD/svg11.dtd" >
<svg xmlns="http://www.w3.org/2000/svg" xmlns:xlink="http://www.w3.org/1999/xlink" version="1.1" viewBox="-10 0 1010 1000">
   <path fill="currentColor"
d="M585.866 639.795q-36.8545 15.25 -91.502 27.959q-54.6465 12.709 -95.3145 15.25q-49.5635 -1.27148 -97.8564 -11.4375q-29.2295 20.334 -74.3447 41.3027t-79.4287 29.8652q-22.876 10.166 -48.293 11.4375q-6.35449 0 -11.4375 -5.08398
q-5.08398 -5.08203 -5.08398 -11.4375v-16.5215v-5.08203v-6.35547q0 -5.08203 10.167 -15.25q5.08398 -2.54102 7.625 -5.71875q2.54199 -3.17773 5.08398 -6.35352q2.54199 -3.17773 3.8125 -4.44922q0 -6.35352 11.4375 -16.5215q2.54199 -2.54102 8.26074 -10.8008
q5.71875 -8.26172 8.26074 -12.0742l10.167 -21.6035q-26.6885 -15.252 -59.0947 -43.8457q-32.4072 -28.5938 -50.1992 -54.0117q-15.251 -24.1465 -26.6885 -60.3652q-11.4375 -36.2207 -11.4375 -65.4492q0 -33.043 14.6152 -74.9805q14.6143 -41.9395 34.9482 -67.3555
q24.1465 -27.959 66.085 -58.4609q41.9385 -30.5 76.251 -45.75q39.3975 -15.25 97.2217 -26.6875q57.8232 -11.4395 99.7617 -11.4395t99.7627 11.4395q57.8242 11.4375 97.2207 26.6875q34.3135 13.9785 76.252 44.4805q41.9385 30.5 66.085 59.7305
q20.333 25.416 34.9482 67.3555q14.6152 41.9375 14.6152 74.9805t-14.6152 74.3457t-34.9482 67.9902q-25.418 27.959 -66.7207 58.459q-41.3027 30.502 -75.6162 45.752zM585.866 639.795zM951.874 661.398q-16.5215 24.1465 -47.0215 49.5645
q-30.501 25.418 -55.918 38.125q2.54199 2.54297 5.08301 10.8027q2.54199 8.26172 5.08398 10.8027t8.26074 10.8027q5.71875 8.25977 8.25977 10.8008q2.54199 2.54297 5.08398 8.26172t6.35449 8.25977l16.5205 16.5215q3.81348 8.89648 10.167 16.5215v33.043
q0 5.08203 -5.08301 10.166q0 6.35547 -11.4375 6.35547q-24.1465 -3.8125 -48.293 -11.4395q-34.3135 -8.89453 -79.4287 -29.8652q-45.1152 -20.9688 -74.3457 -41.3027q-48.292 8.89648 -97.8564 11.4375h-16.5205q-54.6475 0 -125.18 -20.9688
q-70.5332 -20.9688 -116.284 -50.1992h49.5635q86.4189 -1.26953 169.024 -27.959q33.043 -8.89453 76.8877 -29.8652q43.8447 -20.9688 71.8037 -41.3027q26.6875 -19.0625 57.1885 -52.7402q30.5 -33.6777 45.751 -61.6367q16.5205 -26.6875 27.3232 -67.9902
t10.8027 -73.0742v-1.27148q1.27051 -6.35547 1.27051 -13.9805q0 -34.3125 -11.4375 -68.625q26.6875 16.5195 58.459 45.1152q31.7715 28.5938 50.835 54.0117q17.792 22.875 30.5 59.7305q12.709 36.8535 12.709 66.084v3.8125q0 27.959 -10.8027 63.543
q-10.8018 35.584 -27.3232 58.459zM951.874 661.398z" />
</svg>
