<?xml version="1.0" standalone="no"?>
<!DOCTYPE svg PUBLIC "-//W3C//DTD SVG 1.1//EN" "http://www.w3.org/Graphics/SVG/1.1/DTD/svg11.dtd" >
<svg xmlns="http://www.w3.org/2000/svg" xmlns:xlink="http://www.w3.org/1999/xlink" version="1.1" viewBox="-10 0 1186 1000">
   <path fill="currentColor"
d="M747.954 376.688q-38.1211 15.7734 -94.6445 28.9189q-56.5244 13.1445 -98.5879 15.7734q-51.2656 -1.31445 -101.217 -11.8301q-30.2344 21.0322 -76.8994 42.7217q-46.6641 21.6895 -82.1562 30.8906q-23.6611 10.5156 -49.9512 11.8301q-6.57227 0 -11.8301 -5.25781
q-5.25879 -5.25781 -5.25879 -11.8301v-17.0889v-5.25781v-6.57227q0 -5.25879 10.5166 -15.7744q5.25781 -2.62891 7.88672 -5.91504t5.25781 -6.57324q2.62891 -3.28613 3.94336 -4.60059q0 -6.57227 11.8311 -17.0889q2.62891 -2.62891 8.54395 -11.1729
q5.91602 -8.54395 8.54492 -12.4873l10.5156 -22.3467q-27.6045 -15.7744 -61.124 -45.3506q-33.5205 -29.5762 -51.9238 -55.8672q-15.7734 -24.9756 -27.6045 -62.4385q-11.8301 -37.4639 -11.8301 -67.6973q0 -34.1768 15.1162 -77.5557
q15.1172 -43.3789 36.1494 -69.6689q24.9756 -28.9189 68.3545 -60.4668q43.3789 -31.5488 78.8701 -47.3223q40.75 -15.7744 100.56 -27.6045q59.8105 -11.8311 103.188 -11.8311q43.3789 0 103.189 11.8311q59.8096 11.8301 100.56 27.6045
q35.4912 14.459 78.8701 46.0078q43.3789 31.5479 68.3545 61.7812q21.0322 26.29 36.1484 69.6689q15.1172 43.3789 15.1172 77.5557q0 34.1777 -15.1172 76.8984q-15.1162 42.7217 -36.1484 70.3262q-26.29 28.9189 -69.0117 60.4678q-42.7217 31.5479 -78.2129 47.3223z
M747.954 376.688zM1126.53 399.034q-17.0879 24.9766 -48.6367 51.2666q-31.5479 26.29 -57.8379 39.4346q2.62891 2.62891 5.25781 11.1738q2.62891 8.54395 5.25781 11.1729t8.54492 11.1738q5.91504 8.54395 8.54395 11.1729t5.25781 8.54395
q2.62891 5.91602 6.57227 8.54492l17.0889 17.0879q3.94336 9.20215 10.5166 17.0889v34.1777q0 5.25781 -5.25879 10.5156q0 6.57227 -11.8301 6.57227q-24.9756 -3.94336 -49.9512 -11.8301q-35.4922 -9.20215 -82.1572 -30.8916q-46.6641 -21.6885 -76.8984 -42.7207
q-49.9512 9.20117 -101.217 11.8301h-17.0889q-56.5234 0 -129.479 -21.6895t-120.277 -51.9229h51.2656q89.3867 -1.31445 174.829 -28.9189q34.1777 -9.20117 79.5283 -30.8906t74.2695 -42.7217q27.6045 -19.7178 59.1523 -54.5518q31.5488 -34.835 47.3223 -63.7539
q17.0889 -27.6045 28.2617 -70.3262q11.1738 -42.7207 11.1738 -75.584v-1.31445q1.31445 -6.57227 1.31445 -14.459q0 -35.4922 -11.8311 -70.9834q27.6045 17.0879 60.4678 46.665q32.8623 29.5762 52.5801 55.8662q18.4033 23.6611 31.5479 61.7812
q13.1455 38.1211 13.1455 68.3545v3.94336q0 28.9199 -11.1738 65.7256q-11.1729 36.8066 -28.2617 60.4668zM1126.53 399.034z" />
</svg>
