<?xml version="1.0" standalone="no"?>
<!DOCTYPE svg PUBLIC "-//W3C//DTD SVG 1.1//EN" "http://www.w3.org/Graphics/SVG/1.1/DTD/svg11.dtd" >
<svg xmlns="http://www.w3.org/2000/svg" xmlns:xlink="http://www.w3.org/1999/xlink" version="1.1" viewBox="-10 0 1000 1000">
   <path fill="currentColor"
d="M842.49 224.779q0.990234 3.95996 0.990234 7.91992q0 61.3809 -12.375 146.521t-30.1953 143.55q-15.8398 56.4297 -50.9854 130.186q-35.1445 73.7549 -68.8047 121.274q-39.6006 56.4307 -111.375 118.8q-71.7754 62.3701 -134.146 94.0508l-13.8594 7.91992
l-14.8506 -7.91992q-61.3799 -31.6807 -133.154 -94.0508q-71.7754 -62.3691 -111.375 -118.8q-33.6602 -47.5195 -68.8057 -121.274q-35.1445 -73.7559 -50.9844 -130.186q-17.8203 -59.3994 -30.1953 -144.54q-12.375 -85.1396 -12.375 -146.52v-6.93066
l0.990234 -30.6895l28.71 -2.96973q58.4102 -7.9209 136.125 -34.6504q77.7148 -26.7305 128.205 -57.4199q56.4297 -32.6699 105.93 -74.25l21.7803 -19.7998l21.7793 19.7998q48.5107 41.5801 104.94 74.25q51.4805 30.6895 128.7 57.4199q77.2197 26.7295 135.63 34.6504
l28.71 2.96973zM421.74 914.81v0.990234q51.4795 -28.71 111.87 -82.665q60.3896 -53.9551 95.04 -102.465q29.6992 -43.5605 61.875 -110.88q32.1748 -67.3203 47.0244 -118.801q13.8604 -49.5 25.2451 -120.779q11.3848 -71.2803 13.3652 -121.771
q-68.3105 -11.8799 -132.66 -35.6396q-66.3301 -25.7402 -127.71 -61.3799q-49.5 -28.71 -94.0498 -64.3506q-44.5498 35.6406 -94.0498 64.3506q-61.3809 35.6396 -127.71 61.3799q-65.3408 23.7598 -132.66 34.6494q0.989258 52.4707 12.8701 124.245
q11.8799 71.7754 26.7295 121.275q14.8496 51.4795 46.5303 118.305q31.6797 66.8252 62.3701 110.386q33.6602 47.5195 94.0498 101.475t111.87 81.6748z" />
</svg>
