<?xml version="1.0" standalone="no"?>
<!DOCTYPE svg PUBLIC "-//W3C//DTD SVG 1.1//EN" "http://www.w3.org/Graphics/SVG/1.1/DTD/svg11.dtd" >
<svg xmlns="http://www.w3.org/2000/svg" xmlns:xlink="http://www.w3.org/1999/xlink" version="1.1" viewBox="-10 0 1034 1000">
   <path fill="currentColor"
d="M871.424 51.7598q1.02441 4.09668 1.02441 8.19238q0 63.4883 -12.7998 151.552q-12.8008 88.0645 -31.2324 148.48q-16.3838 58.3672 -52.7363 134.655q-36.3516 76.2881 -71.168 125.44q-40.96 58.3682 -115.2 122.88q-74.2393 64.5117 -138.752 97.2803
l-14.3359 8.19141l-15.3594 -8.19141q-63.4883 -32.7686 -137.729 -97.2803q-74.2393 -64.5117 -115.2 -122.88q-34.8154 -49.1523 -71.168 -125.44q-36.3516 -76.2881 -52.7354 -134.655q-18.4326 -61.4404 -31.2324 -149.504q-12.7998 -88.0645 -12.7998 -151.553
v-7.16797l1.02441 -31.7441l29.6953 -3.07129q60.416 -8.19238 140.8 -35.8408q80.3848 -27.6475 132.608 -59.3916q58.3682 -33.792 109.568 -76.7998l22.5273 -20.4805l22.5283 20.4805q50.1758 43.0078 108.544 76.7998q53.248 31.7441 133.12 59.3916
q79.8721 27.6484 140.288 35.8408l29.6963 3.07129zM436.224 765.488v1.02344q53.248 -29.6953 115.712 -85.5039q62.4648 -55.8076 98.3047 -105.983q30.7197 -45.0566 64 -114.688q33.2793 -69.6318 48.6396 -122.88q14.3359 -51.2002 26.1123 -124.928
q11.7754 -73.7285 13.8242 -125.952q-70.6562 -12.2881 -137.217 -36.8643q-68.6074 -26.624 -132.096 -63.4883q-51.2002 -29.6953 -97.2803 -66.5596q-46.0801 36.8643 -97.2793 66.5596q-63.4883 36.8643 -132.097 63.4883q-67.584 24.5762 -137.216 35.8398
q1.02441 54.2725 13.3125 128.513q12.2881 74.2393 27.6475 125.439q15.3604 53.248 48.1279 122.368q32.7686 69.1201 64.5127 114.176q34.8154 49.1523 97.2793 104.96q62.4639 55.8086 115.712 84.4805z" />
</svg>
