<?xml version="1.0" standalone="no"?>
<!DOCTYPE svg PUBLIC "-//W3C//DTD SVG 1.1//EN" "http://www.w3.org/Graphics/SVG/1.1/DTD/svg11.dtd" >
<svg xmlns="http://www.w3.org/2000/svg" xmlns:xlink="http://www.w3.org/1999/xlink" version="1.1" viewBox="-10 0 653 1000">
   <path fill="currentColor"
d="M296.762 450.145q81.9072 0 139.479 58.165q57.5723 58.166 57.5723 140.072t-57.5723 140.071q-57.5713 58.166 -139.479 58.166v98.5254q0 20.1797 -14.8379 35.0176t-35.0176 14.8379t-35.0186 -14.8379q-14.8379 -14.8379 -14.8379 -35.0176v-98.5254h-148.381
q-20.1797 0 -34.4248 -14.8379q-14.2441 -14.8389 -14.2441 -35.0186t14.2441 -35.0176q14.2451 -14.8379 34.4248 -14.8379h148.381v-197.051q-81.9062 0 -139.479 -58.165q-57.5713 -58.166 -57.5713 -140.072t57.5713 -140.072q57.5723 -58.165 139.479 -58.165v-98.5254
q0 -20.1797 14.8379 -35.0176q14.8389 -14.8389 35.0186 -14.8389t35.0176 14.8389q14.8379 14.8379 14.8379 35.0176v98.5254h148.382q20.1797 0 34.4248 14.8379q14.2441 14.8379 14.2441 35.0176q0 20.1807 -14.2441 35.0186q-14.2451 14.8379 -34.4248 14.8379h-148.382
v197.051zM98.5244 351.619q0 40.3594 29.083 69.4424t69.4424 29.083v-197.051q-40.3594 0 -69.4424 29.083t-29.083 69.4424zM296.762 746.907q40.3604 0 69.4434 -29.083q29.082 -29.083 29.082 -69.4424q0 -40.3604 -29.082 -69.4424q-29.083 -29.083 -69.4434 -29.083
v197.051z" />
</svg>
