<?xml version="1.0" standalone="no"?>
<!DOCTYPE svg PUBLIC "-//W3C//DTD SVG 1.1//EN" "http://www.w3.org/Graphics/SVG/1.1/DTD/svg11.dtd" >
<svg xmlns="http://www.w3.org/2000/svg" xmlns:xlink="http://www.w3.org/1999/xlink" version="1.1" viewBox="-10 0 1034 1000">
   <path fill="currentColor"
d="M665.478 212.101q84.7188 0 144.269 60.1631q59.5488 60.1631 59.5488 144.883q0 84.7188 -59.5488 144.882q-59.5498 60.1631 -144.269 60.1631v101.909q0 20.873 -15.3477 36.2207t-36.2207 15.3477t-36.2207 -15.3477t-15.3477 -36.2207v-101.909h-153.478
q-20.873 0 -35.6064 -15.3477q-14.7344 -15.3477 -14.7344 -36.2207q0 -20.8721 14.7344 -36.2197q14.7334 -15.3486 35.6064 -15.3486h153.478v-203.817q-84.7197 0 -144.269 -60.1631q-59.5498 -60.1631 -59.5498 -144.883q0 -84.7188 59.5498 -144.882
q59.5488 -60.1631 144.269 -60.1631v-101.909q0 -20.873 15.3477 -36.2207t36.2207 -15.3477t36.2207 15.3477t15.3477 36.2207v101.909h153.477q20.873 0 35.6074 15.3477q14.7334 15.3477 14.7334 36.2207t-14.7334 36.2207q-14.7344 15.3477 -35.6074 15.3477h-153.477
v203.817zM460.432 110.191q0 41.7461 30.082 71.8281q30.0811 30.0811 71.8271 30.0811v-203.817q-41.7461 0 -71.8271 30.0811q-30.082 30.082 -30.082 71.8271zM665.478 519.055q41.7451 0 71.8271 -30.0811q30.0811 -30.082 30.0811 -71.8271
q0 -41.7461 -30.0811 -71.8271q-30.082 -30.082 -71.8271 -30.082v203.817z" />
</svg>
