<?xml version="1.0" standalone="no"?>
<!DOCTYPE svg PUBLIC "-//W3C//DTD SVG 1.1//EN" "http://www.w3.org/Graphics/SVG/1.1/DTD/svg11.dtd" >
<svg xmlns="http://www.w3.org/2000/svg" xmlns:xlink="http://www.w3.org/1999/xlink" version="1.1" viewBox="-10 0 955 1000">
   <path fill="currentColor"
d="M879.119 885.44q23.7607 0 39.6006 15.8398t15.8398 38.9404q0 23.0996 -15.8398 38.9395t-39.6006 15.8398h-165q-143.88 0 -280.5 -97.0195q-136.619 -97.0205 -185.46 -232.98h-194.04q-22.4395 0 -38.2793 -15.8398t-15.8398 -38.9395q0 -23.1006 15.8398 -38.9404
t38.2793 -15.8398h168.96q-3.95996 -27.7197 -3.95996 -55.4404q0 -27.7197 3.95996 -55.4395h-113.52q-22.4404 0 -38.9404 -15.8398q-16.5 -15.8408 -16.5 -38.9404t16.5 -38.9404q16.5 -15.8398 38.9404 -15.8398h138.6q48.8408 -135.96 185.46 -232.979
q136.62 -97.0205 280.5 -97.0205h165q23.7607 0 39.6006 15.8398q15.8398 15.8408 15.8398 38.9404t-15.8398 38.9404q-15.8398 15.8398 -39.6006 15.8398h-165q-100.319 0 -201.96 64.6797q-101.64 64.6797 -145.199 155.76h402.6q22.4404 0 38.9404 15.8398
q16.5 15.8408 16.5 38.9404t-16.5 38.9404q-16.5 15.8398 -38.9404 15.8398h-435.6q-3.95996 27.7197 -3.95996 55.4395q0 27.7207 3.95996 55.4404h380.159q23.7607 0 39.6006 15.8398t15.8398 38.9404q0 23.0996 -15.8398 38.9395t-39.6006 15.8398h-347.159
q43.5596 91.0801 145.199 155.76q101.641 64.6807 201.96 64.6807h165z" />
</svg>
