<?xml version="1.0" standalone="no"?>
<!DOCTYPE svg PUBLIC "-//W3C//DTD SVG 1.1//EN" "http://www.w3.org/Graphics/SVG/1.1/DTD/svg11.dtd" >
<svg xmlns="http://www.w3.org/2000/svg" xmlns:xlink="http://www.w3.org/1999/xlink" version="1.1" viewBox="-10 0 1215 1000">
   <path fill="currentColor"
d="M1137.32 613.253q24.5762 0 40.96 16.3848q16.3848 16.3838 16.3848 40.2773q0 23.8926 -16.3848 40.2773q-16.3838 16.3838 -40.96 16.3838h-170.666q-148.821 0 -290.134 -100.353q-141.312 -100.352 -191.829 -240.981h-200.704q-23.2109 0 -39.5947 -16.3838
t-16.3838 -40.2773q0 -23.8926 16.3838 -40.2773q16.3838 -16.3838 39.5947 -16.3838h174.763q-4.0957 -28.6719 -4.0957 -57.3438t4.0957 -57.3438h-117.419q-23.21 0 -40.2773 -16.3848q-17.0664 -16.3838 -17.0664 -40.2773q0 -23.8926 17.0664 -40.2773
q17.0674 -16.3838 40.2773 -16.3838h143.36q50.5176 -140.629 191.829 -240.981q141.312 -100.352 290.134 -100.352h170.666q24.5762 0 40.96 16.3838q16.3848 16.3838 16.3848 40.2773t-16.3848 40.2773q-16.3838 16.3838 -40.96 16.3838h-170.666
q-103.766 0 -208.896 66.9014t-150.187 161.109h416.427q23.2109 0 40.2773 16.3838q17.0664 16.3848 17.0664 40.2773q0 23.8936 -17.0664 40.2773q-17.0664 16.3848 -40.2773 16.3848h-450.56q-4.09668 28.6719 -4.09668 57.3438t4.09668 57.3438h393.216
q24.5762 0 40.96 16.3838q16.3838 16.3848 16.3838 40.2773q0 23.8936 -16.3838 40.2773t-40.96 16.3838h-359.083q45.0557 94.208 150.187 161.109t208.896 66.9014h170.666z" />
</svg>
