<?xml version="1.0" standalone="no"?>
<!DOCTYPE svg PUBLIC "-//W3C//DTD SVG 1.1//EN" "http://www.w3.org/Graphics/SVG/1.1/DTD/svg11.dtd" >
<svg xmlns="http://www.w3.org/2000/svg" xmlns:xlink="http://www.w3.org/1999/xlink" version="1.1" viewBox="-10 0 1034 1000">
   <path fill="currentColor"
d="M425.335 -59.6611q-4.91699 9.83496 -15.9805 16.5957q-11.0645 6.76074 -22.1279 6.76074q-18.4395 0 -30.7324 -12.9072q-12.292 -12.9072 -12.292 -30.1172q0 -9.83496 4.91699 -19.6689q14.751 -28.2734 44.8691 -60.2354q30.1172 -31.9619 57.7764 -48.5566
q27.6592 -16.5957 69.4551 -28.8887t73.7578 -12.293q115.553 0 196.687 81.748q81.1328 81.748 81.1328 196.071q0 40.5674 -17.8242 91.583q-17.8252 51.0156 -43.6396 81.748l40.5664 11.0635q13.5215 3.6875 22.7412 15.3662q9.21973 11.6777 9.21973 26.4297
q0 17.21 -12.293 29.5029q-12.292 12.293 -29.5029 12.293q-6.14648 0 -12.293 -1.22949l-97.1133 -25.8154q-46.7139 27.0449 -102.031 34.4209l183.164 49.1709q13.5225 3.68848 22.127 15.3662q8.60547 11.6787 8.60547 25.2012q0 18.4385 -12.293 30.7314
t-29.5029 12.293q-4.91699 0 -11.0635 -1.22852l-318.387 -86.0508q-7.37598 6.14648 -13.5225 13.5225q-23.3564 23.3564 -39.9521 62.6934q-16.5947 39.3379 -16.5947 72.5283q0 79.9043 56.5469 135.837q56.5479 55.9326 135.223 55.9326q46.7129 0 95.2695 -27.6592
q48.5576 -27.6592 71.9141 -68.2256q4.91699 -8.60449 15.3662 -15.3662q10.4482 -6.76074 21.5127 -6.76074q17.21 0 30.1172 12.9072t12.9072 30.1182q0 12.293 -6.14648 22.127q-34.4199 57.7764 -104.489 97.7285t-136.451 39.9521q-114.324 0 -195.458 -81.1338
q-81.1328 -81.1328 -81.1328 -195.457q0 -40.5664 17.8242 -91.582q17.8252 -51.0156 42.4111 -81.748l-39.3379 -11.0635q-13.5215 -3.68848 -22.127 -15.9805q-8.60547 -12.293 -8.60547 -24.5859q0 -18.4395 12.293 -30.7324t29.5029 -12.293q6.14648 0 11.0645 1.22949
l95.8848 25.8145q47.9424 -27.0439 103.26 -34.4199l-184.394 -49.1719q-12.293 -3.6875 -21.5127 -15.3662q-9.21973 -11.6777 -9.21973 -25.2002q0 -18.4395 12.293 -30.7324t29.5029 -12.293q6.14648 0 11.0635 1.22949l319.616 86.0508
q6.14648 -6.14648 13.5225 -12.293q23.3564 -23.3564 39.9521 -63.3086q16.5947 -39.9521 16.5947 -73.1436q0 -79.9033 -56.5469 -135.836q-56.5479 -55.9326 -135.223 -55.9326q-49.1709 0 -98.958 30.1172q-49.7861 30.1172 -71.9131 73.1426z" />
</svg>
