<?xml version="1.0" standalone="no"?>
<!DOCTYPE svg PUBLIC "-//W3C//DTD SVG 1.1//EN" "http://www.w3.org/Graphics/SVG/1.1/DTD/svg11.dtd" >
<svg xmlns="http://www.w3.org/2000/svg" xmlns:xlink="http://www.w3.org/1999/xlink" version="1.1" viewBox="-10 0 701 1000">
   <path fill="currentColor"
d="M112.905 188.025q-4.75391 9.50781 -15.4502 16.0439q-10.6963 6.53711 -21.3926 6.53711q-17.8271 0 -29.7119 -12.4795q-11.8848 -12.4785 -11.8848 -29.1172q0 -9.50781 4.75391 -19.0156q14.2617 -27.335 43.3789 -58.2354q29.1182 -30.9004 55.8584 -46.9453
q26.7412 -16.0439 67.1484 -27.9287q40.4082 -11.8848 71.3086 -11.8848q111.717 0 190.156 79.0332q78.4395 79.0342 78.4395 189.562q0 39.2197 -17.2324 88.541q-17.2334 49.3223 -42.1914 79.0332l39.2197 10.6963q13.0732 3.56543 21.9873 14.8564
q8.91309 11.29 8.91309 25.5518q0 16.6387 -11.8848 28.5234t-28.5234 11.8848q-5.94238 0 -11.8848 -1.18848l-93.8896 -24.958q-45.1621 26.1465 -98.6436 33.2773l177.083 47.5391q13.0732 3.56543 21.3926 14.8564q8.31934 11.29 8.31934 24.3633
q0 17.8271 -11.8848 29.7119t-28.5234 11.8848q-4.75391 0 -10.6963 -1.18848l-307.814 -83.1934q-7.13086 5.94238 -13.0732 13.0732q-22.5811 22.5811 -38.626 60.6123q-16.0439 38.0312 -16.0439 70.1201q0 77.251 54.6699 131.327q54.6689 54.0752 130.731 54.0752
q45.1621 0 92.1074 -26.7402q46.9443 -26.7412 69.5254 -65.9609q4.75391 -8.31934 14.8564 -14.8555q10.1016 -6.53711 20.7979 -6.53711q16.6387 0 29.1182 12.4795q12.4785 12.4785 12.4785 29.1172q0 11.8848 -5.94238 21.3926q-33.2773 55.8584 -101.021 94.4834
q-67.7432 38.626 -131.921 38.626q-110.527 0 -188.967 -78.4395t-78.4395 -188.968q0 -39.2197 17.2324 -88.541q17.2334 -49.3223 41.0029 -79.0342l-38.0312 -10.6963q-13.0732 -3.56543 -21.3926 -15.4502t-8.31934 -23.7695q0 -17.8271 11.8848 -29.7119
t28.5234 -11.8848q5.94238 0 10.6963 1.18848l92.7012 24.958q46.3506 -26.1465 99.8311 -33.2773l-178.271 -47.5381q-11.8848 -3.56543 -20.7988 -14.8564q-8.91309 -11.29 -8.91309 -24.3633q0 -17.8271 11.8848 -29.7119t28.5234 -11.8848q5.94238 0 10.6963 1.18848
l309.003 83.1934q5.94238 -5.94238 13.0732 -11.8848q22.5811 -22.5811 38.626 -61.207q16.0439 -38.625 16.0439 -70.7139q0 -77.251 -54.6699 -131.327q-54.6699 -54.0752 -130.732 -54.0752q-47.5391 0 -95.6719 29.1172q-48.1328 29.1182 -69.5254 70.7148z" />
</svg>
