<?xml version="1.0" standalone="no"?>
<!DOCTYPE svg PUBLIC "-//W3C//DTD SVG 1.1//EN" "http://www.w3.org/Graphics/SVG/1.1/DTD/svg11.dtd" >
<svg xmlns="http://www.w3.org/2000/svg" xmlns:xlink="http://www.w3.org/1999/xlink" version="1.1" viewBox="-10 0 778 1000">
   <path fill="currentColor"
d="M698.939 470.96q24.4199 0 41.5801 17.1602t17.1602 40.9199q0 126.72 -62.7002 233.641q-62.6992 106.92 -169.62 169.619q-106.92 62.7002 -233.64 62.7002q-25.0801 0 -41.5801 -17.1602q-16.5 -17.1592 -16.5 -40.9199v-314.16l-149.16 73.9209
q-11.8799 6.59961 -25.0801 6.59961h-1.31934q-23.7598 0 -40.9199 -17.1602t-17.1602 -40.9199q0 -14.5195 9.24023 -29.7002q9.23926 -15.1797 22.4395 -21.7793l201.96 -100.32v-102.96l-149.16 73.9199q-11.8799 6.59961 -25.0801 6.59961h-1.31934
q-23.7598 0 -40.9199 -17.1602q-17.1602 -17.1592 -17.1602 -40.9199q0 -14.5195 9.24023 -29.6992q9.23926 -15.1807 22.4395 -21.7803l201.96 -101.641v-196.68q0 -23.7598 16.5 -40.9199t40.9199 -17.1602t41.5801 17.1602t17.1602 40.9199v138.601l147.84 -73.9209
q14.5205 -7.91992 30.3604 -7.91992q23.7598 0 40.9199 17.1602t17.1602 40.9199q0 15.8398 -10.5605 31.6807q-10.5596 15.8398 -25.0801 22.4395l-200.64 100.32v102.96l147.84 -73.9199q11.8799 -5.28027 22.4404 -5.28027q25.0801 0 41.5801 17.1602t16.5 40.9199
q0 14.5205 -7.91992 29.04t-19.8008 21.1201l-200.64 100.32v308.88q120.12 -19.8008 205.26 -120.78q85.1406 -100.98 85.1406 -223.74q0 -23.7598 17.1592 -40.9199q17.1602 -17.1602 41.5801 -17.1602z" />
</svg>
