<?xml version="1.0" standalone="no"?>
<!DOCTYPE svg PUBLIC "-//W3C//DTD SVG 1.1//EN" "http://www.w3.org/Graphics/SVG/1.1/DTD/svg11.dtd" >
<svg xmlns="http://www.w3.org/2000/svg" xmlns:xlink="http://www.w3.org/1999/xlink" version="1.1" viewBox="-10 0 1095 1000">
   <path fill="currentColor"
d="M1013.76 184.539q25.2588 0 43.0078 17.749q17.75 17.749 17.75 42.3252q0 131.072 -64.8535 241.664t-175.445 175.445t-241.664 64.8535q-25.9414 0 -43.0078 -17.749q-17.0664 -17.75 -17.0664 -42.3262v-324.949l-154.283 76.459q-12.2881 6.82617 -25.9414 6.82617
h-1.36523q-24.5762 0 -42.3252 -17.749t-17.749 -42.3252q0 -15.0186 9.55664 -30.7197q9.55762 -15.7012 23.2109 -22.5283l208.896 -103.766v-106.496l-154.283 76.459q-12.2881 6.82715 -25.9414 6.82715h-1.36523q-24.5762 0 -42.3252 -17.75
q-17.749 -17.749 -17.749 -42.3252q0 -15.0186 9.55664 -30.7197q9.55762 -15.7012 23.2109 -22.5283l208.896 -105.131v-203.435q0 -24.5762 17.0664 -42.3252t42.3252 -17.749t43.0078 17.749t17.749 42.3252v143.36l152.918 -76.459q15.0186 -8.19141 31.4023 -8.19141
q24.5762 0 42.3252 17.749q17.75 17.749 17.75 42.3252q0 16.3838 -10.9229 32.7686q-10.9229 16.3838 -25.9414 23.21l-207.531 103.766v106.496l152.918 -76.459q12.2881 -5.46094 23.2109 -5.46094q25.9404 0 43.0078 17.749q17.0664 17.749 17.0664 42.3252
q0 15.0186 -8.19238 30.0371q-8.19141 15.0195 -20.4795 21.8457l-207.531 103.766v319.488q124.246 -20.4805 212.31 -124.929q88.0645 -104.448 88.0645 -231.424q0 -24.5762 17.749 -42.3252t43.0078 -17.749z" />
</svg>
