<?xml version="1.0" standalone="no"?>
<!DOCTYPE svg PUBLIC "-//W3C//DTD SVG 1.1//EN" "http://www.w3.org/Graphics/SVG/1.1/DTD/svg11.dtd" >
<svg xmlns="http://www.w3.org/2000/svg" xmlns:xlink="http://www.w3.org/1999/xlink" version="1.1" viewBox="-10 0 1010 1000">
   <path fill="currentColor"
d="M990 499.504q0 95.041 -36.6299 180.676t-99 148.006q-62.3701 62.3691 -148.5 99q-86.1299 36.6289 -180.18 36.6289q-104.94 0 -219.78 -62.3691q-114.84 -62.3711 -171.271 -151.471h116.82q45.54 50.4902 126.225 85.6348q80.6855 35.1445 148.006 35.1445
q100.979 0 186.614 -49.5q85.6357 -49.5 135.136 -135.135t49.5 -186.119t-49.5 -186.121q-49.5 -85.6348 -135.136 -135.629q-85.6348 -49.9961 -186.614 -49.9961q-67.3203 0 -148.006 35.6406q-80.6846 35.6406 -126.225 86.1309h-116.82
q56.4307 -89.1016 170.28 -151.471t218.79 -62.3691h0.990234q94.0498 0 180.18 36.6289q86.1299 36.6309 148.5 98.5059t99.4951 148.004q37.125 86.1309 37.125 180.18zM216.81 323.285v136.619h135.631v80.1895h-135.631v135.631h-81.1797v-135.631h-135.63v-80.1895
h135.63v-136.619h81.1797zM718.74 487.625q14.8496 12.8691 25.7402 36.6289q10.8896 23.7617 10.8896 43.5605q0 4.95117 -0.990234 9.90039v33.6602q0 55.4395 -29.7002 85.6348q-29.6992 30.1953 -83.1602 30.1953q-53.46 0 -83.1592 -30.1953
q-29.7002 -30.1953 -29.7002 -85.6348v-33.6602q-0.990234 -4.94922 -0.990234 -9.90039q0 -19.7988 10.8896 -43.5605q10.8906 -23.7598 26.7305 -36.6289q-15.8398 -11.8809 -26.2354 -35.1445q-10.3945 -23.2656 -10.3945 -43.0664v-8.91016v-13.8594
q0 -55.4395 29.7002 -85.6348q29.6992 -30.1953 83.1592 -30.1953q53.4609 0 83.1602 30.1953q29.7002 30.1953 29.7002 85.6348v13.8594q0.990234 4.95117 0.990234 8.91016q0 19.8008 -10.8896 43.0664q-10.8906 23.2637 -25.7402 35.1445zM609.84 569.795v40.5898
q0 25.7402 8.41504 33.6602t23.2646 7.91992q30.6904 0 32.6709 -43.5605v-39.5996q0 -25.7402 -8.91016 -33.6602t-23.7607 -7.91992q-31.6797 0 -31.6797 42.5703zM672.21 412.385v-23.7598q0 -25.7402 -8.41504 -34.6504t-23.2646 -8.91016q-14.8506 0 -23.7607 8.91016
q-8.90918 8.91016 -8.90918 34.6504v23.7598q0 23.7598 8.90918 31.1855q8.91016 7.42383 23.7607 7.42383q13.8594 1.98047 22.7695 -5.93945t8.91016 -32.6699zM433.62 279.725l0.990234 -3.95898h57.4199v446.488h-82.1699v-331.648h-52.4707v-61.3809h6.93066
q4.94922 0.990234 9.89941 0.990234q20.79 0 38.1152 -14.8496t21.2852 -35.6406z" />
</svg>
