<?xml version="1.0" standalone="no"?>
<!DOCTYPE svg PUBLIC "-//W3C//DTD SVG 1.1//EN" "http://www.w3.org/Graphics/SVG/1.1/DTD/svg11.dtd" >
<svg xmlns="http://www.w3.org/2000/svg" xmlns:xlink="http://www.w3.org/1999/xlink" version="1.1" viewBox="-10 0 1044 1000">
   <path fill="currentColor"
d="M1024 336.172q0 98.3037 -37.8877 186.88q-37.8887 88.5762 -102.4 153.088q-64.5117 64.5127 -153.6 102.4t-186.368 37.8877q-108.544 0 -227.328 -64.5117t-177.152 -156.672h120.832q47.1045 52.2236 130.561 88.5762q83.4561 36.3516 153.088 36.3516
q104.448 0 193.023 -51.2002q88.5762 -51.1992 139.776 -139.775t51.2002 -192.513q0 -103.936 -51.2002 -192.512t-139.776 -140.288q-88.5752 -51.7119 -193.023 -51.7119q-69.6318 0 -153.088 36.8643t-130.561 89.0879h-120.832q58.3682 -92.1602 176.128 -156.672
q117.761 -64.5117 226.305 -64.5117h1.02344q97.2803 0 186.368 37.8877t153.601 101.888q64.5117 64 102.911 153.088q38.4004 89.0879 38.4004 186.368zM224.256 153.9v141.312h140.288v82.9443h-140.288v140.288h-83.9678v-140.288h-140.288v-82.9443h140.288v-141.312
h83.9678zM743.424 323.884q15.3604 13.3125 26.624 37.8887q11.2637 24.5752 11.2637 45.0557q0 5.12012 -1.02344 10.2402v34.8154q0 57.3438 -30.7197 88.5762q-30.7207 31.2324 -86.0166 31.2324t-86.0156 -31.2324t-30.7197 -88.5762v-34.8154
q-1.02441 -5.12012 -1.02441 -10.2402q0 -20.4805 11.2637 -45.0557q11.2646 -24.5762 27.6484 -37.8887q-16.3838 -12.2881 -27.1357 -36.3516q-10.752 -24.0645 -10.752 -44.5439v-9.21582v-14.3369q0 -57.3438 30.7197 -88.5752q30.7197 -31.2324 86.0156 -31.2324
t86.0166 31.2324q30.7197 31.2314 30.7197 88.5752v14.3369q1.02344 5.11914 1.02344 9.21582q0 20.4795 -11.2637 44.5439q-11.2637 24.0635 -26.624 36.3516zM630.784 408.876v41.9844q0 26.624 8.7041 34.8154q8.7041 8.19238 24.0635 8.19238q31.7441 0 33.792 -45.0566
v-40.96q0 -26.624 -9.21582 -34.8154q-9.21582 -8.19238 -24.5762 -8.19238q-32.7676 0 -32.7676 44.0322zM695.296 246.06v-24.5752q0 -26.624 -8.7041 -35.8408q-8.7041 -9.21582 -24.0635 -9.21582q-15.3604 0 -24.5762 9.21582q-9.21582 9.2168 -9.21582 35.8408
v24.5752q0 24.5762 9.21582 32.2568q9.21582 7.67969 24.5762 7.67969q14.3359 2.04785 23.5518 -6.14453q9.21582 -8.19141 9.21582 -33.792zM448.512 108.844l1.02441 -4.0957h59.3916v461.824h-84.9922v-343.04h-54.2715v-63.4883h7.16797
q5.12012 1.02441 10.2402 1.02441q21.5039 0 39.4238 -15.3604t22.0156 -36.8643z" />
</svg>
