<?xml version="1.0" standalone="no"?>
<!DOCTYPE svg PUBLIC "-//W3C//DTD SVG 1.1//EN" "http://www.w3.org/Graphics/SVG/1.1/DTD/svg11.dtd" >
<svg xmlns="http://www.w3.org/2000/svg" xmlns:xlink="http://www.w3.org/1999/xlink" version="1.1" viewBox="-10 0 1044 1000">
   <path fill="currentColor"
d="M1024 336.432v5.12012q0 102.4 -39.9355 195.584q-39.9365 93.1846 -107.521 161.28t-160.768 108.544q-93.1846 40.4482 -195.584 41.4717q-117.761 0 -243.712 -72.1914q-125.952 -72.1924 -185.345 -173.568h90.1123q52.2236 70.6562 152.063 120.32
q99.8408 49.6641 186.881 50.6875q115.712 -2.04785 214.016 -59.9033q98.3037 -57.8564 155.648 -157.185q57.3438 -99.3281 57.3438 -215.04v-5.12012v-8.19141q0 -115.712 -56.832 -213.504t-155.136 -154.624q-98.3047 -56.832 -212.992 -56.832
q-89.0879 0 -188.416 49.6641t-152.576 120.319h-90.1123q58.3682 -102.399 183.809 -175.615q125.439 -73.2168 244.224 -73.2168h1.02441q102.399 1.02441 195.584 41.9844q93.1836 40.96 160.768 109.056q67.584 68.0967 107.521 161.792
q39.9355 93.6963 39.9355 196.097v3.07129zM207.872 302.64h141.312v67.584h-141.312v143.36h-70.6562v-143.36h-137.216v-67.584h137.216v-143.359h70.6562v143.359zM399.36 538.16v-58.3682q0 -30.7197 15.8721 -56.832q15.8711 -26.1123 37.8877 -45.0557
q22.0156 -18.9443 44.0322 -38.9121q22.0156 -19.9678 37.8877 -48.6406q15.8721 -28.6719 15.8721 -63.4873q0 -25.6006 -11.2637 -36.3525q-11.2646 -10.752 -25.6006 -10.752q-15.3594 0 -26.624 11.7764q-11.2637 11.7754 -11.2637 35.3281v17.4082h-73.7285v-30.7207
q0 -26.624 10.752 -46.0801t27.6484 -29.6953q16.8955 -10.2402 35.3281 -14.8486q18.4316 -4.60742 37.8877 -4.60742q3.07227 -1.02441 6.14453 -1.02441q41.9834 0 71.6797 29.6963t29.6963 70.6562q0 2.04785 -1.02441 3.07129q0 36.8643 -10.752 67.0723
t-27.1357 49.6641t-35.3281 37.8877q-18.9443 18.4326 -35.3281 31.7441q-16.3838 13.3125 -27.6484 31.2324q-11.2637 17.9199 -11.2637 38.3994h151.552v61.4404h-225.279zM711.68 538.16v-352.256h-60.416v-61.4404h134.145v413.696h-73.7285z" />
</svg>
