<?xml version="1.0" standalone="no"?>
<!DOCTYPE svg PUBLIC "-//W3C//DTD SVG 1.1//EN" "http://www.w3.org/Graphics/SVG/1.1/DTD/svg11.dtd" >
<svg xmlns="http://www.w3.org/2000/svg" xmlns:xlink="http://www.w3.org/1999/xlink" version="1.1" viewBox="-10 0 1010 1000">
   <path fill="currentColor"
d="M990 500v4.94922q0 99 -38.6104 189.091q-38.6094 90.0898 -103.949 155.925q-65.3408 65.835 -155.431 104.939q-90.0898 39.1055 -189.09 40.0957q-113.85 0 -235.62 -69.7949q-121.77 -69.7949 -179.189 -167.806h87.1201q50.4893 68.3105 147.015 116.325
q96.5244 48.0146 180.675 49.0049q111.87 -1.97949 206.91 -57.915q95.04 -55.9346 150.479 -151.965q55.4404 -96.0303 55.4404 -207.9v-4.94922v-7.91992q0 -111.87 -54.9453 -206.415q-54.9443 -94.5449 -149.984 -149.49t-205.92 -54.9453q-86.1309 0 -182.16 48.0156
q-96.0303 48.0146 -147.51 116.324h-87.1201q56.4297 -99 177.705 -169.784q121.274 -70.7852 236.114 -70.7852h0.990234q99 0.989258 189.09 40.5898q90.0898 39.5996 155.431 105.435q65.3398 65.835 103.949 156.42q38.6104 90.585 38.6104 189.585v2.9707z
M200.97 467.33h136.62v65.3398h-136.62v138.6h-68.3096v-138.6h-132.66v-65.3398h132.66v-138.601h68.3096v138.601zM386.1 695.029v-56.4297q0 -29.7002 15.3457 -54.9453q15.3447 -25.2441 36.6299 -43.5596t42.5693 -37.6201q21.2852 -19.3047 36.6309 -47.0254
q15.3447 -27.7197 15.3447 -61.3799q0 -24.75 -10.8896 -35.1445q-10.8906 -10.3955 -24.75 -10.3955q-14.8506 0 -25.7402 11.3857q-10.8906 11.3848 -10.8906 34.1543v16.8301h-71.2793v-29.7002q0 -25.7393 10.3945 -44.5498q10.3955 -18.8096 26.7305 -28.71
q16.335 -9.89941 34.1543 -14.3545q17.8203 -4.45508 36.6309 -4.45508q2.96973 -0.990234 5.93945 -0.990234q40.5898 0 69.2998 28.71t28.71 68.3105q0 1.97949 -0.989258 2.96973q0 35.6396 -10.3955 64.8447q-10.3945 29.2051 -26.2354 48.0146
q-15.8398 18.8105 -34.1543 36.6309q-18.3154 17.8193 -34.1553 30.6895t-26.7305 30.1953q-10.8896 17.3252 -10.8896 37.125h146.521v59.3994h-217.801zM688.05 695.029v-340.56h-58.4102v-59.4004h129.69v399.96h-71.2803z" />
</svg>
