<?xml version="1.0" standalone="no"?>
<!DOCTYPE svg PUBLIC "-//W3C//DTD SVG 1.1//EN" "http://www.w3.org/Graphics/SVG/1.1/DTD/svg11.dtd" >
<svg xmlns="http://www.w3.org/2000/svg" xmlns:xlink="http://www.w3.org/1999/xlink" version="1.1" viewBox="-10 0 1034 1000">
   <path fill="currentColor"
d="M794.14 364.397v1.02637q0 9.23438 0.512695 20.0078q0.512695 10.7725 7.69531 38.4756q7.18164 27.7021 20.5205 51.3008q13.3379 23.5986 42.5801 51.8135q29.2412 28.2158 70.2822 47.71q-12.3125 35.9111 -33.8594 78.4912q-21.5459 42.5791 -51.8135 87.7246
q-30.2676 45.1445 -70.2822 75.4121t-79.0039 31.2939q-30.7803 0 -84.1338 -20.5205q-53.3525 -20.5205 -90.2891 -20.5205q-40.0156 0 -93.8809 20.0078q-53.8662 20.0068 -79.5166 21.0332q-38.9893 1.02637 -80.0303 -30.7803q-41.04 -31.8066 -73.3604 -80.543
q-32.3193 -48.7363 -55.4043 -93.8809q-23.0859 -45.1445 -36.4238 -81.0557q-13.3389 -37.9629 -22.5732 -92.3418q-9.2334 -54.3789 -10.2598 -93.3682q0 -72.8467 23.0859 -132.356q23.085 -59.5088 61.0479 -95.9326t84.1338 -55.918t95.4199 -20.5205
q33.8584 0 96.959 22.5723q63.0996 22.5723 77.4639 22.5723q11.2861 0 45.6582 -13.3379q34.3711 -13.3379 77.4648 -25.1377q43.0928 -11.7988 79.0029 -8.7207q50.2754 1.02539 107.22 30.7803q56.9434 29.7549 85.6719 70.7959q-47.1963 24.624 -80.542 80.0293
t-33.3457 108.758v5.12988zM664.861 -11.126q-72.8477 85.1602 -159.033 79.0039v-15.3906q0 -34.8838 16.9287 -79.0029q16.9297 -44.1191 41.5537 -69.7695q25.6514 -28.7285 71.3086 -52.3271q45.6582 -23.5986 83.6211 -27.7021q1.02539 10.2598 1.02539 20.5205
q0 34.8848 -15.9033 77.4639q-15.9033 42.5801 -39.501 67.2041z" />
</svg>
