<?xml version="1.0" standalone="no"?>
<!DOCTYPE svg PUBLIC "-//W3C//DTD SVG 1.1//EN" "http://www.w3.org/Graphics/SVG/1.1/DTD/svg11.dtd" >
<svg xmlns="http://www.w3.org/2000/svg" xmlns:xlink="http://www.w3.org/1999/xlink" version="1.1" viewBox="-10 0 927 1000">
   <path fill="currentColor"
d="M695.359 527.759v0.992188q0 8.92773 0.496094 19.3428q0.496094 10.416 7.43945 37.1982q6.94336 26.7832 19.8389 49.5977q12.8955 22.8154 41.166 50.0938q28.2715 27.2793 67.9492 46.126q-11.9033 34.7188 -32.7344 75.8848t-50.0938 84.8115
q-29.2627 43.6465 -67.9492 72.9082q-38.6855 29.2627 -76.3799 30.2549q-29.7588 0 -81.3398 -19.8389q-51.582 -19.8389 -87.292 -19.8389q-38.6865 0 -90.7637 19.3428q-52.0781 19.3428 -76.877 20.335q-37.6943 0.992188 -77.3721 -29.7588
q-39.6777 -30.75 -70.9248 -77.8682q-31.2461 -47.1172 -53.5654 -90.7637q-22.3184 -43.6455 -35.2139 -78.3643q-12.8955 -36.7021 -21.8232 -89.2754t-9.91992 -90.2676q0 -70.4287 22.3193 -127.962t59.0215 -92.748q36.7021 -35.2139 81.3398 -54.0615
q44.6377 -18.8467 92.252 -19.8389q32.7344 0 93.7393 21.8232q61.0049 21.8223 74.8926 21.8223q10.9111 0 44.1416 -12.8945q33.2305 -12.8955 74.8926 -24.3037q41.6621 -11.4072 76.3809 -8.43164q48.6055 0.992188 103.658 29.7588q55.0537 28.7666 82.8281 68.4453
q-45.6299 23.8066 -77.8682 77.3721t-32.2383 105.146v4.95996zM570.373 164.704q-70.4287 82.332 -153.752 76.3809v-14.8799q0 -33.7266 16.3672 -76.3799q16.3672 -42.6543 40.1738 -67.4531q24.7988 -27.7744 68.9404 -50.5898q44.1416 -22.8145 80.8447 -26.7822
q0.991211 9.91895 0.991211 19.8389q0 33.7266 -15.375 74.8926t-38.1904 64.9727z" />
</svg>
