<?xml version="1.0" standalone="no"?>
<!DOCTYPE svg PUBLIC "-//W3C//DTD SVG 1.1//EN" "http://www.w3.org/Graphics/SVG/1.1/DTD/svg11.dtd" >
<svg xmlns="http://www.w3.org/2000/svg" xmlns:xlink="http://www.w3.org/1999/xlink" version="1.1" viewBox="-10 0 975 1000">
   <path fill="currentColor"
d="M111.591 455.808v-228.12h682.384v496.729v2.96289q0 14.8125 -10.3691 26.1689q-10.3691 11.3574 -24.1943 12.3447h-83.9404v156.029q-0.987305 29.626 -21.7256 50.3643t-51.3516 20.7383h-1.97461q-25.6758 0 -44.4395 -15.8008q-11.8496 -8.8877 -19.75 -25.1816
t-7.90039 -30.1201v-156.029h-149.117v156.029q0 29.626 -21.2324 51.3525q-21.2314 21.7256 -51.8447 21.7256t-51.8457 -21.7256q-21.2314 -21.7266 -21.2314 -51.3525v-156.029h-86.9033q-14.8125 -1.97559 -25.1816 -13.332t-10.3691 -25.1816
q0 -1.97559 0.987305 -2.96289v-268.608zM863.596 200.037q17.2822 0 29.626 12.3438q12.3438 12.3447 12.3438 29.1328v166.893q-0.987305 16.7881 -13.3311 28.6387q-12.3447 11.8496 -29.1328 11.8496q-16.7871 0 -28.6377 -11.8496q-11.8506 -11.8506 -12.8379 -28.6387
v-166.893q0 -16.7881 12.3438 -29.1328q12.3447 -12.3438 29.626 -12.3438zM41.9697 200.037q17.2822 0 29.1318 12.3438q11.8506 12.3447 11.8506 29.1328v166.893q0 16.7881 -12.3438 28.6387q-12.3447 11.8496 -29.1318 11.8496q-16.7881 0 -29.1328 -11.8496
q-12.3438 -11.8506 -12.3438 -28.6387v-166.893q0 -16.7881 12.3438 -29.1328q12.3447 -12.3438 29.626 -12.3438zM621.157 48.9443q41.4756 10.8633 74.0645 27.6514t49.8701 33.5762q17.2822 16.7881 28.6387 36.0449t14.8125 31.1074q3.45703 11.8496 4.44434 22.7129
h-681.396q0.987305 -10.8633 4.44434 -22.7129q3.45605 -11.8506 14.8125 -31.1074t28.6387 -36.0449q17.2812 -16.7881 49.8701 -34.0703q32.5889 -17.2812 74.0645 -27.1572l-56.2891 -37.5254q-1.97461 -1.97559 3.9502 -4.93848q2.96289 -0.987305 4.9375 -0.987305
q1.97559 0 3.9502 0.987305l57.2773 38.5146q72.0898 -14.8135 145.167 -14.8135h9.875h8.8877q74.0645 0 146.154 15.8008l58.2646 -39.502q1.97559 -2.96191 7.90039 0q5.9248 2.96289 3.9502 4.93848zM302.678 135.848q17.2822 0 29.1328 -6.91309
q11.8506 -6.91211 11.8506 -16.2939t-11.8506 -16.2939q-11.8506 -6.91309 -29.1328 -6.91309q-17.2812 0 -29.1318 6.91309q-11.8506 6.91211 -11.8506 16.2939t11.8506 16.2939q11.8506 6.91309 29.1318 6.91309zM602.888 135.848q17.2812 0 29.1318 -6.91309
q11.8506 -6.91211 11.8506 -16.2939t-11.8506 -16.2939q-11.8506 -6.91309 -29.1318 -6.91309q-17.2822 0 -29.1318 6.91309q-11.8506 6.91211 -11.8506 16.2939t11.8506 16.2939q11.8496 6.91309 29.1318 6.91309z" />
</svg>
