<?xml version="1.0" standalone="no"?>
<!DOCTYPE svg PUBLIC "-//W3C//DTD SVG 1.1//EN" "http://www.w3.org/Graphics/SVG/1.1/DTD/svg11.dtd" >
<svg xmlns="http://www.w3.org/2000/svg" xmlns:xlink="http://www.w3.org/1999/xlink" version="1.1" viewBox="-10 0 1034 1000">
   <path fill="currentColor"
d="M140.96 291.65v-235.954h705.819v513.787v3.06445q0 15.3213 -10.7256 27.0684q-10.7246 11.7461 -25.0254 12.7676h-86.8232v161.389q-1.02148 30.6436 -22.4717 52.0938t-53.1152 21.4502h-2.04297q-26.5576 0 -45.9648 -16.3428q-12.2568 -9.19336 -20.4287 -26.0469
t-8.17188 -31.1543v-161.389h-154.238v161.389q0 30.6436 -21.9609 53.1152t-53.626 22.4717t-53.626 -22.4717t-21.9609 -53.1152v-161.389h-89.8877q-15.3213 -2.04297 -26.0469 -13.7891q-10.7246 -11.7471 -10.7246 -26.0469q0 -2.04297 1.02148 -3.06445v-277.833z
M918.791 27.0957q17.875 0 30.6436 12.7676q12.7676 12.7686 12.7676 30.1328v172.624q-1.02148 17.3652 -13.7891 29.6221q-12.7686 12.2578 -30.1328 12.2578t-29.6221 -12.2578q-12.2568 -12.2568 -13.2783 -29.6221v-172.624q0 -17.3643 12.7676 -30.1328
q12.7686 -12.7676 30.6436 -12.7676zM68.9473 27.0957q17.876 0 30.1328 12.7676q12.2578 12.7686 12.2578 30.1328v172.624q0 17.3652 -12.7686 29.6221q-12.7676 12.2578 -30.1328 12.2578q-17.3643 0 -30.1318 -12.2578q-12.7686 -12.2568 -12.7686 -29.6221v-172.624
q0 -17.3643 12.7686 -30.1328q12.7676 -12.7676 30.6426 -12.7676zM668.026 -129.186q42.9004 11.2354 76.6084 28.6006q33.707 17.3643 51.583 34.7285q17.875 17.3652 29.6221 37.2832q11.7461 19.918 15.3213 32.1758q3.5752 12.2568 4.59668 23.4932h-704.798
q1.02148 -11.2363 4.5957 -23.4932q3.5752 -12.2578 15.3223 -32.1758q11.7461 -19.918 29.6221 -37.2832q17.875 -17.3643 51.583 -35.2393q33.707 -17.876 76.6084 -28.0898l-58.2227 -38.8154q-2.04297 -2.04297 4.08594 -5.10742q3.06445 -1.02148 5.10742 -1.02148
t4.08594 1.02148l59.2432 39.8369q74.5654 -15.3223 150.153 -15.3223h10.2139h9.19336q76.6084 0 151.174 16.3438l60.2656 -40.8584q2.04297 -3.06445 8.1709 0q6.12891 3.06445 4.08594 5.10742zM338.609 -39.2988q17.875 0 30.1328 -7.15039
q12.2568 -7.14941 12.2568 -16.8535t-12.2568 -16.8535q-12.2578 -7.15039 -30.1328 -7.15039t-30.1328 7.15039q-12.2568 7.14941 -12.2568 16.8535t12.2568 16.8535q12.2578 7.15039 30.1328 7.15039zM649.129 -39.2988q17.876 0 30.1328 -7.15039
q12.2578 -7.14941 12.2578 -16.8535t-12.2578 -16.8535q-12.2568 -7.15039 -30.1328 -7.15039q-17.875 0 -30.1328 7.15039q-12.2568 7.14941 -12.2568 16.8535t12.2568 16.8535q12.2578 7.15039 30.1328 7.15039z" />
</svg>
