<?xml version="1.0" standalone="no"?>
<!DOCTYPE svg PUBLIC "-//W3C//DTD SVG 1.1//EN" "http://www.w3.org/Graphics/SVG/1.1/DTD/svg11.dtd" >
<svg xmlns="http://www.w3.org/2000/svg" xmlns:xlink="http://www.w3.org/1999/xlink" version="1.1" viewBox="-10 0 1499 1000">
   <path fill="currentColor"
d="M966.038 173.457q-3.86426 0 -15.457 -1.93262q-11.5928 -1.93164 -17.3887 -1.93164h-85.0117l108.196 214.46q5.79688 13.5244 5.79688 28.9814q0 27.0488 -17.3887 44.4375l-77.2832 77.2832q-19.3213 19.3203 -44.4375 19.3203q-7.72852 0 -13.5244 -1.93164
q-13.5254 -1.93262 -28.0156 -14.4912q-14.4902 -12.5576 -18.3545 -26.083l-129.449 -341.977h-19.3203q-13.5254 0 -23.1855 -9.66113q-9.66016 -9.66016 -9.66016 -21.252v-32.8457h-94.6719q-13.5244 0 -23.1846 -9.66016t-9.66016 -21.2529v-193.208
q0 -13.5244 9.66016 -22.2188t23.1846 -8.69434h96.6035v-32.8447q0 -13.5244 8.69434 -22.2188t22.2197 -8.69434h318.792q5.7959 0 18.3545 -1.93262q12.5586 -1.93164 14.4912 -1.93164v390.279zM1472.24 -454.468q5.79688 7.72852 5.79688 17.3887v830.792
q0 9.66113 -5.79688 15.457q-1.93164 1.93164 -1.93164 3.86426q-5.7959 7.72852 -13.5244 9.66016q-5.79688 1.93164 -11.5928 1.93164t-13.5244 -1.93164l-1.93164 -1.93164q-3.86426 -1.93262 -7.72852 -5.79688l-1.93262 -1.93164q-63.7578 -75.3516 -177.751 -143.939
q-113.992 -68.5889 -212.528 -85.9775v-409.601q98.5361 -19.3203 212.528 -86.9434q113.993 -67.6221 177.751 -144.905h1.93262q5.7959 -5.7959 13.5244 -9.66016h3.86426q3.86426 -1.93262 5.7959 -1.93262q5.7959 0 9.66016 1.93262h1.93262
q7.72852 3.86426 13.5244 11.5918q1.93164 0 1.93164 1.93262z" />
</svg>
