<?xml version="1.0" standalone="no"?>
<!DOCTYPE svg PUBLIC "-//W3C//DTD SVG 1.1//EN" "http://www.w3.org/Graphics/SVG/1.1/DTD/svg11.dtd" >
<svg xmlns="http://www.w3.org/2000/svg" xmlns:xlink="http://www.w3.org/1999/xlink" version="1.1" viewBox="-10 0 1010 1000">
   <path fill="currentColor"
d="M495 627.019q-3.73535 0 -14.9434 -1.86816q-11.207 -1.86719 -16.8105 -1.86719h-82.1895l104.604 207.339q5.60352 13.0762 5.60352 28.0195q0 26.1504 -16.8115 42.9619l-74.7168 74.7168q-18.6797 18.6797 -42.9619 18.6797q-7.47266 0 -13.0762 -1.86816
q-13.0752 -1.86816 -27.085 -14.0098q-14.0088 -12.1416 -17.7451 -25.2168l-125.15 -330.622h-18.6797q-13.0752 0 -22.415 -9.33984t-9.33984 -20.5479v-31.7539h-91.5283q-13.0752 0 -22.415 -9.33984t-9.33984 -20.5469v-186.793q0 -13.0752 9.33984 -21.4814
q9.33984 -8.40527 22.415 -8.40527h93.3965v-31.7549q0 -13.0752 8.40527 -21.4814q8.40625 -8.40527 21.4814 -8.40527h308.208q5.60352 0 17.7451 -1.86816q12.1416 -1.86719 14.0088 -1.86719v377.32zM984.396 19.9434q5.60352 7.47168 5.60352 16.8115v803.207
q0 9.33984 -5.60352 14.9434q-1.86816 1.86816 -1.86816 3.73633q-5.60352 7.47168 -13.0752 9.33887q-5.60352 1.86816 -11.207 1.86816q-5.60449 0 -13.0762 -1.86816l-1.86816 -1.86719q-3.73535 -1.86816 -7.47168 -5.60449l-1.86719 -1.86719
q-61.6416 -72.8496 -171.85 -139.161q-110.207 -66.3105 -205.472 -83.1221v-396q95.2646 -18.6797 205.472 -84.0566q110.208 -65.3779 171.85 -140.095h1.86719q5.60449 -5.60352 13.0762 -9.33984h3.73535q3.73633 -1.86719 5.60449 -1.86719q5.60352 0 9.33887 1.86719
h1.86816q7.47168 3.73633 13.0752 11.208q1.86816 0 1.86816 1.86816z" />
</svg>
