<?xml version="1.0" standalone="no"?>
<!DOCTYPE svg PUBLIC "-//W3C//DTD SVG 1.1//EN" "http://www.w3.org/Graphics/SVG/1.1/DTD/svg11.dtd" >
<svg xmlns="http://www.w3.org/2000/svg" xmlns:xlink="http://www.w3.org/1999/xlink" version="1.1" viewBox="-10 0 1034 1000">
   <path fill="currentColor"
d="M954.737 247.04q17.6553 21.7295 29.8779 58.3975q12.2227 36.6689 12.2227 65.1885v1.3584v1.35742q0 28.5205 -10.1855 65.1885q-10.1855 36.6689 -25.124 61.1143q-14.9395 25.8037 -44.8174 50.9287q-29.8779 25.124 -57.04 34.6309
q-76.0527 28.5205 -157.538 28.5205h-19.0137h-4.07422v89.6338q-1.3584 10.8643 -10.1855 18.334t-19.6924 7.46973q-10.8643 0 -19.6924 -7.46973q-8.82715 -7.46973 -10.1855 -18.334v-89.6338h-194.207q-24.4453 0 -42.7793 -18.335q-18.335 -18.334 -18.335 -44.1377
v-710.281v-1.3584q0 -24.4453 17.6553 -42.7793t43.459 -18.334h192.849v-46.1758q2.7168 -12.2227 11.5439 -19.6924q8.82812 -7.46875 19.6924 -7.46875q10.8652 0 19.6924 7.46875q8.82715 7.46973 10.1855 19.6924v46.1758q14.9395 -1.3584 29.8779 -1.3584
q42.1006 0 95.0664 19.6924t85.5596 46.8535q25.8037 24.4463 44.1377 67.9053q18.335 43.459 19.6924 78.7686v2.7168q0 54.3232 -28.5195 99.1406q-13.5811 21.7295 -38.7051 44.1377q-25.125 22.4082 -48.2129 33.2734q29.8779 6.79004 64.5098 29.8779
q34.6309 23.0869 52.2861 47.5332zM475.332 -61.2471v188.775h143.957v-249.889h-82.8438q-25.8037 0 -43.459 17.6543q-17.6543 17.6553 -17.6543 43.459zM536.445 513.226l82.8438 -1.3584v-285.199h-143.957v225.443q0 25.8037 17.6543 43.459
q17.6553 17.6553 43.459 17.6553zM679.045 -122.36v249.889q8.14844 1.35742 16.2969 1.35742q24.4463 0 57.04 -9.50684q32.5947 -9.50586 52.9658 -23.0869q16.2969 -13.5811 27.8408 -37.3477t11.5439 -44.1377v-9.50684v-9.50684q0 -21.7295 -11.5439 -46.8535
q-11.5439 -25.125 -26.4824 -38.7061q-21.7295 -13.5811 -55.0029 -23.0879q-33.2734 -9.50586 -59.0771 -9.50586h-13.5811zM835.226 475.199h1.3584q19.0127 -16.2969 31.915 -45.4961q12.9014 -29.1992 12.9014 -53.6445v-5.43262v-8.14844q0 -24.4453 -13.5811 -53.6445
t-32.5938 -45.4961q-25.8037 -14.9395 -64.5098 -25.8037q-38.7051 -10.8652 -68.583 -10.8652h-20.3711v286.558q10.8643 1.3584 23.0869 1.3584q29.8779 0 67.9043 -11.5439q38.0273 -11.5439 62.4727 -27.8408z" />
</svg>
