<?xml version="1.0" standalone="no"?>
<!DOCTYPE svg PUBLIC "-//W3C//DTD SVG 1.1//EN" "http://www.w3.org/Graphics/SVG/1.1/DTD/svg11.dtd" >
<svg xmlns="http://www.w3.org/2000/svg" xmlns:xlink="http://www.w3.org/1999/xlink" version="1.1" viewBox="-10 0 648 1000">
   <path fill="currentColor"
d="M571.154 528.886q17.0693 21.0088 28.8857 56.459q11.8174 35.4512 11.8174 63.0244v1.3125v1.31348q0 27.5723 -9.84766 63.0234t-24.29 59.085q-14.4434 24.9473 -43.3291 49.2373q-28.8857 24.291 -55.1465 33.4814q-73.5273 27.5732 -152.308 27.5732h-18.3818
h-3.93848v86.6582q-1.31348 10.5039 -9.84766 17.7246q-8.53418 7.22168 -19.0391 7.22168q-10.5039 0 -19.0381 -7.22168q-8.53418 -7.2207 -9.84766 -17.7246v-86.6582h-187.759q-23.6338 0 -41.3594 -17.7256t-17.7256 -42.6729v-686.697v-1.3125
q0 -23.6348 17.0693 -41.3594q17.0693 -17.7256 42.0156 -17.7256h186.446v-44.6426q2.62598 -11.8164 11.1602 -19.0381t19.0381 -7.22168q10.5049 0 19.0391 7.22168t9.84766 19.0381v44.6426q14.4424 -1.31348 28.8857 -1.31348q40.7031 0 91.9092 19.0391
q51.207 19.0381 82.7197 45.2979q24.9463 23.6338 42.6719 65.6504q17.7256 42.0156 19.0391 76.1533v2.62598q0 52.5205 -27.5732 95.8486q-13.1299 21.0078 -37.4209 42.6729q-24.29 21.6641 -46.6113 32.168q28.8857 6.56543 62.3672 28.8867
q33.4814 22.3203 50.5508 45.9541zM107.666 230.836v182.507h139.178v-241.592h-80.0928q-24.9473 0 -42.0156 17.0684q-17.0693 17.0693 -17.0693 42.0166zM166.751 786.233l80.0928 -1.3125v-275.729h-139.178v217.957q0 24.9473 17.0693 42.0166
q17.0684 17.0684 42.0156 17.0684zM304.616 171.751v241.592q7.87793 1.3125 15.7559 1.3125q23.6338 0 55.1455 -9.19043q31.5117 -9.19141 51.207 -22.3213q15.7559 -13.1299 26.916 -36.1074q11.1611 -22.9775 11.1611 -42.6729v-9.19043v-9.19141
q0 -21.0078 -11.1611 -45.2979q-11.1602 -24.291 -25.6025 -37.4209q-21.0088 -13.1299 -53.1768 -22.3213q-32.1689 -9.19043 -57.1152 -9.19043h-13.1299zM455.61 749.47h1.31348q18.3818 -15.7559 30.8555 -43.9854t12.4736 -51.8633v-5.25195v-7.87793
q0 -23.6338 -13.1309 -51.8633q-13.1299 -28.2295 -31.5117 -43.9854q-24.9463 -14.4434 -62.3672 -24.9473q-37.4199 -10.5039 -66.3066 -10.5039h-19.6943v277.042q10.5039 1.31348 22.3203 1.31348q28.8867 0 65.6504 -11.1611q36.7637 -11.1602 60.3975 -26.916z" />
</svg>
