<?xml version="1.0" standalone="no"?>
<!DOCTYPE svg PUBLIC "-//W3C//DTD SVG 1.1//EN" "http://www.w3.org/Graphics/SVG/1.1/DTD/svg11.dtd" >
<svg xmlns="http://www.w3.org/2000/svg" xmlns:xlink="http://www.w3.org/1999/xlink" version="1.1" viewBox="-10 0 1161 1000">
   <path fill="currentColor"
d="M441.553 -129.028q7.54785 -1.25781 16.3535 -1.25781q37.7402 0 84.2852 16.9824q46.5459 16.9834 75.4795 40.8848q25.1592 25.1602 43.4004 66.6729q18.2412 41.5137 18.2412 76.7373v6.29004v5.03223q0 22.6436 -8.80664 51.5771q-8.80566 28.9336 -21.3857 47.8037
q-17.6113 27.6758 -44.0293 46.5449l-6.29004 6.29004l7.54785 5.03223q32.708 23.9014 55.3516 57.8672q13.8379 21.3857 23.2725 53.4648q9.43555 32.0781 9.43555 57.2383v2.51562v1.25781q0 25.1602 -8.80664 57.8672q-8.80566 32.708 -20.127 54.0938
q-12.5801 22.6436 -37.1113 46.5449q-24.5303 23.9023 -47.1738 35.2236q-23.9023 12.5801 -60.3838 21.3857q-36.4814 8.80664 -62.8994 8.80664h-8.80566h-298.143q-15.0957 0 -25.1592 -11.3223q-8.80664 -10.0635 -8.80664 -22.6436v-1.25781v-694.408
q0 -15.0957 8.80664 -25.1602q10.0635 -10.0635 25.1592 -10.0635h290.595zM237.759 -24.6152v211.341h197.504h1.25781q20.1279 0 45.2881 -8.80566q25.1592 -8.80566 41.5137 -21.3857q13.8379 -11.3213 23.2725 -32.0781t9.43457 -39.627v-6.29004v-7.54785
q0 -17.6113 -9.43457 -37.7393t-22.0146 -31.4502q-40.2559 -26.417 -88.0596 -26.417h-11.3213h-187.44zM535.901 496.19h-1.25781q15.0957 -15.0957 25.1602 -40.2559q10.0635 -25.1592 10.0635 -45.916t-10.0635 -45.917q-10.0645 -25.1592 -25.1602 -40.2549
q-16.3535 -13.8379 -42.1426 -23.9023q-25.7881 -10.0635 -47.1738 -10.0635q-5.03223 0 -10.0645 1.25781h-197.504v239.018h206.31q21.3857 0 48.4326 -10.0645q27.0469 -10.0635 43.4004 -23.9014zM869.268 38.2842q23.9023 0 40.8848 16.9824t18.2412 40.8848v20.1279
l10.0635 -7.54785q21.3857 -17.6123 55.3516 -29.5635q33.9658 -11.9502 61.6406 -11.9502h8.80664h23.9014q22.6436 0 37.7393 15.0957t15.0957 37.1104t-15.0957 37.1104t-37.7393 15.0957h-40.2559h-11.3213q-17.6123 0 -39.627 8.17676
q-22.0146 8.17773 -35.8525 20.7568q-12.5801 13.8379 -22.0146 36.4824q-9.43457 22.6436 -9.43457 41.5127q0 5.03223 1.25781 8.80664v288.078q0 25.1602 -17.6123 42.1426q-17.6113 16.9824 -42.1416 16.9824q-24.5312 0 -42.1426 -16.9824
q-17.6123 -16.9824 -17.6123 -42.1426v-479.292q0 -23.9023 16.9824 -40.8848q16.9834 -16.9824 40.8848 -16.9824z" />
</svg>
