<?xml version="1.0" standalone="no"?>
<!DOCTYPE svg PUBLIC "-//W3C//DTD SVG 1.1//EN" "http://www.w3.org/Graphics/SVG/1.1/DTD/svg11.dtd" >
<svg xmlns="http://www.w3.org/2000/svg" xmlns:xlink="http://www.w3.org/1999/xlink" version="1.1" viewBox="-10 0 1010 1000">
   <path fill="currentColor"
d="M313.783 130.878q7.29785 -1.21582 15.8115 -1.21582q36.4863 0 81.4863 16.4189t72.9727 39.5264q24.3242 24.3242 41.96 64.46q17.6348 40.1348 17.6348 74.1885v6.08203v4.86426q0 21.8916 -8.51367 49.8652q-8.51367 27.9727 -20.6758 46.2158
q-17.0264 26.7568 -42.5674 45l-6.08105 6.08105l7.29688 4.86523q31.6221 23.1084 53.5137 55.9453q13.3789 20.6758 22.5 51.6895q9.12207 31.0137 9.12207 55.3379v2.43262v1.21582q0 24.3242 -8.51367 55.9463t-19.46 52.2969q-12.1621 21.8926 -35.8779 45
q-23.7158 23.1084 -45.6084 34.0547q-23.1074 12.1621 -58.3779 20.6758t-60.8105 8.51367h-8.51367h-288.243q-14.5947 0 -24.3242 -10.9463q-8.51367 -9.72949 -8.51367 -21.8916v-1.2168v-671.352q0 -14.5938 8.51367 -24.3242q9.72949 -9.72949 24.3242 -9.72949
h280.945zM116.757 231.824v204.324h190.945h1.2168q19.459 0 43.7832 -8.51367t40.1357 -20.6758q13.3779 -10.9463 22.5 -31.0137q9.12109 -20.0674 9.12109 -38.3105v-6.08105v-7.29785q0 -17.0264 -9.12109 -36.4863q-9.12207 -19.459 -21.2842 -30.4053
q-38.9189 -25.54 -85.1348 -25.54h-10.9463h-181.216zM405 735.338h-1.2168q14.5947 -14.5947 24.3242 -38.9189q9.73047 -24.3252 9.73047 -44.3926t-9.73047 -44.3916q-9.72949 -24.3242 -24.3242 -38.9189q-15.8105 -13.3779 -40.7432 -23.1084
q-24.9326 -9.72949 -45.6074 -9.72949q-4.86523 0 -9.73047 1.21582h-190.945v231.081h199.459q20.6758 0 46.8242 -9.72949t41.96 -23.1074zM727.297 292.635q23.1084 0 39.5273 16.4189t17.6348 39.5273v19.459l9.72949 -7.29688q20.6758 -17.0273 53.5137 -28.5811
q32.8379 -11.5547 59.5947 -11.5547h8.51367h23.1084q21.8916 0 36.4863 14.5947t14.5947 35.8789q0 21.2832 -14.5947 35.8779t-36.4863 14.5947h-38.9189h-10.9463q-17.0273 0 -38.3105 7.90527q-21.2842 7.90527 -34.6621 20.0674q-12.1621 13.3789 -21.2842 35.2705
q-9.12109 21.8916 -9.12109 40.1348q0 4.86523 1.21582 8.51367v278.514q0 24.3242 -17.0273 40.7432q-17.0264 16.4189 -40.7432 16.4189q-23.7158 0 -40.7432 -16.4189t-17.0273 -40.7432v-463.378q0 -23.1084 16.4189 -39.5273t39.5273 -16.4189z" />
</svg>
