<?xml version="1.0" standalone="no"?>
<!DOCTYPE svg PUBLIC "-//W3C//DTD SVG 1.1//EN" "http://www.w3.org/Graphics/SVG/1.1/DTD/svg11.dtd" >
<svg xmlns="http://www.w3.org/2000/svg" xmlns:xlink="http://www.w3.org/1999/xlink" version="1.1" viewBox="-11 0 734 1000">
   <path fill="currentColor"
d="M705.269 901.853q-32.7979 44.6055 -55.1006 60.3486q-48.542 32.7988 -114.139 32.7988q-93.1465 -9.18359 -158.743 -38.0469q-81.3398 -36.7334 -158.744 -43.293q-57.7246 0 -93.1475 43.293q-7.87109 15.7432 -25.582 20.335t-33.4541 -4.5918
q-17.0557 -7.87109 -23.6152 -25.582t1.31152 -33.4541l5.24805 -6.55957q10.4961 -20.9912 44.6055 -53.79q34.1104 -27.5498 97.083 -39.3574h17.0557l5.24707 -15.7432q17.0557 -49.8535 17.0557 -98.3955q0 -40.6689 -17.0557 -82.6514h-146.936
q-23.6152 5.24805 -42.6377 -11.8076q-19.0234 -17.0547 -22.959 -41.9814q-3.93652 -23.6152 12.4629 -42.6377q16.3994 -19.0234 41.3262 -22.959h11.8076h86.5869v5.24805q-57.7246 -99.707 -65.5967 -207.285q0 -59.0371 24.2715 -112.826
q24.2705 -53.7891 68.876 -90.5234q95.7705 -86.5879 224.34 -86.5879q125.946 -9.18359 213.846 86.5879q64.2842 65.5967 81.3389 158.744v11.8066q0 32.7988 -32.7979 53.7891q-20.9912 9.18359 -41.9814 -1.96777q-20.9912 -11.1514 -28.8633 -36.0781v-5.24707
q0 -9.18359 -2.62305 -20.335q-2.62402 -11.1514 -7.21582 -24.2715q-4.5918 -13.1191 -7.21582 -20.9902q-23.6143 -49.8535 -69.5322 -76.0928q-45.918 -26.2383 -99.707 -22.3027q-87.8994 0 -142.345 54.4453t-54.4453 147.593q7.87207 106.267 65.5967 196.789h174.487
q20.9912 0 38.7021 14.4316t21.6465 35.4219v20.9912q-3.93555 22.3027 -19.6787 36.0781t-40.6699 13.7754h-119.386q10.4951 55.1006 15.7432 87.8994q0 14.4316 -2.62402 30.8301q-2.62402 16.3994 -7.21582 36.0781t-5.90332 30.1748l-5.24805 22.3027l98.3955 32.7979
q77.4033 32.7988 117.417 33.4551q40.0146 0.655273 67.5645 -28.207q2.62402 -1.31152 5.9043 -5.90332q3.2793 -4.5918 7.21582 -8.52832q3.93555 -3.93555 9.18359 -6.55957q22.3027 -22.3027 43.293 -22.3027q17.0557 0 27.5508 5.24805
q5.24805 5.24805 6.55957 24.9268q1.3125 19.6787 -6.55957 40.6699z" />
</svg>
