<?xml version="1.0" standalone="no"?>
<!DOCTYPE svg PUBLIC "-//W3C//DTD SVG 1.1//EN" "http://www.w3.org/Graphics/SVG/1.1/DTD/svg11.dtd" >
<svg xmlns="http://www.w3.org/2000/svg" xmlns:xlink="http://www.w3.org/1999/xlink" version="1.1" viewBox="-10 0 1051 1000">
   <path fill="currentColor"
d="M1023.17 632.387q-33.9248 46.1367 -56.9932 62.4209q-50.209 33.9248 -118.059 33.9248q-96.3457 -9.49902 -164.195 -39.3525q-84.1328 -37.9961 -164.195 -44.7803q-59.708 0 -96.3467 44.7803q-8.1416 16.2842 -26.4609 21.0332t-34.6035 -4.74902
q-17.6406 -8.14258 -24.4258 -26.4619q-6.78418 -18.3193 1.35742 -34.6025l5.42773 -6.78516q10.8564 -21.7119 46.1377 -55.6367q35.2812 -28.4971 100.417 -40.71h17.6406l5.42871 -16.2832q17.6406 -51.5654 17.6406 -101.774q0 -42.0664 -17.6406 -85.4902h-151.983
q-24.4258 5.42773 -44.1016 -12.2129q-19.6768 -17.6406 -23.7471 -43.4238q-4.07129 -24.4258 12.8906 -44.1016q16.9629 -19.6768 42.7451 -23.748h12.2129h89.5615v5.42871q-59.707 -103.132 -67.8496 -214.404q0 -61.0645 25.1045 -116.701t71.2422 -93.6318
q99.0596 -89.5615 232.045 -89.5615q130.271 -9.49902 221.188 89.5615q66.4922 67.8496 84.1338 164.195v12.2129q0 33.9248 -33.9248 55.6367q-21.7119 9.49902 -43.4238 -2.03613q-21.7119 -11.5342 -29.8535 -37.3164v-5.42871q0 -9.49805 -2.71387 -21.0332
q-2.71387 -11.5342 -7.46387 -25.1035q-4.74902 -13.5703 -7.46289 -21.7119q-24.4258 -51.5654 -71.9209 -78.7061q-47.4941 -27.1396 -103.131 -23.0684q-90.918 0 -147.233 56.3154q-56.3145 56.3145 -56.3145 152.661q8.1416 109.916 67.8486 203.548h180.479
q21.7119 0 40.0312 14.9268t22.3906 36.6387v21.7119q-4.07129 23.0684 -20.3555 37.3174q-16.2832 14.248 -42.0664 14.248h-123.485q10.8555 56.9932 16.2832 90.918q0 14.9268 -2.71387 31.8896q-2.71387 16.9619 -7.46289 37.3174q-4.75 20.3545 -6.10645 31.21
l-5.42871 23.0693l101.774 33.9248q80.0625 33.9248 121.45 34.6025q41.3887 0.678711 69.8848 -29.1748q2.71484 -1.35742 6.10645 -6.10645q3.39258 -4.75 7.46387 -8.82031q4.07129 -4.07129 9.49902 -6.78516q23.0684 -23.0684 44.7803 -23.0684
q17.6406 0 28.4971 5.42773q5.42773 5.42773 6.78516 25.7822q1.35645 20.3555 -6.78516 42.0674z" />
</svg>
