<?xml version="1.0" standalone="no"?>
<!DOCTYPE svg PUBLIC "-//W3C//DTD SVG 1.1//EN" "http://www.w3.org/Graphics/SVG/1.1/DTD/svg11.dtd" >
<svg xmlns="http://www.w3.org/2000/svg" xmlns:xlink="http://www.w3.org/1999/xlink" version="1.1" viewBox="-10 0 899 1000">
   <path fill="currentColor"
d="M488.504 411.653v-183.188q-1.2998 -5.19727 -7.7959 -6.49609q-20.7871 -2.59863 -42.2236 -2.59863q-21.4375 0 -42.2246 2.59863h-7.7959v187.086q0 11.6934 -7.79492 20.1377q-7.79492 8.44531 -19.4883 8.44531h-1.29883q-11.6934 0 -19.4883 -8.44531
q-7.79492 -8.44434 -7.79492 -20.1377v-170.196q-6.49609 0 -11.6934 3.89746q-79.252 27.2832 -141.614 107.185q-62.3623 79.9023 -71.457 163.052q-2.59766 22.0859 -2.59766 45.4727q0 115.63 79.9014 211.771t192.933 116.929l35.0791 5.19727h5.19727h5.19629h375.473
q15.5908 3.89746 26.6338 19.4883q11.043 15.5898 11.043 31.8301t-11.043 31.1816q-11.043 14.9404 -26.6338 20.1377h-3.89746h-3.89746h-0.650391h-1.94824h-702.874q-23.3857 0 -38.9766 -15.5908t-15.5908 -38.9766q1.2998 -20.7871 16.8896 -35.7285
q15.5908 -14.9404 36.3779 -14.9404h1.2998h70.1572q0 -2.59863 -5.19727 -6.49609q-62.3613 -53.2676 -106.535 -148.76q-44.1729 -95.4922 -44.1729 -176.043q0 -84.4492 45.4727 -180.591q45.4717 -96.1416 109.134 -149.409q32.4795 -28.583 83.7988 -55.8662
q51.3193 -27.2842 92.8936 -37.6777v-102.638q0 -11.6924 7.7959 -19.4883q7.79492 -7.79492 19.4873 -7.79492h1.2998q11.6924 0 19.4883 7.79492q7.79492 7.7959 7.79492 19.4883v87.0469h4.54688h3.24805q22.0869 -2.59766 44.1738 -2.59766t44.1729 2.59766h5.19727
v-87.0469q0 -11.6924 7.79492 -19.4883q7.7959 -7.79492 19.4883 -7.79492h1.29883q10.3945 0 18.8389 7.79492q8.44531 7.7959 8.44531 19.4883v98.7402h5.19629q113.032 29.8818 207.874 132.52q94.8428 102.638 114.331 218.268q5.19727 33.7803 6.49609 67.5596v3.89746
q0 20.7871 -14.9414 35.0791q-14.9404 14.291 -35.7275 14.291h-1.2998q-20.7871 0 -35.0781 -14.291q-14.292 -14.292 -14.292 -35.0791v-24.6846q-5.19629 -66.2607 -48.0703 -139.017t-98.7402 -109.134q-35.0791 -24.6846 -75.3545 -37.6768
q-11.6934 -5.19727 -10.3936 -3.89746q2.59863 3.89746 6.49609 3.89746v171.496q0 11.6924 -8.44531 20.1377q-8.44434 8.44531 -20.1377 8.44531h-1.29883q-15.5908 0 -23.3857 -14.292v-2.59863q-6.49609 -6.49609 -9.09473 -14.291z" />
</svg>
