<?xml version="1.0" standalone="no"?>
<!DOCTYPE svg PUBLIC "-//W3C//DTD SVG 1.1//EN" "http://www.w3.org/Graphics/SVG/1.1/DTD/svg11.dtd" >
<svg xmlns="http://www.w3.org/2000/svg" xmlns:xlink="http://www.w3.org/1999/xlink" version="1.1" viewBox="-10 0 1147 1000">
   <path fill="currentColor"
d="M722.981 131.215v-189.479q-1.34375 -5.37598 -8.0625 -6.71973q-21.502 -2.6875 -43.6748 -2.6875t-43.6748 2.6875h-8.0625v193.512q0 12.0947 -8.06348 20.8301q-8.0625 8.73438 -20.1572 8.73438h-1.34375q-12.0947 0 -20.1572 -8.73438
q-8.06348 -8.73535 -8.06348 -20.8301v-176.042q-6.71875 0 -12.0947 4.03125q-81.9736 28.2207 -146.478 110.866q-64.5039 82.6465 -73.9102 168.651q-2.68848 22.8447 -2.68848 47.0342q0 119.601 82.6465 219.045q82.6455 99.4434 199.559 120.944l36.2832 5.375
h5.37598h5.375h388.367q16.126 4.03223 27.5488 20.1582t11.4229 32.9238t-11.4229 32.252t-27.5488 20.8291h-4.03125h-4.03125h-0.671875h-2.01562h-727.014q-24.1885 0 -40.3145 -16.126t-16.126 -40.3145q1.34375 -21.502 17.4697 -36.9561t37.627 -15.4541h1.34375
h72.5674q0 -2.6875 -5.37598 -6.71875q-64.5039 -55.0977 -110.194 -153.869q-45.6895 -98.7715 -45.6895 -182.089q0 -87.3496 47.0342 -186.793q47.0332 -99.4434 112.882 -154.54q33.5957 -29.5645 86.6768 -57.7852t96.084 -38.9717v-106.162
q0 -12.0947 8.06348 -20.1572q8.0625 -8.06348 20.1572 -8.06348h1.34375q12.0947 0 20.1572 8.06348q8.06348 8.0625 8.06348 20.1572v90.0361h4.70312h3.35938q22.8457 -2.6875 45.6904 -2.6875t45.6904 2.6875h5.375v-90.0361q0 -12.0947 8.06348 -20.1572
q8.0625 -8.06348 20.1572 -8.06348h1.34375q10.751 0 19.4854 8.06348q8.73535 8.0625 8.73535 20.1572v102.131h5.375q116.913 30.9082 215.014 137.071q98.0996 106.162 118.257 225.764q5.375 34.9395 6.71875 69.8789v4.03223q0 21.501 -15.4541 36.2832
t-36.9551 14.7822h-1.34375q-21.501 0 -36.2832 -14.7822t-14.7822 -36.2832v-25.5332q-5.37598 -68.5352 -49.7217 -143.79q-44.3467 -75.2549 -102.132 -112.882q-36.2832 -25.5332 -77.9424 -38.9717q-12.0938 -5.375 -10.75 -4.03125q2.6875 4.03125 6.71875 4.03125
v177.387q0 12.0938 -8.73438 20.8291q-8.73535 8.73438 -20.8301 8.73438h-1.34375q-16.126 0 -24.1885 -14.7822v-2.6875q-6.71973 -6.71875 -9.40723 -14.7822z" />
</svg>
