<?xml version="1.0" standalone="no"?>
<!DOCTYPE svg PUBLIC "-//W3C//DTD SVG 1.1//EN" "http://www.w3.org/Graphics/SVG/1.1/DTD/svg11.dtd" >
<svg xmlns="http://www.w3.org/2000/svg" xmlns:xlink="http://www.w3.org/1999/xlink" version="1.1" viewBox="-10 0 1043 1000">
   <path fill="currentColor"
d="M962.021 -169.747h-223.664q29.6426 48.5049 39.0742 105.095h181.895h2.69531q24.252 0 42.4414 17.5156t18.1895 43.1152v0v1.34766q0 25.6006 -17.5156 43.1162t-43.1152 17.5156h-176.506v28.2949q0 111.831 -78.8213 190.652q-78.8203 78.8213 -189.305 78.8213
h-1.34766v0l269.474 273.516q17.5156 17.5156 17.5156 42.4424q0 24.9258 -17.5156 42.4414q-17.5156 17.5166 -43.1152 18.8633q-24.2529 -1.34668 -41.7686 -18.8633l-353.011 -344.926q-22.9053 -22.9053 -22.9053 -55.2422v-1.34766v0q0 -32.3369 22.9053 -55.2422
t55.2422 -22.9053h91.6211q68.7158 0 118.568 -49.1787t49.8525 -119.242v-6.73633h-277.558q-25.6006 -1.34766 -43.1162 -18.8633t-17.5156 -41.7686v-2.69531q0 -24.252 18.1895 -41.7676q18.1895 -17.5166 42.4424 -17.5166h264.084
q-17.5156 -44.4629 -62.6523 -75.4521t-92.2949 -30.9893h-109.137q-24.2529 0 -41.7686 -16.8428q-17.5156 -16.8418 -18.8633 -41.0947v-2.69434q0 -24.2529 17.5156 -41.7686t43.1162 -18.8633h576.674q25.5996 1.34766 43.1152 18.8633t17.5156 41.7686v2.69434
q-1.34668 24.2529 -18.8633 41.0947q-17.5156 16.8428 -41.7676 16.8428z" />
</svg>
