<?xml version="1.0" standalone="no"?>
<!DOCTYPE svg PUBLIC "-//W3C//DTD SVG 1.1//EN" "http://www.w3.org/Graphics/SVG/1.1/DTD/svg11.dtd" >
<svg xmlns="http://www.w3.org/2000/svg" xmlns:xlink="http://www.w3.org/1999/xlink" version="1.1" viewBox="-10 0 695 1000">
   <path fill="currentColor"
d="M616.145 122.236h-216.237q28.6582 46.8945 37.7764 101.605h175.855h2.60547q23.4473 0 41.0332 16.9346q17.585 16.9336 17.585 41.6836v0v1.30273q0 24.75 -16.9346 41.6846q-16.9336 16.9336 -41.6836 16.9336h-170.645v27.3555q0 108.118 -76.2041 184.322
t-183.02 76.2041h-1.30273v0l260.526 264.435q16.9336 16.9336 16.9336 41.0322t-16.9336 41.0332q-16.9346 16.9346 -41.6846 18.2373q-23.4473 -1.30273 -40.3818 -18.2373l-341.289 -333.474q-22.1445 -22.1445 -22.1445 -53.4082v-1.30273v0
q0 -31.2627 22.1445 -53.4072t53.4082 -22.1445h88.5781q66.4346 0 114.632 -47.5469q48.1973 -47.5459 48.1973 -115.282v-6.51367h-268.342q-24.75 -1.30273 -41.6846 -18.2363q-16.9336 -16.9346 -16.9336 -40.3818v-2.60547q0 -23.4473 17.585 -40.3818
q17.5859 -16.9336 41.0332 -16.9336h255.315q-16.9336 -42.9873 -60.5723 -72.9473q-43.6377 -29.9609 -89.2305 -29.9609h-105.513q-23.4473 0 -40.3818 -16.2832q-16.9336 -16.2822 -18.2363 -39.7295v-2.60547q0 -23.4473 16.9336 -40.3818
q16.9346 -16.9346 41.6846 -18.2363h557.526q24.75 1.30176 41.6836 18.2363q16.9346 16.9346 16.9346 40.3818v2.60547q-1.30273 23.4473 -18.2363 39.7295q-16.9346 16.2832 -40.3818 16.2832z" />
</svg>
