<?xml version="1.0" standalone="no"?>
<!DOCTYPE svg PUBLIC "-//W3C//DTD SVG 1.1//EN" "http://www.w3.org/Graphics/SVG/1.1/DTD/svg11.dtd" >
<svg xmlns="http://www.w3.org/2000/svg" xmlns:xlink="http://www.w3.org/1999/xlink" version="1.1" viewBox="-10 0 1010 1000">
   <path fill="currentColor"
d="M939.311 760.764q-14.4824 19.6553 -38.793 44.4824q-24.3105 24.8281 -43.9658 38.2764q-16.5518 11.3789 -42.4141 18.6201q-25.8613 7.24121 -45.5166 7.24121q-25.8623 0 -49.6553 -8.27539q-16.5518 -4.1377 -103.448 -34.1377q-8.27637 -1.03516 -8.27637 -9.31055
q0 -1.03516 1.03516 -2.06934q1.03418 -9.31055 10.3447 -9.31055h1.03418q15.5176 2.06934 30 6.20703q26.8965 7.24121 54.8281 7.24121q43.4482 0 92.5859 -24.3096q49.1377 -24.3105 76.0342 -58.4482q8.27637 -10.3457 33.1035 -43.4482
q9.31055 -10.3457 15.5176 -27.4141q6.20703 -17.0693 6.20703 -30.5176q0 -15.5166 -7.75879 -34.1377t-18.1035 -28.9658l-70.3447 -86.8965q-9.31055 -9.31055 -9.31055 -23.793q0 -16.5518 13.4482 -27.9307q10.3447 -8.27637 23.793 -8.27637
q16.5518 0 27.9307 12.4141q12.4141 13.4482 34.1387 41.3789q21.7236 27.9316 32.0684 39.3105q11.3799 14.4824 21.7246 37.2412t13.4482 40.3447q1.03418 7.24219 1.03418 14.4834q0 35.1719 -15 78.6201t-35.6895 71.3799zM175.862 747.315
q-7.24121 1.03418 -14.4824 1.03418q-36.207 0 -72.4141 -8.27539q-37.2412 -8.27637 -63.1035 -41.3799t-25.8623 -71.3789q0 -14.4834 3.10352 -27.9316q5.17285 -26.8965 19.1377 -62.0684q13.9658 -35.1729 28.4482 -58.9658q7.24219 -11.3789 20.6904 -11.3789h4.1377
q13.4482 1.03418 17.5859 14.4824q1.03418 4.1377 1.03418 7.24121q0 9.31055 -5.17188 15.5176q-21.7246 35.1719 -32.0693 74.4824q-4.1377 9.31055 -4.1377 19.6553q0 12.4141 7.75879 26.3789q7.75879 13.9658 19.1377 21.207q31.0342 20.6895 69.3105 21.7246
q14.4824 1.03418 30 1.03418q44.4824 0 87.9307 -12.4141q26.8965 -6.20605 46.0352 -30q19.1377 -23.793 19.1377 -51.7236q0 -2.06934 -1.03418 -4.1377q0 -54.8281 -6.20703 -108.621q-5.17285 -46.5518 -10.3447 -90q-9.31055 -70.3447 -26.8975 -139.655
q-5.17188 -18.6201 -5.17188 -37.2412q0 -28.9658 12.4141 -54.8271q9.30957 -16.5518 21.7236 -4.13867q20.6895 19.6553 43.4482 35.1729q10.3447 6.20703 17.5859 18.1035q7.24219 11.8965 7.24219 23.2754q0 15.5176 -10.3447 27.9316
q-3.10352 5.17188 -7.24219 9.30957q-14.4824 14.4834 -14.4824 34.1387q0 7.24121 2.06934 14.4824l12.4131 93.1035q4.13867 31.0342 10.3447 92.0693q8.27637 53.793 9.31055 107.586v4.1377q0 25.8623 -12.9307 57.4141t-30.5176 50.1719
q-15.5166 14.4834 -41.8965 26.3799q-26.3789 11.8965 -48.1035 13.9648q-35.1719 4.13867 -70.3447 4.13867h-7.24121zM711.725 567.315l-8.27637 -42.4141q-5.17188 -19.6553 -16.5518 -36.207q-17.5859 -20.6895 -17.5859 -47.5859q0 -24.8281 14.4824 -43.4482
q10.3447 -15.5176 22.7588 -3.10352q14.4834 13.4482 26.3799 38.2754q11.8965 24.8281 13.9648 44.4834q6.20703 45.5166 6.20703 91.0342q0 36.207 -3.10352 71.3789q-1.03418 5.17285 -4.1377 8.27637t-8.27637 3.10352h-1.03418h-210h-1.03418
q-24.8281 0 -44.4824 -17.5859q-19.6553 -17.5869 -20.6904 -43.4482q-5.17188 -26.8975 -14.4824 -113.794q-4.1377 -45.5166 -16.5518 -104.482q-8.27539 -43.4482 -15.5176 -102.414q-1.03418 -5.17188 -1.03418 -11.3789q0 -16.5518 7.24121 -31.0342
q2.06934 -6.20703 13.4482 -32.0693q1.03516 -8.27637 9.82812 -8.27637t10.8613 8.27637q23.7939 67.2412 31.0352 137.586q2.06836 31.0352 15.5166 190.345v16.5518q1.03516 11.3799 9.31055 18.6211q8.27637 7.24121 19.6553 7.24121h182.069v2.06934zM597.932 718.35
l43.4482 -40.3447q9.30957 -8.27637 18.6201 0l35.1729 43.4482q10.3447 11.3789 0 21.7236l-35.1729 33.1035q-10.3447 9.31055 -18.6201 0l-32.0693 -36.2061q-4.1377 -4.13867 -8.27539 0l-39.3105 35.1719q-3.10352 5.17285 -8.27637 5.17285
q-5.17188 0 -8.27539 -5.17285l-40.3447 -45.5176q-4.13867 -3.10352 -4.13867 -8.27539q0 -5.17285 4.13867 -8.27637q13.4482 -12.4131 40.3447 -36.2061q3.10352 -4.13867 7.24121 -4.13867q7.24121 0 10.3447 6.20703q13.4482 13.4482 35.1729 39.3105z" />
</svg>
