<?xml version="1.0" standalone="no"?>
<!DOCTYPE svg PUBLIC "-//W3C//DTD SVG 1.1//EN" "http://www.w3.org/Graphics/SVG/1.1/DTD/svg11.dtd" >
<svg xmlns="http://www.w3.org/2000/svg" xmlns:xlink="http://www.w3.org/1999/xlink" version="1.1" viewBox="-10 0 1066 1000">
   <path fill="currentColor"
d="M992.97 589.79q-14.9805 20.3301 -40.125 46.0107q-25.1455 25.6797 -45.4756 39.5898q-17.1201 11.7705 -43.8711 19.2607q-26.75 7.49023 -47.0801 7.49023q-26.75 0 -51.3604 -8.56055q-17.1201 -4.28027 -107.001 -35.3105q-8.56055 -1.06934 -8.56055 -9.62988
q0 -1.07031 1.07031 -2.13965q1.07031 -9.62988 10.7002 -9.62988h1.07031q16.0498 2.13965 31.0303 6.41992q27.8203 7.49023 56.71 7.49023q44.9404 0 95.7656 -25.1455q50.8262 -25.1455 78.6465 -60.4561q8.55957 -10.7002 34.2402 -44.9404
q9.62988 -10.7002 16.0498 -28.3555q6.41992 -17.6543 6.41992 -31.5645q0 -16.0508 -8.02441 -35.3105q-8.02539 -19.2607 -18.7256 -29.9609l-72.7607 -89.8809q-9.62988 -9.62988 -9.62988 -24.6094q0 -17.1201 13.9102 -28.8906q10.7002 -8.56055 24.6104 -8.56055
q17.1201 0 28.8896 12.8408q12.8408 13.9102 35.3105 42.7998q22.4707 28.8906 33.1709 40.6611q11.7695 14.9795 22.4697 38.5195q10.7002 23.541 13.9102 41.7305q1.07031 7.49023 1.07031 14.9805q0 36.3799 -15.5156 81.3213q-15.5146 44.9404 -36.915 73.8301z
M203.302 575.88q-7.49023 1.07031 -14.9795 1.07031q-37.4512 0 -74.9014 -8.56055q-38.5205 -8.55957 -65.2705 -42.7998t-26.75 -73.8311q0 -14.9805 3.20996 -28.8906q5.34961 -27.8203 19.7949 -64.2002q14.4453 -36.3809 29.4258 -60.9902
q7.48926 -11.7705 21.3994 -11.7705h4.28027q13.9102 1.07031 18.1904 14.9805q1.07031 4.2793 1.07031 7.49023q0 9.62988 -5.35059 16.0498q-22.4697 36.3799 -33.1699 77.041q-4.28027 9.62988 -4.28027 20.3301q0 12.8398 8.02539 27.2852
q8.02441 14.4453 19.7949 21.9346q32.1006 21.4004 71.6904 22.4707q14.9805 1.07031 31.0303 1.07031q46.0107 0 90.9512 -12.8408q27.8203 -6.41992 47.6152 -31.0303q19.7959 -24.6104 19.7959 -53.5q0 -2.14062 -1.07031 -4.28027q0 -56.7109 -6.41992 -112.351
q-5.35059 -48.1514 -10.7002 -93.0918q-9.62988 -72.7607 -27.8203 -144.451q-5.35059 -19.2598 -5.35059 -38.5205q0 -29.96 12.8408 -56.71q9.62988 -17.1201 22.4697 -4.28027q21.4004 20.3301 44.9404 36.3799q10.7002 6.4209 18.1904 18.7256t7.49023 24.0752
q0 16.0498 -10.7002 28.8906q-3.20996 5.34961 -7.49023 9.62988q-14.9805 14.9805 -14.9805 35.3105q0 7.49023 2.14062 14.9795l12.8398 96.3018q4.28027 32.0996 10.7002 95.2305q8.55957 55.6406 9.62988 111.281v4.28027q0 26.75 -13.375 59.3848
q-13.375 32.6357 -31.5654 51.8955q-16.0498 14.9805 -43.335 27.2861q-27.2852 12.3047 -49.7559 14.4443q-36.3799 4.28027 -72.7607 4.28027h-7.49023zM757.567 389.698l-8.56055 -43.8701q-5.34961 -20.3301 -17.1201 -37.4502q-18.1895 -21.4004 -18.1895 -49.2207
q0 -25.6807 14.9795 -44.9404q10.7002 -16.0508 23.541 -3.20996q14.9795 13.9102 27.2852 39.5898q12.3047 25.6807 14.4443 46.0107q6.4209 47.0801 6.4209 94.1611q0 37.4502 -3.20996 73.8301q-1.07031 5.35059 -4.28027 8.56055t-8.56055 3.20996h-1.06934h-217.213
h-1.06934q-25.6807 0 -46.0107 -18.1904t-21.4004 -44.9404q-5.34961 -27.8203 -14.9795 -117.701q-4.28027 -47.0801 -17.1211 -108.071q-8.55957 -44.9404 -16.0498 -105.931q-1.07031 -5.34961 -1.07031 -11.7705q0 -17.1201 7.49023 -32.0996
q2.14062 -6.41992 13.9102 -33.1709q1.07031 -8.55957 10.165 -8.55957q9.0957 0 11.2354 8.55957q24.6104 69.5508 32.1006 142.312q2.13965 32.1006 16.0498 196.882v17.1201q1.07031 11.7705 9.62988 19.2607q8.56055 7.49023 20.3301 7.49023h188.322v2.13965z
M639.866 545.92l44.9404 -41.7305q9.62988 -8.56055 19.2598 0l36.3809 44.9404q10.7002 11.7705 0 22.4697l-36.3809 34.2412q-10.6992 9.62988 -19.2598 0l-33.1699 -37.4512q-4.28027 -4.2793 -8.56055 0l-40.6602 36.3809q-3.20996 5.34961 -8.56055 5.34961
q-5.34961 0 -8.55957 -5.34961l-41.7305 -47.0811q-4.28027 -3.20996 -4.28027 -8.55957q0 -5.35059 4.28027 -8.56055q13.9102 -12.8398 41.7305 -37.4502q3.20996 -4.28027 7.49023 -4.28027q7.48926 0 10.7002 6.4209q13.9102 13.9102 36.3799 40.6602z" />
</svg>
