<?xml version="1.0" standalone="no"?>
<!DOCTYPE svg PUBLIC "-//W3C//DTD SVG 1.1//EN" "http://www.w3.org/Graphics/SVG/1.1/DTD/svg11.dtd" >
<svg xmlns="http://www.w3.org/2000/svg" xmlns:xlink="http://www.w3.org/1999/xlink" version="1.1" viewBox="-10 0 844 1000">
   <path fill="currentColor"
d="M372.24 440.601l-66 66l256.08 388.08q10.5596 15.8398 10.5596 35.6396q0 26.4004 -19.1396 45.54q-19.1406 19.1396 -45.54 19.1396h-1.32031h-2.63965h-1.32031q-14.5205 0 -30.3604 -8.58008t-23.7598 -20.46l-237.6 -364.319l-79.2002 79.1992v248.16
q0 27.7207 -19.1406 46.8604q-19.1396 19.1396 -46.8594 19.1396v0q-27.7197 0 -46.8604 -19.1396q-19.1396 -19.1396 -19.1396 -46.8604v-858q0 -27.7197 19.1396 -46.8594q19.1406 -19.1406 46.8604 -19.1406v0q27.7197 0 46.8594 19.1406
q19.1406 19.1396 19.1406 46.8594v429l467.28 -475.2q19.7998 -19.7998 47.5195 -19.7998v0q27.7197 0 46.8604 19.1406q19.1396 19.1396 19.1396 46.8594q0 27.7207 -19.7998 46.2002l-234.96 237.6l355.08 539.881q10.5596 15.8398 10.5596 35.6396
q0 26.4004 -19.1396 45.54q-19.1406 19.1396 -45.54 19.1396h-1.32031v0q-14.5195 0 -30.3594 -8.58008q-15.8408 -8.58008 -23.7607 -21.7793z" />
</svg>
