<?xml version="1.0" standalone="no"?>
<!DOCTYPE svg PUBLIC "-//W3C//DTD SVG 1.1//EN" "http://www.w3.org/Graphics/SVG/1.1/DTD/svg11.dtd" >
<svg xmlns="http://www.w3.org/2000/svg" xmlns:xlink="http://www.w3.org/1999/xlink" version="1.1" viewBox="-10 0 1129 1000">
   <path fill="currentColor"
d="M641.707 153.136l-68.2666 68.2666l264.874 401.408q10.9229 16.3838 10.9229 36.8643q0 27.3066 -19.7969 47.1035q-19.7979 19.7979 -47.1045 19.7979h-1.36523h-2.73047h-1.36523q-15.0186 0 -31.4033 -8.875q-16.3838 -8.87402 -24.5752 -21.1621l-245.761 -376.832
l-81.9199 81.9199v256.683q0 28.6719 -19.7969 48.4688q-19.7979 19.7979 -48.4697 19.7979v0q-28.6719 0 -48.4688 -19.7979q-19.7979 -19.7969 -19.7979 -48.4688v-887.467q0 -28.6719 19.7979 -48.4697q19.7969 -19.7969 48.4688 -19.7969v0q28.6719 0 48.4697 19.7969
q19.7969 19.7979 19.7969 48.4697v443.733l483.328 -491.521q20.4805 -20.4795 49.1523 -20.4795v0q28.6719 0 48.4688 19.7969q19.7979 19.7979 19.7979 48.4697t-20.4805 47.7861l-243.029 245.761l367.274 558.421q10.9229 16.3838 10.9229 36.8643
q0 27.3066 -19.7969 47.1035q-19.7979 19.7979 -47.1045 19.7979h-1.36523v0q-15.0186 0 -31.4023 -8.875q-16.3838 -8.87402 -24.5762 -22.5283z" />
</svg>
