<?xml version="1.0" standalone="no"?>
<!DOCTYPE svg PUBLIC "-//W3C//DTD SVG 1.1//EN" "http://www.w3.org/Graphics/SVG/1.1/DTD/svg11.dtd" >
<svg xmlns="http://www.w3.org/2000/svg" xmlns:xlink="http://www.w3.org/1999/xlink" version="1.1" viewBox="-10 0 1203 1000">
   <path fill="currentColor"
d="M228.011 -235.984q0 -46.4209 7.50879 -53.9307q7.50977 -7.50879 53.9307 -7.50879h831.488q46.4219 0 53.9307 7.50879q7.50977 7.50977 7.50977 53.9307q0 46.4219 -7.50977 54.6133q-7.50879 8.19238 -53.9307 8.19238h-831.488q-46.4209 0 -53.9307 -8.19238
q-7.50879 -8.19141 -7.50879 -54.6133zM767.317 2.94922v660.821q0 25.9414 -18.4316 44.373q-18.4326 18.4326 -44.374 18.4326t-43.6904 -18.4326q-17.749 -18.4316 -17.749 -44.373v-660.821h124.245zM228.011 -50.2988q0 -46.4209 7.50879 -53.9307
q7.50977 -7.50879 53.9307 -7.50879h831.488q46.4219 0 53.9307 7.50879q7.50977 7.50977 7.50977 53.9307q0 46.4219 -7.50977 53.9307q-7.50879 7.50977 -53.9307 7.50977h-831.488q-46.4209 0 -53.9307 -7.50977q-7.50879 -7.50879 -7.50879 -53.9307z" />
</svg>
