<?xml version="1.0" standalone="no"?>
<!DOCTYPE svg PUBLIC "-//W3C//DTD SVG 1.1//EN" "http://www.w3.org/Graphics/SVG/1.1/DTD/svg11.dtd" >
<svg xmlns="http://www.w3.org/2000/svg" xmlns:xlink="http://www.w3.org/1999/xlink" version="1.1" viewBox="-10 0 943 1000">
   <path fill="currentColor"
d="M0 64.4004q0 -44.8799 7.25977 -52.1406q7.25977 -7.25977 52.1396 -7.25977h803.88q44.8799 0 52.1406 7.25977q7.25977 7.26074 7.25977 52.1406t-7.25977 52.7998q-7.26074 7.91992 -52.1406 7.91992h-803.88q-44.8799 0 -52.1396 -7.91992t-7.25977 -52.7998z
M521.399 295.4v638.88q0 25.0801 -17.8203 42.9004q-17.8193 17.8193 -42.8994 17.8193t-42.2402 -17.8193q-17.1602 -17.8203 -17.1602 -42.9004v-638.88h120.12zM0 243.92q0 -44.8799 7.25977 -52.1396t52.1396 -7.25977h803.88q44.8799 0 52.1406 7.25977
q7.25977 7.25977 7.25977 52.1396t-7.25977 52.1406q-7.26074 7.25977 -52.1406 7.25977h-803.88q-44.8799 0 -52.1396 -7.25977q-7.25977 -7.26074 -7.25977 -52.1406z" />
</svg>
