<?xml version="1.0" standalone="no"?>
<!DOCTYPE svg PUBLIC "-//W3C//DTD SVG 1.1//EN" "http://www.w3.org/Graphics/SVG/1.1/DTD/svg11.dtd" >
<svg xmlns="http://www.w3.org/2000/svg" xmlns:xlink="http://www.w3.org/1999/xlink" version="1.1" viewBox="-10 0 918 1000">
   <path fill="currentColor"
d="M811.323 88.3818q35.7354 34.4121 60.8828 93.9707t25.1475 109.854v9.26465v10.5879q0 50.2939 -25.1475 109.853q-25.1475 59.5596 -60.8828 95.2949q-37.0586 34.4111 -98.6025 58.8965t-113.162 24.4854h-11.9111h-279.265v141.618h354.705
q18.5303 0 31.1035 12.5732t12.5732 31.1025t-12.5732 31.7646t-31.1035 13.2354h-354.705v107.206q-1.32422 23.8232 -18.5293 40.3682q-17.2061 16.5439 -41.0303 16.5439q-23.8232 0 -41.0293 -16.5439q-17.2061 -16.5449 -17.2061 -40.3682v-107.206h-146.911
q-17.2061 0 -30.4414 -13.2354t-13.2354 -31.7646t13.2354 -31.1025t30.4414 -12.5732h146.911v-141.618h-146.911q-17.2061 0 -30.4414 -13.2354t-13.2354 -31.7646v-15.8818q0 -17.2061 13.2354 -30.4414t30.4414 -13.2354h146.911v-447.354q0 -17.2051 12.5742 -30.4404
q12.5732 -13.2354 31.1025 -13.2354h353.383h11.9111q50.2949 0 112.5 24.4854q62.2061 24.4854 99.2646 58.8965zM718.677 443.088q22.5 -25.1475 39.0439 -66.1768t16.5439 -74.7793t-16.5439 -74.1172q-16.5439 -40.3682 -39.0439 -65.5146
q-25.1475 -22.5 -65.5146 -37.7207q-40.3682 -15.2207 -72.1328 -15.2207h-7.94141h-264.705v386.471h264.705h7.94141q31.7646 0 72.1328 -15.2207q40.3672 -15.2207 65.5146 -37.7207z" />
</svg>
