<?xml version="1.0" standalone="no"?>
<!DOCTYPE svg PUBLIC "-//W3C//DTD SVG 1.1//EN" "http://www.w3.org/Graphics/SVG/1.1/DTD/svg11.dtd" >
<svg xmlns="http://www.w3.org/2000/svg" xmlns:xlink="http://www.w3.org/1999/xlink" version="1.1" viewBox="-10 0 1177 1000">
   <path fill="currentColor"
d="M1067.81 -212.851q36.9629 35.5938 62.9727 97.1982q26.0107 61.6045 26.0107 113.626v9.58203v10.9521q0 52.0215 -26.0107 113.626q-26.0098 61.6045 -62.9727 98.5664q-38.332 35.5938 -101.989 60.9199q-63.6582 25.3262 -117.048 25.3262h-12.3213h-288.855v146.481
h366.888q19.166 0 32.1709 13.0059q13.0059 13.0049 13.0059 32.1709t-13.0059 32.8555q-13.0049 13.6895 -32.1709 13.6895h-366.888v110.888q-1.36914 24.6416 -19.166 41.7539t-42.4385 17.1123t-42.4385 -17.1123t-17.7969 -41.7539v-110.888h-151.957
q-17.7969 0 -31.4863 -13.6895q-13.6904 -13.6895 -13.6904 -32.8555t13.6904 -32.1709q13.6895 -13.0059 31.4863 -13.0059h151.957v-146.481h-151.957q-17.7969 0 -31.4863 -13.6895q-13.6904 -13.6904 -13.6904 -32.8555v-16.4277q0 -17.7969 13.6904 -31.4873
q13.6895 -13.6895 31.4863 -13.6895h151.957v-462.717q0 -17.7969 13.0059 -31.4863q13.0049 -13.6904 32.1709 -13.6904h365.519h12.3213q52.0205 0 116.363 25.3262q64.3418 25.3262 102.674 60.9199zM971.979 154.037q23.2725 -26.0107 40.3848 -68.4492
t17.1123 -77.3477q0 -34.9082 -17.1123 -76.6631q-17.1123 -41.7539 -40.3848 -67.7646q-26.0107 -23.2725 -67.7646 -39.0156t-74.6094 -15.7432h-8.21387h-273.797v399.743h273.797h8.21387q32.8555 0 74.6094 -15.7432t67.7646 -39.0166z" />
</svg>
