<?xml version="1.0" standalone="no"?>
<!DOCTYPE svg PUBLIC "-//W3C//DTD SVG 1.1//EN" "http://www.w3.org/Graphics/SVG/1.1/DTD/svg11.dtd" >
<svg xmlns="http://www.w3.org/2000/svg" xmlns:xlink="http://www.w3.org/1999/xlink" version="1.1" viewBox="-10 0 1010 1000">
   <path fill="currentColor"
d="M445.656 278.73h-148.552v475.781q0 21.8154 -15.583 37.3984q-15.582 15.582 -37.3975 15.582q-21.8154 -1.03906 -36.8779 -16.6211q-15.0635 -15.583 -15.0635 -36.3594v-475.781h-148.552q-18.6982 0 -31.165 -12.9854q-12.4658 -12.9854 -12.4658 -30.6455
t12.4658 -30.6455q12.4668 -12.9854 31.165 -12.9854h402.025q17.6602 0 30.6455 12.9854t12.9854 30.6455t-12.9854 30.6455t-30.6455 12.9854zM530.84 738.93v-476.82v-1.03906q0 -28.0488 20.2568 -48.3057q20.2578 -20.2568 48.3057 -21.2959h112.193h7.27148
q31.165 0 71.1592 10.9082q39.9951 10.9072 67.0049 25.4512q27.0088 15.582 55.5771 45.708q28.5674 30.126 42.0723 58.1738q14.543 29.0879 24.9316 73.7568q10.3877 44.6699 10.3877 76.873v2.07812v31.1641v5.19434q0 33.2422 -10.3877 76.873
q-10.3887 43.6309 -24.9316 72.7178q-14.5439 27.0098 -43.6309 57.1357t-56.0967 45.708q-27.0098 14.543 -69.082 24.9316t-74.2754 10.3887h-4.15527h-106.999q-28.0488 0 -48.8252 -20.2578q-20.7764 -20.2568 -20.7764 -49.3438zM637.839 349.37v302.298
q0 29.0879 20.7764 49.3447t48.8252 20.2568q5.19336 1.03906 10.3877 1.03906q30.126 0 64.9268 -15.583q34.8008 -15.582 54.5381 -37.3975q19.7383 -27.0088 33.7617 -68.5625q14.0244 -41.5527 14.0244 -74.7949v-8.31055v-33.2422v-9.34961
q0 -32.2041 -12.4658 -74.2764t-31.165 -70.1201q-18.6982 -21.8154 -52.9795 -37.3984q-34.2812 -15.582 -63.3691 -15.582q-6.23242 0 -13.5039 1.03906h-4.15527q-28.0488 0 -48.8252 20.2568t-20.7764 49.3438v1.03906z" />
</svg>
