<?xml version="1.0" standalone="no"?>
<!DOCTYPE svg PUBLIC "-//W3C//DTD SVG 1.1//EN" "http://www.w3.org/Graphics/SVG/1.1/DTD/svg11.dtd" >
<svg xmlns="http://www.w3.org/2000/svg" xmlns:xlink="http://www.w3.org/1999/xlink" version="1.1" viewBox="-10 0 1069 1000">
   <path fill="currentColor"
d="M485.675 89.5342h-153.654v492.122q0 22.5645 -16.1172 38.6816t-38.6816 16.1172q-22.5645 -1.07422 -38.1455 -17.1914q-15.5801 -16.1182 -15.5801 -37.6074v-492.122h-153.653q-19.3408 0 -32.2354 -13.4316q-12.8936 -13.4307 -12.8936 -31.6973t12.8936 -31.6982
q12.8945 -13.4307 32.2354 -13.4307h415.832q18.2666 0 31.6973 13.4307q13.4316 13.4316 13.4316 31.6982t-13.4316 31.6973q-13.4307 13.4316 -31.6973 13.4316zM573.784 565.538v-493.196v-1.07422q0 -29.0117 20.9521 -49.9639q20.9531 -20.9531 49.9648 -22.0273
h116.046h7.52148q32.2354 0 73.6035 11.2822t69.3057 26.3252q27.9365 16.1172 57.4854 47.2773q29.5488 31.1611 43.5176 60.1729q15.043 30.0859 25.7881 76.2891q10.7451 46.2041 10.7451 79.5137v2.14844v32.2354v5.37207q0 34.3848 -10.7451 79.5137t-25.7881 75.2148
q-15.043 27.9375 -45.1289 59.0977t-58.0234 47.2783q-27.9375 15.043 -71.4541 25.7881q-43.5176 10.7451 -76.8271 10.7451h-4.29785h-110.674q-29.0117 0 -50.502 -20.9531q-21.4893 -20.9531 -21.4893 -51.0391zM684.457 162.601v312.68q0 30.0859 21.4902 51.0391
q21.4902 20.9521 50.502 20.9521q5.37207 1.0752 10.7451 1.0752q31.1602 0 67.1562 -16.1182q35.9961 -16.1172 56.4111 -38.6816q20.416 -27.9375 34.9219 -70.917q14.5049 -42.9805 14.5049 -77.3643v-8.5957v-34.3848v-9.66992q0 -33.3096 -12.8936 -76.8271
q-12.8945 -43.5176 -32.2354 -72.5293q-19.3408 -22.5645 -54.7998 -38.6816q-35.458 -16.1172 -65.5439 -16.1172q-6.44727 0 -13.9688 1.07422h-4.29785q-29.0117 0 -50.502 20.9531q-21.4902 20.9521 -21.4902 51.0381v1.0752z" />
</svg>
