<?xml version="1.0" standalone="no"?>
<!DOCTYPE svg PUBLIC "-//W3C//DTD SVG 1.1//EN" "http://www.w3.org/Graphics/SVG/1.1/DTD/svg11.dtd" >
<svg xmlns="http://www.w3.org/2000/svg" xmlns:xlink="http://www.w3.org/1999/xlink" version="1.1" viewBox="-11 0 1044 1000">
   <path fill="currentColor"
d="M995.819 576.232q11.2695 12.2949 18.9531 32.2725t7.68359 36.3701q0 16.3916 -8.19531 36.8818q-8.19629 20.4902 -18.4414 32.7842l-97.3281 96.3037q-37.9062 37.9062 -105.524 37.3945q-67.6172 -0.512695 -149.065 -33.8086q-81.4482 -33.2969 -175.702 -99.377
q-94.2549 -66.0811 -182.362 -154.188q-70.6904 -70.6904 -127.551 -145.992q-56.8604 -75.3008 -92.7178 -144.455t-53.2744 -131.137q-17.416 -61.9824 -11.2695 -111.671q6.14746 -49.6885 34.833 -79.3994l96.3037 -97.3281q12.2939 -11.2695 32.7842 -18.9531
t36.8818 -7.68359q16.3926 0 36.3701 7.68359q19.9785 7.68359 32.2725 18.9531l143.431 143.431q11.2695 11.2695 19.9775 31.248q8.70801 19.9775 8.70801 36.3701q0 28.6855 -18.9531 54.8105t-45.5898 35.3457q-26.6377 8.19629 -45.5908 34.3203
q-18.9531 26.125 -18.9531 53.7871q0 12.2939 3.07324 24.5879q28.6865 80.9355 106.549 158.799q77.8623 77.8623 158.798 106.548q10.2451 2.04883 21.5146 2.04883q27.6621 0 54.2988 -18.4404q26.6367 -18.4414 36.8818 -45.0781q9.2207 -26.6377 35.3457 -45.5908
t54.8115 -18.9531q16.3916 0 36.3691 8.70801q19.9785 8.70801 31.248 19.9775z" />
</svg>
