<?xml version="1.0" standalone="no"?>
<!DOCTYPE svg PUBLIC "-//W3C//DTD SVG 1.1//EN" "http://www.w3.org/Graphics/SVG/1.1/DTD/svg11.dtd" >
<svg xmlns="http://www.w3.org/2000/svg" xmlns:xlink="http://www.w3.org/1999/xlink" version="1.1" viewBox="-11 0 1011 1000">
   <path fill="currentColor"
d="M963.314 732.019q10.8955 11.8857 18.3242 31.2002t7.42871 35.1621q0 15.8486 -7.92383 35.6582t-17.8291 31.6953l-94.0967 93.1064q-36.6475 36.6475 -102.02 36.1523q-65.373 -0.495117 -144.116 -32.6855q-78.7441 -32.1914 -169.869 -96.0781t-176.307 -149.068
q-68.3438 -68.3438 -123.316 -141.145q-54.9717 -72.8008 -89.6387 -139.659q-34.667 -66.8574 -51.5059 -126.782q-16.8379 -59.9248 -10.8955 -107.963q5.94336 -48.0391 33.6768 -76.7637l93.1064 -94.0957q11.8857 -10.8955 31.6953 -18.3242t35.6572 -7.42871
t35.1631 7.42871q19.3145 7.42871 31.2002 18.3242l138.668 138.668q10.8955 10.8955 19.3145 30.21t8.41895 35.1621q0 27.7344 -18.3232 52.9912q-18.3242 25.2578 -44.0771 34.1719q-25.7529 7.92383 -44.0771 33.1816q-18.3232 25.2578 -18.3232 52.001
q0 11.8857 2.9707 23.7715q27.7344 78.248 103.012 153.525q75.2764 75.2773 153.525 103.011q9.9043 1.98145 20.7998 1.98145q26.7432 0 52.4961 -17.8291t35.6582 -43.5811q8.91406 -25.7529 34.1719 -44.0771q25.2568 -18.3242 52.9902 -18.3242
q15.8486 0 35.1631 8.41895q19.3145 8.41992 30.21 19.3154z" />
</svg>
