<?xml version="1.0" standalone="no"?>
<!DOCTYPE svg PUBLIC "-//W3C//DTD SVG 1.1//EN" "http://www.w3.org/Graphics/SVG/1.1/DTD/svg11.dtd" >
<svg xmlns="http://www.w3.org/2000/svg" xmlns:xlink="http://www.w3.org/1999/xlink" version="1.1" viewBox="-10 0 1010 1000">
   <path fill="currentColor"
d="M123.75 159.439v-123.75q0 -12.8701 8.91016 -21.7793q8.91016 -8.91016 21.7803 -8.91016q12.8691 0 22.2744 8.91016q9.40527 8.90918 9.40527 21.7793v123.75q0 12.8701 -9.40527 21.7803t-22.2744 8.91016q-12.8701 0 -21.7803 -8.91016t-8.91016 -21.7803z
M649.44 190.13q-12.8701 0 -21.7803 -8.91016t-8.91016 -21.7803v-123.75q0 -12.8701 8.91016 -21.7793q8.91016 -8.91016 21.7803 -8.91016q12.8691 0 22.2744 8.91016q9.40527 8.90918 9.40527 21.7793v123.75q0 12.8701 -9.40527 21.7803t-22.2744 8.91016zM990 747.5
q0 102.96 -72.2695 175.229q-72.2705 72.2705 -175.23 72.2705t-175.23 -72.2705q-72.2695 -72.2695 -72.2695 -175.229t72.2695 -175.23q72.2705 -72.2695 175.23 -72.2695t175.23 72.2695q72.2695 72.2705 72.2695 175.23zM928.62 747.5q0 -77.2207 -54.4502 -131.176
q-54.4502 -53.9541 -131.67 -53.9541t-131.67 53.9541q-54.4502 53.9551 -54.4502 131.176q0 77.2197 54.4502 131.175t131.67 53.9551t131.67 -53.9551t54.4502 -131.175zM247.5 376.25v123.75h-123.75v-123.75h123.75zM123.75 685.13v-122.76h123.75v122.76h-123.75z
M308.88 500v-123.75h124.74v123.75h-124.74zM308.88 685.13v-122.76h124.74v122.76h-124.74zM61.3799 741.56q0 5.94043 5.94043 5.94043h366.3v62.3701h-366.3q-27.7207 0 -47.5205 -20.2959q-19.7998 -20.2949 -19.7998 -48.0146v-544.5q0 -28.71 19.7998 -48.5098
t47.5205 -19.7998h25.7393v30.6895q0 25.7402 17.8203 44.0557q17.8203 18.3145 43.5605 18.3145q25.7393 0 44.0547 -18.3145q18.3145 -18.3154 18.3145 -44.0557v-30.6895h371.25v30.6895q0 25.7402 17.8203 44.0557q17.8203 18.3145 43.5605 18.3145
q25.7393 0 44.0547 -18.3145q18.3145 -18.3154 18.3145 -44.0557v-30.6895h25.7402q27.7197 0 47.0254 19.7998q19.3047 19.7998 19.3047 48.5098v240.57h-61.3799v-122.76h-681.12v426.689zM618.75 500h-123.75v-123.75h123.75v123.75zM835.56 747.5
q12.8701 0 21.7803 8.91016q8.91016 8.90918 8.91016 21.7793t-8.91016 22.2754t-21.7803 9.40527h-123.75q-12.8691 0 -21.7793 -9.40527t-8.91016 -22.2754v-123.75q0 -12.8701 8.91016 -21.7793q8.91016 -8.91016 21.7793 -8.91016q12.8701 0 21.7803 8.91016
q8.91016 8.90918 8.91016 21.7793v93.0605h93.0596z" />
</svg>
