<?xml version="1.0" standalone="no"?>
<!DOCTYPE svg PUBLIC "-//W3C//DTD SVG 1.1//EN" "http://www.w3.org/Graphics/SVG/1.1/DTD/svg11.dtd" >
<svg xmlns="http://www.w3.org/2000/svg" xmlns:xlink="http://www.w3.org/1999/xlink" version="1.1" viewBox="-10 0 1044 1000">
   <path fill="currentColor"
d="M128 -15.8242v-128q0 -13.3115 9.21582 -22.5273q9.21582 -9.2168 22.5283 -9.2168q13.3115 0 23.04 9.2168q9.72754 9.21582 9.72754 22.5273v128q0 13.3125 -9.72754 22.5283q-9.72852 9.21582 -23.04 9.21582q-13.3125 0 -22.5283 -9.21582t-9.21582 -22.5283z
M671.744 15.9199q-13.3125 0 -22.5283 -9.21582t-9.21582 -22.5283v-128q0 -13.3115 9.21582 -22.5273q9.21582 -9.2168 22.5283 -9.2168q13.3115 0 23.04 9.2168q9.72754 9.21582 9.72754 22.5273v128q0 13.3125 -9.72754 22.5283q-9.72852 9.21582 -23.04 9.21582z
M1024 592.432q0 106.496 -74.752 181.248t-181.248 74.752t-181.248 -74.752t-74.752 -181.248t74.752 -181.248t181.248 -74.752t181.248 74.752t74.752 181.248zM960.512 592.432q0 -79.8721 -56.3193 -135.68q-56.3203 -55.8076 -136.192 -55.8076t-136.192 55.8076
q-56.3193 55.8076 -56.3193 135.68t56.3193 135.681q56.3203 55.8076 136.192 55.8076t136.192 -55.8076q56.3193 -55.8086 56.3193 -135.681zM256 208.432v128h-128v-128h128zM128 527.92v-126.976h128v126.976h-128zM319.488 336.432v-128h129.023v128h-129.023z
M319.488 527.92v-126.976h129.023v126.976h-129.023zM63.4883 586.288q0 6.14355 6.14355 6.14355h378.88v64.5127h-378.88q-28.6719 0 -49.1514 -20.9922q-20.4805 -20.9922 -20.4805 -49.6641v-563.2q0 -29.6963 20.4805 -50.1758q20.4795 -20.4805 49.1514 -20.4805
h26.624v31.7441q0 26.624 18.4326 45.5684q18.4316 18.9443 45.0557 18.9443t45.5674 -18.9443q18.9443 -18.9443 18.9443 -45.5684v-31.7441h384v31.7441q0 26.624 18.4326 45.5684q18.4316 18.9443 45.0557 18.9443t45.5674 -18.9443q18.9443 -18.9443 18.9443 -45.5684
v-31.7441h26.624q28.6719 0 48.6396 20.4805q19.9688 20.4795 19.9688 50.1758v248.832h-63.4883v-126.976h-704.512v441.344zM640 336.432h-128v-128h128v128zM864.256 592.432q13.3125 0 22.5283 9.2168q9.21582 9.21582 9.21582 22.5273q0 13.3125 -9.21582 23.04
q-9.21582 9.72852 -22.5283 9.72852h-128q-13.3115 0 -22.5283 -9.72852q-9.21582 -9.72754 -9.21582 -23.04v-128q0 -13.3115 9.21582 -22.5273q9.2168 -9.2168 22.5283 -9.2168q13.3125 0 22.5283 9.2168q9.21582 9.21582 9.21582 22.5273v96.2559h96.2559z" />
</svg>
