<?xml version="1.0" standalone="no"?>
<!DOCTYPE svg PUBLIC "-//W3C//DTD SVG 1.1//EN" "http://www.w3.org/Graphics/SVG/1.1/DTD/svg11.dtd" >
<svg xmlns="http://www.w3.org/2000/svg" xmlns:xlink="http://www.w3.org/1999/xlink" version="1.1" viewBox="-10 0 1044 1000">
   <path fill="currentColor"
d="M966.656 611.888q0 5.12012 -3.07227 8.19238t-8.19238 3.07227h-428.031v-277.504h111.615q5.12012 7.16797 13.3125 7.16797h181.248q9.21582 0 13.3115 -7.16797h119.809v266.239zM635.904 501.296v-121.855q0 -6.14453 -4.6084 -10.752
q-4.60742 -4.6084 -11.2637 -4.6084t-10.752 4.6084q-4.09668 4.60742 -4.09668 10.752v121.855q0 6.14453 4.09668 10.752q4.0957 4.6084 10.752 4.6084t11.2637 -4.6084q4.6084 -4.60742 4.6084 -10.752zM833.536 556.592q6.14355 0 10.752 -4.60742
q4.6084 -4.6084 4.6084 -11.2646q0 -6.65527 -4.6084 -11.2637t-10.752 -4.6084h-181.248q-6.14453 0 -10.752 4.6084q-4.6084 4.6084 -4.6084 11.2637q0 6.65625 4.6084 11.2646q4.60742 4.60742 10.752 4.60742h181.248zM68.6084 623.152q-5.12012 0 -8.19238 -3.07227
t-3.07227 -8.19238v-266.239h84.9922v150.527q0 6.14453 4.6084 10.752q4.60742 4.6084 10.752 4.6084q6.14355 0 10.752 -4.6084q4.60742 -4.60742 4.60742 -10.752v-150.527h214.017v150.527q0 6.14453 4.60742 10.752q4.6084 4.6084 11.2646 4.6084
q6.65527 0 10.752 -4.6084q4.0957 -4.60742 4.0957 -10.752v-150.527h78.8477v277.504h-428.031zM189.44 522.8q-6.14453 0 -10.752 4.6084q-4.6084 4.60742 -4.6084 11.2637t4.6084 11.2637q4.60742 4.6084 10.752 4.6084h181.248q6.14355 0 10.752 -4.6084
q4.60742 -4.60742 4.60742 -11.2637t-4.60742 -11.2637q-4.6084 -4.6084 -10.752 -4.6084h-181.248zM652.288 322.096q-8.19238 0 -13.3125 8.19238h-111.615v-280.576h428.031q5.12012 0 8.19238 3.07227t3.07227 8.19141v269.312h-119.809
q-4.0957 -8.19238 -13.3115 -8.19238h-181.248zM851.968 173.616v121.855q0 6.14453 4.6084 10.752q4.60742 4.6084 11.2637 4.6084t11.2637 -4.6084q4.6084 -4.60742 4.6084 -10.752v-121.855q0 -7.16797 -4.6084 -11.2646q-4.60742 -4.0957 -11.2637 -4.0957
t-11.2637 4.0957q-4.6084 4.09668 -4.6084 11.2646zM652.288 118.32q-6.14453 0 -10.752 4.60742q-4.6084 4.6084 -4.6084 11.2646q0 6.65527 4.6084 11.2637q4.60742 4.6084 10.752 4.6084h181.248q6.14355 0 10.752 -4.6084t4.6084 -11.2637q0 -6.65625 -4.6084 -11.2646
q-4.6084 -4.60742 -10.752 -4.60742h-181.248zM142.336 176.688v153.6h-84.9922v-269.312q0 -5.11914 3.07227 -8.19141t8.19238 -3.07227h428.031v280.576h-78.8477v-153.6q0 -6.14453 -4.0957 -10.7529q-4.09668 -4.60742 -10.752 -4.60742q-6.65625 0 -11.2646 4.60742
q-4.60742 4.6084 -4.60742 10.7529v153.6h-214.017v-153.6q0 -6.14453 -4.60742 -10.7529q-4.6084 -4.60742 -10.752 -4.60742q-6.14453 0 -10.752 4.60742q-4.6084 4.6084 -4.6084 10.7529zM189.44 118.32q-6.14453 0 -10.752 4.60742q-4.6084 4.6084 -4.6084 11.2646
q0 6.65527 4.6084 11.2637q4.60742 4.6084 10.752 4.6084h181.248q6.14355 0 10.752 -4.6084q4.60742 -4.6084 4.60742 -11.2637q0 -6.65625 -4.60742 -11.2646q-4.6084 -4.60742 -10.752 -4.60742h-181.248zM996.352 -7.63184q11.2646 0 19.4561 8.19141
q8.19238 8.19238 8.19238 20.4805v630.784q0 12.2881 -8.19238 20.4795q-8.19141 8.19238 -19.4561 8.19238h-968.703q-11.2646 0 -19.4561 -8.19238q-8.19238 -8.19141 -8.19238 -20.4795v-630.784q0 -12.2881 8.19238 -20.4805q8.19141 -8.19141 19.4561 -8.19141h968.703
zM993.28 649.776v-626.688h-962.561v626.688h962.561z" />
</svg>
