<?xml version="1.0" standalone="no"?>
<!DOCTYPE svg PUBLIC "-//W3C//DTD SVG 1.1//EN" "http://www.w3.org/Graphics/SVG/1.1/DTD/svg11.dtd" >
<svg xmlns="http://www.w3.org/2000/svg" xmlns:xlink="http://www.w3.org/1999/xlink" version="1.1" viewBox="-10 0 1010 1000">
   <path fill="currentColor"
d="M934.56 766.311q0 4.94922 -2.96973 7.91992q-2.96973 2.96875 -7.91992 2.96875h-413.82v-268.289h107.91q4.9502 6.92969 12.8701 6.92969h175.23q8.90918 0 12.8701 -6.92969h115.829v257.4zM614.79 659.391v-117.811q0 -5.93945 -4.45508 -10.3945t-10.8896 -4.45508
q-6.43555 0 -10.3955 4.45508t-3.95996 10.3945v117.811q0 5.93945 3.95996 10.3945t10.3955 4.45508q6.43457 0 10.8896 -4.45508t4.45508 -10.3945zM805.86 712.85q5.93945 0 10.3945 -4.45508t4.45508 -10.8887q0 -6.43555 -4.45508 -10.8906t-10.3945 -4.45508h-175.23
q-5.93945 0 -10.3945 4.45508t-4.45508 10.8906q0 6.43359 4.45508 10.8887t10.3945 4.45508h175.23zM66.3301 777.199q-4.9502 0 -7.91992 -2.96875q-2.96973 -2.9707 -2.96973 -7.91992v-257.4h82.1699v145.529q0 5.94141 4.45508 10.3965q4.4541 4.45508 10.3945 4.45508
t10.3955 -4.45508q4.4541 -4.45508 4.4541 -10.3965v-145.529h206.91v145.529q0 5.94141 4.45508 10.3965t10.8906 4.45508q6.43457 0 10.3945 -4.45508t3.95996 -10.3965v-145.529h76.2305v268.289h-413.82zM183.15 680.18q-5.94043 0 -10.3955 4.45508t-4.45508 10.8906
t4.45508 10.8906t10.3955 4.45508h175.229q5.94043 0 10.3955 -4.45508t4.45508 -10.8906t-4.45508 -10.8906t-10.3955 -4.45508h-175.229zM630.63 486.141q-7.91992 0 -12.8701 7.91992h-107.91v-271.26h413.82q4.9502 0 7.91992 2.96875q2.96973 2.9707 2.96973 7.91992
v260.371h-115.829q-3.96094 -7.91992 -12.8701 -7.91992h-175.23zM823.68 342.59v117.811q0 5.93945 4.45508 10.3945t10.8906 4.45508q6.43457 0 10.8896 -4.45508t4.45508 -10.3945v-117.811q0 -6.92969 -4.45508 -10.8906q-4.45508 -3.95898 -10.8896 -3.95898
q-6.43555 0 -10.8906 3.95898q-4.45508 3.96094 -4.45508 10.8906zM630.63 289.131q-5.93945 0 -10.3945 4.45508t-4.45508 10.8887q0 6.43555 4.45508 10.8906t10.3945 4.45508h175.23q5.93945 0 10.3945 -4.45508t4.45508 -10.8906q0 -6.43359 -4.45508 -10.8887
t-10.3945 -4.45508h-175.23zM137.61 345.561v148.5h-82.1699v-260.371q0 -4.94922 2.96973 -7.91992q2.96973 -2.96875 7.91992 -2.96875h413.82v271.26h-76.2305v-148.5q0 -5.93945 -3.95996 -10.3945t-10.3945 -4.45508q-6.43555 0 -10.8906 4.45508t-4.45508 10.3945
v148.5h-206.91v-148.5q0 -5.93945 -4.4541 -10.3945q-4.45508 -4.45508 -10.3955 -4.45508t-10.3945 4.45508q-4.45508 4.45508 -4.45508 10.3945zM183.15 289.131q-5.94043 0 -10.3955 4.45508t-4.45508 10.8887q0 6.43555 4.45508 10.8906t10.3955 4.45508h175.229
q5.94043 0 10.3955 -4.45508t4.45508 -10.8906q0 -6.43359 -4.45508 -10.8887t-10.3955 -4.45508h-175.229zM963.27 167.359q10.8906 0 18.8105 7.91992t7.91992 19.8008v609.84q0 11.8809 -7.91992 19.8008t-18.8105 7.91992h-936.539q-10.8906 0 -18.8105 -7.91992
t-7.91992 -19.8008v-609.84q0 -11.8809 7.91992 -19.8008t18.8105 -7.91992h936.539zM960.3 802.939v-605.879h-930.6v605.879h930.6z" />
</svg>
