<?xml version="1.0" standalone="no"?>
<!DOCTYPE svg PUBLIC "-//W3C//DTD SVG 1.1//EN" "http://www.w3.org/Graphics/SVG/1.1/DTD/svg11.dtd" >
<svg xmlns="http://www.w3.org/2000/svg" xmlns:xlink="http://www.w3.org/1999/xlink" version="1.1" viewBox="-10 0 1050 1000">
   <path fill="currentColor"
d="M5.17188 230.363q0 -2.06836 1.55176 -7.24023q1.55078 -5.17188 7.75684 -19.1348q6.20605 -13.9639 15.5156 -26.8936q9.30859 -12.9287 28.4443 -30.5127t43.96 -31.0303q35.167 -20.6875 100.331 -36.2021q65.1631 -15.5156 151.014 -23.2725
q85.8506 -7.75781 190.837 6.72266q104.985 14.4814 199.111 52.752q243.07 99.2969 222.384 100.331q-12.4121 -4.1377 -34.6514 -10.8604q-22.2383 -6.72363 -92.0557 -23.79q-69.8184 -17.0664 -138.603 -28.9619q-68.7842 -11.8945 -164.978 -19.1348
q-96.1943 -7.24121 -182.562 -2.06934q-86.3682 5.17188 -180.493 29.9961t-167.563 69.3008zM5.17188 292.424q73.4385 45.5117 166.529 70.3359t182.562 28.9619q89.4707 4.13672 180.493 -1.03516q91.0215 -5.1709 167.563 -19.6523q76.541 -14.4805 136.533 -28.4443
t93.0908 -25.3418l34.1338 -10.3428l2.06836 1.03418q-10.3438 12.4121 -224.452 99.2969q-94.126 38.2705 -199.111 52.752q-104.986 14.4805 -190.837 7.24023t-151.014 -23.2734q-65.1641 -16.0322 -100.331 -36.7188q-39.3057 -21.7207 -63.6123 -50.6826
q-24.3076 -28.9619 -28.4443 -46.5459zM964.008 246.913h-954.698q6.20605 -4.1377 18.1006 -11.3779t55.8545 -25.3408q43.96 -18.1016 94.125 -31.0303q50.166 -12.9297 133.947 -21.7217q83.7822 -8.79199 174.805 -4.6543q91.0225 4.13672 217.212 27.4102
q126.189 23.2725 260.654 66.7148zM960.905 276.909q-134.465 44.4766 -260.138 68.2666t-218.246 26.376q-92.5742 2.58594 -173.77 -4.1377q-81.1963 -6.72363 -134.982 -22.2383q-53.7861 -15.5156 -93.0908 -29.9961t-56.8887 -25.8584l-17.584 -11.3779z
M1028.14 61.7656q1.03418 16.5498 1.03418 32.0645q0 62.0605 -12.4121 123.087q-33.0996 -24.8242 -68.2666 -45.5107q8.27441 -26.8936 29.4785 -57.9238t43.96 -48.6133zM1028.14 462.057l-6.20605 -2.06836q-22.7559 -17.584 -43.96 -48.6143t-29.4785 -57.9238
q68.2666 -42.4082 68.2666 -45.5107q12.4121 59.9922 12.4121 122.053q0 16.5488 -1.03418 32.0645zM182.045 459.988q48.6133 12.4121 117.397 21.2041q68.7842 8.79102 117.398 8.79102q81.7129 0 162.392 -14.4805v101.366q-1.03418 14.4805 -11.3779 24.8242
q-10.3438 10.3428 -24.8242 10.3428h-323.749q-14.4814 0 -25.3418 -10.3428q-10.8604 -10.3438 -11.8945 -24.8242v-116.881zM275.136 561.354h-1.03516q5.17188 0 8.79199 -3.62012t3.62012 -8.79199v-1.03418q0 -5.17188 -3.62012 -8.27441
q-3.62012 -3.10352 -8.79199 -3.10352h-39.3047h-1.03418q-5.17188 0 -8.79199 3.62012t-3.62012 8.79199t4.1377 8.79199q4.13672 3.62012 9.30859 3.62012h40.3398zM402.359 561.354h-1.03418q6.20605 0 9.82617 -3.62012t3.62012 -8.79199t-3.62012 -8.79199
t-8.79199 -3.62012h-40.3389q-5.17188 0 -8.79199 3.62012t-3.62012 8.79199t3.62012 8.79199t8.79199 3.62012h40.3389zM529.584 561.354h-2.06836q6.20605 0 9.82617 -3.62012t3.62012 -8.79199t-3.62012 -8.79199t-8.79199 -3.62012h-1.03418h-39.3057
q-5.17188 0 -8.79199 3.62012t-3.62012 8.79199q0 4.1377 3.62012 8.27441q3.62012 4.1377 8.79199 4.1377h41.374z" />
</svg>
