<?xml version="1.0" standalone="no"?>
<!DOCTYPE svg PUBLIC "-//W3C//DTD SVG 1.1//EN" "http://www.w3.org/Graphics/SVG/1.1/DTD/svg11.dtd" >
<svg xmlns="http://www.w3.org/2000/svg" xmlns:xlink="http://www.w3.org/1999/xlink" version="1.1" viewBox="-10 0 1010 1000">
   <path fill="currentColor"
d="M0 401.059q0 -2 1.5 -7t7.5 -18.5t15 -26t27.5 -29.5t42.5 -30q34 -20 97 -35t146 -22.5t184.5 6.5t192.5 51q235 96 215 97q-12 -4 -33.5 -10.5t-89 -23t-134 -28t-159.5 -18.5t-176.5 -2t-174.5 29t-162 67zM0 461.059q71 44 161 68t176.5 28t174.5 -1t162 -19
t132 -27.5t90 -24.5l33 -10l2 1q-10 12 -217 96q-91 37 -192.5 51t-184.5 7t-146 -22.5t-97 -35.5q-38 -21 -61.5 -49t-27.5 -45zM927 417.059h-923q6 -4 17.5 -11t54 -24.5t91 -30t129.5 -21t169 -4.5t210 26.5t252 64.5zM924 446.059q-130 43 -251.5 66t-211 25.5t-168 -4
t-130.5 -21.5t-90 -29t-55 -25l-17 -11zM989 238.059q1 16 1 31q0 60 -12 119q-32 -24 -66 -44q8 -26 28.5 -56t42.5 -47zM989 625.059l-6 -2q-22 -17 -42.5 -47t-28.5 -56q66 -41 66 -44q12 58 12 118q0 16 -1 31zM171 623.059q47 12 113.5 20.5t113.5 8.5q79 0 157 -14v98
q-1 14 -11 24t-24 10h-313q-14 0 -24.5 -10t-11.5 -24v-113zM261 721.059h-1q5 0 8.5 -3.5t3.5 -8.5v-1q0 -5 -3.5 -8t-8.5 -3h-38h-1q-5 0 -8.5 3.5t-3.5 8.5t4 8.5t9 3.5h39zM384 721.059h-1q6 0 9.5 -3.5t3.5 -8.5t-3.5 -8.5t-8.5 -3.5h-39q-5 0 -8.5 3.5t-3.5 8.5
t3.5 8.5t8.5 3.5h39zM507 721.059h-2q6 0 9.5 -3.5t3.5 -8.5t-3.5 -8.5t-8.5 -3.5h-1h-38q-5 0 -8.5 3.5t-3.5 8.5q0 4 3.5 8t8.5 4h40z" />
</svg>
