<?xml version="1.0" standalone="no"?>
<!DOCTYPE svg PUBLIC "-//W3C//DTD SVG 1.1//EN" "http://www.w3.org/Graphics/SVG/1.1/DTD/svg11.dtd" >
<svg xmlns="http://www.w3.org/2000/svg" xmlns:xlink="http://www.w3.org/1999/xlink" version="1.1" viewBox="-10 0 942 1000">
   <path fill="currentColor"
d="M672.21 298.04h0.990234q10.8896 22.7695 10.8896 48.5098q0 12.8701 -2.96973 25.7402q-18.8096 63.3594 -70.29 74.25q-23.7598 52.4697 -61.3799 95.04q-19.7998 13.8594 -41.5801 24.75q-31.6797 11.8799 -66.3301 11.8799h-1.97949q-32.6709 0 -63.3604 -11.8799
q-21.7803 -10.8906 -41.5801 -24.75q-37.6201 -43.5605 -62.3701 -95.04q-51.4795 -10.8906 -69.2998 -74.25q-4.9502 -14.8506 -4.9502 -29.7002q0 -25.7402 12.8701 -48.5098q4.9502 -11.8809 16.8301 -16.8301v-24.75q-31.6797 -42.5703 -8.91016 -102.96
q7.91992 -27.7207 33.165 -47.0254t53.9551 -19.3047q16.8301 -29.7002 45.54 -49.5q19.7998 -10.8906 49.9951 -19.3057q30.1943 -8.41504 52.9648 -9.4043q31.6797 0.989258 71.2803 15.3447q39.5996 14.3545 64.3496 34.1553q11.8799 8.91016 20.79 19.7998
t15.3447 23.2646q6.43555 12.375 11.3857 24.2549q4.94922 11.8799 7.4248 25.7402q2.47461 13.8604 4.45508 24.2549q1.97949 10.3955 2.47461 23.2656q0.495117 12.8691 0.495117 19.3047v15.8398v10.3955q3.95996 16.8291 3.95996 35.6396v4.9502
q0.990234 0.989258 4.45508 3.95996l6.92969 5.93945q3.46484 2.9707 4.45508 6.93066zM631.62 364.37q12.8701 -31.6807 -3.95996 -37.6201q-1.98047 -3.95996 -3.95996 -5.94043q-1.98047 -1.97949 -3.95996 -1.97949h-0.990234q-5.93945 0 -10.8896 -7.91992
q-4.9502 -7.9209 -4.9502 -16.8301v-33.6602q-127.71 -11.8799 -186.12 -36.6299q-35.6396 -16.8301 -65.3398 -41.5801q-10.8896 19.7998 -24.75 37.6201q-27.7197 25.7393 -62.3701 40.5898v29.7002q0.990234 2.96973 0.990234 5.93945q0 7.91992 -4.9502 12.8701
t-12.8701 5.94043q0 0.989258 -0.990234 2.47461q-0.989258 1.48535 -2.96973 2.47461q-1.97949 0.990234 -3.95996 2.9707q-2.96973 9.89941 -2.96973 20.2949q0 10.3945 2.96973 21.2852q13.8604 40.5898 37.6201 40.5898h3.95996q13.8604 0 20.79 12.8701
q0.990234 1.97949 13.8604 26.2344q12.8691 24.2549 24.75 41.5801q11.8799 17.3252 22.7695 26.2354q8.91016 13.8594 24.75 16.8301q22.7695 9.89941 47.5195 9.89941t47.5205 -9.89941q3.95996 -1.98047 12.375 -7.91992q8.41504 -5.94043 12.375 -8.91016
q15.8398 -16.8301 34.1553 -44.5498q18.3145 -27.7207 27.2246 -49.5q4.9502 -13.8604 18.8105 -13.8604q2.96973 0 5.93945 0.990234q28.71 0 37.6201 -40.5898zM780.12 665.33q40.5898 16.8301 69.2998 60.3896t29.7002 88.1104v160.38v0.989258
q0 7.9209 -5.94043 13.8604q-5.93945 5.94043 -13.8594 5.94043h-0.990234h-837.54h-0.990234q-7.91992 0 -13.8594 -5.94043q-5.94043 -5.93945 -5.94043 -13.8604v-0.989258v-160.38v-2.9707q0 -44.5498 29.2051 -87.1201q29.2051 -42.5693 69.7949 -58.4092l198 -79.2002
q3.95996 -2.96973 8.91016 -2.96973t7.91992 2.96973q1.98047 0 3.95996 2.47461q1.98047 2.47559 4.45508 5.44531t4.45508 4.9502l49.5 135.63l7.91992 -28.71l-16.8301 -36.6299v-3.95996q0 -8.91016 3.95996 -16.8301q8.91016 -7.91992 20.79 -7.91992h95.04
q16.8301 0 20.79 7.91992q5.94043 4.94922 5.94043 12.8701q0 3.95996 -1.98047 7.91992l-16.8301 36.6299l8.91016 28.71l49.5 -135.63l11.8799 -12.8701q3.95996 -2.96973 8.41504 -2.96973t8.41504 2.96973zM771.21 879.17v-70.29v-0.990234
q0 -7.91992 -5.44531 -13.3652q-5.44434 -5.44434 -13.3643 -5.44434h-0.990234h-153.45h-0.990234q-7.91992 0 -13.3643 5.44434q-5.44531 5.44531 -5.44531 13.3652v0.990234v70.29v1.97949q0 7.91992 5.44531 13.3652q5.44434 5.44531 13.3643 5.44531h0.990234h153.45
h0.990234q7.91992 0 13.3643 -5.44531q5.44531 -5.44531 5.44531 -13.3652v-1.97949zM771.21 879.17z" />
</svg>
