<?xml version="1.0" standalone="no"?>
<!DOCTYPE svg PUBLIC "-//W3C//DTD SVG 1.1//EN" "http://www.w3.org/Graphics/SVG/1.1/DTD/svg11.dtd" >
<svg xmlns="http://www.w3.org/2000/svg" xmlns:xlink="http://www.w3.org/1999/xlink" version="1.1" viewBox="-10 0 1034 1000">
   <path fill="currentColor"
d="M754.688 127.536h1.02344q11.2637 23.5518 11.2637 50.1758q0 13.3125 -3.07129 26.624q-19.4561 65.5361 -72.7041 76.7998q-24.5762 54.2725 -63.4883 98.3047q-20.4795 14.3359 -43.0078 25.5996q-32.7686 12.2881 -68.6084 12.2881h-2.04785
q-33.792 0 -65.5361 -12.2881q-22.5273 -11.2637 -43.0078 -25.5996q-38.9121 -45.0566 -64.5117 -98.3047q-53.248 -11.2637 -71.6807 -76.7998q-5.11914 -15.3604 -5.11914 -30.7197q0 -26.624 13.3115 -50.1758q5.12012 -12.2881 17.4082 -17.4082v-25.6006
q-32.7686 -44.0312 -9.21582 -106.496q8.19141 -28.6719 34.3037 -48.6396t55.8076 -19.9678q17.4082 -30.7197 47.1045 -51.2002q20.4795 -11.2637 51.7119 -19.9678t54.7842 -9.72852q32.7676 1.02441 73.7275 15.8721q40.96 14.8486 66.5605 35.3281
q12.2881 9.21582 21.5039 20.4805q9.21582 11.2637 15.8721 24.0635q6.65527 12.7998 11.7754 25.0879t7.68066 26.624q2.55957 14.3359 4.60742 25.0879t2.56055 24.0645q0.511719 13.3115 0.511719 19.9678v16.3838v10.752q4.0957 17.4082 4.0957 36.8643v5.12012
q1.02441 1.02441 4.6084 4.0957l7.16797 6.14453t4.6084 7.16797zM712.704 196.144q13.3115 -32.7676 -4.0957 -38.9111q-2.04883 -4.09668 -4.09668 -6.14453t-4.0957 -2.04785h-1.02441q-6.14355 0 -11.2637 -8.19238q-5.12012 -8.19141 -5.12012 -17.4072v-34.8164
q-132.096 -12.2881 -192.512 -37.8877q-36.8643 -17.4082 -67.584 -43.0088q-11.2637 20.4805 -25.6006 38.9121q-28.6719 26.624 -64.5117 41.9844v30.7197q1.02441 3.07227 1.02441 6.14453q0 8.19141 -5.12012 13.3115t-13.3125 6.14453q0 1.02344 -1.02344 2.55957
q-1.02441 1.53613 -3.07227 2.56055q-2.04785 1.02344 -4.0957 3.07129q-3.07227 10.2402 -3.07227 20.9922t3.07227 22.0156q14.3359 41.9844 38.9121 41.9844h4.0957q14.3359 0 21.5039 13.3125q1.02441 2.04785 14.3359 27.1357q13.3125 25.0879 25.6006 43.0078
q12.2871 17.9199 23.5518 27.1357q9.21582 14.3359 25.5996 17.4082q23.5518 10.2402 49.1523 10.2402q25.5996 0 49.1514 -10.2402q4.09668 -2.04785 12.8008 -8.19238q8.7041 -6.14355 12.7998 -9.21582q16.3838 -17.4082 35.3281 -46.0801
q18.9434 -28.6719 28.1602 -51.1992q5.11914 -14.3369 19.4561 -14.3369q3.07129 0 6.14355 1.02441q29.6963 0 38.9121 -41.9844zM866.304 507.44q41.9844 17.4072 71.6807 62.4639q29.6953 45.0557 30.7197 91.1357v165.888v1.02441q0 8.19141 -6.14453 14.3359
q-6.14355 6.14355 -14.3359 6.14355h-1.02344h-866.304h-1.02441q-8.19238 0 -14.3359 -6.14355q-6.14453 -6.14453 -6.14453 -14.3359v-1.02441v-165.888v-3.07227q0 -46.0801 30.208 -90.1113q30.208 -44.0322 72.1924 -60.416l204.8 -81.9209
q4.09668 -3.07129 9.21582 -3.07129q5.12012 0 8.19238 3.07129q2.04785 0 4.0957 2.56055q2.04785 2.55957 4.6084 5.63184q2.55957 3.07227 4.60742 5.12012l51.2002 140.288l8.19238 -29.6963l-17.4082 -37.8877v-4.0957q0 -9.2168 4.0957 -17.4082
q9.2168 -8.19238 21.5049 -8.19238h98.3037q17.4082 0 21.5039 8.19238q6.14355 5.12012 6.14355 13.3115q0 4.09668 -2.04785 8.19238l-17.4082 37.8877l9.2168 29.6963l51.1992 -140.288l12.2881 -13.3125q4.09668 -3.07129 8.7041 -3.07129q4.6084 0 8.7041 3.07129z
M857.088 728.624v-72.7041v-1.02344q0 -8.19238 -5.63184 -13.8242t-13.8242 -5.63184h-1.02344h-158.721h-1.02344q-8.19238 0 -13.8242 5.63184t-5.63184 13.8242v1.02344v72.7041v2.04785q0 8.19238 5.63184 13.8242t13.8242 5.63184h1.02344h158.721h1.02344
q8.19238 0 13.8242 -5.63184t5.63184 -13.8242v-2.04785zM857.088 728.624z" />
</svg>
