<?xml version="1.0" standalone="no"?>
<!DOCTYPE svg PUBLIC "-//W3C//DTD SVG 1.1//EN" "http://www.w3.org/Graphics/SVG/1.1/DTD/svg11.dtd" >
<svg xmlns="http://www.w3.org/2000/svg" xmlns:xlink="http://www.w3.org/1999/xlink" version="1.1" viewBox="-11 0 851 1000">
   <path fill="currentColor"
d="M632.742 478.669q10.9395 45.9443 17.5029 68.917q-48.1328 8.75195 -97.3584 18.5967q-18.5977 5.46973 -56.8848 13.127q-44.8506 12.0332 -44.8506 19.6904v1.09473q0 2.1875 1.09375 3.28125h-9.84473q-2.18848 -9.84473 -2.18848 -20.7842v-4.37598
q1.09375 -17.5029 5.46973 -33.9111q3.28223 -7.6582 9.8457 -10.9395q40.4746 -21.8789 68.917 -56.8838q26.2539 -32.8184 48.6797 -86.9668q22.4248 -54.1494 26.8008 -96.8125q2.1875 -17.5029 0 -21.8789q-2.1875 -4.375 -17.5029 -9.84473
q-32.8174 -10.9395 -61.2598 -41.5693q-28.4414 -30.6299 -36.0986 -63.4473l-0.547852 -0.546875q-0.546875 -0.546875 -1.64062 -1.6416q-6.56348 5.46973 -18.0498 14.2217q-11.4863 8.75098 -20.7842 15.8613q-9.29883 7.11133 -18.0498 13.6748
q-37.1934 30.6299 -96.8125 52.5078q-59.6182 21.8789 -107.751 22.9727q-7.65723 1.09375 -24.0664 2.1875q3.28223 70.0107 32.8174 132.365q13.127 30.6289 41.5693 64.541q28.4424 33.9111 55.79 51.4141q19.6904 9.8457 26.2539 29.5361
q3.28223 13.127 3.28223 27.3477q0 9.8457 -2.1875 20.7852v3.28125h-10.9395l1.09375 -1.09375v-4.37598v-2.1875q-2.1875 -2.1875 -5.46973 -4.37598q-28.4424 -13.127 -60.166 -18.5967q-26.2539 -5.46973 -63.4473 -13.127q-45.9443 -8.75098 -68.917 -13.127
q4.37598 -8.75098 6.56348 -18.5967q15.3145 -50.3203 20.7842 -103.923q1.09473 -18.5967 1.09473 -37.1934q0 -33.9111 -4.37598 -67.8232q-4.37598 -33.9111 -4.37598 -67.8232q0 -40.4746 6.56348 -80.9502q13.127 -56.8838 63.9941 -103.922
q50.8682 -47.0391 108.846 -56.8848q27.3486 -5.46973 55.79 -5.46973q26.2539 0 61.2598 8.75195q35.0059 8.75098 59.0723 20.7842q42.6621 21.8789 73.8389 71.1055q31.1777 49.2266 33.3652 97.3584q1.09375 21.8789 1.09375 43.7578q0 43.7568 -4.37598 88.6074
q-3.28125 24.0664 -3.28125 49.2266q0 48.1328 9.84473 94.0771zM418.334 443.663l37.1934 21.8789q-8.75195 9.84473 -24.6133 17.5029q-15.8623 7.65723 -28.9893 7.65723h-2.73438h-3.8291q-13.127 0 -28.9893 -7.65723q-15.8613 -7.6582 -24.6133 -17.5029
l37.1934 -21.8789l19.6914 9.8457zM377.858 466.636q9.8457 6.56348 21.332 6.56348t20.2373 -6.56348q-9.8457 -4.37598 -20.7842 -4.37598q-10.9395 0 -20.7852 4.37598zM783.704 995h-761.37q-38.2871 0 -10.9395 -99.5469q32.8174 -113.768 100.641 -198
q48.1328 -59.0713 86.4199 -59.0713h51.415q-1.09473 14.2207 -6.56445 45.3975q-5.46875 31.1768 -8.2041 48.1328q-2.73438 16.9561 -4.37598 45.3975q-1.64062 28.4424 1.6416 44.3037q3.28125 15.8623 11.4863 36.0996q8.2041 20.2383 23.5186 31.1768
q15.3154 10.9395 40.4756 19.1436q25.1602 8.20508 59.0713 9.29883q10.9395 2.1875 18.5967 -24.6133q7.6582 -26.8008 8.75195 -55.2432l2.1875 -27.3477q4.37598 107.204 26.2539 107.204q27.3486 0 49.7744 -4.92285q22.4248 -4.92285 37.7402 -11.4863
q15.3145 -6.56348 26.2539 -20.2373t17.5029 -24.6133t8.75098 -31.7236t2.73535 -34.459q0.546875 -13.6738 -2.18848 -38.834q-2.73438 -25.1602 -4.37598 -39.3809q-1.64062 -14.2217 -7.11035 -42.6631q-3.28125 -20.7852 -4.375 -30.6299h60.165
q71.1055 2.1875 141.116 121.425q59.0723 102.829 62.3535 183.779q2.18848 51.4141 -27.3477 51.4141z" />
</svg>
