<?xml version="1.0" standalone="no"?>
<!DOCTYPE svg PUBLIC "-//W3C//DTD SVG 1.1//EN" "http://www.w3.org/Graphics/SVG/1.1/DTD/svg11.dtd" >
<svg xmlns="http://www.w3.org/2000/svg" xmlns:xlink="http://www.w3.org/1999/xlink" version="1.1" viewBox="-10 0 1034 1000">
   <path fill="currentColor"
d="M809.017 277.9q11.3145 47.5225 18.1035 71.2832q-49.7852 9.05273 -100.702 19.2354q-19.2354 5.6582 -58.8379 13.5781q-46.3916 12.4463 -46.3916 20.3672v1.13086q0 2.26367 1.13184 3.39453h-10.1836q-2.2627 -10.1826 -2.2627 -21.498v-4.52539
q1.13184 -18.1045 5.65723 -35.0771q3.39453 -7.91992 10.1836 -11.3145q41.8652 -22.6299 71.2842 -58.8379q27.1553 -33.9443 50.3516 -89.9531q23.1953 -56.0088 27.7217 -100.137q2.2627 -18.1045 0 -22.6299q-2.26367 -4.52637 -18.1045 -10.1836
q-33.9443 -11.3154 -63.3633 -42.9971t-37.3389 -65.626l-0.566406 -0.566406l-1.69727 -1.69727q-6.78906 5.6582 -18.6689 14.71q-11.8809 9.05176 -21.499 16.4062q-9.61719 7.35449 -18.6689 14.1436q-38.4707 31.6816 -100.138 54.3115
q-61.666 22.6299 -111.451 23.7617q-7.9209 1.13184 -24.8936 2.2627q3.39453 72.416 33.9453 136.911q13.5771 31.6816 42.9961 66.7578t57.7061 53.1797q20.3672 10.1836 27.1562 30.5508q3.39453 13.5771 3.39453 28.2871q0 10.1836 -2.2627 21.498v3.39453h-11.3154
l1.13184 -1.13184v-4.52539v-2.2627q-2.26367 -2.26367 -5.6582 -4.52637q-29.418 -13.5781 -62.2314 -19.2354q-27.1562 -5.65723 -65.627 -13.5781q-47.5225 -9.05176 -71.2842 -13.5781q4.52637 -9.05176 6.78906 -19.2354q15.8408 -52.0479 21.499 -107.491
q1.13086 -19.2354 1.13086 -38.4707q0 -35.0762 -4.52539 -70.1523q-4.52637 -35.0762 -4.52637 -70.1523q0 -41.8652 6.78906 -83.7305q13.5781 -58.8379 66.1924 -107.492t112.583 -58.8379q28.2881 -5.65723 57.7061 -5.65723q27.1562 0 63.3643 9.05176
q36.207 9.05273 61.1006 21.499q44.1279 22.6299 76.375 73.5469q32.248 50.917 34.5107 100.702q1.13184 22.6299 1.13184 45.2598q0 45.2598 -4.52637 91.6514q-3.39453 24.8926 -3.39453 50.917q0 49.7852 10.1836 97.3086zM587.244 241.692l38.4707 22.6299
q-9.05176 10.1836 -25.458 18.1035q-16.4072 7.9209 -29.9854 7.9209h-2.82812h-3.96094q-13.5771 0 -29.9844 -7.9209q-16.4062 -7.91992 -25.458 -18.1035l38.4707 -22.6299l20.3662 10.1836zM545.379 265.453q10.1836 6.78906 22.0645 6.78906t20.9326 -6.78906
q-10.1836 -4.52539 -21.499 -4.52539q-11.3145 0 -21.498 4.52539zM965.162 811.964h-787.518q-39.6025 0 -11.3154 -102.966q33.9453 -117.675 104.098 -204.8q49.7852 -61.1006 89.3877 -61.1006h53.1797q-1.13086 14.71 -6.78906 46.957
q-5.65723 32.2471 -8.48535 49.7852q-2.8291 17.5391 -4.52637 46.957q-1.69727 29.4189 1.69727 45.8262q3.39453 16.4062 11.8809 37.3389t24.3271 32.2471q15.8408 11.3154 41.8652 19.8018t61.1006 9.61719q11.3145 2.26367 19.2354 -25.458
q7.91992 -27.7217 9.05176 -57.1406l2.2627 -28.2871q4.52637 110.886 27.1562 110.886q28.2871 0 51.4824 -5.0918t39.0361 -11.8799q15.8418 -6.78906 27.1562 -20.9326q11.3145 -14.1445 18.1035 -25.459t9.05273 -32.8135q2.2627 -21.498 2.82812 -35.6416
t-2.2627 -40.168q-2.8291 -26.0244 -4.52637 -40.7334q-1.69727 -14.71 -7.35449 -44.1289q-3.39453 -21.498 -4.52637 -31.6816h62.2324q73.5469 2.2627 145.963 125.596q61.1006 106.36 64.4951 190.091q2.2627 53.1797 -28.2881 53.1797z" />
</svg>
