<?xml version="1.0" standalone="no"?>
<!DOCTYPE svg PUBLIC "-//W3C//DTD SVG 1.1//EN" "http://www.w3.org/Graphics/SVG/1.1/DTD/svg11.dtd" >
<svg xmlns="http://www.w3.org/2000/svg" xmlns:xlink="http://www.w3.org/1999/xlink" version="1.1" viewBox="-10 0 1044 1000">
   <path fill="currentColor"
d="M425.984 -7.63184q6.14355 0 10.752 4.0957q4.60742 4.0957 4.60742 10.2402v21.5039q0 6.14355 -4.60742 10.752q-4.6084 4.6084 -10.752 4.6084q-6.14453 0 -10.752 -4.6084q-4.6084 -4.6084 -4.6084 -10.752v-21.5039q0 -6.14453 4.6084 -10.2402
q4.60742 -4.0957 10.752 -4.0957zM601.088 107.056q-10.2402 10.2402 -20.9922 0q-10.752 -10.2393 0.512695 -21.5039l14.3359 -14.3359q11.2637 -11.2637 21.5039 -0.511719t0 20.9922zM679.936 276.016h-20.4795q-6.14453 0 -10.752 -4.0957
q-4.6084 -4.0957 -4.6084 -10.752t4.6084 -10.752q4.60742 -4.0957 10.752 -4.0957h20.4795q6.14453 0 10.7529 4.0957q4.60742 4.0957 4.60742 10.752t-4.60742 10.752q-4.6084 4.0957 -10.7529 4.0957zM416.768 500.272q0 -6.14453 4.6084 -10.7529
q4.6084 -4.60742 10.752 -4.60742q6.14453 0 10.752 4.60742q4.6084 4.6084 4.6084 10.7529v21.5039q0 6.14355 -4.6084 10.2393q-4.60742 4.09668 -10.752 4.09668q-6.14355 0 -10.752 -4.09668q-4.6084 -4.0957 -4.6084 -10.2393v-21.5039zM236.032 451.632
q-10.752 -10.752 -0.512695 -20.9922l15.3604 -15.3594q10.2402 -10.2402 20.9922 0q10.752 10.2393 0.511719 21.5039l-15.3594 14.3359q-10.2402 11.2637 -20.9922 0.511719zM193.536 276.016h-21.5039q-6.14453 0 -10.752 -4.0957q-4.6084 -4.0957 -4.6084 -10.752
t4.6084 -10.752q4.60742 -4.0957 10.752 -4.0957h21.5039q6.14355 0 10.2402 4.0957q4.0957 4.0957 4.0957 10.752t-4.0957 10.752q-4.09668 4.0957 -10.2402 4.0957zM250.88 107.056l-15.3604 -15.3594q-10.2393 -10.2402 0.512695 -20.9922t20.9922 0.511719
l15.3594 14.3359q10.2402 11.2646 -0.511719 21.5039q-10.752 10.2402 -20.9922 0zM410.624 231.984v-106.496q0 -6.14453 4.6084 -10.752q4.60742 -4.6084 10.752 -4.6084q6.14355 0 10.752 4.6084q4.60742 4.60742 4.60742 10.752v141.312q0 10.2402 -9.21582 14.3359
q-9.21582 4.09668 -16.3838 -3.07129l-53.248 -51.2002q-10.2402 -10.2402 0 -20.9922t21.5039 -0.511719zM849.92 308.784q76.7998 30.7197 125.44 100.352q48.6396 69.6318 48.6396 154.624q0 104.448 -68.6084 182.272q-10.2393 11.2637 -21.5039 1.02344
q-11.2637 -10.2393 -1.02344 -21.5039q61.4395 -68.6074 61.4395 -161.792q0 -100.352 -71.6797 -171.52t-172.544 -71.168t-172.032 71.168t-71.168 171.52q0 102.4 71.6797 173.057q71.6807 70.6553 172.032 70.6553q76.7998 0 140.288 -44.0312
q12.2881 -8.19238 20.4805 4.0957q8.19141 12.2881 -4.09668 20.4795q-70.6553 50.1768 -156.672 50.1768q-80.8955 0 -147.968 -43.5205q-67.0723 -43.5195 -99.8398 -114.176q-37.8877 7.16797 -76.7998 7.16797q-115.712 0 -213.504 -57.3438
q-97.792 -57.3447 -155.137 -155.648q-57.3438 -98.3037 -57.3438 -213.504t57.3438 -213.504q57.3447 -98.3037 155.137 -155.648q97.792 -57.3438 213.504 -57.3438q147.456 0 263.168 91.1357q12.2881 9.2168 3.07129 20.9922q-9.21582 11.7764 -21.5039 2.56055
q-107.52 -83.9688 -244.735 -83.9688q-107.521 0 -198.656 52.7363t-144.384 144.384q-53.248 91.6484 -53.248 198.656t53.248 198.656q53.248 91.6475 144.384 144.384t198.656 52.7363q32.7676 0 65.5352 -5.12012q-11.2637 -30.7207 -13.3115 -64.5127
q-26.624 4.09668 -52.2236 4.09668q-90.1123 0 -166.4 -44.5439t-120.32 -120.32q-7.16797 -13.3115 5.63281 -20.9922q12.7998 -7.67969 20.9912 5.63184q39.9365 69.6328 110.08 110.08q70.1445 40.4482 150.017 40.4482q25.5996 0 51.1992 -4.0957
q2.04883 -104.448 73.7285 -180.225q71.6797 -75.7754 174.08 -86.0156q2.04785 -15.3604 2.04785 -30.7197q0 -123.904 -88.5762 -211.968q-88.5762 -88.0645 -212.479 -88.0645q-123.904 0 -211.969 88.0645q-88.0635 88.0635 -88.0635 211.968q0 51.2002 15.3594 98.3037
q2.04883 6.14355 -0.511719 11.2637q-2.55957 5.12012 -8.7041 7.16797q-2.04785 1.02441 -4.0957 1.02441q-11.2637 0 -14.3359 -10.2402q-18.4316 -51.2002 -18.4316 -107.52q0 -89.0879 44.5439 -165.376t120.832 -120.32t165.888 -44.0322t165.376 44.0322
t120.32 120.32t44.5439 165.376q0 14.3359 -1.02441 29.6953q32.7686 1.02441 64.5117 9.2168q2.04883 -19.4561 2.04883 -38.9121q0 -75.7764 -28.1602 -146.433q-28.1602 -70.6553 -80.3848 -125.951q-10.2393 -10.2402 0.512695 -20.4805t20.9922 0
q56.3193 59.3916 86.5273 135.168t30.208 157.696q0 24.5762 -2.04785 48.1279zM795.648 416.304v179.2q0 18.4316 -13.3125 31.7441q-13.3115 13.3115 -31.7441 13.3115q-18.4316 0 -31.7441 -13.3115q-13.3115 -13.3125 -13.3115 -31.7441v-179.2
q0 -18.4316 13.3115 -31.7441q13.3125 -13.3115 31.7441 -13.3115q18.4326 0 31.7441 13.3115q13.3125 13.3125 13.3125 31.7441zM764.928 595.504v-179.2q0 -6.14355 -4.0957 -10.2393q-4.0957 -4.09668 -10.2402 -4.09668q-6.14355 0 -10.752 4.09668
q-4.60742 4.0957 -4.60742 10.2393v179.2q0 6.14453 4.60742 10.752q4.6084 4.6084 10.752 4.6084q6.14453 0 10.2402 -4.6084q4.0957 -4.60742 4.0957 -10.752zM750.592 647.728q18.4326 0 31.7441 13.3125q13.3125 13.3115 13.3125 31.7441v19.4561
q0 18.4316 -13.3125 31.2314q-13.3115 12.8008 -31.7441 12.8008q-18.4316 0 -31.7441 -12.8008q-13.3115 -12.7998 -13.3115 -31.2314v-19.4561q0 -18.4326 13.3115 -31.7441q13.3125 -13.3125 31.7441 -13.3125zM764.928 712.24v-19.4561q0 -6.14453 -4.0957 -10.752
q-4.0957 -4.6084 -10.2402 -4.6084q-6.14355 0 -10.752 4.6084q-4.60742 4.60742 -4.60742 10.752v19.4561q0 6.14355 4.60742 10.2402q4.6084 4.0957 10.752 4.0957q6.14453 0 10.2402 -4.0957q4.0957 -4.09668 4.0957 -10.2402z" />
</svg>
