<?xml version="1.0" standalone="no"?>
<!DOCTYPE svg PUBLIC "-//W3C//DTD SVG 1.1//EN" "http://www.w3.org/Graphics/SVG/1.1/DTD/svg11.dtd" >
<svg xmlns="http://www.w3.org/2000/svg" xmlns:xlink="http://www.w3.org/1999/xlink" version="1.1" viewBox="-10 0 1010 1000">
   <path fill="currentColor"
d="M411.84 167.359q5.94043 0 10.3955 3.96094q4.45508 3.95898 4.45508 9.90039v20.7891q0 5.93945 -4.45508 10.3945t-10.3955 4.45508q-5.93945 0 -10.3945 -4.45508t-4.45508 -10.3945v-20.7891q0 -5.94141 4.45508 -9.90039q4.45508 -3.96094 10.3945 -3.96094z
M581.13 278.24q-9.89941 9.90039 -20.2949 0q-10.3945 -9.90039 0.495117 -20.791l13.8604 -13.8594q10.8896 -10.8906 20.79 -0.494141q9.89941 10.3945 0 20.2949zM657.36 441.59h-19.8008q-5.93945 0 -10.3945 -3.95898q-4.45508 -3.96094 -4.45508 -10.3965
q0 -6.43359 4.45508 -10.3945q4.45508 -3.95898 10.3945 -3.95898h19.8008q5.93945 0 10.3945 3.95898q4.45508 3.96094 4.45508 10.3945q0 6.43555 -4.45508 10.3965q-4.45508 3.95898 -10.3945 3.95898zM402.93 658.4q0 -5.93945 4.45508 -10.3945t10.3955 -4.45508
q5.93945 0 10.3945 4.45508t4.45508 10.3945v20.7891q0 5.94141 -4.45508 9.90039q-4.45508 3.96094 -10.3945 3.96094q-5.94043 0 -10.3955 -3.96094q-4.45508 -3.95898 -4.45508 -9.90039v-20.7891zM228.195 611.375q-10.3955 -10.3945 -0.495117 -20.2949
l14.8496 -14.8496q9.90039 -9.90039 20.2949 0q10.3955 9.90039 0.495117 20.7891l-14.8496 13.8613q-9.90039 10.8887 -20.2949 0.494141zM187.11 441.59h-20.79q-5.94043 0 -10.3955 -3.95898q-4.45508 -3.96094 -4.45508 -10.3965q0 -6.43359 4.45508 -10.3945
q4.45508 -3.95898 10.3955 -3.95898h20.79q5.93945 0 9.89941 3.95898q3.95996 3.96094 3.95996 10.3945q0 6.43555 -3.95996 10.3965q-3.95996 3.95898 -9.89941 3.95898zM242.55 278.24l-14.8496 -14.8496q-9.90039 -9.90039 0.495117 -20.2949
q10.3945 -10.3965 20.2949 0.494141l14.8496 13.8594q9.90039 10.8906 -0.495117 20.791q-10.3945 9.90039 -20.2949 0zM396.99 399.02v-102.959q0 -5.93945 4.45508 -10.3945t10.3945 -4.45508q5.94043 0 10.3955 4.45508t4.45508 10.3945v136.619
q0 9.90039 -8.91016 13.8613q-8.91016 3.95898 -15.8398 -2.9707l-51.4805 -49.5q-9.90039 -9.90039 0 -20.2949t20.79 -0.496094zM821.7 473.27q74.25 29.7012 121.274 97.0215q47.0254 67.3184 47.0254 149.488q0 100.98 -66.3301 176.221
q-9.90039 10.8906 -20.79 0.990234t-0.990234 -20.791q59.4004 -66.3281 59.4004 -156.42q0 -97.0195 -69.2998 -165.824t-166.815 -68.8047q-97.5146 0 -166.319 68.8047q-68.8057 68.8047 -68.8057 165.824q0 99 69.2998 167.311q69.3008 68.3105 166.32 68.3105
q74.25 0 135.63 -42.5703q11.8799 -7.91992 19.7998 3.96094q7.91992 11.8789 -3.95996 19.7988q-68.3096 48.5098 -151.47 48.5098q-78.21 0 -143.055 -42.0742q-64.8457 -42.0762 -96.5254 -110.385q-36.6299 6.92969 -74.25 6.92969q-111.87 0 -206.415 -55.4395
q-94.5449 -55.4414 -149.984 -150.48q-55.4404 -95.041 -55.4404 -206.416t55.4404 -206.414q55.4395 -95.041 149.984 -150.48t206.415 -55.4395q142.561 0 254.43 88.1094q11.8809 8.91016 2.9707 20.2949t-20.79 2.47461q-103.95 -81.1797 -236.61 -81.1797
q-103.95 0 -192.06 50.9863q-88.1104 50.9844 -139.59 139.59q-51.4805 88.6035 -51.4805 192.059t51.4805 192.061q51.4795 88.6055 139.59 139.59q88.1094 50.9863 192.06 50.9863q31.6797 0 63.3604 -4.95117q-10.8906 -29.6992 -12.8701 -62.3691
q-25.7402 3.95898 -50.4902 3.95898q-87.1201 0 -160.875 -43.0645t-116.325 -116.324q-6.92969 -12.8711 5.44531 -20.2969q12.375 -7.42383 20.2949 5.44531q38.6104 67.3203 106.425 106.426q67.8154 39.1055 145.035 39.1055q24.75 0 49.5 -3.96094
q1.98047 -100.98 71.2803 -174.24t168.3 -83.1602q1.98047 -14.8496 1.98047 -29.6992q0 -119.791 -85.6357 -204.93q-85.6348 -85.1406 -205.425 -85.1406t-204.93 85.1406q-85.1406 85.1387 -85.1406 204.93q0 49.5 14.8506 95.0391q1.97949 5.94141 -0.495117 10.8906
q-2.47461 4.95117 -8.41504 6.92969q-1.97949 0.990234 -3.95996 0.990234q-10.8896 0 -13.8604 -9.90039q-17.8193 -49.5 -17.8193 -103.949q0 -86.1309 43.0645 -159.885q43.0654 -73.7559 116.82 -116.326q73.7549 -42.5684 160.38 -42.5684t159.885 42.5684
q73.2607 42.5703 116.325 116.326q43.0654 73.7539 43.0654 159.885q0 13.8594 -0.990234 28.709q31.6797 0.990234 62.3701 8.91016q1.97949 -18.8086 1.97949 -37.6191q0 -73.2598 -27.2246 -141.57q-27.2256 -68.3105 -77.7148 -121.77
q-9.90039 -9.90039 0.495117 -19.8008q10.3945 -9.90039 20.2949 0q54.4492 57.4199 83.6543 130.68q29.2051 73.2617 29.2051 152.461q0 23.7598 -1.97949 46.5293zM769.23 577.221v173.25q0 17.8203 -12.8701 30.6895t-30.6904 12.8691t-30.6895 -12.8691
q-12.8701 -12.8691 -12.8701 -30.6895v-173.25q0 -17.8203 12.8701 -30.6914q12.8691 -12.8691 30.6895 -12.8691t30.6904 12.8691q12.8701 12.8711 12.8701 30.6914zM739.53 750.471v-173.25q0 -5.94141 -3.95996 -9.90039q-3.95996 -3.96094 -9.90039 -3.96094
q-5.93945 0 -10.3945 3.96094q-4.45508 3.95898 -4.45508 9.90039v173.25q0 5.93945 4.45508 10.3945t10.3945 4.45508q5.94043 0 9.90039 -4.45508t3.95996 -10.3945zM725.67 800.961q17.8203 0 30.6904 12.8691t12.8701 30.6895v18.8105q0 17.8203 -12.8701 30.1953
t-30.6904 12.375t-30.6895 -12.375q-12.8701 -12.375 -12.8701 -30.1953v-18.8105q0 -17.8203 12.8701 -30.6895q12.8691 -12.8691 30.6895 -12.8691zM739.53 863.33v-18.8105q0 -5.93945 -3.95996 -10.3945t-9.90039 -4.45508q-5.93945 0 -10.3945 4.45508
t-4.45508 10.3945v18.8105q0 5.93945 4.45508 9.90039q4.45508 3.95898 10.3945 3.95898q5.94043 0 9.90039 -3.95898q3.95996 -3.96094 3.95996 -9.90039z" />
</svg>
