<?xml version="1.0" standalone="no"?>
<!DOCTYPE svg PUBLIC "-//W3C//DTD SVG 1.1//EN" "http://www.w3.org/Graphics/SVG/1.1/DTD/svg11.dtd" >
<svg xmlns="http://www.w3.org/2000/svg" xmlns:xlink="http://www.w3.org/1999/xlink" version="1.1" viewBox="-10 0 1055 1000">
   <path fill="currentColor"
d="M719.935 401.069q5.22461 0 8.88184 3.65723t3.65723 8.88184v331.232q0 31.3467 -21.9434 52.7676q-21.9424 21.4199 -52.2441 21.4199h-456.621q-30.3018 0 -52.2451 -21.4199q-21.9424 -21.4209 -21.9424 -52.7676v-309.29l-42.8408 27.168
q-3.13477 2.08984 -6.26953 2.08984q-6.26953 0 -10.4492 -6.26953l-45.9756 -72.0986q-11.4932 -18.8076 -11.4932 -39.7061q0 -40.751 34.4814 -62.6934l70.0078 -44.9307q-18.8076 -8.35938 -30.8242 -25.6006q-12.0166 -17.2402 -12.0166 -38.1387
q0 -29.2568 20.8984 -49.6318q20.8975 -20.376 49.1104 -20.376q8.3584 0 15.6729 1.04492l113.895 26.1221l34.4814 -153.6q5.22461 -24.0322 24.0322 -39.7061q18.8086 -15.6738 43.8857 -15.6738q29.2578 0 49.6328 20.376q20.376 20.375 20.376 49.6328
q0 8.3584 -1.04492 15.6729l-5.22461 25.0781l64.7832 -41.7959q18.8086 -11.4941 39.7061 -11.4941q40.751 0 62.6943 34.4814l45.9756 72.0977q2.08984 3.13477 2.08984 7.31445q0 6.26953 -5.22461 9.4043l-467.069 296.751h539.167zM516.18 13.4121l-151.511 96.1309
l66.874 103.444l192.261 -122.253l-39.7061 -62.6934q-10.4482 -16.7188 -30.3018 -21.9434q-5.22461 -1.04492 -11.4941 -1.04492q-13.583 0 -26.1221 8.35938zM330.188 -15.8447l-31.3467 137.927l109.714 -70.0088l10.4492 -48.0654q1.04492 -5.22461 1.04492 -9.40332
q0 -18.8086 -13.584 -32.3926q-13.583 -13.583 -32.3916 -13.583q-15.6729 0 -28.2119 9.92578q-12.5391 9.92676 -15.6738 25.6006zM344.816 122.082l-111.804 71.0527l65.8281 104.489l111.804 -71.0527zM104.49 199.404q9.40332 15.6729 28.2119 19.8525l8.35938 2.08984
l109.714 -68.9629l-98.2207 -21.9434q-5.22363 -1.04492 -10.4482 -1.04492q-18.8086 0 -31.8701 13.584q-13.0605 13.584 -13.0605 32.3916q0 12.5391 7.31445 24.0332zM82.5469 435.551l195.396 -125.388l-65.8281 -103.444l-154.645 98.2197
q-22.9883 14.6289 -22.9883 41.7959q0 14.6289 8.35938 26.123zM319.739 794.996v-368.85h-167.185v318.694q0 20.8984 14.6289 35.5264q14.6289 14.6289 34.4814 14.6289h118.074zM475.429 794.996v-368.85h-131.657v368.85h131.657zM707.396 744.841v-318.694h-207.935
v368.85h158.825q19.8525 0 34.4814 -14.6289q14.6279 -14.6279 14.6279 -35.5264zM856.816 290.311l25.0771 24.0322q3.13477 3.13477 3.13477 8.35938q0 11.4941 -10.4482 12.5391l-34.4824 5.22363l-14.6279 30.3027q-3.13477 7.31445 -10.9717 7.31445t-10.9717 -7.31445
l-15.6729 -30.3027l-34.4824 -5.22363q-10.4482 -1.04492 -10.4482 -12.5391q0 -5.22461 4.17871 -8.35938l24.0332 -24.0322l-5.22461 -34.4824v-2.08887q0 -5.22461 3.65723 -8.88184t7.83691 -3.65723q3.13477 0 6.26953 2.08984l30.3018 15.6729l31.3467 -15.6729
q2.08984 -2.08984 5.22461 -2.08984q5.22461 0 8.88184 3.65723t3.65723 8.88184v2.08887zM830.694 316.433l15.6729 -2.08984l-11.4941 -11.4941q-3.13379 -3.13477 -3.13379 -8.3584v-2.08984l2.08887 -15.6738l-13.583 7.31445q-3.13477 1.04492 -6.26953 1.04492
t-5.22461 -1.04492l-14.6289 -7.31445l3.13477 15.6738v2.08984q0 5.22363 -4.17969 8.3584l-11.4932 11.4941l16.7178 2.08984q6.26953 1.04492 8.35938 7.31445l7.31445 14.6289l7.31445 -14.6289q3.13477 -6.26953 9.4043 -7.31445zM997.878 121.037
q9.40332 3.13477 9.40332 12.5381q0 5.22461 -5.22363 9.4043l-26.123 21.9434l2.08984 34.4814v1.04492q0 4.17969 -3.65723 7.83691q-3.65723 3.65625 -8.88184 3.65625q-3.13477 0 -6.26855 -2.08887l-29.2578 -18.8086l-31.3467 13.584
q-3.13477 1.04492 -5.22461 1.04492q-5.22461 0 -8.88184 -3.65723t-3.65723 -8.88184q0 -1.04492 1.04492 -3.13477l8.35938 -33.4365l-21.9424 -26.123q-3.13477 -4.17969 -3.13477 -8.3584q0 -11.4941 11.4932 -12.5391l34.4824 -1.04492l18.8076 -29.2568
q3.13477 -6.26953 10.4492 -6.26953q8.35938 0 11.4941 8.35938l12.5381 32.3916zM955.037 149.249l12.5381 -9.4043l-15.6729 -4.17969q-6.26953 -2.08984 -8.35938 -7.31445l-6.26953 -15.6729l-8.35938 13.583q-3.13477 6.26953 -9.4043 6.26953l-16.7178 1.04492
l10.4492 12.5391q3.13477 3.13477 3.13477 7.31445v3.13477l-4.17969 15.6729l14.6279 -6.26855q2.08984 -1.04492 4.17969 -1.04492q4.17969 0 7.31445 2.08984l13.584 9.40332l-1.04492 -16.7178v-1.04492q0 -5.22461 4.17969 -9.4043zM817.11 -77.4941l-21.9434 -26.1221
q-3.13477 -4.17969 -3.13477 -8.35938q0 -11.4941 11.4941 -12.5391l34.4814 -1.04492l18.8086 -30.3018q3.13477 -5.22461 10.4492 -5.22461q8.3584 0 11.4932 7.31445l12.5391 32.3916l33.4365 8.35938q9.4043 2.08984 9.4043 12.5391q0 5.22461 -5.22461 9.4043
l-26.1221 21.9424l2.08984 34.4814q0 5.22461 -3.65723 8.88184t-8.88184 3.65723q-3.13477 0 -6.26953 -2.08984l-29.2568 -18.8086l-31.3467 13.584q-3.13477 1.04492 -5.22461 1.04492q-5.22461 0 -8.88184 -3.65723t-3.65723 -8.88184q0 -2.08984 1.04492 -3.13477z
M846.367 -101.526l-16.7178 1.04492l10.4482 11.4941q3.13477 4.17871 3.13477 8.3584v3.13477l-4.17969 15.6738l14.6289 -6.26953q2.08984 -1.04492 4.17969 -1.04492q4.17969 0 7.31445 2.08984l13.583 9.4043l-1.04492 -16.7188v-1.04492q0 -5.22461 4.17969 -9.4043
l12.5391 -10.4482l-15.6738 -3.13477q-6.26855 -2.08984 -8.3584 -8.35938l-6.26953 -14.6289l-8.35938 13.584q-3.13477 5.22461 -9.4043 6.26953zM595.592 292.4q55.3799 -35.5273 127.478 -17.7637q9.4043 2.08984 9.4043 11.4941q0 5.22461 -3.65723 8.88184
q-3.65723 3.65625 -8.88184 3.65625h-3.13477q-19.8525 -5.22363 -38.1387 -5.22363q-18.2852 0 -31.8691 3.13477q-13.584 3.13379 -26.123 8.88086q-12.5381 5.74707 -19.8525 11.4941t-14.1064 12.5391t-8.88184 9.92578q-2.08887 3.13477 -3.13379 5.22461
q-4.17969 5.22461 -10.4492 5.22461q-5.22461 0 -8.88184 -3.65723t-3.65723 -8.88086q0 -3.13477 2.08984 -6.26953q13.584 -21.9434 41.7959 -38.6611zM827.56 161.788q-91.9512 -37.6162 -164.05 16.7178q-33.4365 27.168 -53.2891 63.7393
q-4.17969 7.31445 -11.4941 7.31445q-5.22461 0 -8.88184 -3.65723t-3.65723 -8.88184q0 -3.13477 2.08984 -5.22461q22.9883 -42.8408 60.6045 -72.0977q82.5469 -63.7393 188.081 -19.8535q7.31445 3.13477 7.31445 11.4941q0 4.17969 -3.13477 7.83691t-8.35938 3.65723
q-3.13379 0 -5.22363 -1.04492zM690.678 71.9268q2.08984 -9.4043 11.4941 -9.4043q2.08887 0 3.13379 1.04492q6.26953 2.08984 17.2412 4.17969t36.5713 1.04492q25.6006 -1.04492 43.3633 -11.4941q32.3916 -19.8525 41.7959 -66.873q2.08984 -10.4492 11.4941 -10.4492
q5.22461 0 8.88184 3.65723t3.65723 8.88184v2.08984q-11.4941 58.5137 -53.29 83.5918q-27.167 16.7178 -64.7842 16.7178q-27.167 0 -52.2441 -8.35938q-8.35938 -2.08984 -8.35938 -11.4932q0 -2.08984 1.04492 -3.13477zM528.196 387.485q-8.88184 0 -15.1514 -6.26855
q-6.26953 -6.26953 -6.79199 -15.1514t6.26953 -15.6738t15.6738 -6.79199q8.88086 0 15.6729 6.79199t6.79199 15.6738t-6.79199 15.1514q-6.79199 6.26855 -15.6729 6.26855zM528.196 363.453q-2.6123 0 -2.6123 2.6123t2.6123 2.6123t2.6123 -2.6123t-2.6123 -2.6123z
M701.649 -11.665q-8.88184 0 -15.1514 -6.79199t-6.26953 -15.6738t6.26953 -15.6729q6.26953 -6.79199 15.1514 -6.79199q8.88086 0 15.6729 6.79199q6.79199 6.79102 6.79199 15.6729t-6.79199 15.6738t-15.6729 6.79199zM701.649 -36.7432q-2.6123 0 -2.6123 2.6123
t2.6123 2.6123q2.61133 0 2.61133 -2.6123t-2.61133 -2.6123zM1012.51 -29.4287q9.4043 0 15.6738 6.79199t6.26953 15.6738q0 8.88086 -6.26953 15.6729t-15.6738 6.79199t-15.6729 -6.79199q-6.26953 -6.79199 -6.26953 -15.6729q0 -8.88184 6.26953 -15.6738
q6.26855 -6.79199 15.6729 -6.79199zM1012.51 -4.35059q2.08984 0 2.08984 -2.6123t-2.08984 -2.6123t-2.08984 2.6123t2.08984 2.6123zM519.314 263.665q0 8.88184 -6.26953 15.6738t-15.6738 6.79199q-9.40332 0 -15.6729 -6.79199t-6.26953 -15.6738t6.26953 -15.6729
q6.26953 -6.79199 15.6729 -6.79199q9.4043 0 15.6738 6.79199q6.26953 6.79102 6.26953 15.6729zM497.371 266.277q2.08984 0 2.08984 -2.6123t-2.08984 -2.6123t-2.08984 2.6123t2.08984 2.6123zM976.457 277.771q8.88184 0 15.1514 6.26953t6.26953 15.6729
q0 9.4043 -6.26953 15.6738t-15.1514 6.26953t-15.6738 -6.26953q-6.79102 -6.26953 -6.79102 -15.6738q0 -9.40332 6.79102 -15.6729q6.79199 -6.26953 15.6738 -6.26953zM976.457 301.804q2.6123 0 2.6123 -2.08984t-2.6123 -2.08984t-2.6123 2.08984t2.6123 2.08984z" />
</svg>
