<?xml version="1.0" standalone="no"?>
<!DOCTYPE svg PUBLIC "-//W3C//DTD SVG 1.1//EN" "http://www.w3.org/Graphics/SVG/1.1/DTD/svg11.dtd" >
<svg xmlns="http://www.w3.org/2000/svg" xmlns:xlink="http://www.w3.org/1999/xlink" version="1.1" viewBox="-10 0 1010 1000">
   <path fill="currentColor"
d="M685.929 569.705q5.05176 0 8.58691 3.53516q3.53613 3.53516 3.53613 8.58594v320.234q0 30.3066 -21.2148 51.0156q-21.2139 20.709 -50.5098 20.709h-441.459q-29.2959 0 -50.5107 -20.709q-21.2139 -20.709 -21.2139 -51.0156v-299.02l-41.4189 26.2656
q-3.03027 2.01953 -6.06055 2.01953q-6.06152 0 -10.1025 -6.06055l-44.4492 -69.7051q-11.1123 -18.1836 -11.1123 -38.3867q0 -39.3984 33.3369 -60.6133l67.6836 -43.4375q-18.1836 -8.08203 -29.8008 -24.75t-11.6172 -36.873q0 -28.2852 20.2041 -47.9844
t47.4795 -19.6992q8.08203 0 15.1533 1.00977l110.112 25.2559l33.3369 -148.5q5.05078 -23.2344 23.2344 -38.3887q18.1836 -15.1523 42.4287 -15.1523q28.2852 0 47.9844 19.6992t19.6992 47.9844q0 8.08203 -1.01074 15.1523l-5.05078 24.2461l62.6328 -40.4082
q18.1836 -11.1133 38.3877 -11.1133q39.3984 0 60.6123 33.3379l44.4492 69.7031q2.02051 3.03125 2.02051 7.07227q0 6.06055 -5.05176 9.0918l-451.561 286.898h521.265zM488.939 194.918l-146.479 92.9395l64.6523 100.01l185.878 -118.193l-38.3877 -60.6133
q-10.1025 -16.1621 -29.2959 -21.2129q-5.05078 -1.00977 -11.1123 -1.00977q-13.1328 0 -25.2549 8.08008zM309.123 166.633l-30.3066 133.348l106.072 -67.6836l10.1016 -46.4707q1.00977 -5.05078 1.00977 -9.0918q0 -18.1836 -13.1318 -31.3164
q-13.1328 -13.1328 -31.3164 -13.1328q-15.1533 0 -27.2754 9.59766q-12.123 9.59766 -15.1533 24.75zM323.266 299.98l-108.092 68.6934l63.6426 101.02l108.092 -68.6934zM90.9189 374.734q9.0918 15.1543 27.2754 19.1953l8.08203 2.01953l106.071 -66.6738
l-94.959 -21.2148q-5.05176 -1.00977 -10.1025 -1.00977q-18.1836 0 -30.8115 13.1328q-12.627 13.1328 -12.627 31.3164q0 12.123 7.07129 23.2344zM69.7041 603.041l188.908 -121.225l-63.6426 -100.01l-149.51 94.959q-22.2246 14.1426 -22.2246 40.4082
q0 14.1426 8.08105 25.2559zM299.021 950.551v-356.602h-161.632v308.111q0 20.2051 14.1426 34.3477t33.3369 14.1426h114.152zM449.541 950.551v-356.602h-127.285v356.602h127.285zM673.807 902.061v-308.111h-201.03v356.602h153.551q19.1934 0 33.3369 -14.1426
q14.1426 -14.1426 14.1426 -34.3477zM818.266 462.623l24.2451 23.2344q3.03027 3.03125 3.03027 8.08203q0 11.1113 -10.1016 12.1211l-33.3369 5.05273l-14.1426 29.2949q-3.03125 7.07227 -10.6074 7.07227t-10.6074 -7.07227l-15.1523 -29.2949l-33.3369 -5.05273
q-10.1025 -1.00977 -10.1025 -12.1211q0 -5.05078 4.04102 -8.08203l23.2344 -23.2344l-5.05078 -33.3379v-2.01953q0 -5.05078 3.53613 -8.58594q3.53516 -3.53711 7.57617 -3.53711q3.03027 0 6.06152 2.02148l29.2959 15.1523l30.3057 -15.1523
q2.02051 -2.02148 5.05078 -2.02148q5.05176 0 8.58691 3.53711q3.53613 3.53516 3.53613 8.58594v2.01953zM793.011 487.877l15.1533 -2.01953l-11.1123 -11.1133q-3.03125 -3.0293 -3.03125 -8.08008v-2.02148l2.02051 -15.1523l-13.1328 7.07031
q-3.03027 1.01172 -6.06055 1.01172q-3.03125 0 -5.05078 -1.01172l-14.1436 -7.07031l3.03125 15.1523v2.02148q0 5.05078 -4.04102 8.08008l-11.1123 11.1133l16.1631 2.01953q6.06152 1.01172 8.08203 7.07227l7.07129 14.1426l7.07129 -14.1426
q3.03027 -6.06055 9.0918 -7.07227zM954.644 298.969q9.0918 3.03125 9.0918 12.123q0 5.05078 -5.05078 9.0918l-25.2559 21.2148l2.02051 33.3359v1.00977q0 4.04102 -3.53516 7.57812q-3.53613 3.53516 -8.58691 3.53516q-3.03027 0 -6.06152 -2.01953l-28.2852 -18.1855
l-30.3066 13.1328q-3.03027 1.01172 -5.05078 1.01172q-5.05078 0 -8.58691 -3.53711q-3.53613 -3.53516 -3.53613 -8.58594q0 -1.00977 1.01074 -3.03125l8.08203 -32.3262l-21.2148 -25.2559q-3.03027 -4.03906 -3.03027 -8.08008q0 -11.1133 11.1123 -12.123
l33.3369 -1.00977l18.1836 -28.2871q3.03027 -6.06055 10.1016 -6.06055q8.08203 0 11.1123 8.08203l12.1221 31.3164zM913.225 326.244l12.123 -9.0918l-15.1533 -4.03906q-6.06152 -2.02148 -8.08203 -7.07227l-6.06055 -15.1523l-8.08203 13.1328
q-3.03027 6.06055 -9.0918 6.06055l-16.1631 1.00977l10.1016 12.123q3.03125 3.0293 3.03125 7.07031v3.03125l-4.04102 15.1523l14.1426 -6.06055q2.02051 -1.00977 4.04102 -1.00977q4.04102 0 7.07129 2.01953l13.1328 9.0918l-1.00977 -16.1621v-1.00977
q0 -5.05273 4.04004 -9.09375zM779.878 107.031l-21.2139 -25.2559q-3.03125 -4.04102 -3.03125 -8.08203q0 -11.1113 11.1123 -12.1211l33.3369 -1.01172l18.1836 -29.2949q3.03125 -5.05078 10.1025 -5.05078q8.08105 0 11.1123 7.07031l12.1221 31.3164l32.3262 8.08203
q9.0918 2.02148 9.0918 12.123q0 5.05078 -5.05078 9.0918l-25.2549 21.2148l2.02051 33.3359q0 5.05078 -3.53613 8.58594q-3.53516 3.53711 -8.58691 3.53711q-3.03027 0 -6.06055 -2.02148l-28.2861 -18.1836l-30.3057 13.1328q-3.03125 1.00977 -5.05176 1.00977
q-5.05078 0 -8.58594 -3.53516q-3.53613 -3.53516 -3.53613 -8.58594q0 -2.02148 1.01074 -3.03125zM808.164 83.7969l-16.1641 1.00977l10.1025 11.1113q3.03027 4.04102 3.03027 8.08203v3.03125l-4.04004 15.1523l14.1426 -6.06055q2.02051 -1.00977 4.04102 -1.00977
q4.04004 0 7.07129 2.01953l13.1328 9.0918l-1.01074 -16.1641v-1.00977q0 -5.05078 4.04102 -9.0918l12.1221 -10.1016l-15.1523 -3.03125q-6.06152 -2.01953 -8.08203 -8.08203l-6.06152 -14.1426l-8.08105 13.1328q-3.03125 5.05078 -9.0918 6.0625zM565.715 464.643
q53.541 -34.3457 123.245 -17.1738q9.0918 2.02148 9.0918 11.1133q0 5.05078 -3.53613 8.58594q-3.53516 3.53711 -8.58691 3.53711h-3.03027q-19.1943 -5.05273 -36.8721 -5.05273q-17.6787 0 -30.8115 3.03125t-25.2549 8.58789q-12.123 5.55469 -19.1943 11.1113
t-13.6377 12.123t-8.58691 9.5957q-2.02051 3.03125 -3.03027 5.05078q-4.04102 5.05273 -10.1025 5.05273q-5.05078 0 -8.58594 -3.53711q-3.53613 -3.53516 -3.53613 -8.58594q0 -3.03125 2.02051 -6.06055q13.1328 -21.2148 40.4082 -37.3789zM789.98 338.367
q-88.8984 -36.3672 -158.603 16.1641q-32.3262 26.2656 -51.5205 61.6211q-4.04102 7.07227 -11.1123 7.07227q-5.05078 0 -8.58691 -3.53516q-3.53516 -3.53711 -3.53516 -8.58789q0 -3.0293 2.02051 -5.05078q22.2246 -41.418 58.5918 -69.7031
q79.8057 -61.623 181.837 -19.1953q7.07129 3.03125 7.07129 11.1133q0 4.04102 -3.03125 7.57617q-3.03027 3.53516 -8.08105 3.53516q-3.03125 0 -5.05078 -1.00977zM657.644 251.49q2.02051 -9.0918 11.1123 -9.0918q2.02051 0 3.03027 1.00977
q6.06152 2.02148 16.668 4.04102q10.6074 2.01953 35.3574 1.00977t41.9238 -11.1113q31.3164 -19.1953 40.4082 -64.6543q2.02051 -10.1016 11.1123 -10.1016q5.05078 0 8.58691 3.53516q3.53516 3.53711 3.53516 8.58789v2.01953q-11.1123 56.5723 -51.5205 80.8164
q-26.2646 16.1641 -62.6328 16.1641q-26.2646 0 -50.5098 -8.08203q-8.08203 -2.01953 -8.08203 -11.1113q0 -2.02148 1.01074 -3.03125zM500.557 556.572q-8.58691 0 -14.6484 -6.0625q-6.06055 -6.06055 -6.56543 -14.6465q-0.505859 -8.58789 6.06055 -15.1543
t15.1533 -6.56641t15.1533 6.56641t6.56641 15.1543q0 8.58594 -6.56641 14.6465q-6.56641 6.0625 -15.1533 6.0625zM500.557 533.338q-2.52539 0 -2.52539 2.52539t2.52539 2.52539t2.52539 -2.52539t-2.52539 -2.52539zM668.25 170.674q-8.58594 0 -14.6475 -6.56641
t-6.06152 -15.1523q0 -8.58789 6.06152 -15.1543t14.6475 -6.56641q8.58691 0 15.1533 6.56641t6.56641 15.1543q0 8.58594 -6.56641 15.1523t-15.1533 6.56641zM668.25 146.43q-2.52539 0 -2.52539 2.52539t2.52539 2.52539q2.52637 0 2.52637 -2.52539t-2.52637 -2.52539z
M968.786 153.5q9.0918 0 15.1533 6.56641q6.06055 6.56641 6.06055 15.1523q0 8.58789 -6.06055 15.1543q-6.06152 6.56641 -15.1533 6.56641t-15.1533 -6.56641q-6.06055 -6.56641 -6.06055 -15.1543q0 -8.58594 6.06055 -15.1523q6.06152 -6.56641 15.1533 -6.56641z
M968.786 177.744q2.02051 0 2.02051 -2.52539t-2.02051 -2.52539t-2.02051 2.52539t2.02051 2.52539zM491.97 436.863q0 8.58594 -6.06152 15.1523q-6.06055 6.56641 -15.1523 6.56641t-15.1533 -6.56641t-6.06152 -15.1523q0 -8.58789 6.06152 -15.1543t15.1533 -6.56641
t15.1523 6.56641q6.06152 6.56641 6.06152 15.1543zM470.756 439.389q2.02051 0 2.02051 -2.52539t-2.02051 -2.52539t-2.02051 2.52539t2.02051 2.52539zM933.935 450.5q8.58594 0 14.6475 6.06055q6.06152 6.0625 6.06152 15.1543t-6.06152 15.1523
q-6.06152 6.0625 -14.6475 6.0625q-8.58691 0 -15.1533 -6.0625q-6.56641 -6.06055 -6.56641 -15.1523t6.56641 -15.1543q6.56641 -6.06055 15.1533 -6.06055zM933.935 473.734q2.52539 0 2.52539 -2.01953q0 -2.02148 -2.52539 -2.02148q-2.52637 0 -2.52637 2.02148
q0 2.01953 2.52637 2.01953z" />
</svg>
