<?xml version="1.0" encoding="utf-8"?>
<!-- Generator: Adobe Illustrator 27.3.1, SVG Export Plug-In . SVG Version: 6.00 Build 0)  -->
<svg version="1.1" id="Layer_1" xmlns="http://www.w3.org/2000/svg" xmlns:xlink="http://www.w3.org/1999/xlink" x="0px" y="0px"
	 viewBox="0 0 16 16" style="enable-background:new 0 0 16 16;" xml:space="preserve">
<path d="M5.1,7L5.1,7L1.5,9.6l13-0.6l-6-2.8v0l1.6,0l0.3-1.2L2.8,3.2l4.8,4.5v0L5.1,7z M7.9,7.4L7.9,7.4L4.6,4.1l5.3,1.2L9.8,5.6H8
	l0,0.8l0.3,0.2l4.1,1.9L3.2,9l1.9-1.4l2.7,0.8l0.3-0.8L7.9,7.4z"/>
<polygon points="8.7,13.1 9.3,10.1 7,10.2 "/>
<polygon points="10.9,2.9 9.5,3.8 10.6,4.1 "/>
</svg>
